<svg xmlns="http://www.w3.org/2000/svg" viewBox="0 0 250 250"><defs><style>.cls-1{fill:#fff;}.cls-2{fill:none;}</style></defs><g id="Layer_2" data-name="Layer 2"><g id="Layer_1-2" data-name="Layer 1"><path class="cls-1" d="M134.45,74.74a14,14,0,0,1-6.27,2.74,11,11,0,0,0-1.39.38c1.59.12,3-.61,4.6-.74a10.2,10.2,0,0,1-6.22,3.57c-3.88.65-7.82.73-11.74,1.06A13.78,13.78,0,0,0,108,83l6.4-.32V82.5L113,82.35v-.13l6.64-.44a8.82,8.82,0,0,1,3-.16c1.64.53,2.77-.59,4.19-.83.18.19-.33.28-.13.52.6-.09,1-.67,1.58-.77-1.81,1.31-3,3.25-5,4.45,1.54-1.2,3.54-1.3,5.14-2.3-1.6,1.92-4.56,1.75-6.07,4,.65-.08,1-.54,1.72-.85l-1.23,1.45a23.29,23.29,0,0,0,3.4-2.23,18.4,18.4,0,0,1-4.47,3.8c.77.09,1.2-.46,1.8-.55a13.42,13.42,0,0,1-7.19,4.77,15.26,15.26,0,0,0,5.34-1.62,19.06,19.06,0,0,0,4.5-3.22c-2.27,3-5.43,4.61-8.93,5.73a12.34,12.34,0,0,0,5.88-1.73c-.28.76-.92.87-1.34,1.49a13.83,13.83,0,0,0,3.74-2.18c-1,1.81-2.55,3.12-3.73,4.74-.34,0-.56.17-.8.34a22,22,0,0,1-8.28,3.53c-2.55.57-5.14.83-7.7,1.29a69,69,0,0,0,7.45-.68l-1.49.45,1.15.17-3.51.88c5.07-.35,10.24-2.54,12.92-5.66a14.81,14.81,0,0,1-6.52,5.79c-3.62,1.75-7.53,2.39-11.47,2.92-1.07.14-2.14.27-3.19.48,2,0,4,.06,5.93,0a27.68,27.68,0,0,0,6.64-1,14.92,14.92,0,0,0,7.42-4.72,13.69,13.69,0,0,1-8.4,5.81c-3.36.93-6.84,1-10.29,1.39,2.94.29,5.87.6,8.81.85a4.56,4.56,0,0,0,3.74-1.13,4.28,4.28,0,0,1-4,1.89c-2.84-.08-5.68-.3-8.52-.44-.36,0-.74-.14-1.1.22,4,0,7.8,1.06,11.75,1.28a5,5,0,0,1-2.6.22c-1-.09-1.93-.23-2.9-.31s-1.84-.11-3-.17l3.82,3.1c-2-1-3.61-2.52-5.87-2.91a12,12,0,0,1,4.73,3.64c-1.27-.89-2.4-2-4-2.45,1.53.82,2.16,2.42,3.24,3.68-2.25-1.45-4.42-3.08-7.3-2.82a12.94,12.94,0,0,1,6.09,2.74c-2.17-1.17-4.36-2.26-6.95-2l1.68.62c-2.07-.24-4.13-.82-6.07.54,2.09-.24,4.18-.67,6.23.22a3,3,0,0,0-2.19,0,6.88,6.88,0,0,1-2.1.52c-.3,0-.65.19-.57.55s.43.19.68.18c3.08-.06,4.94.35,7,1.61-2.67-.93-5.36-1.76-8.23-.95a16.35,16.35,0,0,1,3.22.28c-2.09,0-3.87,0-5.5,1,3.18-.25,6.38-.91,9.37.84a14.8,14.8,0,0,0-12.93,1.47,15.64,15.64,0,0,1,7-1.7,13.65,13.65,0,0,1,7.36,1.42c-2.61-.65-4.86-1.41-7.26-1a9.42,9.42,0,0,1,2.81.53c-3.15-.08-6.25-.59-8.9,1.92,4.09-1.44,8-1.84,12-.41L99,120c.42.55,1.18.27,1.64.81-4.19-.86-8.22-.86-11.91,1.64a13.66,13.66,0,0,1,10.49-.79c-3.7-.56-7.33-.7-10.56,2a14,14,0,0,1,4.27-.23c-3.62.42-6.71,1.2-8.79,4.08,2.25-1.51,4.52-3,7.42-2.54-3.63.26-6.25,2.23-8.45,4.94-1.73,2.11-3.43,4.38-6.14,5.19-3.41,1-6.25,3.4-9.8,4-.66.11-1.33.17-2.22.29a10,10,0,0,0,4.33.85c-2.49.57-4.48-1-6.69-.67,2,.23,3.81,1.3,6,1.08-2.72,1-5.36-.85-8,.31.79-.19.69.73,1.46.9L61,142a3.81,3.81,0,0,0-2.74,1.86c-5.34,8.49-11,16.77-15.83,25.58a120.46,120.46,0,0,0-6.57,13.76,6.45,6.45,0,0,1-3.45,3.66,15.73,15.73,0,0,0-4.78,3.3c-.2.2-.49.39-.29.75s.44.25.7.24c2.61-.1,5.25-.28,7.82-.5,3.62-.3,7.22-.14,10.82-.41,3.09-.22,6.18.2,9.3-.13,1.6-.17,3.28.48,4.93.75a3,3,0,0,0,.66,0c1.88-.17,3.74-.19,5.38,1a1.22,1.22,0,0,0,1.39.17c-.13-.1-.34-.19-.37-.32-.08-.3.19-.23.36-.23a3.25,3.25,0,0,1,3.11,4.17A1.69,1.69,0,0,1,69.61,197a7.61,7.61,0,0,0-4,1.69c-.48.35-1.48.58-1.23,1.36s1.18,1,1.95,1.07a28.76,28.76,0,0,1,7.16,1.62c1.56.64,3,.09,4.55.54,3.32,1,6.77,1.42,10.16,2.12.65.13,1.14-.38,1.83-.14,3.08,1.06,6.4.79,9.53,1.7a11.27,11.27,0,0,0,3,0,10.72,10.72,0,0,1,5.23,1,1.62,1.62,0,0,0,1.1.09c2.16-.4,4.26.08,6.38.38a13.46,13.46,0,0,0,2,.07c2.19,0,4.39,0,6.58,0a6,6,0,0,1,2.21.32c.14.06.34.18.42.12,1.27-.86,2.21.37,3.31.51a1.55,1.55,0,0,0,.88,0c2.49-1.05,5.07-.33,7.61-.33s4.88.43,7.41.1c1.69-.21,3.39-.38,5.07-.71a2.24,2.24,0,0,1,1.59.3c.78.46,1.7,0,2.49-.17a42.26,42.26,0,0,1,6.69-1.2c.25,0,.58-.26.72.24.09.34.45.22.67.13,2.73-1.18,5.71-.89,8.54-1.49.51-.1,1-.21,1.51-.36.89-.27,1.67-1.1,2.73-.46.1,0,.35-.1.52-.19a13.45,13.45,0,0,1,5-1.33,17.82,17.82,0,0,0,3.15-1.09c.58-.2,1.07-.48,1.75,0s1.2-.34,1.83-.64l-1-.16a6.13,6.13,0,0,1,3.14-.49,8.06,8.06,0,0,0,3.79-1.42c.57-.31,1.27-.4,1.69-1,0,0,.07-.05.1,0,2.23.54,3.73-2,6.05-1.41.44.12,1.11-.62,1.68-.94.78-.44,1.56-.87,2.35-1.29.13-.07.35-.15.43-.09,1.25.86,1.69-.23,2.27-.94a3.25,3.25,0,0,1,2.37-1.33c.76-.06,1.19-.71,1.79-1.06,1-.64,2-1.41,3-2.08,1.39-.93,3.11-2.09,3.46-4a7.72,7.72,0,0,0-1.32-6.2c-.63-.84-1.63-1.39-2.32-2.18s-1.59-1.27-2-2.24a1.14,1.14,0,0,1-.09-.93l0,0a12.6,12.6,0,0,1,5.36,5.19c.32.55.64,1.1,1,1.65a4.34,4.34,0,0,1,.5,3.33c-.39,1.63-.53,3.37-1.68,4.67a24.12,24.12,0,0,1-4.18,3.25c-.43.32-1,.49-1.36.84a14.9,14.9,0,0,1-3.92,1.93c-1.39.63-2.4,1.77-3.72,2.48-.32.18-.6.46-1,.43a5.37,5.37,0,0,0-3.21,1.13c-1.41.82-3.07,1.1-4.45,2a1.64,1.64,0,0,1-1,.05,2.81,2.81,0,0,0-2.33.79c-1.26,1.08-2.94,1.31-4.48,1.62a44.15,44.15,0,0,0-6.64,1.76,44.79,44.79,0,0,1-7.68,1.87c-3.65.64-7.3,1.36-11,1.9s-7.35.94-11,1.16c-2.31.14-4.55.84-6.93.61s-4.78,0-7.18,0c-1,0-1.92.23-2.89.28-3.34.17-6.64-.41-10-.32a64.33,64.33,0,0,1-10.08-.81c-1-.13-2.14.29-3.19.08-1.93-.38-3.89-.29-5.84-.64-1.72-.31-3.55.19-5.34-.12-1.16-.2-2.42,0-3.34-1-.12-.14-.52-.14-.74-.07-1.89.62-3.7.08-5.5-.36-1.29-.31-2.62-.36-3.92-.69-1.79-.46-3.63-.75-5.46-1-4.81-.71-9.49-2-14.26-2.93A8.86,8.86,0,0,1,63.74,202c-1.36-1.09-1.61-3-.41-3.92a11.24,11.24,0,0,1,3-1.92c.84-.3,1.64-.73,2.47-1.07a.82.82,0,0,0,.55-.88c0-.41-.45-.3-.72-.33-1.32-.15-2.58-.63-3.86-.82-1-.15-2.07-1-3.16-.22a.26.26,0,0,1-.22,0c-1.8-1.3-3.78,0-5.65-.41-.14,0-.31,0-.33-.3l1.42-.34c-1.87-.59-3.56.33-5.26.11-1.15-.15-2.26.18-3.42.12-1.33-.06-2.76-.12-4.15-.07-3.79.14-7.56.6-11.37.43a58.38,58.38,0,0,0-6.73.37,1.32,1.32,0,0,1-1.51-.87,1.09,1.09,0,0,1,.62-1.49c.46-.18.59-.54.76-.91a57.68,57.68,0,0,1,5.44-9.66c3.21-4.48,5.35-9.58,8.26-14.24,5.4-8.68,11.13-17.13,16.94-25.53.26-.37.51-.74.79-1.17a1.75,1.75,0,0,0-.43-.2,5.45,5.45,0,0,1-4.68-4.25,25.89,25.89,0,0,1-.74-4.19c-.24-1.74-.49-3.48-1.73-4.87a5.34,5.34,0,0,1,2.13,3.5c.41,1.63.72,3.28,1.15,4.9a4.5,4.5,0,0,0,1.84,2.79,22.09,22.09,0,0,1-2.37-6.21,16.53,16.53,0,0,1,2.15-12.61,5.62,5.62,0,0,0,.52-3.89,4.18,4.18,0,0,1,.08,3.57,18,18,0,0,0-2.23,10,1.72,1.72,0,0,1-.07.41c-.24-.77,0-1.52-.38-2.17-.61,2.62,1.1,8.67,3.05,10.77.14-.15,0-.27-.06-.4a22.18,22.18,0,0,1-1.67-13.62,14.74,14.74,0,0,1,2.05-5.2A10.37,10.37,0,0,0,57,107.62a3.23,3.23,0,0,1,0-.57,11.56,11.56,0,0,1,1.3,7.84A16.42,16.42,0,0,0,59.53,112a6,6,0,0,0-.61-3.39c-.4-1-.86-2-1.24-3.08a17.9,17.9,0,0,1,2.51,4.34,5.35,5.35,0,0,0-.62-3.95c-.6-1.11-1.3-2.16-2-3.35a11.33,11.33,0,0,1,3.71,6.13c.87-2,.66-4.2-1.74-7a11.84,11.84,0,0,1,2.18,2.18c-.26-2.49-2.22-3.95-3.39-5.92a10.9,10.9,0,0,0,1.43,1.45c.18.12.28,1.43,1,.27.07-.12.45.29.61.53a17.54,17.54,0,0,1,2.06,4.35c.3-1.45-.32-2.76-.57-4.13a13.52,13.52,0,0,0-1.39-4.13c-.68-1.26-1.63-2.38-2.32-3.67l.64.57.13-.09-.41-.8A19.37,19.37,0,0,1,63.53,98c.53,1.3,1.55,2.27,2,3.58.2-1.5-.43-2.88-.82-4.28a.72.72,0,0,1,.77-.09c.83.4,1.37,2.89.77,3.67a.44.44,0,0,0-.09.36c.39,3-.14,5.89-.5,8.83a2.65,2.65,0,0,0,.07.46,20.41,20.41,0,0,0,.91-4.31c.3,1.41-.22,2.67,0,3.93a18.52,18.52,0,0,0,.63-6.7,2,2,0,0,1,.81-2.05,2.75,2.75,0,0,0-.16,1.85,34.31,34.31,0,0,1,0,5.91c0,.4,0,.8,0,1.2a21.16,21.16,0,0,0,.14-9c-.55-.42-.47-1.07-.58-1.63a28.17,28.17,0,0,0-1.29-3.34l1.08,1.24c-.93-3.08-3-5-4.89-7,2.56,1.78,4.78,3.83,5.84,7,.13-1.18.13-1.18-3.23-5.62A10.7,10.7,0,0,1,69.55,100c.52-1.41-.27-4.33-1.7-6.56-1.28-2-3.21-3.32-4.92-4.92l2.33,1.5.11-.14-1.66-1.46a14.42,14.42,0,0,1,5,3.91c-.18-.89-.62-1.47-1.94-2.62-.81-.7-1.64-1.38-2.4-2.14a17.7,17.7,0,0,1,5.1,4.22,8.57,8.57,0,0,0-.51-2.62c.44-.17.71.18,1.25.33a30.75,30.75,0,0,1-2.66-6c.87,1,1.15,2.46,2.12,3.47a19.16,19.16,0,0,1-.92-8.43A22.77,22.77,0,0,0,71.17,89c-1.4-5.69-2-11.24,2.32-16.07a15.16,15.16,0,0,0-1.34,4.67c.56-.56.37-1.31.83-1.74.49,2.83.21,5.75,1.16,8.5-.72.46-.11,1-.07,1.5a42.13,42.13,0,0,1,.41,5.62c0,.4-.49.4-.36.86.39,1.44.65,2.91,1,4.36.15-.45.65-.49.85-1l.63,3.9a20.69,20.69,0,0,0,0-3.69,18.4,18.4,0,0,1-.07,9,22.21,22.21,0,0,0-.69-6.49,34.73,34.73,0,0,1-1,13.15,51.65,51.65,0,0,0,2.58-8.92c.61-4.31-.41-8.39-1.68-12.45a19.42,19.42,0,0,1-1-3.76l1.54,4.21c-.36-3.41-1.5-6.63-2.09-10a15.16,15.16,0,0,1,1-9.44A2.67,2.67,0,0,1,76,70c-2.06,2.79-.9,5.72-.5,8.6a29.32,29.32,0,0,0,1.67,6.15c.33-.08.06-.43.36-.6l1.67,4.64.15-.05A9.78,9.78,0,0,1,79,86.56c.17-2.81-1-5.35-1.85-7.87a18.74,18.74,0,0,1-.86-5.58l.32,0,.32,3.5c.2-1.6,0-3.2.39-4.78a20.32,20.32,0,0,0,.65,5.6L78,76.3c.1,0,.19,0,.2.09l.45,1.5c.06.2.06.5.38.41a.47.47,0,0,0,.29-.55l-.3-2.34A17.12,17.12,0,0,1,80,68.12c-1.57,6.11.61,11.44,3.36,16.66-1-3.89-3-7.53-2.74-11.73.12.69.21,1.39.36,2.07s.39,1.39.62,2.23c.15-.23.19-.26.19-.29-1.12-4.58.4-8.68,2.44-12.63.82-1.58,1.88-3,2-4.92l.31.09L85.81,64c1.68-1.85,2.48-3.88,3.56-5.77a26.55,26.55,0,0,0-.89,8.13c.1-.64-.47-1.06-.45-1.66s.07-1.19.14-1.79.17-1.24.28-2.07c-1,1.9-1.91,7.85-1.08,11.56a1.53,1.53,0,0,1-.35-1,23.34,23.34,0,0,1,.25-8.31c-1.8,1.71-1.4,3.78-1.52,5.73l-.13-.91c-.08,6.79,2.43,13.13,3.29,19.76a6,6,0,0,0,0-1.34c-.53-4.3-1.6-8.55-1.44-12.92a96.12,96.12,0,0,1,2.17,11.5,11,11,0,0,0-.12-3.53c-.15-1.08-.34-2.15-.54-3.21-.33-1.69-.61-3.39-1-5a11.29,11.29,0,0,1,.22-5.88c.11,2.51,1.35,4.81,1.15,7.39a23.42,23.42,0,0,0,1.21,8.59c.2.66.28,1.31.5,2.26a27.2,27.2,0,0,0-.15-6.4c.71,1,.07,2.32,1.06,3.09a10.55,10.55,0,0,0-.29-8.78c-1.29-2.59-1.46-5.25-1.79-7.79-.8,3,1.35,6.08.35,9.36-.53-2.4-1.51-4.59-1-7.17.56-3.23.54-6.57,2.34-9.49a4.55,4.55,0,0,1,.65-.92c-2.35,4.6-2.32,9.26-.38,14.26a25.39,25.39,0,0,0-.55-4.4A12.83,12.83,0,0,1,92.5,59.3a19.12,19.12,0,0,0-.92,7.16c.41,5.19,2.09,10.21,2,15.46a27.72,27.72,0,0,0-.62-9,35.07,35.07,0,0,1-.8-11.09c.11-.84.63-1.63.28-2.51.2-.26.32-.59.78-.6-1.13,3.7-.58,7.37.14,11.05a47.62,47.62,0,0,1,.77,5.43,4.25,4.25,0,0,0,.78,2c.06.09.46.06.56.4.2-2.05,1.14-4,.54-6.16a20.08,20.08,0,0,1,.59,3.59,1.89,1.89,0,0,0,.53-1.42,12.09,12.09,0,0,0-1.13-6c-.74-1.5-.62-3.28-1-5.23-.68,2.56.51,4.63.68,7l-.64-1.57c.13,2,.7,3.87.72,5.82-1.62-4.62-1.62-9.47-1.88-14.29-1.32,3.72.08,7.33.48,11.05-1.93-2.44-1.82-11,.22-14a6.2,6.2,0,0,0,0,3.62c.41-.29.32-.65.29-.94-.15-1.44.67-2.47,1.44-3.53a11.52,11.52,0,0,1,4.8-3.71c1.15-.51,2.14-1.1,1.77-2.65l.32,1.5a19.59,19.59,0,0,0,4.69-2.81,19.85,19.85,0,0,1,6.57-3.31,5.91,5.91,0,0,0,2.25-1.2c1.8-1.65,4.2-1.64,6.37-2.21a26.54,26.54,0,0,1,3.89-.51,8,8,0,0,0,3.34-.8,5.54,5.54,0,0,1,2.82-.67,43.55,43.55,0,0,1,9.05.66,3.57,3.57,0,0,0,1.75-.06,26.34,26.34,0,0,1,13.19-.65,9,9,0,0,0,2.79-.11,52,52,0,0,1,18.72,2.3.5.5,0,0,1,.27.22c-7.2-1.58-14.39-3.17-21.79-1.42,1.73,0,3.46-.07,5.19,0,1.94.11,3.88.33,5.81.51,2.28.21,4.59-.22,6.87.46a30.09,30.09,0,0,0,5.48,1.11c2.05.19,4,.85,6,1a8.11,8.11,0,0,0,4.4-.49c-.77.77-1.81.83-3,1.22a8.14,8.14,0,0,0,5.91-2,4.11,4.11,0,0,1-1.73,1.57c-.68.35-1.41.63-2.25,1,6.47,1.68,12.86,3.25,17.31,8.64-2.49-2.77-6-3.88-9.2-5.46-4.43-2.18-9.22-2.9-14-3.54a54.52,54.52,0,0,0-8.18-.47,3.37,3.37,0,0,0-1.61.28h3.56v.17h-3.39v.17l4.37.39v.09l-1.06.12v.11l1.3.11v.09l-1.31.2c2.62,1.53,5.57,1.23,8.39,1.66,0-.29-.2-.31-.33-.37a3.58,3.58,0,0,0-.77-.2c1.1-.14,2.06.76,2.79-.24l-.75-.39c.07,0,.12-.09.16-.08,6.38,1.2,12.69,2.58,17.78,7a25,25,0,0,0-6.84-3.1c.86.47,1.76.88,2.59,1.4,6.15,3.8,10.1,9.36,12.54,16a11.17,11.17,0,0,1-.22,7.39,8.57,8.57,0,0,1-.64,2.24c-.89,1.2-.58,2.64-1.08,4-.26-.63.06-1.18-.32-1.81-.52,1.5-.08,3-.77,4.72.66-6.27-1.1-11.66-3.67-16.87.4,1.73,1.24,3.33,1.57,5.09-.4-.26-.4-.7-.52-1.08A26.91,26.91,0,0,0,201,60.2c-.26-.25-.46-.62-1-.65L201,60.78l-.09.08-2.14-1.69c.47,1,1.29,1.24,1.52,2.26l-2.41-2.27c.66,1.09,1.63,1.87,2.29,2.92-.57-.09-.75-.78-1.52-1a50.1,50.1,0,0,1,4.9,7c.12.21.25.38.51.19,1.18,1.85,1.69,4,2.63,6a30.77,30.77,0,0,0-3.11-8.12,2.45,2.45,0,0,1,1.84,1.15A40.22,40.22,0,0,1,208,73.58c.26-.69-.31-1.12,0-1.6a33.84,33.84,0,0,1,1.6,13.26,39.43,39.43,0,0,0-2.74-13.43A109.5,109.5,0,0,1,208.94,92c-.52-4.22-.63-8.53-1.72-12.64-1.57-5.91-3.55-11.7-7.82-16.35l-1.05-1.13c-.17.53.21.69.39.91a28.7,28.7,0,0,1,4.5,6.82A38.15,38.15,0,0,1,205.49,78c.87,4.44,1,9,1.66,13.44-1-3.41-1.33-6.92-2-10.42.38,0,.17.33.44.44a9.62,9.62,0,0,0-.4-3.13,29.12,29.12,0,0,0-6.35-13.79c-.21-.24-.36-1.19-1-.4-.15.17-.18.15.35.83a5.74,5.74,0,0,1,.28.52l-1.08-.89a30,30,0,0,0,1.55,3.11c3,4.24,4.43,9.11,5.34,14.16.39,2.17.61,4.37,1,6.54a18.36,18.36,0,0,0,9.06,13.09,1.53,1.53,0,0,1,.46.38c-4.69-1.9-7.47-5.66-9.68-10,.82,4.34,1.89,8.53,5.81,11.26l-1.57-1.74c2,1.39,3.76,3.32,6.62,3.55-.33.1-.54.11-.57.18-.11.31.21.32.37.39a20.62,20.62,0,0,0,6.43,1.84c1.19.12,2.38.21,3.54.38a26.2,26.2,0,0,1-19.37-7.66,46.67,46.67,0,0,1-3.49-5.59,17.22,17.22,0,0,0,2.29,5.27c.22.3.39.78.94.63,1.21,1.94,3.24,2.9,5,4.17a31.46,31.46,0,0,1-3.35-1.64,19.11,19.11,0,0,0,7,3.69,21.78,21.78,0,0,1-9.08-4.08c.34.35.66.71,1,1a7.71,7.71,0,0,1,1,1,44,44,0,0,1-4.92-4.16,38.42,38.42,0,0,1-4.09-5c.73,2.37,2.29,4.22,3.78,6.12.27.34.71.57.73,1.08a4.33,4.33,0,0,1-1.64-1.2c.11-.47-.28-.67-.51-.94a31,31,0,0,1-5.37-9.26,2.46,2.46,0,0,0-.61-1.27,23.24,23.24,0,0,0,1.22,4,7.06,7.06,0,0,1-1.45-3.57c-.81-4.12-.79-8.33-1.11-12.51-.16-2-.31-4.07-.47-6.11,1.24,3.62,1.6,7.42,2.36,11.12-.55-7.33-1.84-14.47-5.91-20.84,2.18,2.59,4.44,5.1,5.38,8.55-.86,0-.62-.86-1.32-1.08.71,1,.41,2,.67,3,.75,2.77,1.39,5.57,2.05,8.36.19.8.27,1.63.4,2.44a42.26,42.26,0,0,0-.43-6.27c.22,1.06,1.48,1.69,1.15,3a17.54,17.54,0,0,0-.6-6,24.3,24.3,0,0,0-2.15-5.53c-.9-1.75-2-3.36-3.07-5a20.42,20.42,0,0,1,4,5.91,47.76,47.76,0,0,1,2.21,6.7c.5,2.28.93,4.58,1.39,6.87a38,38,0,0,0-2.26-11.45,37.81,37.81,0,0,1,3.66,11.13c-.78-8.27-4.44-15.19-10-21.25l2.23,1.93a49.31,49.31,0,0,0-8.31-8l.53.93c-.84-.74-1.41-1.22-2-1.72a36.21,36.21,0,0,0-9.17-6.39,2.57,2.57,0,0,0-1.57-.49l-1.29-.31c3.28,1.63,5.87,4.08,8.46,6.54a42,42,0,0,1,3.85,7.56.75.75,0,0,1,0,.58L182,59.36l-.14.07.67,2.41a21.84,21.84,0,0,0-5.47-9c-.53.82.44,1.19.57,1.83a7.92,7.92,0,0,0,1,1.9A3.2,3.2,0,0,1,177,55a2.12,2.12,0,0,0-1.46-1.4c.06.8.72,1.4.73,2.2a2.31,2.31,0,0,1-.32-.45c-1.18-2.84-3.4-4.86-5.53-6.94a1.5,1.5,0,0,0-1.15-.56,14.19,14.19,0,0,1,4.89,6.94c1,3.53,2,7,.91,10.64-.84,2.75-1.58,5.54-2.35,8.31a28,28,0,0,0-1.38,8.32A35.71,35.71,0,0,1,173,74.62c-.47,3.28-1.18,6.53-.41,9.87-.39-4.68.8-9.13,1.84-13.61a54,54,0,0,0,1.76-10.74,1.46,1.46,0,0,1,.65,1.44,44.5,44.5,0,0,1-1.21,9,42.38,42.38,0,0,0-1.14,6.71c.38-1.4.71-2.8,1-4.21.9-4.38,2.25-8.7,1.66-13.28-.17-1.37-.67-2.66-.89-4a17.93,17.93,0,0,1,1.49,7.15c.29,4.31-.67,8.49-1.39,12.69a41.69,41.69,0,0,0-.68,8.5c-.27-1-.54-2-.8-3-.53,7.12,2.69,12.62,7.51,17.43a22.57,22.57,0,0,1-8.16-11.7c-1.32-4.81-.51-9.57.42-14.32-3.07,9.61-2.88,17.36,6.78,26.37-3.37-1.59-7.3-7.33-9.44-13.7a13,13,0,0,0,2.4,7.28c.9,1.16,1.79,2.37,2.59,3.58.69,1,1.53,1.92,2.33,2.93-.44.07-.6-.28-.82-.47-3.4-2.8-5.43-6.63-7.76-10.24-1.27-2-2.87-3.78-3.83-5.88-1.82-4-4.73-7.5-5.43-12-.1-.66-.21-1.33-.36-2.26-.44,1.59.17,2.84.23,4.11a13.13,13.13,0,0,0,.84,3.9A28.55,28.55,0,0,0,164,79.93c-1.5-1.32-3.5-5.84-4.26-9.42.62-1.73.13-3.54.33-5.3l-.57,1.57c.06-2.28.26-4.31.49-6.34a29.11,29.11,0,0,0-.12-9.81,7.25,7.25,0,0,0-1.69-3.7c1.92,4,1.82,8,1.48,12.12-.32,3.82-1,7.65.08,11.46a7.58,7.58,0,0,1-.8-4c0-.93,0-1.86-.06-2.79a15.49,15.49,0,0,0,1.29,10.19c-2.22-3.08-2.55-6.62-2.5-10.27a14.9,14.9,0,0,0,1,9.65C156,70,156.9,65.94,155.92,62.24a6.5,6.5,0,0,0-.35,2.46,11.4,11.4,0,0,0,.24,2.67c.2.82.43,1.64.57,2.48a10.38,10.38,0,0,1-1.22-4.91c0-.69-.12-1.33-.83-1.68-.46-.23-.24-.65-.23-1s.06-.89.05-1.33a12.23,12.23,0,0,0,.92,8.28,6.64,6.64,0,0,1-1.14-2.53c-.09-.31-.17-.76-.62-.63s-.22.56-.14.84c.22.7.49,1.38.85,2.36a9.92,9.92,0,0,1-1.46-2.73c-.12-.3-.31-.6-.64-.47s-.08.52,0,.75a14.68,14.68,0,0,1,.56,1.58c-.75-1.27-1.42-2.61-3.28-2.74-.25.14.47.47,0,.82-.48-1.78-2.19-1.87-3.46-2.59.92-.73,1.36.61,2.12.55,0-1.26-1.56-1.46-1.7-2.61.44-.12.65.44,1.17.38-.19-.33,0-1-.55-.85-1.34.27-1.18-.57-1.15-1.49-.23.86-.25,1.9-1.58,1.18a3.07,3.07,0,0,1,.07.44c0,.62,1.27.58.82,1.15-.3.37-1.13-.22-1.74-.32,0,0-.1.06-.19.1.72.91,2.15.46,2.77,1.49-.64-.19-1.17-1-2-.3a2.59,2.59,0,0,0-2-.82,25,25,0,0,1-3.24,0,33.43,33.43,0,0,0-8.63.92c1.83,0,3.63-.48,5.48-.32-.14.24-.47,0-.58.62h9c.08,0,.16-.13.24-.2.73.62-.1.39-.24.4a60.83,60.83,0,0,0-6.61.47c-1.4.19-2.81.42-4.21.65a2.22,2.22,0,0,0-1.43.69,79.72,79.72,0,0,1,11.33-1l-6.26,1c2.09.46,4.22-.48,6.52.45A3.39,3.39,0,0,0,140,67.88a15.93,15.93,0,0,1-5.21,3.44c-.1-.29-.54-.61.16-.77a2,2,0,0,0,1.28-.81c-3,1.18-5.93,1.89-8.79,2.86a3.84,3.84,0,0,1,1.41.07l-1.76.46a2.66,2.66,0,0,0,1.56,0c1.54-.4,3.08-.83,4.63-1.25-1.95,1.07-4.15,1.37-6.19,2.17a22.07,22.07,0,0,0,7.4-1.85c-2.59,1.8-5.57,2.51-8.84,3.1,2.47.25,10-1.6,13.7-5.13-.42.84-3.25,3.3-5,4.3a30.86,30.86,0,0,1-11.59,2.22l2.08-.43c-3.89-.4-15.53,1.73-17.36,3.13a31.7,31.7,0,0,1,4.92-1.16c-1.59.56-3.21,1-4.77,1.6a18.55,18.55,0,0,0-4.5,2.24,1.8,1.8,0,0,0,.62-.19c6.14-3.06,12.76-4.23,19.5-4.66C127.18,77,131,76.66,134.45,74.74ZM119.79,62.46a40.4,40.4,0,0,1,10.74-6.64c-.47-.24-.77,0-1.07.12-4.12,1.5-7.49,4.17-10.83,6.89a.54.54,0,0,0-.19.5c-.1.2-.5.25-.24.74,3.06-1.88,6.12-3.75,9.33-5.35a12.13,12.13,0,0,0-3.46,1.39C122.63,60.87,121.21,61.67,119.79,62.46ZM72.92,110.64c0-2.31.35-4.61.19-6.92a14.52,14.52,0,0,0-.85-4.51,48.21,48.21,0,0,1-.46,15.67,6.7,6.7,0,0,0,.41-1.16c.33-1,.2-2.15.74-3.12l-.43,3.45.12,0,.57-2c.31.63-.28,1.22,0,2a25.3,25.3,0,0,0,1.15-10.13c-.4.12-.15.47-.3.57-.36-.27-.07-.8-.56-1.12A29.38,29.38,0,0,1,72.92,110.64ZM143,45.79c1.7,2.16,1.73,4.86,2.32,7.38a13.19,13.19,0,0,0-1.82-7.6,8.34,8.34,0,0,0-2.89-2.74c-.7-.41-.31.08-.26.3-.3.56.48.58.48,1-.35.29-.75-.08-1.27,0a13.31,13.31,0,0,1,3.62,6l.15-2c.6,1.22.4,2.53.94,4A13.5,13.5,0,0,0,143,45.79Zm.44-3.34a12.65,12.65,0,0,1,7.37,6.71,2.67,2.67,0,0,0-.39-1.46,12.9,12.9,0,0,0-3-3.71c2.74,1.29,4.22,3.77,5.32,6.33.73,1.71.25,3.76,0,5.66-.33,2.55-.82,5.09-.41,7.68-.06-3.94,1.21-7.75,1.08-11.76a14.82,14.82,0,0,1,.29,4.18,11.66,11.66,0,0,0,.79-4.49,5.48,5.48,0,0,1,.73,2.32,15.61,15.61,0,0,0-.36-5.78c.8,2,.85,4.21,1.55,6.62l.13-2.53h.09l.15,2c.49-.36.24-.92.49-1.32.15.47,0,1,.39,1.62.19-5.56-1.52-9.76-6.53-12.2,3.45.85,5.57,3.16,6.9,6.29A15.71,15.71,0,0,1,159,55.3c0,.41,0,.82,0,1.23s0,.81,0,1.21a16.1,16.1,0,0,0-2.07-12.5,1.61,1.61,0,0,1,1.75.54,6.7,6.7,0,0,1,2,4.61c0,2.14.47,4.29.19,6.46-.18,1.44-.34,2.88-.51,4.32.6-2.35,1.17-4.69,1.61-7.06a8.22,8.22,0,0,0-.27-3.51c-.73-3.27-2.43-5.75-5.67-7-.38-.15-.74-.35-1.11-.54l-.94-.49a14.19,14.19,0,0,1,9.05,6.32c-.61-1.93-2-3.22-3.74-4.61,4.18,1.3,7,7.18,6.15,11.67l-.21-1.86a28.28,28.28,0,0,0-.83,6.82,8.57,8.57,0,0,0,1.08-3.52l.07,1.64c.28-.92.75-1.73,1.06-2.81.94,2.6-.29,5,0,7.39a56.19,56.19,0,0,1,1.87-8.17,5,5,0,0,1,.37,3.2,79.57,79.57,0,0,1-1.35,8.41,32.82,32.82,0,0,0-1,8.07c.21-1.27.35-2.55.55-3.83.67-4.2,1.89-8.3,2.23-12.58.46-5.88-1.43-10.43-6.83-13.34a16,16,0,0,0-4-1.82,7.59,7.59,0,0,1-1.59-.52c-2.2-1.08-4.62-1.19-7-1.62a1.57,1.57,0,0,0-1.24.33,13.52,13.52,0,0,1,4.29,2.19c-.64.13-1-.47-1.57-.27.78.48,1.55.93,2.28,1.44.18.12.79.3.18.7l-1.9-1.12c.95,1,1.95,2,2,3.62a8.46,8.46,0,0,0-1.54-2.44c-.22.34.35.71-.13,1.08A12,12,0,0,0,147,42.43l-1.12-.59a2.78,2.78,0,0,0-1.34-.76,21.9,21.9,0,0,0-11.26-1.14c-3.43.44-6.83,1.17-10.27,1.63-1.87.26-4,.31-5.48,1.72a8.8,8.8,0,0,1-4.36,2.1c-1.52.35-2.5,1.49-3.71,2.31a11.31,11.31,0,0,1,6.57.88,18.69,18.69,0,0,0-3.55-1.68c.83.19,1.16-.48,1.91.17A15.2,15.2,0,0,0,118,48.91c.21.09.57,0,.42-.26-.3-.5-.29-1.16-.92-1.52a8.3,8.3,0,0,0-4.41-1.08c2.21-1.26,4.22-.21,6.4.69-.4-1.06-1.3-1.12-2-1.51.33-.11.45-.43.54-.47a2.84,2.84,0,0,1,3,1.06,5.35,5.35,0,0,0,3.13,1.87,4.75,4.75,0,0,1,1.71.74c.19.12.31.4.61.31-.31-1-1.86-1.19-1.37-2.56l1.48,1.19c-1.19-2.06-3.65-2.52-4.42-4.72,3.06.59,5.39,2.44,7.68,4.36a15.53,15.53,0,0,0-5.4-4.25c3.24.73,5.58,2.79,7.66,5.24-1.19-2.37-2.9-3.69-7.16-5.77l3,.8c-.39-.6-1.15-.48-1.61-1l2.09.43,0-.13-.84-.49c1.18-.1,2.1.44,3.39.62l-1.53-.85c7.22.38,9.07,5.59,10.73,11L140,50.7c1,1,.58,2.33,1.13,3.45a6.18,6.18,0,0,0-.12-2.47,12.71,12.71,0,0,0-3.14-7.41c-.15-.16-.52-.62-.59-.28-.14.76-.34.38-.57.13A10.84,10.84,0,0,0,133.79,42a3.35,3.35,0,0,1,2.87-.43c.37.06.75,0,1.11.1a9.67,9.67,0,0,1,5.09,2.54c1.71,1.79,2.46,4,3.63,6.18a12.43,12.43,0,0,0-1.51-5c2.19,2.11,2.38,4.94,2.85,7.68a10.05,10.05,0,0,0-2.15-7.59c-.23-.28-.45-.61-.88-.62-.78-1.31-2.42-1.44-3.55-2.62,4.89,1.54,6.77,5.15,7.47,10a9.94,9.94,0,0,0-4-8.72c-.43-.33-1-.48-1.31-1Zm-86.06,90.1c.45-.3.23-.74.22-1.13a6.63,6.63,0,0,1-.09-1.95l.6,3.2c.18-1.64-.22-3.25,0-4.87a22.59,22.59,0,0,0,1,4.18c-.9-4.74-.4-9.42.5-14.19-.48.33-.38.85-.71,1.22-.4-.84.23-1.51.09-2.35-.14.36-.25.59-.33.84a28.32,28.32,0,0,0-1.31,15.09,17.4,17.4,0,0,1-.8-7.81c0-.48.06-1,.1-1.44-.21.9-1.13,1.45-1,2.41a17.43,17.43,0,0,1,1.48-9.47c-3.17,4.21-2.53,15.32.21,17.88ZM206.62,56.94a23,23,0,0,0-11.69-7.53c-3.51-1-8-1.46-10.11-1a2.8,2.8,0,0,0,.36,0,29.36,29.36,0,0,1,16.72,5.37c.75.51,1.71.71,2.17,1.6a3.83,3.83,0,0,1-2.59-.76A27.13,27.13,0,0,0,192.26,50a17.54,17.54,0,0,0-5.28-.92,26.6,26.6,0,0,1,8.42,2.59,57.1,57.1,0,0,1,7.15,5l-.62-.82a26.4,26.4,0,0,1,7.61,9c.34-1.35-.78-2-.71-2.91l1.34.45C208.83,60.36,208,58.46,206.62,56.94ZM112.09,72.05c.1-.48.55-.59.89-.78A49.05,49.05,0,0,1,117.84,69c5.62-2.29,11.52-3.42,17.45-4.42-9.33.85-18.21,3-26.11,8.82.63,0,.83-.47,1.25-.37.44.44.83,0,1.2-.11a5.8,5.8,0,0,1,2.36-.72,19.44,19.44,0,0,0-3.71,2.17c6.22-3.26,13-4.69,19.74-6.4-1.81,0-3.5.88-5.33.53,2.7-.61,5.27-1.67,8-2.12C125.52,67.18,118.52,68.59,112.09,72.05Zm2,12.59c-.65-.49-.33-.73.25-.79s1.27,0,1.91-.07c2.67-.12,4.62-.5,5.61-1.15-4.06.85-8.08.68-12.06.93a12.27,12.27,0,0,0-5,1.22c.55-.4.81.36,1.16.3,2.7-.5,5.44-.3,8.16-.46a1.7,1.7,0,0,1-1,.24,26.76,26.76,0,0,0-13,2.89,26.17,26.17,0,0,0-4.68,2.91,21.22,21.22,0,0,0,2.27-1.18c2-1.09,4-2,6.48-1.81-2.12.86-2.12.86-2.43,1.76a61.26,61.26,0,0,1,8.77-1.38c.3,0,.88.32.89-.31s-.62-.2-.92-.37a2.31,2.31,0,0,0-.46-.12l4.3-.57,0-.1-3.39-.34v-.13l1.85-.43a12,12,0,0,0-2.82,0c3.25-.71,6.63-.58,9.87-1.38A38.75,38.75,0,0,1,114,84.64Zm53.87-8.2a33.74,33.74,0,0,0,.16,5.22c-1.38-5,0-9.82.55-15-2.58,4.48-2.24,15.13.58,18-1-3-.79-5.84-.83-9l-.49.75c.05-.63.07-1.27.16-1.9.72-5,2.59-9.82,3.21-14.88l-.14,2.86a4.31,4.31,0,0,0,.46-2,4.45,4.45,0,0,1,0,3.23c-.59,2.44-1.22,4.86-1.82,7.3-.22.9-.42,1.82-.59,2.73s-.3,1.77-.41,2.66a8.26,8.26,0,0,0,0,3c.37-6.63,3.15-12.4,4-18.61.34.34-.09.85.27,1.18a6.8,6.8,0,0,0,.37-2.22c0-.13-.21-.36.16-.44.57-.13.48.25.47.54,0,.82-.07,1.65-.17,2.46a64.33,64.33,0,0,1-2.45,9.55,27.35,27.35,0,0,0-1.34,8.56,41.57,41.57,0,0,1,1.9-9,65.36,65.36,0,0,0,2.18-7.89c1.1-5.84.08-11-4.68-15a1.35,1.35,0,0,0-1-.5c1.46,1.48,3.06,2.7,3.65,4.66a4.85,4.85,0,0,1-.74-1c-.45-.64-.77-1.44-1.58-1.68a5.89,5.89,0,0,1-2.61-1.83,14.52,14.52,0,0,0-2.93-2.43c-.29-.18-.55-.57-1-.37.13.1.21.18.3.24,5.38,3.48,7.58,8.43,6.9,14.76-.4,3.73-1.55,7.31-2.18,11C168,73.11,167.37,74.74,167.91,76.44Zm-45.83-23.2c-.43,0-.66.33-.93.55a65.13,65.13,0,0,0-5.55,5.08c-1.39,1.44-2.75,2.9-4.12,4.35a1.84,1.84,0,0,1,.45-.85,79.22,79.22,0,0,1,8.86-8.9l.92-.81c.25-.22.07-.42-.06-.58-.33-.42-.26.14-.39.2a15,15,0,0,0-3.79,3.32A178.08,178.08,0,0,0,98.15,79.93C84.37,100.11,71.08,120.62,57,140.57a307,307,0,0,0-23.39,37.89c-.17.33-.33.68-.54,1.11.95-.09,1.58-.18,2-1a448.31,448.31,0,0,1,26.28-42.84c.25-.37.52-.74.79-1.11-6.34,10.15-12.76,20.23-18.65,30.64a9.85,9.85,0,0,0,1.21-1.74c8.89-14.7,18.46-29,28.09-43.18,9.11-13.45,17.69-27.24,27-40.55,6.53-9.34,13.44-18.38,22-26,.16-.14.38-.26.3-.54.84-.17,1.3-.84,1.9-1.4-.4-.15-.57.46-1.06.06.35-.29.68-.55,1-.82.52-.45.1-.72-.23-.94s-1.8,1.16-1.85,1.47c-.15.91.73.41,1.07.67Zm23.16-12.71c3,.12,6.13-.12,9,1.2a1.27,1.27,0,0,0,.34,0,59.55,59.55,0,0,1,11.76,2.31c8.82,2.64,16.77,6.77,23.25,13.45a49.26,49.26,0,0,1,4.91,6.06,19.86,19.86,0,0,0-4.88-7.13C177.15,44.75,162.29,39.58,145.24,40.53ZM110.48,52.86l-.41,4.87c0-1.09.14-2.19,0-3.25-.14-1.31.94-2.94-1-3.86,1.4-.58,1.79,1.06,3,1.08-1-.73-1.27-2.1-2.71-2.17.92-.21,1.64.43,2.52.32L109.78,49a18.22,18.22,0,0,1,2.92.51,6.27,6.27,0,0,0-5.86-.18c-.66.3-.91.58-.13,1.11s1.82,1.42,1.8,2.44c-.05,1.83.23,3.65,0,5.48-.25,2.13-.09,4.31-1,6.63,1-.87.65-1.92,1.19-2.64.29.32-.08.64,0,1C110.49,61.6,111.76,54,110.48,52.86Zm4.72,14.25c6.83-3.79,14-6.67,21.85-7.18a41.7,41.7,0,0,0-13.15,1.89,33,33,0,0,1,6.38-2.47C124.39,60.17,119.66,63.33,115.2,67.11ZM99,102a21.17,21.17,0,0,0-10.48,3.28s0,.12,0,.18c.64.06,1.17-.59,2-.3-1,1.37-2.7,1.19-3.75,2.23a62.93,62.93,0,0,1,14-3.41c-1.11-.37-2,.12-3.07,0l1.85-.51-1-.18c1-.62,2.07-.44,3-1l-5.4.65,0-.14Zm12.78-2.39v.15l-3.2.46c-3.74.56-7.54.41-11.28.91a23.87,23.87,0,0,0-8.11,2.61c1.23-.29,2.42-.69,3.63-1,5-1.34,10.14-1.44,15.22-2a31.62,31.62,0,0,0,12.38-4c.41-.24.77-.54,1.16-.81-1.39.53-2.68,1.19-4.06,1.67a47.73,47.73,0,0,1-10.8,1.93c-.76.08-1.51.28-2.27.43l.07.27Zm99-21.16a3.21,3.21,0,0,0,.39-1.9,15.29,15.29,0,0,0-.66-3.74,34.87,34.87,0,0,0-9-14.59c-2-1.86-2-1.86-4.83-2.11,3.89,2.5,7.68,4.92,9.84,9.22A41.61,41.61,0,0,1,210.74,78.4Zm.89-3.93a5.92,5.92,0,0,0-.44-4.42,34.69,34.69,0,0,0-5.68-9.51,28.84,28.84,0,0,0-11.58-8.7l3.59,2.1c-.39.28-.69-.29-1,.14a32.38,32.38,0,0,1,5.9,4.2l-.66-.91C206.93,62,210,67.8,211.63,74.47Zm-7.14,19c0-.79.4-1.2.21-1.72-.74-2-.53-4.21-.82-6.31-.53-3.84-.73-7.75-2.19-11.41a20.67,20.67,0,0,0-5.1-7.68,2.45,2.45,0,0,0,.21.53,33,33,0,0,1,6.44,18.91A26.76,26.76,0,0,0,204.49,93.51ZM96.82,108.34c3.06-.44,5.79,0,8.52-.19-6.58-.64-13.11-.71-19.4,1.79a46.75,46.75,0,0,1,5.63-1.13c-1.42.54-3,.67-4.29,1.56a35.39,35.39,0,0,1,12-1.42C98.49,108.4,97.78,108.57,96.82,108.34ZM80.23,114.9c6.37-2.83,12.7-5.81,20.15-4.21-1-.65-2-.5-3.1-1l.91-.3a4.17,4.17,0,0,0-.57-.16,6.79,6.79,0,0,0-1,0c-2.79.24-5.52.35-8.19,1.75S82.85,113.33,80.23,114.9ZM84,77.76c0-2.89-.34-5.79.51-8.63a30.41,30.41,0,0,0,.62,10c.64,3.29,1.33,6.58,2,9.86C86.63,81.62,83.55,74.5,85,66.92,83.15,70.43,83.14,74.06,84,77.76ZM134.1,44.69c.26.84.55,1.58.82,2.33.61,1.76,1.52,3.45,2.31,5.32.24-.66-.29-1.07-.1-1.89l.41.92a12.66,12.66,0,0,0-.56-2.5c1.23,1.12,1.54,2.75,2.18,4.2-.52-3.6-3.36-9.19-4.26-8.48,0,.26.26.55,0,.84Zm30,9.64A4.69,4.69,0,0,0,163,57c-.1,1.69-1.19,3.13-1.32,4.86a19.21,19.21,0,0,0,.06,6.42c.22-1.44,0-2.9.28-4.35a28.81,28.81,0,0,1,1-4.37c.3.59-.29,1.11.05,1.73l.43-1c.2.22-.06.56.29.76A16.89,16.89,0,0,0,164.1,54.33Zm-53.44,51.35c-8.26,1.06-16.78.37-24.72,3.6,6-1.85,12.15-2.17,18.32-2.63A28.31,28.31,0,0,0,110.66,105.68Zm1.89-17.07c-4.53.24-9,.43-13.31,2.07,3.76-.44,7.54-.69,11.29-1.28h-2.1C109.81,89.08,111.23,89.05,112.55,88.61ZM27.25,188.88a13.18,13.18,0,0,0,3.51-2.6c.29-.28.64-.68.44-1.07s-.69.21-1.1,0l.79-1.22c.14-.23.28-.48,0-.7s-.51,0-.68.17A11.62,11.62,0,0,0,27.25,188.88Zm59.89-85.23a73.79,73.79,0,0,1,8-2.4,79.91,79.91,0,0,0,8-2.12C97.56,99.74,92.11,100.83,87.14,103.65ZM125,75l-.1-.37c-4.25,1.38-8.81.25-13.21,1.78.29.21.41.37.51.36a63.59,63.59,0,0,1,12.78-.85,6.1,6.1,0,0,0-2.41-.5Zm-47.3,29.68c1.92-7.86-.59-15.2-2.68-22.58C76.52,89.51,79.08,96.84,77.66,104.64Zm-13.86.77c-1.43,7.31-3.75,14.49-3.88,22.13a11.4,11.4,0,0,0,.47-2.94c.64-5.13,1.89-10.13,2.93-15.18A9.82,9.82,0,0,0,63.8,105.41ZM115.18,94c-3.79.49-7.61.15-11.4.48-5.91.53-9.48,1.39-11.19,2.63,4.87-1.82,9.77-2.18,14.71-2.33A33.2,33.2,0,0,0,115.18,94Zm13.69-22.86c-4.58.14-18,4-20.22,5.8C115.31,74.16,122.13,72.78,128.87,71.11Zm-.7-1.36c-4.6.11-17.79,4.07-19.23,6C115.21,72.49,121.76,71.35,128.17,69.75Zm-64,31.46c.08.76.16,1.27.2,1.78a28.68,28.68,0,0,1-.17,5.93c-.05.35-.31,1,.24,1s.49-.56.58-.9a10.52,10.52,0,0,0,.41-3.77C65.25,104,65.34,102.51,64.12,101.21Zm9.08-.16c-.25-.65.56-.78.57-1.17a14.88,14.88,0,0,0-2.41-8.1C72.77,94.69,72.32,98,73.2,101.05Zm14.9,16.4c-4,.54-7.31,2.36-10.54,4.39l.14.31Zm-23.84-1-.12,0,.09-1.87a76.85,76.85,0,0,0-1.43,7.89c0,.16,0,.38.26.37s.33-.23.38-.45a41.47,41.47,0,0,0,1.3-7.2ZM98.72,93.16c5.84-.36,11.73-.31,17.4-2.1C110.38,92.29,104.5,92.27,98.72,93.16Zm-16.2,31.48c-.47.19-.94.39-1.41.56a18.35,18.35,0,0,0-4.57,3,19.63,19.63,0,0,1-6,3.18C75.29,130.46,78.58,127,82.52,124.64Zm122.19-24a5.74,5.74,0,0,1-.48-.73c-1-2.16-2.53-4-3.24-6.31-.07-.22-.15-.44-.45-.38s-.31.31-.24.52A13.34,13.34,0,0,0,204.71,100.68Zm-88-5.34c-5.43.53-10.93.31-16.32,1.32C105.84,96.23,111.33,96.41,116.72,95.34ZM100.13,98c5.09-.43,10.21-.46,15.21-1.58C110.27,97,105.15,97,100.13,98ZM76.81,131.09c-3.2,1.36-6.23,3.11-9.8,3.38C70.61,134.28,74.13,133.85,76.81,131.09Zm34.34-51c4.91-.58,9.93.08,14.8-1.18C121,79.62,116,78.92,111.15,80.07Zm-3.3-27A3.31,3.31,0,0,0,106,50.4a1.2,1.2,0,0,0-1.44.21c-.18.21-.43.56-.08.76.61.37.74,1.64,1.59,1.25A1.31,1.31,0,0,1,107.85,53Zm-47,62.74a38.4,38.4,0,0,0-1.45,13.52A107.64,107.64,0,0,1,60.87,115.76Zm74.82-59.43c-.37-.12-.27-.84-.79-.63s0,.62-.05.95.27.53-.19.59c-.73.1-1.06.9-1.78,1l5.16-.35c-1.2-.07-1.19-1.16-1.62-1.82-.13-.2-.1-.55-.48-.45S136,56.14,135.69,56.33ZM82,89.46a30.74,30.74,0,0,1-.73,14C83.37,98.91,83.17,94.21,82,89.46ZM96.07,63.9c1.21,3.28,1.33,6.81,2,10.22C98.53,70.5,97.49,67.17,96.07,63.9Zm7.38-9.24c.28,4.83,2.36,9.59.49,14.49C106.36,64.24,104.27,59.47,103.45,54.66ZM83.53,123c-3.93,2-7.9,4-11.87,5.93A50.69,50.69,0,0,0,83.53,123ZM71,128.41c4.55-1.45,8.36-4.23,12.31-6.77C79.14,123.76,75.27,126.44,71,128.41ZM99.21,91.5c4.4-.72,8.89-.61,13.24-1.57C108,90.32,103.52,90.25,99.21,91.5ZM72.11,75.43A13.82,13.82,0,0,0,71.43,85C71.73,81.82,71.32,78.58,72.11,75.43Zm1,50.49c4.27-1.45,8-3.82,11.87-6.1C80.9,121.58,77.15,124,73.13,125.92Zm9.5-53.78c.14-3.16,2.65-5.59,2.69-8.78A18.43,18.43,0,0,0,82.63,72.14Zm115.73-1a41.82,41.82,0,0,1,3.21,12.42A22.9,22.9,0,0,0,198.36,71.1Zm-115,15.32a30.58,30.58,0,0,1,.21,12.78A19.07,19.07,0,0,0,83.32,86.42Zm-16,33.1c1.81-3.21,1.47-6.47,1.44-9.69C68.25,113,68,116.15,67.29,119.52ZM123,56c2.42-.76,4.34-1.81,6.49-2.21a.64.64,0,0,0-.48-.13,5.24,5.24,0,0,1-3-.12.79.79,0,0,0-.44.09,9.19,9.19,0,0,1-1.1.52C123.57,54.45,123.8,55.42,123,56ZM56,134.87c-1.65-3.69-1.79-7.57-1.55-11.5A15.44,15.44,0,0,0,56,134.87Zm18.91-.64c-3.11,2.1-6.32,3.91-10.15,4.26C68.83,138.65,72.06,136.83,74.92,134.23Zm79.9-95.35a23.51,23.51,0,0,0-8.69.91,43.24,43.24,0,0,1,8.45-.22c-.21-.4-.48-.25-.68-.36C154.16,39,154.54,39.29,154.82,38.88ZM73.84,97c0-2.89-1.53-9.33-2.7-11C72.25,89.81,73.08,93.4,73.84,97Zm6-16.2a22.57,22.57,0,0,0,1.47,6C81.8,85.35,81,82.22,79.85,80.82Zm-9.74,36.3.34,0L71,106.67C70.05,110.11,70.34,113.63,70.11,117.12Zm44-47.54c3.38-1.69,6.86-3.14,10.36-4.52A30.94,30.94,0,0,0,114.07,69.58Zm55.35,11.27a64.76,64.76,0,0,1,1.79-10.35A23.67,23.67,0,0,0,169.42,80.85ZM80.64,102.78a16.38,16.38,0,0,0,.41-10.58A29.67,29.67,0,0,1,80.64,102.78ZM74.06,121.7c3.09-1.8,6.29-3.39,9.46-5A31.59,31.59,0,0,0,74.06,121.7ZM188.76,50a12.36,12.36,0,0,0-4.39-.86c-.31,0-.54.1-.57.39s.25.31.47.36l3.9.89c-.13-.46-.75-.28-.81-.74C187.78,49.69,188.15,50.17,188.76,50ZM99.51,56.78c-.23,4.37.6,8.71.66,13.08C100.5,65.48,99.68,61.16,99.51,56.78Zm31.62-13c1,1.8,2.47,3.16,3.42,5.11C134.81,47.15,133.17,44.83,131.13,43.83ZM124.59,64A27.37,27.37,0,0,0,115.72,68Zm13.7-2.57c-1.88-.6-7.37.08-8.85,1.1A61.3,61.3,0,0,1,138.29,61.38ZM61.43,123.13l1.79-9.55A30.36,30.36,0,0,0,61.43,123.13Zm115.11-81.3c3.15,1,6.14,2.62,9.62,2C182.81,43.85,179.79,42.29,176.54,41.83Zm-41.86,27.8a29.74,29.74,0,0,0-7.52,1.1C130,71,132.33,70.28,134.68,69.63Zm-55.2,32.63a18.28,18.28,0,0,0,0-9.79A43.9,43.9,0,0,1,79.48,102.26ZM189.59,48a19.78,19.78,0,0,0-8.56-.32C183.88,47.75,186.73,47.79,189.59,48ZM97.37,57.83a36.52,36.52,0,0,0,1.34,12.39A68.78,68.78,0,0,1,97.37,57.83Zm4.17-1.35c-.43,4.24.39,8.41.66,12.61C102.36,64.86,101.46,60.7,101.54,56.48ZM91.45,106.63c-2.76.1-7.66,2.11-9,3.74A40.81,40.81,0,0,1,91.45,106.63ZM121,95.36l-8.94,2.38A21.17,21.17,0,0,0,121,95.36ZM103.05,61.45c.22.95,0,1.76.55,2.53a16.18,16.18,0,0,0-.18-3.6c0-.26,0-.58-.4-.56s-.37.36-.4.59a11.12,11.12,0,0,0,.07,3.9ZM77.88,129.51a9.85,9.85,0,0,0,5.09-3.7A46.21,46.21,0,0,0,77.88,129.51Zm-1.07-8.23a49.86,49.86,0,0,0,8.09-4.16A52.39,52.39,0,0,0,76.81,121.28Zm8.27-51.67a17,17,0,0,0,1.45,8.82A52.69,52.69,0,0,1,85.08,69.61ZM212.54,69a45.55,45.55,0,0,1-.84,7.89A13.52,13.52,0,0,0,212.54,69ZM87.09,102.37a55.86,55.86,0,0,1,8.08-3.47A17.11,17.11,0,0,0,87.09,102.37Zm21.89-54c1.91-.22,3.59.46,5.53,1.35-.76-.81-1.56-.9-2.29-1.4,1,0,1.81.58,2.69.67A6.7,6.7,0,0,0,109,48.37Zm-24.47,33,1.63,7.79A20.06,20.06,0,0,0,84.51,81.39Zm82-13.56c-.77,2-1.21,7-.63,8.14C165.76,73,166.51,70.48,166.53,67.83Zm-91.6,65.59a51.17,51.17,0,0,1-7.6,1.71A13.22,13.22,0,0,0,74.93,133.42Z"/><path class="cls-1" d="M116.6,190.93c-9-.2-19-.94-28.78-3.81a26.38,26.38,0,0,1-8.5-4,8.1,8.1,0,0,1-3.64-5.69,10.84,10.84,0,0,1,.46-3.54c2.25-10.68,4.56-21.36,6.8-32A7.86,7.86,0,0,1,86.11,137c2.92-2.16,6.33-3.17,9.79-4a8.12,8.12,0,0,1,1.09-.23c.58-.07.74-.31.59-.9-.6-2.42.5-4.14,2.4-5.45a16.88,16.88,0,0,1,6.8-2.49,57,57,0,0,1,23.4.3,16,16,0,0,1,5,2c2.09,1.34,3.39,3.07,2.67,5.72-.19.67.29.66.66.74a60,60,0,0,1,5.93,1.7c2.6.84,5,1.93,6.67,4.28a8.12,8.12,0,0,1,1.34,2.93q3.66,16.77,7.33,33.54a7,7,0,0,1-2.34,6.87,21,21,0,0,1-7.23,4.21A72.08,72.08,0,0,1,133,190,144.8,144.8,0,0,1,116.6,190.93Zm16.74-51.66c-2.23.84-4.67.64-6.86,1.65,1.57-1.52,3.83-1.54,5.45-2.93-1.18,1-2.52-.22-3.87.4-1.11.5-2.61.27-4.17.59l1.21.11A46.92,46.92,0,0,1,117,140.4h5.5c-1.64.55-3.37.36-5,.77h6.67l-1.86.45,0,.17h2.92V142l-6.42.75v.17h2.41v.17l-1.81.37.71.26a43.18,43.18,0,0,1-5.72.42,3.88,3.88,0,0,0,.67.06c4.67.38,9.28-.78,14-.58a11.52,11.52,0,0,0,6.13-1.84l.33-.08c.53-.14.85-.62,1.33-.83-1,1.74-2.77,2.32-4.51,2.88-6.11,1.95-12.39,1.9-18.69,1.5a30.84,30.84,0,0,1-7.37-1.21l3.85.43a64.18,64.18,0,0,1-8.45-3.67l.16-.37,1.92.5c.39-1.21-1.23-1.1-1.29-2,1.09,0,2,.73,3,.82-.41-.49-1.09-.46-1.46-1.06.77.15,1.46.3,2.16.42.17,0,.57.15.49-.14-.2-.75.37-.54.64-.53a13.65,13.65,0,0,1,4,1,13.38,13.38,0,0,1-3,.1,25.2,25.2,0,0,0,5.89.77c-.63-.39-1.18-.28-1.65-.87h6.06c-5.79-.26-11.52-.72-16.88-3.18-.18-.08-.57-.24-.55,0,.11,1.29-1,1.85-1.52,2.77-.3.56-.24,1.29.39,1.37,1.21.16,1.65,1.17,2.76,1.83-1.26.32-2.27-.25-3.3.16l1,.73c-.52-.07-.84-.1-1.17-.16a4.06,4.06,0,0,1-3.29-2.84c-.27-1.54.87-2.25,1.91-3a.31.31,0,0,1,.1-.05c.62-.11.05-.46.11-.69s0-.21-.48-.11-.73.42-1.29.28c.9-.73,2-.91,2.81-1.56-1.53.73-3.26.23-4.77,1,.95-.89,2-1.59,3-2.39-3.89.72-7.63,1.75-10.88,4.08a.67.67,0,0,0-.29.44c0,1.39-.1,2.8.91,3.94.54.61,1.11,1.18,1.68,1.8a4.28,4.28,0,0,1-3.35-4.09c0-.26.12-.57-.19-.69s-.43.21-.58.4a8.73,8.73,0,0,0-1.4,4c-.65,2.93-1.28,5.87-1.84,8.82a12,12,0,0,0-.51,3.94c.06.47.18,1.45-.14,1.67-1.1.74-.26,2.09-1.08,2.89a.86.86,0,0,0,.18,1.29c.36.25.17.52-.18.65-.2.08-.5.06-.47.36.09,1.28-.87,2.4-.55,3.68.16.68-.84,1-.51,1.46.82,1-.23,1.75-.41,2.45a42.21,42.21,0,0,0-1.26,6.37c-.1.9,0,1.81,1.32,1.92l-.18-.71c.58-.06.84.58,1.38.47l1.73,1.1c1.32,1.17,3,1.7,4.49,2.64a27.18,27.18,0,0,1-5.77-1.93l4.08,2.71A25.12,25.12,0,0,1,80.37,182c4.08,2.56,8.63,3.76,13.3,4.6l-1.22-.44,0-.13,7.61,1.17c-1.14-.6-2.43-.53-3.75-1.12a21.4,21.4,0,0,0,4.81.2c-.65-.47-1.47-.36-2.18-.87l1.62-.11c-3.18-1-6.18-1.32-9-2.35a47.39,47.39,0,0,0,4.89.51,24.19,24.19,0,0,1-6-2.18l4,.4c-1.54-.66-3.21-.9-4.7-1.74l5.38.9c-1-.66-2.29-.78-3.6-1.65l5.13.5c-2.11-.69-4.33-1-6.35-2l3.29.42,0-.14-1.56-.76c1.68-.16,3.31.23,5,0l-7.81-3.09.08-.28,5.13.66,0-.12-.9-.41c2.15.14,4.23.75,6.38.46a51.93,51.93,0,0,1-8.55-2.34c3.12.53,5.9,1.26,8.79,1.24a35.52,35.52,0,0,1-5.66-1.61,26.44,26.44,0,0,0,5.25.48,71.69,71.69,0,0,1-7.37-2,36.44,36.44,0,0,0,5.79.68,27.55,27.55,0,0,1-5-1.89l5.45.43,0-.21-2.14-.55,0-.16,4.09.37.05-.2-6.21-1.56c2.07.1,4.09.59,6.17.41L94.47,166l0-.19,6.49.85.06-.26-6.43-1.56,0-.12,5.41.63c-2.23-.78-4.57-1-6.75-1.91a40.81,40.81,0,0,0,6.79.69A38.32,38.32,0,0,1,92.7,162l4.21.7a41.3,41.3,0,0,1-5.53-2.19c3.45.52,6.88,1.11,10.38,1.3l-6.39-1.48a1.65,1.65,0,0,1,1.1,0c.32.05.65.06,1,.08-4.32-1.32-8.87-1.9-12.53-4.84,4.35,2.43,9.25,2.75,14,3.69-1-.56-2.23-.54-3.48-1.3l3.3.21a80.31,80.31,0,0,1-12.59-3.87l-.11.31,4.37,2.06a14.77,14.77,0,0,1-6.09-2.11,3.83,3.83,0,0,1-1.75-3.45c.51.16.72.73,1.27.75,0-.48-.63-.68-.48-1.23l1.06.45a4.79,4.79,0,0,0-.53-2.19c.35-.34.58.21.89-.07l-.32-.74,1,.07-.59-.4a2.49,2.49,0,0,1-1.13-1.47c.57,0,.4-1.4,1.33-.7,0-.08.15-.16.14-.23-.13-.94.45-.4.66-.27a44.33,44.33,0,0,0,5,2.8,12.93,12.93,0,0,1-3.77-.94c.15.42.66.45.71.86-.66.14-1.13-.42-1.86-.32l1.79,1.31c-.19.37-.5-.11-.74.2l2.2,1.57-.1.16-2-.36,0,.13,2.13,1.22-.08.15-1.57-.38,0,.17L89.78,153l-.07.2-2.51-.46,0,.15,3.28,1.62A17.87,17.87,0,0,1,86,153.25c1.94,1.73,10.86,4.16,13.86,3.85l-4.62-1.24,0-.19,3.22.46a58.49,58.49,0,0,1-6.78-2.38,62.2,62.2,0,0,0,9.61,1.51l-5.24-1.41,0-.16,5.84.69,0-.21-6.42-1.66,0-.16,4.19.61a47.36,47.36,0,0,1-8.71-2.82c3,.44,5.81,1.42,8.81,1.63-2.27-.66-4.63-.94-6.78-2a26,26,0,0,0,5.27.6l-6.09-1.91.06-.23,3.93.67,0-.15-1.55-.58c1.76.07,3.44.69,5.2.62l-1.32-.41,0-.12,5.65.69c-3.83-.81-7.67-1.5-11.17-3.38l2.7.79,0-.14-2.1-1A135,135,0,0,0,122,148.35c-2.7.38-5.42.29-8.13.51l3.81.34c-.12.33-.55.06-.6.49,4.87.09,9.7.91,14.58.32a47.59,47.59,0,0,1-6.86,1.06l1.62.24a91.11,91.11,0,0,1-16.15.64,81.24,81.24,0,0,0,13.84.66c-2.36.61-4.65.19-7.07.74,4.75.11,9.25-.18,13.76-.31a116.75,116.75,0,0,1-22.35.78c6.49.81,13,.64,19.54.6-4.83.67-9.7.7-14.56.92,3.85.26,7.69.33,11.54.26a116.88,116.88,0,0,1-13.74.83c4.31.58,8.64.31,13,.44a114.91,114.91,0,0,1-16.8.27A114.52,114.52,0,0,0,125,158a101.63,101.63,0,0,1-15.11.46c4.4.51,8.81.67,13.24.88l-6.74.49a105.35,105.35,0,0,0,11.92.06c-3.33.77-6.75.67-10.12,1.2h7.19a97.08,97.08,0,0,1-15,.79,116.91,116.91,0,0,0,19,.32l-8.44.81c4.11.1,8.21-.18,12.32-.27a127.81,127.81,0,0,1-14.32,1.63,50.27,50.27,0,0,0,7.05-.06l6.91-.46a113.33,113.33,0,0,1-19.12,1.4,93.62,93.62,0,0,0,14.79.2,96.13,96.13,0,0,1-12.78,1.12c3.66.27,7.32.13,11,.2-3.07.42-6.15.62-9.24.86,4.29.15,8.58.06,12.86-.12-3,.62-6,.75-9,1.13,3.17.25,6.33-.23,9.51-.07-3.16.54-6.34.9-9.52,1.3h8.15a123.74,123.74,0,0,1-14.24,1.56h8.47a120,120,0,0,1-14.06.3,70,70,0,0,0,11.2.58c3.69-.08,7.37-.25,11.06-.38v.15L122,173.21c2.88.25,5.75.17,8.64.21l-4.62.73c3.4-.08,6.81,0,10.19-.41-4.39,1-8.91,1.2-13.35,2l11.09-.43a96.94,96.94,0,0,1-11.11,1.41c2.94.27,5.88-.1,8.82,0a98.83,98.83,0,0,1-10.13,1.19c4,.27,7.93-.17,11.9-.09-4.32,1.08-8.73,1.08-13.12,1.16a94.66,94.66,0,0,0,11.91,0c-5,1.06-10,1.22-15.08,1.73h6.42a110.53,110.53,0,0,1-14.78.33c4.42.83,8.88.59,13.33.57s8.78-.33,13.17-.61c-4.15.63-8.33.89-12.51,1.15s-8.29.37-12.43.5c7.88.73,15.75,0,23.62-.34-6,.56-12,1.54-18,1.42,3.29.54,6.59.28,9.89.48-2.76.56-5.57.5-8.34.88a136.84,136.84,0,0,0,14.88-.27,94.39,94.39,0,0,1-11.51,1c-3.81.14-7.62.09-11.44.08,2.26.3,4.57.15,7,.75-2,.49-3.93.11-5.79.28,5.84.52,11.7.5,17.58.67l-.66.17,0,.15h1.8a47.08,47.08,0,0,1-6.87,1,6.68,6.68,0,0,0,1.09.05,119.52,119.52,0,0,0,14.63-1.4c3.21-.49,6.36-1.32,9.55-1.94a31.4,31.4,0,0,1-6.87,1.77,128.57,128.57,0,0,1-18.34,2.19,55.32,55.32,0,0,0,8.24-.37,80.72,80.72,0,0,0,17.56-3.35c.31-.1.75,0,.84-.51a20.61,20.61,0,0,1,2-.75,12.64,12.64,0,0,0,6.83-4.6,4.86,4.86,0,0,0,1-3.89c-.44-3-1.15-6-1.8-9a24.25,24.25,0,0,0-1.25-5.19h0a25.73,25.73,0,0,0-.91-5,16.75,16.75,0,0,0-.87-3.9c-.6-1.34-.57-2.75-1-4.1a16,16,0,0,0-.6-2.28,5.74,5.74,0,0,1-.66-2.88,5.76,5.76,0,0,0-2-5.32c-3.39-3-7.58-4.26-11.9-5.16-.28-.06-.64-.19-.84.1a23.2,23.2,0,0,1-2.28,2.18c1.11-.05,2.22.95,2.65-.71.11-.45.37-.26.56-.26a10.53,10.53,0,0,1,7.07,2.71c1.93,1.74,2,3.94-.07,5.6-2.85,2.34-6.28,3.09-9.87,3.29,1.37-.55,2.79-1,4.2-1.45a15.85,15.85,0,0,0,5.07-2.31,2.88,2.88,0,0,0,1.34-3,4.31,4.31,0,0,0-2.32-2.71c2.37,3,1.65,5.64-1.79,6.5,3.12-2.56,3.38-4.14.8-5.91.39,1,.9,1.84.25,3a2.94,2.94,0,0,0-1.86-3.12c1.33,2.45,1.2,3.67-.46,4.69,1-1.76,1-2.64-.05-3.74.44,1.93.14,2.84-1.17,3.52,1.16-2,1.06-2.89-.41-3.64.72,1.82.63,2.9-.5,3.74-.62.46-1.26,1.27-2.32.63a3.62,3.62,0,0,0,1.52-2.12c.08-.6.07-1.3-.6-1.5-1.17-.33-2.38-.52-2.72-2l-1.14.88c.47.33,1.75.08.85,1.25Zm1.73-5.1a4,4,0,0,0,2.23-3.84,4.09,4.09,0,0,0-2.77-3.5c1,1.61.89,2.67-.55,3.61-1.82,1.19-3.93,1.47-6,1.83a3.67,3.67,0,0,1,.9-.42c1.33-.49,2.7-.9,4-1.5,2.24-1,2.34-2.61.32-4a10.12,10.12,0,0,0-3.9-1.64c-2-.4-4-.61-6-.81a50.8,50.8,0,0,0-19.63,1.71c-1.16.35-1.14.39-1.09,1.43a.33.33,0,0,1-.06.22c-.66.76-.32,1.55,0,2.36-.73-.14-.86-.79-1.3-1.21a1.49,1.49,0,0,0,.85,1.47c1.71,1,3.17,2.25,5.39,2.35,2.52.11,5,.75,7.57.85a.51.51,0,0,1,.39.15c.27.45.26.47.57.47h4.83a60,60,0,0,1-11.53-.14c1.67.61,3.46.53,5.16,1.06h-2.16a65.34,65.34,0,0,0,8.37.54c-2.9.43-5.82.52-8.74.7a77.76,77.76,0,0,0,14.87.26,29.15,29.15,0,0,1-4.45.94,44,44,0,0,1-9.87-.05,35,35,0,0,1-8.88-1.79A5,5,0,0,1,101,133.5l2.74.85-.41-.62c.46-.16,1.09.26,1.33-.36-2.2-1.26-5.28-1.56-5.44-5.09-.21,1-1.63,1.77-.3,3,.17.15.32.6.23.72-.76,1,.3,1.29.71,1.72a7.92,7.92,0,0,0,3.08,1.78,34.09,34.09,0,0,0,9.3,1.93,53,53,0,0,0,18.61-1.28,9.84,9.84,0,0,0,4.31-2Zm-22.87,7.76c-1.31-2.08-3.13-.5-4.7-.81l2.34.69,0,.18h-1.32c1.32.46,2.58,1.42,4.06.54-.15-.36-.6-.2-.81-.45C111.83,141.86,112.19,142,112.2,141.93Z"/><path class="cls-1" d="M201.63,101.44a4.33,4.33,0,0,0,1.64,1.2c1.3,1.13,2.38,2.52,4,3.3a18.65,18.65,0,0,1-10.14-7.56,18.18,18.18,0,0,0-1.69-3,34.07,34.07,0,0,1-2.89-7.72,4.74,4.74,0,0,0,.23,2.21A24.91,24.91,0,0,0,196.49,98c-.5.46.1.69.25,1,.28.54.67,1,.9,1.6A34.19,34.19,0,0,1,191,88c-1,3.47,3.09,10.51,8.4,15.24a26.1,26.1,0,0,1-5.77-4.76c.4,1.11,1.4,1.78,2,2.76C193.49,100,192,98,190,96.45a30.38,30.38,0,0,0,5,5.45,20.26,20.26,0,0,1-9.48-17c-.12-4.86,0-9.73,0-14.63,1.06,1.76.46,3.69.71,5.63.33-.64.13-1.21.3-1.83a50.82,50.82,0,0,1-.17,5.82,29,29,0,0,0,2.26,12.81,5.1,5.1,0,0,0,.61,1,38.09,38.09,0,0,1-1.92-6.15,45.55,45.55,0,0,1-.32-11.19c.26-4.69.33-9.35-1.47-13.82A30.84,30.84,0,0,0,183,57.75c-.19-.31-.53-.55-.48-1,.46.25.64.72.91,1.11,3.23,4.69,4.41,10,4.7,15.58.21,4.26.13,8.54.69,12.77a20.39,20.39,0,0,0,2,7c-.47-1-.21-2.24-.64-3.17a14.45,14.45,0,0,1-1.06-5.27c-.28-4.44-.39-8.9-.68-13.34-.62-9.34-5.09-16.48-12.66-21.81-.3-.21-.7-.29-.85-.68a21.16,21.16,0,0,1,7.06,5.46c4.65,5.62,7.88,11.7,7.58,19.25a41.62,41.62,0,0,0,.57,8.48c-.57-6.67.9-13.58-2.27-20,.64,1.5,1.87,2.66,1.83,4.53a21.14,21.14,0,0,0,.58,3.26c.43,2.73.49,5.51,1.13,8.21,0,.06.06.1.11.18l.52-1.08V80.9c.81-7.86-.69-15.16-5.32-21.71,1.81,2.27,3.7,4.44,4.64,7.27a44.24,44.24,0,0,1,2.06,13.7,39,39,0,0,0,1.71,12.28,14,14,0,0,0,2.43,4.74c-.28-1-1-1.8-1.05-2.87A25.27,25.27,0,0,0,201.63,101.44Z"/><path class="cls-1" d="M179.07,90.15c-.07,0-.17,0-.2-.08-1.33-1.68-2.54-3.34-2.67-5.67-.24-4.28.61-8.42,1.29-12.59.77-4.75,1.32-9.5-.12-14.23-.26-.84-.58-1.66-.8-2.51,2.61,5,3,10.36,2.4,15.88a7.84,7.84,0,0,0,.62-2.84c.11-1,0-2,.22-3a8.27,8.27,0,0,0,0,2.54c1.34,3.9-.32,7.65-.44,11.47a25.32,25.32,0,0,0,1.22,9.15A30,30,0,0,1,180,77.65c.42-3.56,1.12-7.1,1.26-10.8l.18.75h.15c0-.75.09-1.51.15-2.43.42,4.49-.38,8.75-.7,13a26.7,26.7,0,0,0,1.43,12.15,2.64,2.64,0,0,0,.4.68,48.38,48.38,0,0,1-1.24-5,42.17,42.17,0,0,1,.07-10.41c.46-4.46,1.08-8.92.35-13.43.22,1.05.49,2.09.67,3.14s.34,2.23.41,3.34a56.14,56.14,0,0,1-.3,9.87,19,19,0,0,0,.07,5.37c-.43-.38-.32-.89-.36-1.36a10.53,10.53,0,0,0-.39-2.86c-.39,4.08,0,7.72,1.83,11.12,0-1.07-.68-2-.58-3.12.74,2.06,1.28,4.2,2.59,6a31.88,31.88,0,0,1-2.06-5.81,29.43,29.43,0,0,1-.55-10.25,50.48,50.48,0,0,0,.15-10.43l.18.53a10.51,10.51,0,0,0,0-3.71c1.06,3.85.52,7.79.57,12,.6-1.57.33-3,.63-3.79,0,2.67,0,5.77,0,8.86a48.07,48.07,0,0,0,.79,9.26l-1.5-4.16a18.54,18.54,0,0,0,2.48,7.41,34.86,34.86,0,0,0,4.53,6.34c-1.54-1.07-2.75-2.48-4.18-3.69.63,1.84,2.27,2.87,3.6,4.32-.8-.12-1.08-.82-1.88-1.07l1.1,1.44A18.65,18.65,0,0,1,184.07,96a5,5,0,0,0-2-1.86c-.81-.34-1-1.15-1.41-1.81a27,27,0,0,1-3-9.18A18,18,0,0,0,179.07,90.15Z"/><path class="cls-1" d="M213.33,174.53c-1.69.83-2.94-.41-4.19-1.09a14.57,14.57,0,0,0-2-.54c-2.25-.91-4.66-.93-7-1.38-1.81-.35-3.66-.32-5.44-.61s-3.74.56-5.6-.18c-.49-.2-.91-.66-1.52-.6.72.08,1.48-.25,2.16.3.31.26.72.09,1.07,0a12.24,12.24,0,0,1,5.32-.23c1.29.21,2.72-.41,3.92.35a3.35,3.35,0,0,0,2.66.42,2.66,2.66,0,0,1,1.93.27,14.54,14.54,0,0,0,2.53.94c.82.25,1.91-.25,2.48.78,1.8-.79,2.42,1.18,3.7,1.59Z"/><path class="cls-1" d="M204.68,80.87c-.43-1.66-.8-3.33-1.31-5s-1.14-3.11-1.77-4.79C203.54,72.61,204.85,76.91,204.68,80.87Z"/><path class="cls-1" d="M207.81,88.57c-.87-4.82-1.43-9.67-3-14.69C206.17,76,208,85.41,207.81,88.57Z"/><path class="cls-1" d="M83.58,61.93a23.39,23.39,0,0,0-2.47,10.54C80.87,68.71,81.06,65.06,83.58,61.93Z"/><path class="cls-1" d="M181.62,44.55a50.41,50.41,0,0,1,10.28,1.64C188.42,46,185.09,44.85,181.62,44.55Z"/><path class="cls-1" d="M147,42.43l.47.76-1.85-.63,1.34,1.06c-.73-.09-1.24-.67-1.91-.86s-1-.76-1.62-.31l0,0c-3.6-1.55-7.41-1.81-11.26-1.84a15.34,15.34,0,0,1,6.4.14c.18,0,.43.18.53.11,1-.74,2.1-.26,3.12,0,1.23.27,2.43.68,3.64,1Z"/><path class="cls-1" d="M135.16,141.74c-.71.22-1-.74-1.68-.59a4.93,4.93,0,0,1-2.09.24c-.22-.06-.44-.14-.6.09-.61.84-1.5.62-2.39.71.84-1-.41-.31-.38-.71,1.76-.71,3.81-.84,5.32-2.21l.61-.42c1-.08,1.68.69,2.46,1.12.25.14,0,.6-.22.87s-.62.41-.7.82Z"/><path class="cls-1" d="M80.74,178.37c1.67,1.34,3.74,1.95,5.79,3.15-2.16-.28-3.83-1.21-5.6-1.81l-1.73-1.1c-.19-.46-.76-.68-.81-1.32l1.33.48Z"/><path class="cls-1" d="M165.81,53.24a13.16,13.16,0,0,0-2-5.93c1.42.88,2.78,3.61,2.84,5.69C166.39,53.35,166,51.67,165.81,53.24Z"/><path class="cls-1" d="M109.36,51.7c.16.18.61-.15.52.44a40.19,40.19,0,0,0-.44,6.1c0,.12.14.41-.18.36s-.4-.11-.37-.44c.09-1.27-.24-2.56.34-3.82A3.74,3.74,0,0,0,109.36,51.7Z"/><path class="cls-1" d="M155.49,162.36l.44-.5h0c-.44.83.1,1.74-.21,2.62-.08.2.42.57.08,1a8.53,8.53,0,0,0-.67,1.14c.39.17.52-.27,1-.23-1.15,2-3,3-4.82,4a12.89,12.89,0,0,0,4.85-2.75c.24.48-.28.73-.33,1.25l.82-.56c0,.76-.61,1.18-.92,1.8.43.06.54-.39.88-.43.26.48-.38.74-.3,1.26l.81-.55c.1.76-.68,1.11-.68,1.77a10.29,10.29,0,0,1-2.36,1.67,45.69,45.69,0,0,1-9.47,3,1.45,1.45,0,0,1-.55,0,71.38,71.38,0,0,0,8.36-3.4,54.89,54.89,0,0,1-8.65,2.31c3.46-1.4,7.1-2.37,10.3-4.37A37.22,37.22,0,0,1,142,175.12a50.13,50.13,0,0,0,10-3.88,48.25,48.25,0,0,1-8.35,2.3c2.1-1,4.41-1.52,6.47-2.66a41.55,41.55,0,0,1-7.24,1.58c3.32-1.21,6.8-2,9.8-4a31.23,31.23,0,0,1-9.71,2.87c3.28-1.14,6.63-2.1,9.57-4.05a26.3,26.3,0,0,1-6.58,2l4.35-1.88a56.05,56.05,0,0,1-9.83,2.1c1.54-.46,3.09-.91,4.62-1.39a42,42,0,0,0,6.58-2.55c.45-.23,1-.36,1.27-.86A6.81,6.81,0,0,0,155.49,162.36Z"/><path class="cls-1" d="M151.6,159.14a31.93,31.93,0,0,1-9.14,2.89c2.09-.89,4.27-1.56,6.27-2.64a25.13,25.13,0,0,1-4.88,1.07l3.46-1.45c-2,.36-4,.85-6,1.05,2.89-1.1,6-1.75,8.59-3.5a21.79,21.79,0,0,1-5.6,1.56,36.38,36.38,0,0,0,5.59-2.78,17.15,17.15,0,0,1-4.14,1.07l3.08-1.55a45,45,0,0,1-8.22,2.08,72.61,72.61,0,0,0,8.16-3.38,15.91,15.91,0,0,1-3.69.82l2.55-1.21a35.66,35.66,0,0,1-7.63,1.76,40,40,0,0,0,6.9-2.78,38.83,38.83,0,0,1-5.14,1c1.82-.84,3.8-1.29,5.54-2.39l-3.52,1c2.45-1.49,5.21-2.34,7.46-4.17a2.08,2.08,0,0,1-1,2.66c.71.08.94-.43,1.37-.53-.07.77.61,1.63-.28,2.33l.92-.47-.85,1.47.92-.43c.27.59-.38.83-.46,1.38l1-.54a3.37,3.37,0,0,1-1.1,1.82c.5.09.67-.41,1.12-.39,0,.74-.7,1.08-1.06,1.66.63,0,.92-.62,1.57-.62-.23.91-1,1.33-1.72,2.08.91-.19,1.39-.81,2.08-1.15,0,.77-.58,1.09-.86,1.59C152.47,158.72,152.15,159.13,151.6,159.14Z"/><path class="cls-1" d="M82.54,164.43c1.24,1.27,2.93,1.74,4.45,2.49A10.11,10.11,0,0,1,89,168c-.86-.23-1.73-.43-2.58-.69a18.19,18.19,0,0,0-2.46-.67l2.44,1.5c-.73.14-1.23-.35-2.11-.27L89,170.16a20.45,20.45,0,0,1-4.32-.61l1.69,1,0,.18-2.91-.65-.07.21,5.07,2.25c-1.67-.09-2.87-.62-4.2-.79l3,1.48-.06.17-3-.79-.06.13,3.54,1.85a25.14,25.14,0,0,1-3.6-.51l3,1.44a19.49,19.49,0,0,1-4.32-1.06,28.75,28.75,0,0,0,5.57,2.93,15.26,15.26,0,0,1-8.86-4.28c.26-.42.53.06.76-.21l-.79-1.13c.41-.3.64.23,1.05.08l-.38-.83c.28-.47.65.12.89-.12.12-.43-.88-.55-.27-1s-.37-.63,0-1l.86.38c-1.1-1.47-.42-3.4-1.64-5.07l1.62.95c.17-.45-.49-.6-.28-1,.52-.1.82.48,1.33.44Z"/><path class="cls-1" d="M136.55,144a22.88,22.88,0,0,1-6.83,2c-2.77.4-5.61.51-8.34,1-6.23,1.17-12.35.44-18.47-.61a14,14,0,0,1-5.22-2l3,.59a8.18,8.18,0,0,0-3.46-1.47,5,5,0,0,1-3.81-2.48,1.56,1.56,0,0,1,.24-2.11c.33.82.3,1.78,1.15,2.52a3.14,3.14,0,0,1,.5-2.93c-.44,2.82,1.58,3.48,3.26,4.44l.09,0a9.89,9.89,0,0,0,3.89.83c2.09,0,4.18.74,6.28,1.12,1.24.22,2.5.38,3.75.64a26.48,26.48,0,0,1-5-.09C111.93,147.15,125.68,146.41,136.55,144Z"/><path class="cls-1" d="M151.6,159.14c.55,0,.87-.42,1.23-.75.39.1.56-.33,1-.39-.12.7-.73,1-1.2,1.82l1.72-1.17c.21.5-.29.79-.34,1.16.22.3.42-.24.59,0s-.05.35-.17.48c-.52.58-1.06,1.14-1.59,1.7l-1.76,1.06a55.53,55.53,0,0,1-10.64,3.06.82.82,0,0,1-.46,0,69.08,69.08,0,0,0,9.75-3.6,37,37,0,0,1-5.11,1.2c1.68-.84,3.3-1.19,4.66-2.12a51.79,51.79,0,0,1-9.14,2l5.11-1.64a31,31,0,0,0,5.43-2.08C151,159.71,151.45,159.59,151.6,159.14Z"/><path class="cls-1" d="M150.66,141.89c1.79.65.05,1.72.34,2.72.74,2.53-.22,3.08-2.75,4.38a7.56,7.56,0,0,1-3.33.91l2.81-1.48,0-.15-1.82.43,0-.14,2.94-1.68c-1.08.07-2,.62-3.11.55l1.67-1c-2-.54-3.53.72-5.21,1-2.05.37-4.07.91-6.15,1.16C141.08,146.82,146.77,146.25,150.66,141.89Z"/><path class="cls-1" d="M80.74,178.37l-1-.6c-1.11-.75-1.16-2-1.4-3.13.48-.24.8.29,1.22.25.22-.26-.3-.44,0-.79a76.78,76.78,0,0,0,7,3.68c-1.15,0-2.17-.5-3.32-.58l4.29,2.11-.07.2-3.26-.65-.06.12,1.85,1A18.77,18.77,0,0,1,80.74,178.37Z"/><path class="cls-1" d="M82.11,161.53c-.16-.44-.68-.69-.72-1.34l1.13.53c-.27-.56-.75-.86-.81-1.43l.68.16-.49-1.13c.69,0,1,.72,1.56.75l1.3.84,5.58,2.56c-1.88-.14-3.58-.94-5.45-1.23L91.26,164c-2-.1-3.52-.87-5.23-1.09l4.42,1.85c-2.65-.17-5-1.31-7.3-2.34Z"/><path class="cls-1" d="M157.92,175.74c.17.07.62-.4.51.13-.27,1.23-.25,2.53-1.51,3.43a19.41,19.41,0,0,1-5.57,2.79,32.46,32.46,0,0,1-3.78.9c2.43-1.09,5-1.88,7.2-3.43a33.7,33.7,0,0,1-4.55,1.44c1.89-1.05,3.64-2,5.38-3a2.68,2.68,0,0,0,1.49-1.43A2.14,2.14,0,0,0,157.92,175.74Z"/><path class="cls-1" d="M138.34,180.62c6.59-2.1,13.53-3.21,19.25-7.66a8.59,8.59,0,0,1-3.64,3.18,41.24,41.24,0,0,1-12.29,4C140.56,180.34,139.44,180.47,138.34,180.62Z"/><path class="cls-1" d="M144.14,185.61l2.49-.79c-.49-.33-.86.14-1.59-.11,4.06-.94,7.43-3,11.54-3.8C153,184.36,148.43,184.61,144.14,185.61Z"/><path class="cls-1" d="M151.07,163.09l1.76-1.06a7.24,7.24,0,0,0,2.3-1.66c0,1.14-1,1.54-1.41,2.35l-.81.58c-.47-.06-.75.3-1.1.5a31,31,0,0,1-11.65,3.48c2-.63,3.81-1.13,5.56-1.74A17.09,17.09,0,0,0,151.07,163.09Z"/><path class="cls-1" d="M154.05,173.86a10.29,10.29,0,0,0,2.36-1.67l.73-.49c-.26,1.18-1.08,2.14-2.73,3.07a36.54,36.54,0,0,1-9.57,3.35,17.7,17.7,0,0,1-2.4.41c2.87-1,5.79-1.9,8.6-3.06A8.43,8.43,0,0,0,154.05,173.86Z"/><path class="cls-1" d="M145,136.11a5,5,0,0,1,3.15,1.68,2.86,2.86,0,0,1-.09,4.21,15.62,15.62,0,0,1-8.26,4.15,37,37,0,0,0,4.44-2.14,15.68,15.68,0,0,0,3.1-2.4,2.24,2.24,0,0,0,.11-3.38,9.13,9.13,0,0,0-1.05-1C146,136.9,145.64,136.62,145,136.11Z"/><path class="cls-1" d="M82.11,161.53l1,.86c1.63,1.46,3.77,2,5.9,3.2a37.93,37.93,0,0,1-4.91-1.29l2.3,1.47c-1.61-.17-2.69-.94-3.9-1.34l0,0a12.71,12.71,0,0,1-1.19-1.13c-.42-.49-.3-.78.45-.64-.33-.59-.89-.93-.9-1.61C81.44,161,81.64,161.64,82.11,161.53Z"/><path class="cls-1" d="M152.91,163.3l.81-.58c.83-.24,1.13-1.09,1.78-1.58.22.44-.08.83,0,1.22a6.81,6.81,0,0,1-2.59,2.29c-2.09.84-4.1,1.9-6.73,2.18C148.67,165.69,151.06,165,152.91,163.3Z"/><path class="cls-1" d="M130.63,187.19a31.94,31.94,0,0,1,7.23-1.37c.31,0,1.23-.54,1,.59l1,.11C136.82,187.38,133.69,186.71,130.63,187.19Z"/><path class="cls-1" d="M84.76,159.91l-1.3-.84c-.44-.62-1.21-1-1.35-1.9.59,0,.88.63,1.43.59a18.83,18.83,0,0,0,3.65,2c1,.82,2.31.95,3.54,1.81a22.61,22.61,0,0,1-4.58-1.29A2.9,2.9,0,0,0,84.76,159.91Z"/><path class="cls-1" d="M91.27,144c-2.66-.84-4.08-2.4-4-4.33a3.57,3.57,0,0,1,3.12-3.26c-1.08,1.29-2.62,2.21-2.22,4.07S90,143,91.27,144Z"/><path class="cls-1" d="M140.7,148.43l-2.71.81,0,.12,1.63-.18a30.74,30.74,0,0,1-8.37,1.58A33.23,33.23,0,0,1,140.7,148.43Z"/><path class="cls-1" d="M87.19,159.71a18.83,18.83,0,0,1-3.65-2c-.39-.6-1.15-.91-1.37-1.72.54-.15.88.45,1.38.37l1.24.85c1.42,1.28,3.22,1.9,5.07,2.81C88.8,160.27,88,159.62,87.19,159.71Z"/><path class="cls-1" d="M135.63,145.37A38.82,38.82,0,0,1,124,147.55l0-.3Z"/><path class="cls-1" d="M144.24,180.33a109.16,109.16,0,0,0,10.29-3.75C151.62,179.23,147.87,179.62,144.24,180.33Z"/><path class="cls-1" d="M84.79,157.26l-1.24-.85c-.17-.45-.69-.7-.79-1.47a55.6,55.6,0,0,0,7.42,4A17.66,17.66,0,0,1,84.79,157.26Z"/><path class="cls-1" d="M92,143.5c-1.62-.75-3.15-1.64-3.28-3.61a3,3,0,0,1,2-2.89c-.2,1.33-1.56,2.19-1,3.59A9.36,9.36,0,0,0,92,143.5Z"/><path class="cls-1" d="M157.92,175.74a2.14,2.14,0,0,1-.83.83,23.45,23.45,0,0,1-4.37,2.46,4.92,4.92,0,0,1-1.29.36c2.45-1.43,4.93-2.8,6.72-5.3C158.55,174.91,158,175.27,157.92,175.74Z"/><path class="cls-1" d="M89.76,183.57a44.57,44.57,0,0,1,8.12,1.53C96.28,185.54,92,184.72,89.76,183.57Z"/><path class="cls-1" d="M141.1,183.48a29,29,0,0,1,7.44-2A15.66,15.66,0,0,1,141.1,183.48Z"/><path class="cls-1" d="M91.26,137.82c-.63,2.35.33,3.88,1.88,5.33C90.45,142.16,89.38,139.45,91.26,137.82Z"/><path class="cls-1" d="M94.57,143.24a4.44,4.44,0,0,1-3-3,1.67,1.67,0,0,1,.87-2.15C91.93,140.43,93.12,141.88,94.57,143.24Z"/><path class="cls-1" d="M132.69,147.82c-1,.18-2.05.35-3.06.57-.52.11-1.17-.09-1.51.62-.06.13-1,.58-1.23-.3,0-.1-.39-.11-.59-.27A26.49,26.49,0,0,1,132.69,147.82Z"/><path class="cls-1" d="M149.53,179.91c-.95.91-5.67,2.13-7.81,2.09Z"/><path class="cls-1" d="M104.27,127a15.76,15.76,0,0,1,2.75-.69c-1.26.81-2.93.81-3.61,2.7a7.48,7.48,0,0,1,3.85-1.54,13,13,0,0,0-2.63,1.46c-.22.19-.69.4-.31.78s.47-.14.65-.32c1.09-1.05,3.58-1.78,6.08-1.71-1.61.75-3.28.91-4.63,1.9a11,11,0,0,1,4.07-.68l-2.85,1.17a16.1,16.1,0,0,1,3.8-.16L108.3,131l.06.24,3-.36-1.18.71h14l0-.32c-1.29-.1-2.57-.25-3.86-.31s-2.62,0-3.93,0h-4.35a9.34,9.34,0,0,1,3.88-.82,31.68,31.68,0,0,1,9.35.9,2,2,0,0,0,1.72-.12c-1-.63-3.65-1.05-7-1.08-2.43,0-4.85,0-7.29-.1a6.16,6.16,0,0,1,3.16-.74,29.67,29.67,0,0,1,11.71,1.57c.83.32,1.38-.3,2.15-.52a3,3,0,0,0-1.93-1.11,42,42,0,0,0-13.66-1.46l-1.19.07a4.88,4.88,0,0,1,2.39-.46,32.36,32.36,0,0,1,11.8.77,4.48,4.48,0,0,1,2.72,1.64c.12.19.22.44.5.22a.44.44,0,0,0,0-.69,5.39,5.39,0,0,0-2.13-1.21,26.84,26.84,0,0,0-5.82-1.11c-1.89-.22-3.8-.35-6-.54a48.88,48.88,0,0,1,9.07,0,16.64,16.64,0,0,0-4.31-.63c-1.54-.1-3.07-.15-4.6-.18s-3,0-4.16,0a55.3,55.3,0,0,1,10.91-.29,10.82,10.82,0,0,0-3.66-.44c-1.23,0-2.47,0-3.7-.08a32.68,32.68,0,0,1,15.07,1.52,4.85,4.85,0,0,1,.62.27,2.32,2.32,0,0,1,1.48,2.08,2.13,2.13,0,0,1-1.47,1.94,21.12,21.12,0,0,1-8.27,2.28,55.76,55.76,0,0,1-15.09-.83,13.1,13.1,0,0,1-3.47-1.25c-2.17-1.17-2.3-2-.56-3.63Z"/><path class="cls-1" d="M128.2,129.66c-5.38-1.57-10.9-1-16.37-1.12A27.68,27.68,0,0,1,128.2,129.66Z"/><path class="cls-1" d="M135.11,134.13a26.46,26.46,0,0,1-5.64,1.66,3.38,3.38,0,0,1-.78,0,20.94,20.94,0,0,0,3.51-1.45l-1.87.36c1.45-.6,3-.95,3.92-2.42l1.72-1.54c.24-.1.37-.37.49.23.28,1.45-.56,2.28-1.39,3.18Z"/><path class="cls-1" d="M136,130.76l-1.72,1.54-1.89.53c1-.71,1.95-1,2.53-1.75-.37-.33-.69.3-1.07,0,1-.81,2-1.61,1.7-3.34A2.62,2.62,0,0,1,136,130.76Z"/><path class="cls-1" d="M104.3,127c-.76-.09-1.06.67-1.68.92.73-1.82,4.26-3.19,7.51-2.87a39.27,39.27,0,0,0-4.86,1.38c-.36.15-.82.15-1,.6Z"/><path class="cls-1" d="M122.34,134.35c-1.82.22-3.64.69-5.46.12C118.7,133.75,120.52,134.3,122.34,134.35Z"/><rect class="cls-2" width="250" height="250"/></g></g></svg>