<svg xmlns="http://www.w3.org/2000/svg" width="250" height="250" viewBox="0 0 250 250"><g transform="translate(7020 13741)"><g transform="translate(-11306.5 -16131.537)"><path d="M10263.226-1216.227c-1.364-.143-1.511-1.423-2.478-1.937-4.228,2.26-2.315,11.1-6.257,13.665a27.141,27.141,0,0,0-3.576-10.3c-2.135,1.1-3.852-.665-4.55-2.24,2.466-8.793,9.521,1.482,9,7.253,1.436-2.99,2.061-12.991,6.44-12.27C10263.492-1221.783,10265.194-1218.022,10263.226-1216.227Z" transform="translate(-5816.118 3698.264)" fill="#fff" fill-rule="evenodd"/><path d="M10299.784-820.839c-1.227-.129-1.357-1.279-2.228-1.741-3.8,2.031-2.081,9.976-5.624,12.282a24.379,24.379,0,0,0-3.215-9.261c-1.918.987-3.461-.6-4.089-2.014,2.216-7.9,8.56,1.333,8.093,6.519,1.29-2.687,1.852-11.677,5.788-11.029C10300.023-825.833,10301.554-822.453,10299.784-820.839Z" transform="translate(-5851.299 3334.185)" fill="#fff" fill-rule="evenodd"/><path d="M9395.667-1201.32c-1.436-.151-1.59-1.5-2.607-2.038-4.447,2.378-2.436,11.678-6.583,14.377a28.535,28.535,0,0,0-3.763-10.841c-2.245,1.155-4.052-.7-4.786-2.357,2.594-9.252,10.018,1.56,9.472,7.631,1.511-3.146,2.167-13.668,6.776-12.91C9395.947-1207.166,9397.738-1203.209,9395.667-1201.32Z" transform="translate(-5017.649 3684.839)" fill="#fff" fill-rule="evenodd"/><path d="M9963.137-1236.96c-.824-.086-.912-.86-1.5-1.171-2.556,1.366-1.4,6.71-3.783,8.261a16.375,16.375,0,0,0-2.162-6.229c-1.29.664-2.328-.4-2.75-1.354,1.49-5.316,5.756.9,5.442,4.385.868-1.808,1.246-7.854,3.894-7.418C9963.3-1240.319,9964.328-1238.045,9963.137-1236.96Z" transform="translate(-5546.337 3715.192)" fill="#fff" fill-rule="evenodd"/><path d="M9874.293-875.094c-1.065-.112-1.18-1.111-1.935-1.512-3.3,1.765-1.808,8.666-4.886,10.669a21.168,21.168,0,0,0-2.792-8.045c-1.666.857-3.006-.519-3.552-1.749,1.925-6.865,7.435,1.157,7.029,5.663,1.121-2.334,1.608-10.143,5.028-9.58C9874.5-879.432,9875.831-876.5,9874.293-875.094Z" transform="translate(-5461.919 3383.431)" fill="#fff" fill-rule="evenodd"/><g transform="translate(4394.815 2520.951)"><path d="M9839.573-621.161h-.306c-1.076,1.493.27,3.158.611,4.487-2.562,1.081-1.6-3.077-2.549-4.283-1.242.643.157,2.778-.2,3.977a1.533,1.533,0,0,1-1.427,1.02c-1.546-.238-.392-2.828-.816-4.283a1.362,1.362,0,0,0-1.224,1.428c.02.291.423.563.51.918.275,1.118-.261,2.883.611,3.365,1.431.674,2.351-.538,2.753-1.529.924,2.442,3.281,1.025,3.061-1.53C9840.48-618.9,9839.336-620.17,9839.573-621.161Z" transform="translate(-9831.475 624.793)" fill="#fff" fill-rule="evenodd"/><path d="M9815.86-666.236h-.12q-4.362,1.658-8.792,3.252a5.3,5.3,0,0,0-.361.963c3.026-1.109,5.916-2.355,8.974-3.433C9815.65-665.724,9815.867-665.868,9815.86-666.236Z" transform="translate(-9806.587 666.236)" fill="#fff" fill-rule="evenodd"/></g><g transform="translate(4399.404 2487.16)"><path d="M9895.342-1042.191h-.295c-1.039,1.439.26,3.045.59,4.326-2.472,1.042-1.541-2.966-2.458-4.129-1.2.62.151,2.678-.2,3.834a1.478,1.478,0,0,1-1.377.983c-1.489-.23-.376-2.726-.786-4.129a1.314,1.314,0,0,0-1.181,1.376c.021.281.408.542.492.885.266,1.078-.251,2.779.59,3.244,1.379.649,2.267-.519,2.654-1.474.89,2.354,3.162.988,2.95-1.475C9896.217-1040.008,9895.112-1041.236,9895.342-1042.191Z" transform="translate(-9887.534 1045.692)" fill="#fff" fill-rule="evenodd"/><path d="M9872.484-1085.646h-.115q-4.207,1.6-8.477,3.135a5.049,5.049,0,0,0-.349.929c2.918-1.069,5.7-2.27,8.651-3.309C9872.281-1085.153,9872.49-1085.291,9872.484-1085.646Z" transform="translate(-9863.544 1085.646)" fill="#fff" fill-rule="evenodd"/></g><g transform="translate(4359.201 2518.19)"><path d="M9427.537-614.413h-.585c-2.057,2.852.515,6.033,1.169,8.57-4.9,2.064-3.053-5.877-4.869-8.181-2.373,1.228.3,5.306-.39,7.6a2.928,2.928,0,0,1-2.728,1.948c-2.951-.455-.746-5.4-1.559-8.18a2.6,2.6,0,0,0-2.337,2.727c.039.557.807,1.075.974,1.753.527,2.135-.5,5.507,1.169,6.427,2.732,1.287,4.489-1.028,5.259-2.921,1.762,4.664,6.266,1.958,5.844-2.922C9429.27-610.089,9427.082-612.52,9427.537-614.413Z" transform="translate(-9412.067 621.349)" fill="#fff" fill-rule="evenodd"/><path d="M9382.251-700.506h-.23q-8.335,3.168-16.793,6.211a10.157,10.157,0,0,0-.69,1.84c5.78-2.118,11.3-4.5,17.139-6.556C9381.848-699.528,9382.263-699.8,9382.251-700.506Z" transform="translate(-9364.537 700.506)" fill="#fff" fill-rule="evenodd"/></g><path d="M9664.886-570.37c-.616-.085-1.575.172-1.973-.132a15.49,15.49,0,0,1-8.419,4.735c2.343-1.735,5.353-2.8,7.5-4.735-2.092-.367-1.146-2.556-.921-4.341C9663.516-575.628,9666.688-572.66,9664.886-570.37Zm-3.684-1.842a1.824,1.824,0,0,0,1.447.395,2.086,2.086,0,0,0-.263-1.447A1.075,1.075,0,0,0,9661.2-572.212Zm1.974.526c.464.149,1.083.145,1.578.263-.105-.9-.752-1.264-1.446-1.578A4.664,4.664,0,0,1,9663.176-571.686Z" transform="translate(-5271.933 3103.275)" fill="#fff" fill-rule="evenodd"/><path d="M10194.741-417.026c-.958-.133-2.448.267-3.067-.2a24.083,24.083,0,0,1-13.089,7.362c3.643-2.7,8.322-4.358,11.657-7.362-3.251-.57-1.78-3.974-1.432-6.75C10192.611-425.2,10197.543-420.586,10194.741-417.026Zm-5.727-2.864a2.835,2.835,0,0,0,2.25.613,3.254,3.254,0,0,0-.408-2.249A1.671,1.671,0,0,0,10189.015-419.89Zm3.068.818c.723.232,1.684.226,2.454.409-.164-1.4-1.17-1.966-2.249-2.454A7.249,7.249,0,0,1,10192.083-419.071Z" transform="translate(-5753.799 2964.633)" fill="#fff" fill-rule="evenodd"/><path d="M9196.832,202.762c-1.311-.182-3.348.366-4.194-.28a32.933,32.933,0,0,1-17.9,10.067c4.98-3.689,11.38-5.958,15.939-10.067-4.445-.779-2.436-5.433-1.957-9.229C9193.919,191.585,9200.663,197.894,9196.832,202.762Zm-7.83-3.916a3.875,3.875,0,0,0,3.076.839,4.441,4.441,0,0,0-.559-3.076A2.284,2.284,0,0,0,9189,198.846Zm4.2,1.119c.987.318,2.3.309,3.355.559-.225-1.919-1.6-2.688-3.076-3.356A9.911,9.911,0,0,1,9193.2,199.965Z" transform="translate(-4830.831 2397.196)" fill="#fff" fill-rule="evenodd"/><path d="M9759.244,80.882c-2.292,6.813-8.312,9.9-15.9,11.416,2.02-2.879,7.568-4.173,10.6-6.728-2.457-1.749-7.979-.6-11.213-1.019.8-1.525.937-3.52,2.651-4.689C9747.829,78.193,9757.768,79.021,9759.244,80.882Z" transform="translate(-5353.06 2502.029)" fill="#fff" fill-rule="evenodd"/><path d="M9481.992-17.188c-1.368,4.069-4.963,5.912-9.5,6.817,1.206-1.719,4.52-2.492,6.331-4.018-1.467-1.044-4.765-.361-6.7-.609.48-.911.56-2.1,1.582-2.8C9475.176-18.794,9481.111-18.3,9481.992-17.188Z" transform="translate(-5104.263 2591.486)" fill="#fff" fill-rule="evenodd"/><path d="M9259.24-387.88c-2.375,7.056-8.607,10.253-16.469,11.822,2.091-2.981,7.838-4.321,10.979-6.967-2.544-1.811-8.263-.626-11.611-1.056.833-1.579.969-3.646,2.744-4.856C9247.418-390.665,9257.711-389.807,9259.24-387.88Z" transform="translate(-4892.799 2933.086)" fill="#fff" fill-rule="evenodd"/><path d="M9513.23-1384.384c-1.819,5.407-6.6,7.857-12.619,9.059,1.6-2.284,6.006-3.311,8.413-5.339-1.95-1.388-6.332-.48-8.9-.809.639-1.21.743-2.793,2.1-3.721C9504.172-1386.519,9512.059-1385.861,9513.23-1384.384Z" transform="translate(-5130.001 3848.877)" fill="#fff" fill-rule="evenodd"/><path d="M9668.329-756.6c-.838,2.49-3.037,3.618-5.812,4.172.737-1.052,2.767-1.525,3.874-2.459-.9-.639-2.916-.221-4.1-.372.294-.557.343-1.287.969-1.714C9664.157-757.583,9667.789-757.281,9668.329-756.6Z" transform="translate(-5279.104 3270.916)" fill="#fff" fill-rule="evenodd"/><path d="M9572.206-1275.949a15.77,15.77,0,0,1-3.6,9.809q-3.858,4.97-8.86,4.97-6.344,0-9.122-6.9a35.627,35.627,0,0,1-2.845-13.275q0-11.149,10-22.364l3.858-4.185a30.954,30.954,0,0,0,3.465-4.479,52.048,52.048,0,0,0,3.924-8.108l.327-.229.163.36a23.159,23.159,0,0,1-3.008,8.534,46.543,46.543,0,0,1-5.754,7.03q-7.324,7.717-9.907,15.007a16.149,16.149,0,0,0-1.144,5.035,28.287,28.287,0,0,0,2.092,11.084q2.779,6.474,8.044,6.474a11.08,11.08,0,0,0,6.375-2.42q3.63-2.615,3.63-5.46,0-1.5-3.728-1.929-4.381-.523-5.788-2.354-.489-.653-.98-4.185a38.3,38.3,0,0,1-.393-4.544q0-3.008,2.322-7.651,2.615-5.166,5.2-5.166a6.073,6.073,0,0,1,4.414,1.8q.1,1.177.1.752a10.117,10.117,0,0,1-.457,2.485q-.558,1.864-1.08,2.027l-1.046-1.308a2.241,2.241,0,0,0-1.536-.491q-2.682,0-4.61,3.237a11.056,11.056,0,0,0-1.7,5.722l.065.229a4.115,4.115,0,0,0,2.615,2.55,17.124,17.124,0,0,0,3.729.752q.718.1,2.157.327Q9572.2-1282.129,9572.206-1275.949Z" transform="translate(-5173.818 3788.931)" fill="#fff"/><path d="M10120.057-1874.134l-.687.482q-10.726,16.017-24.2,25.433-15.741,11-32.856,11a18.58,18.58,0,0,1-7.219-1.375q-4.33-1.787-4.329-5.087,3.848-9.692,13.06-19.865,2.2-2.474,16.979-16.909v12.3l.549.551q1.512.206,1.925-6.531.138-4.4.206-8.8l15.946-14.71a31.771,31.771,0,0,0,2.752-10.448l-.345-.55h-.481q-13.267,12.373-17.6,14.779,0-.685.069-2.783t.068-3.334q0-12.579-6.875-12.579-9.006,0-15.328,7.63a25.124,25.124,0,0,0-5.911,16.36q0,5.225,4.124,7.149a74.505,74.505,0,0,0,8.729,2.2q-10.311,11.892-14.779,19.59-6.873,11.824-6.873,23.165a10.223,10.223,0,0,0,3.987,8.318,13.7,13.7,0,0,0,8.936,3.024q16.84,0,32.376-11.342a85.8,85.8,0,0,0,23.027-26.12q5.086-8.729,5.224-11.136Zm-57.328-18.559-.412-.687q0-2.406,4.881-4.881,4.468-2.268,7.285-2.268a5.475,5.475,0,0,1,4.4,2.062,7.3,7.3,0,0,1,1.717,4.812v1.374a26.954,26.954,0,0,1-7.973,1.375A31.455,31.455,0,0,1,10062.729-1892.693Z" transform="translate(-5632.804 4333.096)" fill="#fff"/><path d="M9822.094-122.561c-.256-.417-.514-.634-.77-.65q-6.375,3.705-9.19,8.276.337-3.32.337-5.558a33.618,33.618,0,0,0-4.018-16.24,2.834,2.834,0,0,0-.842-1.131q-.819.265-1.444,6.52-.457,4.788-.457,7.266a41.375,41.375,0,0,0,.217,4.355c.016.177.1.265.24.265s.217-.1.217-.289q0-1.034.421-5.064a37.527,37.527,0,0,1,.926-5.786q2.31,2.67,3.08,8.661a81.524,81.524,0,0,1,.408,9.479,4.5,4.5,0,0,1-.216,1.179q-.242.866-.289,1.155a42.665,42.665,0,0,0-.433,6.255q-4.812,3.777-15.9,7.025l-.073.241a.405.405,0,0,0,.386.168q10.225,0,15.807-3.1a41.121,41.121,0,0,1,.433,4.138l.337.265.408-.1q-.12-2.238-.119-3.753,0-.746.023-1.323a24.007,24.007,0,0,0,7.567-8.673,23.023,23.023,0,0,0,3.067-11.031Q9822.215-120.42,9822.094-122.561Zm-2.141,5.606a18.612,18.612,0,0,1-3.393,6.4,35.526,35.526,0,0,1-4.885,5.485,11.676,11.676,0,0,1,2.358-7.218,51.816,51.816,0,0,1,5.606-5.317c.225-.1.336.056.336.457Z" transform="translate(-5400.48 2701.383)" fill="#fff"/><path d="M10140.49-271.911q-.2.62-3.718,2.584-2.508,1.39-5.031,2.765a21.685,21.685,0,0,0-4.881,3.762,7.373,7.373,0,0,0-2.206,5.017,10.475,10.475,0,0,0,1.134,4.941,4.289,4.289,0,0,0,3.914,2.66,4.871,4.871,0,0,0,3.4-1.745,5.034,5.034,0,0,0,1.708-3.438,4.245,4.245,0,0,0-.862-2.524,5.291,5.291,0,0,0-2.055-1.738l-.091-.136a12.414,12.414,0,0,1,.363-2.191,8.77,8.77,0,0,1,2.175,1.6l.681.106a2.783,2.783,0,0,0,1.828-.665,2.117,2.117,0,0,0,.861-1.707,5.273,5.273,0,0,0-.166-1.481.474.474,0,0,1,.242-.363l.06.045q.166.922.378,1.919l.182.076q.376-.03.74-.74a2.423,2.423,0,0,0,.316-1.058,7.887,7.887,0,0,0-.187-1.405,7.75,7.75,0,0,1-.189-1.405l.091-.287.136-.045q.378.242.71,2.146a15.34,15.34,0,0,1,.287,2.478,4.014,4.014,0,0,1-.544,2.055,1.918,1.918,0,0,1-1.677,1.1,1.87,1.87,0,0,1-.907,1.193,2.6,2.6,0,0,1-1.45.469,1.1,1.1,0,0,1-.469-.076,26.032,26.032,0,0,1,.182,2.644,10.072,10.072,0,0,1-1.194,4.851q-1.45,2.69-3.838,2.69-2.78,0-4.684-3.143a10.914,10.914,0,0,1-1.662-5.727,10.753,10.753,0,0,1,.6-4,10.98,10.98,0,0,1,1.163-2.191,14.671,14.671,0,0,1,4.231-3.657q1.586-.967,5.349-2.765a46.947,46.947,0,0,0,5.047-2.69Z" transform="translate(-5703.672 2824.701)" fill="#fff"/><path d="M9085.458-1003.623q-.33,1.038-6.225,4.327-4.2,2.328-8.425,4.63a36.29,36.29,0,0,0-8.172,6.3,12.343,12.343,0,0,0-3.694,8.4,17.551,17.551,0,0,0,1.9,8.273q2.328,4.453,6.554,4.453,2.833,0,5.692-2.922t2.859-5.756a7.1,7.1,0,0,0-1.443-4.226,8.848,8.848,0,0,0-3.44-2.91l-.152-.227a21.074,21.074,0,0,1,.607-3.669,14.7,14.7,0,0,1,3.644,2.682l1.14.177a4.661,4.661,0,0,0,3.061-1.113,3.546,3.546,0,0,0,1.441-2.859,8.8,8.8,0,0,0-.277-2.479.8.8,0,0,1,.4-.607l.1.076q.278,1.543.633,3.213l.3.127q.633-.051,1.24-1.24a4.057,4.057,0,0,0,.531-1.771,13.112,13.112,0,0,0-.316-2.353,13.082,13.082,0,0,1-.315-2.353l.151-.481.228-.076q.631.405,1.188,3.592a25.722,25.722,0,0,1,.481,4.149,6.73,6.73,0,0,1-.911,3.441,3.211,3.211,0,0,1-2.809,1.847,3.132,3.132,0,0,1-1.518,2,4.364,4.364,0,0,1-2.429.785,1.832,1.832,0,0,1-.784-.126,43.689,43.689,0,0,1,.3,4.427,16.878,16.878,0,0,1-2,8.122q-2.427,4.5-6.426,4.5-4.655,0-7.843-5.262a18.278,18.278,0,0,1-2.783-9.589,18.036,18.036,0,0,1,1.012-6.7,18.4,18.4,0,0,1,1.948-3.669,24.55,24.55,0,0,1,7.085-6.123q2.656-1.619,8.956-4.63a78.742,78.742,0,0,0,8.45-4.5Z" transform="translate(-4723.456 3497.508)" fill="#fff"/><g transform="translate(4394.018 2458.03)"><path d="M9811.29-1383.468q-.479-1.128-1.215-1.128l-.2.034q-.891.633-1.642,5.2-.839,5.078-2.548,7.454-2.77,3.779-8.856,3.779l-.137.12q.189.428,4.514.427,4.1,0,5.95-2.137a10.529,10.529,0,0,0,1.932-5.2q.974-6.207,1.025-6.395l.309-.41.324-.154.615.564a.352.352,0,0,0,.309-.376A4.633,4.633,0,0,0,9811.29-1383.468Z" transform="translate(-9796.688 1389.64)" fill="#fff"/><path d="M9927.646-1446.087a12.3,12.3,0,0,0-2.1-1.111q-.838,2.189-.889,2.411l1.761,1.009A7.908,7.908,0,0,0,9927.646-1446.087Z" transform="translate(-9914.345 1447.199)" fill="#fff"/></g><g transform="translate(4360.38 2532.148)"><path d="M9404.208-418.025q-.82-1.934-2.081-1.934l-.352.059q-1.523,1.084-2.812,8.908-1.437,8.7-4.366,12.776-4.749,6.477-15.18,6.476l-.234.205q.324.733,7.735.733,7.034,0,10.2-3.663,2.345-2.725,3.312-8.908,1.67-10.637,1.759-10.96l.527-.7.556-.264,1.056.967a.6.6,0,0,0,.527-.645A7.935,7.935,0,0,0,9404.208-418.025Z" transform="translate(-9379.183 428.604)" fill="#fff"/><path d="M9603.637-525.353a21.023,21.023,0,0,0-3.6-1.9q-1.436,3.752-1.523,4.132l3.018,1.729A13.539,13.539,0,0,0,9603.637-525.353Z" transform="translate(-9580.838 527.258)" fill="#fff"/></g><g transform="translate(4444.648 2498.742)"><path d="M10512.982-940.552a3.764,3.764,0,0,0-1.014-.8q-.258-.119-1.193-.537a28.432,28.432,0,0,0-1.033,2.8l2.087,1.212A6.934,6.934,0,0,0,10512.982-940.552Z" transform="translate(-10502.924 941.884)" fill="#fff"/><path d="M10447.871-847.953a15.273,15.273,0,0,1-3.22.338,50.233,50.233,0,0,1-7.515-.835,15.415,15.415,0,0,1-8.23-3.737q-2.465-2.306-2.465-4.314,0-4.791,4.075-9.7,1.392-1.67,7.773-7.554a8.909,8.909,0,0,0,1.55-2.008,6.525,6.525,0,0,0,.915-2.326,36.778,36.778,0,0,0,.3-4.135q0-.358-.974-.934a13.208,13.208,0,0,0-3.618,1.491,15.207,15.207,0,0,0-3.419,1.988,7.891,7.891,0,0,0-.637,2.028,12.922,12.922,0,0,0-.258,2.028,2.57,2.57,0,0,0,.477,1.431,5.755,5.755,0,0,1,.656,1.232q-8.169,7.495-8.17,14.85a8.535,8.535,0,0,0,1.49,4.741,9.466,9.466,0,0,0,3.737,3.389,26.9,26.9,0,0,0,11.889,2.982q4.313,0,5.665-.736l.1-.159Zm-7.991-31.926a10.8,10.8,0,0,1-2.405,3.38q-.5.517-3.181,2.7a1.93,1.93,0,0,0,.1-.616,5.505,5.505,0,0,0-1.112-2.445Q10434.811-878.826,10439.88-879.88Z" transform="translate(-10425.11 887.891)" fill="#fff"/></g><g transform="translate(4373.009 2563.524)"><path d="M9562.124-97.293a17.573,17.573,0,0,1-3.707.389,57.8,57.8,0,0,1-8.647-.961,17.736,17.736,0,0,1-9.472-4.3q-2.839-2.654-2.838-4.965,0-5.513,4.69-11.165,1.6-1.922,8.946-8.694a10.306,10.306,0,0,0,1.784-2.311,7.473,7.473,0,0,0,1.052-2.677,42.271,42.271,0,0,0,.344-4.759q0-.412-1.121-1.076a15.246,15.246,0,0,0-4.164,1.716q-3.751,1.9-3.935,2.288a9.029,9.029,0,0,0-.732,2.334,14.858,14.858,0,0,0-.3,2.334,2.957,2.957,0,0,0,.549,1.647,6.587,6.587,0,0,1,.756,1.419q-9.4,8.6-9.4,17.091a9.812,9.812,0,0,0,1.716,5.456,10.887,10.887,0,0,0,4.3,3.9,30.965,30.965,0,0,0,13.682,3.432q4.966,0,6.521-.847l.114-.183Zm-9.2-36.744a12.456,12.456,0,0,1-2.768,3.89q-.574.6-3.662,3.112a2.232,2.232,0,0,0,.115-.709,6.35,6.35,0,0,0-1.281-2.814Q9547.092-132.824,9552.927-134.037Z" transform="translate(-9535.928 137.812)" fill="#fff"/><path d="M9683.605,156.442q-.3-.137-1.372-.618a31.979,31.979,0,0,0-1.189,3.226l2.4,1.4a7.747,7.747,0,0,0,1.327-3.089A4.321,4.321,0,0,0,9683.605,156.442Z" transform="translate(-9669.353 -132.167)" fill="#fff"/></g><g transform="translate(4377.726 2542.971)"><path d="M9758.019-315.4q-.123-.057-.573-.258a13.435,13.435,0,0,0-.5,1.348l1,.583a3.249,3.249,0,0,0,.555-1.291A1.8,1.8,0,0,0,9758.019-315.4Z" transform="translate(-9743.858 321.879)" fill="#fff"/><path d="M9608.593-391.111c.188-.182.336-.32.443-.416a1.448,1.448,0,0,0,.087-.669,2.008,2.008,0,0,0-.087-.717,3.459,3.459,0,0,0-.687.516l-2.275,3.557a20.2,20.2,0,0,1-2.9,3.652,5.363,5.363,0,0,1-3.6,1.673,4.5,4.5,0,0,1-3.261-1.406,4.449,4.449,0,0,1-1.415-3.251,2.837,2.837,0,0,1,.545-1.549,4.1,4.1,0,0,1,1.138-1.052,6.574,6.574,0,0,1,3-.937q1.6-.067,3.2-.143a10.048,10.048,0,0,0,2.036-.268c.044-.025.079-.044.1-.057l-.037-.105h-4.294q-3.461,0-4.6,1.09a4.807,4.807,0,0,0-1.186,1.64,5.441,5.441,0,0,0-.335,2.032,5.611,5.611,0,0,0,1.491,3.863,4.827,4.827,0,0,0,3.72,1.711,5.451,5.451,0,0,0,3.548-1.377,13.453,13.453,0,0,0,2.571-3.136q.976-1.711,1.951-3.414A6.448,6.448,0,0,1,9608.593-391.111Z" transform="translate(-9594.475 392.913)" fill="#fff"/></g><g transform="translate(4387.609 2508.431)"><path d="M9765.534-701.207l-.244-2.653q-.366-1.8-1.388-1.8a10.913,10.913,0,0,0-3.713,1.224,20.409,20.409,0,0,0-7.142,5.386,15.674,15.674,0,0,0-3.835,8.039,17.655,17.655,0,0,0-.285,4.489q0,1.918.081,5.917a16.445,16.445,0,0,1-5.794,1.346,8.5,8.5,0,0,1-4.733-1.224,39.542,39.542,0,0,1-3.591-3.346l-.286.367a51.259,51.259,0,0,0,.367,7.549q5.06,3.591,5.061,8.691a15.275,15.275,0,0,1-3.306,9.222q-3.59,4.856-8.161,4.856a9.612,9.612,0,0,1-6.978-3.122,9.707,9.707,0,0,1-3.1-7,23.458,23.458,0,0,1,2.285-9.61,24.094,24.094,0,0,1,5.672-8.141q4.9-4.079,9.833-8.2,6.855-6.16,6.855-9.263,0-.857-.286-1.061l-.367.245q-1.307,3.182-7.834,8.283a113.083,113.083,0,0,0-9.508,7.875q-4.815,5.305-6.283,8.773-1.714,3.917-1.714,10.854a30.491,30.491,0,0,0,2,11.221q2.692,6.856,7.794,6.856a12.587,12.587,0,0,0,7.345-2.2,18.06,18.06,0,0,0,7.3-10.854q1.141-4.366,1.143-13.343a19.688,19.688,0,0,0,7.508-1.224q.938,4.652,1.387,4.9l.368-.49a38.065,38.065,0,0,1-.735-4.937,30.246,30.246,0,0,0,10.16-9.834,24.182,24.182,0,0,0,4.285-13.343Q9765.7-699.167,9765.534-701.207Zm-7.467,13.384a23.087,23.087,0,0,1-7.794,6.61l-.122-.979a15.486,15.486,0,0,1,3.347-9.875,14.7,14.7,0,0,1,8.854-5.386l.367.53A24.75,24.75,0,0,1,9758.067-687.823Z" transform="translate(-9717.141 714.999)" fill="#fff"/><path d="M10105.139-818.982a29.264,29.264,0,0,0-5.02-2.653q-2,5.224-2.122,5.754l4.2,2.407A18.871,18.871,0,0,0,10105.139-818.982Z" transform="translate(-10067.313 821.635)" fill="#fff"/></g></g><rect width="250" height="250" transform="translate(-7020 -13741)" fill="none"/></g></svg>