<svg xmlns="http://www.w3.org/2000/svg" width="250" height="250" viewBox="0 0 250 250"><g transform="translate(6039 13741)"><g transform="translate(-6441.509 -13941.688)"><path d="M519.01,254.008c-1.62,1.761-5.809,2.1-8.757,2.246-2.01.1-4.227.045-5.163-.9C508.129,254.651,515.5,254.77,519.01,254.008Z" transform="translate(-0.994 -0.486)" fill="#fff" fill-rule="evenodd"/><path d="M517.512,256.994c.219.008.174.277.225.45-1.335,2.635-5.668,2.267-9.431,2.469.569-1.892,3.28-1.058,5.165-1.346A9.37,9.37,0,0,0,517.512,256.994Z" transform="translate(-1.067 -0.554)" fill="#fff" fill-rule="evenodd"/><path d="M515.7,261.358c-.024,2.461-5.213,1.659-8.082,2.02C509.184,261.518,513.126,260.89,515.7,261.358Z" transform="translate(-1.051 -0.65)" fill="#fff" fill-rule="evenodd"/><path d="M542.082,330.977h.673v.673C542.265,331.69,542.039,331.468,542.082,330.977Z" transform="translate(-1.837 -2.241)" fill="#fff" fill-rule="evenodd"/><path d="M522.318,332.816c.192-.041.212.087.225.223,3.682,2.557,8.688,4.381,13.473,6.063,1.418.5,3.674.291,4.264,2.021-1.05,1.11-3.051-.177-4.714-.673-1.6-.479-3.414-.873-5.163-1.572C527.48,337.713,520.972,335.789,522.318,332.816Z" transform="translate(-1.382 -2.283)" fill="#fff" fill-rule="evenodd"/><path d="M523.5,381.294v1.572c-2.15,1.493-5.813,1.454-8.756,1.123C517.028,381.964,520.847,382.747,523.5,381.294Z" transform="translate(-1.214 -3.389)" fill="#fff" fill-rule="evenodd"/><path d="M484.182,384.511a1.047,1.047,0,0,0,.672.224c.272,5.063,1.661,8.955,2.021,13.472-1.349-.187-1.56-1.69-1.8-2.694A42.856,42.856,0,0,1,484.182,384.511Z" transform="translate(-0.516 -3.462)" fill="#fff" fill-rule="evenodd"/><path d="M523.287,385.2c-.919,2.6-6.184,3.37-7.858,1.572C517.7,386.4,520.786,385.339,523.287,385.2Z" transform="translate(-1.23 -3.478)" fill="#fff" fill-rule="evenodd"/><path d="M487.389,387.268h.673c-.121,3.39,1.556,5.5,1.571,8.082C487.207,394.5,486.4,390.1,487.389,387.268Z" transform="translate(-0.581 -3.525)" fill="#fff" fill-rule="evenodd"/><path d="M522.672,389.792c-.3,1.5-3.254,1.532-4.715,1.124C518.5,389.688,520.856,389.483,522.672,389.792Z" transform="translate(-1.287 -3.579)" fill="#fff" fill-rule="evenodd"/><path d="M523.542,392.552c.218.007.174.276.224.45-4.548,8.074-18.074,6.642-28.289,6.288-2.171-1.6-7.509-1.14-8.308-3.369,2.943-.516,5.926.8,9.206,1.572C505.155,399.55,518.561,397.5,523.542,392.552Z" transform="translate(-0.585 -3.645)" fill="#fff" fill-rule="evenodd"/><path d="M517.736,240.373c.564,1.383,1.551,3.016,1.345,4.489-6.076,2.806-15.7,4.65-24.249,4.266-3.736-.168-7.962-.406-10.551-1.123-3.344-.925-7.646-4.158-4.717-8.981,2.981.259,5.475-1.327,8.308-1.571,1.1-.095,2.348.324,3.593.225,2.826-.229,5.5-.881,8.306-.673,1.9.141,3.843.707,5.837.9A83.557,83.557,0,0,1,517.736,240.373Zm-27.843-.9c4.189,1.949,7.52,4.755,11.677,6.736.006.333-.921,1,0,.9.086-.3,2.375-.312,2.918-.9-1.144-1.069-3.232-1.8-5.389-3.144-1.3-.809-4.957-2.58-5.164-3.367-.006-.017.676-.347.449-.674C492.439,239.131,490.841,238.777,489.892,239.474Zm20.656,5.614c-4.846-2.052-8.637-7-15.267-5.839C501.034,240.329,503.842,247.1,510.548,245.088Zm-20.88-3.819c-1.722-1.138-2.641-2.872-4.941-1.121,5.1,1.937,8.572,6.7,14.6,6.96C497.108,244.793,492.588,243.2,489.669,241.27Zm24.247,4.042c.361-.76,1.713-.531,2.021-1.347-3.758-1.108-6.285-4.641-11-4.041C508.11,241.538,510.8,243.642,513.916,245.311Zm-31.882-3.143c1.82,1.1,3.051,2.788,5.838,2.92v.9c1.375-.1,3.123.612,4.042.224-2.675-2.264-6.586-3.293-8.981-5.837C481.655,240.485,482.484,241.309,482.034,242.169Zm1.571,2.92c-1.1-.552-2.111-1.181-3.142-1.8C480.677,244.577,482.937,245,483.6,245.088Z" transform="translate(-0.39 -0.098)" fill="#fff" fill-rule="evenodd"/><path d="M530.365,366.005c-3.686,3.226-10.4,5.313-16.166,6.737-7.313,1.808-19.067,2.3-27.391,1.348-6.749-.774-12.832-1.9-15.268-7.186.145-1.136,1.092-1.274.9-2.245-.372-1.885-2.146-.926-3.592-2.244-1.81-1.648-.552-3.742.449-5.839-.319-4.021-1.908-6.771-3.369-9.654.29-.581.739-.433,1.35-.224-.545-2.076-3.106-2.135-3.145-4.717-.867-.48-1.912-.782-2.02-2.02-.132-.8.664-.681,1.347-.672a52.6,52.6,0,0,0-.448-8.308c-.734-3.9-2.978-7.948,0-11-1.408-1.622-1.908-3.847.224-4.94-1.105-1.164-.12-3.436-.224-4.715a38.4,38.4,0,0,0,5.612.673c-2.891-1.322-5.562-2.117-6.287-4.939-.434-1.69.638-3.367.675-5.389.05-2.85-1.564-6.618.672-8.757-3.837-3.89,2.013-7.354.449-12.8a25.4,25.4,0,0,0,4.266,5.839c4.468,1.235,8.569,4.808,13.246,6.735,2.111.868,4.26,1.085,5.838,2.694,1.026.2,1.272-.373,2.021-.449.309.29.223.976.225,1.573,4.952,1.1,8.222,4.063,12.35,6.511-.093.54.409.487.224,1.121,3.546,1.4,5.5,4.711,8.306,6.961,1.735,1.391,4.169,1.973,5.388,4.042,6.032,3.175,11.07,7.343,16.166,11.45.175,1.1,1.142,1.4,1.571,2.246.314.436,1.163.335,1.572.674.095.47-.153.6-.224.9,5.647,5.366,8.657,11.026,11,19.533.272.99.208,2.126.449,3.144A55.567,55.567,0,0,0,549,359.27c1.94,4.943,3.241,10.675,6.063,15.043.331.513.956.606,1.347,1.123,2.419,3.2,3.079,9.751,1.572,13.7a15.361,15.361,0,0,1-11.677,10.1c-2.706.572-5.635.472-8.306,1.573-5.381,2.216-11.285,6.555-6.062,11.226,5.591,3.236,12.853,4.449,20.88,5.387,4.751.555,9.719,0,14.594.225,2.977.136,6.138.715,8.532-.45.959.916,2.921-.655,3.144.226,1.377-1.017,3.429-1.361,5.387-1.8-8.528-1.066-18.26-.923-27.615-1.348-4.4-.2-8.478-1.353-12.35-1.572-3.145-.175-10.491.16-8.306-5.836a7.386,7.386,0,0,1,.9-1.348c3.39-3.546,9.832-4.67,15.269-6.961,3.863-1.627,5.549-4.678,7.634-7.409.875-3.577.816-6.956-.674-9.879.119-.78,1.21-.586,1.8-.9.087-2.78-.84-4.549-1.572-6.513-3.694-4.062-5.482-9.528-7.633-14.817-1-2.467-2.6-4.534-3.368-6.96-1.007-3.189-1.387-7.341-2.694-10.777a35.39,35.39,0,0,0-3.143-5.389A53.751,53.751,0,0,0,531.938,323.8c-3.842-6.485-10.138-10.519-16.166-14.817-.6-.149-1.4-.095-1.8-.45-.7.1-.717-.478-.673-1.121-1.47.2-2.131-.415-3.144-.674a1.1,1.1,0,0,1,0-1.348c-2.449-1.334-5.353-2.845-8.081-4.49-1.832-1.1-3.25-2.9-5.165-4.041a51.5,51.5,0,0,0-8.532-4.042c-3.067-1.1-6.535-1.673-9.43-3.144-1.147-.583-2.121-1.453-3.367-2.02a38.3,38.3,0,0,1-9.656-6.286c-1.284-3.128-2.894-6.577-2.244-11,.409-2.778,2.349-5.167,3.143-7.183,2.112-.509,3.242-2,5.165-2.694a3.588,3.588,0,0,1,.673-3.367c.008-6.192-3.093-15.055.449-19.759,1.616-2.778,5.411-2.5,9.429-3.366,2.366-.513,5.666-1.677,8.083-.9,3.3-1.032,7.212.215,11.452.449,9.113.505,20.414.73,22.45,8.308.539.088-.123-1.023.675-.675,1.41,6.2.094,13,.223,20.432,5.6,4.236,9.611,9.5,9.879,17.512.036,1.089-.374,1.873-.224,2.92.359,2.489,1.837,4.846,2.019,7.409.266,3.718-.182,7.621.449,11,.568,3.035.343,6.628.675,9.878.158,1.557.788,3.032.9,4.491.289,3.859-.319,7.862-.673,11.675-.549-.15-.687-1.307-.448-1.571-.7-.047-1.647.151-2.02-.226,2.7,3.144,6.179,7.441,9.2,11-.06.807.416,1.081.451,1.8,2.461,2.862,3.406,8.582,4.714,13.022a98.107,98.107,0,0,0,8.083,18.86c1.639,2.941,3.889,5.686,4.265,8.98.326,2.86-.418,5.083-.448,7.184-.076,5.157-2.681,8.942-5.839,12.574-4.137,1.945-8.174,3.575-12.8,5.613-2.009.886-5.864,1.741-6.063,3.816-.171,1.82,2.341,2.819,4.042,3.143,3.544.676,8.35-.323,11.9,1.572,8.819.938,18.446.482,25.82,1.572.5.072,1.087-.017,1.348.673.944-.686,3.089-.384,4.039.225.265-.037.191-.41.226-.674,2.515.827,5.891.5,8.306.9-1.39.7-3.1-.074-4.265,0-1.808.113-2.9,1.325-4.492,2.02-2.56,1.118-5.713,1.366-8.755,1.8-9.161,1.3-20.26.631-29.862-.225a34,34,0,0,1-16.165-5.839c-1.437-2.15-2.171-5.209-.224-7.633,3.837-4.78,9.268-6.068,16.837-7.858,5.122-1.211,8.175-3.1,10.1-7.634,1.7-3.988-.946-8.144-2.247-11.676-.6-1.633-.874-3.245-1.57-4.713-.927-1.967-2.643-3.677-2.47-6.064-5.5-8.493-5.482-22.507-11.45-30.535-4.882-2-10.256-3.514-14.817-5.838-.172-.651-1.064-.581-.9-1.569-.992.357-1.873.821-2.92,1.122-.009.667.668,1.794-.224,2.021-.656.542-.712-.951-1.123-1.348-1.091.707-2.621.971-3.592,1.8,5.93,3.327,13.333,7.4,20.655,7.859,1.046.66,2.191,2.641,1.124,4.042,1.046,1.181,2.246.894,3.592.9a2.154,2.154,0,0,1,0,2.02c-.64.42-1.764-.226-2.47-.448.056,1.4-.154,2.541-1.57,2.468.324,1.035.812,2.022.448,3.144a2.173,2.173,0,0,1-1.8,0c.628,1.051.743,1.452.672,3.368-.32.653-1.091.854-1.8,1.122.424,1.405.574,5.2-2.246,4.718,1.032,2.5-.368,6.062-2.021,7.857-1.363,7.315,1.3,12.494.9,18.409-1.742,1.344-2.353,3.31-4.042,4.939-6.453,6.225-19.6,7.985-30.758,7.186-2.985-.215-7.054-1.292-9.878-1.8-1.02-.184-5.431-3.467-6.287-4.49-1.736-2.076-2.125-4.831-2.919-7.409.213-.645.746-.148.9-.45-.448-3.621-.385-6.218-.9-8.98-3.722-1.522-5.522-6.145-6.287-9.879,2.616,1.061,3.306,5.968,6.287,7.409.837.382.355-.133,1.122-.225.182.417.291.909.675,1.122,8.933,2.605,21.43,1.618,32.1.449a40.912,40.912,0,0,0,15.941-5.163c-.107-1.067,1.1-1.2,1.348-2.021C528.353,367.385,529.941,368.039,530.365,366.005Zm-7.859-124.833c-1.107-3.292-10.291-5.235-15.268-5.837a128.559,128.559,0,0,0-15.715-.9c-9.017.235-20.928,1.343-17.962,10.553,2.678,3.707,7.928,4.947,13.92,5.613,5.348.593,11.912,2.075,16.84,1.347,1.567-.232,2.227-.961,3.592-1.347,5.786-1.642,11.626-1.464,13.919-4.491C521.757,244.907,523.213,243.275,522.507,241.172Zm.225,20.658c.693-.2.742-.8.9-1.348,1.037-3.679.342-10.117.674-13.7-.05-.175-.19-.26-.448-.225-1.044,1.353-2.682,2.109-4.042,3.146-6.082,1.829-12.829,4.077-20.432,4.264-6.306.155-12.889-1.427-18.859-2.47-.14,1.95,1.119,6.668,0,8.082-1.191-2.076-1.252-5.8-1.123-8.531a8.283,8.283,0,0,0-1.572-.449c.3,4.381,2.877,9.41,1.8,12.8-2.011-3.69-1.7-9.395-3.367-12.572-.038.336.08.828-.226.9-.435-1.363-.923-3.861-2.694-3.144a63.985,63.985,0,0,1,.9,12.576c4.165,5.828,11.263,8.511,19.309,9.428,1.771.2,4.734-.774,5.837.225,2.109-.778,5.97.129,8.757,0,4.761-1.615,12.007-1.645,14.144-6.51.76-.014.959.4,1.347-.225A3.937,3.937,0,0,0,522.731,261.83Zm-51.19.9c.049-.175.189-.261.45-.226v1.124c-.972.075-2.352-.256-2.7.45,1.486.684,3.756.582,5.613.9C475.23,263.951,472.1,261.42,471.541,262.727Zm53.662,1.348c-.3.6-.6,1.193-.9,1.8a1.9,1.9,0,0,0-1.347.225,45.549,45.549,0,0,1-32.108,14.593c4.186.554,10.52-.345,14.369-.45a9.689,9.689,0,0,1,4.717-1.346c6.793-3.485,14.5-6.95,15.939-14.818Zm-55.008,5.613c3.377,1.254,8.657,1,12.124.449-1.79-.656-3.4-2.516-5.613-3.144-2.73-.776-5.9-.1-8.307-1.572C467.973,267.381,468.549,269.076,470.194,269.688Zm49.4,5.388c-5.824,4.641-12.876,7.457-22.678,7.183,2.071.476,4.314.775,6.286,1.348a2.484,2.484,0,0,1,.9-1.57c2.741-.093,5.879-.887,8.531-1.124.353-.554,2.258-1.071,3.817-1.122a4.433,4.433,0,0,1,3.368-1.348c1.222-1.261,2.879-1.686,4.042-2.919,2.041-2.163,2.75-5.15,4.714-7.408.592,3.007-1.185,5.72-2.469,7.408-4.388,5.772-13.423,6.567-21.554,8.308,3.783.96,5.548.965,8.757,1.57,6.732-4.418,16.473-5.828,17.063-16.389-1.053-1.118-1.866-2.474-3.366-3.144C525.968,270.635,522.844,272.481,519.59,275.076ZM465.7,268.341a1.456,1.456,0,0,1,1.122.224c-.139-.61.286-1.783-.224-2.02C466.168,267.009,466.055,267.794,465.7,268.341Zm16.391,13.022c3.054-.282,5.278,1.754,8.083,2.469,1.015.257,2.113-.036,3.144.223,3.167.8,6.2,2.936,10.1,2.92a1.886,1.886,0,0,1-1.346,1.8c-13.919-3.893-28.214-7.412-36.822-16.612.381,2.137,2.7,3.629,4.489,5.163a35.366,35.366,0,0,0,5.389,4.265c5.324,2.969,11.89,4.562,17.512,7.41,1.534.777,2.79,1.847,4.265,2.019,4.935.577,8.48-3.447,12.8-4.49-3.626.236-6.813-1.137-9.205-1.8-4.87-1.342-9.637-1.848-14.145-3.818-4.188-1.83-8.664-2.97-11.674-4.714-2.937-1.7-5.143-5.161-8.309-6.287C469.828,276.453,476.944,277.1,482.095,281.363Zm-9.88-9.43c1.158.416,1.814,1.33,2.92,1.8-.047-.643.056-1.14.449-1.348,4.129,2.094,10.65,1.017,14.817-.222C485.146,271.125,477.841,273.185,472.214,271.933Zm51.415,10.1c-8.8,4.015-17.265,9.5-28.064,10.777-2.982-1.2-5.713-2.628-8.981-4.266-2.554-1.281-5.579-1.77-8.081-2.919-1.132-.519-2.207-1.555-3.368-2.244-1.317-.784-2.849-1.276-3.818-2.021-1.592-1.231-2.787-3.224-4.265-4.491-.4-.343-1-1.3-1.572-.9.834,4.442,3.475,5.782,6.512,8.081a32.923,32.923,0,0,0,6.959,3.594c6.109,2.677,14.062,4.479,18.636,8.081,14.617-4.052,27.669-9.9,35.026-21.778-.59-.608-.447-1.95-1.125-2.469C530.474,276.606,526.843,279.114,523.629,282.036Zm-40.414-4.491c1.262.61,2.956.786,4.043,1.571,1.951-1.019,4.265-.149,6.286-.224,8.436-.317,14.878-3.652,20.431-7.185-11.539.137-17.554,6.537-30.535,5.838.045-.63-1.677.062-.449,0Zm-3.366-2.245c-1.148-.116-2.308-1.008-3.368-.45a19.16,19.16,0,0,0,5.614,2.471c-.028-.564-.43-.7.224-.9,7.544-.015,13.236-1.881,18.861-3.818C493.158,271.371,486.924,276.018,479.849,275.3Zm19.085,21.328c1.027.4,1.722,1.123,2.693,1.573,1.595-1.176,3.8-1.228,5.837-1.8,1.952-.546,3.919-1.407,5.839-1.8,6.364-3.443,13.054-6.553,17.736-11.677.42-.4-.181-.572,0-1.348a6.951,6.951,0,0,0,2.245-1.572c-.038-1.233.07-2.612-.671-3.143C524.811,286.885,513.176,293.06,498.934,296.629Zm4.04,2.7a9.777,9.777,0,0,0,2.47,1.571c-.1-.5-.514-1.219.224-1.348,2.551.541,4.142-.98,6.288-1.8a88.507,88.507,0,0,0,11.674-5.164c1.212-.683,2.353-1.642,3.592-2.47,2.287-1.527,8.312-4.941,5.614-7.184C526.07,291.588,514.846,295.778,502.973,299.324ZM465.7,285.4c.487-.466.012-.763-.449-.9C465.192,285.017,465.307,285.349,465.7,285.4Zm40.412,15.942c5.284,1.234,10.114-1.216,14.819-3.592a69.341,69.341,0,0,0,6.512-3.142c1.914-1.224,4.793-2.8,5.836-4.044.655-.781.319-2.372,1.573-2.469,1.032,3.267-3.133,5.793-5.388,7.183-1.285.793-2.894,1.391-4.491,2.246-3.951,2.117-9.549,5.035-14.818,5.613a4.78,4.78,0,0,0,4.714,2.471c.715-.26-.092-.941.674-1.348,1.439-.168,2.283.261,3.592.225,2.938-1.8,6.6-2.668,9.43-4.49,2.183-1.409,3.515-4.728,5.839-4.941-.91,5.382-7.423,7.1-11.451,10.1,4.511.9,9.943,1.677,13.695.224-.829-5.07-1.857-11-.449-15.94-.551-1.127-1.254-2.941-1.57-3.594C527.552,293.441,517.736,298.293,506.116,301.345Zm-23.349-7.859c-5.735-1.451-10.312-5.25-15.042-6.961v.674c5.346,3.409,10.749,6.763,17.737,8.531C485.012,294.537,483.316,294.585,482.767,293.486ZM463.908,288.1c1.669,2.564,3.242,3.343,6.062,5.388,3.614,2.622,7.762,5.04,12.573,2.694a25.913,25.913,0,0,1-6.96-2.47c-.025.275-.066.533-.449.451a25.256,25.256,0,0,0-5.389-2.7c-1.81-1.633-2.76-4.125-5.388-4.939C464.488,287.332,464.1,287.613,463.908,288.1Zm.449,5.388c2.418,2.606,6.289,6.439,10.329,4.716-3.351-1.965-7.115-3.513-9.656-6.288C464.971,292.6,464.542,292.924,464.357,293.486Zm13.022,10.552a63.563,63.563,0,0,0,12.8,4.042c.227.671,1.094.7,1.57,1.123,7.968,1.64,14.321,3.738,22,5.388a42.767,42.767,0,0,1-5.837-4.715,198.638,198.638,0,0,1-34.577-8.531c-3.626-1.233-6.348-3.376-9.429-4.939C466.585,300.856,471.761,301.664,477.379,304.038Zm17.289-4.265c-2.178-1.15-3.966-2.739-6.287-3.144a3.518,3.518,0,0,1-2.918.449c-1.159.789-2.829,1.063-4.267,1.573.673.924,2.081,1.29,3.144,1.572,5.075,1.34,11.224,1.976,16.166,3.592C499.44,301.561,496.709,300.851,494.667,299.773Zm-3.144,3.817a22.43,22.43,0,0,0-3.816-1.122c-4.558-1.046-8.811-3.379-12.35-2.021,6.58,1.02,12.524,4.577,19.309,5.613,3.492.533,7.1.733,10.551,1.572-.706-1.39-2.325-1.866-3.367-2.921-.014.66-.513.835-.9,1.126C498.436,304.252,494.82,304.926,491.524,303.59Zm-12.8,5.839c6.749,1.886,12.3,5.011,19.309,5.612,1.266,1.414,3.3.9,5.163,1.123.957.115,1.842.836,2.918,1.123a140.884,140.884,0,0,0,17.065,3.368,33.5,33.5,0,0,1-6.736-4.491c-3.5.215-7.091-1.014-10.552-1.8a209.427,209.427,0,0,1-41.537-14.144C465.819,306.48,475.125,306.049,478.726,309.428Zm-.673,4.489c3.442,1.159,8.066,1.714,11.45,4.265a7.737,7.737,0,0,1,5.164,1.571c12.139,2.4,21.979,5.78,35.249,6.512-1.552-1.142-3-2.386-4.491-3.591a8.112,8.112,0,0,1-1.348.449c-4.483-1.737-9.532-2.572-14.592-3.594-5.125-1.032-10.142-2.632-15.268-3.816-2.6-.6-5.182-1.007-7.634-1.8-2.327-.75-4.384-2.1-6.735-2.919-5.186-1.813-11.716-4.155-15.492-6.961h-.673C465.236,310.046,473.628,309.905,478.053,313.918ZM516,307.182c5.12,2.376,13.988,3.6,21.1,3.144a3.736,3.736,0,0,1-.223-2.918C529.862,309.354,522.647,304.336,516,307.182Zm21.33,7.185c-.184-.936.3-1.873,0-2.246-5.363-.494-12.487-1.468-17.289-2.021C524.8,314.152,531.344,315,537.326,314.367Zm-73.418-1.8a3.212,3.212,0,0,0,.9,1.8c2.8.455,6.9.9,10.329,0C472.9,312.4,466.864,313.066,463.908,312.57Zm73.866,6.064c.389-1.32-.112-1.45-.225-2.7-3.847.255-7.693-.686-10.776-.448C528.97,318.952,534.472,316.9,537.774,318.634Zm-72.295-2.92c-.043,1.079-1.732.515-2.021,1.349a7.486,7.486,0,0,1,.9,3.592c6.291,1.459,16.541.7,23.351-1.573-2.515-1.825-4.789-.656-7.409,0-4.548,1.138-10.474,1.553-15.043,0-.082-.389-.68-1.387-.226-1.571,5.083,1.69,11.748.153,16.165-1.123C476.077,314.606,470.525,318.229,465.479,315.714Zm72.07,7.634c-.134-1.331.395-2,.225-3.367a50.3,50.3,0,0,0-6.96-.674C532.738,320.839,533.908,324.281,537.55,323.348Zm-47.822-3.593c-7.37,3.96-19.021,5.244-26.269,1.8-.142.757-.644,1.152-.448,2.246,1.454.964,5.115,1.288,8.305,1.348,7.841.145,18.225-1.351,24.025-3.817A53.66,53.66,0,0,0,489.728,319.754Zm8.756,2.7c-2.046,1.243-4.843,1.705-8.083,2.245-9.515,1.585-19.174,3.294-27.389,1.123A20.37,20.37,0,0,1,464.805,333c.127-.547.193-1.156.9-1.123,14.021,3.13,30.865-2.166,42.883-6.96-1.28-.517-3.009-.583-4.265-1.124-7.048,4.615-19.966,6.65-30.985,6.512-2.547-.032-9,.057-8.756-3.145,2.044-.284,2.5.087,2.919.9,12,1.591,25.289-.708,34.127-4.939C500.452,323.027,499.658,322.548,498.483,322.449Zm13.92,2.919c-12.894,5.862-31.18,10.779-47.148,8.756.539,1.5,2.739,1.282,4.489,1.348a92.5,92.5,0,0,0,28.514-2.92,125.762,125.762,0,0,0,14.37-4.263c1.4-.569,3.134-1.319,3.592-2.248A20.588,20.588,0,0,1,512.4,325.368Zm6.512,1.346c-.346.078-.2.558-.451.674a46.7,46.7,0,0,1-4.265,2.247c-13.2,4.6-27.69,8.015-43.781,7.858-1.742-.017-3.933-.582-5.613.673.653,2.651,4.434,2.063,6.287,2.02,2.6-.056,5.4-.592,7.858-.9,5.2-.643,10.93-.9,15.717-2.247,9.773-2.739,19.824-5.538,27.39-9.655C520.828,327.222,520,326.474,518.915,326.714Zm5.612,2.472c3.857,1.307,7.41,4.115,11.452,4.489-2.361-2.413-8.473-2.893-10.554-5.613C525.275,328.583,524.68,328.665,524.527,329.186Zm8.308.9c-.545-1.545-2.73-1.664-4.042-1.348A38.429,38.429,0,0,1,532.836,330.083Zm-1.8,11.9c-5.8-1.962-11.867-4.332-15.94-7.858-.9.079-1.644,0-1.8-.672-.014-.138-.032-.267-.226-.226-1.177.769-3.026.865-4.265,1.573,3.04,2.375,7.486,3.644,11.9,5.386,4.243,1.675,9.164,3.93,13.247,4.267,1.327.108,1.749.349,2.245-.675C535.007,342.166,532.776,342.571,531.039,341.982Zm2.245,4.267c-3.951-1.215-8.09-2.623-12.123-4.043a94.647,94.647,0,0,1-14.816-6.735c-3.323,1.2-6.084,1.241-8.308,2.918,3.348,2.906,7.3,4.652,12.348,6.064,7.749,2.167,16,4.76,24.249,5.837-.3-1.705-2.464-1.582-3.594-1.8a87.231,87.231,0,0,1-12.8-3.592c-5.565-1.908-11.289-3.121-14.594-7.409.466-.719.611-1.415,1.347-1.347.96.012.489,1.456,1.122,1.8,8.269,5.426,20.16,7.394,30.313,10.328C536.743,346.343,534.325,346.568,533.283,346.249Zm-35.923-6.063c-.664-.381-.348-1.747-1.346-1.8a36.3,36.3,0,0,1-4.94.9,21.192,21.192,0,0,0,6.511,3.816c5.449,2.289,10.684,5.2,17.512,6.063,4.521,2.738,11.592,3.239,17.288,4.714.236.937-.473,1.522,0,2.021a14.939,14.939,0,0,0,2.022-.449c.278-2.074-1.52-2.239-1.348-3.593C520.261,348.869,506.748,346.591,497.36,340.186Zm-13.022.226c.343,2.034,1.07,2.429,3.369,3.366,2.09.853,3.127,1.723,4.714,2.471a65.832,65.832,0,0,0,12.8,4.266c.583.165.761.737,1.349.9,5.673.891,8.959,1.977,14.593,2.7.055.769,1.2.448,1.347,1.122,2.148-.174,6.324,3.224,8.758.451-15.073-3.562-29.419-7.854-41.314-14.594-.434-.433.239-.9.228-1.569A20.5,20.5,0,0,0,484.338,340.411Zm-11.9,1.57c5.483,5.42,14.005,7.59,21.1,10.554,9.23.961,15.27,5.6,25.819,5.388.609,1.514,1.288.564,2.693,1.571,1.382-.226,1.57.079,2.7.449,1.7-1.345,5.953,1.3,8.082-.9a93.665,93.665,0,0,1-15.941-3.817c-6.239-2.01-13.238-2.181-19.087-4.939s-11.5-4.4-15.713-8.532c-.441-.419-.07-.822,0-1.347C478.629,340.9,475.144,341.966,472.44,341.982Zm2.02,4.042c-1.453-1.464-3.552-2.285-6.735-2.02A8.323,8.323,0,0,0,474.46,346.023Zm2.47,1.8c-.521-.066-1.6.289-2.7.225-2.357-.137-4.95-1.667-5.837-.225a29.471,29.471,0,0,0,13.246,2.02C480.306,349.606,478.836,348.066,476.93,347.819Zm-6.736,4.042c5.991,2.638,17.135,3.7,23.8,2.246a58.423,58.423,0,0,1-10.553-3.144c-.741.212.076,1.094-1.122,1.123a47.379,47.379,0,0,1-11.9-1.571C470.582,351.2,470.188,351.332,470.194,351.861Zm11,6.063a46.814,46.814,0,0,0,17.739-1.571c-.486-.79-1.665-.88-2.7-1.124-7.551,3.157-18.052.829-26.043-1.347C470.921,358.153,476.805,357.289,481.195,357.924ZM501.4,356.8c-.33.072-.208.6-.449.674-9.338,2.828-21.533,4.207-30.535.224-1.2.979-1.051,3.273.451,3.817.8-.324.52-1.725,1.571-1.8.5.325.311,1.336.673,1.8,5.976-.424,11.751-.406,17.512-.9,1.5-.127,2.8-.881,4.266-1.122,3.538-.582,7.535.2,10.326-2.02C503.97,357.641,502.618,356.534,501.4,356.8Zm7.858,1.571c-3.536.975-6.879,2.772-10.777,3.144-7.776.738-16.545,1.063-24.471,2.247,1.134.061,1.518.877,2.245,1.346,6.6,1.061,13.935-.061,20.88-1.123,6.716-1.028,13.647-1.88,18.859-4.266C514.144,359.923,511.011,357.89,509.26,358.372Zm9.879,2.468c-.012-.136-.033-.264-.224-.224,0,.3-.393.207-.451.45a3.624,3.624,0,0,1-1.8.9c-6.872,1.185-12.953,3.953-20.207,4.487-6.9.511-16.991,2.08-22.678-.225,1,1.985,3.747,2.279,5.615,2.7a31.758,31.758,0,0,0,7.184.673c9.775-.09,20.008-2.255,28.515-4.265,1.971-2,5.629-2.3,8.082-3.817C521.542,361.583,520.557,361,519.139,360.841Zm6.064.9c-8.584,6.46-21.163,8.923-35.025,10.1,3.449.639,7.065.164,10.776,0,2.987-.131,6.2.406,8.981,0,2.666-.385,5.4-1.786,7.411-2.468,5.574-1.895,11.635-1.735,12.793-6.96C528.726,361.716,527.588,361.712,525.2,361.741Zm.671,11.226A20.392,20.392,0,0,1,516,377.456c-11.509,1.922-27.252,3.835-37.493.674.222,3.34.45,6.4.9,10.328.035.311.621.843.674,1.348.1.921-.737.628-.449,1.347.547,1.365,3.71,4.123,5.162,4.716,1.58.643,4.291.585,6.963,1.347a31.7,31.7,0,0,0,6.735,1.571c5.968.244,11.159-1.078,15.716-2.246,1.9-.487,3.9-.567,5.39-1.122,3.643-1.36,5.834-4.771,7.858-6.737-.94-3.866.524-10.722-.9-15.715h-.674Z" transform="translate(0 0)" fill="#fff" fill-rule="evenodd"/></g><rect width="250" height="250" transform="translate(-6039 -13741)" fill="none"/></g></svg>