<svg xmlns="http://www.w3.org/2000/svg" width="250" height="250" viewBox="0 0 250 250"><g transform="translate(6376 13741)"><g transform="translate(-6987.652 -13767.552)"><path d="M847.592,210.846a28.5,28.5,0,0,0,2.584,2.887c.93.974,1.87,1.94,2.78,2.933A16.874,16.874,0,0,1,855.2,219.6a13.558,13.558,0,0,1,1.313,3.217,27.56,27.56,0,0,1,.779,6.772c.378-.077.755-.161,1.129-.254a27.188,27.188,0,0,0,5.528-2.048,27.571,27.571,0,0,0,4.947-3.163,27.287,27.287,0,0,0,2.2-1.969q.518-.517,1.006-1.062.245-.273.481-.551a1.744,1.744,0,0,0,.4-.642c.145-.546-.3-1.107-.558-1.546l-.931-1.562-1.879-3.152-3.741-6.276c-.615-1.031-1.222-2.067-1.846-3.093a14.264,14.264,0,0,0-.935-1.388,3.448,3.448,0,0,0-1.106-1.055c-.517-.243-1.11.055-1.6.232q-.853.306-1.7.621-1.683.626-3.35,1.289t-3.3,1.358a22.09,22.09,0,0,1-3.17,1.178,7.788,7.788,0,0,1-1.628.246,1.656,1.656,0,0,1-1.388-.357,1.879,1.879,0,0,1-.279-1.22,3,3,0,0,0-.274-1.274,2.907,2.907,0,0,0-2.022-1.62,3.057,3.057,0,0,0-2.5.639c.426.51.882.992,1.338,1.443.947.937,1.944,1.823,2.849,2.8q.7.757,1.324,1.58.312.409.6.833a7.576,7.576,0,0,1,.547.87.171.171,0,0,1,0,.167C847.486,210.694,847.538,210.771,847.592,210.846Z" transform="translate(-108.497 -79.818)" fill="#fff"/><path d="M828.07,154.913a4.866,4.866,0,0,0-1.378.281.145.145,0,0,1-.18-.053,4.335,4.335,0,0,0-.154,3.1c.142.56.305,1.115.485,1.666a6.562,6.562,0,0,1,.733-.014c.242-.007.486-.026.726-.058a7.416,7.416,0,0,0,1.072-.226,4.774,4.774,0,0,1-.7-.631,3.833,3.833,0,0,1-1-2.137,3.164,3.164,0,0,1,.4-1.922Z" transform="translate(-99.927 -52.374)" fill="#fff"/><path d="M784.888,72.429c1.924.016,3.847.01,5.768-.123a30.6,30.6,0,0,0,6.875-1.19c.753-.232,1.486-.514,2.214-.812-.112-.379-.221-.759-.335-1.137a2.5,2.5,0,0,0-.209-.534,2.221,2.221,0,0,0-.341-.43c-.584-.605-1.193-1.188-1.789-1.781l-.443-.441a2.281,2.281,0,0,0-.322-.285,1.484,1.484,0,0,0-.979-.115q-1.133.076-2.265.164t-2.264.19q-.575.051-1.149.106a6.636,6.636,0,0,0-.968.144,2.57,2.57,0,0,0-.916.423c-.291.212-.556.462-.829.7s-.554.476-.833.713a2.9,2.9,0,0,0-.74.733,1.879,1.879,0,0,0-.166.91c0,.325.028.65.018.976A5.083,5.083,0,0,1,784.888,72.429Z" transform="translate(-75.744)" fill="#fff"/><path d="M802.609,80.062c-.031-.319-.367-.515-.589-.7a2.662,2.662,0,0,1-.648-.78,1.539,1.539,0,0,1-.176-.957,3.87,3.87,0,0,1,.154-.529,1.628,1.628,0,0,0,.062-.579c-.021-.406-.091-.811-.139-1.214s-.588-4.229-.625-4.622c-.587.022-2.441-1.238-3.026-1.184-.627.057.237,2.262-.066,1.711-2.563-4.674-5.939-7.906-8.289-.658a2.709,2.709,0,0,1-2.5,1.513c.149.354.476,5.023.572,5.394a12.037,12.037,0,0,1,.274,1.424,11.462,11.462,0,0,1,.1,1.444,5.774,5.774,0,0,1-.019.686.649.649,0,0,1-.079.28.245.245,0,0,1-.119.093c.419.205.837.411,1.254.62.851.427,1.694.869,2.515,1.351.578.339,1.152.7,1.706,1.091a3.672,3.672,0,0,1-.226-.341c-.1-.17.149-.373.278-.214.1.127.2.257.306.384a6.347,6.347,0,0,0,3.185,2.114,2.787,2.787,0,0,0,1.029.156,1.332,1.332,0,0,0,.819-.533,20.9,20.9,0,0,0,1.316-1.66,8.016,8.016,0,0,0,1.013-1.839,8.965,8.965,0,0,0,.262-.931,2.121,2.121,0,0,1,.327-.779,1.02,1.02,0,0,1,.757-.391C802.271,80.385,802.643,80.4,802.609,80.062Z" transform="translate(-76.845 -0.433)" fill="#fff"/><path d="M788.53,123.158a6.727,6.727,0,0,0,.789-1.131,4.02,4.02,0,0,0,.429-1.254c.068-.415.071-1,.42-1.3a.546.546,0,0,1,.6-.09.576.576,0,0,1,.266.474c.182.032.361.066.546.084a3.475,3.475,0,0,1,.4.056c-.238-.7-.479-1.395-.731-2.088a32.768,32.768,0,0,0-1.831-4.242,18.065,18.065,0,0,0-1.195-1.951c-.219-.309-.452-.605-.684-.9a3.68,3.68,0,0,1-.4-.586,1.955,1.955,0,0,1-.568.676c-.183.132-.356-.171-.176-.3a2.28,2.28,0,0,0,.695-1.134c.044-.123.087-.247.133-.37a1.422,1.422,0,0,0,.119-.316c.01-.09-.146-.162-.21-.213a1.678,1.678,0,0,1-.164-.142,2.484,2.484,0,0,1-.623-.056,6.2,6.2,0,0,1-.926-.265c.068.042.135.084.2.124.188.108.38.209.577.3a1.817,1.817,0,0,1,.47.275.58.58,0,0,1,.2.483,1.463,1.463,0,0,1-.272.577,2.329,2.329,0,0,0-.369,1.046.135.135,0,0,1,.064.151.333.333,0,0,1-.159.188c-.132.089-.269-.034-.286-.164a2.052,2.052,0,0,1,.311-1.2c.1-.18.231-.346.32-.531.077-.16.015-.26-.125-.352a4.892,4.892,0,0,0-.485-.247q-.291-.147-.567-.321c-.111-.07-.227-.144-.341-.222.051.06.1.119.152.181.1.128-.064.308-.184.184a19.057,19.057,0,0,0-2.245-1.979,31.2,31.2,0,0,0-4.641-2.753q-.6-.3-1.212-.6c-.281-.137-.785-.431-1.072-.161a1.675,1.675,0,0,0-.306.584q-.139.34-.244.692a7.516,7.516,0,0,0-.252,1.183.127.127,0,0,1,.011.067,7.09,7.09,0,0,1,1.428.229,11.466,11.466,0,0,1,2.722,1.19c.437.252.865.521,1.289.795q.317.2.632.412l.313.205c.012.008.063.031.09.048a.149.149,0,0,1,.07-.042.169.169,0,0,1,.207.117c.047.294-.274.375-.491.255-.253-.139-.491-.322-.733-.479-1.737-1.133-3.622-2.311-5.761-2.357a.2.2,0,0,1-.095-.031,6.47,6.47,0,0,0-1.212,2.43,10.849,10.849,0,0,1-.585,1.412c-.244.476-.526.931-.806,1.387a9.4,9.4,0,0,0-1.36,3,18.109,18.109,0,0,0-.183,3.623v2.442q.307-1.229.618-2.458.35-1.382.69-2.766c.229-.922.467-1.842.69-2.765.036-.149.258-.085.228.063-.09.443-.178.886-.269,1.328-.368,1.8-.828,3.582-1.267,5.363s-.892,3.575-1.321,5.366a38.026,38.026,0,0,0-.973,5.364,19.208,19.208,0,0,0-.068,2.691,9.121,9.121,0,0,0,.332,2.273,2.571,2.571,0,0,0,1.073,1.519,4.179,4.179,0,0,0,2.369.26,18.214,18.214,0,0,0,4.958-1.058,24.307,24.307,0,0,0,4.618-2.4c1.563-.987,3.12-1.986,4.68-2.979l2.344-1.492.6-.38a2.2,2.2,0,0,0,.424-.321,1.182,1.182,0,0,0,.192-1.016,4.975,4.975,0,0,0-2.218-3.45.185.185,0,0,1-.072-.087,12.523,12.523,0,0,0-1.867.722q-4.067,1.91-8.135,3.816c-.14.066-.341-.044-.283-.218a13.929,13.929,0,0,1,.744-1.754,23.429,23.429,0,0,0,1.405-3.063,5.674,5.674,0,0,0,.18-3.246c-.028-.149.185-.263.261-.11a3.561,3.561,0,0,1,.266,1.851c-.182,2.207-1.56,3.993-2.333,6l1.907-.892q2.055-.962,4.111-1.919c.659-.308,1.315-.624,1.981-.915a8.026,8.026,0,0,1,2.01-.645.153.153,0,0,1,.163.217Z" transform="translate(-66.31 -21.931)" fill="#fff"/><path d="M798.062,159.8l-1.193.76-2.426,1.545c-1.586,1.01-3.16,2.045-4.767,3.021a20.907,20.907,0,0,1-4.833,2.22,18.264,18.264,0,0,1-2.047.485,5.142,5.142,0,0,1,.584,1.082,6.672,6.672,0,0,1,.48,2.285,10.257,10.257,0,0,1-.048,1.094c-.016.231-.04.569.2.69a.191.191,0,0,1,.039.3,1.677,1.677,0,0,0-.573.835c-.068.23-.162.666.174.716a.691.691,0,0,0,.194,0,.128.128,0,0,1,.033,0,1.727,1.727,0,0,0,.216-.054c.2-.06.388-.135.58-.2q.6-.216,1.187-.445,2.145-.829,4.22-1.824c.688-.33,1.368-.68,2.069-.983a20.379,20.379,0,0,1,2.067-.763,31.82,31.82,0,0,1,4.3-.971c.737-.12,1.476-.225,2.216-.324.5-.067,1.214-.094,1.5-.589a.176.176,0,0,1,.242-.07.181.181,0,0,1,.119-.05,1.308,1.308,0,0,0,1.087-1.837,6.243,6.243,0,0,0-.337-.659q-.174-.318-.34-.639-.342-.664-.652-1.344c-.414-.908-.788-1.835-1.11-2.779a16.358,16.358,0,0,1-.793-2.907,4.206,4.206,0,0,1,.18-2.155c-.548.45-1.089.914-1.664,1.327a.107.107,0,0,1-.057.02c.019.082.036.164.05.246a2.1,2.1,0,0,1-.04,1.171A1.954,1.954,0,0,1,798.062,159.8Z" transform="translate(-74.518 -53.14)" fill="#fff"/><path d="M763.547,241.471q.752,2.436,1.635,4.83a2.055,2.055,0,0,0,.548,1,2.507,2.507,0,0,0,1.022.319,24.325,24.325,0,0,0,2.565.346,59.945,59.945,0,0,0,10.341-.358,90.855,90.855,0,0,0,10-1.341A45.146,45.146,0,0,0,794.552,245a10.846,10.846,0,0,0,4.181-2.071.174.174,0,0,1,.025-.015c-.286-2.411-.5-4.832-.589-7.256a.808.808,0,0,1-.23-.161,1.466,1.466,0,0,1-.327-.68,1.859,1.859,0,0,0-.295-.637,2.445,2.445,0,0,0-.469-.458,9.434,9.434,0,0,0-1.116-.687q-.668-.379-1.329-.772-1.332-.79-2.633-1.63t-2.567-1.733c-.838-.592-1.674-1.19-2.457-1.854l-.413-.008c-.5-.01-1.005,0-1.505-.032a2.32,2.32,0,0,1-.7-.126,2.278,2.278,0,0,1-.591-.348c-.335-.261-.647-.555-.958-.844-1.238-1.151-2.384-2.4-3.621-3.547a15.616,15.616,0,0,0-4.011-2.85,6.934,6.934,0,0,1-2.142-1.186l-.017-.019s-.005.006-.009.009a4.842,4.842,0,0,0-2.387,2.371,1.485,1.485,0,0,0,.145,1.485,2.776,2.776,0,0,0,1.27.664c1.077.339,2.165.643,3.242.983a25.165,25.165,0,0,1,3.153,1.2,13.737,13.737,0,0,1,1.457.793A7.262,7.262,0,0,1,781,226.6c.133.137-.047.389-.21.272-.268-.193-.523-.4-.792-.595s-.523-.355-.795-.516a14.942,14.942,0,0,0-1.731-.873c-.247-.106-.5-.205-.747-.3a7.55,7.55,0,0,1-.743.488q-.433.263-.877.506-.869.477-1.777.879a23.944,23.944,0,0,1-3.331,1.194,27.071,27.071,0,0,1-3.529.695,18.159,18.159,0,0,0-3.519.706,3.573,3.573,0,0,0-2.084,1.457c.067.347.138.693.207,1.04A98.918,98.918,0,0,0,763.547,241.471Z" transform="translate(-61.662 -89.398)" fill="#fff"/><path d="M762.285,259.129l-.017-.082a.142.142,0,0,1-.011.092Z" transform="translate(-62.479 -113.406)" fill="#fff"/><path d="M834.4,430.8a4.477,4.477,0,0,0,.8-.189l.845-.22a8.571,8.571,0,0,0,1.41-.457,3.649,3.649,0,0,0,.63-.362c.083-.06.214-.14.246-.243a.561.561,0,0,0-.064-.308,6.02,6.02,0,0,0-.507-1.158,1.88,1.88,0,0,0-.833-.786c-.209-.089-.456-.143-.55-.377a.411.411,0,0,1-.023-.24.18.18,0,0,1-.151-.05c-.445-.417-.884-.836-1.354-1.224s-.932-.732-1.422-1.065a19.637,19.637,0,0,0-5.789-2.668,2.19,2.19,0,0,1-.755-.285,1.911,1.911,0,0,1-.471-.647q-.464-.843-.921-1.69-.444-.826-.883-1.656c-.231-.437-.467-.874-.684-1.319q-.083.312-.176.62c0,.631,0,1.261-.006,1.892a.121.121,0,0,1,.093.084c.093.279.2.553.306.825a21.552,21.552,0,0,0,4.038,5.759c.557.65,1.118,1.3,1.693,1.934a.174.174,0,0,1,.25-.06,8.449,8.449,0,0,0,1.5.931,7.358,7.358,0,0,1,.8.36,1.336,1.336,0,0,1,.469.677,9.132,9.132,0,0,0,.623,1.336A1.03,1.03,0,0,0,834.4,430.8Z" transform="translate(-98.515 -205.307)" fill="#fff"/><path d="M841.846,445.283a1.057,1.057,0,0,0-.3-.158c-.248-.1-.493-.207-.731-.328a7.92,7.92,0,0,1-.75-.436,34.844,34.844,0,0,0,2.51,2.454c-.2-.389-.354-.8-.529-1.2A.864.864,0,0,0,841.846,445.283Z" transform="translate(-108.083 -222.016)" fill="#fff"/><path d="M822.025,367.28a20.353,20.353,0,0,0,.1-2.856,34.085,34.085,0,0,0-.726-5.66c-.384-1.9-.858-3.78-1.286-5.67-.213-.94-.416-1.883-.59-2.832q-.128-.7-.235-1.408a2.851,2.851,0,0,1-.061-.587l-1.422-.058c.034.144.07.289.1.434.45,2.042.814,4.1,1.108,6.172s.518,4.124.692,6.195.292,4.161.376,6.245.134,4.2.164,6.3c.01.654.012,1.308.016,1.961.393-1.758.851-3.5,1.241-5.262A27.648,27.648,0,0,0,822.025,367.28Z" transform="translate(-95.038 -165.663)" fill="#fff"/><path d="M752.458,350.231c-.13-.362-.438-.639-.51-1.024a.172.172,0,0,1,.008-.085l-.166-.277-1.05-1.753a9.1,9.1,0,0,0-.939-1.368,3.331,3.331,0,0,0-1.391-.961,12.3,12.3,0,0,0-1.776-.415,34.866,34.866,0,0,1-7.344-2.027,20.6,20.6,0,0,1-5.783-3.958,61.07,61.07,0,0,1-4.762-5.2,31.326,31.326,0,0,1-2.182-2.8,10.5,10.5,0,0,1-1.344-2.672c0,.136,0,.272,0,.408a.111.111,0,0,1-.221,0c-.007-.257-.012-.514-.024-.77-.1-2.085-.083-4.177-.127-6.264s-.1-4.156-.2-6.232-.232-4.164-.418-6.241-.423-4.126-.733-6.177q-.234-1.55-.524-3.091c-.18-.952-.39-1.9-.589-2.846-.791-.033-1.582-.07-2.372-.119-1.026-.063-2.054-.139-3.075-.261s-2.04-.3-3.053-.518c-.154-.033-.086-.258.064-.233.264.044.529.086.794.118,2.023.242,4.043.447,6.079.553q.795.041,1.59.074a.185.185,0,0,1,.252.01c1.437.059,2.874.11,4.309.19,2.074.116,4.135.35,6.2.543a35.174,35.174,0,0,0,6.031.158,15.761,15.761,0,0,0,5.157-1.228c0-.008,0-.016-.005-.024q-.3.12-.6.215a1.337,1.337,0,0,1-1.185-.069,1.538,1.538,0,0,1-.537-.82,10.763,10.763,0,0,1-.27-1.244q-.145-.731-.288-1.463-.289-1.463-.577-2.926-.578-2.931-1.151-5.863c-.75-3.873-1.471-7.755-2.044-11.659q-.292-1.991-.541-3.993a6.562,6.562,0,0,1-.713.539,10.783,10.783,0,0,1-2.068.989c-.791.3-1.6.557-2.406.8a48.817,48.817,0,0,1-4.991,1.172c-3.395.622-6.834.953-10.27,1.252a47.065,47.065,0,0,1-10.523.08q-.654-.091-1.3-.218a2.537,2.537,0,0,1-1.029-.354,1.793,1.793,0,0,1-.569-.861c-.154-.4-.3-.808-.445-1.214q-.879-2.452-1.613-4.952-.752-2.567-1.348-5.176c-.123.056-.245.113-.369.168q-1.084.478-2.141,1.01l-1.316.765c-1.242.722-2.483,1.448-3.668,2.255a25.474,25.474,0,0,0-2.138,1.722,15.159,15.159,0,0,0-2.968,3.728,11.873,11.873,0,0,0-2.606,1.767c-.26.231-.507.477-.746.729a33.585,33.585,0,0,0-7.19,4.329,19.942,19.942,0,0,0-5.711,7.01,16.014,16.014,0,0,0-.892,2.345,7.566,7.566,0,0,0-.38,2.5.2.2,0,0,0,.394.053c.2-.7.325-1.408.517-2.107.115-.42.256-.833.408-1.241a33.857,33.857,0,0,0,.063,8.527,56.885,56.885,0,0,1-.18,11.837,53.908,53.908,0,0,1-.989,5.5,23.4,23.4,0,0,1-4.1,7.341,48.124,48.124,0,0,1-6.07,6.6,47.054,47.054,0,0,1-3.815,3.1.251.251,0,0,0-.186.149.4.4,0,0,0,.146.694c.137.028.275.044.412.062q.054.035.111.065c-.081.1-.165.2-.244.3l.457-.206.116.046a4.438,4.438,0,0,0,1.293.264,14.256,14.256,0,0,0,2.885-.128,16.083,16.083,0,0,0,5.034-1.58c.049-.023.1-.044.148-.068A33.4,33.4,0,0,0,671,324.553a9.67,9.67,0,0,0,2.094-1.981,14.452,14.452,0,0,0,1.12-1.722c2.076-3.049,2.905-6.771,3.433-10.387.339-2.322.609-4.656.906-6.984q.118-.926.236-1.851a30.756,30.756,0,0,1-.267,5.435c-.14,1.076-.326,2.143-.5,3.213s-.361,2.168-.548,3.251c-.031.177.226.256.274.075.492-1.856.98-3.707,1.293-5.6a31.809,31.809,0,0,0,.482-5.746c-.025-1.414-.2-2.814-.275-4.222l.219-1.719q.392-3.085.784-6.171,1.407-3.329,2.945-6.6c-.119,1.64-.135,3.292-.147,4.93a11.833,11.833,0,0,0,3.174,9.292,35.359,35.359,0,0,0,7.056,6.271,52.711,52.711,0,0,0,8.241,4.565c1.455.654,2.932,1.255,4.425,1.815q1.109.416,2.229.8.55.191,1.1.375a8.98,8.98,0,0,0,.979,1.079,5.749,5.749,0,0,1,1.032.895,7.887,7.887,0,0,0,.6.81c.2.691.376,1.389.537,2.085a50.569,50.569,0,0,1,1.019,6.083q.163,1.54.229,3.088c.042.99.013,1.984.086,2.972a4.869,4.869,0,0,0,.849,2.572,9.612,9.612,0,0,0,1.9,1.8,81.253,81.253,0,0,0,9.7,6.853,33.317,33.317,0,0,1,4.536,2.9,13.665,13.665,0,0,1,1.886,1.892c.577.7,1.12,1.422,1.745,2.077a7.046,7.046,0,0,0,8.817,1.226c.205-.128.393.2.189.324a6.964,6.964,0,0,1-1.044.541c-.084.035-.17.067-.256.1.092.209.158.431.233.646q.146.424.287.849a1.948,1.948,0,0,0,.318.705,1.515,1.515,0,0,0,.6.358,8.489,8.489,0,0,0,2.9.462,19.708,19.708,0,0,0,2.944-.12,10.828,10.828,0,0,0,1.43-.28,5.581,5.581,0,0,0,1.276-.466.947.947,0,0,0,.383-.344A.556.556,0,0,0,752.458,350.231Z" transform="translate(0 -113.945)" fill="#fff"/><path d="M805.8,183.549a1.723,1.723,0,0,1-1.568,1.394.191.191,0,0,1-.073-.012,1.14,1.14,0,0,1-.241.269,3.742,3.742,0,0,1-1.851.491c-.768.1-1.534.218-2.3.351a28.591,28.591,0,0,0-4.514,1.118c-1.5.522-2.9,1.284-4.342,1.943q-2.211,1.01-4.5,1.839a5.484,5.484,0,0,1-.762.244,1.224,1.224,0,0,0-.066.432,2.893,2.893,0,0,0,.345,1.126,12.234,12.234,0,0,1,.52,1.149,17.669,17.669,0,0,1,.438,2.255,3.333,3.333,0,0,0,.378,1.042,2.37,2.37,0,0,0,.791.774c.671.42,1.443.655,2.14,1.027a17.7,17.7,0,0,1,3.791,2.875c1.169,1.11,2.267,2.292,3.451,3.386a10.083,10.083,0,0,0,.916.8,1.607,1.607,0,0,0,.584.278,3.287,3.287,0,0,0,.671.058l1.458.027c.244,0,.488.016.732.014.051,0,.269-.011.272-.075a.187.187,0,0,1,.373,0,.422.422,0,0,1-.29.4,1.093,1.093,0,0,1-.426.062c.827.568,1.635,1.162,2.462,1.73,1.671,1.147,3.375,2.243,5.121,3.272q.653.384,1.312.757a7.452,7.452,0,0,1,1.042.671,2.327,2.327,0,0,1,.727.949c.082.207.108.437.209.636.072.143.221.3.4.254a.192.192,0,0,1,.1.371.59.59,0,0,1-.145.023c.032.435.064.871.1,1.307.3,3.834.762,7.647,1.353,11.446s1.3,7.572,2.034,11.342q.553,2.834,1.115,5.666l.563,2.856.281,1.428a3.05,3.05,0,0,0,.31,1.006.8.8,0,0,0,1,.293,7.038,7.038,0,0,0,1.12-.434,11.287,11.287,0,0,0,2.059-1.3c.647-.5,1.255-1.059,1.851-1.624a6.956,6.956,0,0,0,1.625-1.82,3.255,3.255,0,0,0-.089-2.487c-.291-.834-.674-1.631-.942-2.474a15.445,15.445,0,0,1-.712-5.084c0-.306-.005-.613-.006-.919q-.009-4.166-.019-8.332c0-2.363.018-4.728-.024-7.091a.192.192,0,0,1,0-.189c0-.211-.005-.421-.011-.632a24.049,24.049,0,0,0-.99-6.948,12.367,12.367,0,0,0-1.548-3.15,24.324,24.324,0,0,0-2.46-2.888q-1.416-1.492-2.827-2.987a11.974,11.974,0,0,1-2.2-2.853c-.134-.2-.263-.4-.4-.6q-.319-.456-.661-.9a21.517,21.517,0,0,0-1.493-1.713c-1.805-1.865-3.936-3.5-5.184-5.824a7.118,7.118,0,0,1-.917-3.586C805.917,185.856,806.485,184.564,805.8,183.549Z" transform="translate(-76.15 -69.157)" fill="#fff"/><path d="M880.952,334.168a2.912,2.912,0,0,1-1.156.254,2.372,2.372,0,0,1-1.094-.459l-1.1-.7c-.344-.219-.7-.429-1.026-.681a3.674,3.674,0,0,1-.827,1.227c-.585.6-1.2,1.175-1.83,1.731a16.678,16.678,0,0,1-1.973,1.532,9.9,9.9,0,0,1-1.4.762l0,0,.007.014.079-.035c.225-.108.422.228.2.336-.031.015-.062.027-.094.042.043.081.087.162.13.243.425.819.825,1.652,1.234,2.479a3.384,3.384,0,0,0,.6.971,1.164,1.164,0,0,0,.885.308,2.719,2.719,0,0,0,1.806-1.075c.262-.29.508-.594.781-.872a6.639,6.639,0,0,1,.923-.762c.335-.236.681-.456,1.01-.7a10.722,10.722,0,0,0,.908-.766c.586-.545,1.128-1.133,1.692-1.7a14.9,14.9,0,0,1,1.811-1.568c.661-.478,1.356-.91,1.987-1.427.5-.413.928-.913,1.411-1.346-.274.095-.546.2-.812.308C883.7,332.878,882.385,333.65,880.952,334.168Z" transform="translate(-125.952 -156.151)" fill="#fff"/><path d="M889.994,332.8c-.311.267-.641.513-.975.75-.67.475-1.366.916-1.992,1.449s-1.171,1.108-1.733,1.686a17.334,17.334,0,0,1-1.752,1.628,21.2,21.2,0,0,0-1.971,1.474,14.14,14.14,0,0,1-1.646,1.675,2.611,2.611,0,0,1-.754.365,7.582,7.582,0,0,0,2.872-.356,7.2,7.2,0,0,0,1.7-.82,8.332,8.332,0,0,0,1.519-1.337,20.726,20.726,0,0,1,1.481-1.54,13.654,13.654,0,0,1,1.705-1.244,18.6,18.6,0,0,0,3.334-2.361,4.7,4.7,0,0,0,1.534-3.216,1.341,1.341,0,0,0-.476-.1,1.67,1.67,0,0,0-.21.012.167.167,0,0,1-.055.028c-.14.04-.283.067-.426.1a4,4,0,0,0-1.267.947C890.59,332.233,890.307,332.532,889.994,332.8Z" transform="translate(-131.002 -155.493)" fill="#fff"/><path d="M912.62,160.9a3.787,3.787,0,0,0-.356-.911c-.142-.281-.294-.558-.454-.829a12.887,12.887,0,0,0-1.044-1.518c-.193-.24-.391-.476-.6-.7l-.067-.072a.189.189,0,0,1-.27-.034q-.235-.32-.456-.651a34.557,34.557,0,0,1-2.887-5.707c-.421-.987-.839-1.976-1.292-2.949s-.957-1.92-1.5-2.85a14.223,14.223,0,0,1-1.4-2.9,6.593,6.593,0,0,1-.275-1.659,13.658,13.658,0,0,0-.108-1.676,14.783,14.783,0,0,0-2.2-4.856,12.613,12.613,0,0,1-1.717-3.975,3.868,3.868,0,0,1-.23.6,14.6,14.6,0,0,1-1.019,1.626,6.294,6.294,0,0,0-.463.818,3.6,3.6,0,0,0-.257.868c-.036.2-.371.154-.358-.048a4.2,4.2,0,0,1,.841-1.977,10.052,10.052,0,0,0,.99-1.627,2.817,2.817,0,0,0,.224-.969c.019-.426-.029-.851-.03-1.277a10.1,10.1,0,0,1,1.011-4.4,3.643,3.643,0,0,0-1.24.379,10.327,10.327,0,0,0-2.442,1.888c-.387.375-.753.769-1.12,1.163a5.085,5.085,0,0,1-.87.782,7.126,7.126,0,0,1,.694.548c.12.108-.039.313-.172.223-.287-.2-.567-.4-.858-.59a.138.138,0,0,1-.154-.1c-.042-.026-.084-.054-.126-.079a7.957,7.957,0,0,0-1.207-.594,5.127,5.127,0,0,0-2.32-.356,12.624,12.624,0,0,0-2.654.716c-.894.291-1.788.585-2.684.87-.69.22-1.383.466-2.087.649a5.5,5.5,0,0,1,.9.2.114.114,0,0,1-.06.22,6.15,6.15,0,0,0-3.106.156,19.451,19.451,0,0,0-2.443,1.248q-1.254.669-2.537,1.283t-2.6,1.166c-.44.185-.882.368-1.327.541l-.021.008a2.345,2.345,0,0,1,.67.2c.148.072.042.315-.111.263a2.947,2.947,0,0,0-1.854,0,5.43,5.43,0,0,0-1.661.935c-.443.344-.873.707-1.286,1.087a7.5,7.5,0,0,0-1.122,1.245c-.334.485-.575,1.026-.906,1.513a15.442,15.442,0,0,1-1.076,1.356,29.147,29.147,0,0,0-2.111,2.76c-.644.965-1.208,1.978-1.772,2.992-.1.185-.36.022-.278-.163a20.666,20.666,0,0,1,1.883-3.268c-.551.517-1.1,1.034-1.644,1.56-.74.72-1.491,1.44-2.167,2.221a8.446,8.446,0,0,0-.88,1.205c-.266.445-.5.91-.76,1.357a9.985,9.985,0,0,1-3.841,3.693.2.2,0,0,1-.077.024c-.053.07-.107.14-.159.211a2.635,2.635,0,0,0-.178.25.513.513,0,0,0-.049.308c.021.3.051.595.079.892q-1.743-.346-3.448-.857a37.314,37.314,0,0,1-8.744-3.91,36.173,36.173,0,0,1-3.946-2.791,27.032,27.032,0,0,1-3.5-3.325,11.518,11.518,0,0,1-1.6-2.394c.149-.093.3-.188.441-.287a4.9,4.9,0,0,0,1.238-1.137,3.267,3.267,0,0,0,.219-.351.72.72,0,0,0,.139-.4c-.019-.118-.144-.195-.218-.276a1.351,1.351,0,0,1-.123-.154,14.734,14.734,0,0,0-1.505-1.34,7.356,7.356,0,0,0-1.506-.968c-.018-.008-.036-.013-.054-.021a10.065,10.065,0,0,0-.5-1.522,5.781,5.781,0,0,0-3.155-3.1c-1.334-.536-3.341-.671-4.135.806a1.662,1.662,0,0,0-.088.2l-.014-.012a.157.157,0,0,1-.079-.046,6.52,6.52,0,0,0-1.088-.2c.005.153.006.307,0,.459s-.015.286-.03.428a1.578,1.578,0,0,1-.062.377.171.171,0,0,1-.334-.045,3.235,3.235,0,0,1,.04-.426q.017-.191.024-.382a4.567,4.567,0,0,0-.02-.763c-.01-.067-.02-.165-.094-.19a.2.2,0,0,0-.176.047.863.863,0,0,0-.208.489,9.821,9.821,0,0,1-.275,1.27,4.934,4.934,0,0,1-1.172,1.82,5.064,5.064,0,0,1,.482.41,5.456,5.456,0,0,1,1.217,1.821,4.969,4.969,0,0,1,.19.551c.579-.537,1.21-1.023,1.817-1.527a4.173,4.173,0,0,0,.653-.626,2.3,2.3,0,0,0,.383-.838c.041-.155.072-.312.1-.47.024-.128.088-.3-.007-.408a1.241,1.241,0,0,1-.253-.329,1.2,1.2,0,0,1-.073-.409,1.366,1.366,0,0,0-.037-.376c-.024-.074-.078-.191-.164-.21-.055-.012-.112.025-.164.039a.392.392,0,0,1-.231,0,.358.358,0,0,1-.168-.131,1.854,1.854,0,0,1,1.225-1.2,3.83,3.83,0,0,1,2.372.14,5.389,5.389,0,0,1,3.164,2.976,9,9,0,0,1,.431,1.248,5.068,5.068,0,0,0-1.327-.079,15.645,15.645,0,0,0-1.92.205c-.507.086-1.008.2-1.509.314a2.546,2.546,0,0,0-.473,1.068,3.382,3.382,0,0,0,1.3,3.18,2.715,2.715,0,0,0,1.152-.2,3.253,3.253,0,0,1,1.16-.161c.974,1.176,1.875,2.411,2.768,3.653a44.4,44.4,0,0,0,4.542,5.66,17.632,17.632,0,0,0,2.857,2.325,19.213,19.213,0,0,0,3.5,1.764,32.648,32.648,0,0,0,7.9,1.819c.97.118,1.943.212,2.916.3a3.216,3.216,0,0,1-1.263,1.026,28.546,28.546,0,0,1,1.747,2.758l1.912,3.208,3.841,6.444,1.928,3.236a2.279,2.279,0,0,1,.481,1.541,2.912,2.912,0,0,1-.827,1.248,27.424,27.424,0,0,1-4.454,4.05,27.792,27.792,0,0,1-5.227,3,27.463,27.463,0,0,1-5.568,1.758c.036,2.667.018,5.336.024,8,.006,2.64.021,5.28.014,7.92a.184.184,0,0,1,.016.086c-.02.461-.022.923,0,1.384a15.865,15.865,0,0,0,1.25,5.355,7.02,7.02,0,0,1,.7,2.539,2.59,2.59,0,0,1-.086.693.13.13,0,0,1,.022.006,12.352,12.352,0,0,1,1.255.757c.4.251.793.512,1.2.751a1.8,1.8,0,0,0,.5.219,1.27,1.27,0,0,0,.581-.021,7.639,7.639,0,0,0,1.066-.369c.688-.277,1.354-.607,2.02-.932s1.339-.649,2.032-.92c.338-.132.682-.252,1.031-.35.2-.058.414-.115.627-.157a1.887,1.887,0,0,1,1.392-.026.223.223,0,0,1,.129.13.18.18,0,0,1,.116.166,3.237,3.237,0,0,1-.015.486,5.435,5.435,0,0,1-1.879,3.307,26.478,26.478,0,0,1-3.5,2.4,10.742,10.742,0,0,0-1.7,1.349c-.527.526-1,1.106-1.529,1.628a7.572,7.572,0,0,1-3.424,1.926q-.239.061-.482.107-.343,1.486-.544,3a49.313,49.313,0,0,0-.394,5.541c-.019.925-.019,1.851-.011,2.777q.006.694.019,1.388c0,.231,0,.462,0,.692a.133.133,0,0,1,.036.121c-.011.062-.026.122-.043.183,0,.13-.005.26-.006.389a.09.09,0,0,1-.14.076c-.031.091-.061.183-.086.274a8.53,8.53,0,0,0-.2.9,8.3,8.3,0,0,0-.1.933c0,.085,0,.171-.006.257a.121.121,0,0,1,.03.158l-.035.055v0a1.817,1.817,0,0,1-.01.472.169.169,0,0,1-.314.027c-.259.388-.526.772-.773,1.167q-.536.857-1,1.753a28.438,28.438,0,0,0-1.453,3.309,27.926,27.926,0,0,1-1.421,3.415c-.276.518-.61,1-.893,1.515a3.654,3.654,0,0,0-.5,1.676,9.5,9.5,0,0,0,.225,1.922q.138.777.278,1.554a3.8,3.8,0,0,1,.081,1.717,11.124,11.124,0,0,1-.692,2.272c-.13.344-.258.69-.363,1.042a2.16,2.16,0,0,0-.151,1.082c.146.6.8.994,1.327,1.231a8.013,8.013,0,0,0,2.052.548,11.417,11.417,0,0,0,2.229.137.418.418,0,0,0,.382-.171,1.231,1.231,0,0,0,.132-.384,6.312,6.312,0,0,0,.143-1.038,6.582,6.582,0,0,0-.22-2.087c-.1-.357-.242-.694-.363-1.042a2.306,2.306,0,0,1-.111-1.062c.095-.782.217-1.561.326-2.341a.194.194,0,0,1,.238-.135h0c.094-.323.192-.646.3-.964.188-.545.392-1.084.606-1.618.765-1.906,1.663-3.754,2.534-5.613.432-.924.89-1.848,1.239-2.808a5.126,5.126,0,0,0,.327-2.929.2.2,0,0,1,.291-.217,3.871,3.871,0,0,0,1.039-1.516,3.69,3.69,0,0,0,.212-.931,3.914,3.914,0,0,1,.177-1.1,5.389,5.389,0,0,1,.549-.924c.2-.305.378-.62.549-.941a27.082,27.082,0,0,0,1.62-4.052.182.182,0,0,1,.121-.12c.539-1.453,1.107-2.894,1.66-4.342q1.645-4.309,3.114-8.682a41.123,41.123,0,0,0,1.265-4.387q.238-1.1.395-2.224c.106-.761.149-1.527.241-2.29a.208.208,0,0,1,.022-.069c-.229-.3-.45-.613-.657-.931s-.417-.656-.606-1-.334-.687-.5-1.034c-.042-.088.085-.165.132-.077.09.17.194.327.3.49.4.652.8,1.3,1.259,1.916a18.313,18.313,0,0,0,1.485,1.77,18.509,18.509,0,0,0,1.679,1.559c.632.519,1.31.978,1.946,1.49a10.316,10.316,0,0,1,1.725,1.786c.53.691,1.026,1.409,1.525,2.123,1,1.424,1.945,2.879,2.911,4.322a31.267,31.267,0,0,0,3.017,3.947.169.169,0,0,1,.028.2c.122.106.24.216.353.327a10.316,10.316,0,0,1,.79.868,11.131,11.131,0,0,1,1.179,1.774c.339.641.584,1.318.866,1.984a4.214,4.214,0,0,0,1.151,1.717,2.291,2.291,0,0,0,.839.432,1.643,1.643,0,0,0,.442.056,3.237,3.237,0,0,0,.446-.06.18.18,0,0,1,.209.1.177.177,0,0,1-.072.221,1.143,1.143,0,0,1-.351.109,13.043,13.043,0,0,1,1.146,1.808c.384.69.734,1.4,1.07,2.112.6,1.284,1.182,2.583,1.743,3.887.574,1.332,1.116,2.679,1.558,4.061.218.681.411,1.37.571,2.068s.261,1.411.469,2.1a4.049,4.049,0,0,0,2.327,2.647.162.162,0,0,1,.085.2c.062.056.123.114.181.174a3.6,3.6,0,0,1,.516.689,3.835,3.835,0,0,1,.349.811c.075.25.2.613.023.839a.1.1,0,0,1-.1.026c-.026.1-.053.2-.077.3-.061.256-.118.512-.168.77a15.222,15.222,0,0,0-.218,1.579,4.875,4.875,0,0,0-.012,1.388,1.68,1.68,0,0,0,.607.928,6.4,6.4,0,0,0,1,.644c.391.221.788.431,1.194.624a10.682,10.682,0,0,0,2.54.867,6.949,6.949,0,0,0,1.322.129,5.018,5.018,0,0,0,.6-.029.165.165,0,0,1,.1-.065,1.189,1.189,0,0,0,.249-.079.127.127,0,0,0,.011-.028.175.175,0,0,1,.234-.116A1.91,1.91,0,0,0,896.7,259a6.094,6.094,0,0,0-.108-1.213q-.1-.622-.2-1.244c-.068-.414-.127-.831-.21-1.242a2.787,2.787,0,0,0-.4-1.024c-.4-.59-.967-1.042-1.387-1.617a5.289,5.289,0,0,1-.555-.954,4.4,4.4,0,0,1-.3-.873.175.175,0,0,1-.043-.014.2.2,0,0,1-.069-.264,5.026,5.026,0,0,0,.2-.529c.455-1.526-1.077-2.659-1.884-3.723a16.675,16.675,0,0,1-1.988-4.028q-.9-2.262-1.742-4.543t-1.637-4.608q-.393-1.152-.769-2.308c-.123-.381-.254-.761-.354-1.148-.03-.116-.053-.231-.071-.346a.188.188,0,0,1-.158-.232,3.809,3.809,0,0,0-.09-2.11,4.534,4.534,0,0,0-.715-1.284c-.3-.4-.622-.776-.908-1.183s-.561-.857-.813-1.3a58.178,58.178,0,0,1-2.746-5.683c-.835-1.944-1.6-3.918-2.32-5.906s-1.384-3.993-2.074-5.991a15.287,15.287,0,0,0-.562-1.444,10.9,10.9,0,0,0-.719-1.284c-.041-.065-.084-.129-.125-.193a.183.183,0,0,1-.05-.077c-.209-.322-.421-.643-.618-.972-.123-.206-.247-.414-.353-.63s-.18-.433-.264-.649c-.038-.1.127-.166.17-.072.1.221.232.417.353.627.26.455.559.887.855,1.32.064-.116.127-.233.192-.349l2.607-4.62a32.518,32.518,0,0,0,2.136-4.255,12.785,12.785,0,0,0,.652-2.255,10.075,10.075,0,0,0,.134-2.477,42.742,42.742,0,0,0-.868-5.113c-.272-1.449-.5-2.9-.676-4.368l-.072.161c-.057.128-.271.035-.224-.094.082-.225.154-.453.226-.681-.008-.069-.017-.138-.024-.207a.121.121,0,0,1,.129-.127c.015-.049.03-.1.046-.147q.189-.582.349-1.173c.211-.775.4-1.556.572-2.339.517-2.313,1.008-4.632,1.5-6.951a23.856,23.856,0,0,0,4.367.4,19.916,19.916,0,0,0,6.515-1.089,18.51,18.51,0,0,0,5.448-3,16.158,16.158,0,0,0,1.452-1.316c.591.2,1.188.387,1.762.631a7.327,7.327,0,0,1,1.953,1.232,8.212,8.212,0,0,1,.785.8,2.779,2.779,0,0,0,.418.418.177.177,0,0,1,.234.02c.063.063.13.121.195.181a.158.158,0,0,1,.081.075,7.4,7.4,0,0,0,3.135,1.659,7.012,7.012,0,0,0,.848.159,3.2,3.2,0,0,0,.91.036,1.063,1.063,0,0,0,.632-.528q.29-.4.577-.811a26.628,26.628,0,0,0,2.117-3.416A2.89,2.89,0,0,0,912.62,160.9Zm-82.767-22.186c.082-.165.345-.048.293.123a2.263,2.263,0,0,1-.846,1.038q-.068-.191-.128-.385A2.453,2.453,0,0,0,829.854,138.714Zm-.764-.254a.555.555,0,0,1,0,.253c-.01.069-.021.137-.036.2-.006.029-.014.057-.022.086-.054-.212-.1-.426-.15-.64A.159.159,0,0,1,829.09,138.46Zm11.972,15.095a18.337,18.337,0,0,1-6.611-3.816,35.94,35.94,0,0,1-4.609-5.495c-.978-1.35-1.95-2.714-3.012-4l.018,0a5.931,5.931,0,0,0,.851.175c.22.015.523.011.634-.219a.543.543,0,0,0,.046-.144.11.11,0,0,1-.056-.1.513.513,0,0,1,.04-.163,1.347,1.347,0,0,0-.667-.7,6.086,6.086,0,0,0-.785-.305,5.211,5.211,0,0,1-.84-.318c-.184-.1-.048-.347.134-.317a3.506,3.506,0,0,1,.586.183c.174.061.349.12.523.183a3.133,3.133,0,0,1,.92.465,1.458,1.458,0,0,1,.324.366c.018-.047.041-.093.057-.141s.024-.09.037-.135c.008.031.015.062.023.092.041.158.088.312.136.466-.014.03-.027.062-.042.091l-.033.063c0,.019.009.038.012.057.033-.029.067-.058.1-.086.043.13.09.257.137.384a2.746,2.746,0,0,0-.266.272c-.088.1-.161.222-.254.323-.02.022-.068.054-.093.084.013,0,.022.042.035.063.031.05.064.1.1.145a.968.968,0,0,0,.248.252c.231.147.458-.033.658-.157a11.749,11.749,0,0,0,1.436,2.207,25.141,25.141,0,0,0,3.418,3.333,36.87,36.87,0,0,0,3.815,2.782,37.688,37.688,0,0,0,8.543,4.016,37.3,37.3,0,0,0,4.394,1.135,2.126,2.126,0,0,1-.049.726c-.627-.055-1.253-.113-1.879-.178A36.965,36.965,0,0,1,841.061,153.555ZM882.6,158c.014-.036.027-.073.042-.109a7.171,7.171,0,0,1,1.406-2.143,7.469,7.469,0,0,1,.966-.851,4.941,4.941,0,0,1,1.108-.646l.013,0c-.015-.018-.031-.035-.046-.053a4.7,4.7,0,0,1-1.126-2.063c-.029-.15.195-.215.231-.064a2.417,2.417,0,0,0,.2.546,8.786,8.786,0,0,0,1.4,1.838c.511.558,1.036,1.1,1.584,1.622a28.1,28.1,0,0,0,3.516,2.842,28.483,28.483,0,0,0,3.933,2.25c.505.238,1.02.454,1.539.661-.388.215-.784.418-1.187.6a22.265,22.265,0,0,1-6.114,1.721,30.639,30.639,0,0,1-6.435.224q-1.12-.078-2.234-.248c.224-1.012.436-2.028.562-3.056A9.743,9.743,0,0,1,882.6,158Zm14.738,4.824a17.677,17.677,0,0,1-5.207,3.132,19.255,19.255,0,0,1-6.22,1.291,23.24,23.24,0,0,1-5.111-.376q.153-.716.308-1.432c.07-.321.141-.643.213-.964q.73.115,1.465.192a30.354,30.354,0,0,0,6.54-.034,23.746,23.746,0,0,0,6.328-1.557,17.832,17.832,0,0,0,2.167-1.068l.088.035c.063.024.127.045.19.067Q897.732,162.484,897.34,162.829Z" transform="translate(-94.567 -33.801)" fill="#fff"/></g><rect width="250" height="250" transform="translate(-6376 -13741)" fill="none"/></g></svg>