<svg xmlns="http://www.w3.org/2000/svg" width="350" height="350" viewBox="0 0 350 350"><g transform="translate(4798 13785)"><g transform="translate(-5081.757 -19835)"><path d="M9584.938-1252.617a23.992,23.992,0,0,1-5.47,14.922q-5.87,7.56-13.479,7.56-9.65,0-13.878-10.495a54.2,54.2,0,0,1-4.327-20.194q0-16.961,15.221-34.022l5.869-6.367a47.073,47.073,0,0,0,5.271-6.814,79.256,79.256,0,0,0,5.969-12.335l.5-.349.249.547a35.24,35.24,0,0,1-4.577,12.982,70.812,70.812,0,0,1-8.753,10.694q-11.142,11.739-15.071,22.829a24.547,24.547,0,0,0-1.74,7.66,43.03,43.03,0,0,0,3.184,16.862q4.226,9.848,12.235,9.848,4.575,0,9.7-3.681,5.522-3.979,5.521-8.306,0-2.287-5.67-2.935-6.665-.795-8.8-3.582-.744-.994-1.491-6.367a58.429,58.429,0,0,1-.6-6.913q0-4.576,3.532-11.639,3.979-7.859,7.908-7.859a9.237,9.237,0,0,1,6.715,2.736q.149,1.79.149,1.144a15.384,15.384,0,0,1-.7,3.78q-.848,2.836-1.643,3.084l-1.591-1.99a3.41,3.41,0,0,0-2.337-.746q-4.081,0-7.014,4.924a16.821,16.821,0,0,0-2.587,8.7l.1.348a6.258,6.258,0,0,0,3.978,3.88,26.06,26.06,0,0,0,5.671,1.144q1.093.149,3.282.5Q9584.937-1262.018,9584.938-1252.617Z" transform="translate(-9169.026 7514.248)" fill="#fff"/><path d="M10158.145-1854.106l-1.045.733q-16.315,24.366-36.81,38.69-23.947,16.731-49.983,16.73a28.251,28.251,0,0,1-10.98-2.092q-6.589-2.719-6.587-7.738,5.855-14.743,19.867-30.22,3.346-3.764,25.83-25.723v18.717l.835.837q2.3.313,2.929-9.935.208-6.689.313-13.385l24.259-22.378a48.294,48.294,0,0,0,4.185-15.893l-.523-.837h-.733q-20.181,18.823-26.769,22.482,0-1.042.105-4.234t.1-5.072q0-19.137-10.457-19.136-13.7,0-23.318,11.607a38.219,38.219,0,0,0-8.993,24.887q0,7.948,6.274,10.875,1.463.733,13.279,3.346-15.686,18.091-22.482,29.8-10.456,17.988-10.456,35.24a15.551,15.551,0,0,0,6.065,12.653,20.837,20.837,0,0,0,13.594,4.6q25.617,0,49.252-17.254,20.6-15.161,35.03-39.735,7.736-13.279,7.946-16.94Zm-87.211-28.233-.627-1.045q0-3.661,7.424-7.425,6.8-3.451,11.084-3.451a8.325,8.325,0,0,1,6.693,3.137,11.1,11.1,0,0,1,2.613,7.32v2.09a41.019,41.019,0,0,1-12.13,2.092A47.849,47.849,0,0,1,10070.934-1882.339Z" transform="translate(-9627.804 8070.558)" fill="#fff"/><path d="M9770.838-700.72l-.272-2.943q-.406-1.992-1.538-1.992a12.1,12.1,0,0,0-4.121,1.358,22.639,22.639,0,0,0-7.923,5.976,17.386,17.386,0,0,0-4.256,8.919q-.318.635-.316,4.98,0,2.128.091,6.565a18.254,18.254,0,0,1-6.43,1.494,9.431,9.431,0,0,1-5.252-1.358,43.711,43.711,0,0,1-3.983-3.713l-.318.407a56.754,56.754,0,0,0,.408,8.376q5.613,3.985,5.613,9.643a16.947,16.947,0,0,1-3.666,10.232q-3.986,5.388-9.056,5.388a10.67,10.67,0,0,1-7.743-3.464,10.773,10.773,0,0,1-3.439-7.765,26.028,26.028,0,0,1,2.535-10.662,26.742,26.742,0,0,1,6.294-9.032q5.432-4.526,10.91-9.1,7.607-6.835,7.606-10.277,0-.951-.317-1.177l-.408.272q-1.449,3.531-8.691,9.191-9.1,7.109-10.55,8.738-5.341,5.886-6.972,9.734-1.9,4.346-1.9,12.043a33.822,33.822,0,0,0,2.218,12.45q2.988,7.607,8.647,7.607a13.968,13.968,0,0,0,8.15-2.445,20.04,20.04,0,0,0,8.1-12.043q1.267-4.844,1.268-14.805a21.851,21.851,0,0,0,8.331-1.358q1.04,5.161,1.539,5.433l.407-.543a42.169,42.169,0,0,1-.815-5.478,33.556,33.556,0,0,0,11.272-10.912,26.828,26.828,0,0,0,4.755-14.8Q9771.019-698.456,9770.838-700.72Zm-8.286,14.85a25.615,25.615,0,0,1-8.647,7.335l-.136-1.087a17.184,17.184,0,0,1,3.713-10.957,16.312,16.312,0,0,1,9.824-5.976l.408.588A27.473,27.473,0,0,1,9762.552-685.87Z" transform="translate(-9231.39 6877.654)" fill="#fff"/><path d="M10105.92-818.692a32.439,32.439,0,0,0-5.568-2.943q-2.218,5.8-2.354,6.384l4.663,2.671A20.889,20.889,0,0,0,10105.92-818.692Z" transform="translate(-9578.198 6983.266)" fill="#fff"/></g><rect width="350" height="350" transform="translate(-4798 -13785)" fill="none"/></g></svg>