<svg xmlns="http://www.w3.org/2000/svg" width="350" height="350" viewBox="0 0 350 350"><g transform="translate(3898 13785)"><g transform="matrix(0.695, -0.719, 0.719, 0.695, -3885, -13596.861)"><path d="M1477.582,2072.311c-.422,1.74,1.8,4.513,2.4,6.656,10.094,2.614,15.26-12.047,9.175-18.93-6.174,1.829-14.709,1.876-12.9,9.257-9.416-4.254-17.242-12.583-26.295-17.767A55.441,55.441,0,0,0,1477.582,2072.311Zm8.758-2.3c-.03,2.728-.287,5.367-3.093,7.011-.326-1.795-1.229-3.815-1.406-5.552C1483.353,2070.952,1484.618,2071.071,1486.34,2070.012Zm-5.611-5.763c2.336-.8,4.024.066,5.15,2.368-.634,1.3-2.309,2.2-4.363,2.942C1480.479,2067.486,1480.136,2065.684,1480.729,2064.248Z" transform="translate(-1374.407 -2002.798)" fill="#fff"/><path d="M551.517,7262.231c-1.886,2.734-5.3,5.518-2.182,7.9-5.158,1.343-11,.534-16.311,1.386a28.6,28.6,0,0,0,17.819-.6c.395.835,2.184,1.229,3.122,1.893C558.864,7270.582,556.189,7263.023,551.517,7262.231Zm.015,6.3a3.364,3.364,0,0,1-2.036-1.877,1.984,1.984,0,0,1,2.834-.717A3.859,3.859,0,0,1,551.532,7268.53Zm.75.663a8.564,8.564,0,0,0,1.334-2.044c.872,1.105,1.623,2.248,1.029,3.817C553.932,7270.352,552.916,7269.833,552.282,7269.193Z" transform="translate(-480.267 -7083.948)" fill="#fff"/><path d="M1412,6353.412c-.39,3.438-2.156,7.671,1.875,8.325-4.078,3.767-9.84,5.893-14.3,9.285a29.794,29.794,0,0,0,16.073-9.307c.772.574,2.61.056,3.8.205C1422.85,6357.474,1416.68,6351.845,1412,6353.412Zm3.108,5.779a3.5,3.5,0,0,1-2.792-.724,2.066,2.066,0,0,1,2.252-2.051A4.021,4.021,0,0,1,1415.107,6359.191Zm1.014.241a8.924,8.924,0,0,0,.221-2.532c1.343.586,2.6,1.267,2.82,3C1418.207,6359.686,1417.018,6359.708,1416.121,6359.432Z" transform="translate(-1325.267 -6197.463)" fill="#fff"/><path d="M1643.714,1052.5h-.214c-2.352,1.991-6.738,10.51-3.844,13.784,2.673.423,4.9-.177,5.979-1.59,2.343-3.074-.135-7.311-2.776-8.836C1642.791,1054.653,1645,1052.99,1643.714,1052.5Zm1.708,9.19a5.756,5.756,0,0,1-5.124,1.767c-.741-1.587.356-3.1.854-4.241A9.348,9.348,0,0,1,1645.422,1061.686Z" transform="translate(-1558.452 -1028.607)" fill="#fff"/><path d="M994.481,830.093h-.274c-3.017,2.554-8.643,13.481-4.93,17.681,3.428.543,6.288-.227,7.669-2.04,3.005-3.943-.173-9.377-3.56-11.334C993.3,832.86,996.126,830.727,994.481,830.093Zm2.191,11.788a7.384,7.384,0,0,1-6.573,2.267c-.95-2.035.457-3.975,1.1-5.44A11.994,11.994,0,0,1,996.672,841.881Z" transform="translate(-923.98 -811.734)" fill="#fff"/><path d="M-.084,403.266H-.2c-1.275,1.079-3.653,5.7-2.084,7.473a3.341,3.341,0,0,0,3.241-.862c1.27-1.667-.073-3.963-1.5-4.791C-.584,404.435.612,403.534-.084,403.266Zm.926,4.982a3.12,3.12,0,0,1-2.778.958c-.4-.86.193-1.68.463-2.3A5.068,5.068,0,0,1,.842,408.248Z" transform="translate(42.237 -395.519)" fill="#fff"/><path d="M297.881,419.734h-.116c-1.275,1.079-3.653,5.7-2.083,7.473a3.34,3.34,0,0,0,3.241-.862c1.27-1.667-.073-3.963-1.5-4.791C297.381,420.9,298.577,420,297.881,419.734Zm.926,4.982a3.121,3.121,0,0,1-2.778.958c-.4-.86.193-1.68.463-2.3A5.072,5.072,0,0,1,298.808,424.716Z" transform="translate(-248.32 -411.577)" fill="#fff"/><path d="M742,929.574h-.116c-1.275,1.079-3.653,5.7-2.084,7.473a3.341,3.341,0,0,0,3.242-.863c1.27-1.667-.073-3.963-1.5-4.79C741.495,930.743,742.691,929.842,742,929.574Zm.926,4.982a3.121,3.121,0,0,1-2.778.958c-.4-.86.193-1.68.463-2.3A5.067,5.067,0,0,1,742.922,934.556Z" transform="translate(-681.391 -908.741)" fill="#fff"/><path d="M-97.1,1418.844h-.083c-.912.772-2.612,4.075-1.491,5.344a2.389,2.389,0,0,0,2.318-.617c.908-1.192-.052-2.834-1.076-3.426C-97.463,1419.68-96.608,1419.036-97.1,1418.844Zm.662,3.563a2.233,2.233,0,0,1-1.987.685c-.287-.615.138-1.2.331-1.645A3.625,3.625,0,0,1-96.443,1422.407Z" transform="translate(136.091 -1385.846)" fill="#fff"/><path d="M321.554,2588.268h-.083c-.912.772-2.612,4.075-1.49,5.344A2.389,2.389,0,0,0,322.3,2593c.908-1.192-.052-2.834-1.076-3.426C321.2,2589.1,322.05,2588.46,321.554,2588.268Zm.662,3.563a2.232,2.232,0,0,1-1.987.685c-.287-.615.138-1.2.331-1.644A3.621,3.621,0,0,1,322.216,2591.831Z" transform="translate(-272.158 -2526.195)" fill="#fff"/><path d="M1705.974,3544.784h-.32c-3.525,2.984-10.1,15.753-5.761,20.661,4.006.635,7.348-.265,8.962-2.384,3.511-4.608-.2-10.957-4.161-13.244C1704.59,3548.017,1707.9,3545.525,1705.974,3544.784Zm2.561,13.774a8.63,8.63,0,0,1-7.681,2.649c-1.11-2.378.534-4.645,1.28-6.357A14.014,14.014,0,0,1,1708.535,3558.558Z" transform="translate(-1616.727 -3458.929)" fill="#fff"/><path d="M-372.154,871.935h-.138c-1.518,1.284-4.347,6.78-2.48,8.893,1.724.273,3.162-.114,3.857-1.026,1.511-1.983-.087-4.716-1.791-5.7C-372.75,873.327-371.327,872.254-372.154,871.935Zm1.1,5.928a3.713,3.713,0,0,1-3.306,1.14c-.478-1.024.23-2,.551-2.736A6.032,6.032,0,0,1-371.053,877.863Z" transform="translate(405.56 -852.535)" fill="#fff"/><path d="M1206.687,2795.934h-.179c-1.969,1.667-5.64,8.8-3.218,11.539,2.238.355,4.1-.148,5.005-1.331,1.961-2.573-.113-6.12-2.324-7.4C1205.913,2797.74,1207.76,2796.348,1206.687,2795.934Zm1.43,7.693a4.819,4.819,0,0,1-4.29,1.479c-.62-1.328.3-2.594.715-3.551A7.829,7.829,0,0,1,1208.116,2803.627Z" transform="translate(-1133.087 -2728.697)" fill="#fff"/><path d="M2624.25,4520.08h-.179c-1.969,1.667-5.64,8.8-3.218,11.54,2.238.354,4.1-.148,5.005-1.332,1.961-2.574-.113-6.12-2.323-7.4C2623.477,4521.886,2625.323,4520.494,2624.25,4520.08Zm1.43,7.692a4.818,4.818,0,0,1-4.29,1.48c-.62-1.328.3-2.594.715-3.55A7.823,7.823,0,0,1,2625.679,4527.772Z" transform="translate(-2515.405 -4409.976)" fill="#fff"/><path d="M4538.2,4082.213h-.159c-1.756,1.486-5.031,7.846-2.871,10.291,2,.315,3.66-.133,4.464-1.188,1.749-2.3-.1-5.458-2.072-6.6C4537.509,4083.823,4539.156,4082.581,4538.2,4082.213Zm1.275,6.86a4.3,4.3,0,0,1-3.825,1.32c-.553-1.185.265-2.314.637-3.167A6.98,6.98,0,0,1,4539.474,4089.073Z" transform="translate(-4387.606 -3973.718)" fill="#fff"/><path d="M5533.333,5161.829h-.233c-2.569,2.174-7.358,11.479-4.2,15.054,2.918.463,5.354-.192,6.529-1.737,2.559-3.357-.147-7.984-3.032-9.65C5532.325,5164.185,5534.734,5162.369,5533.333,5161.829Zm1.866,10.037a6.287,6.287,0,0,1-5.6,1.93c-.809-1.733.389-3.384.932-4.632A10.217,10.217,0,0,1,5535.2,5171.866Z" transform="translate(-5350.913 -5035.769)" fill="#fff"/><path d="M1355.554,6610.054c17.9,8.179,43.2.5,49.608-12.059-1.342-2.376-4.716-2.939-7.132-4.357-7.537,7.152-17.6,16.461-31.735,16.489C1362.955,6610.132,1358.438,6607.822,1355.554,6610.054Z" transform="translate(-1282.345 -6431.978)" fill="#fff"/><path d="M2204.871,6266.931c5.327,2.433,12.853.149,14.761-3.589-.4-.707-1.4-.875-2.122-1.3-2.243,2.128-5.237,4.9-9.444,4.907C2207.073,6266.954,2205.729,6266.267,2204.871,6266.931Z" transform="translate(-2110.545 -6108.629)" fill="#fff"/><path d="M-382.616,94.258c.171,2.021-1.573,3.609-2.412,5.4-7.28-1.892-16.9-4.262-25.171.845-1.953,1.206-3.662,4.337-6.245,3.939C-409.277,92.668-391.417,88.461-382.616,94.258Z" transform="translate(445.596 -91.676)" fill="#fff"/><path d="M1621.129,7443.17c-.458-1.328-4.18-3.042-5.393-1.562-.671.819-.367,2.017-.257,3.781.635-.632,1.379-2.523,2.453-1.107-2.4.935-2.885,2.852-1.9,5.911,1.152,3.58,3.756,8.068,4.5,12.33.281-4.973-2.263-10.4-4.288-14.164C1617.36,7446.364,1622.2,7446.287,1621.129,7443.17Z" transform="translate(-1535.646 -7258.308)" fill="#fff"/><g transform="translate(78.829 38.224)"><path d="M1920.644,1647.9c1.777-.028,3.355.421,5.4-.239-5.771-7.055-12.188-12.57-18.487-18.37-1.789.042-4.665-.827-6.072.514A188.753,188.753,0,0,1,1920.644,1647.9Z" transform="translate(-1893.53 -1629.052)" fill="#fff"/><path d="M1581.565,1695.357c6.655,5.395,12.854,11.872,19.16,18.095a20.667,20.667,0,0,0,5.062-.1c-5.578-7.734-12.193-13-18.624-18.707C1585.482,1694.866,1582.81,1693.963,1581.565,1695.357Z" transform="translate(-1581.565 -1692.93)" fill="#fff"/></g><g transform="translate(79.389 127.062)"><path d="M1848.028,5213.538c1.322-.358,2.586-.322,3.987-1.2-5.646-4.176-11.485-7.079-17.288-10.217-1.328.37-3.641.267-4.438,1.535A145.319,145.319,0,0,1,1848.028,5213.538Z" transform="translate(-1824.666 -5202.118)" fill="#fff"/><path d="M1604.116,5312.253c5.992,2.768,11.85,6.432,17.739,9.884a15.945,15.945,0,0,0,3.762-1.036c-5.632-4.719-11.571-7.4-17.455-10.442C1606.949,5311.145,1604.782,5310.976,1604.116,5312.253Z" transform="translate(-1604.116 -5307.961)" fill="#fff"/></g><g transform="translate(153.805 154.415)"><path d="M4816.939,6312.523a11,11,0,0,0,3.593-1.083c-5.09-3.763-10.352-6.38-15.583-9.209-1.2.333-3.282.24-4,1.383A130.989,130.989,0,0,1,4816.939,6312.523Z" transform="translate(-4795.882 -6302.231)" fill="#fff"/><path d="M4597.1,6401.5c5.4,2.5,10.681,5.8,15.988,8.909a14.371,14.371,0,0,0,3.391-.933c-5.077-4.254-10.429-6.672-15.732-9.412C4599.657,6400.5,4597.7,6400.347,4597.1,6401.5Z" transform="translate(-4597.103 -6397.629)" fill="#fff"/></g><path d="M-1588.917,628.777c8.815.14,23.961-2.718,35.628.162,7.723,1.907,15.079,6.318,12.99,12.547-2.567,7.651-14.214,4.54-22.031,4.352,3.316-3.546,9.568-.6,10.907-5.986C-1548.046,626.268-1586.591,633.44-1588.917,628.777Z" transform="translate(1588.917 -614.322)" fill="#fff"/><path d="M3635.176,4776.012c4.11.065,11.172-1.267,16.612.076,3.6.889,7.031,2.946,6.057,5.85-1.2,3.568-6.628,2.117-10.272,2.029,1.546-1.653,4.461-.278,5.086-2.791C3654.233,4774.842,3636.261,4778.186,3635.176,4776.012Z" transform="translate(-3505.288 -4659.031)" fill="#fff"/><path d="M5601.6,5982.868c17.133-15.236,40.9,50.062,49.894,50.26-8.076-13.626-17.358-39.313-32.043-55.368-9.722-10.626-22.831-18.844-30.2-11.015-9.057,9.615,5.954,25.471,13.209,37.506C5604.751,5996.481,5594.8,5988.911,5601.6,5982.868Z" transform="translate(-5408.018 -5817.646)" fill="#fff"/><path d="M-144.173,1620.408a30.972,30.972,0,0,1,3.9,11.821c4.543-2.86,2.513-12.982,7.377-15.488,1.095.6,1.24,2.066,2.795,2.253,2.279-2.015.4-6.336-1.518-6.682-4.987-.9-5.872,10.506-7.562,13.893.692-6.577-7.185-18.427-10.15-8.433C-148.557,1619.583-146.628,1621.625-144.173,1620.408Z" transform="translate(185.12 -1574.455)" fill="#fff"/><path d="M681.374,2979.346a47.956,47.956,0,0,1,6.044,18.3c7.034-4.427,3.891-20.1,11.42-23.977,1.7.934,1.919,3.2,4.327,3.489,3.527-3.119.619-9.81-2.349-10.344-7.719-1.391-9.089,16.263-11.706,21.508,1.071-10.182-11.124-28.526-15.713-13.055C674.589,2978.069,677.575,2981.229,681.374,2979.346Z" transform="translate(-617.148 -2895.252)" fill="#fff"/><path d="M3048.094,5426.49a34.243,34.243,0,0,1,4.317,13.07c5.024-3.162,2.779-14.353,8.156-17.124,1.211.667,1.371,2.284,3.09,2.492,2.52-2.228.442-7.007-1.677-7.388-5.513-.993-6.492,11.615-8.361,15.361.765-7.272-7.944-20.374-11.222-9.324C3043.248,5425.578,3045.381,5427.835,3048.094,5426.49Z" transform="translate(-2927.246 -5285.066)" fill="#fff"/><path d="M3431.341,3610.816q2.153-2.736.649-6.874a12.933,12.933,0,0,0-4.218-5.9q-2.078-1.635-3.659-1.033a15.177,15.177,0,0,0-3.077,2.5,7.729,7.729,0,0,0,2.333,3.189l.659.519q1.633.218,3.348-1.961,1.583,2.681-.052,4.759a4.685,4.685,0,0,1-2.48,1.536,2.851,2.851,0,0,1-2.682-.346q-2.28-1.794-3.227-6.067-.988-4.429.747-6.633,3.749-4.764,9.957.12a27.589,27.589,0,0,1,7.48,8.8,55.973,55.973,0,0,1,3.942,10.9,37.609,37.609,0,0,0,2.35,6.608,11.246,11.246,0,0,0,2.37,3.506q.633.5,1.085.238a18.424,18.424,0,0,1-2.763-4.676q-.278-.794-1.448-5.2a54.282,54.282,0,0,0-4.578-12.381,33,33,0,0,0-8.628-9.947q-9.224-7.257-13.571-1.732-3.27,4.157-.524,10.419a22.6,22.6,0,0,0,6.86,8.8,10.827,10.827,0,0,0,4.581,2.208A4.215,4.215,0,0,0,3431.341,3610.816Z" transform="translate(-3289.71 -3501.407)" fill="#fff"/><path d="M4239.883,4311.521a29.208,29.208,0,0,0,9.207-10.553,28,28,0,0,0,3.732-13.423q0-.5-.146-3.1-.467-.761-.936-.791-7.758,4.508-11.183,10.071.409-4.041.41-6.763a40.905,40.905,0,0,0-4.889-19.76,3.442,3.442,0,0,0-1.025-1.376q-1,.322-1.757,7.933-.556,5.826-.556,8.841a50.485,50.485,0,0,0,.264,5.3c.019.215.117.322.292.322s.264-.117.264-.352q0-1.258.513-6.162a45.5,45.5,0,0,1,1.127-7.04q2.81,3.248,3.747,10.538a99.111,99.111,0,0,1,.5,11.534,5.5,5.5,0,0,1-.264,1.435c-.2.7-.312,1.17-.352,1.405a51.827,51.827,0,0,0-.526,7.611q-5.856,4.6-19.351,8.548l-.088.293a.5.5,0,0,0,.469.2q12.442,0,19.233-3.776a49.838,49.838,0,0,1,.527,5.034l.41.322.5-.117q-.147-2.722-.146-4.566Q4239.854,4312.225,4239.883,4311.521Zm2.987-14.579a62.926,62.926,0,0,1,6.82-6.47q.409-.175.41.556l-.029.234q-.7,3.133-4.128,7.787a43.349,43.349,0,0,1-5.943,6.674A14.193,14.193,0,0,1,4242.871,4296.943Z" transform="translate(-4074.463 -4162.041)" fill="#fff"/><path d="M1603.084,2829.485l1-.288,1.523,1.847a1,1,0,0,0,1.042-.918,12.82,12.82,0,0,0-.319-5.139q-.892-3.366-3-3.687l-.6.006q-2.819,1.381-6.921,13.823-4.568,13.84-10.482,19.741-9.553,9.361-27,6.7l-.443.275q.359,1.279,12.755,3.169,11.762,1.794,17.966-3.379,4.6-3.85,7.755-13.7,5.442-16.938,5.669-17.442Z" transform="translate(-1479.642 -2753.432)" fill="#fff"/><path d="M-41.9,384.255q0-6.467-.253-8.59a14.465,14.465,0,0,0-2.981-7.832q-3.386-3.991-6.72-3.992-3.992,0-10.408,3.537-6.62,3.589-8.337,6.973-1.113,2.224-1.111,9.145,0,4.195,6.467,10.383t6.467,8.665l.253,1.667.556.4a.817.817,0,0,0,.909-.707,6.638,6.638,0,0,0,.3-2.627,24.213,24.213,0,0,0-.758-4.952,19.1,19.1,0,0,0-3.688-7.983q-.354-.4-6.366-5.962a1.751,1.751,0,0,1-.454-1.364l.2-1.011q1.768-1.868,7-4.5t7.553-2.628q2.678,0,5.735,2.7t3.056,5.33q0,4.4-3.183,11.267a45.343,45.343,0,0,1-14.5,17.684q-10.205,7.479-21.372,7.478l-.4.3.253.354a11.737,11.737,0,0,0,3.184.253A128.613,128.613,0,0,0-66.254,417.1q7.528-.91,11.672-3.638,4.445-2.879,7.781-9.4A43.263,43.263,0,0,0-41.9,384.255Z" transform="translate(121.358 -357.075)" fill="#fff"/><path d="M453.441,1884.262a6,6,0,0,0-2.361-2.024,20.981,20.981,0,0,0-2.939-1.2,30.316,30.316,0,0,0-2.554,6.794l5.06,2.939A18.509,18.509,0,0,0,453.441,1884.262Z" transform="translate(-395.004 -1836.545)" fill="#fff"/><path d="M90.863,1393.965a6,6,0,0,0-2.361-2.024,20.965,20.965,0,0,0-2.939-1.2,30.31,30.31,0,0,0-2.553,6.794l5.059,2.939A18.515,18.515,0,0,0,90.863,1393.965Z" transform="translate(-41.439 -1358.438)" fill="#fff"/><path d="M-163.314,2054.754a6,6,0,0,0-2.361-2.024,21,21,0,0,0-2.939-1.2,30.312,30.312,0,0,0-2.553,6.794l5.059,2.939A18.506,18.506,0,0,0-163.314,2054.754Z" transform="translate(206.417 -2002.798)" fill="#fff"/><path d="M-76.085,2612.785a6,6,0,0,0-2.361-2.024,20.97,20.97,0,0,0-2.939-1.2,30.325,30.325,0,0,0-2.554,6.794l5.06,2.939A18.509,18.509,0,0,0-76.085,2612.785Z" transform="translate(121.358 -2546.954)" fill="#fff"/><path d="M-58.486,3012.8a6,6,0,0,0-2.361-2.023,20.968,20.968,0,0,0-2.939-1.2,30.315,30.315,0,0,0-2.553,6.794l5.059,2.939A18.509,18.509,0,0,0-58.486,3012.8Z" transform="translate(104.195 -2937.021)" fill="#fff"/><path d="M894.48,2682.9a6.011,6.011,0,0,0-2.361-2.023,20.977,20.977,0,0,0-2.939-1.2,30.3,30.3,0,0,0-2.553,6.793l5.059,2.939A18.508,18.508,0,0,0,894.48,2682.9Z" transform="translate(-825.076 -2615.322)" fill="#fff"/><path d="M1285.9,2132.922a5.5,5.5,0,0,0-2.166-1.857,19.245,19.245,0,0,0-2.7-1.105,27.832,27.832,0,0,0-2.343,6.235l4.643,2.7A16.988,16.988,0,0,0,1285.9,2132.922Z" transform="translate(-1207.398 -2079.281)" fill="#fff"/><path d="M1971.136,3127.673a5.514,5.514,0,0,0-2.167-1.857,19.275,19.275,0,0,0-2.7-1.105,27.773,27.773,0,0,0-2.343,6.235l4.643,2.7A17,17,0,0,0,1971.136,3127.673Z" transform="translate(-1875.594 -3049.3)" fill="#fff"/><path d="M2261,3281.46a5.509,5.509,0,0,0-2.167-1.857,19.224,19.224,0,0,0-2.7-1.1,27.809,27.809,0,0,0-2.343,6.234l4.643,2.7A17,17,0,0,0,2261,3281.46Z" transform="translate(-2158.249 -3199.263)" fill="#fff"/><path d="M2560.194,3398.5a5.5,5.5,0,0,0-2.166-1.857,19.246,19.246,0,0,0-2.7-1.1,27.833,27.833,0,0,0-2.343,6.234l4.643,2.7A16.979,16.979,0,0,0,2560.194,3398.5Z" transform="translate(-2450.006 -3313.396)" fill="#fff"/><path d="M2116.067,3578.126a5.508,5.508,0,0,0-2.166-1.857,19.2,19.2,0,0,0-2.7-1.105,27.833,27.833,0,0,0-2.343,6.234l4.643,2.7A16.977,16.977,0,0,0,2116.067,3578.126Z" transform="translate(-2016.921 -3488.553)" fill="#fff"/><path d="M2385.271,3757.742a5.515,5.515,0,0,0-2.167-1.857,19.2,19.2,0,0,0-2.7-1.1,27.864,27.864,0,0,0-2.344,6.234l4.643,2.7A16.982,16.982,0,0,0,2385.271,3757.742Z" transform="translate(-2279.431 -3663.703)" fill="#fff"/><path d="M3095.982,3878.285a5.506,5.506,0,0,0-2.167-1.857,19.245,19.245,0,0,0-2.7-1.1,27.818,27.818,0,0,0-2.343,6.234l4.643,2.7A16.979,16.979,0,0,0,3095.982,3878.285Z" transform="translate(-2972.472 -3781.25)" fill="#fff"/><path d="M2345.224,4629.171a4.584,4.584,0,0,0-1.8-1.547,16.011,16.011,0,0,0-2.246-.92,23.15,23.15,0,0,0-1.951,5.191l3.866,2.247A14.161,14.161,0,0,0,2345.224,4629.171Z" transform="translate(-2241.556 -4513.949)" fill="#fff"/><path d="M2090.472,4616.721a3.929,3.929,0,0,0-1.548-1.327,13.733,13.733,0,0,0-1.927-.791,19.926,19.926,0,0,0-1.675,4.456l3.319,1.927A12.133,12.133,0,0,0,2090.472,4616.721Z" transform="translate(-1993.968 -4502.149)" fill="#fff"/><path d="M1868.342,4578.547a3.046,3.046,0,0,0-1.2-1.03,10.766,10.766,0,0,0-1.5-.614,15.451,15.451,0,0,0-1.3,3.46l2.577,1.5A9.425,9.425,0,0,0,1868.342,4578.547Z" transform="translate(-1778.483 -4465.385)" fill="#fff"/><path d="M2980.749,4773.278a3.051,3.051,0,0,0-1.2-1.03,10.647,10.647,0,0,0-1.5-.614,15.46,15.46,0,0,0-1.3,3.46l2.576,1.5A9.415,9.415,0,0,0,2980.749,4773.278Z" transform="translate(-2863.232 -4655.275)" fill="#fff"/><path d="M2922.414,4296.335a3.064,3.064,0,0,0-1.2-1.03,10.747,10.747,0,0,0-1.5-.614,15.431,15.431,0,0,0-1.3,3.46l2.577,1.5A9.438,9.438,0,0,0,2922.414,4296.335Z" transform="translate(-2806.347 -4190.191)" fill="#fff"/><path d="M2301.631,4076.707a3.048,3.048,0,0,0-1.2-1.031,10.64,10.64,0,0,0-1.5-.613,15.463,15.463,0,0,0-1.3,3.46l2.577,1.5A9.406,9.406,0,0,0,2301.631,4076.707Z" transform="translate(-2200.999 -3976.023)" fill="#fff"/><path d="M3221.771,3677.6a3.057,3.057,0,0,0-1.2-1.031,10.72,10.72,0,0,0-1.5-.613,15.444,15.444,0,0,0-1.3,3.46l2.577,1.5A9.422,9.422,0,0,0,3221.771,3677.6Z" transform="translate(-3098.262 -3586.838)" fill="#fff"/><path d="M3523.754,4868.173a4.543,4.543,0,0,0-1.787-1.532,15.806,15.806,0,0,0-2.225-.912,22.929,22.929,0,0,0-1.932,5.142l3.829,2.225A14.013,14.013,0,0,0,3523.754,4868.173Z" transform="translate(-3390.84 -4747.031)" fill="#fff"/><path d="M3789.09,4868.173a4.537,4.537,0,0,0-1.787-1.532,15.794,15.794,0,0,0-2.224-.912,22.981,22.981,0,0,0-1.932,5.142l3.83,2.225A14.009,14.009,0,0,0,3789.09,4868.173Z" transform="translate(-3649.58 -4747.031)" fill="#fff"/><path d="M4202.322,4452.4a4.552,4.552,0,0,0-1.788-1.531,15.758,15.758,0,0,0-2.224-.912,22.97,22.97,0,0,0-1.932,5.142l3.83,2.225A14.01,14.01,0,0,0,4202.322,4452.4Z" transform="translate(-4052.536 -4341.599)" fill="#fff"/><path d="M3609.234,4481.66a4.538,4.538,0,0,0-1.787-1.532,15.841,15.841,0,0,0-2.225-.912,22.939,22.939,0,0,0-1.933,5.142l3.83,2.225A14.024,14.024,0,0,0,3609.234,4481.66Z" transform="translate(-3474.195 -4370.128)" fill="#fff"/><path d="M4202.322,5224.338a4.545,4.545,0,0,0-1.788-1.532,15.7,15.7,0,0,0-2.224-.912,22.973,22.973,0,0,0-1.932,5.142l3.83,2.224A14,14,0,0,0,4202.322,5224.338Z" transform="translate(-4052.536 -5094.341)" fill="#fff"/><path d="M2554.531,5271.794a4.537,4.537,0,0,0-1.786-1.532,15.841,15.841,0,0,0-2.225-.912,22.963,22.963,0,0,0-1.932,5.142l3.829,2.225A14.007,14.007,0,0,0,2554.531,5271.794Z" transform="translate(-2445.716 -5140.617)" fill="#fff"/><path d="M1565.089,3398.511a5.509,5.509,0,0,0-2.166-1.857,19.278,19.278,0,0,0-2.7-1.105,27.837,27.837,0,0,0-2.343,6.234l4.643,2.7A16.989,16.989,0,0,0,1565.089,3398.511Z" transform="translate(-1479.642 -3313.404)" fill="#fff"/><path d="M1333.237,4057.9a5.506,5.506,0,0,0-2.166-1.857,19.291,19.291,0,0,0-2.7-1.1,27.822,27.822,0,0,0-2.343,6.235l4.643,2.7A16.986,16.986,0,0,0,1333.237,4057.9Z" transform="translate(-1253.555 -3956.398)" fill="#fff"/><path d="M778.846,3615.009a5.5,5.5,0,0,0-2.166-1.857,19.2,19.2,0,0,0-2.7-1.105,27.849,27.849,0,0,0-2.343,6.234l4.643,2.7A16.988,16.988,0,0,0,778.846,3615.009Z" transform="translate(-712.948 -3524.519)" fill="#fff"/><path d="M1419.792,4991.5a5.225,5.225,0,0,0-2.057-1.763,18.212,18.212,0,0,0-2.561-1.049,26.422,26.422,0,0,0-2.225,5.919l4.408,2.561A16.122,16.122,0,0,0,1419.792,4991.5Z" transform="translate(-1338.314 -4866.929)" fill="#fff"/><path d="M2827.474,5720.51a5.5,5.5,0,0,0-2.167-1.858,19.329,19.329,0,0,0-2.7-1.1,27.827,27.827,0,0,0-2.343,6.235l4.643,2.7A16.978,16.978,0,0,0,2827.474,5720.51Z" transform="translate(-2710.64 -5577.669)" fill="#fff"/><path d="M3095.982,5971.4a5.508,5.508,0,0,0-2.167-1.857,19.2,19.2,0,0,0-2.7-1.1,27.83,27.83,0,0,0-2.343,6.234l4.643,2.7A16.964,16.964,0,0,0,3095.982,5971.4Z" transform="translate(-2972.472 -5822.323)" fill="#fff"/><path d="M3661.358,5830.037a5.51,5.51,0,0,0-2.166-1.857,19.285,19.285,0,0,0-2.7-1.1,27.825,27.825,0,0,0-2.344,6.235l4.643,2.7A16.98,16.98,0,0,0,3661.358,5830.037Z" transform="translate(-3523.791 -5684.474)" fill="#fff"/><path d="M3976.651,5470.465a5.506,5.506,0,0,0-2.167-1.856,19.246,19.246,0,0,0-2.7-1.105,27.848,27.848,0,0,0-2.344,6.235l4.644,2.7A16.986,16.986,0,0,0,3976.651,5470.465Z" transform="translate(-3831.244 -5333.843)" fill="#fff"/><path d="M3353.96,5327.016a5.5,5.5,0,0,0-2.167-1.857,19.192,19.192,0,0,0-2.7-1.105,27.84,27.84,0,0,0-2.344,6.234l4.643,2.7A16.982,16.982,0,0,0,3353.96,5327.016Z" transform="translate(-3224.036 -5193.958)" fill="#fff"/><path d="M4388.685,5750a5.5,5.5,0,0,0-2.166-1.857,19.272,19.272,0,0,0-2.7-1.105,27.818,27.818,0,0,0-2.344,6.234l4.644,2.7A17,17,0,0,0,4388.685,5750Z" transform="translate(-4233.034 -5606.426)" fill="#fff"/><path d="M4584.3,5457.436a5.512,5.512,0,0,0-2.167-1.857,19.176,19.176,0,0,0-2.7-1.1,27.829,27.829,0,0,0-2.343,6.234l4.644,2.7A17,17,0,0,0,4584.3,5457.436Z" transform="translate(-4423.784 -5321.137)" fill="#fff"/><path d="M5198.788,4696.624a5.507,5.507,0,0,0-2.167-1.857,19.232,19.232,0,0,0-2.7-1.105,27.861,27.861,0,0,0-2.342,6.234l4.643,2.7A16.981,16.981,0,0,0,5198.788,4696.624Z" transform="translate(-5022.996 -4579.241)" fill="#fff"/><path d="M5854.709,5530.825a5.518,5.518,0,0,0-2.167-1.857,19.245,19.245,0,0,0-2.7-1.105,27.866,27.866,0,0,0-2.343,6.234l4.644,2.7A17,17,0,0,0,5854.709,5530.825Z" transform="translate(-5662.607 -5392.701)" fill="#fff"/><path d="M6106.927,5657.346a5.506,5.506,0,0,0-2.167-1.857,19.245,19.245,0,0,0-2.7-1.105,27.793,27.793,0,0,0-2.342,6.234l4.642,2.7A16.991,16.991,0,0,0,6106.927,5657.346Z" transform="translate(-5908.555 -5516.076)" fill="#fff"/><path d="M5431.82,6707.146a5.509,5.509,0,0,0-2.167-1.857,19.233,19.233,0,0,0-2.7-1.105,27.846,27.846,0,0,0-2.344,6.234l4.644,2.7A16.969,16.969,0,0,0,5431.82,6707.146Z" transform="translate(-5250.233 -6539.775)" fill="#fff"/><path d="M5270.744,6180.263a5.508,5.508,0,0,0-2.167-1.856,18.956,18.956,0,0,0-2.7-1.105,27.809,27.809,0,0,0-2.343,6.234l4.642,2.7A16.974,16.974,0,0,0,5270.744,6180.263Z" transform="translate(-5093.163 -6025.993)" fill="#fff"/><path d="M5321.427,5825.127a5.511,5.511,0,0,0-2.167-1.857,19.284,19.284,0,0,0-2.7-1.105,27.761,27.761,0,0,0-2.343,6.234l4.643,2.7A17,17,0,0,0,5321.427,5825.127Z" transform="translate(-5142.585 -5679.685)" fill="#fff"/><path d="M2761.327,5133.411l-7.794,12.183a69.267,69.267,0,0,1-9.924,12.512q-6.191,5.732-12.348,5.731a15.4,15.4,0,0,1-11.168-4.814,15.239,15.239,0,0,1-4.848-11.136,9.716,9.716,0,0,1,1.867-5.306,14.09,14.09,0,0,1,3.9-3.6q3.734-2.522,10.284-3.21,5.47-.229,10.972-.491a34.373,34.373,0,0,0,6.976-.917q.23-.13.361-.2l-.131-.36h-14.706q-11.857,0-15.754,3.734a16.516,16.516,0,0,0-4.061,5.616,18.6,18.6,0,0,0-1.146,6.959,19.216,19.216,0,0,0,5.109,13.232,16.531,16.531,0,0,0,12.741,5.862,18.664,18.664,0,0,0,12.151-4.716,46.186,46.186,0,0,0,8.81-10.742q3.34-5.862,6.682-11.693a22.192,22.192,0,0,1,2.865-4.241q.965-.933,1.523-1.425a5.037,5.037,0,0,0,.3-2.292,7,7,0,0,0-.3-2.456A11.845,11.845,0,0,0,2761.327,5133.411Z" transform="translate(-2606.825 -5006.333)" fill="#fff"/><path d="M327.783,2545.486a12.519,12.519,0,0,0,4.346-7.039q.491-3.065-1.067-8.247a2.435,2.435,0,0,0-.438-.879q-1.657-1.835-6.751.92a32.86,32.86,0,0,0-6.257,4.371l-.508.458q-.71,1.492,1.087,3.482,2.783,3.085,6.008,1.947.393,3.186-1.012,4.454-4.373,3.947-20.509-.2-22.091-5.64-34.212-19.072a96.268,96.268,0,0,1-6.759-8.354,26.3,26.3,0,0,1-4.626-13.607q-.626-8.858,4.177-13.192,10.894-9.83,35.248,6.875a96.61,96.61,0,0,0,18.718,9.675q5.91,2.389,16.867,1.5l.154,1.348q2.351.643,7.225-2.2a7.681,7.681,0,0,0,.018-3.984q-.146-.79-1.1-3.892a22.319,22.319,0,0,0-7.652,1.8,45.079,45.079,0,0,0,1.114,5.867q-10.789.526-22.631-6-3.659-2.012-19.76-13.341a27.353,27.353,0,0,0-16.207-4.928q-9.571-.009-15.74,5.56-8.669,7.822-7.94,18.994.706,10.2,8.739,19.106a82.2,82.2,0,0,0,10.133,9.346,74.563,74.563,0,0,0,29.151,13.935Q317.358,2554.894,327.783,2545.486Z" transform="translate(-203.812 -2423.791)" fill="#fff"/></g><rect width="350" height="350" transform="translate(-3898 -13785)" fill="none"/></g></svg>