<svg xmlns="http://www.w3.org/2000/svg" width="350" height="350" viewBox="0 0 350 350"><g transform="translate(4316 13785)"><g transform="matrix(0.883, -0.469, 0.469, 0.883, -4279, -13653.855)"><path d="M6568.6-243.43c-.747,3.079,3.183,7.985,4.255,11.777,17.861,4.625,27-21.317,16.235-33.5-10.925,3.236-26.026,3.319-22.831,16.38-16.661-7.526-30.509-22.265-46.527-31.438A98.1,98.1,0,0,0,6568.6-243.43Zm15.5-4.068c-.054,4.827-.508,9.5-5.473,12.405-.577-3.176-2.174-6.75-2.488-9.823C6578.812-245.834,6581.049-245.623,6584.1-247.5Zm-9.928-10.2c4.133-1.413,7.12.117,9.112,4.189-1.122,2.3-4.085,3.886-7.721,5.205C6573.727-251.968,6573.119-255.155,6574.169-257.7Z" transform="translate(-6448.412 299.532)" fill="#fff"/><path d="M5392.817,256.536h-.146c-1.613,1.366-4.622,7.21-2.637,9.456,1.833.291,3.363-.121,4.1-1.091,1.607-2.109-.092-5.015-1.9-6.061C5392.184,258.016,5393.7,256.875,5392.817,256.536Zm1.172,6.3a3.95,3.95,0,0,1-3.515,1.212c-.508-1.089.245-2.126.585-2.91A6.414,6.414,0,0,1,5393.989,262.84Z" transform="translate(-5367.788 -213.598)" fill="#fff"/><path d="M6781.523,1213.051h-.567c-6.237,5.28-17.868,27.874-10.194,36.558,7.089,1.124,13-.469,15.858-4.218,6.212-8.153-.358-19.388-7.362-23.435C6779.074,1218.772,6784.923,1214.362,6781.523,1213.051Zm4.53,24.372c-2.717,2.865-7.871,5.827-13.591,4.688-1.964-4.209.945-8.219,2.265-11.249A24.8,24.8,0,0,1,6786.054,1237.423Z" transform="translate(-6685.978 -1128.032)" fill="#fff"/><path d="M6279.684,464.2h-.316c-3.484,2.949-9.98,15.568-5.694,20.418,3.959.627,7.262-.262,8.856-2.356,3.47-4.554-.2-10.829-4.111-13.089C6278.316,467.4,6281.583,464.934,6279.684,464.2Zm2.53,13.612a8.527,8.527,0,0,1-7.591,2.618c-1.1-2.35.528-4.59,1.265-6.283A13.848,13.848,0,0,1,6282.213,477.814Z" transform="translate(-6211.827 -412.128)" fill="#fff"/><path d="M7697.247,2188.348h-.316c-3.484,2.949-9.979,15.568-5.694,20.418,3.959.627,7.262-.262,8.857-2.356,3.47-4.554-.2-10.829-4.111-13.089C7695.879,2191.543,7699.146,2189.08,7697.247,2188.348Zm2.53,13.612a8.528,8.528,0,0,1-7.591,2.618c-1.1-2.35.528-4.591,1.266-6.283A13.858,13.858,0,0,1,7699.777,2201.96Z" transform="translate(-7567.026 -2060.422)" fill="#fff"/><g transform="translate(77.109 0.739)"><path d="M7005.156-669.331c3.145-.049,5.936.745,9.552-.424-10.21-12.482-21.566-22.242-32.711-32.5-3.167.074-8.254-1.463-10.744.91A334.027,334.027,0,0,1,7005.156-669.331Z" transform="translate(-6957.179 702.681)" fill="#fff"/><path d="M6651.334-635.761c11.775,9.546,22.744,21.007,33.9,32.018,2.947.031,5.7.528,8.957-.181-9.87-13.684-21.574-23.01-32.954-33.1C6658.266-636.629,6653.538-638.228,6651.334-635.761Z" transform="translate(-6651.334 640.056)" fill="#fff"/></g><g transform="translate(78.101 157.932)"><path d="M6931.446,2890.59c2.34-.633,4.576-.569,7.054-2.126-9.991-7.388-20.322-12.526-30.59-18.079-2.35.655-6.442.472-7.852,2.716A257.216,257.216,0,0,1,6931.446,2890.59Z" transform="translate(-6890.108 -2870.385)" fill="#fff"/><path d="M6673.885,2981.746c10.6,4.9,20.968,11.38,31.389,17.49,2.207-.535,4.356-.685,6.656-1.832-9.965-8.35-20.474-13.1-30.885-18.478C6678.9,2979.785,6675.063,2979.486,6673.885,2981.746Z" transform="translate(-6673.885 -2974.151)" fill="#fff"/></g><path d="M4929.561-705.057a54.811,54.811,0,0,1,6.908,20.917c8.04-5.061,4.447-22.97,13.053-27.406,1.937,1.068,2.194,3.657,4.945,3.987,4.032-3.565.708-11.212-2.686-11.823-8.823-1.589-10.389,18.589-13.379,24.583,1.224-11.638-12.714-32.605-17.96-14.921C4921.8-706.517,4925.216-702.9,4929.561-705.057Z" transform="translate(-4919.48 719.471)" fill="#fff"/><path d="M5757.281,657.316c5.461,9.078,8.968,19.923,10.695,32.381,12.445-7.834,6.884-35.559,20.207-42.426,3,1.653,3.4,5.661,7.656,6.173,6.241-5.52,1.1-17.357-4.157-18.3-13.66-2.46-16.083,28.776-20.713,38.057,1.894-18.017-19.683-50.476-27.8-23.1C5745.274,655.057,5750.558,660.648,5757.281,657.316Z" transform="translate(-5706.008 -575.415)" fill="#fff"/><path d="M8122.248,3101.687c3.9,6.484,6.4,14.229,7.638,23.127,8.889-5.595,4.916-25.4,14.432-30.3,2.142,1.18,2.425,4.043,5.467,4.409,4.458-3.943.783-12.4-2.967-13.072-9.756-1.758-11.488,20.552-14.795,27.18,1.353-12.868-14.057-36.05-19.858-16.5C8113.672,3100.074,8117.446,3104.068,8122.248,3101.687Z" transform="translate(-7970.788 -2918.345)" fill="#fff"/><path d="M6707.632,504.05l1.764-.511,2.7,3.269a1.771,1.771,0,0,0,1.844-1.624,22.684,22.684,0,0,0-.565-9.093q-1.578-5.956-5.3-6.525l-1.068.01q-4.988,2.445-12.247,24.461-8.082,24.488-18.547,34.931-16.9,16.564-47.771,11.855l-.784.486q.634,2.263,22.57,5.607,20.81,3.173,31.789-5.979,8.137-6.813,13.722-24.235,9.628-29.97,10.03-30.861Z" transform="translate(-6551.583 -436.377)" fill="#fff"/><path d="M5529.251-444.987a10.615,10.615,0,0,0-4.177-3.581,37.08,37.08,0,0,0-5.2-2.131,53.625,53.625,0,0,0-4.519,12.021l8.953,5.2Q5527.29-437.4,5529.251-444.987Z" transform="translate(-5488.223 462.523)" fill="#fff"/><path d="M4912.5-274.5a10.609,10.609,0,0,0-4.177-3.581,37.108,37.108,0,0,0-5.2-2.131,53.566,53.566,0,0,0-4.518,12.021l8.951,5.2Q4910.537-266.906,4912.5-274.5Z" transform="translate(-4898.603 299.532)" fill="#fff"/><path d="M4999.726,283.537a10.62,10.62,0,0,0-4.178-3.581,37.03,37.03,0,0,0-5.2-2.131,53.634,53.634,0,0,0-4.519,12.021l8.953,5.2Q4997.764,291.126,4999.726,283.537Z" transform="translate(-4981.992 -235.458)" fill="#fff"/><path d="M5017.326,683.548a10.62,10.62,0,0,0-4.177-3.581,37.057,37.057,0,0,0-5.2-2.131,53.664,53.664,0,0,0-4.518,12.021l8.952,5.2Q5015.365,691.137,5017.326,683.548Z" transform="translate(-4999.592 -621.754)" fill="#fff"/><path d="M5970.292,353.647a10.633,10.633,0,0,0-4.178-3.581,37.067,37.067,0,0,0-5.2-2.13,53.6,53.6,0,0,0-4.518,12.021l8.952,5.2Q5968.33,361.237,5970.292,353.647Z" transform="translate(-5909.858 -300.977)" fill="#fff"/><path d="M6361.217-196.53a9.747,9.747,0,0,0-3.833-3.286,34.12,34.12,0,0,0-4.772-1.955,49.206,49.206,0,0,0-4.146,11.031l8.215,4.773Q6359.417-189.566,6361.217-196.53Z" transform="translate(-6284.68 224.548)" fill="#fff"/><path d="M7046.449,798.22a9.755,9.755,0,0,0-3.833-3.286,34.035,34.035,0,0,0-4.773-1.955,49.168,49.168,0,0,0-4.146,11.031l8.215,4.773Q7044.647,805.185,7046.449,798.22Z" transform="translate(-6939.765 -726.441)" fill="#fff"/><path d="M7336.312,952.008a9.742,9.742,0,0,0-3.833-3.286,34.1,34.1,0,0,0-4.773-1.955,49.2,49.2,0,0,0-4.146,11.031l8.216,4.773Q7334.511,958.972,7336.312,952.008Z" transform="translate(-7216.877 -873.462)" fill="#fff"/><path d="M7635.509,1069.051a9.741,9.741,0,0,0-3.834-3.286,34.077,34.077,0,0,0-4.772-1.955,49.255,49.255,0,0,0-4.146,11.031l8.216,4.773Q7633.708,1076.015,7635.509,1069.051Z" transform="translate(-7502.91 -985.356)" fill="#fff"/><path d="M7191.381,1248.674a9.746,9.746,0,0,0-3.833-3.286,34,34,0,0,0-4.773-1.955,49.265,49.265,0,0,0-4.146,11.031l8.215,4.773Q7189.582,1255.638,7191.381,1248.674Z" transform="translate(-7078.322 -1157.076)" fill="#fff"/><path d="M7460.585,1428.289a9.748,9.748,0,0,0-3.834-3.286,33.98,33.98,0,0,0-4.772-1.955,49.3,49.3,0,0,0-4.146,11.031l8.216,4.773Q7458.786,1435.253,7460.585,1428.289Z" transform="translate(-7335.682 -1328.789)" fill="#fff"/><path d="M8171.3,1548.832a9.741,9.741,0,0,0-3.833-3.286,33.945,33.945,0,0,0-4.773-1.955,49.287,49.287,0,0,0-4.146,11.031l8.215,4.773Q8169.5,1555.8,8171.3,1548.832Z" transform="translate(-8015.126 -1444.029)" fill="#fff"/><path d="M7419.61,2299.336a8.115,8.115,0,0,0-3.193-2.736,28.312,28.312,0,0,0-3.974-1.628,40.958,40.958,0,0,0-3.453,9.186l6.841,3.974A25.034,25.034,0,0,0,7419.61,2299.336Z" transform="translate(-7298.549 -2162.354)" fill="#fff"/><path d="M7164.2,2286.617a6.958,6.958,0,0,0-2.739-2.348,24.282,24.282,0,0,0-3.41-1.4,35.22,35.22,0,0,0-2.964,7.883l5.872,3.411A21.477,21.477,0,0,0,7164.2,2286.617Z" transform="translate(-7055.82 -2150.787)" fill="#fff"/><path d="M6941.187,2248.079a5.4,5.4,0,0,0-2.127-1.824,18.842,18.842,0,0,0-2.648-1.085,27.334,27.334,0,0,0-2.3,6.123l4.559,2.649A16.673,16.673,0,0,0,6941.187,2248.079Z" transform="translate(-6844.56 -2114.744)" fill="#fff"/><path d="M8053.595,2442.812a5.4,5.4,0,0,0-2.127-1.824,18.9,18.9,0,0,0-2.648-1.085,27.317,27.317,0,0,0-2.3,6.122l4.559,2.649A16.675,16.675,0,0,0,8053.595,2442.812Z" transform="translate(-7908.029 -2300.91)" fill="#fff"/><path d="M7995.261,1965.868a5.407,5.407,0,0,0-2.127-1.824,18.9,18.9,0,0,0-2.649-1.085,27.375,27.375,0,0,0-2.3,6.122l4.56,2.649A16.678,16.678,0,0,0,7995.261,1965.868Z" transform="translate(-7852.26 -1844.949)" fill="#fff"/><path d="M7374.476,1746.239a5.406,5.406,0,0,0-2.126-1.824,18.961,18.961,0,0,0-2.649-1.085,27.325,27.325,0,0,0-2.3,6.122l4.559,2.649A16.663,16.663,0,0,0,7374.476,1746.239Z" transform="translate(-7258.787 -1634.982)" fill="#fff"/><path d="M8294.618,1347.132a5.407,5.407,0,0,0-2.126-1.823,18.937,18.937,0,0,0-2.65-1.085,27.292,27.292,0,0,0-2.3,6.122l4.561,2.649A16.706,16.706,0,0,0,8294.618,1347.132Z" transform="translate(-8138.449 -1253.433)" fill="#fff"/><path d="M8598.1,2538.32a8.041,8.041,0,0,0-3.162-2.71A28.052,28.052,0,0,0,8591,2534a40.62,40.62,0,0,0-3.42,9.1l6.775,3.937A24.8,24.8,0,0,0,8598.1,2538.32Z" transform="translate(-8425.286 -2390.865)" fill="#fff"/><path d="M8863.433,2538.32a8.041,8.041,0,0,0-3.162-2.71,28.052,28.052,0,0,0-3.936-1.613,40.611,40.611,0,0,0-3.419,9.1l6.775,3.937A24.784,24.784,0,0,0,8863.433,2538.32Z" transform="translate(-8678.951 -2390.865)" fill="#fff"/><path d="M9276.664,2122.551a8.038,8.038,0,0,0-3.162-2.71,28.016,28.016,0,0,0-3.936-1.613,40.6,40.6,0,0,0-3.419,9.1l6.774,3.937A24.783,24.783,0,0,0,9276.664,2122.551Z" transform="translate(-9074.002 -1993.387)" fill="#fff"/><path d="M8683.576,2151.808a8.03,8.03,0,0,0-3.161-2.71,28.037,28.037,0,0,0-3.936-1.613,40.57,40.57,0,0,0-3.421,9.1l6.776,3.936A24.794,24.794,0,0,0,8683.576,2151.808Z" transform="translate(-8507.006 -2021.357)" fill="#fff"/><path d="M9276.664,2894.485a8.037,8.037,0,0,0-3.162-2.71,27.986,27.986,0,0,0-3.936-1.613,40.612,40.612,0,0,0-3.419,9.1l6.774,3.937A24.781,24.781,0,0,0,9276.664,2894.485Z" transform="translate(-9074.002 -2731.36)" fill="#fff"/><path d="M7628.873,2941.941a8.036,8.036,0,0,0-3.161-2.71,28.077,28.077,0,0,0-3.937-1.613,40.555,40.555,0,0,0-3.419,9.1l6.775,3.937A24.793,24.793,0,0,0,7628.873,2941.941Z" transform="translate(-7498.704 -2776.729)" fill="#fff"/><path d="M6640.4,1069.058a9.744,9.744,0,0,0-3.833-3.286,34.012,34.012,0,0,0-4.772-1.955,49.248,49.248,0,0,0-4.146,11.031l8.216,4.773Q6638.6,1076.023,6640.4,1069.058Z" transform="translate(-6551.583 -985.363)" fill="#fff"/><path d="M6408.551,1728.447a9.745,9.745,0,0,0-3.833-3.286,34.08,34.08,0,0,0-4.772-1.955,49.243,49.243,0,0,0-4.146,11.032l8.216,4.773Q6406.751,1735.411,6408.551,1728.447Z" transform="translate(-6329.931 -1615.742)" fill="#fff"/><path d="M5854.16,1285.556a9.751,9.751,0,0,0-3.833-3.286,34.077,34.077,0,0,0-4.772-1.955,49.27,49.27,0,0,0-4.146,11.031l8.215,4.773Q5852.36,1292.521,5854.16,1285.556Z" transform="translate(-5799.93 -1192.337)" fill="#fff"/><path d="M6494.826,2661.928a9.245,9.245,0,0,0-3.639-3.12,32.235,32.235,0,0,0-4.531-1.856,46.731,46.731,0,0,0-3.937,10.473l7.8,4.531Q6493.117,2668.54,6494.826,2661.928Z" transform="translate(-6413.028 -2508.41)" fill="#fff"/><path d="M7902.788,3391.057a9.744,9.744,0,0,0-3.833-3.286,34.016,34.016,0,0,0-4.773-1.955,49.283,49.283,0,0,0-4.146,11.032l8.216,4.773Q7900.987,3398.021,7902.788,3391.057Z" transform="translate(-7758.43 -3205.208)" fill="#fff"/><path d="M8171.3,3641.947a9.745,9.745,0,0,0-3.833-3.286,33.9,33.9,0,0,0-4.773-1.956,49.285,49.285,0,0,0-4.146,11.031l8.215,4.773Q8169.5,3648.911,8171.3,3641.947Z" transform="translate(-8015.126 -3445.06)" fill="#fff"/><path d="M8736.672,3500.583a9.742,9.742,0,0,0-3.832-3.286,34.017,34.017,0,0,0-4.773-1.955,49.237,49.237,0,0,0-4.146,11.031l8.217,4.773Q8734.872,3507.548,8736.672,3500.583Z" transform="translate(-8555.629 -3309.916)" fill="#fff"/><path d="M9051.966,3141.013a9.743,9.743,0,0,0-3.834-3.286,33.9,33.9,0,0,0-4.772-1.956,49.281,49.281,0,0,0-4.146,11.031l8.216,4.773Q9050.167,3147.978,9051.966,3141.013Z" transform="translate(-8857.052 -2966.165)" fill="#fff"/><path d="M8429.274,2997.563a9.729,9.729,0,0,0-3.833-3.286,33.919,33.919,0,0,0-4.772-1.956,49.241,49.241,0,0,0-4.146,11.031l8.216,4.773Q8427.475,3004.527,8429.274,2997.563Z" transform="translate(-8261.756 -2829.026)" fill="#fff"/><path d="M5457.768,261.638q6.563-5.922,7.69-12.454.869-5.424-1.888-14.593a4.3,4.3,0,0,0-.775-1.555q-2.932-3.248-11.945,1.628a58.209,58.209,0,0,0-11.071,7.734l-.9.81q-1.256,2.638,1.924,6.16,4.925,5.458,10.63,3.445.7,5.638-1.79,7.881-7.739,6.983-36.289-.348-39.089-9.979-60.536-33.747a170.425,170.425,0,0,1-11.959-14.781q-7.131-9.988-8.186-24.076-1.107-15.673,7.392-23.342,19.276-17.394,62.369,12.164,13.493,9.258,33.121,17.119,10.457,4.227,29.845,2.652l.273,2.386q4.159,1.139,12.785-3.89a13.59,13.59,0,0,0,.032-7.049q-.257-1.4-1.953-6.887a39.506,39.506,0,0,0-13.54,3.193,79.845,79.845,0,0,0,1.971,10.381q-19.09.93-40.043-10.621-6.474-3.561-34.963-23.606a48.4,48.4,0,0,0-28.677-8.721q-16.935-.014-27.85,9.838-15.34,13.84-14.049,33.608,1.249,18.053,15.462,33.806a145.44,145.44,0,0,0,17.93,16.537,131.928,131.928,0,0,0,51.58,24.656Q5439.321,278.285,5457.768,261.638Z" transform="translate(-5300.782 -113.203)" fill="#fff"/></g><rect width="350" height="350" transform="translate(-4316 -13785)" fill="none"/></g></svg>