<svg xmlns="http://www.w3.org/2000/svg" xmlns:xlink="http://www.w3.org/1999/xlink" width="149.799" height="149.799" viewBox="0 0 149.799 149.799"><defs><clipPath id="a"><path d="M0-682.665H149.8v149.8H0Z" transform="translate(0 682.665)" fill="none"/></clipPath></defs><g transform="translate(0 682.665)" opacity="0.977"><g transform="translate(0 -682.665)"><g clip-path="url(#a)"><g transform="translate(2.194 139.396)"><path d="M145.41,1H0A1,1,0,0,1-1,0,1,1,0,0,1,0-1H145.41a1,1,0,0,1,1,1A1,1,0,0,1,145.41,1Z" fill="#57853c"/></g><g transform="translate(142.914 73.727)"><path d="M0,66.669a1,1,0,0,1-1-1V0A1,1,0,0,1,0-1,1,1,0,0,1,1,0V65.669A1,1,0,0,1,0,66.669Z" fill="#57853c"/></g><g transform="translate(6.885 73.727)"><path d="M0-232.6a1,1,0,0,1-1-1v-65.669a1,1,0,0,1,1-1,1,1,0,0,1,1,1V-233.6A1,1,0,0,1,0-232.6Z" transform="translate(0 299.269)" fill="#57853c"/></g><g transform="translate(91.317 52.619)"><path d="M-157.476-74.085h-9.381a1,1,0,0,1-1-1,1,1,0,0,1,1-1h7.842l-8.492-19.108h-46.257a1,1,0,0,1-1-1,1,1,0,0,1,1-1h46.907a1,1,0,0,1,.914.594l9.381,21.108a1,1,0,0,1-.075.951A1,1,0,0,1-157.476-74.085Z" transform="translate(213.763 96.193)" fill="#57853c"/></g><g transform="translate(2.194 36.202)"><path d="M-129.867-36.292h-16.417a1,1,0,0,1-.707-.293L-183.81-73.4l-15.7,15.7-.02.02-21.1,21.1a1,1,0,0,1-.707.293h-35.18a1,1,0,0,1-.839-.455,1,1,0,0,1-.075-.951l9.381-21.108a1,1,0,0,1,.914-.594h46.492l16.125-16.124a1,1,0,0,1,1.414,0l37.232,37.232h16a1,1,0,0,1,1,1A1,1,0,0,1-129.867-36.292Zm-125.109-2h33.227L-202.642-57.4h-43.842Z" transform="translate(256.515 74.817)" fill="#57853c"/></g></g></g><g transform="translate(74.9 -672.262)"><path d="M0-90.771a1,1,0,0,1-1-1v-25.8a1,1,0,0,1,1-1,1,1,0,0,1,1,1v25.8A1,1,0,0,1,0-90.771Z" transform="translate(0 117.569)" fill="#57853c"/></g><g transform="translate(74.9 -672.262)"><path d="M16.417,12.727H0a1,1,0,0,1-1-1,1,1,0,0,1,1-1H15.417V1H0A1,1,0,0,1-1,0,1,1,0,0,1,0-1H16.417a1,1,0,0,1,1,1V11.727A1,1,0,0,1,16.417,12.727Z" fill="#57853c"/></g><g transform="translate(0 -682.665)"><g clip-path="url(#a)"><g transform="translate(60.828 64.346)"><path d="M-114.185-65.129a14.973,14.973,0,0,1,10.658,4.415,14.973,14.973,0,0,1,4.415,10.658A14.973,14.973,0,0,1-103.528-39.4a14.973,14.973,0,0,1-10.658,4.415A14.973,14.973,0,0,1-124.843-39.4a14.974,14.974,0,0,1-4.414-10.658,14.974,14.974,0,0,1,4.414-10.658A14.973,14.973,0,0,1-114.185-65.129Zm0,28.144a12.986,12.986,0,0,0,9.243-3.829,12.986,12.986,0,0,0,3.829-9.243,12.986,12.986,0,0,0-3.829-9.243,12.986,12.986,0,0,0-9.243-3.829,12.986,12.986,0,0,0-9.243,3.829,12.987,12.987,0,0,0-3.829,9.243,12.987,12.987,0,0,0,3.829,9.243A12.986,12.986,0,0,0-114.185-36.985Z" transform="translate(128.257 64.129)" fill="#57853c"/></g><g transform="translate(74.9 76.072)"><path d="M0-24.028a1,1,0,0,1-1-1v-4.691a1,1,0,0,1,.553-.894l4.691-2.345a1,1,0,0,1,1.342.447,1,1,0,0,1-.447,1.342L1-29.1v4.073A1,1,0,0,1,0-24.028Z" transform="translate(0 32.064)" fill="#57853c"/></g><g transform="translate(74.9 108.907)"><path d="M0,22.108a1,1,0,0,1-1-1V0A1,1,0,0,1,0-1,1,1,0,0,1,1,0V21.108A1,1,0,0,1,0,22.108Z" fill="#57853c"/></g><g transform="translate(56.137 130.015)"><path d="M37.525-32.371a1,1,0,0,1-1-1v-8.381H1v8.381a1,1,0,0,1-1,1,1,1,0,0,1-1-1v-9.381a1,1,0,0,1,1-1H37.525a1,1,0,0,1,1,1v9.381A1,1,0,0,1,37.525-32.371Z" transform="translate(0 42.752)" fill="#57853c"/></g><g transform="translate(60.828 108.907)"><path d="M-100.113-74.085a1,1,0,0,1-1-1V-95.193h-26.144v20.108a1,1,0,0,1-1,1,1,1,0,0,1-1-1V-96.193a1,1,0,0,1,1-1h28.144a1,1,0,0,1,1,1v21.108A1,1,0,0,1-100.113-74.085Z" transform="translate(128.257 96.193)" fill="#57853c"/></g><g transform="translate(16.266 108.907)"><path d="M-31.3-49.057H-50.058a1,1,0,0,1-1-1,1,1,0,0,1,1-1H-32.3V-63.129H-63.131v12.072h3.691a1,1,0,0,1,1,1,1,1,0,0,1-1,1h-4.691a1,1,0,0,1-1-1V-64.129a1,1,0,0,1,1-1H-31.3a1,1,0,0,1,1,1v14.072A1,1,0,0,1-31.3-49.057Z" transform="translate(64.131 64.129)" fill="#57853c"/></g><path d="M106.964-278.165H74.129a1,1,0,0,1-1-1v-14.072a1,1,0,0,1,1-1h32.835a1,1,0,0,1,1,1v14.072A1,1,0,0,1,106.964-278.165Zm-31.835-2h30.835v-12.072H75.129Z" transform="translate(-57.863 378.69)" fill="#57853c"/><g transform="translate(32.684 85.454)"><path d="M0-49.057a1,1,0,0,1-1-1V-64.129a1,1,0,0,1,1-1,1,1,0,0,1,1,1v14.072A1,1,0,0,1,0-49.057Z" transform="translate(0 64.129)" fill="#57853c"/></g><g transform="translate(32.684 108.907)"><path d="M0-49.057a1,1,0,0,1-1-1V-64.129a1,1,0,0,1,1-1,1,1,0,0,1,1,1v14.072A1,1,0,0,1,0-49.057Z" transform="translate(0 64.129)" fill="#57853c"/></g><path d="M491.736-171.282H458.9a1,1,0,0,1-1-1v-14.072a1,1,0,0,1,1-1h32.835a1,1,0,0,1,1,1v14.072A1,1,0,0,1,491.736-171.282Zm-31.835-2h30.835v-12.072H459.9Z" transform="translate(-358.203 295.261)" fill="#57853c"/><path d="M491.736-278.165H458.9a1,1,0,0,1-1-1v-14.072a1,1,0,0,1,1-1h32.835a1,1,0,0,1,1,1v14.072A1,1,0,0,1,491.736-278.165Zm-31.835-2h30.835v-12.072H459.9Z" transform="translate(-358.203 378.69)" fill="#57853c"/><g transform="translate(117.116 85.454)"><path d="M0-49.057a1,1,0,0,1-1-1V-64.129a1,1,0,0,1,1-1,1,1,0,0,1,1,1v14.072A1,1,0,0,1,0-49.057Z" transform="translate(0 64.129)" fill="#57853c"/></g><g transform="translate(117.116 108.907)"><path d="M0-49.057a1,1,0,0,1-1-1V-64.129a1,1,0,0,1,1-1,1,1,0,0,1,1,1v14.072A1,1,0,0,1,0-49.057Z" transform="translate(0 64.129)" fill="#57853c"/></g></g></g></g></svg>