<svg xmlns="http://www.w3.org/2000/svg" width="160.078" height="112.865" viewBox="0 0 160.078 112.865"><g transform="translate(-461.725 -2829.98)" opacity="0.999"><g transform="translate(462.091 2830.377)"><path d="M159.347,27.206H0L5.42,0H63.073L61.211,1.407H6.79L1.93,25.8H157.417L152.557,1.407H97.922L96.411,0h57.516Z" transform="translate(0 14.743)" fill="#57853c"/><path d="M159.713,27.506H-.366L5.174-.3H63.968L61.311,1.707H7.036L2.3,25.5H157.051l-4.74-23.791H97.8L95.649-.3h58.524ZM.366,26.906H158.981L153.681.3H97.173l.867.807H152.8L157.782,26.1H1.565L6.544,1.107H61.11L62.179.3H5.666Z" transform="translate(0 14.743)" fill="#57853c"/><path d="M68.755,108.159H-3V27.139L32.877-4.009,68.755,27.139ZM-1.516,106.7H67.27V27.793L32.877-2.066-1.516,27.793Z" transform="translate(44.332 4.009)" fill="#57853c"/><path d="M69.055,108.459H-3.3V27L32.877-4.406,69.055,27Zm-71.755-.6H68.455V27.276L32.877-3.611-2.7,27.276ZM67.57,107H-1.816V27.656L32.877-2.463,67.57,27.656Zm-68.786-.6H66.97V27.93L32.877-1.669-1.216,27.93Z" transform="translate(44.332 4.009)" fill="#57853c"/><path d="M-3-3H36.783V64.391H-3ZM34.961-1.625H-1.178v64.64H34.961Z" transform="translate(114.401 43.622)" fill="#57853c"/><path d="M-3.3-3.3H37.083V64.691H-3.3Zm39.783.6H-2.7V64.091H36.483Zm-37.961.775H35.261v65.24H-1.478Zm36.139.6H-.878v64.04H34.661Z" transform="translate(114.401 43.622)" fill="#57853c"/><path d="M-3-3H36.309V64.391H-3ZM34.509-1.625H-1.2v64.64H34.509Z" transform="translate(6.998 43.622)" fill="#57853c"/><path d="M-3.3-3.3H36.609V64.691H-3.3Zm39.309.6H-2.7V64.091H36.009ZM-1.5-1.925H34.809v65.24H-1.5Zm35.708.6H-.9v64.04H34.209Z" transform="translate(6.998 43.622)" fill="#57853c"/><path d="M-3-3H29.407V28.04H-3ZM27.922-1.67H-1.516V26.71H27.922Z" transform="translate(64.276 77.931)" fill="#57853c"/><path d="M-3.3-3.3H29.707V28.34H-3.3Zm32.407.6H-2.7V27.74H29.107Zm-30.922.73H28.222V27.01H-1.816Zm29.438.6H-1.216V26.41H27.622Z" transform="translate(64.276 77.931)" fill="#57853c"/><path d="M-12088.515,3737.143H-12090V3708h1.485Z" transform="translate(12166.653 -3632.326)" fill="#57853c"/><path d="M-12088.215,3737.443h-2.085V3707.7h2.085Zm-1.485-.6h.886V3708.3h-.886Z" transform="translate(12166.653 -3632.326)" fill="#57853c"/><g transform="translate(48.723 51.744)"><path d="M-3-3H13.822V13.822H-3ZM12.337-1.516H-1.516V12.337H12.337Z" transform="translate(3 3)" fill="#57853c"/><path d="M-3.3-3.3H14.122V14.122H-3.3Zm16.821.6H-2.7V13.522H13.522Zm-15.337.884H12.637V12.637H-1.816Zm13.853.6H-1.216V12.037H12.037Z" transform="translate(3 3)" fill="#57853c"/><path d="M-12172.5,3623.484h-14.985V3622h14.985Z" transform="translate(12188.228 -3614.331)" fill="#57853c"/><path d="M-12172.2,3623.784h-15.585V3621.7h15.585Zm-14.985-.6h14.386v-.884h-14.386Z" transform="translate(12188.228 -3614.331)" fill="#57853c"/><path d="M-12162.515,3609.009H-12164V3594h1.482Z" transform="translate(12171.665 -3593.257)" fill="#57853c"/><path d="M-12162.215,3609.309h-2.082V3593.7h2.082Zm-1.482-.6h.883V3594.3h-.883Z" transform="translate(12171.665 -3593.257)" fill="#57853c"/></g><g transform="translate(11.915 51.744)"><path d="M-3-3H13.822V13.822H-3ZM12.337-1.516H-1.516V12.337H12.337Z" transform="translate(3 3)" fill="#57853c"/><path d="M-3.3-3.3H14.122V14.122H-3.3Zm16.821.6H-2.7V13.522H13.522Zm-15.337.884H12.637V12.637H-1.816Zm13.853.6H-1.216V12.037H12.037Z" transform="translate(3 3)" fill="#57853c"/><path d="M-12172.5,3623.484h-14.985V3622h14.985Z" transform="translate(12188.228 -3614.331)" fill="#57853c"/><path d="M-12172.2,3623.784h-15.585V3621.7h15.585Zm-14.985-.6h14.386v-.884h-14.386Z" transform="translate(12188.228 -3614.331)" fill="#57853c"/><path d="M-12162.515,3609.009H-12164V3594h1.482Z" transform="translate(12171.665 -3593.257)" fill="#57853c"/><path d="M-12162.215,3609.309h-2.082V3593.7h2.082Zm-1.482-.6h.883V3594.3h-.883Z" transform="translate(12171.665 -3593.257)" fill="#57853c"/></g><g transform="translate(126.694 51.744)"><path d="M-3-3H13.822V13.822H-3ZM12.337-1.516H-1.516V12.337H12.337Z" transform="translate(3 3)" fill="#57853c"/><path d="M-3.3-3.3H14.122V14.122H-3.3Zm16.821.6H-2.7V13.522H13.522Zm-15.337.884H12.637V12.637H-1.816Zm13.853.6H-1.216V12.037H12.037Z" transform="translate(3 3)" fill="#57853c"/><path d="M-12172.5,3623.484h-14.985V3622h14.985Z" transform="translate(12188.228 -3614.331)" fill="#57853c"/><path d="M-12172.2,3623.784h-15.585V3621.7h15.585Zm-14.985-.6h14.386v-.884h-14.386Z" transform="translate(12188.228 -3614.331)" fill="#57853c"/><path d="M-12162.515,3609.009H-12164V3594h1.482Z" transform="translate(12171.665 -3593.257)" fill="#57853c"/><path d="M-12162.215,3609.309h-2.082V3593.7h2.082Zm-1.482-.6h.883V3594.3h-.883Z" transform="translate(12171.665 -3593.257)" fill="#57853c"/></g><g transform="translate(11.915 79.945)"><path d="M-3-3H13.822V13.822H-3ZM12.337-1.516H-1.516V12.337H12.337Z" transform="translate(3 3)" fill="#57853c"/><path d="M-3.3-3.3H14.122V14.122H-3.3Zm16.821.6H-2.7V13.522H13.522Zm-15.337.884H12.637V12.637H-1.816Zm13.853.6H-1.216V12.037H12.037Z" transform="translate(3 3)" fill="#57853c"/><path d="M-12172.5,3623.484h-14.985V3622h14.985Z" transform="translate(12188.228 -3614.331)" fill="#57853c"/><path d="M-12172.2,3623.784h-15.585V3621.7h15.585Zm-14.985-.6h14.386v-.884h-14.386Z" transform="translate(12188.228 -3614.331)" fill="#57853c"/><path d="M-12162.515,3609.009H-12164V3594h1.482Z" transform="translate(12171.665 -3593.257)" fill="#57853c"/><path d="M-12162.215,3609.309h-2.082V3593.7h2.082Zm-1.482-.6h.883V3594.3h-.883Z" transform="translate(12171.665 -3593.257)" fill="#57853c"/></g><g transform="translate(126.694 79.945)"><path d="M-3-3H13.822V13.822H-3ZM12.337-1.516H-1.516V12.337H12.337Z" transform="translate(3 3)" fill="#57853c"/><path d="M-3.3-3.3H14.122V14.122H-3.3Zm16.821.6H-2.7V13.522H13.522Zm-15.337.884H12.637V12.637H-1.816Zm13.853.6H-1.216V12.037H12.037Z" transform="translate(3 3)" fill="#57853c"/><path d="M-12172.5,3623.484h-14.985V3622h14.985Z" transform="translate(12188.228 -3614.331)" fill="#57853c"/><path d="M-12172.2,3623.784h-15.585V3621.7h15.585Zm-14.985-.6h14.386v-.884h-14.386Z" transform="translate(12188.228 -3614.331)" fill="#57853c"/><path d="M-12162.515,3609.009H-12164V3594h1.482Z" transform="translate(12171.665 -3593.257)" fill="#57853c"/><path d="M-12162.215,3609.309h-2.082V3593.7h2.082Zm-1.482-.6h.883V3594.3h-.883Z" transform="translate(12171.665 -3593.257)" fill="#57853c"/></g><g transform="translate(89.471 51.744)"><path d="M-3-3H13.822V13.822H-3ZM12.337-1.516H-1.516V12.337H12.337Z" transform="translate(3 3)" fill="#57853c"/><path d="M-3.3-3.3H14.122V14.122H-3.3Zm16.821.6H-2.7V13.522H13.522Zm-15.337.884H12.637V12.637H-1.816Zm13.853.6H-1.216V12.037H12.037Z" transform="translate(3 3)" fill="#57853c"/><path d="M-12172.5,3623.484h-14.985V3622h14.985Z" transform="translate(12188.228 -3614.331)" fill="#57853c"/><path d="M-12172.2,3623.784h-15.585V3621.7h15.585Zm-14.985-.6h14.386v-.884h-14.386Z" transform="translate(12188.228 -3614.331)" fill="#57853c"/><path d="M-12162.515,3609.009H-12164V3594h1.482Z" transform="translate(12171.665 -3593.257)" fill="#57853c"/><path d="M-12162.215,3609.309h-2.082V3593.7h2.082Zm-1.482-.6h.883V3594.3h-.883Z" transform="translate(12171.665 -3593.257)" fill="#57853c"/></g></g></g></svg>