<svg xmlns="http://www.w3.org/2000/svg" width="217" height="239" viewBox="0 0 217 239"><g transform="translate(-358 -5053.182)"><rect width="217" height="239" transform="translate(358 5053.182)" fill="#56853c"/><path d="M10162.434-1851.85l-1.084.761q-16.945,25.306-38.23,40.184-24.87,17.377-51.912,17.376a29.363,29.363,0,0,1-11.406-2.172q-6.841-2.824-6.84-8.037,6.079-15.312,20.635-31.387,3.475-3.909,26.826-26.716v19.439l.867.87q2.388.325,3.041-10.318.217-6.947.326-13.9l25.193-23.241a50.172,50.172,0,0,0,4.35-16.507l-.545-.87h-.762q-20.962,19.549-27.8,23.35,0-1.083.109-4.4c.068-2.209.107-3.964.107-5.267q0-19.875-10.863-19.875-14.227,0-24.217,12.054a39.689,39.689,0,0,0-9.34,25.848q0,8.255,6.516,11.3,1.521.761,13.793,3.475-16.292,18.79-23.352,30.951-10.857,18.682-10.859,36.6a16.154,16.154,0,0,0,6.3,13.142,21.638,21.638,0,0,0,14.117,4.778q26.607,0,51.154-17.92,21.4-15.746,36.381-41.269,8.036-13.792,8.254-17.594Zm-90.576-29.322-.65-1.085q0-3.8,7.711-7.712,7.061-3.584,11.51-3.584a8.649,8.649,0,0,1,6.953,3.258,11.533,11.533,0,0,1,2.713,7.6v2.171a42.6,42.6,0,0,1-12.6,2.173A49.7,49.7,0,0,1,10071.857-1881.172Z" transform="translate(-9628.73 7016.169)" fill="#fff"/><path d="M1644.834,1052.5h-.261c-2.878,2.436-8.244,12.859-4.7,16.866,3.271.518,6-.216,7.316-1.946,2.866-3.762-.165-8.945-3.4-10.812C1643.7,1055.135,1646.4,1053.1,1644.834,1052.5Zm2.09,11.244a7.043,7.043,0,0,1-6.27,2.162c-.906-1.941.436-3.792,1.045-5.19A11.437,11.437,0,0,1,1646.924,1063.74Z" transform="translate(817.564 7013.518) rotate(-134)" fill="#fff"/></g></svg>