<svg xmlns="http://www.w3.org/2000/svg" width="217" height="239" viewBox="0 0 217 239"><g transform="translate(-990 -3849.182)"><rect width="217" height="239" transform="translate(990 3849.182)" fill="#56853c"/><path d="M10510.466-751.13a57.264,57.264,0,0,1-12.074,1.267q-9.4,0-28.182-3.131-19.311-3.2-30.864-14.015-9.245-8.648-9.245-16.178,0-17.966,15.282-36.381,5.222-6.263,29.154-28.33a33.493,33.493,0,0,0,5.812-7.529,24.469,24.469,0,0,0,3.429-8.722,137.414,137.414,0,0,0,1.12-15.508q0-1.341-3.65-3.5-2.539,0-13.572,5.591-12.227,6.189-12.821,7.455a29.713,29.713,0,0,0-2.388,7.6,48.859,48.859,0,0,0-.968,7.6,9.652,9.652,0,0,0,1.788,5.368,21.463,21.463,0,0,1,2.462,4.622q-30.639,28.107-30.639,55.691a32.017,32.017,0,0,0,5.59,17.779,35.453,35.453,0,0,0,14.016,12.711q22.812,11.183,44.583,11.183,16.173,0,21.246-2.759l.373-.6Zm-29.97-119.73a40.5,40.5,0,0,1-9.02,12.674q-1.868,1.938-11.927,10.138a7.292,7.292,0,0,0,.369-2.311q0-2.832-4.171-9.17Q10461.49-866.907,10480.5-870.859Z" transform="translate(-6997.953 -2726.274) rotate(44)" fill="#fff"/></g></svg>