<svg xmlns="http://www.w3.org/2000/svg" xmlns:xlink="http://www.w3.org/1999/xlink" width="671.785" height="440.427" viewBox="0 0 671.785 440.427"><defs><clipPath id="a"><path d="M-666.385,99.957V540.384H-390.9a35.962,35.962,0,0,0,35.959-35.963v-368.5A35.961,35.961,0,0,0-390.9,99.957Z" transform="translate(666.385 -99.957)" fill="none"/></clipPath><clipPath id="b"><path d="M-449.175,99.957V540.384h275.483a35.964,35.964,0,0,0,35.963-35.963v-368.5a35.963,35.963,0,0,0-35.963-35.961Z" transform="translate(449.175 -99.957)" fill="none"/></clipPath></defs><g transform="translate(666.385 -99.957)"><g transform="translate(-666.385 99.957)"><g clip-path="url(#a)"><path d="M-666.386,540.384V99.957H-390.9a35.962,35.962,0,0,1,35.961,35.963v368.5A35.961,35.961,0,0,1-390.9,540.384Z" transform="translate(666.385 -99.957)" fill="#0f3c54"/><path d="M-472.227,313.449c20.914-10.78,86.053-34.433,105.151-40.978,2.84-1.33,6.4-18.255,3.527-17.178-17.769,6.156-79.432,27.359-102.5,39.9-2.439,1.541-8.373,19.795-6.176,18.253" transform="translate(794.009 2.368)" fill="#588031"/><path d="M-502.314,167.225c20.914-10.78,70.651-32.764,89.749-39.31,2.84-1.33,6.4-18.253,3.527-17.177-17.769,6.155-64.03,25.69-87.1,38.234-2.439,1.541-8.373,19.795-6.176,18.253" transform="translate(774.184 -92.886)" fill="#588031"/><path d="M-544.625,157.512c-1.254,2.155-2.81,4.972-3.827,5.534-2.522,1.382-11.059-3.308-9.716-14.793,1-8.6,8.349-22.515,11.294-28.491,5.717-11.546,5.573-17.062,2.553-12.975-3.338,4.521-18.572,28.794-22.195,44-4.974,20.884,5.246,28.451,10.118,28.675,6.11.277,11.812-7.676,14.607-17.373,1.929-6.652.312-10.005-2.833-4.577" transform="translate(731.316 -96.34)" fill="#588031"/><path d="M-466.984,122.625c-1.03,2.067-2.3,4.768-3.207,5.347-2.25,1.43-10.426-2.394-9.874-13.1.4-8.018,6.369-21.324,8.734-27.026,4.594-11.022,4.129-16.115,1.583-12.153-2.815,4.383-15.448,27.744-17.885,42.023-3.344,19.612,6.559,26,11.078,25.911,5.667-.109,10.463-7.809,12.465-16.943,1.385-6.268-.312-9.272-2.895-4.063" transform="translate(783.727 -116.822)" fill="#588031"/><path d="M-351.9,289.879c-39.785,0-133.232,86.089-151.344,87.266-18.681,1.213-17.761-25.544,2.57-55.551,0,.166,1.752-8.519-2.515-4.536-30.528,40.656-33.356,90.753-6.855,90.753a26.452,26.452,0,0,0,9.224-2.089l21.575-12.017c32.932-21.737,79.23-60.948,117.91-60.948,8.346,0,20.017,4.157,28.31,12.472a1.314,1.314,0,0,0,2.337-.747c1.876-13.642,4.607-32.749,4.736-39.755-6.521-9.713-15.262-14.848-25.948-14.848" transform="translate(757.471 25.191)" fill="#588031"/><path d="M-461.472,218.658c-22.814,0-35.153,27.184-35.153,48.456,0,34.5,27.021,30.412,61.922,28.395-1.972-9.159-8.434-27.311-16.115-31.031-16.686,1.262-28.2-.994-28.2-6.082,0-5.566,4.743-9.207,10.116-9.013,15.184.551,37.135,28.544,36.6,51.59-23.915,27.336-61.993,45.5-142.5,63.075-1.637.357-1.974,4.562-.4,4.9,107.221,23.285,160.6-16.867,158.386-84.666-.939-28.663-18.4-65.626-44.66-65.626" transform="translate(725.798 -21.739)" fill="#588031"/><path d="M-523.466,119.915a13.74,13.74,0,0,0,13.741-13.741,13.74,13.74,0,0,0-13.741-13.739,13.739,13.739,0,0,0-13.739,13.739,13.74,13.74,0,0,0,13.739,13.741" transform="translate(751.508 -104.914)" fill="#588031"/><path d="M-443.2,129.055A13.74,13.74,0,0,0-456.945,142.8,13.74,13.74,0,0,0-443.2,156.535,13.739,13.739,0,0,0-429.465,142.8,13.74,13.74,0,0,0-443.2,129.055" transform="translate(804.395 -80.783)" fill="#588031"/><path d="M-490.191,106.174a13.74,13.74,0,0,0-13.741-13.739,13.739,13.739,0,0,0-13.739,13.739,13.741,13.741,0,0,0,13.739,13.741,13.741,13.741,0,0,0,13.741-13.741" transform="translate(764.38 -104.914)" fill="#588031"/><path d="M-549.942,324.157c8.63-.166,15.936-11.891,18.985-25.8,2.11-9.547-.474-14.123-4.409-6.188-1.569,3.149-3.5,7.26-4.884,8.144-3.426,2.176-15.88-3.646-15.04-19.946.619-12.212,9.7-32.479,13.3-41.163,7-16.785,6.287-24.544,2.409-18.511-4.287,6.676-23.525,42.258-27.238,64.005-5.095,29.869,9.989,39.594,16.873,39.461" transform="translate(731.317 -21.74)" fill="#588031"/><path d="M-452.439,200.514a.663.663,0,0,0-.03.06l.7,1.234c-.41-.8-.669-1.294-.669-1.294m-4.755,22.31c-14.654,4.4-24.486-1.024-26.23-7.407-1.121-4.3-1.145-23.011-1.062-42.607,6.115-4.293,12.223-10.989,15.131-22.512l-.388-3.331c-2.46,2.306-8.34,4.849-14.665,7.338.035-13.879-.046-25.893-.635-30.591H-488.9c-6.259,6.467-13.524,16.488-15.354,20.171l.6,18.376c-38.459,15.33-56.016,37.1-61.164,49.284-3.837,9.045-6.548,16.857-6.548,23.323,0,15.125,10.994,22.879,32.051,21.022,11.891-1.107,25.1-5.9,29.116-14.4a122.145,122.145,0,0,0,5.894-13.844c.025,15.163,13.781,32.1,38.136,29.634,10.13-1.025,22.582-9.358,22.582-9.358-1.239-1.153-11.589-12.452-13.6-25.095m-47.368-16.069c0,11.649-50.951,19.2-50.951,6.649h0c0-2,11.921-14.6,51.132-29.747-.005.32-.179,21.832-.179,23.1" transform="translate(728.994 -84.303)" fill="#588031"/><path d="M-389.757,150.088c-29.458-1.133-59.166,42.877-65.845,53.41a2.042,2.042,0,0,1-3.237.3,82.72,82.72,0,0,1-10.055-13.172,111.763,111.763,0,0,1-7.359-16.667,2.056,2.056,0,0,0-3.834-.08,94.91,94.91,0,0,1-8.036,15.609c-5.244,8.086-9.347,12.243-11.206,13.919a2.032,2.032,0,0,0-.541,2.294c1.516,3.718,5.967,14.018,10.737,19.255,5.886,6.462,22.429,26.515,68.493,21,41.7-4.992,67.556-18.016,73.347-43.108s-9.008-51.47-42.464-52.756m-16.513,59.619c-17.2.788-25.714.129-29.735-.5a2.046,2.046,0,0,1-1.248-3.334c5.954-7.155,23.905-26.853,40.419-25.974,20.159,1.072,33.67,19.3,33.67,21.017s-16.1,7.556-43.106,8.792" transform="translate(776.01 -66.938)" fill="#588031"/><path d="M-511.927,328.431a90.47,90.47,0,0,1-30.229-1.682c-11.3-2.52-23.336-9.464-23.336-9.464s2.946,33.224,31.938,28.993c0,0-3.444,29.058,15.46,28.98,0,0-2.044-11.787-.67-22.207a90.573,90.573,0,0,1,6.838-24.62" transform="translate(732.867 43.251)" fill="#588031"/><path d="M-433.338,122.5-444.554,89.36S-415.9,100.15-401.7,131.8c13.227,29.494,6.613,49.9,5.763,50.16-1.2.368-.592-25.4-16.865-42.469-13.308-13.96-20.536-17-20.536-17" transform="translate(812.56 -106.94)" fill="#588031"/><path d="M-476.218,202.958s-9.473,31-6.687,35,23.552-30.543,23.552-30.543Z" transform="translate(786.95 -32.085)" fill="#588031"/><path d="M-445.42,327.505s56.572,12.988,36.688,51.205c-12.122,23.3-39.125,9.8-56.341,11.523s-27.844,14.876-27.844,14.876,3.266-23.61,23.144-30.858c15.667-5.713,24.659-.025,24.659-.025s-2.819-8.887,3.21-15c4.2-4.264,12.649-2.93,12.649-2.93s-7.626,10.058.327,12.726S-410.7,359.277-418,350.6c-15.113-17.976-34.493-15.631-34.493-15.631Z" transform="translate(780.691 49.985)" fill="#588031"/><path d="M-441.335,283.946c0,3.475,6.382-.307,9.707-4.594s9.3-17.46,19.576-19.274,33.239-2.417,33.239-2.417,1.813-11.785,4.836-19.944,6.345-14.806,6.345-14.806-24.879-3.374-40.492,12.389c-12.8,12.926-13.306,21.362-16.327,20.455,0,0,.219-1.833,2.931-7.065a23.309,23.309,0,0,0,.479-20.566c-3.626-8.461-20.322-9.466-20.322-9.466s-29.31,34.018-29.31,35.679,3.092,2.785,7.625,1.274,11.724-9.066,20.176-5.1c10.727,5.035,1.538,29.959,1.538,33.434" transform="translate(795.349 -21.739)" fill="#588031"/></g></g><g transform="translate(-644.568 450.639)"><path d="M-623.511,318.98a9.287,9.287,0,0,0-4.292,1.795,12.585,12.585,0,0,0-3.079,4.194A8.635,8.635,0,0,0-626,322.912a8.7,8.7,0,0,0,2.49-3.932m-2.8,3.616a7.731,7.731,0,0,1-3.782,1.8,11.026,11.026,0,0,1,2.558-3.273,8.684,8.684,0,0,1,3.351-1.569,7.893,7.893,0,0,1-2.1,3.021Z" transform="translate(667.963 -306.315)" fill="#f1ecdf"/><path d="M-642.785,320.775a9.277,9.277,0,0,0-4.29-1.795,8.688,8.688,0,0,0,2.485,3.928,8.63,8.63,0,0,0,4.884,2.06,12.561,12.561,0,0,0-3.079-4.194m-1.5,1.822-.025-.025a7.9,7.9,0,0,1-2.1-3.023,8.66,8.66,0,0,1,3.351,1.571,11.027,11.027,0,0,1,2.56,3.273,7.744,7.744,0,0,1-3.784-1.8" transform="translate(657.292 -306.315)" fill="#f1ecdf"/><path d="M-641.7,323.052a3.723,3.723,0,0,1,2.488,1.5l.778-.566a3.8,3.8,0,0,1-.29-2.8.124.124,0,0,0-.017-.108c-1.02-1.5-6.531-7.367-7.1-7.367a.049.049,0,0,0-.03.007c-.373.247,3.044,7.661,4.078,9.282a.118.118,0,0,0,.093.058m-2.8-7.422,4.186,5.918a.175.175,0,0,1-.042.244.173.173,0,0,1-.244-.041l-3.963-6.078a.038.038,0,0,1,.063-.042" transform="translate(658.069 -309.791)" fill="#f1ecdf"/><path d="M-641.677,320.793l.819-.589c-.038-.05-.071-.093-.1-.129l-.8.576c.023.041.048.088.078.143" transform="translate(660.798 -305.594)" fill="#f1ecdf"/><path d="M-640.13,317.156a.561.561,0,0,0,.6-.554.514.514,0,0,0-.567-.513.513.513,0,0,0-.386.161c.013-.3.148-.514.39-.514a.542.542,0,0,1,.352.143l.153-.221a.736.736,0,0,0-.5-.181c-.46,0-.7.387-.7.886a.809.809,0,0,0,.2.624.613.613,0,0,0,.453.169m-.013-.828a.3.3,0,0,1,.332.285.3.3,0,0,1-.325.3.3.3,0,0,1-.335-.3.3.3,0,0,1,.328-.287" transform="translate(661.441 -308.623)" fill="#f1ecdf"/><path d="M-639.212,317.156a.562.562,0,0,0,.6-.554.514.514,0,0,0-.567-.513.52.52,0,0,0-.388.161c.015-.3.149-.514.39-.514a.546.546,0,0,1,.353.143l.153-.221a.74.74,0,0,0-.5-.181c-.459,0-.7.387-.7.886a.808.808,0,0,0,.2.624.608.608,0,0,0,.453.169m-.015-.828a.3.3,0,0,1,.332.285.3.3,0,0,1-.325.3.3.3,0,0,1-.335-.3.3.3,0,0,1,.328-.287" transform="translate(662.046 -308.623)" fill="#f1ecdf"/><path d="M-633.352,316.557a.476.476,0,0,0,.382-.171c-.01.3-.153.509-.391.509a.537.537,0,0,1-.372-.153l-.156.217a.769.769,0,0,0,.519.2c.436,0,.7-.362.7-.886a.821.821,0,0,0-.2-.622.588.588,0,0,0-.449-.171.565.565,0,0,0-.606.562.515.515,0,0,0,.574.518m.033-.834a.307.307,0,0,1,.338.3.3.3,0,0,1-.328.294.3.3,0,0,1-.332-.292.3.3,0,0,1,.322-.3" transform="translate(665.957 -308.623)" fill="#f1ecdf"/><path d="M-631.862,316.877h-.773l.333-.279c.287-.234.423-.373.423-.63a.484.484,0,0,0-.536-.488.665.665,0,0,0-.6.342l.2.158c.126-.163.227-.244.375-.244a.243.243,0,0,1,.262.252c0,.146-.081.252-.3.44l-.559.474v.224h1.175Z" transform="translate(666.543 -308.621)" fill="#f1ecdf"/><path d="M-609.749,331.823l-1.573-.242-.826.466-.246.141-.239.134-.277-.045-.279-.043-.582-.091-.556-.088h0l-.859-.136c-.652.9-2.641,1.216-5.156,2.062l.055-.2c.02-.068.038-.136.06-.2.066-.232.139-.466.216-.7a21.593,21.593,0,0,1,.909-2.293,9.218,9.218,0,0,0,5.088-2.183,9.217,9.217,0,0,0,2.707-4.363l.178-.713-.733.061a9.755,9.755,0,0,0-4.748,1.943,13,13,0,0,0-3.182,4.273,7.4,7.4,0,0,1-1.921-.1l-.186-.04c-.061-.013-.119-.03-.179-.046l7.434-11.223h0l.735-1.116.156-.234-.036-.136a1.569,1.569,0,0,0-1.511-1.153,1.632,1.632,0,0,0-.217.015l-.138.02-.43.654-.461.7h0l-7.472,11.362c-.045-.038-.088-.08-.131-.121s-.086-.085-.126-.128a3.639,3.639,0,0,1-.841-3.726,1.72,1.72,0,0,1,1.032-1.2.542.542,0,0,1,.426.041.243.243,0,0,1,.035.022,1.07,1.07,0,0,1,.138,1.407.036.036,0,0,0-.01.041c.013.023.053.008.053.008a1.455,1.455,0,0,0,.557-2.211h0a1.554,1.554,0,0,0-1.465-.327,2.711,2.711,0,0,0-1.763,1.881,4.7,4.7,0,0,0,1.251,4.96c.042.041.085.083.129.121s.088.081.134.118l-3.122,4.745q.07,1.886.119,3.625c0,.04,0,.131,0,.171.017-.015.119-.163.119-.163l4.794-7.238.013.005.027-.066,0,0,.053-.08-.055.158.131.043c.058.018.118.035.178.051a7.5,7.5,0,0,0,2.04.231c-.262.6-.5,1.233-.717,1.878-.162.494-.305.98-.426,1.455-.017.07-.035.136-.05.2l-.05.207a19.74,19.74,0,0,0-3.544,1.782,15.73,15.73,0,0,0-2.127,1.6c-.051.046-.1.093-.148.138l-.128.124c-.035.033-.068.068-.1.1l0,.068c0,.043,0,.085,0,.129.01.4.022.795.032,1.183l.6-.34.153-.088.153-.086,4.771-2.7.486-.275.182-.1.488-.275,5.921-3.353h0l.544.095-6.533,3.7-.476.269-.179.1-.476.269v0l-4.536,2.565-.153.088-.153.085v0l-.79.446c0,.134.008.27.012.4l.975-.551.153-.086.154-.086,4.31-2.437.464-.262.176-.1.464-.262,7.155-4.045h0l.272.047.272.048-7.736,4.371-.456.259-.172.1-.453.255-4.106,2.321-.153.088-.154.086-1.16.655c.013.569.025,1.12.036,1.657,0,.025,0,.05,0,.076l1.944-1.141.3-.177,3.4-1.991c.007.043.015.085.022.128l.01.056c.01.041.017.085.026.124l.01.058a5.584,5.584,0,0,0,.4,1.2,3.571,3.571,0,0,0,2.092,1.926,4.267,4.267,0,0,0-.086.423,5.118,5.118,0,0,0-.061,1.042,6.387,6.387,0,0,0-3.29.849c-.051.03-.1.06-.151.091s-.1.061-.149.095c-.8-1.213-1.584-2.406-2.328-3.534l-1.969,1.153c.834,1.266,1.724,2.616,2.625,3.981-.038.051-.075.1-.11.153s-.071.1-.106.154a8.976,8.976,0,0,0-1.284,3.109,6.69,6.69,0,0,0-1.214-.387c-.116-.023-.231-.046-.35-.063,0-1.885-.023-4.124-.07-6.647,0-.027,0-.051,0-.076,0-.041,0-.083,0-.126v-.076c0-.04,0-.081,0-.123v-.048l0-.03,0-.3c0-.109,0-.217-.007-.328q-.01-.51-.023-1.037c0-.066,0-.133,0-.2s0-.133,0-.2l-.01-.4-.01-.4c-.007-.287-.015-.577-.023-.871,0-.1,0-.2-.008-.307v-.035c0-.085,0-.168-.008-.252v-.017c0-.076,0-.156-.007-.234,0-.116-.007-.234-.008-.352s-.008-.222-.012-.333l-.01-.333c-.025-.835-.055-1.687-.085-2.558,0-.1-.007-.2-.012-.3v0c0-.1-.007-.2-.01-.3-.026-.727-.055-1.467-.086-2.215-.307-7.479-.317-11.523-.217-12.129.617.637,1.136,1.194,1.641,1.659a2.446,2.446,0,0,0,.375.267c.056.03.124.053.166.022a.125.125,0,0,0,.036-.083v0a.507.507,0,0,0-.008-.144,33.824,33.824,0,0,0-1.18-4.288c-.4-1.168-1.6-4.152-2.107-5.41a.336.336,0,0,0-.042-.071l-.028-.028a.262.262,0,0,0-.411.093c-.415.949-1.219,2.819-1.4,3.472a.474.474,0,0,0,.037.35,3.361,3.361,0,0,1,.632,1.876q.017,6.517-.042,9.967.052,3.038.106,5.888l0,.312c0,.1,0,.207.007.312q.035,1.983.071,3.864c0,.04,0,.076,0,.115,0,.066,0,.133,0,.2l0,.05v.015c0,.078,0,.158,0,.234v.093c0,.109,0,.221.007.33q.01.5.02,1c0,.136.005.27.008.406v0c0,.139.005.275.008.413,0,.068,0,.136,0,.2l0,.2c.008.41.015.816.025,1.218,0,.1,0,.2.007.305v0c0,.06,0,.118,0,.178,0,.027,0,.051,0,.078v.051c0,.027,0,.051,0,.076l0,.078c0,.043,0,.085,0,.128,0,.027,0,.053,0,.078.05,2.425.1,4.67.148,6.712-.116.017-.234.037-.35.06a6.533,6.533,0,0,0-1.316.4,8.932,8.932,0,0,0-1.355-3.212c-.035-.051-.07-.1-.108-.153s-.073-.1-.111-.149l2.613-3.943-1.881-1.1-2.333,3.545c-.048-.032-.1-.065-.148-.095s-.1-.061-.151-.091a6.4,6.4,0,0,0-3.288-.848,5.127,5.127,0,0,0-.061-1.042c-.023-.141-.051-.282-.086-.423a3.557,3.557,0,0,0,2.09-1.926,5.442,5.442,0,0,0,.4-1.216.533.533,0,0,0,.012-.056l.025-.124.01-.058c.007-.041.015-.085.022-.128l3.4,1.991.151.09.153.09,1.8,1.057V342.3c-.013-.559-.023-1.125-.037-1.694l-.945-.536-.153-.086-.154-.088-4.108-2.321-.451-.254-.171-.1-.458-.259-7.707-4.356.27-.047.274-.046,7.127,4.028.468.262.174.1.463.26,4.313,2.437.153.086.153.086.745.423c0-.138,0-.277-.007-.415l-.541-.307-.154-.086-.153-.088-4.536-2.566-.474-.267v0l-.178-.1-.478-.269-6.506-3.683.546-.095,5.893,3.334.489.277.181.1.488.275,4.769,2.7.153.086.154.088.338.191c-.005-.227-.008-.456-.013-.687,0-.1,0-.206-.007-.31l0-.31,0-.036c0-.073,0-.144,0-.219-.106-.1-.217-.2-.335-.3a16.44,16.44,0,0,0-1.813-1.32,19.862,19.862,0,0,0-3.562-1.788c-.016-.07-.032-.139-.05-.207s-.031-.136-.048-.2a21.577,21.577,0,0,0-1.138-3.328,7.174,7.174,0,0,0,2.273-.3c.017,0,.045-.017.068-.023l.027-.01c.025-.01.048-.018.073-.03v0l.161-.066c1.141,2.014,2.432,4.247,3.134,5.314l1.141,1.734c.021.03.04.061.061.091l0-.04c-.025-1.369-.051-2.759-.078-4.159-.765-1.062-1.827-2.467-2.829-3.771.047-.035.093-.071.138-.109s.091-.075.136-.114a4.716,4.716,0,0,0,1.5-5.191,2.71,2.71,0,0,0-1.762-1.881,1.557,1.557,0,0,0-1.467.327,1.454,1.454,0,0,0,.557,2.211s.04.015.051-.008a.034.034,0,0,0-.008-.041,1.066,1.066,0,0,1,.138-1.407l.03-.02a.547.547,0,0,1,.431-.043,1.72,1.72,0,0,1,1.032,1.2,3.666,3.666,0,0,1-1.148,4.02c-.045.04-.088.078-.136.115l-.138.109c-.747-.967-1.407-1.815-1.815-2.336l-.864.622c.313.564.8,1.448,1.37,2.454-.028.013-.055.025-.085.036l-.08.027c-.056.018-.116.035-.174.05a6.867,6.867,0,0,1-2.243.176,13,13,0,0,0-3.192-4.273,9.756,9.756,0,0,0-4.748-1.943l-.732-.061.176.713A9.232,9.232,0,0,0-644.1,328.4a9.229,9.229,0,0,0,5.088,2.183,21.2,21.2,0,0,1,.909,2.293c.076.234.148.465.214.693.02.068.04.136.06.2s.037.136.055.2c-2.505-.838-4.482-1.158-5.131-2.052l-.859.136-.554.09h0l-.579.091-.28.045-.277.043-.242-.136-.245-.141-.828-.466-1.573.242a.12.12,0,0,0-.041.222l.735.431.151.09,10.237,6c0,.045-.01.09-.017.134,0,.02,0,.038-.007.056,0,.045-.012.09-.017.133,0,.018-.005.038-.01.056a4.787,4.787,0,0,1-.385,1.33,2.509,2.509,0,0,1-1.49,1.387,8.185,8.185,0,0,0-3.139-3.389l-.234.372a7.785,7.785,0,0,1,2.94,3.127c-.058.012-.119.02-.181.027a7.645,7.645,0,0,0-2.852-3l.025-.042-.025.04a8.681,8.681,0,0,0-4.521-1.083,8.69,8.69,0,0,0,3.084,3.48,7.635,7.635,0,0,0,2.424.907l.007,0a6.62,6.62,0,0,0,1.185.158h.012l.022,0,.018,0h.018l.012,0c.11,0,.216,0,.32,0a3.608,3.608,0,0,0,.453-.045c.06-.007.116-.018.172-.03l0,0a2.842,2.842,0,0,0,.425-.116,2.938,2.938,0,0,0,1.719-1.6,5.108,5.108,0,0,0,.395-1.279.332.332,0,0,0,.01-.056c.008-.043.017-.086.022-.129,0-.02.007-.038.008-.058.008-.043.013-.086.018-.131l.161.095c0,.045-.012.088-.018.131,0,.02-.007.038-.008.056-.007.043-.015.086-.021.129l-.01.056a5.142,5.142,0,0,1-.4,1.261,3.116,3.116,0,0,1-1.822,1.687,3.758,3.758,0,0,1-.423.118c-.015,0-.031.005-.046.01-.041.008-.085.015-.126.022a4.32,4.32,0,0,1-.45.051c-.1.007-.194.008-.294.008l-.164,0h-.005a6.83,6.83,0,0,1-1.233-.163v0a7.831,7.831,0,0,1-2.475-.927,8.922,8.922,0,0,1-3.21-3.675l-.048-.113.121-.01a8.923,8.923,0,0,1,4.755,1.1l.226-.377a9.244,9.244,0,0,0-5.017-1.163l-.727.063.287.67a9.217,9.217,0,0,0,3.386,3.879,8.238,8.238,0,0,0,2.608.982l.06.013.008,0a7.326,7.326,0,0,0,1.2.158h0c.257.018.481.025.662.025h0c.03.116.055.231.073.347a4,4,0,0,1,.036.956,9.4,9.4,0,0,0-1.579.365l-.021.007a8.338,8.338,0,0,0-2.663,1.341,9.212,9.212,0,0,0-2.912,4.247l-.207.7.73-.025a9.225,9.225,0,0,0,4.848-1.739,7.646,7.646,0,0,0,1.276-1.257c.033-.04.066-.08.1-.119.046-.061.095-.123.139-.183a7.542,7.542,0,0,0,.75-1.186l0-.005a5.969,5.969,0,0,0,.443-1.174c.03,0,.061,0,.091,0a5.312,5.312,0,0,1,2.779.682c.051.028.1.058.151.09l.148.095-8.872,13.489a.1.1,0,0,0,.08.149l.023,0,.77-.192a.086.086,0,0,0,.056-.041,7.622,7.622,0,0,1,3.572-3.237.96.96,0,0,0,.481-.378l5.45-8.225c.035.051.07.1.1.158s.07.108.1.163a8.234,8.234,0,0,1,1.02,2.767,7.959,7.959,0,0,0-2.4,2.444l-.015.022a7.562,7.562,0,0,0-.73,1.349l0,.007-.008.017a9.215,9.215,0,0,0-.391,5.134l.171.71.619-.387a9.2,9.2,0,0,0,3.323-3.933,7.428,7.428,0,0,0,.305-.909,8.128,8.128,0,0,0,.2-1.015c0-.018.007-.038.008-.058a11.068,11.068,0,0,0,.055-2.815,5.632,5.632,0,0,1,1.17-.408c.119-.027.237-.05.35-.068.051,2.08.1,3.932.154,5.529a35.36,35.36,0,0,1-.307,5.45c-.217,1.141-.577,2.135-.338,2.158a.179.179,0,0,0,.118-.066.842.842,0,0,0,.071-.078v0a.718.718,0,0,0,.053-.068,5.071,5.071,0,0,0,.36-.586c.037-.066.073-.138.113-.211.025-.05.051-.1.076-.153s.051-.1.078-.159l.04-.083c.027-.056.055-.113.081-.171l.015-.033c.015-.035.035-.078.058-.128l.038-.088.02-.048.028-.065q.03-.067.06-.144c.012-.025.021-.051.033-.078.027-.066.055-.134.083-.207l.091-.234.031-.085c.032-.085.065-.173.1-.265.013-.032.023-.063.035-.095.023-.063.045-.129.068-.2.035-.1.07-.2.1-.312.106-.323.216-.679.323-1.062.047-.169.093-.345.139-.526a22.233,22.233,0,0,0,.59-3.384q.142-1.53.166-3.175,0-.66,0-1.413c.116.02.232.046.35.076a5.514,5.514,0,0,1,1.042.377,11.163,11.163,0,0,0,.048,2.77c0,.035.008.07.015.1a7.7,7.7,0,0,0,.5,1.924,9.205,9.205,0,0,0,3.325,3.933l.619.387.171-.71a9.215,9.215,0,0,0-.391-5.134l-.008-.017,0-.007a7.625,7.625,0,0,0-.728-1.345l0,0a7.984,7.984,0,0,0-2.412-2.464,8.2,8.2,0,0,1,.954-2.654c.031-.056.066-.111.1-.168s.068-.108.1-.161c2.7,4.088,5.4,8.189,6.929,10.509l.241.367.46.7.431.654.138.02a1.9,1.9,0,0,0,.217.013,1.569,1.569,0,0,0,1.511-1.153l.035-.134h0l-.156-.236-.539-.818,0,0c-1.553-2.354-4.632-7.024-7.64-11.588l.148-.095c.05-.03.1-.061.151-.09a5.318,5.318,0,0,1,2.777-.682,9.578,9.578,0,0,0,.546,1.2l.018.032a7.663,7.663,0,0,0,.864,1.321l.007.008c.03.038.06.075.091.111a7.705,7.705,0,0,0,1.276,1.257,9.216,9.216,0,0,0,4.847,1.739l.728.025-.207-.7a9.215,9.215,0,0,0-2.91-4.247,8.294,8.294,0,0,0-2.563-1.309l-.086-.028a9.416,9.416,0,0,0-1.614-.375,4.015,4.015,0,0,1,.036-.956c.018-.116.043-.231.073-.347h0c.179,0,.4-.007.66-.025h0a6.881,6.881,0,0,0,1.133-.144c.018,0,.037-.007.055-.012a.683.683,0,0,0,.083-.017,8.183,8.183,0,0,0,2.608-.982,9.2,9.2,0,0,0,3.386-3.879l.289-.67-.727-.063a9.249,9.249,0,0,0-5.018,1.163,8.233,8.233,0,0,0-3.147,3.4,2.51,2.51,0,0,1-1.49-1.387,4.818,4.818,0,0,1-.385-1.319c0-.018,0-.036-.008-.056-.007-.043-.012-.088-.018-.131l-.007-.058-.015-.133,10.257-6.014.151-.09.735-.431a.12.12,0,0,0-.043-.222m-14.738-3.125v0c-.045-.04-.086-.083-.129-.123a4.59,4.59,0,0,1-.926-1.317,4.229,4.229,0,0,1-.154-3.127,2.316,2.316,0,0,1,1.458-1.6,1.122,1.122,0,0,1,1.032.206.059.059,0,0,1,.023.018l.005.005a1.145,1.145,0,0,1,.126,1.367c-.015.023-.036.007-.028-.017a1.155,1.155,0,0,0-.216-1.221l-.005,0a.265.265,0,0,0-.033-.027.952.952,0,0,0-.859-.158,2.146,2.146,0,0,0-1.335,1.486,3.959,3.959,0,0,0,1.023,4.219c.041.043.085.085.128.124s.086.083.131.121l-.108.164c-.045-.038-.09-.078-.133-.118m3.459,5.523c.017-.068.033-.138.053-.206v0c.015-.068.033-.133.053-.2a21.727,21.727,0,0,1,1.329-3.612,7.954,7.954,0,0,1-2.487-.151c-.061-.015-.121-.031-.179-.046s-.119-.035-.176-.055l.1-.153c.058.018.115.037.176.053s.119.032.181.045a7.906,7.906,0,0,0,2.472.126,12.81,12.81,0,0,1,3.165-4.35,9.455,9.455,0,0,1,4.512-1.85l.123-.01-.03.119a8.9,8.9,0,0,1-2.576,4.142,8.854,8.854,0,0,1-5.088,2.11,21.509,21.509,0,0,0-1.336,3.562c-.018.068-.036.136-.055.2s-.035.138-.053.207l-.186.066m-13-5.43c.046-.036.09-.075.134-.114a4.024,4.024,0,0,0,1.311-4.489,2.146,2.146,0,0,0-1.335-1.486.954.954,0,0,0-.861.158l-.033.027,0,0a1.155,1.155,0,0,0-.216,1.221c.007.023-.015.04-.028.017a1.145,1.145,0,0,1,.124-1.367l.005-.005.023-.018a1.125,1.125,0,0,1,1.034-.206,2.316,2.316,0,0,1,1.458,1.6,4.245,4.245,0,0,1-.154,3.127,4.607,4.607,0,0,1-1.2,1.574l-.136.114c-.045.035-.09.071-.138.106-.04-.05-.08-.1-.116-.151.045-.035.091-.071.136-.109m-3.3,5.149c-.018-.068-.036-.136-.056-.2a21.3,21.3,0,0,0-1.334-3.555,8.849,8.849,0,0,1-5.09-2.113,8.919,8.919,0,0,1-2.575-4.139l-.03-.119.123.01a9.449,9.449,0,0,1,4.512,1.85,12.768,12.768,0,0,1,3.165,4.35,7.512,7.512,0,0,0,2.764-.2c.058-.018.116-.036.171-.056v0l0,0,.158-.066c.028.05.058.1.086.154l-.161.068-.018.008h0l0,0c-.047.015-.1.033-.146.046a7.511,7.511,0,0,1-2.764.226,21.67,21.67,0,0,1,1.329,3.6c.018.066.037.134.053.2s.035.138.053.206c-.061-.023-.124-.045-.187-.066-.015-.068-.033-.138-.051-.206m-3.059,7.885h-.031a9.377,9.377,0,0,1-1.019-.126l-.035-.007-.1-.022v0a7.176,7.176,0,0,1-2.291-.858,7.9,7.9,0,0,1-2.566-2.658,7.95,7.95,0,0,1,3.542,1.009l.008.007a7.345,7.345,0,0,1,2.6,2.656c-.031,0-.063,0-.095,0l-.012,0m1.029,1.349c-.016-.1-.035-.194-.058-.29,0-.027-.012-.051-.018-.076l.038-.007.136-.027a3.6,3.6,0,0,1,.075.372,4.6,4.6,0,0,1,.053.989c-.06,0-.119.008-.177.013a4.471,4.471,0,0,0-.048-.974m-2.847,5.086a7.913,7.913,0,0,1-3.407,1.422,7.9,7.9,0,0,1,2.238-2.938,6.956,6.956,0,0,1,1.871-1.012l0,0c.1-.035.193-.07.289-.1l.026-.008a9.056,9.056,0,0,1,1.181-.3,4.787,4.787,0,0,1-.211.5l0,.007a7.593,7.593,0,0,1-1.986,2.425m8.555-.748c-.035-.055-.071-.108-.106-.159s-.071-.1-.108-.153a6.4,6.4,0,0,0-.931-1.037,5.976,5.976,0,0,0-.647-.5l-.146-.095c-.05-.032-.1-.061-.153-.091a5.7,5.7,0,0,0-2.872-.756c-.048,0-.1,0-.146,0-.1,0-.209,0-.317.013-.045,0-.09,0-.133.008-.061,0-.121.01-.182.018-.151.015-.307.035-.464.063a9.111,9.111,0,0,0-1.476.382c-.048.015-.093.032-.141.048l-.186.063v0a7.42,7.42,0,0,0-1.986,1.075,8.711,8.711,0,0,0-2.658,3.814,8.67,8.67,0,0,0,4.365-1.6,7,7,0,0,0,1.178-1.165l0,0a7.183,7.183,0,0,0,.919-1.394c.01-.017.018-.035.027-.051a5.52,5.52,0,0,0,.307-.778c.021,0,.043-.007.065-.008l.124-.015a5.554,5.554,0,0,1-.325.854l-.013.027a7.435,7.435,0,0,1-.967,1.478l0,0h0a7.184,7.184,0,0,1-1.2,1.19,8.929,8.929,0,0,1-4.594,1.651l-.121,0,.035-.118a8.906,8.906,0,0,1,2.759-4.025,7.581,7.581,0,0,1,2.031-1.1v0l.066-.025c.035-.013.07-.027.106-.038l.027-.01a9.33,9.33,0,0,1,1.7-.436c.153-.025.305-.043.456-.058.06-.007.121-.01.181-.015.151-.01.3-.018.448-.018h.167a5.955,5.955,0,0,1,2.92.775c.051.03.1.06.151.091s.1.061.148.093a6.083,6.083,0,0,1,.667.513,6.441,6.441,0,0,1,.917,1.012c.038.051.075.1.109.153s.071.1.106.158a8.592,8.592,0,0,1,1.206,2.989l-.158.1a8.489,8.489,0,0,0-1.153-2.931m3.052,2.878a5.892,5.892,0,0,0-1.218.4c-.043.02-.088.04-.129.063-.094.043-.189.093-.282.144l-.119.068-.045.027c-.138.081-.275.169-.408.264a7.521,7.521,0,0,0-2.006,2.14,7.01,7.01,0,0,0-.672,1.246l0,.008a7.882,7.882,0,0,0-.539,2.953,9.049,9.049,0,0,0,.151,1.677,8.688,8.688,0,0,0,2.974-3.575,6.646,6.646,0,0,0,.275-.823,7.763,7.763,0,0,0,.166-.8.992.992,0,0,0,.015-.1,10.6,10.6,0,0,0,.1-2.513c.021-.015.046-.03.07-.045s.063-.038.1-.056a10.733,10.733,0,0,1-.09,2.641c0,.035-.01.071-.017.108-.043.26-.1.523-.161.783l-.007.03a6.8,6.8,0,0,1-.284.849,8.921,8.921,0,0,1-3.149,3.728l-.1.065-.028-.118a8.92,8.92,0,0,1,.372-4.867l0,0,.159.071-.159-.073.007-.013a10.438,10.438,0,0,1,.609-1.15l.045-.071a7.681,7.681,0,0,1,2.157-2.284l0,.025c.2-.149.323-.227.328-.231l.073-.046.017-.01.013-.008.133-.075c.088-.046.178-.093.269-.134.046-.023.093-.045.141-.066a6.011,6.011,0,0,1,1.242-.4c.116-.025.232-.045.35-.063,0,.058,0,.116,0,.176-.12.018-.234.038-.35.065m-4.474,4.526a9.815,9.815,0,0,1,.561-1.065l0-.007a8.574,8.574,0,0,1,1.674-1.865,8.854,8.854,0,0,1-.035,2.032l-.015.1c-.043.257-.1.516-.161.772a6.316,6.316,0,0,1-.255.761,7.916,7.916,0,0,1-2.238,2.938c-.023-.252-.042-.549-.042-.879a7.421,7.421,0,0,1,.5-2.767l.008-.018m12.593-.232a8.912,8.912,0,0,1,.37,4.867l-.026.118-.1-.065a8.91,8.91,0,0,1-3.149-3.728,6.521,6.521,0,0,1-.282-.849h0l-.007-.03c-.061-.249-.115-.5-.156-.746l-.007-.037a10.823,10.823,0,0,1-.106-2.751c.033.018.066.038.1.058a.805.805,0,0,1,.07.045,10.565,10.565,0,0,0,.118,2.648v0c.031.2.071.4.121.607.01.038.018.076.028.114l.01.047h0a6.647,6.647,0,0,0,.276.823,8.688,8.688,0,0,0,2.973,3.575,8.663,8.663,0,0,0-.388-4.63l0-.008a6.839,6.839,0,0,0-.665-1.236l-.007-.01c-.043-.068-.088-.136-.133-.2-.017-.025-.033-.048-.051-.073-.03-.045-.061-.09-.095-.133-.047-.066-.095-.131-.144-.2-.021-.028-.043-.058-.066-.085-.134-.171-.272-.333-.416-.488l-.119-.126-.008-.008-.008-.008q-.04-.042-.085-.085c-.03-.03-.06-.06-.091-.088s-.08-.076-.121-.113-.1-.09-.151-.134c-.025-.022-.051-.045-.08-.066-.1-.083-.2-.159-.3-.234-.046-.035-.091-.068-.139-.1q-.2-.142-.408-.264c-.015-.008-.028-.018-.043-.025-.04-.025-.079-.048-.121-.07-.093-.051-.186-.1-.28-.144-.043-.022-.086-.041-.129-.061a5.733,5.733,0,0,0-1.1-.378c-.116-.028-.232-.053-.35-.071v-.181c.118.02.234.043.35.071a6.008,6.008,0,0,1,1.128.377l.141.065v0c.091.043.179.086.267.134l.162.091v0l.075.046c.005,0,.129.081.328.231l0-.027a7.655,7.655,0,0,1,2.142,2.264l.018.027a10.189,10.189,0,0,1,.652,1.218l0,.012v0l0,0m-.569.232.008.018a7.939,7.939,0,0,1,.458,3.646,7.9,7.9,0,0,1-2.24-2.938,6.655,6.655,0,0,1-.255-.761h0c-.065-.257-.118-.516-.161-.773l-.015-.1a8.868,8.868,0,0,1-.035-2.034,8.539,8.539,0,0,1,1.674,1.866l.007.013a9.816,9.816,0,0,1,.557,1.058m6.448-9.828.043.017c.051.017.1.036.156.056v0a7.631,7.631,0,0,1,2.031,1.1,8.9,8.9,0,0,1,2.759,4.025l.035.118-.121,0a8.929,8.929,0,0,1-4.594-1.651,7.128,7.128,0,0,1-1.2-1.191,9.092,9.092,0,0,1-.97-1.475l-.012-.023v0l0,0c-.176-.335-.307-.632-.4-.861l.073.007.126.015c.09.217.212.486.37.786l.007.012a9.117,9.117,0,0,0,.941,1.433,7.113,7.113,0,0,0,1.178,1.163,8.678,8.678,0,0,0,4.366,1.6,8.709,8.709,0,0,0-2.658-3.814,7.42,7.42,0,0,0-1.986-1.075c-.071-.027-.143-.051-.212-.075l-.053-.018c-.033-.012-.065-.023-.1-.033l-.086-.03c-.3-.1-.582-.176-.858-.239-.051-.013-.1-.023-.151-.035-.118-.025-.232-.046-.345-.065-.158-.028-.314-.048-.464-.063-.061-.008-.121-.013-.183-.018-.045,0-.089-.007-.133-.008-.108-.008-.214-.013-.319-.013-.048,0-.1,0-.144,0a5.692,5.692,0,0,0-2.873.758c-.051.028-.1.06-.151.09l-.146.095a5.976,5.976,0,0,0-.647.5,6.358,6.358,0,0,0-1,1.14c-.036.053-.071.1-.106.158s-.07.106-.1.161a8.462,8.462,0,0,0-1.085,2.822l-.159-.1a8.668,8.668,0,0,1,1.136-2.883q.052-.082.1-.159c.036-.053.071-.1.108-.156a6.5,6.5,0,0,1,.992-1.113,5.945,5.945,0,0,1,.667-.513c.048-.032.1-.063.146-.093l.153-.091a5.951,5.951,0,0,1,2.92-.775h.168c.148,0,.3.008.448.018.06.005.121.008.181.015.151.015.3.033.456.058a9.264,9.264,0,0,1,1.7.436m-.018.647v0a6.932,6.932,0,0,1,1.871,1.012,7.891,7.891,0,0,1,2.24,2.938,7.927,7.927,0,0,1-3.409-1.422,6.543,6.543,0,0,1-1.108-1.095l-.023-.027,0,0-.01-.012,0-.007,0,0a8.664,8.664,0,0,1-.833-1.277l-.008-.017-.005-.01q-.114-.241-.2-.483a8.52,8.52,0,0,1,1.11.272.091.091,0,0,1,.028.008c.119.04.239.083.362.128m-2.143-2.561a4.46,4.46,0,0,0-.048.974c-.06-.005-.119-.01-.177-.013a4.606,4.606,0,0,1,.053-.989c.02-.124.045-.249.075-.372h0l.134.027-.008.08.026,0c-.022.1-.04.194-.056.29m3.52-4a7.914,7.914,0,0,1,3.552-1.015,7.9,7.9,0,0,1-2.566,2.658,7.9,7.9,0,0,1-3.51,1.01l-.035,0-.04,0a7.348,7.348,0,0,1,2.6-2.656m-6.009-.219v0l.007.055v0c.008.043.015.086.023.129,0,.018,0,.036.01.055a5.034,5.034,0,0,0,.393,1.269,2.94,2.94,0,0,0,1.717,1.6,2.845,2.845,0,0,0,.425.116l0,0c.056.012.113.023.172.032h0a3.918,3.918,0,0,0,.453.043l-.007.017c.1,0,.2-.007.317-.013h.008a6.64,6.64,0,0,0,1.274-.164l0,0a7.613,7.613,0,0,0,2.424-.906,8.686,8.686,0,0,0,3.086-3.48,8.7,8.7,0,0,0-4.521,1.083l0,0a7.651,7.651,0,0,0-2.85,3c-.061-.007-.121-.015-.181-.027a7.809,7.809,0,0,1,2.941-3.131,8.929,8.929,0,0,1,4.753-1.1l.123.01-.048.113a8.923,8.923,0,0,1-3.21,3.675,7.877,7.877,0,0,1-2.475.929h0a9.93,9.93,0,0,1-1.233.164h0l-.164,0c-.1,0-.2,0-.3-.008a4.227,4.227,0,0,1-.448-.051c-.042-.007-.085-.013-.126-.022l0,0-.045-.008a3.465,3.465,0,0,1-.423-.119,3.1,3.1,0,0,1-1.821-1.686,5.222,5.222,0,0,1-.395-1.249c0-.018,0-.038-.01-.056-.008-.043-.015-.086-.021-.129l-.008-.056c-.007-.043-.013-.086-.018-.131l.161-.093c0,.043.012.086.018.129" transform="translate(656.39 -311.346)" fill="#f1ecdf"/><path d="M-622.826,345.7v5.028a3.026,3.026,0,0,1,2.973-2.462c1.744,0,2.7,1.2,2.7,2.974v3.743c0,1.126.085,1.4.871,1.828v.033h-4.2v-.033c.786-.428.871-.7.871-1.828v-3.743c0-.957-.392-1.743-1.4-1.743-1.06,0-1.811.939-1.811,2.631v2.855c0,1.126.085,1.4.871,1.828v.033h-3.331v-9.265c0-1.077-.222-1.47-1.025-1.845V345.7Z" transform="translate(670.974 -288.705)" fill="#f1ecdf"/><path d="M-641.767,353.653c0-1.138.035-2.21.035-3.432,0-2.092-1.393-2.941-3.96-2.941a4.983,4.983,0,0,0-1.835.32,2.243,2.243,0,0,1,.367.612,2.059,2.059,0,0,1,1.417-.609c1.138,0,1.564.917,1.564,1.938v1.393l-1.292.237c-2.04.375-3.943.765-3.943,2.634,0,1.445,1.14,2.125,2.482,2.125a2.726,2.726,0,0,0,2.77-2.057c0,.119.033.511.033.579a1.725,1.725,0,0,0,1.954,1.511,2.491,2.491,0,0,0,1.853-.765v-.033a.92.92,0,0,1-.425.1c-.8,0-1.02-.561-1.02-1.614m-2.447-.765c-.016,1.206-.7,2.039-1.6,2.039-.713,0-1.156-.493-1.156-1.462,0-1.138.579-1.767,1.9-2.039l.884-.187Z" transform="translate(655.751 -287.668)" fill="#f1ecdf"/><path d="M-631.5,347.416v-.035h-2.482v.035a1.129,1.129,0,0,1,.8,1.1,2.034,2.034,0,0,1-.153.747l-1.412,3.451-1.342-3.534a4.01,4.01,0,0,1-.255-.987.808.808,0,0,1,.511-.781v-.035h-3.875v.035a3.854,3.854,0,0,1,1.241,1.8l.254.6-1.342,2.973-1.6-3.62a2.919,2.919,0,0,1-.255-.985.769.769,0,0,1,.425-.765v-.035h-3.874v.035a3.822,3.822,0,0,1,1.239,1.8l3.026,6.7h.035l2.548-5.592,2.329,5.592h.033l2.838-6.664a3.725,3.725,0,0,1,1.309-1.835" transform="translate(658.751 -287.6)" fill="#f1ecdf"/><path d="M-628.242,355V345.7h-3.467v.035c.8.373,1.02.765,1.02,1.835v2.868a2.825,2.825,0,0,0-2.8-2.123c-2.09,0-3.791,1.75-3.791,4.436,0,2.634,1.649,4.265,3.671,4.265a3,3,0,0,0,2.923-2.346v2.177h3.364v-.035c-.765-.425-.917-.781-.917-1.818m-2.447-1.53A2.271,2.271,0,0,1-632.659,356c-1.276,0-2.006-1.191-2.006-3.247,0-2.313.7-3.638,1.987-3.638,1,0,1.989,1.037,1.989,2.686Z" transform="translate(663.745 -288.705)" fill="#f1ecdf"/><path d="M-647.524,350.406a.885.885,0,0,0,.6.187,1.571,1.571,0,0,0,1.546-1.7,1.6,1.6,0,0,0-1.734-1.614c-1.513,0-2.311,1.394-2.719,2.958v-2.789h-3.4v.035c.8.425.951.765.951,1.851v4.623c0,1.121-.085,1.394-.849,1.82v.033h4.673v-.033c-.934-.358-1.375-.7-1.375-1.82V351.6c0-1.7.866-2.888,1.835-2.888.645,0,1,.338,1,.9a.821.821,0,0,1-.528.8" transform="translate(653.234 -287.668)" fill="#f1ecdf"/><path d="M-633.971,352.926a.725.725,0,0,0-.725.725.726.726,0,0,0,.725.725.726.726,0,0,0,.725-.725.725.725,0,0,0-.725-.725" transform="translate(665.45 -283.946)" fill="#f1ecdf"/><path d="M-622.54,355.267c-.8,0-1.02-.561-1.02-1.614,0-1.138.035-2.21.035-3.432,0-2.092-1.393-2.941-3.96-2.941-1.972,0-3.331.917-3.331,2.142a1.363,1.363,0,0,0,1.478,1.36,1.467,1.467,0,0,0,1.478-.919.835.835,0,0,1-.289.051c-.493,0-.8-.357-.8-.985a1.263,1.263,0,0,1,1.41-1.326c1.138,0,1.564.917,1.564,1.938v1.393l-1.292.237c-2.04.375-3.943.765-3.943,2.634,0,1.445,1.138,2.125,2.482,2.125a2.726,2.726,0,0,0,2.77-2.057c0,.119.033.511.033.579a1.725,1.725,0,0,0,1.954,1.511,2.491,2.491,0,0,0,1.853-.765v-.033a.921.921,0,0,1-.425.1m-3.467-2.379c-.017,1.206-.7,2.039-1.6,2.039-.713,0-1.156-.493-1.156-1.462,0-1.138.579-1.767,1.9-2.039l.884-.187Z" transform="translate(667.748 -287.668)" fill="#f1ecdf"/></g><g transform="translate(-306.045 99.957)"><g clip-path="url(#b)"><path d="M-449.175,540.384V99.957h275.483a35.962,35.962,0,0,1,35.961,35.963v368.5a35.961,35.961,0,0,1-35.961,35.963Z" transform="translate(449.175 -99.957)" fill="#588031"/></g></g><path d="M-302.7,211.106h-3.922v-.748l1.868-1.586c.742-.629,1.015-.979,1.015-1.465a.814.814,0,0,0-.878-.846c-.5,0-.834.274-1.253.813l-.677-.523a2.221,2.221,0,0,1,2-1.14,1.615,1.615,0,0,1,1.788,1.626c0,.858-.451,1.326-1.41,2.107l-1.115.929h2.581Zm-41.064-.471a2.7,2.7,0,0,1-.66-2.08c0-1.667.79-2.96,2.324-2.96a2.46,2.46,0,0,1,1.657.6l-.511.737a1.8,1.8,0,0,0-1.175-.474c-.806,0-1.256.728-1.306,1.719a1.744,1.744,0,0,1,1.3-.539,1.719,1.719,0,0,1,1.9,1.71,1.882,1.882,0,0,1-2.014,1.853,2.032,2.032,0,0,1-1.51-.569m.363-1.239a1.012,1.012,0,0,0,1.123.985.988.988,0,0,0,1.083-.994.987.987,0,0,0-1.108-.951,1,1,0,0,0-1.1.959m31.855-1.921a1.886,1.886,0,0,1,2.021-1.88,1.946,1.946,0,0,1,1.5.572,2.722,2.722,0,0,1,.66,2.077c0,1.752-.871,2.96-2.322,2.96a2.58,2.58,0,0,1-1.737-.654l.519-.728a1.8,1.8,0,0,0,1.241.511c.8,0,1.276-.7,1.309-1.7a1.6,1.6,0,0,1-1.272.571,1.721,1.721,0,0,1-1.921-1.727m.956-.043a.989.989,0,0,0,1.107.974,1,1,0,0,0,1.1-.982,1.025,1.025,0,0,0-1.131-1.007,1,1,0,0,0-1.073,1.015m-53.548,19.363c-3.446-5.415-14.859-30.17-13.612-30.991a.186.186,0,0,1,.1-.023c1.9,0,20.3,19.6,23.706,24.6a.415.415,0,0,1,.056.358,12.7,12.7,0,0,0,.971,9.36l-2.6,1.885a12.451,12.451,0,0,0-8.3-5,.406.406,0,0,1-.314-.189m-9.255-24.448c.012.015,13.22,20.277,13.233,20.289a.583.583,0,0,0,.816.141.584.584,0,0,0,.138-.816l-13.973-19.755a.128.128,0,0,0-.214.141m13.627,42.645c-5.941-.673-12.261-2.974-16.307-6.88-5.5-4.647-7.785-11.394-8.3-13.117a31,31,0,0,1,14.325,6c3.723,2.948,7.343,8.053,10.281,14m-2.644-1.921c-2.613-4.735-5.592-8.59-8.542-10.926a28.957,28.957,0,0,0-11.193-5.249,26.415,26.415,0,0,0,7.017,10.1l.085.081c3.14,3.026,7.87,5.04,12.633,6m13.567-32.436a2.689,2.689,0,0,1-.657-2.08c0-1.667.79-2.96,2.324-2.96a2.454,2.454,0,0,1,1.654.6l-.511.737a1.8,1.8,0,0,0-1.176-.474c-.8,0-1.256.728-1.3,1.719a1.729,1.729,0,0,1,1.292-.539,1.717,1.717,0,0,1,1.9,1.71,1.878,1.878,0,0,1-2.012,1.853,2.045,2.045,0,0,1-1.51-.569m.367-1.239a1.007,1.007,0,0,0,1.118.985.989.989,0,0,0,1.088-.994.989.989,0,0,0-1.108-.951,1,1,0,0,0-1.1.959m82.9,44.166-34.242,20.077c.017.153.031.3.048.446.008.065.017.126.023.189.022.149.041.3.061.445.008.063.02.124.028.184a16.268,16.268,0,0,0,1.284,4.4,8.389,8.389,0,0,0,4.972,4.63A27.491,27.491,0,0,1-282.9,272.6a30.776,30.776,0,0,1,16.752-3.88l2.427.206-.962,2.238a30.782,30.782,0,0,1-11.309,12.951,27.343,27.343,0,0,1-8.7,3.28c-.093.02-.186.04-.279.056l-.181.036a22.984,22.984,0,0,1-3.784.483h0c-.858.061-1.608.081-2.206.081h-.008c-.1.387-.181.773-.242,1.158a13.434,13.434,0,0,0-.124,3.188,31.424,31.424,0,0,1,5.392,1.257c.1.028.192.06.289.093a27.63,27.63,0,0,1,8.555,4.366,30.775,30.775,0,0,1,9.718,14.184l.692,2.334-2.43-.08a30.8,30.8,0,0,1-16.185-5.81,25.842,25.842,0,0,1-4.264-4.2c-.1-.124-.2-.246-.3-.37a.118.118,0,0,0-.023-.031,25.6,25.6,0,0,1-2.887-4.41c-.017-.035-.036-.068-.056-.1a31.43,31.43,0,0,1-1.823-4,17.718,17.718,0,0,0-9.275,2.274c-.169.1-.338.2-.5.3s-.33.209-.491.319c10.045,15.232,20.322,30.825,25.508,38.687l-.008,0,1.8,2.734.519.785h0l-.121.451a5.234,5.234,0,0,1-5.045,3.849,5.611,5.611,0,0,1-.725-.048l-.463-.065-1.437-2.182-1.535-2.336-.8-1.223h0c-5.111-7.754-14.138-21.442-23.136-35.093-.119.178-.234.358-.347.539s-.224.372-.333.561a27.319,27.319,0,0,0-3.18,8.86,26.655,26.655,0,0,1,8.051,8.225l.008.012a25.7,25.7,0,0,1,2.429,4.492l.007.02.025.056A30.783,30.783,0,0,1-302.59,344l-.572,2.366-2.065-1.287a30.786,30.786,0,0,1-11.1-13.132,25.721,25.721,0,0,1-1.682-6.425c-.022-.113-.036-.229-.05-.347a36.988,36.988,0,0,1-.161-9.25,18.643,18.643,0,0,0-3.477-1.256c-.395-.1-.786-.186-1.168-.254,0,1.679-.008,3.252-.017,4.718q-.08,5.489-.551,10.6a74.207,74.207,0,0,1-1.972,11.3c-.153.6-.31,1.191-.468,1.76-.358,1.276-.72,2.464-1.075,3.542-.116.358-.234.705-.35,1.039-.076.226-.153.443-.229.655-.037.106-.073.211-.113.315-.109.31-.217.6-.327.889-.032.093-.068.186-.1.279-.1.274-.206.531-.3.78s-.189.476-.277.693c-.037.088-.073.176-.109.265-.068.169-.136.33-.2.479-.032.076-.065.149-.093.217s-.048.108-.068.161c-.045.1-.09.2-.129.29-.076.169-.141.314-.192.43q-.025.06-.05.109c-.088.192-.181.382-.269.571-.045.093-.088.186-.133.274-.088.186-.173.363-.262.536s-.173.342-.257.508c-.129.245-.254.483-.375.705a16.746,16.746,0,0,1-1.2,1.951c-.06.085-.121.158-.177.231l0,0a3.272,3.272,0,0,1-.237.262c-.161.153-.29.229-.392.221-.8-.076.4-3.393,1.128-7.2s1.082-11.744,1.027-18.194c-.174-5.333-.343-11.516-.516-18.461-.378.06-.77.136-1.168.224a18.872,18.872,0,0,0-3.909,1.362,36.95,36.95,0,0,1-.181,9.4c-.008.068-.017.133-.028.2a26.491,26.491,0,0,1-.673,3.386,24.545,24.545,0,0,1-1.014,3.039,30.765,30.765,0,0,1-11.1,13.132l-2.069,1.287-.569-2.366a30.783,30.783,0,0,1,1.309-17.147l.025-.056.007-.02a25.288,25.288,0,0,1,2.437-4.5.5.5,0,0,1,.048-.073,26.573,26.573,0,0,1,8-8.155,27.274,27.274,0,0,0-3.406-9.24c-.109-.184-.226-.367-.342-.544s-.231-.353-.35-.526L-362.325,331.2a3.251,3.251,0,0,1-1.606,1.264c-2.009.712-6.911,3.144-11.925,10.8a.3.3,0,0,1-.189.136l-2.568.644a.294.294,0,0,1-.08.013.323.323,0,0,1-.267-.5l29.622-45.035c-.161-.11-.327-.214-.491-.319s-.335-.2-.508-.3a17.69,17.69,0,0,0-9.275-2.274c-.1,0-.206,0-.307.008a19.507,19.507,0,0,1-1.476,3.922l-.012.02a25.254,25.254,0,0,1-2.505,3.957c-.148.2-.305.406-.463.609-.1.136-.217.269-.327.4a25.5,25.5,0,0,1-4.262,4.2,30.811,30.811,0,0,1-16.185,5.81l-2.435.08.693-2.334a30.752,30.752,0,0,1,9.721-14.184,27.874,27.874,0,0,1,8.889-4.476.4.4,0,0,1,.073-.02,31.468,31.468,0,0,1,5.274-1.221,13.426,13.426,0,0,0-.124-3.188c-.061-.385-.141-.771-.242-1.158h-.008c-.6,0-1.349-.02-2.2-.081h-.013a24.294,24.294,0,0,1-4.01-.528.061.061,0,0,1-.028-.008c-.068-.012-.133-.023-.2-.04v0a27.453,27.453,0,0,1-8.7-3.276,30.8,30.8,0,0,1-11.307-12.951l-.959-2.238,2.427-.206a30.78,30.78,0,0,1,16.752,3.88l-.756,1.256c-7.255-4.351-15.79-3.683-15.874-3.68l-.4.037.161.375c.032.076,3.457,7.918,10.715,12.27a26.036,26.036,0,0,0,8.265,3.1v0l0,.008a22.834,22.834,0,0,0,4.119.539h.015c.186,0,.367.008.547.008.335,0,.66-.008.984-.028q.771-.05,1.5-.169c.141-.025.282-.048.423-.076.051-.013.1-.022.158-.033a11.79,11.79,0,0,0,1.408-.395,10.387,10.387,0,0,0,6.083-5.627,17.3,17.3,0,0,0,1.324-4.215c.008-.06.02-.124.033-.184.023-.146.048-.287.071-.431.008-.065.02-.124.028-.189.025-.144.045-.29.061-.44l-.541-.314c-.015.149-.032.294-.056.44a1.9,1.9,0,0,1-.028.189c-.02.144-.043.289-.071.435-.008.06-.02.124-.033.184a17.11,17.11,0,0,1-1.32,4.277,9.811,9.811,0,0,1-5.737,5.348,9.824,9.824,0,0,1-1.417.388l-.012,0c-.189.04-.378.076-.576.1a12.271,12.271,0,0,1-1.515.148c-.35.017-.7.02-1.07.013a.093.093,0,0,1-.037,0,.421.421,0,0,1-.065,0,.216.216,0,0,1-.056,0,.517.517,0,0,1-.071,0h-.041a22.061,22.061,0,0,1-3.957-.528l-.02,0a25.543,25.543,0,0,1-8.092-3.033c-6.176-3.708-9.517-10.007-10.3-11.618,1.788-.073,8.918-.088,15.093,3.615l.085-.133-.08.136a25.563,25.563,0,0,1,9.521,10.033c.206-.025.406-.053.6-.09a26.026,26.026,0,0,0-9.814-10.441l.776-1.241a27.316,27.316,0,0,1,10.48,11.317,8.386,8.386,0,0,0,4.975-4.63,16.045,16.045,0,0,0,1.287-4.444c.013-.06.022-.124.03-.186.02-.144.04-.294.06-.443.008-.065.017-.124.02-.189.02-.148.036-.3.053-.446L-388.8,253.562l-.508-.3-2.455-1.442a.4.4,0,0,1,.139-.745l5.254-.806,2.762,1.559.818.466.813.455.921-.144.934-.149,1.938-.305h0l1.851-.3,2.867-.455c2.17,2.988,8.773,4.054,17.134,6.856-.06-.226-.121-.448-.186-.677v0c-.063-.222-.128-.448-.2-.673q-.333-1.147-.717-2.314a70.393,70.393,0,0,0-3.033-7.658c-6.223-.793-12.757-3.232-16.988-7.289a30.78,30.78,0,0,1-9.038-14.566l-.592-2.384,2.447.211a32.488,32.488,0,0,1,15.851,6.485c3.889,3.076,7.62,8.24,10.655,14.264a22.991,22.991,0,0,0,7.488-.584c.2-.048.393-.109.582-.169.09-.028.178-.056.265-.088s.191-.078.282-.121c-1.888-3.358-3.53-6.309-4.577-8.194l2.887-2.077c1.365,1.739,3.572,4.574,6.058,7.8.158-.121.314-.242.463-.363s.307-.249.451-.382a12.242,12.242,0,0,0,3.834-13.423c-.722-2.137-2.011-3.635-3.444-4.01a1.828,1.828,0,0,0-1.44.144c-.033.022-.068.045-.1.07-.946.733-1.835,3.321-.458,4.693a.114.114,0,0,1,.028.138c-.042.08-.174.028-.174.028-2.963-1.075-3.739-5.451-1.86-7.384a5.2,5.2,0,0,1,4.9-1.09c2.616.683,4.763,2.974,5.886,6.284a15.762,15.762,0,0,1-5.025,17.331c-.149.133-.3.26-.455.382s-.307.245-.463.363c3.344,4.355,6.891,9.045,9.448,12.588.085,4.678.174,9.32.259,13.889,0,.045,0,.088,0,.133-.068-.1-.133-.206-.2-.307-1.9-2.878-3.237-4.91-3.812-5.788-2.344-3.558-6.651-11.014-10.463-17.741-.177.076-.358.153-.539.226v0c-.081.036-.163.068-.242.1-.025.007-.053.02-.09.032-.076.025-.173.06-.224.076a23.877,23.877,0,0,1-7.593,1.007,72.14,72.14,0,0,1,3.8,11.11c.056.226.113.451.164.677s.109.463.161.692a66.521,66.521,0,0,1,11.9,5.971,56.336,56.336,0,0,1,6.055,4.413c.39.333.76.66,1.115.987.005.244.008.486.012.728.017.02.005.121.005.121.008.345.012.692.02,1.037s.012.69.02,1.035c.017.77.028,1.535.045,2.294l-1.131-.639-.511-.29-.513-.29-15.924-9.01v0l-1.627-.917-.6-.343-1.634-.926-19.675-11.132-1.818.315,21.719,12.294,1.594.9.6.335v0l1.583.894,15.145,8.57.511.29.511.29,1.808,1.022c.008.463.017.926.023,1.385l-2.487-1.408-.513-.29-.511-.285-14.4-8.14-1.543-.871-.582-.333-1.563-.878-23.791-13.451-.916.158-.906.158,25.734,14.544,1.53.863.572.325,1.5.849,13.716,7.751.511.289.511.29,3.16,1.788c.041,1.9.078,3.792.118,5.655,0,.09,0,.172,0,.257l-6.022-3.53-.508-.3-.508-.3-11.336-6.646c-.025.144-.048.285-.073.426-.012.065-.02.124-.032.189-.028.141-.056.282-.085.418-.013.065-.025.129-.04.189a18.325,18.325,0,0,1-1.337,4.059,11.884,11.884,0,0,1-6.981,6.432c.116.468.212.939.289,1.41a17.164,17.164,0,0,1,.2,3.479,21.379,21.379,0,0,1,10.982,2.833c.169.1.338.2.5.3s.33.209.491.317l7.785-11.835,6.286,3.683-8.724,13.169c.124.166.25.33.37.5s.246.338.363.511a29.856,29.856,0,0,1,4.521,10.72,21.939,21.939,0,0,1,4.4-1.352c.387-.076.776-.144,1.166-.2-.161-6.82-.325-14.315-.494-22.411,0-.085,0-.174,0-.257-.005-.146-.008-.287-.013-.431,0-.09,0-.174,0-.257s0-.169,0-.254c0-.056,0-.118,0-.174,0-.088,0-.173,0-.26-.008-.2-.013-.395-.013-.592v0c-.007-.343-.017-.682-.02-1.024-.031-1.34-.056-2.692-.085-4.061,0-.226-.008-.456-.017-.682s-.007-.45-.012-.675c-.008-.46-.015-.919-.028-1.382v0c-.008-.455-.015-.906-.025-1.36-.023-1.1-.043-2.206-.068-3.326,0-.367-.012-.737-.02-1.1,0-.091,0-.181,0-.269v-.041c-.005-.257-.012-.519-.017-.78v-.048c0-.056,0-.113,0-.169,0-.217-.008-.44-.013-.66,0-.126,0-.251-.007-.38q-.122-6.273-.242-12.9c-.008-.347-.012-.692-.02-1.043s-.012-.692-.02-1.037q-.174-9.5-.355-19.659.194-11.516.141-33.277c.121-2.11-.615-3.442-2.11-6.264a1.6,1.6,0,0,1-.124-1.168c.6-2.182,3.281-8.426,4.667-11.594a.872.872,0,0,1,1.372-.31,1.025,1.025,0,0,1,.093.1.906.906,0,0,1,.141.237c1.7,4.2,5.685,14.162,7.032,18.059a112.419,112.419,0,0,1,3.938,14.32,1.811,1.811,0,0,1,.032.483v0a.415.415,0,0,1-.124.274c-.136.109-.367.033-.551-.068a8.28,8.28,0,0,1-1.257-.894c-1.682-1.549-3.417-3.412-5.475-5.539-.33,2.022-.3,15.528.725,40.495q.157,3.75.289,7.4c.013.338.025.68.033,1.015v0c.017.338.028.672.04,1.007q.152,4.36.282,8.542c.012.372.022.742.033,1.111s.023.745.036,1.115c.007.395.02.785.032,1.176.008.262.017.523.02.781a.319.319,0,0,1,0,.056c.012.282.02.559.028.836v.121c.012.343.02.685.028,1.024.028.977.051,1.948.076,2.906.012.446.025.884.032,1.327s.025.9.036,1.35c.005.221.008.441.013.664s.012.443.015.664c.025,1.171.053,2.328.076,3.462,0,.37.013.733.022,1.1.007.335.012.665.02,1,0,.032,0,.068,0,.1v.156c.005.141.005.279.008.415,0,.085,0,.169,0,.254,0,.141.008.282.008.418.005.085.005.169.005.254.156,8.426.226,15.9.237,22.2.395.06.781.133,1.168.214a21.746,21.746,0,0,1,4.053,1.291,30.046,30.046,0,0,1,4.283-10.382c.118-.172.234-.347.358-.516s.237-.337.367-.506c-3.008-4.562-5.977-9.071-8.764-13.293l6.574-3.854c2.483,3.769,5.108,7.751,7.774,11.8.166-.11.33-.217.494-.319s.335-.2.5-.3a21.349,21.349,0,0,1,10.986-2.837,17.282,17.282,0,0,1,.2-3.479c.078-.471.171-.942.29-1.41a11.915,11.915,0,0,1-6.984-6.432,18.391,18.391,0,0,1-1.332-4.018c-.012-.061-.025-.126-.036-.189-.032-.138-.056-.279-.085-.42-.012-.06-.025-.124-.036-.189-.023-.141-.048-.282-.073-.426l-11.336,6.646-1.015.6-6.493,3.807c0-.085,0-.169,0-.254q-.055-2.687-.121-5.534l3.872-2.186.513-.29.511-.289,13.711-7.751,1.51-.853.576-.323,1.521-.861,25.83-14.6-.906-.158-.911-.156h0l-23.892,13.5-1.551.878-.587.33-1.549.874-14.393,8.135-.511.289-.511.29-3.256,1.84c-.012-.446-.025-.9-.036-1.349l2.633-1.49v0l.511-.285.511-.29,15.141-8.567v0l1.591-.9.6-.338,1.589-.9,21.817-12.346-1.82-.319h-.005l-19.77,11.191-1.627.922-.607.342-1.622.917-15.929,9.015-.513.29-.511.289-2.016,1.14q-.05-1.943-.106-3.953c0-.144-.007-.285-.012-.431,0-.076,0-.148-.008-.226.109-.113.222-.224.338-.337.141-.141.282-.279.428-.415.159-.154.322-.307.489-.46a52.415,52.415,0,0,1,7.1-5.338,66.418,66.418,0,0,1,11.832-5.946c.053-.229.109-.458.166-.692s.108-.451.169-.682q.6-2.379,1.42-4.859c.713-2.153,1.518-4.255,2.4-6.271a25.136,25.136,0,0,1-6.815-.765c-.2-.056-.4-.113-.592-.174l-.44-.144.182-.524-.178.267,0,0-.088.222-.045-.022-16.006,24.171s-.347.491-.4.539c-.005-.133-.008-.435-.013-.571q-.169-5.8-.4-12.1l10.423-15.846c-.153-.121-.3-.254-.446-.39s-.3-.265-.436-.4a15.7,15.7,0,0,1-4.171-16.561c1.12-3.31,3.265-5.6,5.886-6.284a5.2,5.2,0,0,1,4.892,1.09h0v0c1.88,1.931,1.1,6.3-1.86,7.379,0,0-.133.051-.178-.028a.118.118,0,0,1,.032-.138c1.37-1.369.488-3.953-.458-4.693a1.082,1.082,0,0,0-.116-.076,1.825,1.825,0,0,0-1.427-.138c-1.432.375-2.721,1.873-3.441,4.01a12.138,12.138,0,0,0,2.805,12.44c.133.144.279.289.423.426s.285.277.435.406l24.947-37.935h0l1.538-2.334,1.433-2.183h0l.46-.063a5.4,5.4,0,0,1,.725-.048,5.23,5.23,0,0,1,5.043,3.847l.124.451-.519.785-2.455,3.729-.012,0-24.819,37.472c.2.056.395.108.6.153s.406.093.615.136a24.809,24.809,0,0,0,6.417.323c3.109-6.18,6.868-11.292,10.624-14.264a32.485,32.485,0,0,1,15.85-6.485l2.452-.211-.6,2.384a30.766,30.766,0,0,1-9.038,14.566c-4.227,4.058-10.762,6.5-16.989,7.289a71.414,71.414,0,0,0-3.031,7.658c-.257.785-.5,1.566-.725,2.339-.068.226-.133.451-.2.677v0c-.06.226-.124.451-.184.677,8.4-2.822,15.04-3.89,17.213-6.885l2.87.455h0l1.856.3h0l1.939.305.931.144.926.149.8-.451.818-.466,2.762-1.559,5.249.806a.4.4,0,0,1,.144.745l-2.455,1.442Zm-45.588-13.071c-.148-.129-.294-.262-.438-.4s-.287-.274-.426-.418a13.22,13.22,0,0,1-3.419-14.086c.883-2.61,2.55-4.461,4.461-4.96a3.189,3.189,0,0,1,2.87.524.878.878,0,0,1,.113.091l.017.017a3.856,3.856,0,0,1,.717,4.078c-.025.073.048.133.1.053a3.816,3.816,0,0,0-.423-4.562.053.053,0,0,0-.015-.02.384.384,0,0,0-.076-.06,3.753,3.753,0,0,0-3.447-.688c-2.1.547-3.92,2.543-4.866,5.338a14.115,14.115,0,0,0,.514,10.438,15.164,15.164,0,0,0,3.092,4.4c.141.136.282.277.431.41v0c.141.133.289.265.438.395Zm16.188,5.113c6.168-.637,12.79-3,16.984-7.046,6.462-5.463,8.583-13.753,8.6-13.832l.1-.4-.411.037a31.525,31.525,0,0,0-15.063,6.171c-3.84,3.041-7.57,8.351-10.572,14.526a26.426,26.426,0,0,1-8.253-.418c-.2-.05-.406-.1-.6-.154s-.393-.113-.584-.173l-.337.508c.189.065.382.124.584.181s.393.108.6.158a26.538,26.538,0,0,0,8.306.5,72.37,72.37,0,0,0-4.441,12.057c-.065.226-.124.446-.178.672v.005c-.065.229-.121.458-.177.688.209-.076.415-.154.624-.226.058-.231.118-.46.178-.688s.116-.451.181-.677a71.75,71.75,0,0,1,4.461-11.891m-49.3-4.283c.124.168.257.337.39.506.158-.116.31-.237.46-.358s.305-.254.454-.382a15.412,15.412,0,0,0,4.018-5.254,14.131,14.131,0,0,0,.514-10.438c-.946-2.8-2.765-4.791-4.866-5.338a3.771,3.771,0,0,0-3.451.688.808.808,0,0,0-.076.06c0,.008-.013.012-.017.017a3.82,3.82,0,0,0-.418,4.565c.048.08.121.02.1-.053a3.859,3.859,0,0,1,.717-4.078c0-.008.012-.012.017-.017.036-.031.071-.065.108-.091a3.2,3.2,0,0,1,2.875-.524c1.911.5,3.578,2.351,4.461,4.96,2.08,6.155-.27,11.4-4.376,14.987-.149.138-.3.262-.451.383s-.3.249-.455.367m-10.737,16.15c.065.226.124.451.184.677s.121.46.174.688c.209.073.418.146.627.221-.06-.229-.116-.458-.176-.687s-.118-.451-.177-.677a72.552,72.552,0,0,0-4.441-12.032,25.25,25.25,0,0,0,9.232-.753c.156-.045.33-.1.483-.158l.017,0,.007-.005.061-.023c.181-.076.362-.153.539-.231-.1-.173-.194-.345-.29-.514-.173.076-.35.153-.528.226l-.012,0v0c-.186.063-.378.124-.571.184a25.027,25.027,0,0,1-9.229.677c-3-6.175-6.725-11.485-10.568-14.526a31.533,31.533,0,0,0-15.068-6.171l-.406-.037.1.4c.025.08,2.142,8.369,8.6,13.821,4.2,4.058,10.825,6.42,16.993,7.057a71.19,71.19,0,0,1,4.456,11.866m-9.673,27.014a24.509,24.509,0,0,0-8.676-8.869l-.031-.02a26.471,26.471,0,0,0-11.825-3.366,26.434,26.434,0,0,0,8.567,8.872,24.128,24.128,0,0,0,7.649,2.863v0c.116.025.231.048.342.07a.641.641,0,0,0,.118.023,30.231,30.231,0,0,0,3.4.418h.012a.638.638,0,0,0,.1,0,.134.134,0,0,0,.036,0c.1,0,.209,0,.315,0m2.825,3.268c.025.085.045.169.061.254.08.322.139.649.192.97a14.768,14.768,0,0,1,.161,3.253c.2-.022.395-.033.592-.045a15.432,15.432,0,0,0-.174-3.3q-.095-.622-.254-1.244c-.148.033-.3.065-.454.093a.931.931,0,0,1-.124.02m23.164,25.495.528-.33a28.688,28.688,0,0,0-4.03-9.984c-.113-.177-.229-.35-.355-.523s-.237-.342-.362-.511a21.686,21.686,0,0,0-3.067-3.378,19.436,19.436,0,0,0-2.226-1.712c-.161-.108-.325-.212-.491-.314s-.333-.206-.5-.3a19.878,19.878,0,0,0-9.751-2.585c-.186,0-.37,0-.559,0-.491,0-.99.025-1.493.056-.2.017-.4.031-.606.053-.5.048-1.014.111-1.525.192a30.957,30.957,0,0,0-5.685,1.457c-.028.008-.06.022-.088.033-.121.04-.242.085-.358.128-.073.025-.146.053-.217.081v0a25.269,25.269,0,0,0-6.783,3.666c-6.7,5.169-9.187,13.358-9.21,13.439l-.118.39.407-.012c.09,0,8.635-.335,15.339-5.508a24.087,24.087,0,0,0,4.021-3.973h0l0,0a24.567,24.567,0,0,0,3.228-4.93.963.963,0,0,1,.045-.093,18.391,18.391,0,0,0,1.087-2.85l-.415.048c-.071.008-.144.017-.217.028a18.3,18.3,0,0,1-1.022,2.6c-.028.06-.056.116-.09.173a23.906,23.906,0,0,1-3.071,4.655l0,0a23.512,23.512,0,0,1-3.93,3.885c-5.7,4.4-12.785,5.217-14.572,5.353.587-1.69,3.172-8.336,8.872-12.737a24.8,24.8,0,0,1,6.631-3.587v0c.2-.076.418-.146.619-.214.158-.056.31-.113.468-.161a30.893,30.893,0,0,1,4.932-1.272c.526-.093,1.045-.161,1.549-.212.2-.025.406-.045.607-.056.149-.017.3-.025.448-.033.358-.023.712-.04,1.058-.043.164,0,.325,0,.483,0a19.005,19.005,0,0,1,9.589,2.528c.174.1.343.2.508.3s.33.209.491.319a19.471,19.471,0,0,1,2.158,1.662,21,21,0,0,1,3.107,3.459c.126.164.242.337.363.511s.237.35.35.531a28.322,28.322,0,0,1,3.852,9.786m-29.013-16.09a.763.763,0,0,0-.088.028c-.319.108-.64.226-.962.347l0-.013a23.332,23.332,0,0,0-6.248,3.378,26.383,26.383,0,0,0-7.475,9.808,26.384,26.384,0,0,0,11.38-4.743,25.408,25.408,0,0,0,6.626-8.1l.013-.025a16.994,16.994,0,0,0,.7-1.662,30.083,30.083,0,0,0-3.945.982m36.522,15.7c-.008-.2-.012-.392-.017-.589-.395.061-.78.129-1.166.214a20.188,20.188,0,0,0-4.147,1.344c-.161.073-.318.146-.474.222-.3.141-.6.294-.894.451-.149.08-.3.164-.446.249a.111.111,0,0,0-.042.025l-.056.036-.245.153c-.015.012-.43.274-1.095.768,0-.023-.007-.051-.012-.08a25.591,25.591,0,0,0-7.2,7.628l-.149.234a34.648,34.648,0,0,0-2.037,3.84l-.02.045.531.241-.531-.237,0,.008c-3.208,7.83-1.264,16.163-1.244,16.248l.1.395.347-.217c.073-.045,7.3-4.614,10.516-12.444a23.355,23.355,0,0,0,.946-2.833c.008-.033.015-.07.023-.1.214-.869.391-1.744.536-2.616.025-.121.04-.242.056-.358a35.737,35.737,0,0,0,.3-8.821c-.108.065-.212.129-.322.192-.076.048-.156.1-.232.146a35.317,35.317,0,0,1-.322,8.393c-.017.118-.033.231-.053.343a24.636,24.636,0,0,1-.556,2.681,22.249,22.249,0,0,1-.917,2.749c-2.734,6.667-8.454,10.923-9.932,11.936a30.452,30.452,0,0,1-.5-5.6,26.292,26.292,0,0,1,1.8-9.864l.013-.028a23.31,23.31,0,0,1,2.243-4.154,25.052,25.052,0,0,1,6.7-7.15c.443-.314.9-.607,1.362-.878.048-.032.1-.06.149-.088.133-.081.266-.153.4-.226.31-.173.624-.338.942-.488.139-.071.285-.141.43-.2a19.365,19.365,0,0,1,4.066-1.349c.387-.09.773-.158,1.168-.217m-8.632,5.523a28.661,28.661,0,0,0-5.592,6.228l-.012.02a33.986,33.986,0,0,0-1.871,3.558l-.025.056A24.782,24.782,0,0,0-349,337.483c0,1.1.061,2.094.141,2.931a26.427,26.427,0,0,0,7.472-9.808,20.546,20.546,0,0,0,.853-2.545c.214-.853.392-1.714.536-2.571.017-.109.036-.217.048-.33a29.513,29.513,0,0,0,.121-6.783m25.161-2.734-.012.085c-.665-.494-1.08-.757-1.095-.768l-.25-.153v-.013c-.181-.1-.358-.206-.542-.305-.3-.158-.589-.307-.891-.446v-.005c-.156-.073-.314-.144-.471-.217a20.065,20.065,0,0,0-3.767-1.261c-.387-.091-.776-.169-1.168-.237v.6c.391.065.781.146,1.168.237a19.485,19.485,0,0,1,3.668,1.264c.144.065.289.133.43.206.318.149.629.31.939.483.136.073.269.149.4.231.05.023.1.056.146.085q.694.411,1.364.881c.158.1.31.217.464.335.337.246.669.5.99.776.091.073.181.149.265.226.173.144.342.294.506.446.138.121.27.245.4.378.1.093.206.194.305.294s.194.186.279.282a.119.119,0,0,1,.033.028l.023.025v0c.136.138.27.279.4.42.484.514.947,1.058,1.393,1.626.076.093.149.189.221.285q.249.321.484.652c.108.146.212.3.314.443.06.081.116.161.169.246.153.222.3.448.446.674a.264.264,0,0,0,.02.032,23.2,23.2,0,0,1,2.223,4.126l.012.028v0c2.729,6.662,1.639,13.7,1.3,15.458-1.473-1.014-7.2-5.269-9.927-11.936a22.523,22.523,0,0,1-.917-2.749h-.005c-.012-.053-.023-.1-.035-.154-.033-.128-.061-.252-.093-.382-.169-.685-.3-1.365-.407-2.029v-.008a35.449,35.449,0,0,1-.395-8.844c-.076-.053-.153-.1-.229-.146-.109-.068-.219-.133-.327-.2a36.017,36.017,0,0,0,.355,9.184c.007.04.012.08.02.121q.212,1.249.519,2.5c.008.032.017.068.023.1h0a22.227,22.227,0,0,0,.942,2.833c3.208,7.83,10.441,12.4,10.514,12.444l.347.217.093-.395c.02-.085,1.967-8.417-1.241-16.248l0-.008v0l-.017-.037a33.7,33.7,0,0,0-2.178-4.066c-.02-.033-.04-.06-.06-.093a25.618,25.618,0,0,0-7.15-7.556m.74,12.419h0a20.841,20.841,0,0,0,.854,2.545,26.432,26.432,0,0,0,7.475,9.808,26.5,26.5,0,0,0-1.53-12.175l-.025-.056a33.909,33.909,0,0,0-1.86-3.539l-.023-.04a28.376,28.376,0,0,0-5.592-6.231,29.569,29.569,0,0,0,.121,6.79c.012.11.031.214.048.319.144.861.322,1.724.534,2.58m21.087-34.342c-.2-.022-.4-.037-.6-.053-.5-.032-1-.056-1.495-.056-.189,0-.373,0-.559,0a19.872,19.872,0,0,0-9.75,2.585c-.169.1-.338.2-.508.3s-.33.206-.491.314a19.438,19.438,0,0,0-2.226,1.712,21.749,21.749,0,0,0-3.31,3.714c-.121.169-.242.343-.358.519s-.234.35-.35.533a29.024,29.024,0,0,0-3.8,9.629l.533.33a28.311,28.311,0,0,1,3.623-9.419c.108-.181.226-.363.342-.539s.234-.352.355-.524a21.251,21.251,0,0,1,3.353-3.8,19.476,19.476,0,0,1,2.158-1.662c.161-.109.325-.214.491-.319s.33-.2.5-.3a18.979,18.979,0,0,1,9.594-2.533c.158,0,.319,0,.483,0,.347,0,.7.02,1.06.043.148.008.3.017.446.033.2.012.4.032.607.056.5.051,1.024.119,1.551.212.378.061.76.133,1.15.217.166.036.335.073.5.113q1.384.314,2.867.8c.1.033.192.065.289.1s.214.073.324.113l.176.061c.234.076.471.161.708.249a24.773,24.773,0,0,1,6.631,3.587c5.7,4.4,8.285,11.047,8.874,12.737-1.788-.136-8.869-.954-14.574-5.353a23.835,23.835,0,0,1-3.933-3.88,30.469,30.469,0,0,1-3.144-4.788.15.15,0,0,0-.02-.04c-.528-1-.934-1.9-1.236-2.624l-.42-.048c-.085-.008-.164-.017-.246-.02.31.76.75,1.75,1.337,2.87l0,.008v0c.012.028.027.053.04.081a30.383,30.383,0,0,0,3.237,4.922,23.925,23.925,0,0,0,4.021,3.978c6.7,5.173,15.249,5.5,15.339,5.508l.4.012-.114-.39c-.023-.081-2.512-8.27-9.214-13.439a25.461,25.461,0,0,0-6.78-3.666v0c-.172-.065-.345-.129-.519-.189-.048-.02-.1-.036-.144-.053a30.79,30.79,0,0,0-5.688-1.457c-.511-.081-1.019-.144-1.523-.192m2.827,4.058a.3.3,0,0,1,.017.031c.008.02.02.037.028.056a28.872,28.872,0,0,0,2.782,4.267l.008.012.015.022c.013.012.02.028.033.04l.008.008c.023.028.051.06.076.093a22.265,22.265,0,0,0,3.7,3.655,26.416,26.416,0,0,0,11.38,4.743,26.351,26.351,0,0,0-7.472-9.808,23.38,23.38,0,0,0-6.248-3.381l0,.017c-.408-.154-.81-.3-1.209-.431-.032-.012-.06-.02-.091-.028a29.327,29.327,0,0,0-3.7-.906c.2.536.423,1.075.68,1.611m-2.729-9.78.025-.265c-.149-.028-.3-.06-.448-.093h0q-.152.622-.254,1.244a15.442,15.442,0,0,0-.174,3.3c.194.012.392.023.592.045a14.761,14.761,0,0,1,.161-3.253c.053-.322.113-.649.189-.97-.043,0-.073-.008-.088-.008m-8.276-12.3a1.347,1.347,0,0,1-.033-.184c-.028-.141-.051-.287-.076-.431v0c-.008-.061-.02-.121-.025-.186v0c-.023-.144-.043-.285-.06-.435l-.539.315q.03.221.06.438c.012.06.022.124.028.186.025.144.048.289.076.435.013.06.02.124.033.186a17.447,17.447,0,0,0,1.316,4.174,10.361,10.361,0,0,0,6.08,5.624,11.373,11.373,0,0,0,1.413.4c.051.012.1.02.153.028l0,0c.141.028.282.051.423.076.483.08.979.136,1.493.169.322.02.652.028.987.028.181,0,.362-.005.547-.008h.012a32.609,32.609,0,0,0,4.114-.547H-285a26.15,26.15,0,0,0,8.263-3.1c7.26-4.351,10.685-12.193,10.717-12.27l.161-.375-.406-.037c-.085,0-8.612-.672-15.868,3.678a26.01,26.01,0,0,0-9.819,10.448c.2.036.393.065.6.09a25.575,25.575,0,0,1,9.517-10.033l0,0h.005c6.18-3.7,13.3-3.683,15.091-3.615-.78,1.611-4.122,7.91-10.3,11.618a25.443,25.443,0,0,1-8.092,3.024l0,.008a22.519,22.519,0,0,1-4.25.547h-.028c-.383.023-.737.036-1.063.043.008-.02.017-.04.025-.056a12.955,12.955,0,0,1-1.515-.144h0c-.2-.028-.387-.065-.576-.1l-.008,0a9.779,9.779,0,0,1-1.422-.388,9.807,9.807,0,0,1-5.732-5.348,16.755,16.755,0,0,1-1.312-4.24m11.384,8.784c.036,0,.073,0,.113,0a26.388,26.388,0,0,0,11.724-3.374,26.436,26.436,0,0,0,8.567-8.872,26.413,26.413,0,0,0-11.857,3.386,24.471,24.471,0,0,0-8.68,8.869,1.19,1.19,0,0,0,.133,0m-65.019-51.018,2.737-1.969c-.129-.166-.242-.31-.338-.43l-2.661,1.923c.076.138.161.3.262.476m76.26,4.662c-4.038,3.9-10.355,6.195-16.292,6.868,2.938-5.946,6.558-11.05,10.277-14a31.054,31.054,0,0,1,14.328-6c-.516,1.727-2.8,8.471-8.313,13.129m-.931-1.131a26.388,26.388,0,0,0,7.012-10.088,28.937,28.937,0,0,0-11.188,5.241c-2.95,2.336-5.929,6.191-8.542,10.926,4.763-.957,9.492-2.971,12.63-6Z" transform="translate(180.832 54.532)" fill="#446328"/><path d="M-303.442,211.106h-3.922v-.748l1.868-1.586c.742-.629,1.015-.979,1.015-1.465a.814.814,0,0,0-.878-.846c-.5,0-.834.274-1.253.813l-.677-.523a2.221,2.221,0,0,1,2-1.14,1.615,1.615,0,0,1,1.788,1.626c0,.858-.451,1.326-1.41,2.107l-1.115.929h2.581Zm-41.064-.471a2.7,2.7,0,0,1-.66-2.08c0-1.667.79-2.96,2.324-2.96a2.46,2.46,0,0,1,1.657.6l-.511.737a1.8,1.8,0,0,0-1.175-.474c-.806,0-1.256.728-1.306,1.719a1.745,1.745,0,0,1,1.3-.539,1.719,1.719,0,0,1,1.9,1.71A1.882,1.882,0,0,1-343,211.2a2.032,2.032,0,0,1-1.51-.569m.363-1.239a1.012,1.012,0,0,0,1.123.985.988.988,0,0,0,1.083-.994.987.987,0,0,0-1.108-.951,1,1,0,0,0-1.1.959m31.855-1.921a1.886,1.886,0,0,1,2.021-1.88,1.946,1.946,0,0,1,1.5.572,2.721,2.721,0,0,1,.66,2.077c0,1.752-.871,2.96-2.322,2.96a2.572,2.572,0,0,1-1.735-.654l.518-.728a1.8,1.8,0,0,0,1.241.511c.8,0,1.276-.7,1.309-1.7a1.6,1.6,0,0,1-1.272.571,1.721,1.721,0,0,1-1.921-1.727m.956-.043a.989.989,0,0,0,1.107.974,1,1,0,0,0,1.1-.982,1.025,1.025,0,0,0-1.131-1.007,1,1,0,0,0-1.073,1.015m-53.547,19.363c-3.446-5.415-14.859-30.17-13.612-30.991a.186.186,0,0,1,.1-.023c1.9,0,20.3,19.6,23.706,24.6a.415.415,0,0,1,.056.358,12.7,12.7,0,0,0,.971,9.36l-2.6,1.885a12.452,12.452,0,0,0-8.3-5,.406.406,0,0,1-.314-.189m-9.255-24.448c.012.015,13.22,20.277,13.233,20.289a.583.583,0,0,0,.816.141.584.584,0,0,0,.138-.816l-13.973-19.755a.128.128,0,0,0-.214.141m13.627,42.645c-5.941-.673-12.261-2.974-16.307-6.88-5.5-4.647-7.785-11.394-8.3-13.117a30.989,30.989,0,0,1,14.325,6c3.723,2.948,7.342,8.053,10.28,14m-2.644-1.921c-2.613-4.735-5.592-8.59-8.542-10.926a28.957,28.957,0,0,0-11.193-5.249,26.414,26.414,0,0,0,7.017,10.1l.085.081c3.14,3.026,7.87,5.04,12.633,6m13.567-32.436a2.69,2.69,0,0,1-.657-2.08c0-1.667.79-2.96,2.324-2.96a2.454,2.454,0,0,1,1.654.6l-.511.737a1.8,1.8,0,0,0-1.176-.474c-.8,0-1.256.728-1.3,1.719a1.73,1.73,0,0,1,1.292-.539,1.717,1.717,0,0,1,1.9,1.71,1.878,1.878,0,0,1-2.012,1.853,2.045,2.045,0,0,1-1.51-.569m.367-1.239a1.007,1.007,0,0,0,1.118.985.989.989,0,0,0,1.088-.994.989.989,0,0,0-1.108-.951,1,1,0,0,0-1.1.959m82.9,44.166-34.242,20.077c.017.153.032.3.048.446.008.065.017.126.023.189.022.149.041.3.061.445.008.063.02.124.028.184a16.269,16.269,0,0,0,1.284,4.4,8.389,8.389,0,0,0,4.972,4.63A27.491,27.491,0,0,1-283.636,272.6a30.776,30.776,0,0,1,16.752-3.88l2.427.206-.962,2.238a30.782,30.782,0,0,1-11.309,12.951,27.343,27.343,0,0,1-8.7,3.28c-.093.02-.186.04-.279.056l-.181.036a22.983,22.983,0,0,1-3.784.483h0c-.858.061-1.608.081-2.206.081h-.008c-.1.387-.181.773-.242,1.158a13.43,13.43,0,0,0-.124,3.188,31.423,31.423,0,0,1,5.392,1.257c.1.028.192.06.289.093a27.63,27.63,0,0,1,8.555,4.366,30.775,30.775,0,0,1,9.718,14.184l.692,2.334-2.43-.08a30.8,30.8,0,0,1-16.185-5.81,25.838,25.838,0,0,1-4.263-4.2c-.1-.124-.2-.246-.3-.37a.117.117,0,0,0-.023-.031,25.6,25.6,0,0,1-2.887-4.41c-.017-.035-.036-.068-.056-.1a31.425,31.425,0,0,1-1.823-4,17.718,17.718,0,0,0-9.275,2.274c-.169.1-.338.2-.5.3s-.33.209-.491.319c10.045,15.232,20.322,30.825,25.508,38.687l-.008,0,1.8,2.734.519.785h0l-.121.451a5.234,5.234,0,0,1-5.045,3.849,5.611,5.611,0,0,1-.725-.048l-.463-.065-1.437-2.182-1.535-2.336-.8-1.223h0c-5.111-7.754-14.138-21.442-23.136-35.093-.119.178-.234.358-.347.539s-.224.372-.333.561a27.319,27.319,0,0,0-3.18,8.86,26.655,26.655,0,0,1,8.051,8.225l.008.012a25.7,25.7,0,0,1,2.429,4.492l.007.02.025.056A30.783,30.783,0,0,1-303.33,344l-.572,2.366-2.065-1.287a30.786,30.786,0,0,1-11.1-13.132,25.722,25.722,0,0,1-1.682-6.425c-.022-.113-.036-.229-.05-.347a37,37,0,0,1-.161-9.25,18.643,18.643,0,0,0-3.477-1.256c-.395-.1-.786-.186-1.168-.254,0,1.679-.008,3.252-.017,4.718q-.08,5.489-.551,10.6a74.207,74.207,0,0,1-1.972,11.3c-.153.6-.31,1.191-.468,1.76-.358,1.276-.72,2.464-1.075,3.542-.116.358-.234.705-.35,1.039-.076.226-.153.443-.229.655-.036.106-.073.211-.113.315-.11.31-.217.6-.327.889-.032.093-.068.186-.1.279-.1.274-.206.531-.3.78s-.189.476-.277.693c-.036.088-.073.176-.109.265-.068.169-.136.33-.2.479-.032.076-.065.149-.093.217s-.048.108-.068.161c-.045.1-.09.2-.129.29-.076.169-.141.314-.192.43q-.025.06-.05.109c-.088.192-.181.382-.269.571-.045.093-.088.186-.133.274-.088.186-.173.363-.262.536s-.173.342-.257.508c-.129.245-.254.483-.375.705a16.747,16.747,0,0,1-1.2,1.951c-.06.085-.121.158-.178.231l0,0a3.261,3.261,0,0,1-.237.262c-.161.153-.29.229-.392.221-.8-.076.4-3.393,1.128-7.2s1.082-11.744,1.027-18.194c-.174-5.333-.343-11.516-.516-18.461-.378.06-.77.136-1.168.224a18.871,18.871,0,0,0-3.908,1.362,36.953,36.953,0,0,1-.181,9.4c-.008.068-.017.133-.028.2a26.486,26.486,0,0,1-.674,3.386,24.535,24.535,0,0,1-1.014,3.039,30.765,30.765,0,0,1-11.1,13.132l-2.069,1.287L-352.6,344a30.783,30.783,0,0,1,1.309-17.147l.025-.056.007-.02a25.29,25.29,0,0,1,2.437-4.5.5.5,0,0,1,.048-.073,26.571,26.571,0,0,1,8-8.155,27.276,27.276,0,0,0-3.406-9.24c-.11-.184-.226-.367-.342-.544s-.231-.353-.35-.526L-363.065,331.2a3.251,3.251,0,0,1-1.606,1.264c-2.009.712-6.911,3.144-11.925,10.8a.3.3,0,0,1-.189.136l-2.568.644a.294.294,0,0,1-.08.013.323.323,0,0,1-.267-.5l29.622-45.035c-.161-.11-.325-.214-.491-.319s-.335-.2-.508-.3a17.69,17.69,0,0,0-9.275-2.274c-.1,0-.206,0-.307.008a19.51,19.51,0,0,1-1.476,3.922l-.012.02a25.254,25.254,0,0,1-2.505,3.957c-.148.2-.305.406-.463.609-.1.136-.217.269-.325.4a25.583,25.583,0,0,1-4.264,4.2,30.81,30.81,0,0,1-16.185,5.81l-2.435.08.693-2.334a30.751,30.751,0,0,1,9.721-14.184,27.874,27.874,0,0,1,8.889-4.476.4.4,0,0,1,.073-.02,31.466,31.466,0,0,1,5.274-1.221,13.426,13.426,0,0,0-.124-3.188c-.061-.385-.141-.771-.242-1.158h-.008c-.6,0-1.349-.02-2.2-.081h-.013a24.293,24.293,0,0,1-4.01-.528.061.061,0,0,1-.028-.008c-.068-.012-.133-.023-.2-.04v0a27.453,27.453,0,0,1-8.7-3.276,30.8,30.8,0,0,1-11.307-12.951l-.959-2.238,2.427-.206A30.78,30.78,0,0,1-372.3,272.6l-.756,1.256c-7.255-4.351-15.79-3.683-15.874-3.68l-.4.037.161.375c.032.076,3.457,7.918,10.715,12.27a26.036,26.036,0,0,0,8.265,3.1v0l0,.008a22.835,22.835,0,0,0,4.119.539h.015c.186,0,.367.008.547.008.335,0,.66-.008.984-.028q.771-.05,1.5-.169c.141-.025.282-.048.423-.076.051-.013.1-.022.158-.033a11.792,11.792,0,0,0,1.408-.395,10.387,10.387,0,0,0,6.083-5.627,17.3,17.3,0,0,0,1.324-4.215c.008-.06.02-.124.033-.184.023-.146.048-.287.071-.431.008-.065.02-.124.028-.189.025-.144.045-.29.061-.44l-.541-.314c-.015.149-.032.294-.056.44-.007.063-.015.124-.028.189-.02.144-.043.289-.071.435-.008.06-.02.124-.033.184a17.106,17.106,0,0,1-1.321,4.277,9.811,9.811,0,0,1-5.737,5.348,9.824,9.824,0,0,1-1.417.388l-.012,0c-.189.04-.378.076-.576.1a12.271,12.271,0,0,1-1.515.148c-.35.017-.7.02-1.07.013a.093.093,0,0,1-.037,0,.421.421,0,0,1-.065,0,.217.217,0,0,1-.056,0,.517.517,0,0,1-.071,0h-.041a22.061,22.061,0,0,1-3.957-.528l-.02,0a25.543,25.543,0,0,1-8.092-3.033c-6.176-3.708-9.517-10.007-10.3-11.618,1.788-.073,8.918-.088,15.093,3.615l.085-.133-.08.136a25.564,25.564,0,0,1,9.521,10.033c.206-.025.407-.053.6-.09a26.027,26.027,0,0,0-9.814-10.441l.776-1.241a27.316,27.316,0,0,1,10.48,11.317,8.386,8.386,0,0,0,4.975-4.63,16.046,16.046,0,0,0,1.287-4.444c.013-.06.022-.124.03-.186.02-.144.04-.294.06-.443.008-.065.017-.124.02-.189.02-.148.036-.3.053-.446l-34.174-20.037-.508-.3-2.455-1.442a.4.4,0,0,1,.139-.745l5.254-.806,2.762,1.559.818.466.813.455.921-.144.934-.149,1.938-.305h0l1.851-.3,2.867-.455c2.17,2.988,8.773,4.054,17.134,6.856-.06-.226-.121-.448-.186-.677v0c-.063-.222-.128-.448-.2-.673-.222-.765-.459-1.538-.717-2.314a70.412,70.412,0,0,0-3.033-7.658c-6.223-.793-12.757-3.232-16.988-7.289a30.782,30.782,0,0,1-9.038-14.566l-.592-2.384,2.447.211a32.489,32.489,0,0,1,15.851,6.485c3.889,3.076,7.62,8.24,10.655,14.264a22.991,22.991,0,0,0,7.489-.584c.2-.048.393-.109.582-.169.09-.028.178-.056.265-.088s.191-.078.282-.121c-1.888-3.358-3.53-6.309-4.577-8.194l2.887-2.077c1.365,1.739,3.572,4.574,6.058,7.8.158-.121.315-.242.463-.363s.307-.249.451-.382a12.242,12.242,0,0,0,3.834-13.423c-.722-2.137-2.011-3.635-3.444-4.01a1.828,1.828,0,0,0-1.44.144c-.033.022-.068.045-.1.07-.946.733-1.835,3.321-.458,4.693a.114.114,0,0,1,.028.138c-.041.08-.174.028-.174.028-2.963-1.075-3.739-5.451-1.86-7.384a5.2,5.2,0,0,1,4.9-1.09c2.616.683,4.763,2.974,5.886,6.284a15.762,15.762,0,0,1-5.025,17.331c-.149.133-.3.26-.455.382s-.307.245-.463.363c3.344,4.355,6.891,9.045,9.448,12.588.085,4.678.174,9.32.259,13.889,0,.045,0,.088,0,.133-.068-.1-.133-.206-.2-.307-1.9-2.878-3.237-4.91-3.812-5.788-2.344-3.558-6.651-11.014-10.463-17.741-.178.076-.358.153-.539.226v0c-.081.036-.163.068-.242.1-.025.007-.053.02-.09.032-.076.025-.173.06-.224.076a23.877,23.877,0,0,1-7.593,1.007,72.131,72.131,0,0,1,3.8,11.11c.056.226.113.451.164.677s.109.463.161.692a66.518,66.518,0,0,1,11.9,5.971,56.337,56.337,0,0,1,6.055,4.413c.39.333.76.66,1.115.987,0,.244.008.486.012.728.017.02.005.121.005.121.008.345.012.692.02,1.037s.012.69.02,1.035c.017.77.028,1.535.045,2.294l-1.131-.639-.511-.29-.511-.29-15.926-9.01v0l-1.627-.917-.6-.343-1.634-.926-19.675-11.132-1.818.315,21.719,12.294,1.594.9.6.335v0l1.583.894,15.145,8.57.511.29.511.29,1.808,1.022c.008.463.017.926.023,1.385l-2.487-1.408-.513-.29-.511-.285-14.4-8.14-1.543-.871-.582-.333-1.563-.878-23.791-13.451-.916.158-.906.158,25.734,14.544,1.53.863.572.325,1.5.849L-338,278.023l.511.289.511.29,3.16,1.788c.041,1.9.078,3.792.118,5.655,0,.09,0,.172,0,.257l-6.022-3.53-.508-.3-.508-.3-11.336-6.646c-.025.144-.048.285-.073.426-.012.065-.02.124-.032.189-.028.141-.056.282-.085.418-.013.065-.025.129-.04.189a18.324,18.324,0,0,1-1.337,4.059,11.884,11.884,0,0,1-6.981,6.432c.116.468.212.939.289,1.41a17.16,17.16,0,0,1,.2,3.479,21.379,21.379,0,0,1,10.982,2.833c.169.1.338.2.5.3s.33.209.491.317l7.785-11.835,6.286,3.683L-342.8,300.6c.124.166.251.33.37.5s.246.338.363.511a29.857,29.857,0,0,1,4.521,10.72,21.936,21.936,0,0,1,4.4-1.352c.387-.076.776-.144,1.166-.2-.161-6.82-.325-14.315-.494-22.411,0-.085,0-.174,0-.257,0-.146-.008-.287-.013-.431,0-.09,0-.174,0-.257s0-.169,0-.254c0-.056,0-.118,0-.174,0-.088,0-.173,0-.26-.008-.2-.013-.395-.013-.592v0c-.007-.343-.017-.682-.02-1.024-.032-1.34-.056-2.692-.085-4.061,0-.226-.008-.456-.017-.682s-.007-.45-.012-.675c-.008-.46-.015-.919-.028-1.382v0c-.008-.455-.015-.906-.025-1.36-.023-1.1-.043-2.206-.068-3.326,0-.367-.012-.737-.02-1.1,0-.091,0-.181,0-.269v-.041c-.005-.257-.012-.519-.017-.78v-.048c0-.056,0-.113,0-.169-.005-.217-.008-.44-.013-.66,0-.126,0-.251-.007-.38q-.122-6.273-.242-12.9c-.008-.347-.012-.692-.02-1.043s-.012-.692-.02-1.037q-.174-9.5-.355-19.659.194-11.516.141-33.277c.121-2.11-.615-3.442-2.11-6.264a1.6,1.6,0,0,1-.124-1.168c.6-2.182,3.281-8.426,4.667-11.594a.872.872,0,0,1,1.372-.31,1.025,1.025,0,0,1,.093.1.907.907,0,0,1,.141.237c1.7,4.2,5.685,14.162,7.032,18.059a112.43,112.43,0,0,1,3.938,14.32,1.808,1.808,0,0,1,.031.483v0a.415.415,0,0,1-.124.274c-.136.109-.367.033-.551-.068a8.277,8.277,0,0,1-1.257-.894c-1.682-1.549-3.417-3.412-5.475-5.539-.33,2.022-.3,15.528.725,40.495q.157,3.75.289,7.4c.013.338.025.68.033,1.015v0c.017.338.028.672.04,1.007q.152,4.36.282,8.542c.012.372.022.742.033,1.111s.023.745.037,1.115c.007.395.02.785.032,1.176.008.262.017.523.02.781a.313.313,0,0,1,0,.056c.012.282.02.559.028.836v.121c.012.343.02.685.028,1.024.028.977.051,1.948.076,2.906.012.446.025.884.032,1.327s.025.9.036,1.35c0,.221.008.441.013.664s.012.443.015.664c.025,1.171.053,2.328.076,3.462.005.37.013.733.022,1.1.007.335.012.665.02,1,0,.032,0,.068,0,.1v.156c0,.141,0,.279.008.415,0,.085,0,.169,0,.254.005.141.008.282.008.418.005.085.005.169.005.254.156,8.426.226,15.9.237,22.2.395.06.781.133,1.168.214a21.744,21.744,0,0,1,4.053,1.291A30.047,30.047,0,0,1-314.1,301.96c.118-.172.234-.347.358-.516s.237-.337.367-.506c-3.008-4.562-5.977-9.071-8.764-13.293l6.574-3.854c2.483,3.769,5.108,7.751,7.774,11.8.166-.11.33-.217.494-.319s.335-.2.5-.3a21.349,21.349,0,0,1,10.986-2.837,17.28,17.28,0,0,1,.2-3.479c.078-.471.171-.942.29-1.41a11.916,11.916,0,0,1-6.984-6.432,18.393,18.393,0,0,1-1.332-4.018c-.012-.061-.025-.126-.036-.189-.032-.138-.056-.279-.085-.42-.012-.06-.025-.124-.037-.189-.023-.141-.048-.282-.073-.426l-11.336,6.646-1.015.6-6.493,3.807c0-.085,0-.169,0-.254q-.055-2.687-.121-5.534l3.872-2.186.513-.29.511-.289,13.711-7.751,1.51-.853.576-.323,1.521-.861,25.83-14.6-.906-.158-.911-.156h0l-23.892,13.5-1.551.878-.587.33-1.549.874-14.393,8.135-.511.289-.511.29-3.257,1.84c-.012-.446-.025-.9-.036-1.349l2.633-1.49v0l.511-.285.511-.29,15.141-8.567v0l1.591-.9.6-.338,1.589-.9,21.817-12.346-1.82-.319h-.005l-19.77,11.191-1.627.922-.607.342-1.622.917-15.929,9.015-.513.29-.511.289-2.016,1.14q-.05-1.943-.106-3.953c0-.144-.007-.285-.012-.431,0-.076,0-.148-.008-.226.109-.113.222-.224.338-.337.141-.141.282-.279.428-.415.159-.154.322-.307.489-.46a52.409,52.409,0,0,1,7.1-5.338,66.415,66.415,0,0,1,11.832-5.946c.053-.229.11-.458.166-.692s.108-.451.169-.682q.6-2.379,1.42-4.859c.713-2.153,1.518-4.255,2.4-6.271a25.137,25.137,0,0,1-6.815-.765c-.2-.056-.4-.113-.592-.174l-.44-.144.182-.524-.177.267-.005,0-.088.222-.045-.022L-322.7,270.253s-.347.491-.4.539c0-.133-.008-.435-.013-.571q-.169-5.8-.4-12.1l10.423-15.846c-.153-.121-.3-.254-.446-.39s-.3-.265-.436-.4a15.7,15.7,0,0,1-4.171-16.561c1.12-3.31,3.265-5.6,5.886-6.284a5.2,5.2,0,0,1,4.892,1.09h0v0c1.88,1.931,1.1,6.3-1.86,7.379,0,0-.133.051-.177-.028a.118.118,0,0,1,.032-.138c1.37-1.369.488-3.953-.458-4.693a1.082,1.082,0,0,0-.116-.076,1.825,1.825,0,0,0-1.427-.138c-1.432.375-2.721,1.873-3.441,4.01A12.139,12.139,0,0,0-312,238.49c.133.144.279.289.423.426s.285.277.435.406l24.947-37.935h0l1.538-2.334,1.433-2.183h0l.46-.063a5.4,5.4,0,0,1,.725-.048,5.23,5.23,0,0,1,5.043,3.847l.124.451-.519.785-2.455,3.729-.012,0-24.82,37.472c.2.056.395.108.6.153s.406.093.615.136a24.809,24.809,0,0,0,6.417.323c3.109-6.18,6.868-11.292,10.624-14.264a32.486,32.486,0,0,1,15.85-6.485l2.452-.211-.6,2.384a30.767,30.767,0,0,1-9.038,14.566c-4.227,4.058-10.762,6.5-16.989,7.289a71.4,71.4,0,0,0-3.031,7.658c-.257.785-.5,1.566-.725,2.339-.068.226-.133.451-.2.677v0c-.06.226-.124.451-.184.677,8.4-2.822,15.04-3.89,17.213-6.885l2.87.455h0l1.856.3h0l1.939.305.931.144.926.149.8-.451.818-.466,2.762-1.559,5.249.806a.4.4,0,0,1,.144.745l-2.455,1.442Zm-45.588-13.071c-.148-.129-.294-.262-.438-.4s-.287-.274-.426-.418a13.22,13.22,0,0,1-3.419-14.086c.883-2.61,2.55-4.461,4.461-4.96a3.189,3.189,0,0,1,2.87.524.878.878,0,0,1,.113.091l.017.017a3.856,3.856,0,0,1,.717,4.078c-.025.073.048.133.1.053a3.816,3.816,0,0,0-.423-4.562.051.051,0,0,0-.015-.02.382.382,0,0,0-.076-.06,3.753,3.753,0,0,0-3.447-.688c-2.1.547-3.92,2.543-4.866,5.338a14.115,14.115,0,0,0,.514,10.438,15.162,15.162,0,0,0,3.092,4.4c.141.136.282.277.431.41v0c.141.133.289.265.438.395Zm16.188,5.113c6.168-.637,12.79-3,16.984-7.046,6.462-5.463,8.583-13.753,8.6-13.832l.1-.4-.411.037a31.524,31.524,0,0,0-15.063,6.171c-3.841,3.041-7.57,8.351-10.573,14.526a26.426,26.426,0,0,1-8.253-.418c-.2-.05-.406-.1-.6-.154s-.393-.113-.584-.173l-.337.508c.189.065.382.124.584.181s.393.108.6.158a26.538,26.538,0,0,0,8.306.5,72.364,72.364,0,0,0-4.441,12.057c-.065.226-.124.446-.178.672v.005c-.065.229-.121.458-.178.688.209-.076.415-.154.624-.226.058-.231.118-.46.177-.688s.116-.451.181-.677a71.751,71.751,0,0,1,4.461-11.891m-49.3-4.283c.124.168.257.337.39.506.158-.116.31-.237.46-.358s.305-.254.455-.382a15.412,15.412,0,0,0,4.018-5.254,14.131,14.131,0,0,0,.514-10.438c-.946-2.8-2.765-4.791-4.866-5.338a3.772,3.772,0,0,0-3.451.688.812.812,0,0,0-.076.06c0,.008-.013.012-.017.017a3.821,3.821,0,0,0-.418,4.565c.048.08.121.02.1-.053a3.859,3.859,0,0,1,.717-4.078c0-.008.012-.012.017-.017.036-.031.071-.065.108-.091a3.2,3.2,0,0,1,2.875-.524c1.911.5,3.578,2.351,4.461,4.96,2.08,6.155-.27,11.4-4.376,14.987-.149.138-.3.262-.451.383s-.3.249-.455.367m-10.737,16.15c.065.226.124.451.184.677s.121.46.174.688c.209.073.418.146.627.221-.06-.229-.116-.458-.176-.687s-.118-.451-.178-.677a72.555,72.555,0,0,0-4.441-12.032,25.25,25.25,0,0,0,9.232-.753c.156-.045.33-.1.483-.158l.017,0,.007-.005.061-.023c.181-.076.362-.153.539-.231-.1-.173-.194-.345-.29-.514-.173.076-.35.153-.528.226l-.012,0v0c-.186.063-.378.124-.571.184a25.027,25.027,0,0,1-9.229.677c-3-6.175-6.725-11.485-10.567-14.526a31.533,31.533,0,0,0-15.068-6.171l-.406-.037.1.4c.025.08,2.142,8.369,8.6,13.821,4.2,4.058,10.825,6.42,16.993,7.057a71.195,71.195,0,0,1,4.456,11.866m-9.673,27.014a24.509,24.509,0,0,0-8.676-8.869l-.031-.02a26.471,26.471,0,0,0-11.825-3.366A26.436,26.436,0,0,0-377.4,281.1a24.129,24.129,0,0,0,7.649,2.863v0c.116.025.231.048.342.07a.641.641,0,0,0,.118.023,30.235,30.235,0,0,0,3.4.418h.012a.639.639,0,0,0,.1,0,.135.135,0,0,0,.036,0c.1,0,.209,0,.315,0m2.825,3.268c.025.085.045.169.061.254.08.322.139.649.192.97a14.763,14.763,0,0,1,.161,3.253c.2-.022.395-.033.592-.045a15.434,15.434,0,0,0-.174-3.3q-.095-.622-.254-1.244c-.148.033-.3.065-.455.093a.93.93,0,0,1-.124.02m23.164,25.495.528-.33a28.689,28.689,0,0,0-4.03-9.984c-.113-.177-.229-.35-.355-.523s-.237-.342-.362-.511a21.679,21.679,0,0,0-3.067-3.378,19.44,19.44,0,0,0-2.226-1.712c-.161-.108-.325-.212-.491-.314s-.333-.206-.5-.3a19.878,19.878,0,0,0-9.751-2.585c-.186,0-.37,0-.559,0-.491,0-.99.025-1.493.056-.2.017-.4.031-.605.053-.5.048-1.014.111-1.525.192a30.956,30.956,0,0,0-5.685,1.457c-.028.008-.06.022-.088.033-.121.04-.242.085-.358.128-.073.025-.146.053-.217.081v0a25.269,25.269,0,0,0-6.783,3.666c-6.7,5.169-9.187,13.358-9.21,13.439l-.118.39.406-.012c.09,0,8.635-.335,15.339-5.508a24.086,24.086,0,0,0,4.021-3.973h0l0,0a24.559,24.559,0,0,0,3.228-4.93.949.949,0,0,1,.045-.093,18.4,18.4,0,0,0,1.087-2.85l-.415.048c-.071.008-.144.017-.217.028a18.292,18.292,0,0,1-1.022,2.6c-.028.06-.056.116-.088.173a23.991,23.991,0,0,1-3.072,4.655l0,0a23.515,23.515,0,0,1-3.93,3.885c-5.7,4.4-12.786,5.217-14.572,5.353.587-1.69,3.172-8.336,8.872-12.737a24.8,24.8,0,0,1,6.631-3.587v0c.2-.076.418-.146.619-.214.158-.056.31-.113.468-.161a30.892,30.892,0,0,1,4.932-1.272c.526-.093,1.045-.161,1.549-.212.206-.025.406-.045.607-.056.149-.017.3-.025.448-.033.358-.023.712-.04,1.058-.043.164,0,.325,0,.483,0a19.005,19.005,0,0,1,9.589,2.528c.174.1.343.2.508.3s.33.209.491.319a19.474,19.474,0,0,1,2.158,1.662,21,21,0,0,1,3.107,3.459c.126.164.242.337.363.511s.237.35.35.531a28.323,28.323,0,0,1,3.852,9.786m-29.013-16.09a.763.763,0,0,0-.088.028c-.319.108-.64.226-.962.347l-.005-.013a23.332,23.332,0,0,0-6.248,3.378,26.384,26.384,0,0,0-7.475,9.808,26.383,26.383,0,0,0,11.38-4.743,25.407,25.407,0,0,0,6.626-8.1l.013-.025a16.988,16.988,0,0,0,.7-1.662,30.084,30.084,0,0,0-3.945.982m36.522,15.7c-.008-.2-.012-.392-.017-.589-.395.061-.78.129-1.166.214a20.187,20.187,0,0,0-4.147,1.344c-.161.073-.319.146-.474.222-.3.141-.6.294-.894.451-.149.08-.3.164-.446.249a.11.11,0,0,0-.041.025l-.056.036-.246.153c-.015.012-.43.274-1.095.768,0-.023-.007-.051-.012-.08a25.59,25.59,0,0,0-7.2,7.628l-.149.234a34.648,34.648,0,0,0-2.037,3.84l-.02.045.531.241-.531-.237,0,.008c-3.208,7.83-1.264,16.163-1.244,16.248l.1.395.347-.217c.073-.045,7.3-4.614,10.516-12.444a23.371,23.371,0,0,0,.946-2.833c.008-.033.015-.07.023-.1.214-.869.392-1.744.536-2.616.025-.121.04-.242.056-.358a35.734,35.734,0,0,0,.3-8.821c-.108.065-.212.129-.322.192-.076.048-.156.1-.232.146a35.319,35.319,0,0,1-.322,8.393c-.017.118-.033.231-.053.343a24.635,24.635,0,0,1-.556,2.681,22.249,22.249,0,0,1-.917,2.749c-2.734,6.667-8.454,10.923-9.932,11.936a30.461,30.461,0,0,1-.5-5.6,26.292,26.292,0,0,1,1.8-9.864l.013-.028a23.314,23.314,0,0,1,2.243-4.154,25.052,25.052,0,0,1,6.7-7.15c.443-.314.9-.607,1.362-.878.048-.032.1-.06.149-.088.133-.081.265-.153.4-.226.31-.173.624-.338.942-.488.139-.071.285-.141.43-.2a19.367,19.367,0,0,1,4.066-1.349c.387-.09.773-.158,1.168-.217m-8.632,5.523a28.663,28.663,0,0,0-5.592,6.228l-.012.02a34.009,34.009,0,0,0-1.871,3.558l-.025.056a24.782,24.782,0,0,0-1.671,9.244c0,1.1.061,2.094.141,2.931a26.428,26.428,0,0,0,7.472-9.808,20.557,20.557,0,0,0,.853-2.545c.214-.853.392-1.714.536-2.571.017-.109.036-.217.048-.33a29.508,29.508,0,0,0,.121-6.783m25.161-2.734-.012.085c-.665-.494-1.08-.757-1.095-.768l-.251-.153v-.013c-.181-.1-.358-.206-.542-.305-.3-.158-.589-.307-.891-.446v-.005c-.156-.073-.314-.144-.471-.217a20.067,20.067,0,0,0-3.767-1.261c-.387-.091-.776-.169-1.168-.237v.6c.392.065.781.146,1.168.237a19.485,19.485,0,0,1,3.668,1.264c.144.065.289.133.43.206.318.149.629.31.939.483.136.073.269.149.4.231.05.023.1.056.146.085q.694.411,1.364.881c.158.1.31.217.464.335.337.246.669.5.99.776.091.073.181.149.265.226.173.144.342.294.506.446.138.121.27.245.4.378.1.093.206.194.305.294s.194.186.279.282a.12.12,0,0,1,.033.028l.023.025v0c.136.138.27.279.4.42.484.514.947,1.058,1.393,1.626.076.093.149.189.221.285q.249.321.484.652c.108.146.212.3.314.443.06.081.116.161.169.246.153.222.3.448.446.674a.26.26,0,0,0,.02.032,23.206,23.206,0,0,1,2.223,4.126l.012.028v0c2.729,6.662,1.639,13.7,1.3,15.458-1.473-1.014-7.2-5.269-9.927-11.936a22.544,22.544,0,0,1-.917-2.749h-.005c-.012-.053-.023-.1-.035-.154-.033-.128-.061-.252-.093-.382-.169-.685-.3-1.365-.406-2.029v-.008a35.451,35.451,0,0,1-.395-8.844c-.076-.053-.153-.1-.229-.146-.109-.068-.219-.133-.327-.2a36.017,36.017,0,0,0,.355,9.184c.007.04.012.08.02.121q.212,1.249.519,2.5c.008.032.017.068.023.1h0a22.241,22.241,0,0,0,.942,2.833c3.208,7.83,10.441,12.4,10.514,12.444l.347.217.093-.395c.02-.085,1.967-8.417-1.241-16.248l0-.008v0l-.017-.037a33.7,33.7,0,0,0-2.178-4.066c-.02-.033-.04-.06-.06-.093a25.618,25.618,0,0,0-7.15-7.556m.74,12.419h0a20.836,20.836,0,0,0,.854,2.545,26.431,26.431,0,0,0,7.475,9.808,26.5,26.5,0,0,0-1.53-12.175l-.025-.056a33.95,33.95,0,0,0-1.86-3.539l-.023-.04a28.374,28.374,0,0,0-5.592-6.231,29.572,29.572,0,0,0,.121,6.79c.012.11.031.214.048.319.144.861.322,1.724.534,2.58m21.087-34.342c-.2-.022-.4-.037-.6-.053-.5-.032-1-.056-1.495-.056-.189,0-.373,0-.559,0a19.872,19.872,0,0,0-9.75,2.585c-.169.1-.338.2-.508.3s-.33.206-.491.314a19.441,19.441,0,0,0-2.226,1.712,21.748,21.748,0,0,0-3.31,3.714c-.121.169-.242.343-.358.519s-.234.35-.35.533a28.984,28.984,0,0,0-3.8,9.629l.531.33a28.308,28.308,0,0,1,3.623-9.419c.108-.181.226-.363.342-.539s.234-.352.355-.524a21.253,21.253,0,0,1,3.353-3.8,19.474,19.474,0,0,1,2.158-1.662c.161-.109.325-.214.491-.319s.33-.2.5-.3a18.979,18.979,0,0,1,9.594-2.533c.158,0,.319,0,.483,0,.347,0,.7.02,1.06.043.148.008.3.017.446.033.2.012.4.032.607.056.5.051,1.024.119,1.551.212.378.061.76.133,1.15.217.166.036.335.073.5.113q1.384.314,2.867.8c.1.033.192.065.289.1s.214.073.324.113l.176.061c.234.076.471.161.708.249a24.772,24.772,0,0,1,6.631,3.587c5.7,4.4,8.285,11.047,8.874,12.737-1.788-.136-8.869-.954-14.574-5.353a23.834,23.834,0,0,1-3.933-3.88,30.474,30.474,0,0,1-3.144-4.788.147.147,0,0,0-.02-.04c-.528-1-.934-1.9-1.236-2.624l-.42-.048c-.085-.008-.164-.017-.246-.02.31.76.75,1.75,1.337,2.87l0,.008v0c.012.028.027.053.04.081a30.379,30.379,0,0,0,3.237,4.922,23.925,23.925,0,0,0,4.021,3.978c6.7,5.173,15.249,5.5,15.339,5.508l.4.012-.114-.39c-.023-.081-2.512-8.27-9.214-13.439a25.461,25.461,0,0,0-6.78-3.666v0c-.173-.065-.345-.129-.519-.189-.048-.02-.1-.036-.144-.053a30.789,30.789,0,0,0-5.689-1.457c-.511-.081-1.019-.144-1.523-.192m2.827,4.058a.316.316,0,0,1,.017.031c.008.02.02.037.028.056a28.865,28.865,0,0,0,2.782,4.267l.008.012.015.022c.013.012.02.028.033.04l.008.008c.023.028.051.06.076.093a22.264,22.264,0,0,0,3.7,3.655A26.416,26.416,0,0,0-272.7,310.7a26.354,26.354,0,0,0-7.472-9.808,23.381,23.381,0,0,0-6.248-3.381l0,.017c-.408-.154-.81-.3-1.208-.431-.033-.012-.061-.02-.093-.028a29.328,29.328,0,0,0-3.7-.906c.2.536.423,1.075.68,1.611m-2.729-9.78.025-.265c-.149-.028-.3-.06-.448-.093h0q-.152.622-.254,1.244a15.428,15.428,0,0,0-.174,3.3c.194.012.391.023.592.045a14.763,14.763,0,0,1,.161-3.253c.053-.322.113-.649.189-.97-.043,0-.073-.008-.088-.008m-8.276-12.3a1.329,1.329,0,0,1-.033-.184c-.028-.141-.051-.287-.076-.431v0c-.008-.061-.02-.121-.025-.186v0c-.023-.144-.043-.285-.06-.435l-.539.315q.03.221.06.438c.012.06.022.124.028.186.025.144.048.289.076.435.013.06.02.124.033.186a17.442,17.442,0,0,0,1.316,4.174,10.361,10.361,0,0,0,6.08,5.624,11.37,11.37,0,0,0,1.413.4c.051.012.1.02.153.028l0,0c.141.028.282.051.423.076.483.08.979.136,1.493.169.322.02.652.028.987.028.181,0,.362-.005.547-.008h.012a32.613,32.613,0,0,0,4.114-.547h0a26.15,26.15,0,0,0,8.263-3.1c7.26-4.351,10.685-12.193,10.717-12.27l.161-.375-.406-.037c-.085,0-8.61-.672-15.868,3.678A26.011,26.011,0,0,0-292.7,284.3c.2.036.393.065.6.09a25.576,25.576,0,0,1,9.517-10.033l0,0h0c6.18-3.7,13.3-3.683,15.091-3.615-.78,1.611-4.122,7.91-10.3,11.618a25.443,25.443,0,0,1-8.092,3.024l0,.008a22.52,22.52,0,0,1-4.25.547h-.028c-.383.023-.737.036-1.063.043.008-.02.017-.04.025-.056a12.954,12.954,0,0,1-1.515-.144h0c-.2-.028-.387-.065-.576-.1l-.008,0a9.773,9.773,0,0,1-1.422-.388,9.807,9.807,0,0,1-5.732-5.348,16.751,16.751,0,0,1-1.312-4.24m11.384,8.784c.037,0,.073,0,.113,0a26.388,26.388,0,0,0,11.724-3.374,26.437,26.437,0,0,0,8.567-8.872,26.413,26.413,0,0,0-11.857,3.386,24.471,24.471,0,0,0-8.68,8.869,1.191,1.191,0,0,0,.133,0m-65.019-51.018,2.737-1.969c-.129-.166-.242-.31-.338-.43l-2.661,1.923c.076.138.161.3.262.476m76.26,4.662c-4.038,3.9-10.355,6.195-16.293,6.868,2.938-5.946,6.558-11.05,10.277-14a31.054,31.054,0,0,1,14.328-6c-.516,1.727-2.8,8.471-8.313,13.129m-.931-1.131a26.387,26.387,0,0,0,7.012-10.088,28.937,28.937,0,0,0-11.188,5.241c-2.95,2.336-5.929,6.191-8.542,10.926,4.763-.957,9.493-2.971,12.63-6Z" transform="translate(180.344 54.532)" fill="#678f38"/><rect width="20.81" height="440.036" transform="translate(-60.107 100.348)" fill="#bb8f38"/></g></svg>