<svg xmlns="http://www.w3.org/2000/svg" xmlns:xlink="http://www.w3.org/1999/xlink" width="627" height="952" viewBox="0 0 627 952"><defs><clipPath id="a"><rect width="627" height="952" transform="translate(33 4813)" fill="#56853c" stroke="#707070" stroke-width="1"/></clipPath></defs><g transform="translate(-33 -4813)" clip-path="url(#a)"><g transform="translate(47.654 4638.497)" opacity="0.997"><path d="M490.141,852.232c45.425-23.412,186.9-74.783,228.376-89,6.168-2.89,13.9-39.646,7.658-37.308-38.59,13.368-172.517,59.42-222.62,86.661C498.258,815.934,485.372,855.58,490.141,852.232Z" transform="translate(-116.135 -74.098)" fill="#56853c"/><path d="M390.669,370.679c45.424-23.412,153.444-71.161,194.925-85.378,6.167-2.89,13.9-39.645,7.658-37.306-38.591,13.367-139.068,55.8-189.17,83.039C398.785,334.381,385.9,374.027,390.669,370.679Z" transform="translate(-125.066 -117.006)" fill="#56853c"/><path d="M224.98,343.637c-2.724,4.68-6.1,10.8-8.312,12.019-5.477,3-24.02-7.183-21.1-32.126,2.168-18.689,18.135-48.9,24.532-61.88,12.415-25.077,12.1-37.059,5.544-28.181-7.248,9.821-40.336,62.539-48.205,95.562-10.8,45.357,11.391,61.793,21.976,62.275,13.268.6,25.652-16.67,31.722-37.728C235.325,339.129,231.811,331.847,224.98,343.637Z" transform="translate(-144.376 -118.561)" fill="#56853c"/><path d="M483.828,232.609c-2.237,4.491-4.994,10.353-6.965,11.614-4.886,3.1-22.645-5.2-21.446-28.443.882-17.414,13.835-46.312,18.972-58.7,9.975-23.936,8.967-35,3.435-26.394-6.114,9.517-33.549,60.258-38.843,91.27-7.264,42.594,14.245,56.461,24.062,56.273,12.307-.238,22.723-16.957,27.072-36.8C493.126,227.819,489.438,221.3,483.828,232.609Z" transform="translate(-120.767 -127.788)" fill="#56853c"/><path d="M688.584,840.331c-86.407,0-289.363,186.977-328.7,189.53-40.572,2.634-38.574-55.479,5.583-120.652,0,.362,3.8-18.5-5.465-9.849-66.3,88.3-72.446,197.1-14.885,197.1,5.834,0,12.572-1.654,20.033-4.538l46.855-26.1c71.523-47.21,172.079-132.374,256.087-132.374,18.125,0,43.472,9.03,61.484,27.089,1.917,1.927,4.709,1.081,5.079-1.62,4.073-29.63,10-71.129,10.285-86.345C730.775,851.482,711.789,840.331,688.584,840.331Z" transform="translate(-132.594 -63.817)" fill="#56853c"/><path d="M396.081,604.859c-49.55,0-76.349,59.038-76.349,105.241,0,74.922,58.685,66.051,134.488,61.668-4.285-19.893-18.319-59.316-35-67.394-36.241,2.743-61.236-2.158-61.236-13.207,0-12.09,10.3-20,21.969-19.576,32.979,1.193,80.654,61.993,79.484,112.045C407.5,843.007,324.8,882.457,149.943,920.628c-3.554.777-4.288,9.908-.859,10.649,232.87,50.572,348.813-36.632,344-183.886C491.039,685.138,453.121,604.859,396.081,604.859Z" transform="translate(-146.861 -84.957)" fill="#56853c"/><path d="M305.694,247.224a29.842,29.842,0,1,0-29.842-29.844A29.843,29.843,0,0,0,305.694,247.224Z" transform="translate(-135.28 -122.423)" fill="#56853c"/><path d="M571.055,308.612A29.842,29.842,0,1,0,600.9,338.456,29.843,29.843,0,0,0,571.055,308.612Z" transform="translate(-111.457 -111.554)" fill="#56853c"/><path d="M400.121,217.38a29.842,29.842,0,1,0-29.844,29.844A29.842,29.842,0,0,0,400.121,217.38Z" transform="translate(-129.482 -122.423)" fill="#56853c"/><path d="M213.432,833.99c18.744-.362,34.609-25.825,41.234-56.042,4.582-20.738-1.033-30.673-9.577-13.44-3.409,6.839-7.609,15.768-10.609,17.688-7.44,4.729-34.488-7.919-32.664-43.321,1.344-26.521,21.073-70.538,28.9-89.4,15.191-36.456,13.656-53.3,5.232-40.2-9.312,14.5-51.1,91.779-59.161,139.011C165.719,813.157,198.48,834.277,213.432,833.99Z" transform="translate(-144.376 -84.957)" fill="#56853c"/><path d="M421.2,457.75c-.019.044-.045.088-.063.131l1.518,2.681C421.762,458.822,421.2,457.75,421.2,457.75ZM410.875,506.2c-31.828,9.569-53.181-2.22-56.97-16.086-2.436-9.327-2.486-49.977-2.3-92.536,13.279-9.323,26.545-23.867,32.861-48.894l-.841-7.233c-5.342,5.008-18.113,10.529-31.851,15.936.075-30.143-.1-56.237-1.381-66.439H342C328.407,305,312.631,326.76,308.655,334.759l1.3,39.91c-83.529,33.3-121.658,80.578-132.84,107.042-8.332,19.641-14.222,36.609-14.222,50.654,0,32.846,23.877,49.689,69.611,45.657,25.829-2.4,54.515-12.811,63.237-31.282a264.335,264.335,0,0,0,12.8-30.068c.054,32.931,29.932,69.716,82.829,64.361,22-2.227,49.043-20.325,49.043-20.325C437.725,558.2,415.244,533.664,410.875,506.2ZM308,471.307c0,25.3-110.658,41.689-110.658,14.441h-.007c0-4.342,25.892-31.7,111.054-64.605C308.373,421.839,308,468.558,308,471.307Z" transform="translate(-145.422 -113.139)" fill="#56853c"/><path d="M638.272,378.125c-63.981-2.461-128.5,93.126-143.007,116a4.435,4.435,0,0,1-7.03.642c-5.4-5.869-15.108-17.075-21.837-28.611-6.315-10.826-12.24-25.86-15.983-36.2a4.467,4.467,0,0,0-8.329-.17,206.064,206.064,0,0,1-17.452,33.9c-11.389,17.559-20.3,26.587-24.339,30.227a4.416,4.416,0,0,0-1.175,4.982c3.293,8.075,12.96,30.447,23.319,41.822,12.784,14.035,48.714,57.585,148.76,45.609,90.566-10.842,146.721-39.126,159.3-93.623S710.934,380.92,638.272,378.125ZM602.407,507.612c-37.347,1.71-55.849.28-64.583-1.088a4.444,4.444,0,0,1-2.708-7.243c12.932-15.54,51.921-58.32,87.784-56.413,43.783,2.329,73.127,41.92,73.127,45.646S661.062,504.926,602.407,507.612Z" transform="translate(-124.243 -105.317)" fill="#56853c"/><path d="M298.665,955.149s-29.233,4.474-65.653-3.653c-24.537-5.475-50.687-20.558-50.687-20.558s6.4,72.16,69.367,62.97c0,0-7.479,63.111,33.578,62.945,0,0-4.439-25.6-1.458-48.234A196.8,196.8,0,0,1,298.665,955.149Z" transform="translate(-143.677 -55.682)" fill="#56853c"/><path d="M606.539,249.344l-24.36-71.969s62.24,23.434,93.073,92.182C703.98,333.614,689.615,377.93,687.77,378.5c-2.606.8-1.286-55.159-36.63-92.236C622.236,255.941,606.539,249.344,606.539,249.344Z" transform="translate(-107.779 -123.336)" fill="#56853c"/><path d="M469.323,552.95S448.75,620.268,454.8,628.966s51.15-66.335,51.15-66.335Z" transform="translate(-80.721 -146.595)" fill="#56853c"/><path d="M525.438,964.728s122.866,28.209,79.682,111.211c-26.329,50.606-84.977,21.294-122.369,25.027s-60.473,32.31-60.473,32.31,7.094-51.278,50.266-67.021c34.029-12.409,53.556-.051,53.556-.051s-6.12-19.3,6.974-32.581c9.13-9.258,27.473-6.363,27.473-6.363s-16.563,21.846.707,27.641,39.591-21.165,23.735-40.022c-32.826-39.041-74.916-33.948-74.916-33.948Z" transform="translate(-122.134 -52.649)" fill="#56853c"/><path d="M559.541,746.656c0,7.547,13.861-.667,21.08-9.977s20.206-37.922,42.519-41.859,72.19-5.251,72.19-5.251,3.937-25.594,10.5-43.313S719.612,614.1,719.612,614.1,665.579,606.769,631.672,641c-27.8,28.074-28.9,46.394-35.462,44.425,0,0,.476-3.982,6.367-15.347,5.618-10.838,8.914-26.289,1.04-44.663s-44.135-20.56-44.135-20.56-63.658,73.882-63.658,77.491,6.715,6.047,16.559,2.766,25.463-19.69,43.818-11.075C579.5,684.975,559.541,739.108,559.541,746.656Z" transform="translate(-115.532 -84.957)" fill="#56853c"/></g></g></svg>