<svg xmlns="http://www.w3.org/2000/svg" xmlns:xlink="http://www.w3.org/1999/xlink" width="872" height="721" viewBox="0 0 872 721"><defs><clipPath id="a"><rect width="872" height="721" transform="translate(650.126 2792.713)" fill="#fff" stroke="#707070" stroke-width="1"/></clipPath></defs><g transform="translate(-650.126 -2792.713)" clip-path="url(#a)"><g transform="translate(843.136 2183.09)" opacity="0.997"><path d="M490.352,877.926c54.658-28.17,224.884-89.983,274.795-107.088,7.422-3.477,16.72-47.7,9.214-44.891-46.434,16.086-207.583,71.5-267.869,104.276C500.12,834.25,484.614,881.955,490.352,877.926Z" transform="translate(-40.328 58.369)" fill="#003d55"/><path d="M390.88,395.637c54.657-28.17,184.633-85.625,234.545-102.731,7.421-3.478,16.72-47.7,9.214-44.889C588.2,264.1,467.305,315.156,407.019,347.934,400.646,351.961,385.141,399.665,390.88,395.637Z" transform="translate(-71.292 -90.403)" fill="#003d55"/><path d="M235.231,366.621c-3.278,5.631-7.343,12.995-10,14.462-6.591,3.611-28.9-8.643-25.394-38.655,2.608-22.487,21.821-58.841,29.518-74.457,14.938-30.174,14.562-44.592,6.67-33.908-8.721,11.817-48.534,75.251-58,114.985-12.995,54.576,13.707,74.352,26.443,74.933,15.965.728,30.866-20.059,38.17-45.4C247.679,361.2,243.45,352.434,235.231,366.621Z" transform="translate(-138.243 -95.798)" fill="#003d55"/><path d="M493.242,253.915c-2.692,5.4-6.01,12.457-8.38,13.974-5.879,3.735-27.247-6.257-25.8-34.224,1.061-20.953,16.647-55.726,22.828-70.63,12-28.8,10.789-42.113,4.133-31.759-7.356,11.451-40.368,72.506-46.738,109.821-8.741,51.251,17.14,67.937,28.953,67.711,14.808-.286,27.341-20.4,32.575-44.275C504.43,248.151,499.992,240.3,493.242,253.915Z" transform="translate(-56.387 -127.788)" fill="#003d55"/><path d="M766.392,840.331c-103.97,0-348.178,224.981-395.512,228.053-48.819,3.169-46.414-66.755,6.718-145.175,0,.435,4.575-22.263-6.576-11.851-79.777,106.248-87.171,237.166-17.911,237.166,7.019,0,15.127-1.99,24.105-5.46l56.379-31.4c86.061-56.806,207.056-159.28,308.138-159.28,21.809,0,52.308,10.865,73.981,32.594,2.307,2.318,5.666,1.3,6.112-1.95,4.9-35.652,12.036-85.586,12.376-103.9C817.159,853.748,794.314,840.331,766.392,840.331Z" transform="translate(-97.394 94.014)" fill="#003d55"/><path d="M446.737,604.859c-59.621,0-91.867,71.038-91.867,126.632,0,90.151,70.613,79.477,161.824,74.2-5.156-23.936-22.043-71.372-42.116-81.092-43.607,3.3-73.682-2.6-73.682-15.891,0-14.547,12.393-24.062,26.434-23.555,39.682,1.436,97.048,74.594,95.64,134.819-62.5,71.437-162.008,118.906-372.4,164.835-4.276.935-5.16,11.922-1.033,12.814,280.2,60.851,419.711-44.078,413.914-221.262C561,701.455,515.371,604.859,446.737,604.859Z" transform="translate(-146.861 20.716)" fill="#003d55"/><path d="M311.76,259.355a35.908,35.908,0,1,0-35.908-35.909A35.909,35.909,0,0,0,311.76,259.355Z" transform="translate(-106.708 -109.188)" fill="#003d55"/><path d="M577.12,308.612a35.908,35.908,0,1,0,35.908,35.91A35.909,35.909,0,0,0,577.12,308.612Z" transform="translate(-24.107 -71.5)" fill="#003d55"/><path d="M412.252,223.446a35.908,35.908,0,1,0-35.909,35.909A35.908,35.908,0,0,0,412.252,223.446Z" transform="translate(-86.604 -109.188)" fill="#003d55"/><path d="M221.336,880.563c22.554-.435,41.644-31.075,49.615-67.433,5.514-24.953-1.243-36.907-11.524-16.172-4.1,8.23-9.155,18.973-12.765,21.283-8.952,5.69-41.5-9.529-39.3-52.126,1.617-31.911,25.356-84.875,34.77-107.572,18.279-43.866,16.432-64.139,6.3-48.373-11.2,17.444-61.482,110.434-71.186,167.266C163.925,855.495,203.345,880.908,221.336,880.563Z" transform="translate(-138.244 20.716)" fill="#003d55"/><path d="M473.7,491.653c-.022.052-.054.106-.076.157l1.827,3.226C474.379,492.942,473.7,491.653,473.7,491.653Zm-12.422,58.3c-38.3,11.514-63.991-2.671-68.55-19.356-2.931-11.223-2.991-60.135-2.772-111.345,15.978-11.218,31.94-28.718,39.54-58.832l-1.012-8.7c-6.428,6.025-21.795,12.67-38.325,19.175.09-36.27-.121-67.667-1.661-79.944H378.406c-16.357,16.9-35.34,43.087-40.124,52.712l1.564,48.022c-100.507,40.065-146.386,96.956-159.84,128.8-10.026,23.633-17.112,44.05-17.112,60.95,0,39.522,28.73,59.788,83.759,54.938,31.079-2.893,65.6-15.415,76.09-37.64a318.073,318.073,0,0,0,15.4-36.18c.066,39.624,36.016,83.887,99.664,77.443,26.472-2.68,59.012-24.457,59.012-24.457C493.586,612.526,466.536,583,461.279,549.955ZM337.49,507.966c0,30.441-133.15,50.163-133.15,17.376h-.008c0-5.224,31.155-38.144,133.626-77.737C337.942,448.443,337.49,504.657,337.49,507.966Z" transform="translate(-141.87 -76.998)" fill="#003d55"/><path d="M686.948,378.134c-76.985-2.961-154.623,112.054-172.074,139.579a5.336,5.336,0,0,1-8.459.772c-6.5-7.062-18.178-20.545-26.275-34.426-7.6-13.026-14.728-31.117-19.231-43.557a5.375,5.375,0,0,0-10.022-.2,247.951,247.951,0,0,1-21,40.791c-13.7,21.127-24.424,31.991-29.286,36.371a5.313,5.313,0,0,0-1.414,6c3.963,9.717,15.594,36.636,28.059,50.323,15.383,16.888,58.616,69.289,179,54.88,108.974-13.046,176.543-47.079,191.676-112.652S774.379,381.5,686.948,378.134ZM643.793,533.941c-44.938,2.058-67.2.337-77.709-1.309a5.347,5.347,0,0,1-3.258-8.715c15.561-18.7,62.475-70.174,105.626-67.88,52.682,2.8,87.991,50.441,87.991,54.924S714.371,530.709,643.793,533.941Z" transform="translate(-68.439 -49.877)" fill="#003d55"/><path d="M322.312,960.07s-35.175,5.383-79-4.4c-29.525-6.588-60.989-24.736-60.989-24.736s7.7,86.827,83.466,75.769c0,0-9,75.939,40.4,75.74,0,0-5.341-30.807-1.755-58.037A236.8,236.8,0,0,1,322.312,960.07Z" transform="translate(-135.821 122.219)" fill="#003d55"/><path d="M611.49,263.972l-29.311-86.6s74.891,28.2,111.99,110.919c34.568,77.077,17.283,130.4,15.063,131.082-3.135.962-1.547-66.371-44.075-110.983C630.378,271.911,611.49,263.972,611.49,263.972Z" transform="translate(-11.354 -112.352)" fill="#003d55"/><path d="M472.5,552.95s-24.754,81-17.474,91.467S516.573,564.6,516.573,564.6Z" transform="translate(-4.914 -64.001)" fill="#003d55"/><path d="M546.406,964.728s147.839,33.943,95.878,133.815c-31.681,60.892-102.249,25.623-147.241,30.114s-72.764,38.877-72.764,38.877,8.536-61.7,60.483-80.644c40.946-14.932,64.442-.062,64.442-.062s-7.364-23.227,8.391-39.2c10.986-11.139,33.057-7.656,33.057-7.656s-19.93,26.286.851,33.259,47.638-25.466,28.56-48.157c-39.5-46.977-90.143-40.848-90.143-40.848Z" transform="translate(-61.128 132.737)" fill="#003d55"/><path d="M572.492,775.477c0,9.081,16.678-.8,25.364-12s24.313-45.63,51.161-50.368,86.863-6.318,86.863-6.318,4.738-30.8,12.634-52.117S765.1,615.976,765.1,615.976s-65.016-8.818-105.815,32.376c-33.456,33.78-34.774,55.824-42.67,53.454,0,0,.573-4.791,7.662-18.467,6.76-13.041,10.726-31.632,1.251-53.742s-53.106-24.739-53.106-24.739-76.6,88.9-76.6,93.241,8.08,7.276,19.925,3.328,30.638-23.692,52.724-13.327C596.5,701.259,572.492,766.394,572.492,775.477Z" transform="translate(-38.235 20.716)" fill="#003d55"/></g></g></svg>