<svg xmlns="http://www.w3.org/2000/svg" width="473.9" height="836.306" viewBox="0 0 473.9 836.306"><g transform="translate(-146.861 -127.788)"><path d="M489.906,823.651c35.155-18.119,144.64-57.875,176.742-68.877,4.774-2.237,10.754-30.682,5.926-28.873-29.865,10.346-133.513,45.986-172.287,67.068C496.188,795.56,486.215,826.242,489.906,823.651Z" transform="translate(-53.599 -93.658)" fill="#bf9743"/><path d="M390.434,342.917c35.154-18.119,118.752-55.072,150.854-66.074,4.773-2.237,10.754-30.682,5.927-28.872-29.866,10.345-107.626,43.182-146.4,64.265C396.715,314.825,386.742,345.508,390.434,342.917Z" transform="translate(-38.02 -18.809)" fill="#bf9743"/><path d="M213.577,318.07c-2.108,3.621-4.723,8.358-6.433,9.3-4.239,2.323-18.589-5.559-16.333-24.862,1.678-14.463,14.035-37.845,18.986-47.889,9.608-19.407,9.366-28.68,4.29-21.809-5.609,7.6-31.216,48.4-37.306,73.956-8.358,35.1,8.816,47.822,17.008,48.2,10.268.468,19.853-12.9,24.55-29.2C221.583,314.582,218.863,308.946,213.577,318.07Z" transform="translate(-4.336 -16.095)" fill="#bf9743"/><path d="M473.356,208.91c-1.732,3.476-3.865,8.012-5.39,8.988-3.781,2.4-17.525-4.025-16.6-22.012.682-13.477,10.707-35.841,14.683-45.427,7.72-18.524,6.939-27.086,2.658-20.427-4.731,7.365-25.964,46.634-30.061,70.635-5.622,32.964,11.024,43.7,18.622,43.55,9.524-.184,17.586-13.123,20.951-28.477C480.552,205.2,477.7,200.154,473.356,208.91Z" transform="translate(-45.519)" fill="#bf9743"/><path d="M602.034,840.331c-66.871,0-223.941,144.7-254.385,146.679-31.4,2.038-29.853-42.935,4.321-93.373,0,.28,2.943-14.319-4.23-7.623-51.311,68.337-56.067,152.54-11.52,152.54,4.515,0,9.729-1.28,15.5-3.512l36.261-20.2C443.338,978.309,521.16,912.4,586.174,912.4c14.027,0,33.644,6.988,47.583,20.964a2.211,2.211,0,0,0,3.931-1.254c3.152-22.931,7.741-55.047,7.96-66.823C634.686,848.961,619.993,840.331,602.034,840.331Z" transform="translate(-24.888 -111.592)" fill="#bf9743"/><path d="M339.735,604.859c-38.347,0-59.087,45.69-59.087,81.447,0,57.983,45.416,51.118,104.082,47.726-3.316-15.4-14.177-45.9-27.088-52.157-28.047,2.123-47.391-1.67-47.391-10.221,0-9.357,7.971-15.476,17-15.15,25.523.924,62.419,47.977,61.513,86.713-40.2,45.947-104.2,76.478-239.52,106.018-2.75.6-3.319,7.668-.665,8.242C328.8,896.615,418.531,829.127,414.8,715.166,413.223,666.987,383.878,604.859,339.735,604.859Z" transform="translate(0 -74.715)" fill="#bf9743"/><path d="M298.947,233.73a23.1,23.1,0,1,0-23.1-23.1A23.1,23.1,0,0,0,298.947,233.73Z" transform="translate(-20.201 -9.358)" fill="#bf9743"/><path d="M564.307,308.612a23.1,23.1,0,1,0,23.1,23.1A23.1,23.1,0,0,0,564.307,308.612Z" transform="translate(-61.76 -28.319)" fill="#bf9743"/><path d="M386.627,210.634a23.1,23.1,0,1,0-23.1,23.1A23.1,23.1,0,0,0,386.627,210.634Z" transform="translate(-30.316 -9.358)" fill="#bf9743"/><path d="M204.64,782.186c14.506-.28,26.784-19.986,31.911-43.371,3.546-16.049-.8-23.738-7.412-10.4-2.638,5.293-5.889,12.2-8.21,13.689-5.758,3.66-26.691-6.129-25.279-33.526,1.04-20.525,16.309-54.59,22.363-69.188,11.757-28.214,10.568-41.253,4.049-31.113-7.207,11.22-39.544,71.029-45.785,107.582C167.714,766.063,193.068,782.407,204.64,782.186Z" transform="translate(-4.336 -74.715)" fill="#bf9743"/><path d="M362.8,420.038c-.014.034-.035.068-.049.1l1.175,2.075C363.234,420.867,362.8,420.038,362.8,420.038Zm-7.989,37.5c-24.632,7.406-41.157-1.718-44.09-12.449-1.885-7.219-1.924-38.678-1.783-71.615,10.277-7.215,20.543-18.471,25.432-37.84l-.651-5.6c-4.134,3.875-14.018,8.149-24.65,12.333.058-23.328-.078-43.522-1.069-51.418h-6.492c-10.52,10.87-22.73,27.713-25.807,33.9l1.006,30.887C212.062,381.51,182.553,418.1,173.9,438.582c-6.449,15.2-11.006,28.332-11.006,39.2,0,25.42,18.479,38.454,53.872,35.335,19.989-1.861,42.19-9.915,48.939-24.209a204.579,204.579,0,0,0,9.907-23.27c.042,25.486,23.164,53.954,64.1,49.81,17.026-1.724,37.955-15.73,37.955-15.73C375.588,497.781,358.19,478.789,354.809,457.537ZM275.19,430.53c0,19.579-85.639,32.264-85.639,11.176h-.005c0-3.36,20.038-24.533,85.946-50C275.481,392.246,275.19,428.4,275.19,430.53Z" transform="translate(-2.511 -25.553)" fill="#bf9743"/><path d="M584.127,378.114c-49.515-1.9-99.45,72.071-110.675,89.774a3.432,3.432,0,0,1-5.441.5c-4.181-4.542-11.692-13.214-16.9-22.142-4.887-8.378-9.473-20.014-12.369-28.015a3.457,3.457,0,0,0-6.446-.132,159.476,159.476,0,0,1-13.506,26.236c-8.814,13.589-15.709,20.576-18.836,23.393a3.417,3.417,0,0,0-.909,3.856c2.549,6.25,10.03,23.563,18.047,32.367,9.894,10.862,37.7,44.566,115.127,35.3,70.09-8.391,113.549-30.28,123.281-72.455S640.361,380.278,584.127,378.114ZM556.372,478.326c-28.9,1.323-43.222.217-49.981-.842a3.439,3.439,0,0,1-2.1-5.605c10.008-12.027,40.182-45.135,67.937-43.659,33.884,1.8,56.594,32.443,56.594,35.326S601.765,476.247,556.372,478.326Z" transform="translate(-39.455 -39.198)" fill="#bf9743"/><path d="M272.362,949.676s-22.624,3.462-50.809-2.827c-18.99-4.237-39.227-15.91-39.227-15.91s4.953,55.845,53.683,48.733c0,0-5.788,48.842,25.987,48.714,0,0-3.435-19.815-1.128-37.328A152.307,152.307,0,0,1,272.362,949.676Z" transform="translate(-5.554 -125.783)" fill="#bf9743"/><path d="M601.031,233.072l-18.852-55.7s48.168,18.135,72.03,71.341c22.233,49.574,11.116,83.871,9.688,84.309-2.017.619-1-42.688-28.348-71.382C613.179,238.178,601.031,233.072,601.031,233.072Z" transform="translate(-68.176 -7.766)" fill="#bf9743"/><path d="M465.788,552.95s-15.922,52.1-11.239,58.83,39.585-51.337,39.585-51.337Z" transform="translate(-48.053 -66.585)" fill="#bf9743"/><path d="M502.115,964.728s95.087,21.831,61.667,86.067c-20.376,39.165-65.764,16.48-94.7,19.368s-46.8,25-46.8,25,5.491-39.685,38.9-51.868c26.336-9.6,41.447-.04,41.447-.04s-4.736-14.939,5.4-25.215c7.066-7.165,21.262-4.924,21.262-4.924s-12.819,16.906.547,21.392,30.639-16.379,18.369-30.973c-25.4-30.214-57.978-26.272-57.978-26.272Z" transform="translate(-43.134 -131.074)" fill="#bf9743"/><path d="M545.135,714.6c0,5.84,10.727-.516,16.314-7.721s15.637-29.348,32.906-32.4,55.869-4.063,55.869-4.063,3.047-19.808,8.126-33.521,10.666-24.887,10.666-24.887-41.817-5.672-68.058,20.823c-21.518,21.727-22.366,35.9-27.445,34.381,0,0,.369-3.082,4.928-11.878,4.348-8.388,6.9-20.345.8-34.565s-34.156-15.911-34.156-15.911-49.266,57.178-49.266,59.971,5.2,4.68,12.815,2.141,19.706-15.238,33.911-8.571C560.579,666.862,545.135,708.755,545.135,714.6Z" transform="translate(-54.651 -74.715)" fill="#bf9743"/></g></svg>