<svg xmlns="http://www.w3.org/2000/svg" width="682.353" height="1204.171" viewBox="0 0 682.353 1204.171"><g transform="translate(102.534 -3807.222)"><g transform="translate(-102.534 3807.222)"><path d="M490.259,866.685c50.618-26.088,208.263-83.332,254.486-99.174,6.873-3.221,15.484-44.179,8.533-41.573-43,14.9-192.241,66.214-248.071,96.569C499.305,826.236,484.945,870.415,490.259,866.685Z" transform="translate(-73.495 0.411)" fill="#56853c"/><path d="M390.788,384.717C441.4,358.629,561.774,305.42,608,289.579c6.872-3.221,15.484-44.178,8.533-41.571-43,14.9-154.967,62.177-210.8,92.533C399.832,344.269,385.472,388.448,390.788,384.717Z" transform="translate(-94.819 -102.042)" fill="#56853c"/><path d="M230.746,356.565c-3.036,5.215-6.8,12.034-9.262,13.393-6.1,3.344-26.766-8-23.517-35.8,2.415-20.825,20.208-54.492,27.337-68.954,13.834-27.944,13.486-41.3,6.177-31.4-8.077,10.944-44.947,69.689-53.716,106.487-12.034,50.542,12.694,68.857,24.489,69.4,14.785.674,28.585-18.576,35.349-42.041C242.274,351.542,238.358,343.427,230.746,356.565Z" transform="translate(-140.926 -105.758)" fill="#56853c"/><path d="M489.123,244.593c-2.493,5-5.565,11.536-7.761,12.942-5.444,3.458-25.233-5.795-23.9-31.7.982-19.4,15.416-51.607,21.141-65.41,11.115-26.672,9.992-39,3.828-29.412-6.813,10.605-37.384,67.147-43.284,101.7-8.095,47.464,15.873,62.916,26.813,62.706,13.714-.265,25.321-18.9,30.167-41C499.484,239.255,495.375,231.986,489.123,244.593Z" transform="translate(-84.555 -127.788)" fill="#56853c"/><path d="M732.349,840.331c-96.286,0-322.445,208.353-366.28,211.2-45.211,2.935-42.984-61.821,6.221-134.445,0,.4,4.237-20.617-6.09-10.975-73.881,98.4-80.729,219.638-16.587,219.638,6.5,0,14.009-1.843,22.324-5.057l52.212-29.082C503.848,1039,615.9,944.1,709.513,944.1c20.2,0,48.442,10.062,68.513,30.185,2.136,2.147,5.247,1.2,5.66-1.806,4.538-33.017,11.147-79.261,11.461-96.217C779.364,852.756,758.208,840.331,732.349,840.331Z" transform="translate(-112.795 24.959)" fill="#56853c"/><path d="M424.574,604.859c-55.215,0-85.077,65.787-85.077,117.273,0,83.488,65.394,73.6,149.864,68.719-4.775-22.167-20.413-66.1-39-75.1-40.384,3.057-68.237-2.4-68.237-14.717,0-13.472,11.477-22.284,24.48-21.814,36.749,1.33,89.875,69.081,88.571,124.855C437.293,870.234,345.138,914.194,150.3,956.728c-3.96.866-4.779,11.041-.957,11.867,259.494,56.354,388.691-40.82,383.323-204.909C530.388,694.316,488.135,604.859,424.574,604.859Z" transform="translate(-146.861 -25.519)" fill="#56853c"/><path d="M309.106,254.048a33.254,33.254,0,1,0-33.254-33.255A33.255,33.255,0,0,0,309.106,254.048Z" transform="translate(-119.209 -114.979)" fill="#56853c"/><path d="M574.466,308.612a33.254,33.254,0,1,0,33.254,33.256A33.255,33.255,0,0,0,574.466,308.612Z" transform="translate(-62.324 -89.025)" fill="#56853c"/><path d="M406.945,220.792a33.254,33.254,0,1,0-33.255,33.255A33.254,33.254,0,0,0,406.945,220.792Z" transform="translate(-105.365 -114.979)" fill="#56853c"/><path d="M217.878,860.186c20.887-.4,38.566-28.778,45.948-62.449,5.106-23.108-1.151-34.18-10.672-14.977-3.8,7.621-8.479,17.571-11.822,19.71-8.291,5.269-38.431-8.825-36.4-48.273,1.5-29.553,23.482-78.6,32.2-99.622,16.928-40.624,15.217-59.4,5.83-44.8-10.377,16.155-56.938,102.272-65.924,154.9C164.71,836.971,201.216,860.505,217.878,860.186Z" transform="translate(-140.927 -25.519)" fill="#56853c"/><path d="M450.73,476.82c-.021.049-.05.1-.07.146l1.692,2.987C451.358,478.014,450.73,476.82,450.73,476.82Zm-11.5,53.993c-35.467,10.663-59.261-2.474-63.484-17.925-2.714-10.394-2.77-55.691-2.567-103.116,14.8-10.389,29.58-26.6,36.618-54.484l-.937-8.06c-5.953,5.58-20.184,11.733-35.492,17.758.084-33.589-.112-62.666-1.539-74.035h-9.347c-15.148,15.651-32.728,39.9-37.158,48.816l1.449,44.473c-93.079,37.1-135.567,89.79-148.027,119.28-9.285,21.887-15.848,40.794-15.848,56.445,0,36.6,26.607,55.369,77.569,50.877,28.782-2.679,60.748-14.276,70.466-34.858a294.561,294.561,0,0,0,14.265-33.506c.061,36.7,33.354,77.687,92.3,71.719,24.516-2.482,54.65-22.649,54.65-22.649C469.146,588.759,444.094,561.413,439.226,530.813Zm-114.64-38.887c0,28.192-123.309,46.456-123.309,16.092h-.007c0-4.838,28.852-35.325,123.75-71.991C325,436.8,324.586,488.863,324.586,491.927Z" transform="translate(-143.424 -92.811)" fill="#56853c"/><path d="M665.651,378.13c-71.3-2.742-143.195,103.773-159.357,129.263a4.942,4.942,0,0,1-7.834.715c-6.02-6.541-16.835-19.027-24.333-31.882-7.037-12.064-13.64-28.817-17.81-40.338a4.978,4.978,0,0,0-9.281-.189,229.622,229.622,0,0,1-19.447,37.777C414.9,493.042,404.97,503.1,400.467,507.159a4.921,4.921,0,0,0-1.309,5.552c3.67,9,14.441,33.928,25.985,46.6,14.246,15.64,54.284,64.168,165.767,50.824,100.92-12.082,163.5-43.6,177.509-104.326S746.62,381.245,665.651,378.13ZM625.686,522.421c-41.616,1.905-62.234.312-71.966-1.212a4.952,4.952,0,0,1-3.018-8.071c14.411-17.317,57.857-64.988,97.82-62.863,48.789,2.6,81.488,46.713,81.488,50.865S691.047,519.428,625.686,522.421Z" transform="translate(-92.855 -74.133)" fill="#56853c"/><path d="M311.966,957.917s-32.575,4.985-73.158-4.071c-27.343-6.1-56.482-22.908-56.482-22.908s7.132,80.409,77.3,70.169c0,0-8.334,70.327,37.417,70.142,0,0-4.946-28.53-1.625-53.748A219.3,219.3,0,0,1,311.966,957.917Z" transform="translate(-139.258 44.383)" fill="#56853c"/><path d="M609.324,257.572l-27.145-80.2S651.535,203.488,685.892,280.1c32.013,71.381,16.005,120.763,13.949,121.394-2.9.891-1.433-61.465-40.817-102.781C626.816,264.924,609.324,257.572,609.324,257.572Z" transform="translate(-53.542 -117.158)" fill="#56853c"/><path d="M471.111,552.95s-22.925,75.014-16.183,84.707,57-73.919,57-73.919Z" transform="translate(-81.087 -36.646)" fill="#56853c"/><path d="M537.232,964.728s136.913,31.434,88.792,123.925c-29.339,56.392-94.692,23.729-136.359,27.888s-67.387,36-67.387,36,7.906-57.141,56.013-74.684c37.92-13.828,59.679-.057,59.679-.057s-6.82-21.51,7.771-36.306c10.174-10.316,30.614-7.091,30.614-7.091s-18.457,24.343.788,30.8,44.117-23.584,26.449-44.6c-36.579-43.5-83.481-37.829-83.481-37.829Z" transform="translate(-87.82 51.626)" fill="#56853c"/><path d="M566.826,762.867c0,8.409,15.445-.743,23.49-11.118s22.516-42.258,47.38-46.645,80.443-5.851,80.443-5.851,4.388-28.521,11.7-48.265S745.2,615.154,745.2,615.154s-60.211-8.167-97.995,29.983c-30.983,31.283-32.2,51.7-39.517,49.5,0,0,.531-4.437,7.1-17.1,6.26-12.077,9.934-29.294,1.159-49.77s-49.181-22.91-49.181-22.91-70.936,82.328-70.936,86.35,7.483,6.739,18.452,3.082S542.649,672.35,563.1,681.95C589.063,694.135,566.826,754.456,566.826,762.867Z" transform="translate(-72.054 -25.519)" fill="#56853c"/></g></g></svg>