<svg xmlns="http://www.w3.org/2000/svg" width="502.281" height="674.033" viewBox="0 0 502.281 674.033"><g transform="translate(-329.448 -1318.407)"><path d="M-49.121,291.773H-64.184V288.9l7.175-6.092c2.848-2.415,3.9-3.76,3.9-5.627a3.125,3.125,0,0,0-3.371-3.25c-1.905,0-3.205,1.051-4.811,3.122l-2.6-2.007c1.994-2.8,3.957-4.378,7.685-4.378,4.161,0,6.869,2.517,6.869,6.245,0,3.294-1.733,5.091-5.416,8.093l-4.282,3.568h9.915Zm-157.727-1.81c-1.574-1.606-2.536-3.772-2.536-7.991,0-6.4,3.033-11.368,8.927-11.368a9.449,9.449,0,0,1,6.366,2.319l-1.963,2.829a6.912,6.912,0,0,0-4.512-1.822c-3.1,0-4.824,2.8-5.015,6.6a6.7,6.7,0,0,1,4.983-2.071c4.033,0,7.283,2.377,7.283,6.57s-3.371,7.117-7.736,7.117a7.8,7.8,0,0,1-5.8-2.185m1.4-4.76c0,2.179,1.7,3.785,4.314,3.785,2.581,0,4.161-1.638,4.161-3.817,0-2.1-1.657-3.651-4.257-3.651-2.581,0-4.218,1.657-4.218,3.683M-83.1,277.824c0-4.1,3.154-7.22,7.761-7.22a7.476,7.476,0,0,1,5.773,2.2c1.542,1.542,2.536,3.83,2.536,7.978,0,6.729-3.345,11.368-8.921,11.368a9.909,9.909,0,0,1-6.672-2.511l1.994-2.8a6.929,6.929,0,0,0,4.766,1.963c3.065,0,4.9-2.7,5.028-6.538a6.148,6.148,0,0,1-4.887,2.192c-4.422,0-7.379-2.581-7.379-6.633m3.67-.166c0,2.192,1.65,3.74,4.25,3.74,2.644,0,4.218-1.714,4.218-3.772,0-2.211-1.7-3.868-4.346-3.868a3.822,3.822,0,0,0-4.123,3.9M-285.1,352.033c-13.235-20.8-57.074-115.882-52.282-119.036a.713.713,0,0,1,.376-.089c7.309,0,77.975,75.286,91.057,94.478a1.6,1.6,0,0,1,.217,1.376c-1.051,3.677-5.117,20.658,3.728,35.951L-252,371.952c-11.177-15.726-28.094-18.715-31.9-19.193a1.559,1.559,0,0,1-1.2-.726m-35.55-93.9c.045.057,50.779,77.886,50.83,77.93a2.24,2.24,0,0,0,3.135.542,2.244,2.244,0,0,0,.529-3.135l-53.672-75.878a.493.493,0,0,0-.822.542m52.34,163.8c-22.818-2.587-47.1-11.425-62.637-26.425-21.111-17.848-29.9-43.763-31.873-50.384,6.7.9,32.689,5.365,55.023,23.041,14.3,11.323,28.2,30.93,39.488,53.767m-10.157-7.379c-10.036-18.186-21.48-32.994-32.81-41.966-15.28-12.075-32.287-17.657-42.992-20.161,4.225,10.386,12.572,26.629,26.954,38.78l.325.312c12.062,11.622,30.229,19.358,48.523,23.035m52.111-124.586c-1.58-1.606-2.523-3.772-2.523-7.991,0-6.4,3.033-11.368,8.927-11.368a9.427,9.427,0,0,1,6.353,2.319l-1.963,2.829a6.927,6.927,0,0,0-4.518-1.822c-3.09,0-4.824,2.8-5,6.6a6.643,6.643,0,0,1,4.964-2.071c4.052,0,7.283,2.377,7.283,6.57s-3.352,7.117-7.729,7.117a7.856,7.856,0,0,1-5.8-2.185m1.408-4.76c0,2.179,1.682,3.785,4.295,3.785s4.18-1.638,4.18-3.817c0-2.1-1.669-3.651-4.256-3.651s-4.218,1.657-4.218,3.683M93.46,454.846-38.065,531.961c.064.586.121,1.147.185,1.714.032.248.064.484.089.727.083.573.159,1.147.236,1.708.032.242.077.478.108.707a62.486,62.486,0,0,0,4.932,16.918c4.25,8.965,10.577,14.891,19.1,17.784,7.564-16.44,21.678-31.765,40.373-43.547,29.426-17.644,62.924-15.032,64.345-14.9l9.322.79-3.7,8.6c-.561,1.3-14.012,32.1-43.438,49.747a105.028,105.028,0,0,1-33.428,12.6c-.357.076-.714.153-1.071.217-.229.045-.459.1-.694.14a88.28,88.28,0,0,1-14.535,1.854H3.748c-3.294.236-6.175.312-8.475.312h-.032c-.389,1.485-.695,2.969-.93,4.448a51.6,51.6,0,0,0-.478,12.247,120.7,120.7,0,0,1,20.709,4.83c.37.108.739.229,1.109.357a106.129,106.129,0,0,1,32.86,16.771c27.151,20.958,36.926,53.117,37.327,54.481L88.5,689.42l-9.335-.306c-1.427-.051-35-1.351-62.166-22.315A99.258,99.258,0,0,1,.619,650.685c-.382-.478-.771-.943-1.16-1.421a.455.455,0,0,0-.089-.121,98.329,98.329,0,0,1-11.088-16.937c-.064-.134-.14-.261-.216-.4a120.733,120.733,0,0,1-7-15.369,68.054,68.054,0,0,0-35.626,8.736c-.65.376-1.3.758-1.937,1.147s-1.268.8-1.886,1.224c38.583,58.508,78.058,118.4,97.977,148.6l-.032.013,6.926,10.5,1.995,3.014h-.013L48,791.4a20.1,20.1,0,0,1-19.377,14.783A21.55,21.55,0,0,1,25.84,806l-1.778-.249-5.518-8.379L12.65,788.4,9.56,783.7h.013c-19.632-29.783-54.3-82.359-88.864-134.794-.459.682-.9,1.376-1.332,2.071-.427.714-.86,1.427-1.281,2.154A104.933,104.933,0,0,0-94.12,687.164c11.858,7.544,22.328,18.186,30.924,31.593l.032.045a98.7,98.7,0,0,1,9.328,17.256l.026.076.1.217c13.005,31.746,5.365,64.485,5.027,65.862l-2.2,9.087-7.933-4.945c-1.2-.746-29.611-18.7-42.629-50.441a98.8,98.8,0,0,1-6.461-24.679c-.083-.433-.14-.879-.191-1.332a142.069,142.069,0,0,1-.618-35.531,71.613,71.613,0,0,0-13.356-4.824c-1.517-.389-3.02-.714-4.486-.975,0,6.449-.032,12.489-.064,18.122q-.306,21.085-2.115,40.73a285.038,285.038,0,0,1-7.576,43.387c-.586,2.319-1.192,4.575-1.8,6.761-1.376,4.9-2.765,9.463-4.129,13.6-.446,1.376-.9,2.708-1.345,3.989-.293.867-.586,1.7-.879,2.517-.14.408-.28.809-.434,1.211-.421,1.192-.835,2.319-1.255,3.416-.121.357-.261.714-.4,1.07-.4,1.051-.79,2.039-1.16,2.995s-.726,1.829-1.064,2.664c-.14.338-.28.675-.421,1.019-.261.65-.522,1.268-.771,1.841-.121.293-.248.574-.357.835-.089.217-.185.414-.261.618-.172.4-.344.771-.5,1.115-.293.65-.542,1.2-.739,1.65q-.1.229-.191.421c-.338.739-.695,1.465-1.032,2.192-.172.357-.338.714-.51,1.051-.338.714-.663,1.4-1.007,2.058-.325.662-.663,1.312-.987,1.95-.5.943-.975,1.854-1.44,2.708a64.335,64.335,0,0,1-4.607,7.494c-.229.325-.465.605-.682.886l-.013.013a12.565,12.565,0,0,1-.911,1.007c-.619.586-1.115.879-1.5.847-3.078-.293,1.548-13.031,4.333-27.674s4.155-45.108,3.944-69.882c-.669-20.486-1.319-44.235-1.982-70.908-1.453.229-2.956.522-4.486.86a72.485,72.485,0,0,0-15.013,5.232,141.926,141.926,0,0,1-.694,36.1c-.032.261-.064.51-.108.758a101.712,101.712,0,0,1-2.587,13.005,94.255,94.255,0,0,1-3.893,11.674c-13.005,31.745-41.412,49.7-42.616,50.441l-7.946,4.945-2.185-9.087c-.338-1.376-7.978-34.116,5.028-65.862l.1-.217.025-.076a97.129,97.129,0,0,1,9.36-17.3,1.942,1.942,0,0,1,.185-.28c8.551-13.267,18.938-23.825,30.739-31.325a104.763,104.763,0,0,0-13.082-35.492c-.421-.707-.866-1.408-1.312-2.09s-.886-1.357-1.345-2.02l-69.882,105.489a12.488,12.488,0,0,1-6.168,4.855c-7.716,2.733-26.546,12.075-45.8,41.5a1.142,1.142,0,0,1-.726.522l-9.864,2.472a1.132,1.132,0,0,1-.306.051,1.242,1.242,0,0,1-1.026-1.918l113.779-172.982c-.618-.421-1.255-.822-1.886-1.224-.65-.4-1.287-.771-1.95-1.147a67.949,67.949,0,0,0-35.626-8.736c-.389,0-.79.019-1.179.032a74.927,74.927,0,0,1-5.671,15.063l-.044.077a97,97,0,0,1-9.622,15.2c-.567.778-1.172,1.561-1.778,2.339-.4.522-.835,1.032-1.255,1.542a97.97,97.97,0,0,1-16.37,16.115c-27.17,20.964-60.758,22.264-62.166,22.315l-9.354.306,2.663-8.966c.4-1.363,10.17-33.523,37.34-54.481A107.064,107.064,0,0,1-301,608.782a1.529,1.529,0,0,1,.281-.076,120.858,120.858,0,0,1,20.256-4.69,51.572,51.572,0,0,0-.477-12.247c-.236-1.478-.542-2.963-.931-4.448h-.032c-2.3,0-5.18-.076-8.468-.312h-.051a93.31,93.31,0,0,1-15.4-2.026.235.235,0,0,1-.109-.032c-.261-.045-.51-.089-.771-.153v-.013A105.448,105.448,0,0,1-340.139,572.2c-29.407-17.651-42.877-48.447-43.432-49.747l-3.683-8.6,9.323-.79c1.408-.128,34.919-2.74,64.345,14.9l-2.906,4.824c-27.865-16.714-60.649-14.146-60.974-14.133l-1.542.14.618,1.44c.121.293,13.279,30.414,41.157,47.128a100,100,0,0,0,31.746,11.89v.019l-.013.032a87.708,87.708,0,0,0,15.822,2.071h.057c.714.013,1.408.032,2.1.032,1.287,0,2.536-.032,3.779-.108q2.963-.191,5.748-.65c.541-.1,1.083-.185,1.625-.293.2-.051.4-.083.605-.127a45.3,45.3,0,0,0,5.41-1.517c10.374-3.613,18.262-10.852,23.366-21.614a66.436,66.436,0,0,0,5.085-16.191c.032-.229.076-.478.127-.707.089-.561.185-1.1.274-1.657.032-.248.076-.478.108-.726.1-.554.172-1.115.236-1.689l-2.077-1.2c-.057.573-.121,1.128-.217,1.689a7.3,7.3,0,0,1-.108.726c-.076.554-.165,1.109-.274,1.669-.031.229-.076.478-.127.707a65.715,65.715,0,0,1-5.072,16.427c-4.881,10.278-12.26,17.147-22.035,20.544a37.743,37.743,0,0,1-5.442,1.491l-.045.013c-.726.153-1.453.293-2.211.389a47.139,47.139,0,0,1-5.817.567c-1.345.064-2.7.076-4.11.051a.356.356,0,0,1-.14-.019,1.621,1.621,0,0,1-.248-.013.831.831,0,0,1-.217-.019,1.978,1.978,0,0,1-.274-.013h-.159a84.736,84.736,0,0,1-15.2-2.026L-305,577.1a98.111,98.111,0,0,1-31.083-11.648c-23.723-14.242-36.556-38.436-39.558-44.623,6.869-.28,34.256-.338,57.973,13.885l.325-.51-.306.522c16.822,10.6,29.5,24.08,36.569,38.538.79-.1,1.561-.2,2.319-.344-7.207-15.089-20.276-29.146-37.7-40.106l2.982-4.766c18.708,11.782,32.7,27.03,40.252,43.47,8.532-2.893,14.86-8.819,19.11-17.784a61.628,61.628,0,0,0,4.945-17.071c.051-.229.083-.478.115-.714.077-.554.153-1.128.229-1.7.032-.248.064-.478.077-.726.076-.567.14-1.141.2-1.714l-131.264-76.962-1.95-1.141-9.431-5.537a1.545,1.545,0,0,1,.535-2.861l20.18-3.1,10.609,5.99,3.142,1.791,3.122,1.746,3.536-.554,3.587-.574,7.443-1.172h.013l7.111-1.147,11.011-1.746c8.335,11.476,33.7,15.573,65.811,26.336-.229-.866-.465-1.72-.714-2.6v-.013c-.242-.854-.49-1.72-.752-2.587q-1.281-4.406-2.753-8.889a270.384,270.384,0,0,0-11.648-29.413c-23.9-3.046-49-12.413-65.25-28-26.074-22.143-34.377-54.57-34.715-55.947l-2.275-9.157,9.4.809c1.351.108,33.294,3.071,60.885,24.909,14.936,11.814,29.267,31.65,40.928,54.787,10.609.726,20.626,0,28.763-2.243.752-.185,1.51-.421,2.237-.65.344-.108.682-.217,1.02-.338.376-.14.733-.3,1.083-.465-7.251-12.9-13.56-24.233-17.581-31.472l11.087-7.978c5.244,6.678,13.719,17.568,23.271,29.955.605-.465,1.2-.93,1.778-1.4.605-.478,1.179-.956,1.733-1.465,17.982-15.682,19.919-36.187,14.726-51.556-2.772-8.207-7.723-13.961-13.228-15.4a7.023,7.023,0,0,0-5.531.554c-.127.083-.261.172-.389.268-3.632,2.816-7.048,12.757-1.759,18.026a.437.437,0,0,1,.109.529c-.16.306-.669.108-.669.108-11.381-4.129-14.363-20.939-7.143-28.362,4.964-4.486,11.833-6.015,18.8-4.186,10.049,2.625,18.294,11.425,22.608,24.137,7.22,21.365,2.938,47.593-19.3,66.569-.573.51-1.16,1-1.746,1.466s-1.179.943-1.778,1.4c12.846,16.727,26.47,34.741,36.289,48.351.325,17.969.669,35.8.994,53.347.013.172.013.338.013.51-.261-.389-.51-.79-.771-1.179-7.283-11.056-12.432-18.861-14.643-22.232-9-13.668-25.546-42.3-40.189-68.143-.682.293-1.376.586-2.071.866v.013c-.312.14-.624.261-.93.389-.1.026-.2.077-.344.121-.293.1-.663.229-.86.293-8.259,2.708-18.326,4-29.165,3.868a277.084,277.084,0,0,1,14.6,42.674c.217.867.433,1.733.631,2.6.216.879.421,1.778.618,2.657a255.509,255.509,0,0,1,45.694,22.933,216.378,216.378,0,0,1,23.258,16.95c1.5,1.281,2.918,2.536,4.282,3.791.019.937.032,1.867.045,2.8.064.077.019.465.019.465.032,1.325.044,2.657.076,3.983s.045,2.651.077,3.976c.064,2.957.108,5.894.172,8.812l-4.346-2.453-1.963-1.115-1.969-1.115-61.165-34.607v-.013l-6.251-3.524-2.319-1.319-6.277-3.556-75.572-42.757-6.984,1.211,83.423,47.223,6.124,3.46,2.287,1.287v.013l6.079,3.435,58.17,32.918,1.963,1.115,1.962,1.115,6.946,3.925c.032,1.778.064,3.556.089,5.321l-9.552-5.41-1.969-1.115-1.963-1.1-55.309-31.268-5.926-3.345-2.236-1.281-6-3.371-91.382-51.665-3.517.605-3.479.605,98.843,55.864,5.875,3.313,2.2,1.249,5.779,3.262,52.684,29.77,1.963,1.109,1.962,1.115,12.139,6.869c.159,7.309.3,14.567.452,21.722,0,.344,0,.663.012.988l-23.13-13.56-1.95-1.141-1.95-1.147-43.54-25.526c-.1.554-.185,1.1-.281,1.638-.045.249-.076.478-.121.726-.108.542-.217,1.083-.325,1.606-.051.249-.1.5-.153.727a70.384,70.384,0,0,1-5.136,15.592c-4.607,9.724-12.68,19.9-26.814,24.7.446,1.8.816,3.606,1.109,5.416A65.928,65.928,0,0,1-266.841,603a82.118,82.118,0,0,1,42.183,10.883c.65.37,1.3.758,1.931,1.16.637.382,1.268.8,1.886,1.217l29.9-45.458,24.144,14.146L-200.3,635.532c.478.637.962,1.268,1.421,1.918.478.65.943,1.3,1.4,1.963a114.674,114.674,0,0,1,17.364,41.176,84.27,84.27,0,0,1,16.886-5.193c1.485-.293,2.982-.554,4.48-.758-.618-26.2-1.249-54.984-1.9-86.08-.013-.325-.013-.669-.013-.988-.019-.561-.032-1.1-.051-1.657,0-.344-.013-.669-.013-.988s-.013-.65-.013-.975c-.019-.217-.019-.452-.019-.669-.013-.338-.013-.663-.013-1-.032-.758-.051-1.517-.051-2.275v-.013c-.025-1.319-.063-2.619-.076-3.932-.121-5.149-.217-10.342-.325-15.6-.013-.867-.032-1.752-.064-2.619-.013-.86-.026-1.727-.045-2.593-.032-1.765-.057-3.53-.108-5.308v-.013c-.032-1.746-.058-3.479-.1-5.225-.089-4.225-.166-8.475-.261-12.776-.013-1.408-.045-2.829-.076-4.237,0-.351-.013-.695-.013-1.032V526.5c-.019-.988-.045-1.995-.064-2.995v-.185c0-.216-.013-.433-.013-.65-.019-.835-.032-1.689-.051-2.536-.013-.484-.013-.962-.025-1.459q-.469-24.1-.93-49.555c-.032-1.332-.045-2.657-.077-4.008-.032-1.326-.044-2.657-.076-3.983q-.669-36.493-1.363-75.509.745-44.235.541-127.817c.465-8.105-2.364-13.222-8.105-24.061a6.159,6.159,0,0,1-.478-4.486c2.288-8.379,12.6-32.364,17.924-44.534a3.35,3.35,0,0,1,5.27-1.191,3.928,3.928,0,0,1,.357.376,3.485,3.485,0,0,1,.541.911c6.512,16.128,21.837,54.4,27.011,69.366,10.023,30.943,13.458,45.834,15.127,55a6.959,6.959,0,0,1,.121,1.854v.013a1.593,1.593,0,0,1-.478,1.051c-.522.421-1.408.127-2.115-.261a31.8,31.8,0,0,1-4.83-3.435c-6.461-5.951-13.126-13.107-21.028-21.276-1.268,7.767-1.16,59.642,2.784,155.542q.6,14.4,1.109,28.407c.051,1.3.1,2.613.127,3.9v.013c.064,1.3.109,2.581.153,3.868q.583,16.746,1.083,32.81c.045,1.427.083,2.848.127,4.269.044,1.44.089,2.861.14,4.282.026,1.517.077,3.014.121,4.518.032,1.007.064,2.007.076,3a1.217,1.217,0,0,1,0,.217c.045,1.083.077,2.147.108,3.211v.465c.045,1.319.077,2.632.109,3.932.108,3.753.2,7.481.293,11.164.045,1.714.1,3.4.121,5.1.051,1.733.1,3.466.14,5.187.019.848.032,1.7.051,2.549s.045,1.7.057,2.549c.1,4.5.2,8.94.293,13.3.019,1.421.051,2.817.083,4.218.025,1.287.045,2.555.077,3.823,0,.121,0,.261.013.389v.6c.019.542.019,1.07.032,1.593,0,.325.013.65.013.975.019.542.032,1.083.032,1.606.019.325.019.65.019.975.6,32.364.866,61.083.911,85.252,1.516.229,3,.51,4.486.822a83.53,83.53,0,0,1,15.567,4.957,115.41,115.41,0,0,1,16.453-39.876c.452-.663.9-1.332,1.376-1.982.433-.65.911-1.294,1.408-1.944-11.552-17.523-22.958-34.842-33.663-51.059l25.252-14.8c9.539,14.477,19.619,29.77,29.859,45.324.637-.421,1.268-.835,1.9-1.224s1.287-.784,1.937-1.16A82,82,0,0,1-19.79,603a66.384,66.384,0,0,1,.771-13.362c.3-1.81.656-3.619,1.115-5.416-14.133-4.8-22.207-15-26.826-24.7a70.638,70.638,0,0,1-5.117-15.433c-.045-.236-.1-.484-.14-.726-.121-.529-.217-1.071-.325-1.612-.045-.229-.1-.478-.14-.726-.089-.542-.185-1.083-.281-1.638l-43.54,25.526-3.9,2.294-24.94,14.624c-.013-.325-.013-.65-.013-.975q-.21-10.323-.465-21.257l14.872-8.4,1.969-1.115,1.962-1.109,52.665-29.77,5.8-3.275,2.211-1.242,5.843-3.307,99.213-56.068-3.479-.605-3.5-.6h-.013l-91.77,51.862-5.958,3.371-2.256,1.268-5.952,3.358-55.284,31.249-1.962,1.109-1.963,1.115L-123.7,554.5c-.045-1.714-.1-3.447-.14-5.18l10.112-5.722v-.013l1.963-1.1,1.962-1.115,58.158-32.905v-.013l6.111-3.454,2.287-1.3,6.1-3.447,83.8-47.421-6.99-1.224h-.019L-36.287,494.6l-6.251,3.543-2.333,1.313-6.232,3.524-61.184,34.626-1.969,1.115-1.963,1.109-7.742,4.378q-.191-7.465-.408-15.185c-.013-.554-.025-1.1-.044-1.657-.013-.293-.013-.567-.032-.867.42-.433.854-.86,1.3-1.293.542-.542,1.083-1.07,1.644-1.593.612-.593,1.236-1.179,1.88-1.765a201.325,201.325,0,0,1,27.279-20.505A255.116,255.116,0,0,1-46.9,478.505c.2-.88.421-1.759.637-2.657.2-.867.414-1.733.65-2.619q2.313-9.137,5.455-18.664c2.74-8.271,5.83-16.344,9.2-24.087a96.55,96.55,0,0,1-26.176-2.937c-.777-.217-1.53-.433-2.275-.669-.574-.185-1.128-.37-1.689-.554l.7-2.014-.682,1.026-.019.013-.338.854-.172-.083-61.478,92.841s-1.332,1.886-1.529,2.071c-.019-.51-.032-1.669-.051-2.192q-.65-22.27-1.53-46.465L-86.155,411.5c-.587-.465-1.16-.975-1.714-1.5-.574-.5-1.134-1.019-1.676-1.548-19.358-18.7-22.869-43.343-16.019-63.612,4.3-12.712,12.54-21.512,22.608-24.137,6.971-1.829,13.808-.3,18.791,4.186h.013v.019c7.22,7.417,4.237,24.214-7.143,28.343,0,0-.51.2-.682-.108a.453.453,0,0,1,.121-.529c5.263-5.257,1.874-15.185-1.758-18.026a4.157,4.157,0,0,0-.446-.293,7.01,7.01,0,0,0-5.48-.529c-5.5,1.44-10.45,7.194-13.216,15.4a46.624,46.624,0,0,0,10.775,47.784c.51.554,1.07,1.109,1.625,1.638s1.1,1.064,1.669,1.561l95.823-145.71h-.013l5.907-8.965,5.506-8.386h.013l1.765-.242a20.734,20.734,0,0,1,2.785-.185,20.087,20.087,0,0,1,19.371,14.777l.478,1.733-1.994,3.014-9.431,14.324-.045-.019L-53.855,414.428c.758.217,1.516.414,2.307.586.771.185,1.561.357,2.364.522a95.289,95.289,0,0,0,24.647,1.243C-12.6,393.043,1.843,373.4,16.269,361.993c27.585-21.837,59.534-24.8,60.879-24.909l9.418-.809-2.288,9.157c-.344,1.376-8.628,33.8-34.715,55.947-16.236,15.586-41.335,24.953-65.256,28A274.312,274.312,0,0,0-27.334,458.79c-.988,3.014-1.931,6.015-2.785,8.985-.261.867-.51,1.733-.758,2.6v.013c-.229.867-.478,1.733-.707,2.6,32.255-10.839,57.769-14.942,66.116-26.444l11.024,1.746h.019l7.13,1.134h.013l7.449,1.172,3.575.554,3.556.574,3.078-1.733,3.141-1.791,10.609-5.99,20.161,3.1a1.547,1.547,0,0,1,.555,2.861l-9.431,5.537Zm-175.1-50.205c-.567-.5-1.128-1.007-1.682-1.548-.554-.51-1.1-1.051-1.638-1.606C-98.4,387.876-105.456,369.123-98.1,347.381c3.39-10.023,9.794-17.134,17.134-19.052a12.249,12.249,0,0,1,11.024,2.014,3.373,3.373,0,0,1,.433.35l.064.064c3.868,3.619,4.824,10.208,2.753,15.663-.1.28.185.51.369.2,3.339-5.506,2.772-13.318-1.625-17.523a.2.2,0,0,0-.057-.077,1.476,1.476,0,0,0-.293-.229,14.415,14.415,0,0,0-13.241-2.644c-8.067,2.1-15.057,9.768-18.689,20.505a54.216,54.216,0,0,0,1.975,40.093,58.244,58.244,0,0,0,11.877,16.886c.542.522,1.083,1.064,1.657,1.574v.019c.542.51,1.109,1.02,1.682,1.517Zm62.178,19.639c23.691-2.447,49.129-11.508,65.237-27.062,24.819-20.983,32.969-52.824,33.045-53.13l.389-1.536-1.58.14c-.306.019-31.592,2.925-57.858,23.7-14.751,11.68-29.076,32.077-40.609,55.794-11.47,1.064-22.481.542-31.7-1.606-.784-.191-1.561-.389-2.32-.593s-1.51-.433-2.243-.663l-1.294,1.95c.726.248,1.466.478,2.243.695.758.2,1.51.414,2.3.605,9.246,2.256,20.32,2.893,31.9,1.931a277.978,277.978,0,0,0-17.058,46.312c-.249.867-.478,1.714-.682,2.581v.019c-.249.879-.465,1.759-.682,2.644.8-.293,1.593-.593,2.4-.867.223-.886.452-1.765.682-2.644s.446-1.733.694-2.6a275.587,275.587,0,0,1,17.134-45.675m-189.358-16.453c.478.644.988,1.294,1.5,1.943.605-.446,1.192-.911,1.765-1.376s1.172-.975,1.746-1.466a59.2,59.2,0,0,0,15.433-20.18,54.278,54.278,0,0,0,1.975-40.093c-3.632-10.737-10.622-18.4-18.689-20.505a14.486,14.486,0,0,0-13.254,2.644,3.1,3.1,0,0,0-.293.229c-.013.032-.051.045-.064.064-4.378,4.206-4.964,12.03-1.606,17.536.185.306.465.076.37-.2-2.071-5.454-1.109-12.043,2.753-15.663.013-.032.045-.045.064-.064.14-.121.274-.248.414-.35a12.285,12.285,0,0,1,11.043-2.014c7.341,1.918,13.745,9.029,17.134,19.052,7.99,23.64-1.039,43.776-16.809,57.565-.573.529-1.147,1.007-1.733,1.472-.574.5-1.16.956-1.746,1.408m-41.24,62.032c.248.867.478,1.733.707,2.6s.465,1.765.669,2.644c.8.28,1.606.561,2.409.848-.229-.879-.446-1.759-.676-2.638s-.452-1.733-.682-2.6A278.678,278.678,0,0,0-264.693,424.5c13.114,1.1,25.578.134,35.46-2.893.6-.172,1.268-.4,1.854-.605l.064-.013.025-.019.236-.089c.695-.293,1.389-.586,2.071-.886-.369-.663-.746-1.325-1.115-1.975-.663.293-1.345.586-2.026.866l-.045.013v-.013c-.714.242-1.453.478-2.192.707-9.9,2.957-22.36,3.823-35.448,2.6-11.514-23.717-25.833-44.114-40.59-55.794-26.285-20.779-57.552-23.685-57.877-23.7l-1.561-.14.37,1.536c.1.306,8.226,32.147,33.02,53.086,16.14,15.586,41.578,24.66,65.269,27.107a273.435,273.435,0,0,1,17.116,45.579m-37.155,103.762c-6.761-12.68-18.269-24.558-33.326-34.065l-.121-.076c-16.179-9.667-34.269-12.3-45.42-12.929,5.817,9.584,16.688,24.335,32.905,34.078a92.677,92.677,0,0,0,29.381,11v-.019c.446.1.886.185,1.313.268a2.453,2.453,0,0,0,.452.089,116.105,116.105,0,0,0,13.05,1.606h.045a2.453,2.453,0,0,0,.37.019.517.517,0,0,0,.14.013c.4.019.8.019,1.211.019m10.852,12.553c.1.325.172.65.236.975.306,1.236.535,2.491.739,3.728a56.734,56.734,0,0,1,.618,12.5c.758-.083,1.516-.127,2.275-.172a59.283,59.283,0,0,0-.669-12.68q-.364-2.39-.975-4.779c-.567.127-1.153.249-1.746.357a3.565,3.565,0,0,1-.478.076m88.973,97.926,2.026-1.268a110.191,110.191,0,0,0-15.478-38.347c-.433-.682-.879-1.344-1.364-2.007-.446-.669-.911-1.313-1.389-1.963a83.286,83.286,0,0,0-11.782-12.973,74.648,74.648,0,0,0-8.551-6.576c-.618-.414-1.249-.816-1.886-1.2s-1.281-.79-1.931-1.16a76.352,76.352,0,0,0-37.455-9.928c-.714-.013-1.421-.013-2.147,0-1.886,0-3.8.1-5.735.217-.777.064-1.549.121-2.326.2-1.931.185-3.893.427-5.856.739a118.91,118.91,0,0,0-21.837,5.595,3.592,3.592,0,0,0-.338.127c-.465.153-.93.325-1.377.491-.28.1-.561.2-.835.312v-.013a97.06,97.06,0,0,0-26.055,14.082c-25.73,19.855-35.288,51.308-35.377,51.62l-.453,1.5,1.561-.045c.344-.019,33.166-1.287,58.916-21.155a92.521,92.521,0,0,0,15.446-15.261h.019l.013.013a94.356,94.356,0,0,0,12.4-18.938,3.717,3.717,0,0,1,.172-.357,70.638,70.638,0,0,0,4.174-10.947c-.522.057-1.051.121-1.593.185-.274.032-.554.064-.835.108a70.267,70.267,0,0,1-3.925,9.972c-.108.229-.217.446-.344.663a91.821,91.821,0,0,1-11.795,17.88l-.013-.019a90.307,90.307,0,0,1-15.1,14.923c-21.907,16.9-49.109,20.04-55.972,20.563,2.256-6.493,12.183-32.02,34.078-48.925a95.238,95.238,0,0,1,25.469-13.776v-.013c.784-.293,1.606-.561,2.377-.822.605-.217,1.191-.433,1.8-.618a118.664,118.664,0,0,1,18.944-4.888c2.02-.357,4.014-.618,5.951-.816.784-.1,1.561-.172,2.332-.217.574-.064,1.147-.1,1.721-.127,1.376-.089,2.734-.153,4.065-.166.631-.019,1.249-.019,1.854-.019a73,73,0,0,1,36.83,9.711c.669.369,1.319.758,1.95,1.16s1.268.8,1.886,1.223a74.792,74.792,0,0,1,8.29,6.385,80.65,80.65,0,0,1,11.935,13.286c.484.631.93,1.294,1.4,1.963.446.663.911,1.345,1.344,2.039a108.788,108.788,0,0,1,14.8,37.589m-111.441-61.8a2.916,2.916,0,0,0-.338.108c-1.224.414-2.46.867-3.7,1.332l-.019-.051a89.617,89.617,0,0,0-24,12.974c-14.987,11.552-24.048,27.482-28.712,37.672,11.036-1.918,28.744-6.665,43.712-18.218,12.043-9.31,20.27-21.429,25.45-31.108l.051-.1a65.26,65.26,0,0,0,2.7-6.385,115.55,115.55,0,0,0-15.152,3.772m140.281,60.292c-.032-.758-.045-1.5-.064-2.262-1.517.236-2.995.5-4.479.822a77.54,77.54,0,0,0-15.93,5.161c-.618.28-1.223.561-1.822.854-1.159.542-2.307,1.128-3.435,1.733-.574.306-1.147.631-1.714.956a.424.424,0,0,0-.159.1l-.217.14-.943.586c-.057.045-1.65,1.051-4.206,2.95-.013-.089-.025-.2-.044-.306-10.578,7.175-19.913,17.039-27.648,29.3-.2.312-.389.605-.574.9a133.119,133.119,0,0,0-7.825,14.751l-.076.172,2.039.924-2.039-.911-.013.032c-12.324,30.076-4.856,62.083-4.779,62.408l.37,1.517,1.332-.835c.281-.172,28.05-17.721,40.393-47.8a89.729,89.729,0,0,0,3.632-10.883c.032-.127.057-.267.089-.389.822-3.339,1.5-6.7,2.058-10.049.1-.465.153-.93.217-1.376a137.27,137.27,0,0,0,1.141-33.88c-.414.249-.816.5-1.236.739-.293.185-.6.369-.892.56a135.65,135.65,0,0,1-1.236,32.236c-.064.452-.127.886-.2,1.319a94.6,94.6,0,0,1-2.135,10.3,85.465,85.465,0,0,1-3.524,10.558c-10.5,25.609-32.472,41.954-38.149,45.847a116.972,116.972,0,0,1-1.931-21.505c0-11.011,1.5-24.647,6.908-37.888l.051-.109a89.539,89.539,0,0,1,8.615-15.956,96.226,96.226,0,0,1,25.724-27.463c1.7-1.2,3.454-2.332,5.231-3.371.185-.121.369-.229.573-.338.51-.312,1.02-.586,1.529-.866,1.191-.663,2.4-1.3,3.62-1.873.535-.274,1.1-.542,1.65-.784a74.386,74.386,0,0,1,15.618-5.181c1.485-.344,2.97-.605,4.486-.835M-191.708,703.8a110.084,110.084,0,0,0-21.48,23.921l-.045.077a130.52,130.52,0,0,0-7.188,13.668l-.1.217c-5.027,12.387-6.417,25.163-6.417,35.505,0,4.225.236,8.042.542,11.259,8.583-7.194,21.525-20.167,28.7-37.671A78.915,78.915,0,0,0-194.416,741c.822-3.275,1.5-6.582,2.058-9.876.064-.421.14-.835.185-1.268a113.367,113.367,0,0,0,.465-26.056m96.645-10.5-.045.325c-2.555-1.9-4.148-2.906-4.206-2.95l-.962-.586v-.051c-.695-.4-1.376-.79-2.084-1.173-1.134-.605-2.262-1.179-3.422-1.714v-.019c-.6-.28-1.2-.555-1.81-.835a77.071,77.071,0,0,0-14.471-4.843c-1.485-.35-2.982-.65-4.486-.911v2.32c1.5.248,3,.561,4.486.911a74.849,74.849,0,0,1,14.089,4.856c.554.248,1.109.51,1.65.79,1.223.574,2.415,1.192,3.607,1.854.522.28,1.032.574,1.542.886.191.089.376.217.561.325q2.666,1.577,5.238,3.384c.605.4,1.191.835,1.784,1.287,1.294.943,2.568,1.931,3.8,2.982.35.28.695.573,1.02.866q.994.832,1.944,1.714c.529.465,1.039.943,1.548,1.453.4.357.79.746,1.172,1.128.376.357.745.714,1.07,1.083a.455.455,0,0,1,.128.108l.089.1v.013c.523.529,1.039,1.071,1.529,1.612,1.861,1.975,3.639,4.065,5.352,6.244.293.357.574.726.848,1.1q.956,1.233,1.861,2.5c.414.561.816,1.134,1.2,1.7.229.312.446.618.65.943.586.854,1.16,1.72,1.714,2.587a1.016,1.016,0,0,0,.076.121,89.111,89.111,0,0,1,8.539,15.847l.045.109v.019c10.482,25.59,6.3,52.62,4.977,59.375-5.658-3.893-27.648-20.238-38.13-45.847a86.5,86.5,0,0,1-3.524-10.558h-.019c-.045-.2-.089-.389-.134-.593-.128-.491-.236-.969-.357-1.466-.65-2.632-1.16-5.244-1.561-7.793v-.032a136.158,136.158,0,0,1-1.516-33.97c-.293-.2-.586-.389-.879-.56-.421-.262-.841-.51-1.255-.759a138.348,138.348,0,0,0,1.364,35.276c.026.153.045.306.076.465q.813,4.8,1.995,9.584c.032.121.064.261.089.389h.019a85.392,85.392,0,0,0,3.62,10.883c12.323,30.076,40.106,47.625,40.386,47.8l1.332.835.357-1.517c.076-.325,7.557-32.332-4.766-62.408l-.013-.032v-.013L-59,738.3a129.43,129.43,0,0,0-8.367-15.618c-.077-.127-.153-.229-.229-.357A98.4,98.4,0,0,0-95.063,693.3m2.842,47.7h-.013a80.057,80.057,0,0,0,3.281,9.775c7.175,17.5,20.129,30.477,28.713,37.671,1.064-11.106,1.191-29.318-5.875-46.764l-.1-.217a130.25,130.25,0,0,0-7.143-13.592l-.089-.153a108.992,108.992,0,0,0-21.48-23.933,113.578,113.578,0,0,0,.465,26.081c.044.421.121.822.185,1.223.554,3.307,1.236,6.621,2.052,9.909m81-131.908c-.771-.083-1.542-.14-2.313-.2-1.937-.121-3.849-.217-5.741-.217-.727-.013-1.434-.013-2.148,0A76.328,76.328,0,0,0-58.876,618.6c-.65.37-1.3.758-1.95,1.16s-1.268.79-1.886,1.2a74.662,74.662,0,0,0-8.551,6.576,83.538,83.538,0,0,0-12.712,14.267c-.465.65-.93,1.319-1.376,1.994s-.9,1.344-1.345,2.045a111.482,111.482,0,0,0-14.586,36.983l2.045,1.268a108.744,108.744,0,0,1,13.916-36.18c.414-.695.867-1.4,1.313-2.071s.9-1.351,1.364-2.014a81.624,81.624,0,0,1,12.878-14.611,74.812,74.812,0,0,1,8.29-6.385c.618-.421,1.249-.822,1.886-1.223.631-.382,1.268-.771,1.931-1.141a72.9,72.9,0,0,1,36.85-9.73c.605,0,1.224,0,1.854.019,1.332.013,2.7.077,4.072.166.567.032,1.141.064,1.714.127.771.045,1.542.121,2.332.217,1.937.2,3.932.459,5.958.816,1.453.236,2.918.51,4.416.835.637.14,1.287.281,1.937.433q5.314,1.2,11.011,3.078c.37.127.739.248,1.109.37.421.14.822.28,1.243.433.229.083.446.159.675.236.9.293,1.81.618,2.721.956A95.152,95.152,0,0,1,43.7,632.206c21.9,16.905,31.822,42.432,34.084,48.925-6.869-.522-34.065-3.664-55.978-20.563A91.552,91.552,0,0,1,6.7,645.663a117.034,117.034,0,0,1-12.075-18.39.578.578,0,0,0-.077-.153c-2.026-3.836-3.587-7.3-4.747-10.08-.541-.064-1.083-.127-1.612-.185-.325-.032-.631-.064-.943-.076,1.191,2.918,2.88,6.722,5.136,11.024l.019.032v.013c.045.108.1.2.153.312A116.7,116.7,0,0,0,4.984,647.065a91.9,91.9,0,0,0,15.446,15.28C46.173,682.213,79,683.481,79.346,683.5l1.548.045-.44-1.5c-.089-.312-9.647-31.765-35.39-51.62a97.793,97.793,0,0,0-26.043-14.082v.013c-.663-.249-1.325-.5-1.994-.726-.184-.076-.37-.14-.554-.2a118.267,118.267,0,0,0-21.85-5.595c-1.963-.312-3.913-.554-5.85-.739M-.368,624.68A1.147,1.147,0,0,1-.3,624.8c.032.077.076.14.108.217A110.885,110.885,0,0,0,10.49,641.407l.032.045.057.083c.051.044.076.108.128.153l.032.032c.089.108.2.229.293.357a85.522,85.522,0,0,0,14.21,14.038c14.981,11.552,32.689,16.3,43.712,18.218-4.651-10.189-13.719-26.119-28.7-37.672a89.8,89.8,0,0,0-24-12.986l-.013.064c-1.568-.593-3.109-1.147-4.645-1.657-.121-.044-.229-.076-.351-.108a112.641,112.641,0,0,0-14.229-3.479c.758,2.058,1.625,4.129,2.613,6.187M-10.85,587.117l.1-1.019c-.573-.108-1.166-.23-1.72-.357h-.013q-.583,2.389-.975,4.779a59.32,59.32,0,0,0-.669,12.68c.746.045,1.5.089,2.275.172a56.7,56.7,0,0,1,.618-12.5c.2-1.236.433-2.492.726-3.728-.166-.013-.28-.032-.338-.032m-31.79-47.255a5.167,5.167,0,0,1-.128-.707c-.108-.542-.2-1.1-.293-1.657v-.013c-.032-.236-.076-.465-.1-.714v-.019c-.089-.554-.165-1.1-.229-1.669l-2.071,1.211q.114.851.229,1.682c.045.229.083.478.108.714.1.554.185,1.109.293,1.669.051.229.076.478.127.714A67.016,67.016,0,0,0-39.645,557.1c5.1,10.762,12.974,18,23.354,21.6a43.686,43.686,0,0,0,5.429,1.529c.2.044.382.076.586.108l.013.019c.542.108,1.083.2,1.625.293,1.854.306,3.76.522,5.735.65,1.236.076,2.5.108,3.792.108.695,0,1.389-.019,2.1-.032h.044a125.257,125.257,0,0,0,15.8-2.1h.019A100.445,100.445,0,0,0,50.6,567.37c27.884-16.714,41.042-46.834,41.163-47.128l.618-1.44-1.561-.14c-.325-.013-33.077-2.581-60.949,14.127C12.44,543.749-.661,557.831-7.849,572.92c.752.14,1.51.249,2.3.344,7.066-14.445,19.734-27.941,36.556-38.538l.013-.013h.019c23.736-14.222,51.1-14.146,57.966-13.885-2.995,6.187-15.835,30.382-39.564,44.623a97.726,97.726,0,0,1-31.083,11.616l.013.032a86.5,86.5,0,0,1-16.325,2.1H1.939c-1.472.089-2.829.14-4.085.166.032-.077.064-.153.1-.217a49.763,49.763,0,0,1-5.818-.554h-.013c-.758-.108-1.485-.248-2.211-.4l-.032-.013a37.567,37.567,0,0,1-5.461-1.491c-9.768-3.4-17.134-10.265-22.015-20.544a64.356,64.356,0,0,1-5.04-16.287M1.085,573.6c.14,0,.28,0,.433-.013,11.228-.682,29.057-3.39,45.031-12.961,16.217-9.743,27.088-24.494,32.905-34.078-11.2.631-29.337,3.275-45.541,13.005C18.856,549.044,7.348,560.922.575,573.621a4.573,4.573,0,0,0,.51-.019m-249.74-195.96,10.514-7.564c-.5-.637-.93-1.192-1.3-1.65l-10.221,7.385c.293.529.618,1.134,1.007,1.829M44.262,395.548c-15.509,14.968-39.774,23.793-62.58,26.38,11.285-22.837,25.189-42.444,39.475-53.767C43.484,350.5,69.5,346.018,76.192,345.119c-1.982,6.633-10.762,32.536-31.93,50.428M40.687,391.2C55.05,379.063,63.4,362.84,67.622,352.454c-10.711,2.5-27.769,8.1-42.973,20.129-11.329,8.972-22.774,23.781-32.81,41.966,18.294-3.677,36.461-11.412,48.51-23.035Z" transform="translate(726.125 1135.694)" fill="#446328"/><path d="M-49.861,291.773H-64.924V288.9l7.175-6.092c2.848-2.415,3.9-3.76,3.9-5.627a3.125,3.125,0,0,0-3.371-3.25c-1.905,0-3.205,1.051-4.811,3.122l-2.6-2.007c1.994-2.8,3.957-4.378,7.685-4.378,4.161,0,6.869,2.517,6.869,6.245,0,3.294-1.733,5.091-5.416,8.093l-4.282,3.568h9.915Zm-157.727-1.81c-1.574-1.606-2.536-3.772-2.536-7.991,0-6.4,3.033-11.368,8.927-11.368a9.448,9.448,0,0,1,6.365,2.319l-1.962,2.829a6.912,6.912,0,0,0-4.512-1.822c-3.1,0-4.824,2.8-5.015,6.6a6.7,6.7,0,0,1,4.983-2.071c4.033,0,7.283,2.377,7.283,6.57s-3.371,7.117-7.736,7.117a7.8,7.8,0,0,1-5.8-2.185m1.4-4.76c0,2.179,1.7,3.785,4.314,3.785,2.58,0,4.161-1.638,4.161-3.817,0-2.1-1.656-3.651-4.256-3.651-2.581,0-4.218,1.657-4.218,3.683m122.356-7.379c0-4.1,3.154-7.22,7.761-7.22a7.476,7.476,0,0,1,5.773,2.2c1.542,1.542,2.536,3.83,2.536,7.978,0,6.729-3.345,11.368-8.921,11.368a9.879,9.879,0,0,1-6.665-2.511l1.988-2.8A6.928,6.928,0,0,0-76.6,288.8c3.065,0,4.9-2.7,5.028-6.538a6.148,6.148,0,0,1-4.887,2.192c-4.422,0-7.379-2.581-7.379-6.633m3.67-.166c0,2.192,1.651,3.74,4.25,3.74,2.645,0,4.218-1.714,4.218-3.772,0-2.211-1.7-3.868-4.346-3.868a3.822,3.822,0,0,0-4.123,3.9m-205.677,74.375c-13.235-20.8-57.075-115.882-52.283-119.036a.714.714,0,0,1,.376-.089c7.309,0,77.974,75.286,91.056,94.478a1.6,1.6,0,0,1,.217,1.376c-1.051,3.677-5.117,20.658,3.728,35.951l-9.991,7.239c-11.177-15.726-28.094-18.715-31.9-19.193a1.559,1.559,0,0,1-1.2-.726m-35.55-93.9c.045.057,50.779,77.886,50.83,77.93a2.24,2.24,0,0,0,3.135.542,2.243,2.243,0,0,0,.529-3.135l-53.672-75.878a.493.493,0,0,0-.822.542m52.34,163.8c-22.818-2.587-47.1-11.425-62.637-26.425-21.111-17.848-29.9-43.763-31.873-50.384,6.7.9,32.7,5.365,55.023,23.041,14.3,11.323,28.2,30.93,39.487,53.767m-10.157-7.379c-10.036-18.186-21.48-32.994-32.81-41.966-15.28-12.075-32.287-17.657-42.992-20.161,4.225,10.386,12.572,26.629,26.954,38.78l.325.312c12.062,11.622,30.229,19.358,48.523,23.035M-227.1,289.963c-1.58-1.606-2.523-3.772-2.523-7.991,0-6.4,3.033-11.368,8.927-11.368a9.427,9.427,0,0,1,6.353,2.319l-1.963,2.829a6.927,6.927,0,0,0-4.518-1.822c-3.09,0-4.824,2.8-5,6.6a6.643,6.643,0,0,1,4.964-2.071c4.053,0,7.283,2.377,7.283,6.57s-3.352,7.117-7.729,7.117a7.856,7.856,0,0,1-5.8-2.185m1.408-4.76c0,2.179,1.682,3.785,4.295,3.785s4.18-1.638,4.18-3.817c0-2.1-1.669-3.651-4.256-3.651s-4.218,1.657-4.218,3.683M92.72,454.846-38.805,531.961c.064.586.121,1.147.185,1.714.032.248.064.484.089.727.083.573.159,1.147.236,1.708.032.242.076.478.108.707a62.491,62.491,0,0,0,4.932,16.918c4.251,8.965,10.578,14.891,19.1,17.784,7.564-16.44,21.678-31.765,40.373-43.547,29.426-17.644,62.924-15.032,64.345-14.9l9.322.79-3.7,8.6c-.561,1.3-14.012,32.1-43.438,49.747a105.028,105.028,0,0,1-33.428,12.6c-.357.076-.714.153-1.071.217-.229.045-.459.1-.695.14a88.276,88.276,0,0,1-14.534,1.854H3.008c-3.294.236-6.175.312-8.475.312H-5.5c-.389,1.485-.695,2.969-.93,4.448a51.586,51.586,0,0,0-.478,12.247,120.7,120.7,0,0,1,20.709,4.83c.37.108.739.229,1.109.357a106.13,106.13,0,0,1,32.86,16.771C74.923,646.931,84.7,679.091,85.1,680.455l2.657,8.966-9.335-.306c-1.427-.051-35-1.351-62.166-22.315A99.248,99.248,0,0,1-.12,650.685c-.382-.478-.771-.943-1.16-1.421a.451.451,0,0,0-.089-.121,98.331,98.331,0,0,1-11.087-16.937c-.064-.134-.14-.261-.217-.4a120.717,120.717,0,0,1-7-15.369A68.053,68.053,0,0,0-55.3,625.171c-.65.376-1.3.758-1.937,1.147s-1.268.8-1.886,1.224c38.583,58.508,78.058,118.4,97.977,148.6l-.032.013,6.926,10.5,1.994,3.014h-.013l-.465,1.733a20.1,20.1,0,0,1-19.377,14.783A21.551,21.551,0,0,1,25.1,806l-1.778-.249L17.8,797.369,11.91,788.4l-3.091-4.7h.013c-19.632-29.783-54.3-82.359-88.865-134.794-.459.682-.9,1.376-1.332,2.071-.427.714-.86,1.427-1.28,2.154A104.932,104.932,0,0,0-94.86,687.164C-83,694.709-72.533,705.35-63.936,718.757l.032.045a98.7,98.7,0,0,1,9.329,17.256l.026.076.1.217c13.005,31.746,5.365,64.485,5.028,65.862l-2.2,9.087-7.933-4.945c-1.2-.746-29.611-18.7-42.629-50.441a98.8,98.8,0,0,1-6.461-24.679c-.083-.433-.14-.879-.191-1.332a142.1,142.1,0,0,1-.618-35.531,71.613,71.613,0,0,0-13.356-4.824c-1.517-.389-3.02-.714-4.486-.975,0,6.449-.032,12.489-.064,18.122q-.306,21.085-2.116,40.73a285.019,285.019,0,0,1-7.576,43.387c-.586,2.319-1.192,4.575-1.8,6.761-1.376,4.9-2.765,9.463-4.129,13.6-.446,1.376-.9,2.708-1.344,3.989-.293.867-.586,1.7-.88,2.517-.14.408-.28.809-.433,1.211-.421,1.192-.835,2.319-1.256,3.416-.121.357-.261.714-.4,1.07-.4,1.051-.79,2.039-1.16,2.995s-.727,1.829-1.064,2.664c-.14.338-.28.675-.42,1.019-.262.65-.523,1.268-.771,1.841-.121.293-.249.574-.357.835-.089.217-.185.414-.261.618-.172.4-.344.771-.5,1.115-.293.65-.541,1.2-.739,1.65q-.1.229-.191.421c-.338.739-.695,1.465-1.032,2.192-.172.357-.338.714-.51,1.051-.338.714-.663,1.4-1.007,2.058-.325.662-.663,1.312-.988,1.95-.5.943-.975,1.854-1.44,2.708a64.34,64.34,0,0,1-4.607,7.494c-.23.325-.465.605-.682.886l-.013.013a12.54,12.54,0,0,1-.911,1.007c-.618.586-1.115.879-1.5.847-3.078-.293,1.548-13.031,4.333-27.674s4.154-45.108,3.944-69.882c-.669-20.486-1.319-44.235-1.982-70.908-1.453.229-2.957.522-4.486.86a72.486,72.486,0,0,0-15.012,5.232,141.931,141.931,0,0,1-.695,36.1c-.032.261-.064.51-.108.758a101.735,101.735,0,0,1-2.587,13.005,94.2,94.2,0,0,1-3.893,11.674c-13.005,31.745-41.412,49.7-42.616,50.441L-236.5,811.3l-2.186-9.087c-.338-1.376-7.978-34.116,5.028-65.862l.1-.217.025-.076a97.128,97.128,0,0,1,9.36-17.3,1.943,1.943,0,0,1,.185-.28c8.551-13.267,18.938-23.825,30.739-31.325a104.765,104.765,0,0,0-13.082-35.492c-.421-.707-.867-1.408-1.313-2.09s-.886-1.357-1.344-2.02l-69.882,105.489a12.488,12.488,0,0,1-6.168,4.855c-7.717,2.733-26.546,12.075-45.8,41.5a1.143,1.143,0,0,1-.726.522l-9.864,2.472a1.133,1.133,0,0,1-.306.051,1.242,1.242,0,0,1-1.026-1.918l113.779-172.982c-.618-.421-1.249-.822-1.886-1.224s-1.287-.771-1.95-1.147a67.948,67.948,0,0,0-35.626-8.736c-.389,0-.79.019-1.179.032A74.933,74.933,0,0,1-275.3,631.53l-.045.077a97,97,0,0,1-9.622,15.2c-.567.778-1.172,1.561-1.778,2.339-.4.522-.835,1.032-1.249,1.542A98.269,98.269,0,0,1-304.367,666.8c-27.17,20.964-60.757,22.264-62.166,22.315l-9.354.306,2.663-8.966c.4-1.363,10.17-33.523,37.341-54.481a107.065,107.065,0,0,1,34.141-17.192,1.531,1.531,0,0,1,.28-.076,120.855,120.855,0,0,1,20.257-4.69,51.573,51.573,0,0,0-.478-12.247c-.236-1.478-.542-2.963-.93-4.448h-.032c-2.3,0-5.18-.076-8.468-.312h-.051a93.306,93.306,0,0,1-15.4-2.026.233.233,0,0,1-.108-.032c-.261-.045-.51-.089-.771-.153v-.013A105.448,105.448,0,0,1-340.878,572.2c-29.407-17.651-42.878-48.447-43.432-49.747l-3.683-8.6,9.322-.79c1.408-.128,34.919-2.74,64.345,14.9l-2.905,4.824c-27.865-16.714-60.649-14.146-60.974-14.133l-1.542.14.618,1.44c.121.293,13.279,30.414,41.157,47.128a100,100,0,0,0,31.746,11.89v.019l-.013.032a87.712,87.712,0,0,0,15.822,2.071h.058c.714.013,1.408.032,2.1.032,1.287,0,2.536-.032,3.779-.108q2.963-.191,5.748-.65c.542-.1,1.083-.185,1.625-.293.2-.051.4-.083.605-.127a45.289,45.289,0,0,0,5.41-1.517c10.374-3.613,18.262-10.852,23.366-21.614a66.449,66.449,0,0,0,5.085-16.191c.032-.229.077-.478.127-.707.089-.561.185-1.1.274-1.657.032-.248.077-.478.108-.726.1-.554.172-1.115.236-1.689l-2.077-1.2c-.058.573-.121,1.128-.217,1.689-.025.242-.057.478-.108.726-.076.554-.165,1.109-.274,1.669-.032.229-.076.478-.128.707a65.7,65.7,0,0,1-5.072,16.427c-4.881,10.278-12.26,17.147-22.034,20.544a37.743,37.743,0,0,1-5.442,1.491l-.045.013c-.726.153-1.453.293-2.211.389a47.138,47.138,0,0,1-5.817.567c-1.345.064-2.7.076-4.11.051a.358.358,0,0,1-.14-.019,1.621,1.621,0,0,1-.248-.013.834.834,0,0,1-.217-.019,1.981,1.981,0,0,1-.274-.013h-.159a84.741,84.741,0,0,1-15.2-2.026l-.076-.013a98.112,98.112,0,0,1-31.083-11.648c-23.723-14.242-36.556-38.436-39.558-44.623,6.869-.28,34.256-.338,57.973,13.885l.325-.51-.306.522c16.822,10.6,29.5,24.08,36.569,38.538.79-.1,1.561-.2,2.32-.344-7.207-15.089-20.276-29.146-37.7-40.106l2.982-4.766c18.708,11.782,32.7,27.03,40.252,43.47,8.532-2.893,14.859-8.819,19.11-17.784a61.629,61.629,0,0,0,4.945-17.071c.051-.229.083-.478.115-.714.076-.554.153-1.128.229-1.7.032-.248.064-.478.076-.726.076-.567.14-1.141.2-1.714l-131.264-76.962-1.95-1.141-9.431-5.537a1.545,1.545,0,0,1,.536-2.861l20.18-3.1,10.61,5.99,3.141,1.791,3.122,1.746,3.536-.554,3.588-.574,7.443-1.172h.013l7.111-1.147,11.011-1.746c8.335,11.476,33.7,15.573,65.811,26.336-.23-.866-.465-1.72-.714-2.6v-.013c-.242-.854-.491-1.72-.752-2.587-.854-2.938-1.765-5.907-2.753-8.889A270.421,270.421,0,0,0-271.7,429.377c-23.9-3.046-49-12.413-65.25-28-26.074-22.143-34.377-54.57-34.715-55.947l-2.275-9.157,9.4.809c1.351.108,33.294,3.071,60.885,24.909,14.936,11.814,29.267,31.65,40.928,54.787,10.61.726,20.626,0,28.764-2.243.752-.185,1.51-.421,2.236-.65.344-.108.682-.217,1.02-.338.376-.14.733-.3,1.083-.465-7.251-12.9-13.56-24.233-17.581-31.472l11.087-7.978c5.244,6.678,13.719,17.568,23.271,29.955.605-.465,1.211-.93,1.778-1.4.605-.478,1.179-.956,1.733-1.465,17.982-15.682,19.919-36.187,14.726-51.556-2.772-8.207-7.723-13.961-13.228-15.4a7.023,7.023,0,0,0-5.531.554c-.128.083-.261.172-.389.268-3.632,2.816-7.047,12.757-1.759,18.026a.437.437,0,0,1,.108.529c-.159.306-.669.108-.669.108-11.381-4.129-14.363-20.939-7.143-28.362,4.964-4.486,11.833-6.015,18.8-4.186,10.048,2.625,18.294,11.425,22.608,24.137,7.22,21.365,2.937,47.593-19.3,66.569-.573.51-1.16,1-1.746,1.466s-1.179.943-1.778,1.4c12.846,16.727,26.469,34.741,36.289,48.351.325,17.969.669,35.8.994,53.347.013.172.013.338.013.51-.261-.389-.51-.79-.771-1.179-7.283-11.056-12.432-18.861-14.643-22.232-9-13.668-25.546-42.3-40.188-68.143-.682.293-1.376.586-2.071.866v.013c-.312.14-.624.261-.93.389-.1.026-.2.077-.344.121-.293.1-.663.229-.86.293-8.258,2.708-18.326,4-29.165,3.868a277.057,277.057,0,0,1,14.6,42.674c.217.867.433,1.733.631,2.6.217.879.421,1.778.618,2.657a255.5,255.5,0,0,1,45.694,22.933,216.4,216.4,0,0,1,23.258,16.95c1.5,1.281,2.919,2.536,4.282,3.791.019.937.032,1.867.045,2.8.064.077.019.465.019.465.032,1.325.045,2.657.076,3.983s.045,2.651.076,3.976c.064,2.957.108,5.894.172,8.812l-4.346-2.453-1.963-1.115-1.963-1.115-61.172-34.607v-.013l-6.251-3.524-2.319-1.319-6.277-3.556L-326.7,451.66l-6.984,1.211,83.423,47.223,6.124,3.46,2.288,1.287v.013l6.079,3.435,58.17,32.918,1.963,1.115,1.963,1.115,6.946,3.925c.032,1.778.064,3.556.089,5.321l-9.552-5.41-1.969-1.115-1.962-1.1-55.31-31.268-5.926-3.345-2.236-1.281-6-3.371-91.382-51.665-3.517.605-3.479.605,98.843,55.864,5.875,3.313,2.2,1.249,5.78,3.262L-182.6,548.8l1.963,1.109,1.963,1.115,12.139,6.869c.159,7.309.3,14.567.452,21.722,0,.344,0,.663.013.988l-23.131-13.56-1.95-1.141-1.95-1.147-43.54-25.526c-.1.554-.185,1.1-.28,1.638-.045.249-.076.478-.121.726-.108.542-.217,1.083-.325,1.606-.051.249-.1.5-.153.727a70.386,70.386,0,0,1-5.136,15.592c-4.607,9.724-12.68,19.9-26.814,24.7.446,1.8.816,3.606,1.109,5.416A65.917,65.917,0,0,1-267.581,603,82.118,82.118,0,0,1-225.4,613.886c.65.37,1.3.758,1.931,1.16.637.382,1.268.8,1.886,1.217l29.9-45.458,24.144,14.146-33.511,50.581c.478.637.962,1.268,1.421,1.918.478.65.943,1.3,1.4,1.963a114.68,114.68,0,0,1,17.364,41.176,84.256,84.256,0,0,1,16.886-5.193c1.485-.293,2.982-.554,4.48-.758-.618-26.2-1.249-54.984-1.9-86.08-.013-.325-.013-.669-.013-.988-.019-.561-.032-1.1-.051-1.657,0-.344-.013-.669-.013-.988s-.013-.65-.013-.975c-.019-.217-.019-.452-.019-.669-.013-.338-.013-.663-.013-1-.032-.758-.051-1.517-.051-2.275v-.013c-.025-1.319-.064-2.619-.076-3.932-.121-5.149-.217-10.342-.325-15.6-.013-.867-.032-1.752-.064-2.619-.013-.86-.026-1.727-.045-2.593-.032-1.765-.057-3.53-.108-5.308v-.013c-.032-1.746-.057-3.479-.1-5.225-.089-4.225-.165-8.475-.261-12.776-.013-1.408-.045-2.829-.077-4.237,0-.351-.013-.695-.013-1.032V526.5c-.019-.988-.045-1.995-.064-2.995v-.185c0-.216-.013-.433-.013-.65-.019-.835-.032-1.689-.051-2.536-.013-.484-.013-.962-.026-1.459q-.468-24.1-.93-49.555c-.032-1.332-.044-2.657-.076-4.008-.032-1.326-.045-2.657-.076-3.983q-.669-36.493-1.364-75.509.746-44.235.542-127.817c.465-8.105-2.364-13.222-8.105-24.061a6.158,6.158,0,0,1-.478-4.486c2.288-8.379,12.6-32.364,17.925-44.534a3.35,3.35,0,0,1,5.27-1.191,3.964,3.964,0,0,1,.357.376,3.484,3.484,0,0,1,.541.911c6.512,16.128,21.837,54.4,27.011,69.366,10.023,30.943,13.458,45.834,15.127,55a6.943,6.943,0,0,1,.121,1.854v.013a1.593,1.593,0,0,1-.478,1.051c-.523.421-1.408.127-2.115-.261a31.789,31.789,0,0,1-4.83-3.435c-6.461-5.951-13.126-13.107-21.028-21.276-1.268,7.767-1.16,59.642,2.785,155.542q.6,14.4,1.109,28.407c.051,1.3.1,2.613.128,3.9v.013c.064,1.3.108,2.581.153,3.868q.583,16.746,1.083,32.81c.045,1.427.083,2.848.127,4.269.045,1.44.089,2.861.14,4.282.025,1.517.076,3.014.121,4.518.032,1.007.063,2.007.076,3a1.2,1.2,0,0,1,0,.217c.045,1.083.076,2.147.108,3.211v.465c.045,1.319.076,2.632.108,3.932.108,3.753.2,7.481.293,11.164.045,1.714.1,3.4.121,5.1.051,1.733.1,3.466.14,5.187.019.848.032,1.7.051,2.549s.045,1.7.057,2.549c.1,4.5.2,8.94.293,13.3.019,1.421.051,2.817.083,4.218.025,1.287.045,2.555.076,3.823,0,.121,0,.261.013.389v.6c.019.542.019,1.07.032,1.593,0,.325.013.65.013.975.019.542.032,1.083.032,1.606.019.325.019.65.019.975.6,32.364.866,61.083.911,85.252,1.517.229,3,.51,4.486.822a83.522,83.522,0,0,1,15.567,4.957,115.412,115.412,0,0,1,16.453-39.876c.452-.663.9-1.332,1.376-1.982.433-.65.911-1.294,1.408-1.944-11.552-17.523-22.958-34.842-33.663-51.059l25.252-14.8c9.539,14.477,19.62,29.77,29.859,45.324.637-.421,1.268-.835,1.9-1.224s1.287-.784,1.937-1.16A82,82,0,0,1-20.53,603a66.379,66.379,0,0,1,.771-13.362c.3-1.81.656-3.619,1.115-5.416-14.133-4.8-22.207-15-26.826-24.7a70.649,70.649,0,0,1-5.117-15.433c-.044-.236-.1-.484-.14-.726-.121-.529-.217-1.071-.325-1.612-.045-.229-.1-.478-.14-.726-.089-.542-.185-1.083-.28-1.638l-43.54,25.526-3.9,2.294-24.94,14.624c-.013-.325-.013-.65-.013-.975q-.21-10.323-.465-21.257l14.873-8.4,1.969-1.115,1.963-1.109,52.665-29.77,5.8-3.275,2.211-1.242,5.843-3.307L60.2,455.311l-3.479-.605-3.5-.6h-.013l-91.77,51.862-5.958,3.371-2.256,1.268-5.951,3.358-55.284,31.249-1.963,1.109-1.962,1.115-12.509,7.067c-.045-1.714-.1-3.447-.14-5.18l10.112-5.722v-.013l1.963-1.1,1.962-1.115,58.158-32.905v-.013l6.111-3.454,2.288-1.3,6.1-3.447,83.8-47.421-6.99-1.224h-.019L-37.027,494.6l-6.251,3.543-2.332,1.313-6.232,3.524-61.184,34.626L-115,538.721l-1.962,1.109-7.742,4.378q-.192-7.465-.408-15.185c-.013-.554-.026-1.1-.045-1.657-.013-.293-.013-.567-.032-.867.421-.433.854-.86,1.3-1.293.541-.542,1.083-1.07,1.644-1.593.612-.593,1.236-1.179,1.88-1.765a201.3,201.3,0,0,1,27.279-20.505,255.1,255.1,0,0,1,45.445-22.837c.2-.88.421-1.759.637-2.657.2-.867.414-1.733.65-2.619q2.313-9.137,5.454-18.664c2.74-8.271,5.831-16.344,9.2-24.087a96.553,96.553,0,0,1-26.176-2.937c-.777-.217-1.529-.433-2.275-.669-.573-.185-1.128-.37-1.689-.554l.7-2.014-.682,1.026-.019.013-.338.854-.172-.083-61.477,92.841s-1.332,1.886-1.529,2.071c-.019-.51-.032-1.669-.051-2.192q-.65-22.27-1.529-46.465L-86.9,411.5c-.586-.465-1.16-.975-1.714-1.5-.573-.5-1.134-1.019-1.676-1.548-19.359-18.7-22.87-43.343-16.02-63.612,4.3-12.712,12.54-21.512,22.608-24.137,6.971-1.829,13.808-.3,18.791,4.186h.013v.019c7.22,7.417,4.237,24.214-7.143,28.343,0,0-.51.2-.682-.108a.453.453,0,0,1,.121-.529c5.263-5.257,1.873-15.185-1.759-18.026a4.156,4.156,0,0,0-.446-.293,7.011,7.011,0,0,0-5.48-.529c-5.5,1.44-10.45,7.194-13.215,15.4a46.624,46.624,0,0,0,10.775,47.784c.51.554,1.07,1.109,1.625,1.638s1.1,1.064,1.67,1.561L16.4,254.445h-.013l5.907-8.965,5.505-8.386h.013l1.765-.242a20.728,20.728,0,0,1,2.784-.185,20.087,20.087,0,0,1,19.371,14.777l.478,1.733-1.994,3.014-9.43,14.324-.045-.019L-54.6,414.428c.759.217,1.517.414,2.307.586.771.185,1.561.357,2.364.522a95.29,95.29,0,0,0,24.647,1.243C-13.336,393.043,1.1,373.4,15.529,361.993c27.585-21.837,59.534-24.8,60.879-24.909l9.418-.809-2.288,9.157c-.344,1.376-8.628,33.8-34.715,55.947-16.236,15.586-41.335,24.953-65.256,28A274.267,274.267,0,0,0-28.074,458.79c-.988,3.014-1.931,6.015-2.785,8.985-.261.867-.51,1.733-.758,2.6v.013c-.23.867-.478,1.733-.707,2.6,32.255-10.839,57.769-14.942,66.116-26.444l11.024,1.746h.019l7.13,1.134h.013l7.449,1.172L63,451.15l3.555.574,3.078-1.733,3.141-1.791,10.609-5.99,20.161,3.1a1.547,1.547,0,0,1,.554,2.861l-9.431,5.537Zm-175.1-50.205c-.567-.5-1.128-1.007-1.682-1.548-.554-.51-1.1-1.051-1.637-1.606-13.439-13.611-20.492-32.364-13.133-54.105,3.39-10.023,9.794-17.134,17.134-19.052a12.249,12.249,0,0,1,11.024,2.014,3.372,3.372,0,0,1,.433.35l.064.064c3.868,3.619,4.824,10.208,2.753,15.663-.1.28.185.51.37.2,3.339-5.506,2.772-13.318-1.625-17.523a.2.2,0,0,0-.057-.077,1.468,1.468,0,0,0-.293-.229,14.415,14.415,0,0,0-13.241-2.644c-8.067,2.1-15.057,9.768-18.689,20.505a54.215,54.215,0,0,0,1.975,40.093,58.238,58.238,0,0,0,11.877,16.886c.542.522,1.083,1.064,1.657,1.574v.019c.541.51,1.109,1.02,1.682,1.517Zm62.179,19.639c23.691-2.447,49.128-11.508,65.237-27.062C69.851,376.234,78,344.393,78.078,344.087l.388-1.536-1.58.14c-.306.019-31.593,2.925-57.858,23.7-14.752,11.68-29.076,32.077-40.609,55.794-11.47,1.064-22.48.542-31.7-1.606-.784-.191-1.561-.389-2.319-.593s-1.51-.433-2.243-.663l-1.294,1.95c.726.248,1.465.478,2.243.695.758.2,1.51.414,2.3.605,9.246,2.256,20.32,2.893,31.905,1.931a277.953,277.953,0,0,0-17.058,46.312c-.249.867-.478,1.714-.682,2.581v.019c-.248.879-.465,1.759-.682,2.644.8-.293,1.593-.593,2.4-.867.223-.886.453-1.765.682-2.644s.446-1.733.695-2.6a275.588,275.588,0,0,1,17.134-45.675m-189.359-16.453c.478.644.988,1.294,1.5,1.943.605-.446,1.192-.911,1.765-1.376s1.172-.975,1.746-1.466a59.2,59.2,0,0,0,15.433-20.18,54.277,54.277,0,0,0,1.975-40.093c-3.632-10.737-10.622-18.4-18.689-20.505a14.487,14.487,0,0,0-13.254,2.644,3.108,3.108,0,0,0-.293.229c-.013.032-.051.045-.064.064-4.377,4.206-4.964,12.03-1.606,17.536.185.306.465.076.37-.2-2.071-5.454-1.109-12.043,2.753-15.663.013-.032.045-.045.064-.064.14-.121.274-.248.414-.35a12.286,12.286,0,0,1,11.043-2.014c7.34,1.918,13.744,9.029,17.134,19.052,7.99,23.64-1.039,43.776-16.81,57.565-.574.529-1.147,1.007-1.733,1.472-.573.5-1.16.956-1.746,1.408m-41.24,62.032c.248.867.478,1.733.707,2.6s.465,1.765.669,2.644c.8.28,1.606.561,2.409.848-.229-.879-.446-1.759-.675-2.638s-.453-1.733-.682-2.6A278.694,278.694,0,0,0-265.433,424.5c13.114,1.1,25.577.134,35.461-2.893.6-.172,1.268-.4,1.854-.605l.064-.013.025-.019.236-.089c.695-.293,1.389-.586,2.071-.886-.37-.663-.746-1.325-1.115-1.975-.663.293-1.345.586-2.026.866l-.045.013v-.013c-.714.242-1.453.478-2.192.707-9.9,2.957-22.359,3.823-35.448,2.6-11.514-23.717-25.832-44.114-40.59-55.794-26.285-20.779-57.552-23.685-57.877-23.7l-1.561-.14.37,1.536c.1.306,8.226,32.147,33.02,53.086,16.14,15.586,41.577,24.66,65.269,27.107A273.458,273.458,0,0,1-250.8,469.859m-37.156,103.762c-6.761-12.68-18.268-24.558-33.326-34.065l-.121-.076c-16.179-9.667-34.269-12.3-45.42-12.929,5.818,9.584,16.689,24.335,32.905,34.078a92.68,92.68,0,0,0,29.381,11v-.019c.446.1.886.185,1.313.268a2.452,2.452,0,0,0,.452.089,116.124,116.124,0,0,0,13.05,1.606h.044a2.456,2.456,0,0,0,.37.019.517.517,0,0,0,.14.013c.4.019.8.019,1.211.019m10.852,12.553c.1.325.172.65.236.975.306,1.236.535,2.491.739,3.728a56.7,56.7,0,0,1,.618,12.5c.758-.083,1.516-.127,2.275-.172a59.272,59.272,0,0,0-.669-12.68q-.363-2.39-.975-4.779c-.567.127-1.153.249-1.746.357a3.562,3.562,0,0,1-.478.076m88.973,97.926,2.026-1.268a110.194,110.194,0,0,0-15.478-38.347c-.434-.682-.879-1.344-1.364-2.007-.446-.669-.911-1.313-1.389-1.963a83.266,83.266,0,0,0-11.782-12.973,74.67,74.67,0,0,0-8.551-6.576c-.618-.414-1.249-.816-1.886-1.2s-1.281-.79-1.931-1.16a76.352,76.352,0,0,0-37.455-9.928c-.714-.013-1.421-.013-2.147,0-1.886,0-3.8.1-5.735.217-.777.064-1.548.121-2.326.2-1.931.185-3.893.427-5.856.739a118.905,118.905,0,0,0-21.837,5.595c-.108.032-.229.083-.338.127-.465.153-.93.325-1.376.491-.281.1-.561.2-.835.312v-.013a97.058,97.058,0,0,0-26.055,14.082c-25.73,19.855-35.288,51.308-35.378,51.62l-.453,1.5,1.561-.045c.344-.019,33.167-1.287,58.916-21.155a92.518,92.518,0,0,0,15.446-15.261h.019l.013.013a94.329,94.329,0,0,0,12.4-18.938,3.662,3.662,0,0,1,.172-.357,70.665,70.665,0,0,0,4.174-10.947c-.522.057-1.051.121-1.593.185-.274.032-.555.064-.835.108a70.261,70.261,0,0,1-3.925,9.972c-.108.229-.216.446-.337.663a92.144,92.144,0,0,1-11.8,17.88l-.013-.019a90.318,90.318,0,0,1-15.1,14.923c-21.907,16.9-49.109,20.04-55.972,20.563,2.256-6.493,12.183-32.02,34.078-48.925A95.247,95.247,0,0,1-305.6,618.429v-.013c.784-.293,1.606-.561,2.377-.822.606-.217,1.192-.433,1.8-.618a118.662,118.662,0,0,1,18.944-4.888c2.02-.357,4.014-.618,5.952-.816.79-.1,1.561-.172,2.332-.217.573-.064,1.147-.1,1.72-.127,1.376-.089,2.734-.153,4.066-.166.631-.019,1.249-.019,1.854-.019a73,73,0,0,1,36.831,9.711c.669.369,1.319.758,1.95,1.16s1.268.8,1.886,1.223a74.807,74.807,0,0,1,8.29,6.385,80.665,80.665,0,0,1,11.935,13.286c.484.631.93,1.294,1.4,1.963.446.663.911,1.345,1.344,2.039a108.785,108.785,0,0,1,14.8,37.589m-111.441-61.8a2.91,2.91,0,0,0-.338.108c-1.224.414-2.46.867-3.7,1.332l-.019-.051a89.621,89.621,0,0,0-24,12.974c-14.987,11.552-24.048,27.482-28.712,37.672,11.037-1.918,28.745-6.665,43.712-18.218,12.043-9.31,20.27-21.429,25.45-31.108l.051-.1a65.2,65.2,0,0,0,2.7-6.385,115.558,115.558,0,0,0-15.153,3.772m140.281,60.292c-.032-.758-.045-1.5-.064-2.262-1.517.236-2.995.5-4.48.822a77.536,77.536,0,0,0-15.93,5.161c-.618.28-1.224.561-1.823.854-1.16.542-2.307,1.128-3.434,1.733-.573.306-1.147.631-1.714.956a.422.422,0,0,0-.159.1l-.217.14-.943.586c-.057.045-1.65,1.051-4.205,2.95-.013-.089-.025-.2-.045-.306-10.578,7.175-19.913,17.039-27.648,29.3-.2.312-.389.605-.573.9a133.068,133.068,0,0,0-7.825,14.751l-.077.172,2.039.924-2.039-.911-.013.032c-12.324,30.076-4.855,62.083-4.779,62.408l.37,1.517,1.332-.835c.28-.172,28.05-17.721,40.392-47.8a89.75,89.75,0,0,0,3.632-10.883c.032-.127.057-.267.089-.389.822-3.339,1.5-6.7,2.058-10.049.1-.465.153-.93.217-1.376a137.255,137.255,0,0,0,1.141-33.88c-.414.249-.816.5-1.236.739-.293.185-.6.369-.892.56a135.658,135.658,0,0,1-1.236,32.236c-.064.452-.127.886-.2,1.319a94.6,94.6,0,0,1-2.135,10.3,85.441,85.441,0,0,1-3.524,10.558c-10.5,25.609-32.472,41.954-38.149,45.847a117.013,117.013,0,0,1-1.931-21.505c0-11.011,1.5-24.647,6.907-37.888l.051-.109a89.559,89.559,0,0,1,8.615-15.956A96.227,96.227,0,0,1-192,695.837c1.7-1.2,3.454-2.332,5.232-3.371.185-.121.37-.229.574-.338.51-.312,1.019-.586,1.529-.866,1.192-.663,2.4-1.3,3.619-1.873.535-.274,1.1-.542,1.65-.784a74.4,74.4,0,0,1,15.618-5.181c1.485-.344,2.969-.605,4.486-.835M-192.448,703.8a110.1,110.1,0,0,0-21.48,23.921l-.044.077a130.63,130.63,0,0,0-7.188,13.668l-.1.217c-5.027,12.387-6.417,25.163-6.417,35.505,0,4.225.236,8.042.542,11.259,8.583-7.194,21.525-20.167,28.7-37.671A78.964,78.964,0,0,0-195.156,741c.822-3.275,1.5-6.582,2.058-9.876.064-.421.14-.835.185-1.268a113.344,113.344,0,0,0,.465-26.056M-95.8,693.3l-.045.325c-2.555-1.9-4.148-2.906-4.205-2.95l-.962-.586v-.051c-.695-.4-1.377-.79-2.084-1.173-1.134-.605-2.262-1.179-3.422-1.714v-.019c-.6-.28-1.2-.555-1.81-.835a77.08,77.08,0,0,0-14.471-4.843c-1.485-.35-2.982-.65-4.486-.911v2.32c1.5.248,3,.561,4.486.911a74.852,74.852,0,0,1,14.089,4.856c.554.248,1.109.51,1.65.79,1.223.574,2.415,1.192,3.607,1.854.522.28,1.032.574,1.542.886.191.089.376.217.561.325q2.666,1.577,5.238,3.384c.605.4,1.191.835,1.784,1.287,1.294.943,2.568,1.931,3.8,2.982.351.28.695.573,1.019.866.663.554,1.313,1.128,1.944,1.714.529.465,1.039.943,1.548,1.453.4.357.79.746,1.173,1.128.376.357.745.714,1.07,1.083a.458.458,0,0,1,.128.108l.089.1v.013c.523.529,1.039,1.071,1.529,1.612,1.86,1.975,3.639,4.065,5.352,6.244.293.357.574.726.847,1.1q.956,1.233,1.861,2.5c.414.561.815,1.134,1.2,1.7.229.312.446.618.65.943.586.854,1.16,1.72,1.714,2.587a1,1,0,0,0,.076.121,89.129,89.129,0,0,1,8.539,15.847l.044.109v.019c10.482,25.59,6.3,52.62,4.977,59.375-5.658-3.893-27.648-20.238-38.13-45.847a86.609,86.609,0,0,1-3.524-10.558h-.019c-.045-.2-.089-.389-.134-.593-.127-.491-.236-.969-.357-1.466-.65-2.632-1.16-5.244-1.561-7.793v-.032A136.166,136.166,0,0,1-102,698.5c-.293-.2-.586-.389-.879-.56-.421-.262-.841-.51-1.255-.759a138.342,138.342,0,0,0,1.364,35.276c.025.153.045.306.076.465q.812,4.8,1.994,9.584c.032.121.064.261.089.389h.019a85.429,85.429,0,0,0,3.619,10.883c12.324,30.076,40.106,47.625,40.386,47.8l1.332.835.357-1.517c.077-.325,7.557-32.332-4.766-62.408l-.013-.032v-.013l-.064-.14a129.452,129.452,0,0,0-8.367-15.618c-.076-.127-.153-.229-.229-.357A98.4,98.4,0,0,0-95.8,693.3m2.842,47.7h-.013a80.032,80.032,0,0,0,3.282,9.775c7.175,17.5,20.129,30.477,28.712,37.671,1.064-11.106,1.191-29.318-5.875-46.764l-.1-.217a130.419,130.419,0,0,0-7.143-13.592l-.089-.153a108.986,108.986,0,0,0-21.48-23.933A113.583,113.583,0,0,0-95.2,729.87c.044.421.121.822.185,1.223.554,3.307,1.236,6.621,2.052,9.909m81-131.908c-.771-.083-1.542-.14-2.313-.2-1.937-.121-3.849-.217-5.741-.217-.726-.013-1.433-.013-2.147,0A76.329,76.329,0,0,0-59.616,618.6c-.65.37-1.3.758-1.95,1.16s-1.268.79-1.886,1.2A74.673,74.673,0,0,0-72,627.541a83.535,83.535,0,0,0-12.712,14.267c-.465.65-.93,1.319-1.377,1.994s-.9,1.344-1.344,2.045a111.33,111.33,0,0,0-14.579,36.983l2.039,1.268a108.732,108.732,0,0,1,13.917-36.18c.414-.695.866-1.4,1.312-2.071s.9-1.351,1.364-2.014a81.633,81.633,0,0,1,12.878-14.611,74.807,74.807,0,0,1,8.29-6.385c.618-.421,1.249-.822,1.886-1.223.631-.382,1.268-.771,1.931-1.141a72.9,72.9,0,0,1,36.85-9.73c.605,0,1.224,0,1.854.019,1.332.013,2.7.077,4.072.166.567.032,1.141.064,1.714.127.771.045,1.542.121,2.332.217,1.937.2,3.932.459,5.958.816,1.453.236,2.918.51,4.416.835.637.14,1.287.281,1.937.433q5.314,1.2,11.011,3.078c.37.127.739.248,1.109.37.421.14.822.28,1.243.433.229.083.446.159.676.236.9.293,1.81.618,2.721.956a95.15,95.15,0,0,1,25.469,13.776c21.9,16.905,31.822,42.432,34.084,48.925-6.869-.522-34.065-3.664-55.978-20.563a91.543,91.543,0,0,1-15.108-14.9,117.052,117.052,0,0,1-12.075-18.39.567.567,0,0,0-.076-.153c-2.026-3.836-3.587-7.3-4.747-10.08-.541-.064-1.083-.127-1.612-.185-.325-.032-.631-.064-.943-.076,1.191,2.918,2.88,6.722,5.136,11.024l.019.032v.013c.045.108.1.2.153.312A116.686,116.686,0,0,0,4.244,647.065a91.9,91.9,0,0,0,15.446,15.28c25.743,19.868,58.572,21.136,58.916,21.155l1.548.045-.44-1.5c-.089-.312-9.647-31.765-35.39-51.62a97.794,97.794,0,0,0-26.043-14.082v.013c-.663-.249-1.325-.5-1.994-.726-.185-.076-.37-.14-.554-.2a118.264,118.264,0,0,0-21.85-5.595c-1.963-.312-3.912-.554-5.849-.739M-1.108,624.68a1.2,1.2,0,0,1,.064.121c.032.077.076.14.108.217A110.871,110.871,0,0,0,9.75,641.407l.032.045.057.083c.051.044.076.108.128.153l.032.032c.089.108.2.229.293.357A85.518,85.518,0,0,0,24.5,656.114c14.981,11.552,32.689,16.3,43.713,18.218-4.652-10.189-13.719-26.119-28.7-37.672a89.8,89.8,0,0,0-24-12.986l-.013.064c-1.568-.593-3.11-1.147-4.639-1.657-.128-.044-.236-.076-.357-.108a112.644,112.644,0,0,0-14.229-3.479c.758,2.058,1.625,4.129,2.613,6.187M-11.59,587.117l.1-1.019c-.573-.108-1.166-.23-1.721-.357h-.013q-.583,2.389-.975,4.779a59.26,59.26,0,0,0-.669,12.68c.745.045,1.5.089,2.275.172a56.706,56.706,0,0,1,.618-12.5c.2-1.236.433-2.492.726-3.728-.166-.013-.281-.032-.338-.032m-31.79-47.255a5.1,5.1,0,0,1-.128-.707c-.108-.542-.2-1.1-.293-1.657v-.013c-.032-.236-.076-.465-.1-.714v-.019c-.089-.554-.166-1.1-.23-1.669l-2.071,1.211q.115.851.229,1.682c.045.229.083.478.108.714.1.554.185,1.109.293,1.669.051.229.076.478.127.714A66.993,66.993,0,0,0-40.385,557.1c5.1,10.762,12.974,18,23.354,21.6a43.675,43.675,0,0,0,5.429,1.529c.2.044.382.076.586.108l.013.019c.542.108,1.083.2,1.625.293,1.854.306,3.759.522,5.735.65,1.236.076,2.5.108,3.791.108.695,0,1.389-.019,2.1-.032h.045a125.271,125.271,0,0,0,15.8-2.1h.019A100.444,100.444,0,0,0,49.855,567.37C77.74,550.656,90.9,520.536,91.019,520.242l.618-1.44-1.561-.14c-.325-.013-33.071-2.581-60.949,14.127C11.7,543.749-1.4,557.831-8.589,572.92c.752.14,1.51.249,2.3.344,7.067-14.445,19.734-27.941,36.557-38.538l.013-.013H30.3c23.736-14.222,51.1-14.146,57.967-13.885-2.995,6.187-15.835,30.382-39.564,44.623a97.725,97.725,0,0,1-31.083,11.616l.013.032a86.5,86.5,0,0,1-16.325,2.1H1.2c-1.472.089-2.829.14-4.084.166.032-.077.064-.153.1-.217a49.758,49.758,0,0,1-5.818-.554h-.013c-.758-.108-1.485-.248-2.211-.4l-.032-.013a37.546,37.546,0,0,1-5.461-1.491c-9.768-3.4-17.135-10.265-22.016-20.544a64.338,64.338,0,0,1-5.04-16.287M.345,573.6c.14,0,.28,0,.433-.013,11.227-.682,29.056-3.39,45.031-12.961,16.217-9.743,27.087-24.494,32.905-34.078-11.2.631-29.337,3.275-45.541,13.005C18.116,549.044,6.608,560.922-.165,573.621a4.575,4.575,0,0,0,.51-.019m-249.74-195.96,10.514-7.564c-.5-.637-.93-1.192-1.3-1.65l-10.221,7.385c.293.529.618,1.134,1.007,1.829M43.522,395.548c-15.51,14.968-39.774,23.793-62.58,26.38,11.285-22.837,25.189-42.444,39.475-53.767,22.328-17.657,48.338-22.143,55.035-23.041-1.982,6.633-10.762,32.536-31.93,50.428M39.947,391.2c14.362-12.139,22.716-28.362,26.935-38.748-10.711,2.5-27.769,8.1-42.973,20.129C12.579,381.555,1.135,396.363-8.9,414.549c18.294-3.677,36.461-11.412,48.51-23.035Z" transform="translate(722.147 1135.694)" fill="#678f38"/></g></svg>