<svg xmlns="http://www.w3.org/2000/svg" width="217" height="239" viewBox="0 0 217 239"><g transform="translate(-358 -3849.182)"><rect width="217" height="239" transform="translate(358 3849.182)" fill="#56853c"/><g transform="translate(111.494 -1322.483)"><path d="M12.028,4.944a9.19,9.19,0,0,0-3.616-3.1A32.02,32.02,0,0,0,3.911,0,46.441,46.441,0,0,0,0,10.4l7.749,4.5Q10.33,11.513,12.028,4.944Z" transform="matrix(0.799, -0.602, 0.602, 0.799, 355.006, 5355.155)" fill="#fff"/><path d="M137.578,109.4q6.521-5.883,7.641-12.373.863-5.389-1.875-14.5a4.28,4.28,0,0,0-.771-1.545c-1.942-2.152-15.066,20.982-11.286,19.649q.691,5.6-1.778,7.83-7.688,6.937-36.053-.345Q54.62,98.2,33.313,74.59A169.272,169.272,0,0,1,21.432,59.905Q14.348,49.982,13.3,35.986,12.2,20.414,20.644,12.8,39.795-4.486,82.608,24.881q13.4,9.2,32.906,17.007c6.926,2.8,3.318-2.121-10.561-9.772Q98.521,28.579,70.216,8.664A48.087,48.087,0,0,0,41.726,0Q24.9-.014,14.057,9.774-1.183,23.524.1,43.163,1.341,61.1,15.461,76.75A144.49,144.49,0,0,0,33.275,93.179a131.07,131.07,0,0,0,51.245,24.5Q119.251,125.94,137.578,109.4Z" transform="matrix(0.799, -0.602, 0.602, 0.799, 260.697, 5283.302)" fill="#fff"/></g></g></svg>