<svg xmlns="http://www.w3.org/2000/svg" width="217" height="239" viewBox="0 0 217 239"><g transform="translate(-358 -3849.181)"><rect width="217" height="239" transform="translate(358 3849.181)" fill="#56853c"/><path d="M9335.265,264.061c-9.521-1.32-24.323,2.657-30.474-2.032-32.771,34.962-15.881,28.579-71.965,40.233,36.191-26.8,24.6-10.381,57.735-40.233-32.3-5.661-17.7-39.481-14.219-67.062C9314.1,182.845,9363.1,228.689,9335.265,264.061Zm-56.9-28.452c4.655,4.835,12.365,6.6,22.356,6.1.622-9.416-.016-17.589-4.061-22.351C9285.606,219.815,9279.263,224.989,9278.368,235.609Zm30.484,8.131c7.179,2.309,16.726,2.243,24.382,4.063-1.629-13.943-11.615-19.532-22.352-24.383C9312.083,232.066,9309.42,236.86,9308.853,243.74Z" transform="translate(-8821.643 3730.058)" fill="#fff" fill-rule="evenodd"/></g></svg>