<svg xmlns="http://www.w3.org/2000/svg" width="217" height="239" viewBox="0 0 217 239"><g transform="translate(-990 -5053.182)"><rect width="217" height="239" transform="translate(990 5053.182)" fill="#56853c"/><path d="M89.589,1.984Q85.921,7.516,74.737,15.573A85.763,85.763,0,0,1,60.878,23.81q-5.922,2.646-16.805,2.646-19.421,0-28.049-10.462A36.354,36.354,0,0,1,7.516-8.177a41.917,41.917,0,0,1,9.019-26.486q9.019-11.574,12.687-15.062a14.416,14.416,0,0,0-5.592-.962q-1.263,0-4.059.271a28,28,0,0,0-5.081.932,31.1,31.1,0,0,0-4.149,1.5q-1.623.661-7.576,6.554.241-6.313,2.646-9.68A67.653,67.653,0,0,1,10.7-59.8q3.788-5.5,5.472-6.644A10.257,10.257,0,0,1,19.872-68a23.31,23.31,0,0,1,4.72-.421q1.563,0,4.72.331t9.019,1.142q5.862.812,14.611,1.623t10.312.812q9.68,0,18.94-.9L71.972-45.576q-.661-.12-1.623-.21t-2.405-.15a93.776,93.776,0,0,0-18.97,1.022Q40.1-43.472,31-37.038T19.12-24.532a30.684,30.684,0,0,0-2.766,12.867q0,19.722,39.383,19.722Q68.063,8.057,89.589,1.984ZM33.972-95.722l17.557,7.035-6.434,14.25L27.9-81.652Z" transform="translate(1053 5204)" fill="#f1f6ef"/></g></svg>