<svg xmlns="http://www.w3.org/2000/svg" width="250" height="250" viewBox="0 0 250 250"><g transform="translate(6682 13746)"><g transform="translate(-12398.761 -15477.549)"><path d="M4426.985,652.063s5.549,6.59,0,15.78c0,0,3.815-8.15-.867-13.526Z" transform="translate(1462.013 1213.352)" fill="#fff"/><path d="M4369.122,615.37s5.549,6.59,0,15.78c0,0,3.814-8.15-.867-13.526Z" transform="translate(1512.766 1245.537)" fill="#fff"/><path d="M4243,586.818s4.79,7.161-1.739,15.684c0,0,4.69-7.68.628-13.539Z" transform="translate(1624.157 1270.58)" fill="#fff"/><path d="M4153.009,545.032s4.221,5.771.011,13.829c0,0,2.893-7.145-.668-11.853Z" transform="translate(1702.14 1307.232)" fill="#fff"/><path d="M4088.822-131.3s8.054,6.125,5.593,18.753c0,0,1.042-10.858-5.688-15.808Z" transform="translate(1757.947 1900.461)" fill="#fff"/><path d="M3899.708,443.193s6.936,2.254,4.335,12.486c0-.173.52-8.15-4.335-10.231Z" transform="translate(1923.741 1396.558)" fill="#fff"/><path d="M3699.3,511.879s14.913-6.589,2.775,1.907c.388-.272,1.656-.162,2.168-.342,1.43-.5,8.593-6.988,5.288-8.155,0,.174-4.335-.694-8.151,2.081C3701.385,507.717,3699.478,508.931,3699.3,511.879Z" transform="translate(2099.52 1342.092)" fill="#fff"/><path d="M3573.7,957.846s14.913-6.59,2.775,1.907c.388-.271,1.655-.162,2.168-.342,1.431-.5,8.593-6.988,5.288-8.155,0,.173-4.335-.694-8.15,2.081C3575.781,953.684,3573.873,954.9,3573.7,957.846Z" transform="translate(2209.691 950.922)" fill="#fff"/><path d="M3641.332,593.166s-.347-4.162,2.255-1.734c0,0,2.774,3.468,3.121,5.029a14.435,14.435,0,0,1,.221-2.174,12.351,12.351,0,0,1,.418-4.526,1.6,1.6,0,0,1,.851-1.037,1.287,1.287,0,0,1,.985.121,2.4,2.4,0,0,1,1.222,1.7,3.14,3.14,0,0,1-.4,2.092,3.85,3.85,0,0,0-1.034-1.479.747.747,0,0,0-1.234.123c-.559,1.027-.093,2.668-.063,3.762.023.844.328,3.659-.706,4.1,0,.173-2.6-4.682-3.468-5.2C3643.5,594.12,3642.806,594.293,3641.332,593.166Z" transform="translate(2150.383 1268.955)" fill="#fff"/><path d="M3699.076,608.313s-3.468,6.936-.867,9.364c0,0,1.734.347,2.6-2.6,0,.173-.173,6.416-3.295,5.549C3697.515,620.8,3693.874,618.2,3699.076,608.313Z" transform="translate(2102.176 1251.727)" fill="#fff"/><path d="M3661.783,667.545s-4,5.336-2.175,7.79c0,0,1.414.56,2.6-1.8-.027.147-1.135,5.4-3.643,4.188C3658.541,677.87,3655.859,675.108,3661.783,667.545Z" transform="translate(2135.802 1199.773)" fill="#fff"/><path d="M3588.218,727.762s-3.08,4.99-1.076,6.9c0,0,1.387.333,2.206-1.815-.007.129-.4,4.749-2.885,3.97C3586.456,736.949,3583.618,734.862,3588.218,727.762Z" transform="translate(2199.261 1146.955)" fill="#fff"/><path d="M3518.923,804.5s-3.052,4.469-1.037,6.2c0,0,1.388.307,2.2-1.619-.006.115-.371,4.266-2.862,3.552C3517.213,812.752,3514.364,810.86,3518.923,804.5Z" transform="translate(2260.008 1079.642)" fill="#fff"/><path d="M3672.838,786.191s-2.9,4.477-1,6.2c0,0,1.313.3,2.081-1.625-.006.115-.364,4.266-2.717,3.56C3671.2,794.443,3668.508,792.56,3672.838,786.191Z" transform="translate(2124.897 1095.705)" fill="#fff"/><path d="M3793.364,721.34s-2.172,3.354-.749,4.645c0,0,.983.227,1.559-1.217,0,.087-.272,3.2-2.036,2.667C3792.134,727.521,3790.12,726.111,3793.364,721.34Z" transform="translate(2018.638 1152.588)" fill="#fff"/><path d="M3870.674,721.209s-1.8,3.382-.657,4.662c0,0,.8.217,1.282-1.236,0,.087-.255,3.205-1.685,2.693C3869.609,727.415,3867.983,726.022,3870.674,721.209Z" transform="translate(1950.568 1152.703)" fill="#fff"/><path d="M4006.507,728.5s-1.876,4.725-.755,6.474c0,0,.795.284,1.309-1.739-.006.12-.322,4.447-1.743,3.767C4005.312,737.125,4003.712,735.229,4006.507,728.5Z" transform="translate(1831.512 1146.305)" fill="#fff"/><path d="M4074.344,823.313s-4.53,7.734-1.605,10.684c0,0,2.029.509,3.236-2.817-.011.2-.6,7.348-4.239,6.154C4071.725,837.533,4067.581,834.317,4074.344,823.313Z" transform="translate(1773.962 1063.145)" fill="#fff"/><path d="M4084,647.553s-2.841,4.85-1.007,6.7c0,0,1.272.319,2.03-1.767-.007.125-.378,4.608-2.658,3.859C4082.354,656.471,4079.755,654.454,4084,647.553Z" transform="translate(1764.228 1217.308)" fill="#fff"/><path d="M4081.174,979.2s-2.841,4.85-1.007,6.7c0,0,1.272.319,2.03-1.767-.006.125-.377,4.608-2.658,3.859C4079.531,988.122,4076.933,986.106,4081.174,979.2Z" transform="translate(1766.703 926.408)" fill="#fff"/><path d="M4170.311,938.581s-2.887,5.7-1.069,7.851c0,0,1.271.362,2.047-2.086-.008.146-.421,5.4-2.7,4.541C4168.585,949.033,4166,946.7,4170.311,938.581Z" transform="translate(1688.574 962.04)" fill="#fff"/><path d="M4163.863,746.866s-2.3,4.549-.852,6.262c0,0,1.013.288,1.632-1.664-.006.117-.335,4.3-2.15,3.622C4162.487,755.2,4160.428,753.339,4163.863,746.866Z" transform="translate(1693.786 1130.198)" fill="#fff"/><path d="M4245.979,465.6s-2.357,5.548-.925,7.611c0,0,1.01.338,1.653-2.039-.008.141-.386,5.228-2.193,4.421C4244.506,475.739,4242.467,473.5,4245.979,465.6Z" transform="translate(1621.825 1376.9)" fill="#fff"/><path d="M4255.119,700.017s-1.8,4.769-.178,6.318c0,0,1.038.178,1.445-1.829.006.117.126,4.316-1.75,3.831C4254.642,708.453,4252.4,706.82,4255.119,700.017Z" transform="translate(1613.183 1171.291)" fill="#fff"/><path d="M4255.119,842.557s-1.8,4.769-.178,6.318c0,0,1.038.178,1.445-1.829.006.116.126,4.315-1.75,3.831C4254.642,850.993,4252.4,849.36,4255.119,842.557Z" transform="translate(1613.183 1046.265)" fill="#fff"/><path d="M4241.005,994.976s-1.8,4.769-.178,6.318c0,0,1.038.178,1.445-1.829.006.116.126,4.316-1.75,3.831C4240.529,1003.412,4238.282,1001.779,4241.005,994.976Z" transform="translate(1625.562 912.575)" fill="#fff"/><path d="M4246.13,1095.3s-1.611,4.26-.16,5.644c0,0,.928.16,1.292-1.634.005.1.113,3.855-1.564,3.423C4245.7,1102.838,4243.7,1101.38,4246.13,1095.3Z" transform="translate(1620.941 824.576)" fill="#fff"/><path d="M3989.275,1136.229s-1.611,4.26-.159,5.644c0,0,.927.159,1.291-1.634.006.1.113,3.855-1.563,3.422C3988.849,1143.765,3986.843,1142.307,3989.275,1136.229Z" transform="translate(1846.235 788.678)" fill="#fff"/><path d="M3855.2,1179.979s-1.611,4.26-.159,5.644c0,0,.927.159,1.291-1.634.005.1.113,3.855-1.563,3.423C3854.777,1187.516,3852.77,1186.057,3855.2,1179.979Z" transform="translate(1963.833 750.304)" fill="#fff"/><path d="M3860.665,1290.172s-1.58,4.834-.118,6.419c0,0,.929.188,1.28-1.849.006.118.142,4.387-1.539,3.882C3860.293,1298.742,3858.275,1297.068,3860.665,1290.172Z" transform="translate(1959.011 653.651)" fill="#fff"/><path d="M3961.55,1401.858s-2.909,4.172-1.967,6.112c0,0,.835.448,1.759-1.4-.028.115-1.132,4.24-2.595,3.272C3958.719,1409.956,3957.271,1407.77,3961.55,1401.858Z" transform="translate(1872.182 555.688)" fill="#fff"/><path d="M4158.34,1350.753s-2.541,3.748-1.425,5.413c0,0,.876.364,1.637-1.285-.018.1-.755,3.748-2.306,2.95C4156.228,1357.933,4154.583,1356.069,4158.34,1350.753Z" transform="translate(1699.052 600.513)" fill="#fff"/><path d="M4257.13,1292.891s-2.541,3.748-1.425,5.413c0,0,.876.364,1.637-1.285-.018.1-.755,3.748-2.306,2.95C4255.018,1300.071,4253.373,1298.207,4257.13,1292.891Z" transform="translate(1612.401 651.266)" fill="#fff"/><path d="M4227.494,1376.157s-2.542,3.748-1.425,5.413c0,0,.876.364,1.637-1.285-.018.1-.755,3.748-2.306,2.95C4225.381,1383.337,4223.736,1381.473,4227.494,1376.157Z" transform="translate(1638.396 578.231)" fill="#fff"/><path d="M4318.783,1338.925s-2.208,3.953-.952,5.516c0,0,.9.287,1.52-1.422-.009.1-.428,3.8-2.043,3.138C4317.3,1346.26,4315.5,1344.546,4318.783,1338.925Z" transform="translate(1557.892 610.888)" fill="#fff"/><path d="M4042.749,1335.065s-2.706,4.307-1.672,6.2c0,0,.855.408,1.69-1.484-.022.116-.927,4.29-2.435,3.393C4040.31,1343.29,4038.758,1341.176,4042.749,1335.065Z" transform="translate(1800.672 614.274)" fill="#fff"/><path d="M4070.023,1294.766s-3.157,5.573-2.063,7.951c0,0,.942.492,1.934-1.944-.029.149-1.171,5.495-2.826,4.4C4067.039,1305.322,4065.374,1302.678,4070.023,1294.766Z" transform="translate(1777.22 649.621)" fill="#fff"/><path d="M3873.55,1043.084s-1.611,4.26-.159,5.644c0,0,.927.159,1.291-1.634.005.1.113,3.855-1.564,3.422C3873.124,1050.62,3871.116,1049.162,3873.55,1043.084Z" transform="translate(1947.741 870.378)" fill="#fff"/><path d="M4318.1,962.641s-1.61,4.26-.159,5.644c0,0,.927.159,1.291-1.634.005.1.113,3.855-1.564,3.423C4317.679,970.177,4315.672,968.719,4318.1,962.641Z" transform="translate(1557.811 940.937)" fill="#fff"/><path d="M4319.516,746.714s-1.61,4.26-.159,5.644c0,0,.927.16,1.292-1.634.005.1.113,3.855-1.563,3.423C4319.09,754.25,4317.083,752.792,4319.516,746.714Z" transform="translate(1556.572 1130.332)" fill="#fff"/><path d="M4318.1,628.166s-1.61,4.26-.159,5.644c0,0,.927.16,1.291-1.634.005.1.113,3.855-1.564,3.422C4317.679,635.7,4315.672,634.244,4318.1,628.166Z" transform="translate(1557.811 1234.313)" fill="#fff"/><path d="M4374.557,777.763s-1.611,4.26-.159,5.644c0,0,.927.159,1.292-1.634,0,.1.113,3.855-1.564,3.423C4374.131,785.3,4372.124,783.841,4374.557,777.763Z" transform="translate(1508.295 1103.098)" fill="#fff"/><path d="M4436.654,798.932s-1.611,4.26-.159,5.644c0,0,.927.159,1.291-1.634.005.1.113,3.855-1.564,3.423C4436.228,806.468,4434.221,805.01,4436.654,798.932Z" transform="translate(1453.828 1084.53)" fill="#fff"/><path d="M4436.654,890.665s-1.611,4.26-.159,5.644c0,0,.927.159,1.291-1.634.005.1.113,3.855-1.564,3.423C4436.228,898.2,4434.221,896.742,4436.654,890.665Z" transform="translate(1453.828 1004.069)" fill="#fff"/><path d="M4380.2,1020.5s-1.611,4.26-.159,5.644c0,0,.927.159,1.292-1.634.005.1.113,3.855-1.563,3.423C4379.775,1028.04,4377.769,1026.582,4380.2,1020.5Z" transform="translate(1503.344 890.183)" fill="#fff"/><path d="M4377.379,1141.875s-1.611,4.26-.159,5.644c0,0,.927.159,1.291-1.634.006.1.113,3.855-1.563,3.423C4376.953,1149.411,4374.946,1147.953,4377.379,1141.875Z" transform="translate(1505.819 783.726)" fill="#fff"/><path d="M4318.1,1213.85s-1.61,4.26-.159,5.644c0,0,.927.159,1.291-1.634.005.1.113,3.855-1.564,3.423C4317.679,1221.386,4315.672,1219.928,4318.1,1213.85Z" transform="translate(1557.811 720.595)" fill="#fff"/><path d="M4301.17,1126.35s-1.611,4.26-.159,5.644c0,0,.927.159,1.291-1.634.006.1.113,3.855-1.563,3.423C4300.744,1133.886,4298.737,1132.428,4301.17,1126.35Z" transform="translate(1572.664 797.343)" fill="#fff"/><path d="M4440.887,1051.552s-1.611,4.26-.16,5.644c0,0,.927.159,1.292-1.634,0,.1.113,3.855-1.564,3.422C4440.461,1059.088,4438.454,1057.63,4440.887,1051.552Z" transform="translate(1450.115 862.95)" fill="#fff"/><path d="M4500.162,968.286s-1.611,4.26-.16,5.644c0,0,.927.159,1.291-1.634.005.1.113,3.855-1.563,3.423C4499.735,975.822,4497.729,974.364,4500.162,968.286Z" transform="translate(1398.124 935.985)" fill="#fff"/><path d="M4500.162,890.665s-1.611,4.26-.16,5.644c0,0,.927.159,1.291-1.634.005.1.113,3.855-1.563,3.423C4499.735,898.2,4497.729,896.742,4500.162,890.665Z" transform="translate(1398.124 1004.069)" fill="#fff"/><path d="M4495.927,798.932s-1.611,4.26-.159,5.644c0,0,.927.159,1.291-1.634.005.1.113,3.855-1.564,3.423C4495.5,806.468,4493.495,805.01,4495.927,798.932Z" transform="translate(1401.838 1084.53)" fill="#fff"/><path d="M4567.9,851.149s-1.611,4.26-.16,5.644c0,0,.927.159,1.291-1.634.005.1.113,3.855-1.563,3.423C4567.477,858.685,4565.47,857.227,4567.9,851.149Z" transform="translate(1338.706 1038.729)" fill="#fff"/><path d="M4563.669,959.819s-1.611,4.26-.159,5.644c0,0,.927.159,1.291-1.634,0,.1.113,3.855-1.564,3.422C4563.243,967.355,4561.236,965.9,4563.669,959.819Z" transform="translate(1342.42 943.412)" fill="#fff"/><path d="M4174.155,616.876s-1.611,4.26-.16,5.644c0,0,.927.16,1.291-1.634.005.1.113,3.855-1.564,3.423C4173.729,624.412,4171.722,622.954,4174.155,616.876Z" transform="translate(1684.073 1244.216)" fill="#fff"/><path d="M4009.33,823.059s-1.876,4.725-.755,6.474c0,0,.795.284,1.309-1.739-.007.12-.321,4.447-1.743,3.767C4008.135,831.681,4006.536,829.785,4009.33,823.059Z" transform="translate(1829.036 1063.367)" fill="#fff"/><path d="M3951.117,674.637s-1.8,3.382-.657,4.662c0,0,.8.217,1.282-1.236,0,.087-.254,3.205-1.685,2.693C3950.052,680.843,3948.426,679.45,3951.117,674.637Z" transform="translate(1880.009 1193.552)" fill="#fff"/><path d="M3906.8,704.732s-2.509,4.5-.9,6.2c0,0,1.117.292,1.788-1.64-.006.115-.344,4.266-2.346,3.579C3905.332,712.99,3903.053,711.13,3906.8,704.732Z" transform="translate(1919.41 1167.155)" fill="#fff"/><path d="M3920.91,574.893s-2.509,4.5-.9,6.2c0,0,1.117.292,1.788-1.64-.006.116-.344,4.266-2.346,3.579C3919.444,583.151,3917.166,581.291,3920.91,574.893Z" transform="translate(1907.031 1281.04)" fill="#fff"/><path d="M3877.161,521.264s-2.509,4.5-.9,6.2c0,0,1.117.292,1.788-1.64-.006.116-.344,4.266-2.346,3.579C3875.7,529.522,3873.417,527.662,3877.161,521.264Z" transform="translate(1945.405 1328.08)" fill="#fff"/><path d="M3916.677,939.005s-2.509,4.5-.9,6.2c0,0,1.117.292,1.788-1.64-.006.115-.343,4.266-2.346,3.579C3915.211,947.263,3912.933,945.4,3916.677,939.005Z" transform="translate(1910.744 961.668)" fill="#fff"/><path d="M3843.29,972.876s-2.509,4.5-.9,6.2c0,0,1.117.292,1.788-1.64-.006.115-.344,4.266-2.346,3.579C3841.824,981.134,3839.545,979.274,3843.29,972.876Z" transform="translate(1975.114 931.959)" fill="#fff"/><path d="M3843.29,972.876s-2.509,4.5-.9,6.2c0,0,1.117.292,1.788-1.64-.006.115-.344,4.266-2.346,3.579C3841.824,981.134,3839.545,979.274,3843.29,972.876Z" transform="translate(1975.114 931.959)" fill="#fff"/><path d="M3842.124,877.278s-1.972,3.534-.709,4.876c0,0,.878.23,1.405-1.289,0,.091-.27,3.353-1.844,2.813C3840.971,883.769,3839.18,882.307,3842.124,877.278Z" transform="translate(1975.733 1015.81)" fill="#fff"/><path d="M3793.895,1108.36s-2.509,4.5-.9,6.2c0,0,1.117.292,1.788-1.64-.006.115-.344,4.266-2.346,3.579C3792.428,1116.618,3790.15,1114.758,3793.895,1108.36Z" transform="translate(2018.44 813.123)" fill="#fff"/><path d="M3673.935,1029.328s-2.509,4.5-.9,6.2c0,0,1.117.292,1.788-1.64-.006.115-.344,4.266-2.346,3.579C3672.469,1037.586,3670.191,1035.726,3673.935,1029.328Z" transform="translate(2123.659 882.443)" fill="#fff"/><path d="M3614.661,1063.2s-2.509,4.5-.9,6.2c0,0,1.117.292,1.788-1.64-.006.115-.344,4.266-2.346,3.579C3613.2,1071.457,3610.917,1069.6,3614.661,1063.2Z" transform="translate(2175.65 852.734)" fill="#fff"/><path d="M3664.916,1148.159s-2.263,7.087.617,8.964c0,0,1.722.053,2.1-2.864.027.163.828,6.075-2.311,5.752C3665.349,1160.175,3661.441,1158.3,3664.916,1148.159Z" transform="translate(2130.946 778.214)" fill="#fff"/><path d="M3572.964,1069.161S3570,1079.31,3574,1081.992c0,0,2.37.073,2.827-4.1.041.234,1.267,8.7-3.056,8.237C3573.814,1086.361,3568.4,1083.682,3572.964,1069.161Z" transform="translate(2211.941 847.505)" fill="#fff"/><path d="M4170,204.685s-4.662,10.042-1.165,13.557c0,0,2.331.5,3.5-3.766,0,.251-.233,9.289-4.429,8.034C4167.9,222.76,4163,218.995,4170,204.685Z" transform="translate(1689.964 1605.759)" fill="#fff"/><path d="M3850.385,18.315s-4.725,7.072-2.485,10.153c0,0,1.71.656,3.1-2.446-.03.191-1.274,7.023-4.311,5.575C3846.658,31.788,3843.386,28.352,3850.385,18.315Z" transform="translate(1970.939 1769.229)" fill="#fff"/><path d="M3952-136.926s-4.725,7.072-2.486,10.153c0,0,1.71.656,3.1-2.446-.03.191-1.274,7.024-4.311,5.575C3948.27-123.453,3945-126.89,3952-136.926Z" transform="translate(1881.812 1905.395)" fill="#fff"/><path d="M3746.518,551.862s-4.37,9.413-1.092,12.708c0,0,2.185.471,3.278-3.53,0,.235-.219,8.707-4.151,7.531C3744.552,568.806,3739.963,565.276,3746.518,551.862Z" transform="translate(2061.202 1301.241)" fill="#fff"/><path d="M4434.144,1145.764s.917-1.167-.255-1.218c-.027.064-2.153.669-.585,1.349,0,0,.871.912,3.032-.287-.056.128-.885,1.524-.885,1.524s-3.325,1.305-3.812,2.773a3.3,3.3,0,0,1,1.421-2.589s-1.9-.6-1.108-2.084c-.028.064,1.478-2.031,3.408-1.5a1.213,1.213,0,0,1,.112,1.8Z" transform="translate(1457.179 782.171)" fill="#fff"/><path d="M4084,1292.787l-.867.867.347.867a4.087,4.087,0,0,0-.694,3.989,4.57,4.57,0,0,0,2.176,1.523c-2.075,2.943-9.546,7.06-9.546,7.06,6.721-1.582,9.335-5.166,10.2-6.8a8.01,8.01,0,0,0,2.369.639c1.387.347,1.561-2.428,1.561-2.428C4089.719,1295.041,4084,1292.787,4084,1292.787Zm1.994,5.636c-4.162-.867-1.561-2.6-1.561-2.6C4086.338,1295.128,4085.991,1298.423,4085.991,1298.423Zm.347.347a7.649,7.649,0,0,0,.52-2.428C4091.193,1301.2,4086.338,1298.77,4086.338,1298.77Z" transform="translate(1769.625 651.357)" fill="#fff"/><path d="M4004.849,1416.122a1.674,1.674,0,0,0,.056-.418,4.662,4.662,0,0,1,.283-.972,2.513,2.513,0,0,1,2.395-1.594,2.812,2.812,0,0,1,1.245.187c1.149.536.328,2.243-.337,2.8a5.711,5.711,0,0,0-1.339,1.724c-.6,1.174.1,1.882,1.341,1.922,2.961.1,5.919-1.675,7.975-3.646-.075.072-.112.354-.151.452a5.9,5.9,0,0,1-.624,1.144,8.325,8.325,0,0,1-3.626,2.839,6.777,6.777,0,0,1-2.282.46,5.376,5.376,0,0,1-3.212-.492,1.531,1.531,0,0,1-.683-.935s-.173-1.734,2.255-3.989c0,0,1.214-.867-.694-.694C4007.45,1414.909,4005.543,1414.909,4004.849,1416.122Z" transform="translate(1831.519 545.796)" fill="#fff"/><path d="M3890.9,759.1l-9.538,3.815,1.561-2.428,9.018-3.989Z" transform="translate(1939.833 1121.749)" fill="#fff"/><path d="M4244.139,541.068l-5.723,3.468V542.8l6.243-3.642Z" transform="translate(1626.651 1312.382)" fill="#fff"/><path d="M4021.555,964.627l-13.179,4.335,1.04-2.428,12.832-3.989Z" transform="translate(1828.425 941.02)" fill="#fff"/><path d="M4254.293,1181.965l-10.231,4.162.693-2.081,11.272-4.162Z" transform="translate(1621.699 750.387)" fill="#fff"/><path d="M3880.923,1319.034l-15.087,7.11.347-2.081,15.781-7.283Z" transform="translate(1953.45 630.313)" fill="#fff"/><path d="M3519.927,860.225l-8.324,5.029.694-2.6,8.738-4.7Z" transform="translate(2264.157 1032.763)" fill="#fff"/><path d="M4494.134,701.781l-4.509,2.948v-1.561l5.028-3.121Z" transform="translate(1406.309 1171.264)" fill="#fff"/><path d="M3798.6,527.372s-.627-5.967,4.625-1.037l.208,1.419s-5.653.764-4.166,4.168c.013.088,2.753,4.735,2.791,8.365,0,.017-4.8-9.273-3.372-11.55.124.068,1.043-1.531,2.829-1.707A1.74,1.74,0,0,0,3798.6,527.372Z" transform="translate(2012.582 1325.343)" fill="#fff"/><path d="M4071.582,501.127a3.918,3.918,0,0,0-.979-.846c-.032-.02-.483-.246-.49-.267.02-.062.691-2.123.686-2.2-1.927,1.01-2.589,5.029-2.6,4.871a3.1,3.1,0,0,0,.106.64c.3,1.037,1.365,1.419,2.647.955C4072.534,503.707,4072.334,502.063,4071.582,501.127Zm-.93,2.228c-.735.151-1.731.083-1.854-.6a2.332,2.332,0,0,1,.559-1.528c.073-.108,1.171.366,1.249.412a1.25,1.25,0,0,1,.6.694A.729.729,0,0,1,4070.652,503.355Z" transform="translate(1775.953 1348.649)" fill="#fff"/><path d="M3634.222,1016.559l-.983-.118c.039,0,.693-2.286.76-2.5a4.391,4.391,0,0,0,.152-3.26c-.463-.934-1.669-.815-2.514-.477a3.4,3.4,0,0,0-2,2.276,4.4,4.4,0,0,0,1.352,4.667c-.107,3.667-14.268,10.154-14.181,10.122,11.219-2.752,15.214-9.022,15.286-8.938C3634.5,1019.071,3634.222,1016.559,3634.222,1016.559Zm-1.636-.911c.014-.052-1.334-1.092-1.445-1.215-.728-.8-.9-1.674.151-2.235a1.708,1.708,0,0,1,1.006-.278C3633.695,1012.158,3632.758,1015,3632.586,1015.648Z" transform="translate(2171.877 899.435)" fill="#fff"/><path d="M3773.59,11.966l-1.643-.2c.065.008,1.157-3.82,1.269-4.177.538-1.717,1.118-3.7.254-5.447-.773-1.561-2.788-1.362-4.2-.8a5.677,5.677,0,0,0-3.335,3.8c-1.659,4.568,2.259,7.8,2.259,7.8-.179,6.126-23.839,16.964-23.694,16.911,18.746-4.6,25.418-15.073,25.54-14.933C3774.06,16.163,3773.59,11.966,3773.59,11.966Zm-2.734-1.521c.023-.088-2.229-1.825-2.415-2.029-1.216-1.336-1.508-2.8.253-3.734a2.851,2.851,0,0,1,1.681-.464C3772.709,4.613,3771.145,9.362,3770.856,10.445Z" transform="translate(2059.877 1784.474)" fill="#fff"/><path d="M4207.2,1065.954l-.983-.118c.039,0,.692-2.286.759-2.5a4.39,4.39,0,0,0,.153-3.26c-.463-.934-1.669-.815-2.514-.477a3.4,3.4,0,0,0-2,2.276,4.4,4.4,0,0,0,1.352,4.667c-.107,3.667-14.268,10.154-14.181,10.122,11.22-2.752,15.213-9.022,15.287-8.938C4207.485,1068.466,4207.2,1065.954,4207.2,1065.954Zm-1.637-.911c.015-.052-1.334-1.092-1.445-1.214-.728-.8-.9-1.675.152-2.235a1.705,1.705,0,0,1,1.006-.278C4206.677,1061.553,4205.741,1064.4,4205.568,1065.043Z" transform="translate(1669.299 856.11)" fill="#fff"/><rect width="5.53" height="5.53" transform="matrix(0.467, -0.884, 0.884, 0.467, 5812.729, 1884.389)" fill="#fff"/><rect width="5.53" height="5.53" transform="matrix(0.467, -0.884, 0.884, 0.467, 5814.629, 1890.259)" fill="#fff"/><rect width="5.53" height="5.53" transform="matrix(0.467, -0.884, 0.884, 0.467, 5806.833, 1911.267)" fill="#fff"/><rect width="5.53" height="5.53" transform="matrix(0.467, -0.884, 0.884, 0.467, 5808.733, 1917.137)" fill="#fff"/><rect width="5.53" height="5.53" transform="translate(5800.146 1939.367) rotate(-61.642)" fill="#fff"/><rect width="5.53" height="5.53" transform="translate(5806.034 1937.522) rotate(-61.642)" fill="#fff"/><path d="M4031.048,1152.639s.387-6.854,2.687-6.808c-.014.073.909.318.95,1.308-.1.133,1.119-2.437-.254-3.068-.027.146-2.813-1.3-3.527,6.208,0,0-2.636-7.116-4.377-4.945,0,0-1.105,2.364-.286,3.572,0,0,1.283.312,1.21-.91a9.8,9.8,0,0,1,2.734,4.853Z" transform="translate(1813.019 781.821)" fill="#fff"/><path d="M3794.662,239.17s-1.163-10.542,1.089-11.184a2.106,2.106,0,0,1,1.221,1.695c-.067.233.543-4.052-.938-4.586.007.23-3.036-1.111-2.043,10.53,0,0-4.17-10.006-5.379-6.166,0,0-.546,3.937.525,5.52,0,0,1.321.078.975-1.758a14.848,14.848,0,0,1,3.756,6.535Z" transform="translate(2021.307 1587.857)" fill="#fff"/><path d="M3888.508,1283.889s.387-6.854,2.687-6.808c-.013.073.909.318.951,1.308-.1.133,1.119-2.437-.254-3.068-.027.146-2.813-1.3-3.527,6.208,0,0-2.636-7.116-4.377-4.945,0,0-1.106,2.364-.286,3.572,0,0,1.283.312,1.21-.91a9.8,9.8,0,0,1,2.734,4.853Z" transform="translate(1938.045 666.698)" fill="#fff"/><path d="M4241.917,1341.328s-1.069-7.431,1.406-7.88c0,.081,1.044.145,1.3,1.2-.078.164.671-2.855-.937-3.233,0,.162-3.3-.787-2.436,7.418,0,0-4.367-7.057-5.762-4.353,0,0-.674,2.773.467,3.891,0,0,1.442.056,1.1-1.237a10.713,10.713,0,0,1,3.981,4.61Z" transform="translate(1629.39 617.479)" fill="#fff"/><path d="M3579.36,883.189s-.961-6.678,1.264-7.081c0,.073.938.13,1.17,1.075-.07.147.6-2.565-.842-2.906,0,.146-2.964-.707-2.189,6.667,0,0-3.924-6.342-5.178-3.912,0,0-.6,2.492.42,3.5,0,0,1.3.051.989-1.112a9.631,9.631,0,0,1,3.578,4.143Z" transform="translate(2209.947 1018.443)" fill="#fff"/><path d="M3699.337,1105.086c-.09,3.145,2.554,6.333,1.492,9.4,0,0-1.337,3.862-4.158.026.171.232-1.159,1.588-1.346,1.766-1.094,1.041-2.531,1.606-3.7.369-1.08-1.14-.844-2.823-.341-4.174-.149.373-2.238-2.61.447-5,.149,0-.895,8.2,2.089,7.011.149.149,1.8-.149,1.946-2.014.093-1.221-1.074-2.363-.731-3.5.188-.624.817-1.666.731-2.326,0,0,.919,7.062,3.126,7.089,0,.3,2.536-.149.149-3.58C3699.188,1110.312,3699.337,1105.095,3699.337,1105.086Z" transform="translate(2107.359 815.994)" fill="#fff"/><path d="M3739.124,772.023c-.079,2.745,2.229,5.528,1.3,8.207,0,0-1.167,3.37-3.629.023.149.2-1.012,1.386-1.175,1.541-.955.908-2.209,1.4-3.232.321-.943-1-.737-2.464-.3-3.643-.13.326-1.953-2.279.391-4.362.13,0-.781,7.161,1.823,6.12.13.13,1.575-.13,1.7-1.758.081-1.065-.937-2.062-.638-3.051.165-.545.713-1.454.638-2.03,0,0,.8,6.164,2.729,6.187,0,.26,2.213-.13.13-3.125C3738.993,776.584,3739.124,772.031,3739.124,772.023Z" transform="translate(2071.46 1108.132)" fill="#fff"/><path d="M4106.549,1.46c-.1,3.412,2.771,6.87,1.619,10.2,0,0-1.451,4.189-4.511.028.185.252-1.257,1.723-1.46,1.916-1.187,1.129-2.745,1.742-4.017.4-1.172-1.237-.917-3.063-.37-4.528-.162.4-2.427-2.832.486-5.421.162,0-.972,8.9,2.265,7.606.162.162,1.958-.162,2.111-2.185.1-1.324-1.164-2.564-.792-3.792.2-.677.886-1.807.792-2.523,0,0,1,7.661,3.392,7.691,0,.324,2.751-.162.162-3.884C4106.387,7.129,4106.549,1.47,4106.549,1.46Z" transform="translate(1750.851 1784.013)" fill="#fff"/><g transform="translate(5777.744 1745.549)"><path d="M4190.384,513.757s3.642,9.364,3.468,12.486c0,.347-2.254-3.121-2.254-3.121l1.041,29.653s1.561,22.89-3.295,28.439c.174.173,0-49.6,0-49.6s0-10.925-1.734-13.179C4187.957,518.613,4190.384,513.757,4190.384,513.757Z" transform="translate(-4105.182 -411.791)" fill="#fff"/><g transform="translate(0 89.827)"><g transform="translate(66.387 16.301)"><path d="M4377.912,703.575l2.6,13.179-2.081-2.948.173,36.243a25.643,25.643,0,0,1-8.15,19.249,18.644,18.644,0,0,1-5.2,2.948s-9.018,3.295-10.4,3.815a75.966,75.966,0,0,1,10.058-6.763s9.884-5.376,11.444-13.873l-.52-25.838-.173-17.341s-.174-3.295-.868-3.121C4374.79,709.3,4377.912,703.575,4377.912,703.575Z" transform="translate(-4318.258 -684.413)" fill="#fff"/><path d="M4057.152,547.628l7.8,7.457s-4.509-2.428-2.6,0l24.8,27.572,18.035,19.075s10.038,8.667,8.834,20.374a40.261,40.261,0,0,0-8.921-15.779c.173.173-33.642-36.243-33.642-36.243l-11.1-13.873c.173.173-2.6-3.815-3.295-3.988Z" transform="translate(-4057.066 -547.628)" fill="#fff"/></g><g transform="translate(72.823 14.653)"><path d="M4454.653,601.963s3.642,7.977,3.3,11.792l-2.429-2.948,1.041,43.006s1.388,17.168-2.428,20.636c0,.174-.347-31.908-.347-31.908l-.694-30.694s0-4.335-.867-5.722Z" transform="translate(-4410.106 -593.639)" fill="#fff"/><path d="M4146.533,534.221A32.221,32.221,0,0,1,4150,546.186c0,.173-2.428-3.122-2.428-3.122l1.04,43.353s.347,33.282.347,33.295a25.672,25.672,0,0,1-1.242,9.21,10.523,10.523,0,0,1-5.427,6.088c-3.066,1.372-5.745.242-7.7-2.375-1.291-1.729-2.29-5.3-5.093-4.643-1.6.373-2.78,1.9-3.655,3.188a27.173,27.173,0,0,0-1.861,3.265,24.123,24.123,0,0,0-1.778,4.675,26.756,26.756,0,0,1-1.142,3.415c-.752,1.807-2.169,4.8-4.566,4.554a3.222,3.222,0,0,1-1.353-.5c.173.173-9.538-4.855-3.988-23.237,0-.173-2.948,15.434,3.121,19.422,0,0,3.815,3.815,6.069-5.376a20.444,20.444,0,0,1,1.171-2.951,42.189,42.189,0,0,1,3.241-6.27c1.347-2.1,4.331-6.324,7.342-5.74,1.417.275,1.838,1.825,2.2,3.021a8.132,8.132,0,0,0,2.347,4.238,5.69,5.69,0,0,0,4.786,1.2c1.334-.215,3.686-.643,4.563-1.784a4.772,4.772,0,0,0,.706-3.337l-1.041-34.509-.521-42.659s.174-9.191-1.04-10.231C4144.278,538.383,4146.533,534.221,4146.533,534.221Z" transform="translate(-4109.442 -534.221)" fill="#fff"/></g><g transform="translate(44.884 5.549)"><path d="M4336.193,482.709s3.815,9.884,3.295,12.659a31.1,31.1,0,0,0-2.168-2.861l.52,40.231.347,29.133s.347,13.006-2.774,15.78c.173,0,0-28.266,0-28.266l-.694-55.492s.173-5.549-1.041-6.416Z" transform="translate(-4278.187 -479.934)" fill="#fff"/><path d="M4178.657,460.128s2.6,10.925,2.427,12.486l-1.907-2.428.173,44.913s-.347,15.78-5.2,22.37a12.394,12.394,0,0,1-6.416,4.856c.173.173-6.243,1.561-6.937,2.428.173,0,10.317-6.85,12.052-9.624.173.173,4.856-4.335,4.162-15.607,0,.173-.347-38.324-.347-38.324s.867-15.954-.868-16.994C4175.969,464.2,4178.657,460.128,4178.657,460.128Z" transform="translate(-4126.547 -460.128)" fill="#fff"/><path d="M3882.152,482.709l9.191,9.191-3.469-1.214s14.393,19.249,19.769,24.624c0,.173,6.763,7.63,11.965,13.353,0,.347,13.465,11.89,11.761,21.2.061.076-.924-6.552-12.715-17.3.347.694-23.931-24.971-30.521-36.416.173.347-4.335-8.671-6.069-8.324A49.44,49.44,0,0,0,3882.152,482.709Z" transform="translate(-3882.066 -479.934)" fill="#fff"/></g><g transform="translate(0 0)"><path d="M3860.585,1123.337h2.6l-7.977-5.549-1.3,4.769.867.867c-5.029,4.855-2.6,11.271-2.6,11.271a9.308,9.308,0,0,1-5.549,1.561c-3.121-9.364-6.937-6.243-6.937-6.243-5.2,5.029-4.162,9.537-4.162,9.191,1.387,4.509,10.058,2.254,10.058,2.081,0,2.962-3.162,4.268-5.318,5.6-4.363,2.7-8.934,5.288-14.016,6.318-4.965,1.006-7.656-3.25-7.76-7.9a17.085,17.085,0,0,1,.909-6.1c-1.656,4.466-3.118,10.114-1.012,14.7,1.642,3.573,4.954,4.666,8.786,4.167,4.192-.546,7.863-2.906,11.078-5.521,2.762-2.246,6.642-4.858,7.756-8.394.063-.2.692-3.052.618-3.043,2.6-.347,9.451-4.075,9.451-4.249,2.25,2.6,8.3,3.293,8.323,3.295,4.254.487,5.188-7.449,3.766-10.187a14.551,14.551,0,0,0-4.589-4.756C3862.963,1124.771,3861.4,1123.337,3860.585,1123.337Zm-22.63,12.225s1.561-3.642,5.55,1.561C3843.5,1137.123,3837.435,1137.99,3837.955,1135.563Zm16.1-3.621c-.21-.17-1.532-1.4-1.365-1.755,3.121-6.59,5.722-2.775,5.722-2.775,1.008,1.241,1.482,3.265.313,4.565C3857.629,1133.2,3855.225,1132.885,3854.06,1131.942Zm5.225,1.713c.52-1.04,1.907-4.681,1.907-4.682s3.6,2.448,3.988,2.779a7.118,7.118,0,0,1,1.728,1.924C3868.989,1137.585,3859.094,1134.037,3859.285,1133.655Z" transform="translate(-3780.411 -1031.429)" fill="#fff"/><path d="M4100.062,414.967,4104.4,427.8l-2.948-3.468,2.081,42.659s.867,24.1-2.428,29.653c0,.173-1.041-46.127-1.041-46.127s-1.213-28.613-2.774-30.867C4097.288,419.476,4100.062,414.967,4100.062,414.967Z" transform="translate(-4025.958 -414.967)" fill="#fff"/><path d="M3668.854,505.289l3.815,13.526-1.907-3.121,1.04,39.191s1.041,12.312-2.081,15.434c0,0,21.5,5.029,27.919,5.2,0,.347-2.6,4.509-2.6,4.509s-19.075-1.907-33.988,4.335c0,0,7.63.867,6.242,6.243a18.9,18.9,0,0,1-6.242,7.8c0,.174-22.544,16.3-32.428,5.2,0,.347-7.543-7.2.607-21.59,0,.173-5.029,12.659.867,17.688,0,0,4.335,4.509,13.006,2.428.173.173,15.607-4.855,22.023-10.231,0,0-1.734-3.121-14.913-3.988.173.173,2.6-5.9,2.6-5.9l22.023-5.376s-15.954-4.509-20.636-3.121c.173,0,2.428-4.335,2.428-4.335s-1.214-1.561,13.006-1.387l-1.04-31.214-.694-21.156s-.174-4.855-1.387-5.549Z" transform="translate(-3612.091 -494.191)" fill="#fff"/><path d="M3582.039,594.355l2.948,3.295L3581,582.91l-2.688,4.249c.867.347,1.214,2.948,1.214,2.948l.52,15.26s1.041,18.728,1.041,18.555c.173,1.907-1.561,2.428-1.561,2.254-5.2,1.561-10.231-1.214-10.231-1.214,4.509-7.11,1.214-11.792,1.214-11.792-2.6-3.468-6.936,3.815-6.936,3.642-3.122,5.723-.694,9.538-.867,9.364-13.179,3.468-8.5-6.243-8.5-6.243-1.734,0-8.15,2.775-8.15,2.775-5.029-12.486-9.365-3.989-9.365-3.989-3.642,5.723-.347,9.191-.347,9.017,1.561,2.081,8.323,0,8.323-.173a5.864,5.864,0,0,1,0,1.908c-1.214,2.254-15.607,9.538-15.607,9.364-6.416,1.908-8.67-1.387-8.67-1.387-5.2-4.682,1.387-17.514,1.387-17.514-3.122,3.121-4.509,10.058-4.509,9.884-2.081,8.844,3.121,13.179,3.121,13.179,6.59,4.335,16.821-3.815,16.821-3.988,10.578-6.59,9.018-12.312,9.018-12.312l5.549-2.254c.693,14.046,14.306,4.075,14.48,3.9,4.509,3.988,11.445,2.948,11.618,2.775,6.416-1.734,5.2-15.26,5.2-15.26Zm-44.48,28.7c0,.173-1.041-1.387,1.041-2.254,0,0,2.254-.694,4.162,2.775C3542.761,623.575,3538.426,624.615,3537.559,623.055Zm30.171.661a7.3,7.3,0,0,1-1.212.379c-.423.1-1.678-1.18-1.936-1.437a2.721,2.721,0,0,1-.911-2.959,5.1,5.1,0,0,1,2.125-2.208c1.949-1.144,3.194.635,3.74,2.336A2.957,2.957,0,0,1,3567.73,623.716Z" transform="translate(-3516.778 -562.274)" fill="#fff"/><path d="M3578.576,609.851a7.342,7.342,0,0,0-.867,7.457c-10.665.78-24.885,14.133-24.885,13.613-4.509,4.509-8.844,3.642-8.671,3.642-7.283-3.122,2.688-16.387,2.514-16.561-12.312,11.965-3.468,20.289-3.642,20.116,5.549,5.029,13.7-5.2,13.7-5.2,8.657-7.644,16.972-10.446,22.867-11.393a10.806,10.806,0,0,1,.457,2.462c.579-.463.54-1.773.449-2.6a26.647,26.647,0,0,1,7.614-.092s1.561-4.855,1.561-5.029C3581.351,605,3578.576,610.025,3578.576,609.851Zm1.127,7.2a8.015,8.015,0,0,0-1.04-1.734,1.45,1.45,0,0,1-.22-.977.989.989,0,0,1,.9-.749,3.96,3.96,0,0,1,2.96,1.008,8.165,8.165,0,0,1,1.153.983,5.948,5.948,0,0,1,.534.637,7.353,7.353,0,0,0,.4.658S3581.438,616.875,3579.7,617.048Z" transform="translate(-3537.246 -585.054)" fill="#fff"/></g></g><path d="M4014.494-316.079s7.457,18.382,5.549,22.717c0-.52-3.3-6.763-3.3-6.763v63.642s1.561,30.347-4.335,33.122c.347-.347,0-91.561,0-91.561s.694-13.179-1.214-13.526Z" transform="translate(-3950.447 316.079)" fill="#fff"/><path d="M3809.5,117.781l6.936,13.526-4.162-2.948,4.075,15.174a20.516,20.516,0,0,1,.242,8.061c-1.438,9.346-12.758,11.743-18.441,4.748-2.67-3.286-3.735-7.643-4.171-11.769a6.384,6.384,0,0,1-.769,2.361,34.073,34.073,0,0,1-2.625,5.272c-2.428,3.965-6.047,7.906-10.927,8.452-3.836.429-6.677-1.769-8.826-4.749-3.141-4.356-3.533-9.9-2.465-15.03a35.986,35.986,0,0,1,1.855-6.017c0-.173,2.428-5.549-.52-2.948,0,.488-.64,1.318-.842,1.747a48.391,48.391,0,0,0-3.884,14.488,17.4,17.4,0,0,1-3.973,8.928,6.532,6.532,0,0,1-4.191,2.669c-4.409.34-7.542-6.673-8.439-10.068-1.315-4.98-1.025-10.276-.463-15.343.187-1.684.351-4.226,1.614-5.526a1.9,1.9,0,0,1,.756-.535c0,.173-4.162,20.636,4.335,24.8,0,.173,5.549,2.6,8.324-8.5a14.631,14.631,0,0,1,.614-2.724c.477-2.162,1.007-4.313,1.641-6.435,1.218-4.077,2.835-9.66,6.646-12.105,4.2-2.7,2.152,6.853,1.85,8.432-1.168,6.109-4.815,17.361,2.705,20.97,2.65,1.272,6.274.579,8.825-.67,3.71-1.816,5.854-5.425,6.678-9.375a43.446,43.446,0,0,0-1.388-19.769l3.989-6.416s2.948,12.312,2.6,22.717c0,.173-.521,14.913,11.271,14.74a9.2,9.2,0,0,0,3.153-.406c1.851-.669,2.173-1.742,1.75-3.552-.59-2.527-1.378-5.024-2.037-7.536-.574-2.189-1.138-4.382-1.668-6.583a38.682,38.682,0,0,1-1.129-6.894c-.046-.726-.544-4.335-1.629-4.336C3806.634,124.63,3809.5,117.781,3809.5,117.781Z" transform="translate(-3719.09 -63.33)" fill="#fff"/></g></g><rect width="250" height="250" transform="translate(-6682 -13746)" fill="none"/></g></svg>