<svg xmlns="http://www.w3.org/2000/svg" width="150" height="150" viewBox="0 0 150 150"><g transform="translate(6345 14410)"><g transform="translate(-8127.139 -14287.958)"><g transform="translate(1837.625 -74.124)"><path d="M2023.208,31.98h-37.076a.636.636,0,0,1-.636-.636V-24.969a.637.637,0,0,1,.083-.314l18.993-33.435a.637.637,0,0,1,.552-.322h0a.636.636,0,0,1,.552.321l18.69,32.707a.638.638,0,0,1,.075.419c-.1,1.433-.435,37.81-.6,56.942A.637.637,0,0,1,2023.208,31.98Zm-36.44-1.273h35.809c.024-2.9.133-15.368.252-27.844.079-8.271.148-14.867.2-19.6.031-2.678.06-4.912.085-6.481.02-1.254.031-1.93.056-2.314l-18.047-31.583L1986.768-24.8Zm37.5-55.955h0Zm0,0h0Zm0,0,0,0Zm0,0h0Zm0,0h0Zm0,0h0Zm0,0h0Zm0,0Z" transform="translate(-1985.496 59.04)" fill="#56853c"/></g><g transform="translate(1844.24 -56.466)"><path d="M2036.877,23.867a.632.632,0,0,1-.223-.041l-4.746-1.78h-15.544l-4.017,1.536a.636.636,0,0,1-.785-.9l6.553-12.015a.636.636,0,0,1,.558-.332h10.8a.637.637,0,0,1,.545.307l7.4,12.258a.637.637,0,0,1-.545.965Zm-20.631-3.093h15.777a.64.64,0,0,1,.224.04l3.139,1.177-6.271-10.382h-10.064L2013.5,21.778l2.514-.961A.638.638,0,0,1,2016.246,20.774Z" transform="translate(-2011.483 -10.337)" fill="#56853c"/></g><g transform="translate(1844.482 -40.567)"><path d="M2037.831,102.351h-24.758a.636.636,0,0,1-.636-.636V74.894a.636.636,0,0,1,.636-.636,24.188,24.188,0,0,0,3.876-1.4.637.637,0,0,1,.25-.051h15.656a.636.636,0,0,1,.3.073l4.612,2.427a.636.636,0,0,1,.34.554l.364,25.85a.636.636,0,0,1-.636.645Zm-24.121-1.273h23.476l-.35-24.827-4.138-2.178H2017.33a33.517,33.517,0,0,1-3.62,1.346Z" transform="translate(-2012.437 -72.801)" fill="#56853c"/></g><g transform="translate(1848.729 -37.372)"><path d="M2033.875,109.406h-4.117a.636.636,0,0,1-.636-.636V86.075a.636.636,0,0,1,.731-.629c.315.009,2.271-.036,4-.088a.652.652,0,0,1,.462.179.637.637,0,0,1,.193.457V108.77A.636.636,0,0,1,2033.875,109.406Zm-3.481-1.273h2.845V86.65c-1.389.041-2.264.065-2.827.065h-.018Zm-.143-22.46h0Zm-.079-.081a.684.684,0,0,1,.079.081A.661.661,0,0,0,2030.171,85.592Z" transform="translate(-2029.121 -85.358)" fill="#56853c"/></g><g transform="translate(1854.415 -37.372)"><path d="M2056.213,109.406H2052.1a.636.636,0,0,1-.636-.636V86.075a.636.636,0,0,1,.731-.629c.316.01,2.271-.036,4-.088a.65.65,0,0,1,.462.179.638.638,0,0,1,.193.457V108.77A.636.636,0,0,1,2056.213,109.406Zm-3.481-1.273h2.844V86.65c-1.4.041-2.288.066-2.844.065Zm-.142-22.459h0Zm-.085-.087a.642.642,0,0,1,.085.087A.639.639,0,0,0,2052.505,85.587Z" transform="translate(-2051.46 -85.358)" fill="#56853c"/></g><g transform="translate(1860.078 -37.372)"><path d="M2078.465,109.406h-4.117a.636.636,0,0,1-.636-.636V86.075a.636.636,0,0,1,.731-.629c.314.009,2.271-.036,4-.088a.646.646,0,0,1,.463.179.638.638,0,0,1,.193.457V108.77A.636.636,0,0,1,2078.465,109.406Zm-3.481-1.273h2.845V86.65c-1.389.041-2.264.065-2.827.065h-.018Zm-.144-22.46h0Zm-.079-.081a.605.605,0,0,1,.079.081A.618.618,0,0,0,2074.761,85.592Z" transform="translate(-2073.711 -85.358)" fill="#56853c"/></g><g transform="translate(1849.759 -3.431)"><path d="M2047.12,238.712h-13.314a.636.636,0,0,1-.636-.636V225.924a7.224,7.224,0,0,1,7.216-7.216h.155a7.224,7.224,0,0,1,7.216,7.216v12.152A.636.636,0,0,1,2047.12,238.712Zm-12.677-1.273h12.042V225.924a5.95,5.95,0,0,0-5.943-5.943h-.155a5.95,5.95,0,0,0-5.943,5.943Z" transform="translate(-2033.17 -218.708)" fill="#56853c"/></g><g transform="translate(1839.799 1.053)"><path d="M2004.121,251.2h-9.446a.636.636,0,0,1-.636-.636v-8.882a5.359,5.359,0,0,1,10.719,0v8.882A.636.636,0,0,1,2004.121,251.2Zm-8.81-1.273h8.174v-8.246a4.087,4.087,0,0,0-8.174,0Z" transform="translate(-1994.038 -236.325)" fill="#56853c"/></g><g transform="translate(1863.263 1.053)"><path d="M2096.307,251.2h-9.447a.636.636,0,0,1-.636-.636v-8.882a5.36,5.36,0,0,1,10.719,0v8.882A.636.636,0,0,1,2096.307,251.2Zm-8.81-1.273h8.174v-8.246a4.087,4.087,0,0,0-8.174,0Z" transform="translate(-2086.224 -236.325)" fill="#56853c"/></g><g transform="translate(1874.661 -69.209)"><path d="M2141.027-21.951h-9.385a.636.636,0,0,1-.5-.242.636.636,0,0,1-.119-.543l3.964-16.505a.637.637,0,0,1,.593-.487.636.636,0,0,1,.631.437l5.421,16.505a.636.636,0,0,1-.089.572A.635.635,0,0,1,2141.027-21.951Zm-8.578-1.273h7.7l-4.447-13.54Z" transform="translate(-2131.006 39.729)" fill="#56853c"/></g><g transform="translate(1875.628 -52.704)"><path d="M2142.889,38.528h-7.447a.636.636,0,0,1-.636-.636V25.755a.636.636,0,0,1,.636-.636h7.447a.636.636,0,0,1,.636.636V37.891A.636.636,0,0,1,2142.889,38.528Zm-6.811-1.273h6.175V26.392h-6.175Z" transform="translate(-2134.806 -25.119)" fill="#56853c"/></g><g transform="translate(1875.628 -38.545)"><path d="M2142.889,136.2h-7.447a.636.636,0,0,1-.636-.636V81.384a.636.636,0,0,1,.636-.636h7.447a.636.636,0,0,1,.636.636v54.183A.636.636,0,0,1,2142.889,136.2Zm-6.811-1.273h6.175V82.021h-6.175Z" transform="translate(-2134.806 -80.748)" fill="#56853c"/></g><g transform="translate(1875.628 -40.487)"><path d="M2143.5,76.185h-8.055a.636.636,0,0,1-.636-.636V73.755a.636.636,0,0,1,.636-.636h8.055a.636.636,0,0,1,.636.636v1.794A.636.636,0,0,1,2143.5,76.185Zm-7.418-1.273h6.782v-.521h-6.782Z" transform="translate(-2134.806 -73.119)" fill="#56853c"/></g><g transform="translate(1828.705 -69.209)"><path d="M1960.472-21.951h-9.385a.636.636,0,0,1-.5-.242.636.636,0,0,1-.119-.543l3.964-16.505a.637.637,0,0,1,.593-.487.64.64,0,0,1,.63.437l5.421,16.505a.636.636,0,0,1-.089.572A.636.636,0,0,1,1960.472-21.951Zm-8.578-1.273h7.7l-4.447-13.54Z" transform="translate(-1950.451 39.729)" fill="#56853c"/></g><g transform="translate(1829.672 -52.704)"><path d="M1962.334,38.528h-7.447a.636.636,0,0,1-.636-.636V25.755a.636.636,0,0,1,.636-.636h7.447a.636.636,0,0,1,.636.636V37.891A.636.636,0,0,1,1962.334,38.528Zm-6.811-1.273h6.175V26.392h-6.175Z" transform="translate(-1954.25 -25.119)" fill="#56853c"/></g><g transform="translate(1829.672 -38.545)"><path d="M1962.334,136.3h-7.447a.636.636,0,0,1-.636-.636V81.384a.636.636,0,0,1,.636-.636h7.447a.636.636,0,0,1,.636.636v54.283A.636.636,0,0,1,1962.334,136.3Zm-6.811-1.273h6.175V82.021h-6.175Z" transform="translate(-1954.25 -80.748)" fill="#56853c"/></g><g transform="translate(1829.672 -40.487)"><path d="M1962.941,76.185h-8.055a.636.636,0,0,1-.636-.636V73.755a.636.636,0,0,1,.636-.636h8.055a.636.636,0,0,1,.637.636v1.794A.636.636,0,0,1,1962.941,76.185Zm-7.418-1.273h6.782v-.521h-6.782Z" transform="translate(-1954.25 -73.119)" fill="#56853c"/></g><g transform="translate(1904.921 -46.514)"><path d="M2270.919,112.6h-20.388a.636.636,0,0,1-.636-.645c.251-17.894.531-44.871.295-46.948a.636.636,0,0,1,.059-.612l10.073-14.685a.636.636,0,0,1,1.049,0L2271.444,64.4a.639.639,0,0,1,.112.36v47.21A.636.636,0,0,1,2270.919,112.6Zm-19.743-1.273h19.107V64.955L2260.846,51.2l-9.4,13.7c.106.83.108,2.727.1,7.305,0,3.925-.039,9.384-.105,16.226C2251.347,98.522,2251.211,108.709,2251.176,111.331Z" transform="translate(-2249.894 -49.437)" fill="#56853c"/></g><g transform="translate(1909.896 -33.65)"><path d="M2280.025,125.161h-8.971a1.614,1.614,0,0,1-1.612-1.612V105.725a5.752,5.752,0,0,1,5.746-5.745,6.457,6.457,0,0,1,6.449,6.45v17.119A1.614,1.614,0,0,1,2280.025,125.161Zm-4.837-23.908a4.478,4.478,0,0,0-4.473,4.473v17.823a.34.34,0,0,0,.339.34h8.971a.34.34,0,0,0,.339-.34V106.43A5.183,5.183,0,0,0,2275.188,101.253Z" transform="translate(-2269.442 -99.98)" fill="#56853c"/></g><g transform="translate(1912.981 -26.065)"><path d="M2286.275,147.378h-3.944a.636.636,0,0,1-.624-.512,3.771,3.771,0,0,1-.134-1.095V132.906a.638.638,0,0,1,.146-.406l2.063-2.488a.636.636,0,0,1,.933-.051l2,1.942a.636.636,0,0,1,.194.457v14.382A.636.636,0,0,1,2286.275,147.378Zm-3.414-1.273h2.778V132.629l-1.315-1.275-1.478,1.782v12.756a.563.563,0,0,1-.006.081C2282.846,146.009,2282.853,146.054,2282.861,146.105Z" transform="translate(-2281.563 -129.782)" fill="#56853c"/></g><g transform="translate(1913.112 -30.858)"><path d="M2284.474,115.739a2.4,2.4,0,1,1,2.4-2.4A2.4,2.4,0,0,1,2284.474,115.739Zm0-3.519a1.123,1.123,0,1,0,1.124,1.123A1.125,1.125,0,0,0,2284.474,112.22Z" transform="translate(-2282.078 -110.947)" fill="#56853c"/></g><g transform="translate(1909.694 -2.055)"><path d="M2272.2,237.44h-2.913a.637.637,0,0,1-.636-.636V224.748a.637.637,0,0,1,.636-.636h2.913a.636.636,0,0,1,.636.636V236.8A.636.636,0,0,1,2272.2,237.44Zm-2.277-1.273h1.64V225.385h-1.64Z" transform="translate(-2268.648 -224.112)" fill="#56853c"/></g><g transform="translate(1913.82 -2.055)"><path d="M2288.409,237.44H2285.5a.637.637,0,0,1-.637-.636V224.748a.637.637,0,0,1,.637-.636h2.912a.636.636,0,0,1,.636.636V236.8A.636.636,0,0,1,2288.409,237.44Zm-2.276-1.273h1.64V225.385h-1.64Z" transform="translate(-2284.86 -224.112)" fill="#56853c"/></g><g transform="translate(1918.027 -2.055)"><path d="M2304.939,237.44h-2.913a.636.636,0,0,1-.636-.636V224.748a.636.636,0,0,1,.636-.636h2.913a.636.636,0,0,1,.636.636V236.8A.636.636,0,0,1,2304.939,237.44Zm-2.276-1.273h1.64V225.385h-1.64Z" transform="translate(-2301.39 -224.112)" fill="#56853c"/></g><g transform="translate(1887.12 -2.055)"><path d="M2183.508,237.44H2180.6a.636.636,0,0,1-.636-.636V224.748a.636.636,0,0,1,.636-.636h2.913a.636.636,0,0,1,.636.636V236.8A.636.636,0,0,1,2183.508,237.44Zm-2.276-1.273h1.64V225.385h-1.64Z" transform="translate(-2179.959 -224.112)" fill="#56853c"/></g><g transform="translate(1891.247 -2.055)"><path d="M2199.72,237.44h-2.913a.636.636,0,0,1-.636-.636V224.748a.636.636,0,0,1,.636-.636h2.913a.636.636,0,0,1,.636.636V236.8A.636.636,0,0,1,2199.72,237.44Zm-2.276-1.273h1.64V225.385h-1.64Z" transform="translate(-2196.171 -224.112)" fill="#56853c"/></g><g transform="translate(1895.454 -2.055)"><path d="M2216.25,237.44h-2.913a.637.637,0,0,1-.636-.636V224.748a.637.637,0,0,1,.636-.636h2.913a.636.636,0,0,1,.636.636V236.8A.636.636,0,0,1,2216.25,237.44Zm-2.277-1.273h1.64V225.385h-1.64Z" transform="translate(-2212.701 -224.112)" fill="#56853c"/></g><g transform="translate(1895.454 -21.716)"><path d="M2216.25,160.195h-2.913a.637.637,0,0,1-.636-.636v-10.6a2.093,2.093,0,0,1,4.186,0v10.6A.636.636,0,0,1,2216.25,160.195Zm-2.277-1.273h1.64V148.96a.82.82,0,0,0-1.64,0Z" transform="translate(-2212.701 -146.867)" fill="#56853c"/></g><g transform="translate(1891.732 -21.716)"><path d="M2201.628,160.195h-2.912a.636.636,0,0,1-.636-.636v-10.6a2.093,2.093,0,1,1,4.185,0v10.6A.636.636,0,0,1,2201.628,160.195Zm-2.276-1.273h1.64V148.96a.82.82,0,1,0-1.64,0Z" transform="translate(-2198.079 -146.867)" fill="#56853c"/></g><g transform="translate(1887.687 -21.716)"><path d="M2185.734,160.195h-2.913a.636.636,0,0,1-.636-.636v-10.6a2.093,2.093,0,1,1,4.185,0v10.6A.636.636,0,0,1,2185.734,160.195Zm-2.276-1.273h1.64V148.96a.82.82,0,0,0-1.64,0Z" transform="translate(-2182.185 -146.867)" fill="#56853c"/></g><g transform="translate(1807.71 -46.514)"><path d="M1888.984,112.6H1868.6a.636.636,0,0,1-.636-.645c.251-17.894.532-44.871.295-46.948a.636.636,0,0,1,.06-.612l10.073-14.685a.636.636,0,0,1,1.049,0L1889.509,64.4a.636.636,0,0,1,.112.36v47.21A.636.636,0,0,1,1888.984,112.6Zm-19.743-1.273h19.107V64.955L1878.912,51.2l-9.4,13.7c.106.83.108,2.727.1,7.305,0,3.925-.04,9.384-.105,16.226C1869.414,98.522,1869.277,108.709,1869.241,111.331Z" transform="translate(-1867.96 -49.437)" fill="#56853c"/></g><g transform="translate(1812.686 -33.65)"><path d="M1898.093,125.161h-8.971a1.614,1.614,0,0,1-1.612-1.612V105.725a5.752,5.752,0,0,1,5.745-5.745,6.457,6.457,0,0,1,6.45,6.45v17.119A1.614,1.614,0,0,1,1898.093,125.161Zm-4.838-23.908a4.478,4.478,0,0,0-4.473,4.473v17.823a.34.34,0,0,0,.339.34h8.971a.34.34,0,0,0,.339-.34V106.43A5.183,5.183,0,0,0,1893.255,101.253Z" transform="translate(-1887.51 -99.98)" fill="#56853c"/></g><g transform="translate(1815.77 -26.065)"><path d="M1904.342,147.377H1900.4a.637.637,0,0,1-.624-.512,3.748,3.748,0,0,1-.134-1.095V132.905a.637.637,0,0,1,.146-.406l2.063-2.488a.637.637,0,0,1,.455-.229.628.628,0,0,1,.478.178l2,1.942a.637.637,0,0,1,.193.457v14.382A.636.636,0,0,1,1904.342,147.377Zm-3.414-1.273h2.778V132.628l-1.315-1.275-1.478,1.782v12.756a.621.621,0,0,1-.005.081C1900.913,146.008,1900.92,146.053,1900.928,146.1Z" transform="translate(-1899.631 -129.781)" fill="#56853c"/></g><g transform="translate(1815.902 -30.858)"><path d="M1902.542,115.739a2.4,2.4,0,1,1,2.4-2.4A2.4,2.4,0,0,1,1902.542,115.739Zm0-3.519a1.123,1.123,0,1,0,1.123,1.123A1.125,1.125,0,0,0,1902.542,112.22Z" transform="translate(-1900.146 -110.947)" fill="#56853c"/></g><g transform="translate(1812.483 -2.055)"><path d="M1890.264,237.44h-2.913a.636.636,0,0,1-.637-.636V224.748a.636.636,0,0,1,.637-.636h2.913a.636.636,0,0,1,.636.636V236.8A.636.636,0,0,1,1890.264,237.44Zm-2.277-1.273h1.64V225.385h-1.64Z" transform="translate(-1886.715 -224.112)" fill="#56853c"/></g><g transform="translate(1816.609 -2.055)"><path d="M1906.476,237.44h-2.912a.636.636,0,0,1-.636-.636V224.748a.636.636,0,0,1,.636-.636h2.912a.636.636,0,0,1,.636.636V236.8A.636.636,0,0,1,1906.476,237.44Zm-2.276-1.273h1.64V225.385h-1.64Z" transform="translate(-1902.927 -224.112)" fill="#56853c"/></g><g transform="translate(1820.817 -2.055)"><path d="M1923.006,237.44h-2.912a.636.636,0,0,1-.636-.636V224.748a.636.636,0,0,1,.636-.636h2.912a.636.636,0,0,1,.637.636V236.8A.636.636,0,0,1,1923.006,237.44Zm-2.276-1.273h1.64V225.385h-1.64Z" transform="translate(-1919.457 -224.112)" fill="#56853c"/></g><g transform="translate(1787.139 -46.514)"><path d="M1808.164,112.6h-20.389a.636.636,0,0,1-.636-.645c.25-17.894.532-44.871.295-46.948a.636.636,0,0,1,.059-.612l10.073-14.685a.636.636,0,0,1,1.05,0L1808.688,64.4a.636.636,0,0,1,.112.36v47.21A.636.636,0,0,1,1808.164,112.6Zm-19.744-1.273h19.107V64.955L1798.091,51.2l-9.4,13.7c.107.83.109,2.727.1,7.305,0,3.925-.039,9.384-.105,16.226C1788.593,98.522,1788.456,108.709,1788.42,111.331Z" transform="translate(-1787.139 -49.437)" fill="#56853c"/></g><g transform="translate(1792.115 -33.65)"><path d="M1817.271,125.161H1808.3a1.614,1.614,0,0,1-1.612-1.612V105.725a5.752,5.752,0,0,1,5.746-5.745,6.457,6.457,0,0,1,6.45,6.45v17.119A1.614,1.614,0,0,1,1817.271,125.161Zm-4.838-23.908a4.478,4.478,0,0,0-4.473,4.473v17.823a.34.34,0,0,0,.339.34h8.971a.34.34,0,0,0,.339-.34V106.43A5.183,5.183,0,0,0,1812.434,101.253Z" transform="translate(-1806.688 -99.98)" fill="#56853c"/></g><g transform="translate(1795.2 -26.065)"><path d="M1823.521,147.377h-3.944a.636.636,0,0,1-.624-.512,3.758,3.758,0,0,1-.134-1.095V132.905a.637.637,0,0,1,.146-.406l2.063-2.488a.637.637,0,0,1,.455-.229.63.63,0,0,1,.478.178l2,1.942a.638.638,0,0,1,.193.457v14.382A.636.636,0,0,1,1823.521,147.377Zm-3.414-1.273h2.778V132.628l-1.316-1.275-1.477,1.782v12.756a.642.642,0,0,1-.005.081C1820.092,146.008,1820.1,146.053,1820.107,146.1Z" transform="translate(-1818.81 -129.781)" fill="#56853c"/></g><g transform="translate(1795.331 -30.858)"><path d="M1821.72,115.739a2.4,2.4,0,1,1,2.4-2.4A2.4,2.4,0,0,1,1821.72,115.739Zm0-3.519a1.123,1.123,0,1,0,1.123,1.123A1.125,1.125,0,0,0,1821.72,112.22Z" transform="translate(-1819.324 -110.947)" fill="#56853c"/></g><g transform="translate(1791.912 -2.055)"><path d="M1809.443,237.44h-2.913a.636.636,0,0,1-.636-.636V224.748a.636.636,0,0,1,.636-.636h2.913a.636.636,0,0,1,.636.636V236.8A.636.636,0,0,1,1809.443,237.44Zm-2.276-1.273h1.64V225.385h-1.64Z" transform="translate(-1805.894 -224.112)" fill="#56853c"/></g><g transform="translate(1796.038 -2.055)"><path d="M1825.654,237.44h-2.913a.636.636,0,0,1-.636-.636V224.748a.636.636,0,0,1,.636-.636h2.913a.636.636,0,0,1,.636.636V236.8A.636.636,0,0,1,1825.654,237.44Zm-2.277-1.273h1.64V225.385h-1.64Z" transform="translate(-1822.105 -224.112)" fill="#56853c"/></g><g transform="translate(1800.246 -2.055)"><path d="M1842.185,237.44h-2.912a.636.636,0,0,1-.636-.636V224.748a.636.636,0,0,1,.636-.636h2.912a.636.636,0,0,1,.636.636V236.8A.636.636,0,0,1,1842.185,237.44Zm-2.276-1.273h1.64V225.385h-1.64Z" transform="translate(-1838.636 -224.112)" fill="#56853c"/></g><g transform="translate(1883.075 -30.494)"><path d="M2187.153,159.524H2164.7a.637.637,0,0,1-.636-.645c.227-17.162.458-42.98.188-45.518a.636.636,0,0,1,.533-.984h22.368a.636.636,0,0,1,.636.636v45.875A.636.636,0,0,1,2187.153,159.524Zm-21.807-1.273h21.171v-44.6h-20.973c.062.952.092,2.84.1,6.735.009,3.827-.013,9.126-.066,15.752C2165.5,145.879,2165.378,155.686,2165.346,158.252Z" transform="translate(-2164.065 -112.377)" fill="#56853c"/></g><g transform="translate(1883.075 -48.577)"><path d="M2185.94,60.808h0l-21.117-.121a.636.636,0,0,1-.633-.641c.044-6.422.058-16.854-.085-17.869a.636.636,0,0,1,.6-.846h32.161a.636.636,0,0,1,.636.636V44.03a.636.636,0,0,1-.11.357l-10.922,16.141A.636.636,0,0,1,2185.94,60.808Zm-20.477-1.39,20.14.116,10.622-15.7V42.6H2165.4c.065,1.092.089,3.4.089,8.5C2165.49,54.553,2165.472,58.024,2165.464,59.418Zm-1.213-17h0Zm0,0h0Z" transform="translate(-2164.066 -41.331)" fill="#56853c"/></g><g transform="translate(1797.38 -47.45)"><path d="M1859.73,64.161a.635.635,0,0,1-.506-.25l-10.976-14.385-9.791,13.023a.637.637,0,0,1-.508.254h-.006a.637.637,0,0,1-.51-.262l-9.938-13.7a.636.636,0,0,1-.122-.374V46.4a.636.636,0,0,1,.636-.636h31.739a.636.636,0,0,1,.636.637l-.02,17.128a.636.636,0,0,1-.636.636Zm-11.485-16.326a.636.636,0,0,1,.506.25L1859.1,61.645l.017-14.611h-30.465v1.232l9.311,12.83,9.778-13.006a.635.635,0,0,1,.506-.254Z" transform="translate(-1827.375 -45.761)" fill="#56853c"/></g><g transform="translate(1856.618 -79.274)"><path d="M2060.754-72.736a.637.637,0,0,1-.637-.636v-5.266a.637.637,0,0,1,.637-.636.636.636,0,0,1,.636.636v5.266A.636.636,0,0,1,2060.754-72.736Z" transform="translate(-2060.118 79.274)" fill="#56853c"/></g><g transform="translate(1855.647 -78.716)"><path d="M2058.7-75.807h-1.76a.636.636,0,0,1-.636-.636.636.636,0,0,1,.636-.636h1.76a.636.636,0,0,1,.636.636A.636.636,0,0,1,2058.7-75.807Z" transform="translate(-2056.304 77.08)" fill="#56853c"/></g><g transform="translate(1878.599 -71.375)"><path d="M2147.113-44.433a.636.636,0,0,1-.636-.636V-47.6a.636.636,0,0,1,.636-.636.636.636,0,0,1,.636.636v2.535A.636.636,0,0,1,2147.113-44.433Z" transform="translate(-2146.477 48.241)" fill="#56853c"/></g><g transform="translate(1878.131 -71.106)"><path d="M2146.125-45.911h-.847a.636.636,0,0,1-.636-.636.636.636,0,0,1,.636-.636h.847a.636.636,0,0,1,.636.636A.636.636,0,0,1,2146.125-45.911Z" transform="translate(-2144.641 47.184)" fill="#56853c"/></g><g transform="translate(1832.735 -71.375)"><path d="M1966.921-44.433a.636.636,0,0,1-.636-.636V-47.6a.636.636,0,0,1,.636-.636.636.636,0,0,1,.636.636v2.535A.636.636,0,0,1,1966.921-44.433Z" transform="translate(-1966.285 48.241)" fill="#56853c"/></g><g transform="translate(1832.268 -71.106)"><path d="M1965.932-45.911h-.847a.636.636,0,0,1-.636-.636.636.636,0,0,1,.636-.636h.847a.636.636,0,0,1,.636.636A.636.636,0,0,1,1965.932-45.911Z" transform="translate(-1964.448 47.184)" fill="#56853c"/></g></g><rect width="150" height="150" transform="translate(-6345 -14410)" fill="none"/></g></svg>