<svg xmlns="http://www.w3.org/2000/svg" width="150.719" height="116.14" viewBox="0 0 150.719 116.14"><g transform="translate(-461.731 -2829.98)" opacity="0.999"><g transform="translate(461.691 2830.377)"><path d="M150,28H0L5.1,0H59.374L57.62,1.448H6.391l-4.574,25.1H148.183l-4.574-25.1H92.178L90.756,0H144.9Z" transform="translate(0.4 15.174)" fill="#57853c"/><path d="M150.36,28.3H-.36L4.852-.3H60.208L57.728,1.748H6.642l-4.465,24.5H147.823l-4.465-24.5H92.052L90.041-.3h55.108Zm-150-.6H149.64L144.648.3H91.471l.833.848h51.555l4.683,25.7H1.457l4.684-25.7H57.512L58.539.3H5.352Z" transform="translate(0.4 15.174)" fill="#57853c"/><path d="M70.85,111.434H-3V28.049L33.925-4.009,70.85,28.049Zm-72.322-1.5H69.322V28.722L33.925-2.009l-35.4,30.731Z" transform="translate(39.333 4.009)" fill="#57853c"/><path d="M71.15,111.734H-3.3V27.912L33.925-4.406,71.15,27.912Zm-73.85-.6H70.55V28.186L33.925-3.611-2.7,28.186Zm72.322-.9H-1.772V28.585l35.7-30.992,35.7,30.992Zm-70.795-.6H69.022V28.859L33.925-1.612l-35.1,30.471Z" transform="translate(39.333 4.009)" fill="#57853c"/><path d="M-3-3H30.352V66.359H-3ZM28.825-1.585h-30.3V64.944h30.3Z" transform="translate(111.645 44.808)" fill="#57853c"/><path d="M-3.3-3.3H30.652V66.659H-3.3Zm33.352.6H-2.7V66.059H30.052Zm-31.825.815h30.9V65.244h-30.9Zm30.3.6h-29.7V64.644h29.7Z" transform="translate(111.645 44.808)" fill="#57853c"/><path d="M-3-3H30.352V66.359H-3ZM28.825-1.585h-30.3V64.944h30.3Z" transform="translate(7.515 44.808)" fill="#57853c"/><path d="M-3.3-3.3H30.652V66.659H-3.3Zm33.352.6H-2.7V66.059H30.052Zm-31.825.815h30.9V65.244h-30.9Zm30.3.6h-29.7V64.644h29.7Z" transform="translate(7.515 44.808)" fill="#57853c"/><path d="M-3-3H30.353V28.946H-3ZM28.825-1.631h-30.3V27.577h30.3Z" transform="translate(59.707 80.119)" fill="#57853c"/><path d="M-3.3-3.3H30.653V29.246H-3.3Zm33.353.6H-2.7V28.646H30.053Zm-31.825.769h30.9V27.877h-30.9Zm30.3.6h-29.7V27.277h29.7Z" transform="translate(59.707 80.119)" fill="#57853c"/><path d="M-12088.471,3737.994H-12090V3708h1.529Z" transform="translate(12162.493 -3630.117)" fill="#57853c"/><path d="M-12088.171,3738.294h-2.129V3707.7h2.129Zm-1.529-.6h.93V3708.3h-.93Z" transform="translate(12162.493 -3630.117)" fill="#57853c"/><g transform="translate(45.76 53.255)"><path d="M-3-3H14.313V14.313H-3ZM12.785-1.472H-1.472V12.785H12.785Z" transform="translate(3 3)" fill="#57853c"/><path d="M-3.3-3.3H14.613V14.613H-3.3Zm17.313.6H-2.7V14.013H14.013Zm-15.785.928H13.085V13.085H-1.772Zm14.258.6H-1.172V12.485H12.485Z" transform="translate(3 3)" fill="#57853c"/><path d="M-12172.062,3623.527h-15.423V3622h15.423Z" transform="translate(12188.249 -3614.107)" fill="#57853c"/><path d="M-12171.762,3623.827h-16.022V3621.7h16.022Zm-15.423-.6h14.823v-.927h-14.823Z" transform="translate(12188.249 -3614.107)" fill="#57853c"/><path d="M-12162.472,3609.447H-12164V3594h1.526Z" transform="translate(12171.89 -3593.236)" fill="#57853c"/><path d="M-12162.172,3609.747h-2.126V3593.7h2.126Zm-1.526-.6h.927V3594.3h-.927Z" transform="translate(12171.89 -3593.236)" fill="#57853c"/></g><g transform="translate(12.662 53.255)"><path d="M-3-3H14.313V14.313H-3ZM12.785-1.472H-1.472V12.785H12.785Z" transform="translate(3 3)" fill="#57853c"/><path d="M-3.3-3.3H14.613V14.613H-3.3Zm17.313.6H-2.7V14.013H14.013Zm-15.785.928H13.085V13.085H-1.772Zm14.258.6H-1.172V12.485H12.485Z" transform="translate(3 3)" fill="#57853c"/><path d="M-12172.062,3623.527h-15.423V3622h15.423Z" transform="translate(12188.249 -3614.107)" fill="#57853c"/><path d="M-12171.762,3623.827h-16.022V3621.7h16.022Zm-15.423-.6h14.823v-.927h-14.823Z" transform="translate(12188.249 -3614.107)" fill="#57853c"/><path d="M-12162.472,3609.447H-12164V3594h1.526Z" transform="translate(12171.89 -3593.236)" fill="#57853c"/><path d="M-12162.172,3609.747h-2.126V3593.7h2.126Zm-1.526-.6h.927V3594.3h-.927Z" transform="translate(12171.89 -3593.236)" fill="#57853c"/></g><g transform="translate(116.793 53.255)"><path d="M-3-3H14.313V14.313H-3ZM12.785-1.472H-1.472V12.785H12.785Z" transform="translate(3 3)" fill="#57853c"/><path d="M-3.3-3.3H14.613V14.613H-3.3Zm17.313.6H-2.7V14.013H14.013Zm-15.785.928H13.085V13.085H-1.772Zm14.258.6H-1.172V12.485H12.485Z" transform="translate(3 3)" fill="#57853c"/><path d="M-12172.062,3623.527h-15.423V3622h15.423Z" transform="translate(12188.249 -3614.107)" fill="#57853c"/><path d="M-12171.762,3623.827h-16.022V3621.7h16.022Zm-15.423-.6h14.823v-.927h-14.823Z" transform="translate(12188.249 -3614.107)" fill="#57853c"/><path d="M-12162.472,3609.447H-12164V3594h1.526Z" transform="translate(12171.89 -3593.236)" fill="#57853c"/><path d="M-12162.172,3609.747h-2.126V3593.7h2.126Zm-1.526-.6h.927V3594.3h-.927Z" transform="translate(12171.89 -3593.236)" fill="#57853c"/></g><g transform="translate(12.662 82.279)"><path d="M-3-3H14.313V14.313H-3ZM12.785-1.472H-1.472V12.785H12.785Z" transform="translate(3 3)" fill="#57853c"/><path d="M-3.3-3.3H14.613V14.613H-3.3Zm17.313.6H-2.7V14.013H14.013Zm-15.785.928H13.085V13.085H-1.772Zm14.258.6H-1.172V12.485H12.485Z" transform="translate(3 3)" fill="#57853c"/><path d="M-12172.062,3623.527h-15.423V3622h15.423Z" transform="translate(12188.249 -3614.107)" fill="#57853c"/><path d="M-12171.762,3623.827h-16.022V3621.7h16.022Zm-15.423-.6h14.823v-.927h-14.823Z" transform="translate(12188.249 -3614.107)" fill="#57853c"/><path d="M-12162.472,3609.447H-12164V3594h1.526Z" transform="translate(12171.89 -3593.236)" fill="#57853c"/><path d="M-12162.172,3609.747h-2.126V3593.7h2.126Zm-1.526-.6h.927V3594.3h-.927Z" transform="translate(12171.89 -3593.236)" fill="#57853c"/></g><g transform="translate(116.793 82.279)"><path d="M-3-3H14.313V14.313H-3ZM12.785-1.472H-1.472V12.785H12.785Z" transform="translate(3 3)" fill="#57853c"/><path d="M-3.3-3.3H14.613V14.613H-3.3Zm17.313.6H-2.7V14.013H14.013Zm-15.785.928H13.085V13.085H-1.772Zm14.258.6H-1.172V12.485H12.485Z" transform="translate(3 3)" fill="#57853c"/><path d="M-12172.062,3623.527h-15.423V3622h15.423Z" transform="translate(12188.249 -3614.107)" fill="#57853c"/><path d="M-12171.762,3623.827h-16.022V3621.7h16.022Zm-15.423-.6h14.823v-.927h-14.823Z" transform="translate(12188.249 -3614.107)" fill="#57853c"/><path d="M-12162.472,3609.447H-12164V3594h1.526Z" transform="translate(12171.89 -3593.236)" fill="#57853c"/><path d="M-12162.172,3609.747h-2.126V3593.7h2.126Zm-1.526-.6h.927V3594.3h-.927Z" transform="translate(12171.89 -3593.236)" fill="#57853c"/></g><g transform="translate(83.694 53.255)"><path d="M-3-3H14.313V14.313H-3ZM12.785-1.472H-1.472V12.785H12.785Z" transform="translate(3 3)" fill="#57853c"/><path d="M-3.3-3.3H14.613V14.613H-3.3Zm17.313.6H-2.7V14.013H14.013Zm-15.785.928H13.085V13.085H-1.772Zm14.258.6H-1.172V12.485H12.485Z" transform="translate(3 3)" fill="#57853c"/><path d="M-12172.062,3623.527h-15.423V3622h15.423Z" transform="translate(12188.249 -3614.107)" fill="#57853c"/><path d="M-12171.762,3623.827h-16.022V3621.7h16.022Zm-15.423-.6h14.823v-.927h-14.823Z" transform="translate(12188.249 -3614.107)" fill="#57853c"/><path d="M-12162.472,3609.447H-12164V3594h1.526Z" transform="translate(12171.89 -3593.236)" fill="#57853c"/><path d="M-12162.172,3609.747h-2.126V3593.7h2.126Zm-1.526-.6h.927V3594.3h-.927Z" transform="translate(12171.89 -3593.236)" fill="#57853c"/></g></g><path d="M18.478,12.4c2.913-.945,2.973-4.437,2.973-4.583A.355.355,0,0,0,21.38,7.6c-.085-.121-2.185-2.909-5.1-1.961a7.528,7.528,0,0,0-2.224,1.2,7.46,7.46,0,0,0,.455-2.487c0-3.062-3.3-4.2-3.439-4.245a.355.355,0,0,0-.227,0c-.139.046-3.439,1.183-3.439,4.263a7.506,7.506,0,0,0,.455,2.487A7.542,7.542,0,0,0,5.632,5.641C2.722,4.692.626,7.481.541,7.6a.355.355,0,0,0-.071.213c0,.146.06,3.638,2.973,4.583a7.421,7.421,0,0,0,2.5.337,7.46,7.46,0,0,0-1.83,1.741c-1.8,2.487.2,5.329.291,5.457a.323.323,0,0,0,.181.131,6.256,6.256,0,0,0,1.751.242c2.522,0,3.908-1.51,4.618-3.908.728,2.412,2.107,3.908,4.618,3.908a6.256,6.256,0,0,0,1.748-.245.323.323,0,0,0,.181-.131c.089-.121,2.092-2.977.291-5.457a7.585,7.585,0,0,0-1.826-1.741,7.46,7.46,0,0,0,2.5-.334ZM10.961.827C11.5,1.04,13.8,2.088,13.8,4.355a9.818,9.818,0,0,1-2.444,5.762c-.064-.025-.043.32-.043-3.986a.355.355,0,1,0-.71,0v3.7A14.065,14.065,0,0,0,9.159,8.018,7.851,7.851,0,0,1,8.119,4.355c0-2.259,2.3-3.311,2.842-3.528Zm-7.3,10.9c-2.149-.71-2.441-3.215-2.487-3.794.355-.448,2.075-2.313,4.231-1.613a9.782,9.782,0,0,1,4.725,4.11c-.036.046.27.121-3.8-1.2a.355.355,0,0,0-.22.675l3.521,1.144a13.755,13.755,0,0,0-2.178.821,7.855,7.855,0,0,1-3.791-.146Zm5.627,6.512c-1.325,1.83-3.8,1.329-4.37,1.187-.313-.494-1.556-2.7-.227-4.526a9.841,9.841,0,0,1,5.368-3.222c.032.05.2-.206-2.313,3.247a.355.355,0,0,0,.576.412l2.178-3a13.815,13.815,0,0,0,.1,2.313,7.78,7.78,0,0,1-1.314,3.588Zm1.67-6.775a.355.355,0,1,1,.355-.355A.355.355,0,0,1,10.961,11.46ZM17.227,14.9c1.329,1.826.085,4.032-.227,4.526-.565.142-3.044.643-4.37-1.187a9.89,9.89,0,0,1-1.421-6.1c.057,0-.149-.274,2.373,3.2a.355.355,0,1,0,.576-.412l-2.167-3a14.033,14.033,0,0,0,2.259.629A7.872,7.872,0,0,1,17.227,14.9Zm-5.2-3.723c0-.06-.266.05,3.78-1.268a.355.355,0,0,0-.22-.675l-3.521,1.13a14.072,14.072,0,0,0,1.279-1.943A7.908,7.908,0,0,1,16.5,6.3c2.131-.71,3.862,1.165,4.231,1.613-.036.583-.32,3.094-2.487,3.794a9.591,9.591,0,0,1-6.22-.536Z" transform="translate(523.902 2843.195)" fill="#57853c"/><path d="M6.313,20.756A6.7,6.7,0,0,1,4.467,20.5a.772.772,0,0,1-.429-.31c-.241-.346-2.2-3.33-.285-5.975l0,0a7.9,7.9,0,0,1,.964-1.074,7.864,7.864,0,0,1-1.413-.306A4.529,4.529,0,0,1,.443,9.965,6.734,6.734,0,0,1,.02,7.815a.81.81,0,0,1,.16-.482A5.813,5.813,0,0,1,4.422,4.994a4.35,4.35,0,0,1,1.349.219l.006,0a7.983,7.983,0,0,1,1.328.594,7.947,7.947,0,0,1-.147-1.434V4.369c0-3.4,3.594-4.639,3.747-4.69a.812.812,0,0,1,.514,0c.151.05,3.745,1.287,3.745,4.672A7.93,7.93,0,0,1,14.815,5.8a7.969,7.969,0,0,1,1.323-.585,4.366,4.366,0,0,1,1.355-.22,5.818,5.818,0,0,1,4.248,2.339.81.81,0,0,1,.16.481,6.734,6.734,0,0,1-.423,2.15,4.528,4.528,0,0,1-2.862,2.861,7.933,7.933,0,0,1-1.42.3,8.027,8.027,0,0,1,.963,1.072l0,.005a4.529,4.529,0,0,1,.633,4,6.671,6.671,0,0,1-.92,1.983.774.774,0,0,1-.427.306,6.7,6.7,0,0,1-1.856.262h-.015A4.733,4.733,0,0,1,12.3,19.591a5.631,5.631,0,0,1-1.337-1.9,5.588,5.588,0,0,1-1.331,1.89,4.745,4.745,0,0,1-3.29,1.171Zm5.344-7.307a8.484,8.484,0,0,0,1.337,4.522A3.018,3.018,0,0,0,15.6,19.142a5.552,5.552,0,0,0,1.11-.117c.355-.617,1.207-2.405.154-3.86a7.451,7.451,0,0,0-2.755-2.183q-.482-.094-.959-.22l1.36,1.882a.805.805,0,0,1-.57,1.31.809.809,0,0,1-.735-.371l-.752-1.035ZM5.208,19.025a5.552,5.552,0,0,0,1.11.117,3.02,3.02,0,0,0,2.6-1.166,7.354,7.354,0,0,0,1.229-3.325q-.059-.473-.087-.95l-1.4,1.924a.805.805,0,0,1-1.3-.934l.023-.035c.632-.869,1.094-1.5,1.431-1.967l.141-.193a8.5,8.5,0,0,0-3.9,2.665C4,16.615,4.853,18.407,5.208,19.025ZM3.8,11.293a7.4,7.4,0,0,0,3.513.146q.437-.206.889-.383l-2.243-.729a.805.805,0,0,1,.5-1.53l.015,0c1.17.379,1.985.645,2.539.826A8.4,8.4,0,0,0,5.269,6.744,2.684,2.684,0,0,0,4.44,6.61a4.06,4.06,0,0,0-2.8,1.463C1.735,8.87,2.129,10.736,3.8,11.293Zm9.6-.134a10.274,10.274,0,0,0,2.763.416,6.109,6.109,0,0,0,1.943-.292l0,0c1.73-.559,2.088-2.509,2.161-3.215a4.129,4.129,0,0,0-2.8-1.473,2.6,2.6,0,0,0-.819.134,7.488,7.488,0,0,0-2.937,1.952q-.235.426-.5.838L15.462,8.8a.805.805,0,0,1,.5,1.53l-.016.006c-1.15.375-1.952.634-2.511.815ZM10.961,5.326a.806.806,0,0,1,.805.805c0,1.1,0,1.9,0,2.472q0,.108,0,.207a8.427,8.427,0,0,0,1.59-4.456c0-1.807-1.742-2.751-2.391-3.039-.731.325-2.388,1.258-2.393,3.032a7.428,7.428,0,0,0,.955,3.4q.327.35.631.722V6.131A.806.806,0,0,1,10.961,5.326Z" transform="translate(523.902 2843.195)" fill="#57853c"/></g></svg>