<svg xmlns="http://www.w3.org/2000/svg" width="543.169" height="735.814" viewBox="0 0 543.169 735.814"><g opacity="0.189"><path d="M463.819,216.132c-7.31.98-35.7,5.875-60.076,25.152-15.6,12.356-30.774,33.761-43.1,58.692,24.9-2.818,51.384-12.456,68.316-28.8C452.071,251.649,461.659,223.374,463.819,216.132ZM424.69,266.773c-13.15,12.695-32.983,21.134-52.953,25.152,10.956-19.851,23.446-36.023,35.818-45.812,16.594-13.134,35.214-19.244,46.911-21.978-4.607,11.343-13.724,29.051-29.405,42.3Z" transform="translate(47.241 -38.839)" fill="#56853c"/><path d="M205.039,241.284c-24.374-19.295-52.751-24.172-60.061-25.152,2.145,7.224,11.748,35.517,34.79,55,16.965,16.374,43.467,26.029,68.382,28.847C235.828,275.045,220.652,253.64,205.039,241.284Zm-20.95,25.489-.354-.337c-15.7-13.268-24.812-30.994-29.423-42.337,11.681,2.734,30.249,8.829,46.928,22.013,12.372,9.789,24.864,25.961,35.819,45.812C217.091,287.907,197.258,279.467,184.089,266.773Z" transform="translate(-113.166 -38.839)" fill="#56853c"/><path d="M219.46,276.72c4.154.523,22.62,3.782,34.825,20.95l10.9-7.9c-9.654-16.695-5.216-35.229-4.066-39.247a1.747,1.747,0,0,0-.237-1.5c-14.28-20.948-91.424-103.138-99.407-103.138a.719.719,0,0,0-.406.1c-5.231,3.444,42.623,107.24,57.074,129.944A1.708,1.708,0,0,0,219.46,276.72Zm-39.229-103.9,58.594,82.831a2.453,2.453,0,1,1-4,2.837c-.051-.052-55.436-85.01-55.485-85.078C178.982,172.874,179.826,172.232,180.23,172.823Z" transform="translate(-101.492 -91.088)" fill="#56853c"/><path d="M216.916,240.781l11.478-8.255c-.539-.692-1.012-1.3-1.418-1.8l-11.156,8.069C216.14,239.363,216.494,240.021,216.916,240.781Z" transform="translate(-60.477 -27.988)" fill="#56853c"/><path d="M237.91,193c4.778,0,8.44-3.189,8.44-7.765s-3.527-7.174-7.95-7.174a7.223,7.223,0,0,0-5.418,2.262c.185-4.152,2.077-7.207,5.453-7.207a7.55,7.55,0,0,1,4.928,1.991l2.143-3.088a10.28,10.28,0,0,0-6.937-2.532c-6.431,0-9.741,5.418-9.741,12.407,0,4.607,1.031,6.972,2.752,8.726A8.563,8.563,0,0,0,237.91,193Zm-.185-11.6c2.82,0,4.642,1.688,4.642,3.983,0,2.38-1.723,4.169-4.556,4.169-2.854,0-4.694-1.754-4.694-4.134C233.117,183.206,234.889,181.4,237.726,181.4Z" transform="translate(-50.801 -73.534)" fill="#56853c"/><path d="M250.134,193c4.76,0,8.44-3.189,8.44-7.765s-3.543-7.174-7.95-7.174a7.3,7.3,0,0,0-5.435,2.262c.2-4.152,2.093-7.207,5.47-7.207a7.552,7.552,0,0,1,4.928,1.991l2.143-3.088a10.325,10.325,0,0,0-6.954-2.532c-6.431,0-9.739,5.418-9.739,12.407,0,4.607,1.046,6.972,2.767,8.726A8.509,8.509,0,0,0,250.134,193Zm-.2-11.6c2.837,0,4.642,1.688,4.642,3.983,0,2.38-1.721,4.169-4.541,4.169-2.853,0-4.71-1.754-4.71-4.134C245.323,183.206,247.112,181.4,249.932,181.4Z" transform="translate(-41.721 -73.534)" fill="#56853c"/><path d="M328.147,184.607a6.7,6.7,0,0,0,5.334-2.4c-.134,4.185-2.143,7.139-5.486,7.139a7.543,7.543,0,0,1-5.2-2.143l-2.176,3.055A10.822,10.822,0,0,0,327.894,193c6.092,0,9.739-5.064,9.739-12.407,0-4.523-1.08-7.022-2.767-8.71a8.155,8.155,0,0,0-6.3-2.4c-5.029,0-8.473,3.409-8.473,7.882C320.1,181.789,323.32,184.607,328.147,184.607Zm.457-11.682c2.886,0,4.743,1.807,4.743,4.222,0,2.244-1.721,4.119-4.609,4.119-2.837,0-4.642-1.69-4.642-4.086A4.175,4.175,0,0,1,328.6,172.925Z" transform="translate(17.081 -73.534)" fill="#56853c"/><path d="M348.376,189.069h-10.82l4.677-3.9c4.017-3.274,5.908-5.233,5.908-8.829,0-4.068-2.954-6.82-7.5-6.82-4.068,0-6.211,1.723-8.389,4.778l2.836,2.193c1.756-2.262,3.173-3.409,5.251-3.409a3.41,3.41,0,0,1,3.679,3.545c0,2.042-1.147,3.51-4.253,6.143l-7.835,6.653v3.139h16.442Z" transform="translate(25.885 -73.506)" fill="#56853c"/><path d="M668.466,401.12l-22.012-3.376-11.579,6.532-3.428,1.958-3.358,1.892-3.882-.624-3.9-.609-8.135-1.284h-.017l-7.783-1.233h-.016L592.32,402.47c-9.116,12.56-36.969,17.033-72.181,28.866.253-.945.523-1.89.776-2.835v-.017c.27-.945.541-1.89.828-2.835.928-3.242,1.958-6.517,3.038-9.807a299.149,299.149,0,0,1,12.71-32.108c26.115-3.325,53.511-13.554,71.236-30.57,28.477-24.172,37.524-59.571,37.9-61.072l2.5-9.994-10.281.877c-1.468.119-36.344,3.36-66.457,27.194-15.75,12.459-31.517,33.9-44.546,59.808a104.183,104.183,0,0,1-26.908-1.35c-.877-.187-1.74-.372-2.584-.576-.86-.185-1.688-.4-2.513-.64L599.9,210.289l.052.017,10.3-15.633,2.178-3.29-.522-1.89a21.935,21.935,0,0,0-21.152-16.139,23.467,23.467,0,0,0-3.037.2l-1.925.27h-.018l-6.009,9.15-6.448,9.79h.017L468.721,351.829c-.624-.539-1.231-1.113-1.822-1.7-.607-.574-1.215-1.182-1.772-1.789-15.615-16.475-17-36.7-11.765-52.159,3.022-8.965,8.422-15.244,14.431-16.813a7.645,7.645,0,0,1,5.976.574,4.724,4.724,0,0,1,.49.321c3.965,3.106,7.664,13.943,1.923,19.682a.483.483,0,0,0-.134.574c.185.338.743.119.743.119,12.424-4.508,15.682-22.838,7.8-30.941v-.017h-.016c-5.437-4.895-12.9-6.565-20.51-4.574-10.989,2.87-19.985,12.475-24.68,26.35-7.477,22.13-3.646,49.038,17.488,69.446.591.574,1.2,1.147,1.824,1.688.607.574,1.231,1.13,1.873,1.637l-43.7,66.441q.96,26.384,1.67,50.725c.018.574.033,1.838.051,2.394.22-.2,1.671-2.258,1.671-2.258l67.116-101.349c.068.033.119.051.187.084l.371-.928.017-.017.741-1.114-.759,2.2c.607.2,1.215.4,1.841.607.809.253,1.636.49,2.48.727a105.241,105.241,0,0,0,28.579,3.207c-3.68,8.457-7.055,17.269-10.044,26.3q-3.419,10.381-5.958,20.374c-.253.962-.488,1.907-.708,2.853-.237.98-.472,1.941-.692,2.9a278.453,278.453,0,0,0-49.612,24.932,218.955,218.955,0,0,0-29.777,22.383c-.71.642-1.384,1.283-2.059,1.925-.609.574-1.2,1.147-1.791,1.739q-.732.709-1.418,1.418c.017.321.017.624.035.945.017.607.033,1.2.05,1.807q.228,8.43.439,16.576l8.457-4.778,2.143-1.215,2.143-1.215,66.8-37.794,6.8-3.849,2.55-1.435,6.82-3.866,82.9-46.927h.017l7.631,1.332L514.08,461.113l-6.668,3.765-2.5,1.418-6.668,3.765v.017L434.757,506l-2.143,1.216-2.143,1.2v.016l-11.04,6.246c.051,1.89.1,3.78.152,5.655l13.657-7.714,2.143-1.215,2.145-1.215,60.347-34.115,6.5-3.664,2.466-1.383,6.5-3.681,100.185-56.617h.016l3.815.659,3.8.657-108.3,61.208-6.382,3.613-2.413,1.35-6.33,3.58-57.5,32.493-2.143,1.216-2.145,1.215L419.7,525.883q.277,11.951.507,23.21c0,.354,0,.71.016,1.064l27.229-15.968,4.253-2.5,47.535-27.871c.1.609.2,1.2.3,1.791.051.27.1.539.152.793.119.589.22,1.181.356,1.754.049.27.1.54.152.793A77.346,77.346,0,0,0,505.79,525.8c5.049,10.6,13.86,21.726,29.288,26.974-.505,1.96-.894,3.934-1.215,5.91a71.852,71.852,0,0,0-.844,14.585c-16.813-.068-32.377,3.915-46.067,11.9-.708.406-1.418.828-2.11,1.266-.691.422-1.383.877-2.075,1.334-11.176-16.981-22.181-33.676-32.6-49.476L422.6,554.444c11.682,17.708,24.139,36.614,36.748,55.74-.541.708-1.064,1.418-1.536,2.126-.523.71-1.012,1.435-1.5,2.16A125.941,125.941,0,0,0,438.355,658a91.463,91.463,0,0,0-17-5.418c-1.622-.338-3.242-.642-4.9-.9-.049-26.383-.338-57.729-1-93.06,0-.356,0-.71-.016-1.064,0-.574-.017-1.165-.035-1.756,0-.354-.017-.71-.017-1.064-.016-.574-.016-1.147-.033-1.739v-.659a3.393,3.393,0,0,1-.017-.422c-.033-1.383-.049-2.767-.084-4.169-.033-1.535-.068-3.055-.084-4.607-.1-4.761-.22-9.6-.323-14.517-.016-.929-.049-1.857-.068-2.787l-.049-2.785c-.051-1.873-.1-3.765-.152-5.655-.035-1.857-.085-3.7-.134-5.57q-.154-6.027-.323-12.189c-.033-1.418-.066-2.853-.118-4.286v-.507c-.033-1.165-.068-2.33-.117-3.51a1.071,1.071,0,0,0,0-.237c-.016-1.079-.051-2.176-.084-3.275-.05-1.638-.1-3.275-.136-4.928-.051-1.554-.1-3.107-.154-4.677-.049-1.552-.084-3.106-.132-4.659q-.531-17.52-1.182-35.819c-.051-1.4-.1-2.8-.169-4.22v-.018c-.033-1.4-.084-2.835-.136-4.255q-.581-15.268-1.214-31.01c-4.305-104.69-4.424-161.324-3.04-169.8,8.626,8.912,15.9,16.728,22.957,23.227a35.312,35.312,0,0,0,5.268,3.747c.776.422,1.739.743,2.312.288a1.79,1.79,0,0,0,.523-1.149v-.016a7.587,7.587,0,0,0-.134-2.026c-1.824-10.009-5.571-26.266-16.51-60.043-5.653-16.341-22.383-58.118-29.489-75.725a3.887,3.887,0,0,0-.591-1,4.47,4.47,0,0,0-.389-.406,3.659,3.659,0,0,0-5.756,1.3c-5.807,13.284-17.066,39.465-19.563,48.614a6.664,6.664,0,0,0,.523,4.9c6.262,11.831,9.35,17.42,8.844,26.265q.228,91.231-.589,139.533.759,42.538,1.486,82.426c.033,1.453.049,2.9.084,4.356.033,1.468.051,2.921.084,4.372q.507,27.775,1.013,54.1c.017.539.017,1.064.033,1.585.017.929.033,1.857.053,2.769,0,.237.016.473.016.71v.2c.017,1.1.051,2.194.068,3.275v.167c0,.373.016.743.016,1.132.035,1.536.068,3.09.085,4.626.1,4.692.185,9.334.286,13.943.035,1.906.068,3.8.1,5.706v.016c.051,1.941.084,3.866.117,5.791q.026,1.418.051,2.835c.035.945.05,1.908.068,2.853.119,5.739.22,11.411.354,17.031.018,1.435.051,2.853.084,4.288v.018c0,.826.019,1.653.052,2.481,0,.371,0,.725.016,1.1,0,.237,0,.49.017.725,0,.356,0,.71.017,1.064,0,.356.016.71.016,1.081.017.607.035,1.2.052,1.807,0,.354,0,.725.016,1.079.71,33.946,1.4,65.377,2.077,93.973-1.638.218-3.275.506-4.895.827a91.239,91.239,0,0,0-18.433,5.673,125.025,125.025,0,0,0-18.958-44.953c-.49-.725-1-1.435-1.517-2.145s-1.031-1.4-1.554-2.092l36.579-55.215-26.35-15.446-32.647,49.628c-.675-.455-1.367-.91-2.059-1.332-.692-.44-1.4-.861-2.11-1.266-13.69-7.969-29.253-11.952-46.049-11.884a71.88,71.88,0,0,0-.844-14.585c-.321-1.976-.725-3.95-1.215-5.91,15.429-5.249,24.24-16.357,29.271-26.974a76.854,76.854,0,0,0,5.6-17.014c.066-.255.117-.525.169-.793.119-.576.235-1.165.354-1.756.051-.27.084-.523.134-.794.1-.591.2-1.182.3-1.789l47.535,27.869,2.127,1.249,2.128,1.25,25.253,14.8c-.017-.354-.017-.708-.017-1.079q-.254-11.723-.49-23.717l-13.251-7.495-2.145-1.215L356.1,514.1l-57.511-32.5-6.312-3.562-2.4-1.365-6.414-3.613-107.9-60.988,3.8-.659,3.833-.657,99.761,56.4,6.55,3.679,2.448,1.4,6.466,3.646,60.38,34.131,2.145,1.2,2.143,1.214,10.433,5.91c-.035-1.925-.068-3.866-.1-5.807l-7.58-4.288-2.143-1.215-2.141-1.215-63.5-35.939-6.635-3.747v-.016l-2.5-1.4-6.686-3.781L191.16,409.375l7.629-1.317,82.494,46.674,6.853,3.883,2.534,1.433,6.818,3.849v.018l66.777,37.779,2.145,1.215,2.143,1.215,4.745,2.684c-.068-3.191-.119-6.4-.187-9.622-.035-1.451-.05-2.886-.084-4.338s-.05-2.9-.084-4.354c0,0,.049-.422-.019-.507-.016-1.013-.033-2.025-.049-3.055-1.487-1.367-3.039-2.734-4.677-4.136a235.814,235.814,0,0,0-25.387-18.5,278.948,278.948,0,0,0-49.88-25.034c-.22-.963-.439-1.941-.677-2.9-.22-.945-.455-1.89-.692-2.835a301.926,301.926,0,0,0-15.934-46.59c11.833.152,22.822-1.266,31.838-4.22.218-.068.623-.22.943-.321.152-.05.27-.1.371-.136.338-.134.677-.27,1.013-.422v-.016c.758-.305,1.519-.626,2.262-.947,15.985,28.209,34.049,59.469,43.873,74.393,2.414,3.679,8.036,12.2,15.985,24.273.286.422.556.862.844,1.284,0-.187,0-.371-.016-.558-.356-19.159-.727-38.621-1.083-58.237-10.717-14.855-25.59-34.52-39.617-52.784.658-.49,1.316-1,1.941-1.519.642-.507,1.284-1.048,1.908-1.6,24.273-20.713,28.948-49.342,21.066-72.67-4.71-13.875-13.708-23.48-24.679-26.35-7.613-1.991-15.106-.321-20.526,4.574-7.884,8.1-4.624,26.451,7.8,30.959,0,0,.558.22.727-.119a.465.465,0,0,0-.119-.574c-5.774-5.756-2.042-16.609,1.924-19.682.136-.1.288-.2.422-.288a7.66,7.66,0,0,1,6.044-.607c6.009,1.569,11.411,7.849,14.433,16.813,5.671,16.779,3.561,39.161-16.071,56.278-.608.556-1.231,1.079-1.89,1.6-.626.507-1.283,1.013-1.941,1.521-10.433-13.521-19.682-25.4-25.407-32.7l-12.1,8.71c4.389,7.9,11.277,20.273,19.192,34.35-.387.187-.776.356-1.182.507-.369.134-.741.253-1.112.372-.793.253-1.622.506-2.448.708-8.879,2.448-19.816,3.242-31.4,2.448-12.728-25.253-28.375-46.911-44.68-59.808-30.115-23.834-64.99-27.075-66.458-27.194l-10.264-.877,2.483,9.994c.371,1.5,9.435,36.9,37.9,61.072,17.743,17.016,45.137,27.245,71.235,30.57a295.61,295.61,0,0,1,12.712,32.108q1.619,4.886,3,9.706c.286.945.556,1.89.827,2.818v.017c.27.963.523,1.89.776,2.835C241.091,419.47,213.407,415,204.31,402.47l-12.02,1.908-7.763,1.25h-.019l-8.119,1.283-3.916.624-3.866.607-3.409-1.908-3.426-1.958-11.58-6.532-22.029,3.376a1.687,1.687,0,0,0-.589,3.123l10.3,6.044L140,411.535l143.3,84.013c-.068.624-.134,1.249-.22,1.875-.016.27-.051.523-.084.793-.085.624-.169,1.249-.253,1.855-.035.255-.068.525-.119.778a67.374,67.374,0,0,1-5.4,18.636c-4.644,9.789-11.547,16.255-20.864,19.412-8.238-17.943-23.513-34.588-43.94-47.45l-3.257,5.2c19.023,11.969,33.287,27.313,41.155,43.788-.828.152-1.672.27-2.532.371-7.716-15.783-21.558-30.5-39.923-42.065l.338-.574-.354.556c-25.895-15.53-55.79-15.462-63.285-15.158,3.275,6.752,17.286,33.17,43.179,48.717a107.225,107.225,0,0,0,33.93,12.711c.033,0,.051.017.085.017a93.214,93.214,0,0,0,16.592,2.211h.169a1.938,1.938,0,0,0,.3.016,1.11,1.11,0,0,0,.237.017,1.383,1.383,0,0,0,.27.018.5.5,0,0,0,.152.016c1.536.035,3.022.017,4.49-.05a50.638,50.638,0,0,0,6.347-.624c.827-.1,1.62-.253,2.413-.422a.062.062,0,0,0,.051-.017,41.413,41.413,0,0,0,5.941-1.62c10.668-3.712,18.721-11.207,24.053-22.434a71.608,71.608,0,0,0,5.538-17.926c.05-.255.1-.525.134-.778q.178-.91.3-1.822c.052-.27.085-.523.118-.793.1-.609.169-1.215.237-1.84l2.263,1.317c-.068.625-.153,1.231-.255,1.84-.033.27-.084.523-.118.793-.1.607-.2,1.2-.3,1.807-.051.253-.1.523-.136.776A72.172,72.172,0,0,1,285,523.165c-5.572,11.749-14.179,19.649-25.508,23.6a49.543,49.543,0,0,1-5.908,1.655c-.22.05-.438.085-.658.134-.591.119-1.182.22-1.772.321a61.72,61.72,0,0,1-6.279.71c-1.352.084-2.719.119-4.121.119-.758,0-1.519-.017-2.295-.035h-.068a95.231,95.231,0,0,1-17.268-2.262l.017-.033v-.017a109.263,109.263,0,0,1-34.656-12.981c-30.434-18.249-44.8-51.131-44.935-51.452l-.675-1.569,1.688-.152c.354-.017,36.141-2.819,66.558,15.429l3.174-5.268c-32.122-19.26-68.7-16.407-70.237-16.273l-10.18.861,4.018,9.385c.608,1.419,15.31,35.044,47.416,54.3a114.878,114.878,0,0,0,36.5,13.741v.017c.286.066.556.119.844.169a.332.332,0,0,0,.119.033,102.8,102.8,0,0,0,16.813,2.211h.051c3.6.253,6.734.338,9.249.338h.035q.633,2.43,1.013,4.862a56.4,56.4,0,0,1,.523,13.368,131.409,131.409,0,0,0-22.114,5.116,2.037,2.037,0,0,0-.3.084,116.773,116.773,0,0,0-37.271,18.77C159.1,621.222,148.436,656.334,148,657.818l-2.9,9.791,10.212-.338c1.536-.051,38.2-1.468,67.86-24.357a107.211,107.211,0,0,0,17.875-17.589c.457-.558.928-1.114,1.369-1.688.658-.844,1.315-1.705,1.939-2.549a105.14,105.14,0,0,0,10.5-16.594c.019-.033.035-.051.05-.084a82.049,82.049,0,0,0,6.2-16.442c.422-.017.861-.033,1.283-.033,14.281-.27,27.346,2.919,38.891,9.537.727.406,1.419.811,2.129,1.25.692.438,1.383.877,2.058,1.332l-124.2,188.84a1.355,1.355,0,0,0,1.114,2.094,1.293,1.293,0,0,0,.338-.05l10.77-2.7a1.264,1.264,0,0,0,.793-.574c21.016-32.124,41.575-42.319,50-45.307a13.652,13.652,0,0,0,6.736-5.3L327.282,621.9c.507.725,1,1.468,1.468,2.211.49.743.98,1.5,1.435,2.279a114.444,114.444,0,0,1,14.281,38.74c-12.88,8.187-24.224,19.717-33.559,34.2a3.048,3.048,0,0,0-.2.305,105.731,105.731,0,0,0-10.213,18.888c0,.033-.017.05-.033.085-.035.084-.068.15-.1.235-14.2,34.656-5.857,70.391-5.486,71.894l2.379,9.926,8.679-5.4c1.315-.811,32.324-20.409,46.52-55.065A103.249,103.249,0,0,0,356.7,727.45a110.75,110.75,0,0,0,2.82-14.2c.049-.27.084-.541.117-.828a154.516,154.516,0,0,0,.76-39.414,78.864,78.864,0,0,1,16.39-5.706c1.672-.371,3.31-.692,4.9-.945.725,29.117,1.434,55.046,2.161,77.413.235,27.042-1.249,60.313-4.305,76.281-3.038,15.987-8.086,29.9-4.726,30.216.422.035.962-.286,1.636-.928a12.987,12.987,0,0,0,1-1.1l.018-.016c.235-.3.49-.609.741-.963a70.184,70.184,0,0,0,5.031-8.187c.507-.928,1.03-1.923,1.57-2.954.356-.692.727-1.4,1.083-2.127s.724-1.468,1.1-2.244c.187-.371.371-.76.558-1.147.37-.794.76-1.587,1.13-2.4q.1-.2.2-.455c.218-.49.488-1.1.811-1.806.167-.371.354-.776.539-1.215.084-.22.187-.44.286-.677.119-.286.255-.59.389-.91.27-.624.558-1.3.844-2.009l.455-1.114c.373-.912.76-1.874,1.166-2.9.4-1.046.827-2.127,1.266-3.275.152-.389.3-.776.438-1.165.457-1.2.912-2.431,1.369-3.73.168-.439.319-.879.471-1.318.321-.893.642-1.8.962-2.75q.735-2.1,1.47-4.356c1.484-4.523,3-9.5,4.506-14.853.658-2.382,1.317-4.846,1.958-7.378a310.809,310.809,0,0,0,8.271-47.366q2-21.446,2.312-44.463.052-9.218.068-19.785c1.6.288,3.242.642,4.9,1.064a78,78,0,0,1,14.583,5.268,155.042,155.042,0,0,0,.677,38.79c.05.49.117.98.2,1.453a108.163,108.163,0,0,0,7.055,26.939c14.214,34.656,45.223,54.254,46.539,55.065l8.659,5.4,2.4-9.926c.37-1.5,8.71-37.238-5.486-71.894-.035-.085-.068-.152-.1-.235-.017-.035-.033-.052-.033-.085a107.434,107.434,0,0,0-10.178-18.838c-.017-.017-.017-.035-.033-.05-9.387-14.636-20.814-26.249-33.761-34.487a114.516,114.516,0,0,1,13.335-37.154c.457-.793.929-1.569,1.4-2.345.474-.76.947-1.521,1.453-2.263,37.726,57.242,75.573,114.635,97.011,147.146h-.016l3.376,5.132,6.429,9.791,6.028,9.148,1.941.27a22.758,22.758,0,0,0,3.039.2,21.947,21.947,0,0,0,21.15-16.137l.506-1.89h.017l-2.178-3.292-7.561-11.462.033-.017C576.1,729.307,533,663.93,490.886,600.054c.675-.455,1.367-.894,2.059-1.332.692-.422,1.4-.844,2.11-1.25a74.33,74.33,0,0,1,38.893-9.537,133.31,133.31,0,0,0,7.645,16.778,4.923,4.923,0,0,1,.239.439,107.608,107.608,0,0,0,12.1,18.484.888.888,0,0,1,.1.134c.422.523.844,1.03,1.266,1.554a108.55,108.55,0,0,0,17.875,17.589c29.66,22.889,66.307,24.306,67.86,24.357l10.2.338-2.9-9.791c-.439-1.484-11.108-36.6-40.748-59.469a115.805,115.805,0,0,0-35.871-18.315c-.406-.134-.811-.268-1.217-.387a131.172,131.172,0,0,0-22.6-5.268,56.313,56.313,0,0,1,.521-13.368q.382-2.433,1.015-4.862h.033c2.514,0,5.655-.085,9.251-.338h.016a96.872,96.872,0,0,0,15.868-2.026l.758-.152c.389-.066.776-.152,1.167-.235a114.646,114.646,0,0,0,36.5-13.758c32.124-19.26,46.808-52.885,47.417-54.3l4.033-9.385-10.178-.861c-1.552-.134-38.115-2.987-70.239,16.273-20.407,12.864-35.821,29.592-44.076,47.535-9.3-3.156-16.2-9.622-20.847-19.412a68.011,68.011,0,0,1-5.385-18.466c-.033-.255-.084-.508-.117-.778-.085-.607-.171-1.231-.255-1.857-.033-.268-.068-.523-.1-.793-.068-.624-.136-1.231-.2-1.873L656.65,411.535l2.126-1.248,10.3-6.044A1.69,1.69,0,0,0,668.466,401.12Zm-204.486-42.1c-.626-.54-1.25-1.1-1.84-1.655v-.017c-.626-.556-1.217-1.147-1.806-1.721A63.782,63.782,0,0,1,447.368,337.2a59.188,59.188,0,0,1-2.16-43.77c3.966-11.717,11.6-20.088,20.407-22.385,5.387-1.4,10.618-.371,14.451,2.888a1.4,1.4,0,0,1,.321.253.251.251,0,0,1,.066.084c4.8,4.591,5.42,13.117,1.773,19.126-.2.338-.507.085-.4-.22,2.262-5.959,1.215-13.15-3-17.1l-.068-.068a5.348,5.348,0,0,0-.473-.387,13.4,13.4,0,0,0-12.035-2.2c-8.018,2.094-15.007,9.859-18.7,20.8-8.035,23.735-.338,44.21,14.332,59.065.589.609,1.18,1.2,1.788,1.756.608.591,1.217,1.147,1.84,1.688Zm50.691,69.006q-.405,1.418-.76,2.836c-.253.962-.505,1.925-.743,2.886-.877.305-1.739.626-2.616.945.235-.961.473-1.924.743-2.886v-.017c.22-.945.471-1.873.741-2.818a303.7,303.7,0,0,1,18.62-50.557c-12.644,1.046-24.73.354-34.823-2.11-.863-.2-1.688-.438-2.516-.658-.844-.237-1.655-.49-2.448-.76l1.418-2.127c.8.255,1.6.507,2.448.725.828.22,1.672.44,2.532.642,10.061,2.347,22.08,2.921,34.605,1.756,12.592-25.895,28.223-48.159,44.326-60.9,28.68-22.686,62.83-25.86,63.166-25.878l1.723-.152-.422,1.672c-.084.337-8.981,35.093-36.073,58C587,365.6,559.234,375.5,533.373,378.163A300.459,300.459,0,0,0,514.671,428.028ZM328.566,358.666c.642-.506,1.266-1.029,1.888-1.6,17.22-15.056,27.077-37.034,18.35-62.845-3.7-10.937-10.686-18.7-18.7-20.8a13.422,13.422,0,0,0-12.051,2.2c-.152.119-.3.253-.455.387a.255.255,0,0,0-.068.068c-4.22,3.95-5.266,11.141-3,17.1.1.305-.2.558-.406.22-3.662-6.009-3.022-14.55,1.756-19.141.016-.017.051-.035.068-.068a3.506,3.506,0,0,1,.321-.253c3.831-3.242,9.064-4.288,14.465-2.888,8.813,2.3,16.442,10.668,20.409,22.385a59.28,59.28,0,0,1-2.159,43.77,64.691,64.691,0,0,1-16.848,22.029c-.624.539-1.266,1.079-1.908,1.6-.624.507-1.266,1.013-1.923,1.5-.556-.71-1.114-1.418-1.639-2.127C327.3,359.713,327.941,359.207,328.566,358.666Zm-65.614,19.5c-25.86-2.668-53.63-12.576-71.25-29.592-27.06-22.856-35.939-57.612-36.04-57.949l-.406-1.672,1.705.152c.356.018,34.486,3.191,63.184,25.878,16.1,12.745,31.735,35.01,44.311,60.9,14.28,1.334,27.886.389,38.689-2.836.811-.253,1.62-.507,2.4-.778v.017c.017,0,.035-.017.052-.017.741-.3,1.486-.624,2.209-.943.406.708.813,1.433,1.217,2.159-.743.321-1.5.642-2.263.963l-.251.1c-.017,0-.017,0-.035.017-.017,0-.05.017-.068.017-.642.22-1.367.473-2.024.657-10.787,3.31-24.392,4.356-38.708,3.158a304,304,0,0,1,18.62,50.454c.255.945.506,1.89.743,2.836.253.962.49,1.925.743,2.887-.877-.321-1.756-.624-2.633-.929-.22-.962-.473-1.923-.727-2.886-.251-.945-.505-1.89-.776-2.835A298.372,298.372,0,0,0,262.951,378.163ZM239.757,541.176a.455.455,0,0,1-.152-.017,3.437,3.437,0,0,1-.4-.016h-.05a126.132,126.132,0,0,1-14.247-1.756,2.886,2.886,0,0,1-.49-.1c-.473-.085-.947-.185-1.435-.288v.017a101.11,101.11,0,0,1-32.073-12c-17.706-10.633-29.572-26.737-35.92-37.2,12.17.692,31.92,3.561,49.577,14.112.05.033.084.05.134.084,16.442,10.383,29,23.346,36.378,37.188C240.634,541.193,240.2,541.193,239.757,541.176Zm13.692,13.64c.64-.119,1.282-.253,1.906-.389q.659,2.608,1.064,5.216a64.665,64.665,0,0,1,.725,13.842c-.828.051-1.653.1-2.481.187a61.51,61.51,0,0,0-.675-13.64c-.22-1.35-.473-2.717-.811-4.068q-.1-.531-.253-1.064A5.228,5.228,0,0,0,253.449,554.816ZM333.9,620.767c-.471-.76-.978-1.5-1.466-2.229-.507-.725-1-1.451-1.521-2.143a88.505,88.505,0,0,0-13.031-14.5,81.764,81.764,0,0,0-9.048-6.97c-.675-.457-1.365-.9-2.058-1.334s-1.4-.862-2.129-1.266a79.73,79.73,0,0,0-40.208-10.6c-.659,0-1.334,0-2.026.017-1.451.018-2.936.084-4.438.185-.626.035-1.25.068-1.875.136-.844.051-1.688.136-2.549.237-2.11.218-4.288.506-6.5.893a128.532,128.532,0,0,0-20.679,5.336c-.659.2-1.3.438-1.958.675-.844.286-1.739.574-2.6.894v.016a103.937,103.937,0,0,0-27.8,15.042c-23.9,18.449-34.739,46.32-37.205,53.408,7.495-.574,37.188-4,61.107-22.449a98.5,98.5,0,0,0,16.475-16.29l.017.016a100.536,100.536,0,0,0,12.879-19.513c.134-.237.253-.473.372-.725a77.072,77.072,0,0,0,4.286-10.888c.305-.05.608-.084.912-.118.593-.066,1.165-.134,1.739-.2a77.189,77.189,0,0,1-4.556,11.952,3.863,3.863,0,0,0-.187.387,103.1,103.1,0,0,1-13.537,20.679l-.017-.017h-.018a101.069,101.069,0,0,1-16.862,16.662c-28.106,21.691-63.942,23.075-64.315,23.093l-1.7.049.488-1.635c.1-.338,10.534-34.673,38.623-56.347a105.918,105.918,0,0,1,28.444-15.378v.016c.3-.119.607-.236.912-.337.486-.187,1-.372,1.5-.541a3.086,3.086,0,0,1,.372-.134,129.621,129.621,0,0,1,23.834-6.112c2.145-.336,4.288-.607,6.4-.809.844-.085,1.688-.152,2.532-.22,2.11-.136,4.2-.237,6.264-.237.792-.017,1.57-.017,2.345,0A83.352,83.352,0,0,1,306,590.3c.71.4,1.418.827,2.11,1.266.692.422,1.384.862,2.059,1.317a81.76,81.76,0,0,1,9.336,7.174,91.21,91.21,0,0,1,12.862,14.163c.523.71,1.029,1.417,1.519,2.145.523.725,1.013,1.451,1.486,2.194a120.361,120.361,0,0,1,16.9,41.863l-2.211,1.384A118.688,118.688,0,0,0,333.9,620.767Zm-88.956-30.553a71.164,71.164,0,0,1-2.954,6.972c-.019.033-.035.066-.052.1-5.655,10.567-14.635,23.8-27.785,33.964-16.339,12.609-35.667,17.791-47.722,19.884,5.1-11.123,14.991-28.511,31.348-41.12a97.582,97.582,0,0,1,26.2-14.163l.016.051c1.35-.507,2.7-1,4.033-1.453.136-.051.255-.084.371-.117A125.408,125.408,0,0,1,244.942,590.214Zm131.7,70.846a81.7,81.7,0,0,0-17.047,5.655c-.609.27-1.217.556-1.808.861-1.332.624-2.65,1.317-3.95,2.042-.556.3-1.114.607-1.671.945-.219.119-.422.237-.626.371-1.939,1.132-3.849,2.363-5.7,3.679a105.033,105.033,0,0,0-28.089,29.981,97.7,97.7,0,0,0-9.4,17.42c-.017.033-.033.084-.052.119-5.908,14.449-7.545,29.337-7.545,41.355a127.376,127.376,0,0,0,2.11,23.482c6.2-4.255,30.183-22.1,41.645-50.05a93.5,93.5,0,0,0,3.849-11.53,104.274,104.274,0,0,0,2.329-11.242c.084-.473.152-.945.22-1.435a147.932,147.932,0,0,0,1.35-35.2c.321-.2.659-.4.978-.607.457-.27.9-.54,1.351-.811a149.923,149.923,0,0,1-1.248,36.985c-.068.49-.134,1-.237,1.5q-.91,5.5-2.246,10.973c-.031.134-.066.286-.1.422a96.347,96.347,0,0,1-3.967,11.884c-13.471,32.832-43.788,51.99-44.091,52.177l-1.453.91-.4-1.653c-.085-.356-8.238-35.3,5.216-68.129,0-.017.017-.017.017-.033l2.227,1-2.227-1.013c.033-.068.049-.119.084-.187a145.224,145.224,0,0,1,8.541-16.1c.2-.321.406-.642.624-.978,8.441-13.387,18.637-24.156,30.183-31.989.018.119.035.237.051.338,2.787-2.077,4.523-3.174,4.591-3.224l1.03-.642.236-.152a.456.456,0,0,1,.169-.1c.626-.354,1.248-.708,1.873-1.046,1.232-.659,2.483-1.3,3.749-1.89.657-.321,1.315-.624,1.991-.929a84.42,84.42,0,0,1,17.387-5.638c1.62-.354,3.24-.642,4.895-.894.017.827.033,1.637.068,2.464C379.881,660.4,378.261,660.688,376.64,661.06Zm-31.8,50.691c-.052.472-.136.928-.2,1.385-.607,3.6-1.35,7.207-2.244,10.787a87.834,87.834,0,0,1-3.58,10.668c-7.831,19.108-21.959,33.271-31.328,41.12-.339-3.51-.591-7.681-.591-12.288,0-11.293,1.519-25.236,7-38.757.033-.085.068-.152.1-.237a141.37,141.37,0,0,1,7.85-14.922.361.361,0,0,0,.051-.085,119.939,119.939,0,0,1,23.447-26.113A123.96,123.96,0,0,1,344.838,711.751Zm135.986-8.22c.085.134.171.253.255.387a142.014,142.014,0,0,1,9.132,17.051c.016.05.051.1.068.152v.017c0,.016.016.016.016.033,13.453,32.831,5.283,67.773,5.2,68.129l-.389,1.653-1.451-.91c-.3-.187-30.638-19.345-44.091-52.177a92.825,92.825,0,0,1-3.95-11.884h-.019c-.033-.136-.066-.288-.1-.422q-1.292-5.218-2.178-10.466c-.033-.169-.052-.338-.085-.507a151.114,151.114,0,0,1-1.484-38.5c.455.27.91.541,1.365.828.323.185.642.387.964.607a148.558,148.558,0,0,0,1.653,37.086v.035c.44,2.785,1,5.638,1.705,8.506.136.54.253,1.064.387,1.6.052.22.1.422.152.642h.019a93.2,93.2,0,0,0,3.847,11.53c11.446,27.952,35.449,45.795,41.627,50.05,1.435-7.376,6.011-36.884-5.435-64.821v-.016c-.016-.035-.035-.085-.051-.119a97.043,97.043,0,0,0-9.317-17.3.86.86,0,0,1-.085-.136c-.607-.945-1.233-1.89-1.873-2.818-.22-.356-.457-.694-.71-1.031-.422-.624-.861-1.249-1.317-1.857q-.986-1.392-2.026-2.734c-.3-.4-.607-.811-.928-1.2q-2.812-3.57-5.842-6.82c-.541-.591-1.1-1.182-1.671-1.756v-.018l-.1-.1a.541.541,0,0,0-.134-.118c-.356-.4-.76-.794-1.166-1.181-.422-.422-.844-.844-1.282-1.233-.558-.556-1.114-1.079-1.688-1.587q-1.039-.963-2.128-1.873c-.354-.321-.727-.642-1.114-.947-1.35-1.147-2.734-2.227-4.152-3.257-.642-.488-1.284-.962-1.943-1.4q-2.809-1.975-5.721-3.7c-.2-.119-.406-.253-.609-.356-.556-.336-1.114-.657-1.688-.961-1.3-.727-2.6-1.4-3.932-2.026-.591-.3-1.2-.591-1.806-.862a81.27,81.27,0,0,0-15.379-5.3c-1.62-.389-3.257-.725-4.894-1v-2.534c1.637.288,3.275.609,4.894,1a83.852,83.852,0,0,1,15.8,5.284l1.976.91v.017c1.266.591,2.5,1.215,3.73,1.875.776.422,1.519.844,2.279,1.282,0,.018-.018.035,0,.051l1.046.642c.068.051,1.807,1.147,4.591,3.224l.051-.354C462.291,679.627,472.419,690.28,480.824,703.531Zm-29.117,9.57c-.068-.438-.152-.877-.2-1.332A124.356,124.356,0,0,1,451,683.291a118.985,118.985,0,0,1,23.448,26.13,1.441,1.441,0,0,1,.1.169,142.609,142.609,0,0,1,7.8,14.838c.033.085.068.152.1.237,7.716,19.04,7.58,38.926,6.417,51.045-9.371-7.849-23.516-22.011-31.348-41.12a87.512,87.512,0,0,1-3.578-10.668h.016Q452.612,718.529,451.707,713.1Zm97.044-132.375a128.709,128.709,0,0,1,23.851,6.112c.2.066.406.134.609.218.726.253,1.453.523,2.178.793v-.016a106.606,106.606,0,0,1,28.427,15.378c28.106,21.673,38.537,56.008,38.638,56.347l.473,1.635-1.688-.049c-.371-.017-36.209-1.4-64.314-23.093a100.573,100.573,0,0,1-16.864-16.677,127.687,127.687,0,0,1-13.572-20.646c-.05-.117-.119-.218-.167-.337v-.017c0-.016-.019-.016-.019-.033-2.464-4.693-4.3-8.846-5.6-12.035.336.016.675.051,1.029.084.574.068,1.165.136,1.756.2,1.266,3.039,2.97,6.82,5.183,11.007a.508.508,0,0,1,.084.169,127.949,127.949,0,0,0,13.185,20.069,99.82,99.82,0,0,0,16.491,16.275c23.919,18.449,53.612,21.875,61.107,22.449-2.464-7.088-13.3-34.959-37.2-53.408a103.991,103.991,0,0,0-27.8-15.042c-1-.37-1.993-.725-2.973-1.046-.253-.084-.49-.167-.741-.253-.457-.169-.9-.321-1.351-.472l-1.215-.4q-6.23-2.051-12.02-3.36c-.708-.167-1.418-.321-2.11-.472-1.637-.354-3.24-.657-4.827-.912-2.211-.387-4.389-.675-6.5-.893-.861-.1-1.705-.187-2.549-.237-.624-.068-1.249-.1-1.873-.136-1.5-.1-2.989-.167-4.44-.185-.692-.017-1.367-.017-2.024-.017a79.643,79.643,0,0,0-40.227,10.618c-.727.406-1.418.828-2.11,1.25-.692.438-1.384.877-2.059,1.334a81.723,81.723,0,0,0-9.047,6.97A89.1,89.1,0,0,0,464.4,617.846c-.507.725-1,1.453-1.486,2.2s-.98,1.5-1.437,2.262a118.869,118.869,0,0,0-15.192,39.5l-2.227-1.384a121.594,121.594,0,0,1,15.917-40.377q.735-1.14,1.47-2.228c.488-.743,1-1.468,1.5-2.178a91.432,91.432,0,0,1,13.875-15.581,81.74,81.74,0,0,1,9.334-7.174c.677-.455,1.369-.894,2.059-1.317q1.067-.659,2.129-1.266a83.336,83.336,0,0,1,40.883-10.838c.776-.017,1.554-.017,2.345,0,2.061,0,4.154.1,6.264.237.844.068,1.688.134,2.532.22Q545.535,580.221,548.751,580.726Zm2.616,9.453a123.68,123.68,0,0,1,15.532,3.8,3.818,3.818,0,0,1,.389.119c1.669.556,3.357,1.165,5.064,1.807l.016-.068a97.968,97.968,0,0,1,26.2,14.18c16.356,12.609,26.249,30,31.33,41.12-12.036-2.093-31.363-7.275-47.722-19.884a93.453,93.453,0,0,1-15.513-15.328c-.1-.136-.218-.27-.321-.389l-.033-.033c-.051-.051-.084-.119-.134-.169-.018-.033-.053-.05-.068-.084-.018-.017-.035-.035-.035-.052A120.693,120.693,0,0,1,554.408,597.3c-.035-.084-.086-.152-.119-.235a1.222,1.222,0,0,0-.068-.136C553.142,594.687,552.195,592.425,551.366,590.179Zm-8.22-34.216c-.319,1.352-.574,2.719-.794,4.068a61.525,61.525,0,0,0-.673,13.64c-.844-.085-1.672-.136-2.483-.187a64.567,64.567,0,0,1,.727-13.842q.429-2.608,1.064-5.216H541c.609.136,1.25.27,1.874.389l-.1,1.114C542.843,555.93,542.962,555.945,543.146,555.963Zm-29.574-33.845q8,16.84,24.038,22.434a41.226,41.226,0,0,0,5.958,1.62.061.061,0,0,0,.035.017c.793.169,1.585.321,2.413.439h.016a54.221,54.221,0,0,0,6.349.607c-.035.068-.068.152-.1.237,1.369-.033,2.854-.085,4.457-.187h.119a93.9,93.9,0,0,0,17.827-2.295l-.018-.033a106.747,106.747,0,0,0,33.929-12.677c25.91-15.547,39.923-41.965,43.2-48.717-7.493-.286-37.372-.372-63.285,15.158h-.016l-.017.017c-18.365,11.563-32.19,26.3-39.906,42.065-.86-.1-1.688-.22-2.513-.371,7.847-16.472,22.153-31.848,41.174-43.816,30.43-18.235,66.183-15.434,66.539-15.417l1.7.152-.675,1.569c-.134.321-14.5,33.2-44.935,51.452a109.737,109.737,0,0,1-34.656,13h-.016a135.447,135.447,0,0,1-17.251,2.295h-.053c-.776.018-1.536.035-2.295.035-1.4,0-2.785-.035-4.134-.119a61.318,61.318,0,0,1-6.265-.71c-.589-.1-1.181-.2-1.772-.321l-.016-.016c-.22-.033-.422-.068-.642-.119a48.052,48.052,0,0,1-5.925-1.671c-11.326-3.934-19.919-11.833-25.49-23.583a72.864,72.864,0,0,1-5.519-17.5c-.051-.253-.084-.523-.134-.778-.119-.607-.22-1.215-.323-1.822-.031-.253-.066-.523-.117-.776-.085-.609-.169-1.215-.253-1.841l2.262-1.317c.068.626.152,1.215.253,1.824v.016c.017.272.068.525.1.778v.016c.1.609.2,1.216.321,1.807a5.586,5.586,0,0,0,.136.778A70.357,70.357,0,0,0,513.572,522.118Zm41.68,19.075c7.393-13.859,19.95-26.823,36.392-37.188,17.69-10.618,37.491-13.5,49.713-14.2-6.347,10.466-18.214,26.57-35.922,37.2-17.438,10.451-36.9,13.4-49.155,14.146a4.485,4.485,0,0,1-.474.017C555.621,541.193,555.436,541.193,555.252,541.193Z" transform="translate(-126.735 -114.459)" fill="#56853c"/></g></svg>