<svg xmlns="http://www.w3.org/2000/svg" xmlns:xlink="http://www.w3.org/1999/xlink" width="1056" height="873" viewBox="0 0 1056 873"><defs><clipPath id="a"><rect width="1056" height="873" transform="translate(-580 1445.62)" fill="#bf9743" stroke="#707070" stroke-width="1"/></clipPath></defs><g transform="translate(580 -1445.62)" clip-path="url(#a)"><g transform="translate(-346.178 707.631)" opacity="0.997"><path d="M490.615,909.969c66.172-34.1,272.257-108.938,332.683-129.648,8.985-4.21,20.242-57.754,11.155-54.347-56.216,19.474-251.312,86.559-324.3,126.243C502.441,857.092,483.668,914.846,490.615,909.969Z" transform="translate(54.21 223.565)" fill="#bf9743"/><path d="M391.144,426.761C457.314,392.657,614.671,323.1,675.1,302.389c8.984-4.21,20.242-57.752,11.155-54.345-56.217,19.472-202.584,81.282-275.57,120.966C402.967,373.885,384.2,431.638,391.144,426.761Z" transform="translate(-4.231 -57.227)" fill="#bf9743"/><path d="M248.015,395.284c-3.969,6.817-8.89,15.732-12.108,17.509-7.979,4.372-34.99-10.463-30.744-46.8,3.158-27.224,26.418-71.237,35.737-90.142,18.085-36.53,17.629-53.985,8.076-41.052-10.559,14.307-58.759,91.1-70.222,139.208-15.732,66.072,16.594,90.015,32.014,90.719,19.328.881,37.369-24.284,46.211-54.96C263.086,388.718,257.966,378.109,248.015,395.284Z" transform="translate(-130.596 -67.41)" fill="#bf9743"/><path d="M504.982,280.485c-3.259,6.542-7.276,15.081-10.146,16.918-7.117,4.521-32.987-7.576-31.241-41.434,1.284-25.367,20.154-67.465,27.637-85.508,14.531-34.868,13.062-50.985,5-38.45-8.906,13.864-48.872,87.78-56.584,132.956-10.582,62.048,20.75,82.249,35.052,81.975,17.928-.346,33.1-24.7,39.437-53.6C518.527,273.506,513.155,264,504.982,280.485Z" transform="translate(23.9 -127.788)" fill="#bf9743"/><path d="M863.425,840.331c-125.872,0-421.525,272.375-478.83,276.094-59.1,3.837-56.192-80.818,8.133-175.757,0,.527,5.539-26.953-7.961-14.348-96.583,128.63-105.535,287.128-21.684,287.128,8.5,0,18.314-2.41,29.183-6.611l68.255-38.018c104.19-68.773,250.674-192.834,373.05-192.834,26.4,0,63.327,13.154,89.566,39.461,2.792,2.807,6.86,1.575,7.4-2.361C936.47,969.923,945.109,909.47,945.52,887.3,924.887,856.574,897.229,840.331,863.425,840.331Z" transform="translate(-53.497 290.842)" fill="#bf9743"/><path d="M509.908,604.859c-72.181,0-111.22,86-111.22,153.308,0,109.142,85.488,96.219,195.914,89.834-6.242-28.979-26.686-86.407-50.988-98.175-52.793,4-89.2-3.143-89.2-19.239,0-17.612,15-29.131,32-28.517,48.041,1.738,117.492,90.307,115.787,163.22-75.664,86.486-196.136,143.954-450.85,199.559-5.177,1.132-6.247,14.434-1.251,15.513,339.23,73.67,508.127-53.363,501.109-267.873C648.237,721.8,593,604.859,509.908,604.859Z" transform="translate(-146.861 152.499)" fill="#bf9743"/><path d="M319.324,274.484a43.473,43.473,0,1,0-43.473-43.474A43.473,43.473,0,0,0,319.324,274.484Z" transform="translate(-71.077 -92.683)" fill="#bf9743"/><path d="M584.685,308.612a43.473,43.473,0,1,0,43.472,43.474A43.473,43.473,0,0,0,584.685,308.612Z" transform="translate(84.826 -21.551)" fill="#bf9743"/><path d="M427.381,231.01a43.473,43.473,0,1,0-43.474,43.474A43.472,43.472,0,0,0,427.381,231.01Z" transform="translate(-33.133 -92.683)" fill="#bf9743"/><path d="M231.193,938.642c27.305-.527,50.416-37.621,60.067-81.638,6.675-30.209-1.5-44.682-13.951-19.579-4.966,9.963-11.084,22.97-15.454,25.767-10.838,6.888-50.24-11.536-47.583-63.107,1.957-38.634,30.7-102.755,42.095-130.233,22.13-53.107,19.893-77.65,7.622-58.563-13.565,21.119-74.434,133.7-86.181,202.5C161.688,908.294,209.412,939.06,231.193,938.642Z" transform="translate(-130.597 152.499)" fill="#bf9743"/><path d="M539.175,533.933c-.027.064-.065.129-.092.191l2.211,3.905C540,535.493,539.175,533.933,539.175,533.933Zm-15.039,70.584c-46.365,13.94-77.471-3.234-82.991-23.433-3.548-13.588-3.621-72.8-3.356-134.8,19.344-13.581,38.669-34.768,47.87-71.225l-1.226-10.536c-7.782,7.295-26.386,15.339-46.4,23.214.109-43.911-.146-81.922-2.011-96.784H423.805c-19.8,20.46-42.785,52.164-48.576,63.817l1.894,58.138C255.443,461.41,199.9,530.286,183.611,568.838c-12.138,28.612-20.717,53.329-20.717,73.789,0,47.848,34.782,72.383,101.4,66.511,37.626-3.5,79.414-18.663,92.119-45.57a385.073,385.073,0,0,0,18.649-43.8c.079,47.972,43.6,101.558,120.659,93.757,32.049-3.245,71.443-29.609,71.443-29.609C563.25,680.268,530.5,644.519,524.136,604.517ZM374.27,553.682c0,36.854-161.2,60.73-161.2,21.036h-.01c0-6.325,37.718-46.179,161.776-94.113C374.818,481.62,374.27,549.676,374.27,553.682Z" transform="translate(-137.441 -31.927)" fill="#bf9743"/><path d="M747.651,378.146c-93.2-3.585-187.2,135.66-208.323,168.983a6.46,6.46,0,0,1-10.241.935c-7.869-8.55-22.008-24.873-31.811-41.679-9.2-15.77-17.831-37.672-23.283-52.732a6.507,6.507,0,0,0-12.133-.248,300.179,300.179,0,0,1-25.422,49.384c-16.591,25.578-29.569,38.731-35.456,44.033a6.433,6.433,0,0,0-1.711,7.258c4.8,11.763,18.879,44.354,33.97,60.924,18.623,20.446,70.964,83.886,216.7,66.441,131.931-15.794,213.734-57,232.054-136.383S853.5,382.218,747.651,378.146ZM695.405,566.775c-54.4,2.491-81.357.408-94.079-1.584a6.474,6.474,0,0,1-3.945-10.551C616.22,532,673.017,469.682,725.259,472.46c63.78,3.392,106.527,61.067,106.527,66.495S780.85,562.862,695.405,566.775Z" transform="translate(1.152 19.262)" fill="#bf9743"/><path d="M351.8,966.207s-42.585,6.517-95.638-5.321c-35.745-7.976-73.837-29.947-73.837-29.947s9.324,105.117,101.049,91.73c0,0-10.9,91.936,48.915,91.695,0,0-6.466-37.3-2.124-70.263C336.078,999.2,351.8,966.207,351.8,966.207Z" transform="translate(-126.025 344.076)" fill="#bf9743"/><path d="M617.665,282.215,582.179,177.375s90.668,34.136,135.582,134.285c41.85,93.314,20.923,157.87,18.236,158.7-3.8,1.165-1.873-80.352-53.36-134.363C640.531,291.825,617.665,282.215,617.665,282.215Z" transform="translate(108.895 -98.655)" fill="#bf9743"/><path d="M476.465,552.95S446.5,651.014,455.309,663.685s74.512-96.632,74.512-96.632Z" transform="translate(89.625 39)" fill="#bf9743"/><path d="M572.555,964.728s178.983,41.093,116.076,162c-38.354,73.719-123.788,31.02-178.259,36.457s-88.093,47.067-88.093,47.067,10.335-74.7,73.224-97.632c49.572-18.077,78.017-.075,78.017-.075s-8.915-28.12,10.159-47.462c13.3-13.486,40.021-9.269,40.021-9.269s-24.129,31.823,1.03,40.266,57.673-30.831,34.576-58.3C611.487,980.91,550.174,988.33,550.174,988.33Z" transform="translate(14.952 363.927)" fill="#bf9743"/><path d="M588.643,811.419c0,10.994,20.192-.971,30.707-14.534s29.434-55.242,61.939-60.978,105.162-7.649,105.162-7.649,5.736-37.284,15.3-63.1,20.077-46.844,20.077-46.844-78.712-10.676-128.106,39.2c-40.5,40.9-42.1,67.584-51.659,64.715,0,0,.694-5.8,9.276-22.357,8.184-15.788,12.986-38.3,1.515-65.063s-64.293-29.95-64.293-29.95-92.733,107.626-92.733,112.884,9.782,8.809,24.122,4.029,37.092-28.683,63.831-16.134C617.714,721.567,588.643,800.423,588.643,811.419Z" transform="translate(58.16 152.499)" fill="#bf9743"/></g></g></svg>