<svg xmlns="http://www.w3.org/2000/svg" width="722.5" height="188" viewBox="0 0 722.5 188"><g transform="translate(-365 -3625.5)"><path d="M12,1A11,11,0,0,0,1,12V176a11,11,0,0,0,11,11H710a11,11,0,0,0,11-11V12A11,11,0,0,0,710,1H12m0-1H710a12,12,0,0,1,12,12V176a12,12,0,0,1-12,12H12A12,12,0,0,1,0,176V12A12,12,0,0,1,12,0Z" transform="translate(365 3625.5)" fill="#707070"/><path d="M12,0H709a13,13,0,0,1,13,13V57a0,0,0,0,1,0,0H0a0,0,0,0,1,0,0V12A12,12,0,0,1,12,0Z" transform="translate(365 3625.5)" fill="#003d55"/><text transform="translate(397 3662.5)" fill="#fff" font-size="20" font-family="BerlingskeSerif-Regular, Berlingske Serif"><tspan x="0" y="0">Discount Entitlement</tspan></text><text transform="translate(772 3662.5)" fill="#fff" font-size="20" font-family="BerlingskeSerif-Regular, Berlingske Serif"><tspan x="0" y="0">Total</tspan></text><text transform="translate(397 3725.5)" font-size="19" font-family="Avenir-Medium, Avenir" font-weight="500"><tspan x="0" y="0">Rawdah Madrasah</tspan></text><text transform="translate(397 3785.5)" font-size="19" font-family="Avenir-Medium, Avenir" font-weight="500"><tspan x="0" y="0">BJJ sibling discount</tspan></text><text transform="translate(777.5 3725.5)" font-size="19" font-family="Avenir-Book, Avenir"><tspan x="0" y="0">10% off one set of fees</tspan><tspan y="0" xml:space="preserve" font-family="Avenir-Medium, Avenir" font-weight="500"> (£85)</tspan></text><text transform="translate(777.5 3785.5)" font-size="19" font-family="Avenir-Book, Avenir"><tspan x="0" y="0">10% off </tspan><tspan y="0" font-family="Avenir-Medium, Avenir" font-weight="500">(£2 off per session)</tspan></text><path d="M.5,130.5h-1V0h1Z" transform="translate(726.5 3683)" fill="#707070"/><path d="M722,.5H0v-1H722Z" transform="translate(365.5 3753)" fill="#707070"/></g></svg>