<svg xmlns="http://www.w3.org/2000/svg" width="23.622" height="32" viewBox="0 0 23.622 32"><path d="M365.134,216.132a5.662,5.662,0,0,0-2.613,1.094,7.654,7.654,0,0,0-1.874,2.552,5.065,5.065,0,0,0,4.487-3.646Zm-1.7,2.2a4.712,4.712,0,0,1-2.3,1.094,6.711,6.711,0,0,1,1.558-1.992,5.275,5.275,0,0,1,2.04-.956,4.81,4.81,0,0,1-1.279,1.84Z" transform="translate(-342.908 -208.422)" fill="#307b32"/><path d="M147.59,217.226a5.651,5.651,0,0,0-2.612-1.094,5.064,5.064,0,0,0,4.487,3.646A7.642,7.642,0,0,0,147.59,217.226Zm-.911,1.109-.015-.015a4.815,4.815,0,0,1-1.28-1.841,5.28,5.28,0,0,1,2.041.957,6.708,6.708,0,0,1,1.558,1.992A4.719,4.719,0,0,1,146.679,218.334Z" transform="translate(-143.595 -208.422)" fill="#307b32"/><path d="M163.231,151.572a2.271,2.271,0,0,1,1.514.911l.474-.344a2.316,2.316,0,0,1-.177-1.707.076.076,0,0,0-.01-.065c-.621-.911-3.976-4.485-4.323-4.485a.031.031,0,0,0-.018,0c-.228.15,1.854,4.664,2.482,5.651A.074.074,0,0,0,163.231,151.572Zm-1.706-4.518,2.548,3.6a.107.107,0,1,1-.174.123s-2.411-3.7-2.413-3.7C161.47,147.056,161.507,147.028,161.524,147.054Z" transform="translate(-158.1 -143.499)" fill="#307b32"/><path d="M215.867,231.158l.5-.359-.062-.078-.485.351Z" transform="translate(-209.063 -221.904)" fill="#307b32"/><path d="M229.224,170.506a.342.342,0,0,0,.367-.338.342.342,0,0,0-.581-.214c.008-.181.09-.313.237-.313a.328.328,0,0,1,.214.087l.093-.134a.447.447,0,0,0-.3-.11c-.28,0-.424.236-.424.54a.491.491,0,0,0,.12.379A.373.373,0,0,0,229.224,170.506Zm-.008-.5a.179.179,0,1,1,0,.355.184.184,0,0,1-.2-.18A.182.182,0,0,1,229.216,170Z" transform="translate(-221.087 -165.31)" fill="#307b32"/><path d="M241.433,170.506a.343.343,0,0,0,.367-.338.314.314,0,0,0-.346-.312.317.317,0,0,0-.236.1c.009-.181.091-.313.238-.313a.329.329,0,0,1,.214.087l.093-.134a.449.449,0,0,0-.3-.11c-.28,0-.424.236-.424.54a.491.491,0,0,0,.12.379A.37.37,0,0,0,241.433,170.506Zm-.009-.5a.179.179,0,1,1,0,.355.185.185,0,0,1-.2-.18A.182.182,0,0,1,241.424,170Z" transform="translate(-232.369 -165.31)" fill="#307b32"/><path d="M320.446,170.141a.291.291,0,0,0,.232-.1c-.006.182-.093.311-.239.311a.328.328,0,0,1-.226-.093l-.095.133a.47.47,0,0,0,.316.119c.265,0,.424-.22.424-.54a.5.5,0,0,0-.12-.379.355.355,0,0,0-.274-.1.344.344,0,0,0-.368.343A.314.314,0,0,0,320.446,170.141Zm.02-.508a.187.187,0,0,1,.206.184.183.183,0,0,1-.2.179.182.182,0,1,1-.006-.363Z" transform="translate(-305.432 -165.31)" fill="#307b32"/><path d="M332.649,170.371h-.471l.2-.17c.175-.142.257-.228.257-.384a.3.3,0,0,0-.326-.3.406.406,0,0,0-.365.208l.123.1c.076-.1.138-.148.228-.148a.148.148,0,0,1,.16.154c0,.089-.05.153-.185.267l-.341.289v.136h.715Z" transform="translate(-316.373 -165.345)" fill="#307b32"/><path d="M150.294,126.926l-.957-.147-.5.284-.149.085-.146.082-.169-.027-.17-.026-.354-.056h0l-.338-.054h0l-.523-.083c-.4.546-1.608.741-3.139,1.255l.034-.123h0c.012-.041.023-.082.036-.123.04-.141.085-.283.132-.426a13.01,13.01,0,0,1,.553-1.4,5.409,5.409,0,0,0,4.746-3.985l.109-.435-.447.038a5.927,5.927,0,0,0-2.89,1.183,7.909,7.909,0,0,0-1.937,2.6,4.531,4.531,0,0,1-1.17-.059l-.112-.025c-.037-.008-.073-.018-.109-.028l4.526-6.833h0l.448-.68.095-.143-.023-.082a.954.954,0,0,0-.92-.7,1.022,1.022,0,0,0-.132.009l-.084.012h0l-.261.4-.28.426h0l-4.549,6.918c-.027-.023-.054-.048-.079-.074s-.053-.051-.077-.078a2.214,2.214,0,0,1-.512-2.268,1.049,1.049,0,0,1,.628-.731.332.332,0,0,1,.26.025l.021.014a.651.651,0,0,1,.084.856.021.021,0,0,0-.006.025c.008.015.032.005.032.005a.885.885,0,0,0,.339-1.346h0a.948.948,0,0,0-.892-.2,1.65,1.65,0,0,0-1.073,1.146,2.862,2.862,0,0,0,.761,3.02c.026.025.052.05.079.073s.054.049.081.071l-1.9,2.889q.042,1.147.073,2.206c0,.025,0,.08,0,.1.01-.009.073-.1.073-.1l2.919-4.408.008,0,.016-.04h0l.032-.048-.033.1.08.026.108.032a4.577,4.577,0,0,0,1.243.139c-.16.368-.307.751-.437,1.144q-.149.451-.259.886c-.011.042-.021.083-.031.124s-.021.084-.03.126a12.109,12.109,0,0,0-2.158,1.084,9.522,9.522,0,0,0-1.295.973l-.09.084-.078.076-.062.062c0,.014,0,.027,0,.041s0,.052,0,.079q.01.367.019.721l.368-.208.093-.053.093-.053,2.9-1.644.3-.167.111-.062.3-.168,3.605-2.041h0l.332.058-3.978,2.252-.29.164-.109.062-.29.164h0l-2.761,1.562-.093.053-.093.052h0l-.48.272.007.246.594-.335.093-.053.093-.053,2.624-1.484.283-.159.107-.06.283-.16,4.357-2.462h0l.166.029.165.029-4.71,2.662-.278.157-.1.059-.275.156-2.5,1.413-.093.053-.093.053-.706.4q.012.52.022,1.009c0,.015,0,.031,0,.046l1.184-.694.185-.109,2.067-1.212.013.078.007.035c.005.026.01.051.015.076l.007.035a3.364,3.364,0,0,0,.243.733,2.174,2.174,0,0,0,1.274,1.173c-.022.085-.039.171-.053.257a3.125,3.125,0,0,0-.037.634,3.9,3.9,0,0,0-2,.518l-.092.055-.09.058-1.418-2.152-1.2.7,1.6,2.424c-.023.031-.046.062-.067.092s-.044.062-.065.094a5.476,5.476,0,0,0-.781,1.893,3.979,3.979,0,0,0-.739-.236c-.071-.015-.141-.028-.213-.039,0-1.147-.015-2.511-.043-4.047,0-.015,0-.031,0-.046s0-.051,0-.076,0-.031,0-.046,0-.05,0-.076V133.5a.147.147,0,0,1,0-.018c0-.06,0-.12,0-.181s0-.133,0-.2c0-.207-.01-.418-.014-.631,0-.04,0-.081,0-.121l0-.121-.007-.246c0-.081,0-.161-.006-.242q-.007-.262-.014-.53c0-.062,0-.124-.005-.186V131c0-.051,0-.1-.005-.153a.045.045,0,0,0,0-.01c0-.047,0-.095,0-.142,0-.071,0-.142-.006-.214l-.007-.2c0-.067,0-.135-.006-.2q-.023-.762-.051-1.558c0-.061,0-.122-.007-.184h0c0-.061,0-.123-.006-.185q-.025-.664-.053-1.349c-.187-4.553-.192-7.016-.132-7.384.375.388.692.727,1,1.01a1.538,1.538,0,0,0,.229.163c.034.018.076.032.1.013a.078.078,0,0,0,.023-.05h0a.33.33,0,0,0-.006-.088,20.518,20.518,0,0,0-.718-2.611c-.246-.711-.973-2.528-1.282-3.293a.169.169,0,0,0-.026-.043.19.19,0,0,0-.017-.018.159.159,0,0,0-.25.057c-.253.578-.742,1.716-.851,2.114a.29.29,0,0,0,.023.213,2.048,2.048,0,0,1,.385,1.142q.01,3.968-.026,6.068.033,1.85.065,3.585c0,.063,0,.126,0,.189s0,.127,0,.19q.022,1.208.044,2.353c0,.023,0,.046,0,.069,0,.04,0,.081,0,.12,0,.01,0,.021,0,.031h0v.008c0,.048,0,.1,0,.142v.007c0,.016,0,.032,0,.049,0,.067,0,.134,0,.2,0,.2.008.406.012.606l0,.248h0c0,.084,0,.168.005.252q0,.062,0,.123c0,.041,0,.083,0,.124.005.25.01.5.015.741,0,.062,0,.124,0,.186h0c0,.036,0,.072,0,.108,0,.016,0,.032,0,.048s0,.021,0,.032,0,.031,0,.046,0,.031,0,.047l0,.079c0,.015,0,.032,0,.047.031,1.476.061,2.843.09,4.087-.071.009-.142.022-.213.036a3.969,3.969,0,0,0-.8.247,5.437,5.437,0,0,0-.825-1.955c-.021-.032-.043-.062-.066-.093s-.045-.061-.068-.091l1.591-2.4-1.146-.672-1.42,2.158c-.029-.02-.059-.04-.09-.058s-.061-.037-.092-.055a3.9,3.9,0,0,0-2-.517,3.124,3.124,0,0,0-.037-.634c-.014-.086-.032-.172-.053-.257a2.168,2.168,0,0,0,1.273-1.173,3.342,3.342,0,0,0,.244-.74c0-.011.005-.023.007-.035l.015-.076c0-.012,0-.023.006-.035l.013-.078,2.067,1.212.092.054.093.054,1.1.644c0-.015,0-.031,0-.047q-.011-.51-.021-1.031l-.576-.326-.093-.053-.093-.053-2.5-1.413-.275-.155-.1-.059-.279-.157-4.692-2.652.165-.029.167-.029,4.339,2.453.285.16.106.061.281.159,2.626,1.484.093.052.093.053.454.257c0-.084,0-.168,0-.253l-.33-.186-.093-.053-.093-.053-2.762-1.563-.289-.163h0l-.109-.061-.291-.164-3.96-2.242.332-.057,3.588,2.03.3.169.11.062.3.167h0l2.9,1.643.093.053.093.053.206.117c0-.139-.005-.278-.008-.418,0-.063,0-.126,0-.189s0-.126,0-.189c0,0,0-.018,0-.022,0-.044,0-.088,0-.133-.065-.059-.132-.119-.2-.18a10.253,10.253,0,0,0-1.1-.8,12.131,12.131,0,0,0-2.169-1.089c-.01-.042-.019-.084-.029-.126s-.02-.082-.03-.123a13.126,13.126,0,0,0-.693-2.026,4.35,4.35,0,0,0,1.385-.184l.041-.014.016-.006L134.7,126h0l.1-.041c.7,1.227,1.481,2.586,1.908,3.235l.7,1.056.037.056c0-.008,0-.016,0-.024-.015-.833-.032-1.68-.047-2.533-.466-.646-1.113-1.5-1.723-2.3.029-.021.057-.043.084-.066s.056-.046.083-.07a2.874,2.874,0,0,0,.916-3.16,1.653,1.653,0,0,0-1.073-1.146.949.949,0,0,0-.893.2.886.886,0,0,0,.339,1.346s.024.01.032-.005a.02.02,0,0,0-.005-.025.649.649,0,0,1,.084-.856l.018-.013a.333.333,0,0,1,.263-.026,1.049,1.049,0,0,1,.628.731,2.232,2.232,0,0,1-.7,2.448c-.026.024-.054.047-.082.07l-.084.066c-.454-.588-.856-1.1-1.1-1.422l-.526.379c.191.344.49.882.835,1.494l-.051.022-.048.016c-.035.011-.071.022-.106.031a4.191,4.191,0,0,1-1.365.106,7.91,7.91,0,0,0-1.943-2.6,5.928,5.928,0,0,0-2.89-1.183l-.446-.038.108.435a5.409,5.409,0,0,0,4.746,3.985,12.85,12.85,0,0,1,.553,1.4q.07.212.131.422c.012.041.024.082.036.123h0c.012.042.023.082.034.123-1.525-.511-2.729-.705-3.124-1.25l-.523.083-.338.054h0l-.353.056-.17.027-.168.026-.148-.083-.149-.085-.5-.284-.958.147a.073.073,0,0,0-.026.136l.448.263.093.054,6.232,3.654c0,.027-.006.054-.01.082,0,.012,0,.023,0,.035l-.011.081c0,.011,0,.023-.005.034a2.93,2.93,0,0,1-.235.81,1.529,1.529,0,0,1-.907.844,4.979,4.979,0,0,0-1.911-2.064l-.142.226a4.746,4.746,0,0,1,1.79,1.9c-.036.007-.073.012-.11.016a4.66,4.66,0,0,0-1.736-1.829l.015-.025-.015.024a5.285,5.285,0,0,0-2.752-.659,5.3,5.3,0,0,0,1.878,2.119,4.663,4.663,0,0,0,1.476.553h0a4.052,4.052,0,0,0,.722.1h.049c.067,0,.131,0,.2,0a2.2,2.2,0,0,0,.276-.027c.036,0,.07-.011.1-.018h0a1.8,1.8,0,0,0,1.3-1.046,3.115,3.115,0,0,0,.241-.78c0-.011,0-.023.006-.034.005-.026.01-.053.013-.079s0-.023.005-.035.007-.053.01-.08l.1.057c0,.027-.007.054-.011.08s0,.023-.005.035l-.013.079c0,.011,0,.023-.006.034a3.14,3.14,0,0,1-.241.769,1.9,1.9,0,0,1-1.109,1.026,2.159,2.159,0,0,1-.257.072l-.029.006-.077.014a2.685,2.685,0,0,1-.273.031c-.059,0-.118.005-.179.005l-.1,0h0a4.141,4.141,0,0,1-.751-.1h0a4.752,4.752,0,0,1-1.507-.565,5.425,5.425,0,0,1-1.954-2.238l-.029-.068.073-.007a5.439,5.439,0,0,1,2.895.671l.138-.229a5.616,5.616,0,0,0-3.055-.708l-.443.037.175.408a5.615,5.615,0,0,0,2.062,2.362,5,5,0,0,0,1.587.6h0l.037.007h.005a4.469,4.469,0,0,0,.731.1h0c.156.011.293.015.4.015h0q.028.106.044.211a2.453,2.453,0,0,1,.023.581,5.713,5.713,0,0,0-.962.223l-.013,0a5.078,5.078,0,0,0-1.621.816,5.609,5.609,0,0,0-1.773,2.586l-.126.426.444-.015a5.614,5.614,0,0,0,2.951-1.059,4.663,4.663,0,0,0,.777-.765c.02-.024.04-.048.06-.073s.057-.074.084-.111a4.571,4.571,0,0,0,.457-.722l0,0a3.567,3.567,0,0,0,.269-.715h.056a3.225,3.225,0,0,1,1.691.415l.093.054.089.058-5.4,8.212a.059.059,0,0,0,.048.091l.015,0,.468-.117a.055.055,0,0,0,.034-.025,4.637,4.637,0,0,1,2.174-1.97.594.594,0,0,0,.293-.231l3.317-5.008c.022.032.043.064.064.1s.043.065.062.1a4.978,4.978,0,0,1,.621,1.685,4.848,4.848,0,0,0-1.459,1.487.134.134,0,0,0-.009.013,4.6,4.6,0,0,0-.444.821s0,0,0,0l0,.01a5.611,5.611,0,0,0-.239,3.127l.1.432.377-.235a5.609,5.609,0,0,0,2.023-2.395,4.491,4.491,0,0,0,.185-.554,4.813,4.813,0,0,0,.123-.617c0-.012,0-.023.005-.036a6.72,6.72,0,0,0,.033-1.714,3.428,3.428,0,0,1,.713-.248c.073-.016.144-.03.213-.041.032,1.266.062,2.394.094,3.367a21.425,21.425,0,0,1-.187,3.317c-.132.7-.352,1.3-.206,1.314.018,0,.042-.012.071-.04a.566.566,0,0,0,.043-.048h0c.01-.013.021-.026.032-.042a3.053,3.053,0,0,0,.219-.356c.022-.04.045-.084.068-.128s.032-.061.047-.093.031-.064.048-.1l.024-.05c.016-.035.033-.069.049-.1l.009-.02.035-.079.023-.053.012-.029.017-.04c.012-.027.024-.056.037-.087l.02-.048.051-.126.055-.142c.007-.017.013-.034.019-.051.02-.052.04-.106.06-.162.007-.019.014-.038.02-.057.014-.039.028-.078.042-.12q.032-.091.064-.189c.065-.2.131-.413.2-.646.029-.1.057-.211.085-.321a13.513,13.513,0,0,0,.36-2.06q.087-.933.1-1.934,0-.4,0-.86c.07.013.141.028.213.046a3.391,3.391,0,0,1,.634.229,6.743,6.743,0,0,0,.029,1.687c0,.021.005.043.009.063a4.706,4.706,0,0,0,.307,1.172,5.613,5.613,0,0,0,2.024,2.395l.377.235.1-.432a5.613,5.613,0,0,0-.239-3.127l0-.01s0,0,0,0a4.672,4.672,0,0,0-.443-.819v0a4.862,4.862,0,0,0-1.468-1.5,4.98,4.98,0,0,1,.58-1.616c.02-.035.04-.068.061-.1s.041-.066.063-.1l4.219,6.4h0l.147.223.28.426.262.4.084.012a.991.991,0,0,0,.132.009.954.954,0,0,0,.92-.7l.022-.082h0l-.095-.143-.329-.5h0l-4.651-7.055.09-.058.092-.054a3.233,3.233,0,0,1,1.691-.415,5.8,5.8,0,0,0,.332.73c0,.007.007.013.01.019a4.68,4.68,0,0,0,.526.8l0,.006.055.068a4.72,4.72,0,0,0,.777.765A5.612,5.612,0,0,0,149.1,138.5l.443.015-.126-.426a5.611,5.611,0,0,0-1.772-2.586,5.036,5.036,0,0,0-1.56-.8l-.053-.017a5.7,5.7,0,0,0-.983-.229,2.448,2.448,0,0,1,.023-.581q.017-.106.044-.211h0c.109,0,.246,0,.4-.015h0a4.212,4.212,0,0,0,.69-.088l.033-.007.051-.01a4.986,4.986,0,0,0,1.587-.6,5.609,5.609,0,0,0,2.062-2.362l.175-.408-.443-.037a5.615,5.615,0,0,0-3.055.708,5.014,5.014,0,0,0-1.917,2.067,1.529,1.529,0,0,1-.907-.844,2.958,2.958,0,0,1-.234-.8c0-.011,0-.022-.005-.034l-.011-.081,0-.035-.009-.081,6.244-3.661.092-.054.448-.263A.073.073,0,0,0,150.294,126.926ZM141.4,125.1c-.027-.023-.054-.048-.08-.072h0c-.027-.024-.053-.05-.079-.075a2.773,2.773,0,0,1-.564-.8,2.574,2.574,0,0,1-.094-1.9,1.411,1.411,0,0,1,.887-.973.685.685,0,0,1,.628.126.061.061,0,0,1,.014.011l0,0a.7.7,0,0,1,.077.832c-.009.015-.022,0-.018-.01a.7.7,0,0,0-.131-.744l0,0-.021-.017a.583.583,0,0,0-.523-.1,1.306,1.306,0,0,0-.813.9,2.411,2.411,0,0,0,.623,2.569c.026.026.051.052.078.076s.053.05.08.073Zm2.2,3q-.018.062-.033.123c-.011.042-.022.084-.032.126l-.114.041c.01-.042.021-.084.032-.126h0c.01-.041.02-.081.032-.123a13.207,13.207,0,0,1,.81-2.2,4.841,4.841,0,0,1-1.514-.092c-.038-.009-.073-.019-.109-.029s-.072-.021-.106-.033l.062-.093c.035.011.07.022.106.032l.11.028a4.809,4.809,0,0,0,1.5.076,7.808,7.808,0,0,1,1.928-2.649,5.747,5.747,0,0,1,2.747-1.125l.075-.007-.018.073a5.174,5.174,0,0,1-4.666,3.807A13.067,13.067,0,0,0,143.606,128.1Zm-8.094-3.016c.028-.022.055-.045.082-.07a2.451,2.451,0,0,0,.8-2.733,1.306,1.306,0,0,0-.813-.9.584.584,0,0,0-.524.1l-.02.017,0,0a.7.7,0,0,0-.131.744c0,.013-.009.024-.018.01a.7.7,0,0,1,.076-.832l0,0,.014-.011a.688.688,0,0,1,.629-.126,1.411,1.411,0,0,1,.888.973,2.578,2.578,0,0,1-.094,1.9,2.814,2.814,0,0,1-.733.958l-.083.07c-.027.022-.055.044-.084.065-.024-.031-.048-.062-.071-.093C135.457,125.125,135.485,125.1,135.512,125.08Zm-2.854.848a5.177,5.177,0,0,1-4.666-3.807l-.018-.073.074.007a5.748,5.748,0,0,1,2.748,1.125,7.8,7.8,0,0,1,1.927,2.649,4.568,4.568,0,0,0,1.683-.123l.1-.034h0l.1-.041.053.094-.1.042-.011,0h0c-.028.01-.059.021-.088.029a4.6,4.6,0,0,1-1.683.137,13.224,13.224,0,0,1,.81,2.194c.011.041.022.082.032.123l.032.126-.115-.04c-.01-.042-.021-.084-.032-.126s-.022-.082-.034-.123A12.975,12.975,0,0,0,132.659,125.927Zm-1.009,7.089h-.026a5.487,5.487,0,0,1-.62-.076l-.021,0-.062-.013h0a4.4,4.4,0,0,1-1.395-.522,4.815,4.815,0,0,1-1.562-1.618,4.828,4.828,0,0,1,2.156.614l.006,0a4.469,4.469,0,0,1,1.582,1.617Zm.6.593.083-.017q.029.113.046.227a2.809,2.809,0,0,1,.032.6l-.108.008a2.677,2.677,0,0,0-.029-.593c-.01-.059-.021-.118-.035-.177,0-.015-.007-.031-.011-.046Zm3.5,2.868c-.02-.033-.043-.065-.064-.1s-.043-.063-.066-.093a3.848,3.848,0,0,0-.567-.631,3.557,3.557,0,0,0-.394-.3l-.089-.058q-.045-.029-.093-.055a3.467,3.467,0,0,0-1.749-.461h-.088c-.063,0-.128,0-.193.008-.027,0-.054,0-.082.006s-.073.006-.111.01c-.092.009-.186.022-.283.039a5.588,5.588,0,0,0-.9.232c-.029.009-.057.019-.085.029s-.076.025-.113.039h0a4.52,4.52,0,0,0-1.209.654,5.3,5.3,0,0,0-1.618,2.323,5.288,5.288,0,0,0,2.657-.976,4.284,4.284,0,0,0,.717-.708h0a4.374,4.374,0,0,0,.56-.849c.006-.01.011-.021.016-.032a3.349,3.349,0,0,0,.186-.474l.04-.005.076-.009a3.358,3.358,0,0,1-.2.52.17.17,0,0,0-.008.017,4.483,4.483,0,0,1-.589.9h0a4.394,4.394,0,0,1-.733.725,5.43,5.43,0,0,1-2.8,1l-.074,0,.021-.071a5.429,5.429,0,0,1,1.68-2.45,4.607,4.607,0,0,1,1.237-.669h0l.04-.015.065-.023.016-.006a5.637,5.637,0,0,1,1.036-.266c.093-.015.187-.026.278-.035l.11-.01c.092-.006.183-.01.272-.01h.1a3.625,3.625,0,0,1,1.778.471c.031.018.062.036.092.055s.06.037.09.057a3.553,3.553,0,0,1,.406.312,3.966,3.966,0,0,1,.559.616c.023.031.045.062.066.093s.044.063.065.1a5.234,5.234,0,0,1,.735,1.821l-.1.06A5.161,5.161,0,0,0,135.744,136.478Zm-3.869-1.329a3.087,3.087,0,0,1-.128.3l0,0a4.632,4.632,0,0,1-1.208,1.477,4.81,4.81,0,0,1-2.075.865,4.817,4.817,0,0,1,1.363-1.788,4.243,4.243,0,0,1,1.139-.616v0l.175-.063.016-.005A5.46,5.46,0,0,1,131.876,135.149Zm5.727,3.081a3.553,3.553,0,0,0-.741.246c-.026.012-.053.024-.079.037-.058.027-.115.057-.172.089-.024.013-.048.026-.073.041l-.027.016c-.084.049-.167.1-.248.16a4.567,4.567,0,0,0-1.222,1.3,4.248,4.248,0,0,0-.409.758l0,.005a4.792,4.792,0,0,0-.328,1.8,5.541,5.541,0,0,0,.092,1.021,5.292,5.292,0,0,0,1.811-2.177,4.065,4.065,0,0,0,.167-.5,4.531,4.531,0,0,0,.1-.489c0-.021.007-.041.01-.062a6.434,6.434,0,0,0,.059-1.531l.043-.026.059-.035a6.521,6.521,0,0,1-.054,1.608c0,.021-.006.043-.01.065q-.04.239-.1.477l0,.018a4.19,4.19,0,0,1-.173.517,5.432,5.432,0,0,1-1.917,2.269l-.063.04-.018-.072a5.433,5.433,0,0,1,.227-2.963h0l.1.043-.1-.044,0-.008a6.316,6.316,0,0,1,.371-.7l.027-.043a4.665,4.665,0,0,1,1.313-1.391l0,.015c.121-.09.2-.138.2-.14l.045-.028.01-.007.007,0,.081-.046c.054-.029.108-.056.163-.082l.087-.04a3.674,3.674,0,0,1,.756-.245c.07-.015.141-.028.213-.039,0,.036,0,.071,0,.107C137.744,138.2,137.674,138.214,137.6,138.23Zm-1.383,2.2c0,.021-.006.04-.009.06-.026.156-.059.313-.1.469a3.82,3.82,0,0,1-.156.464,4.817,4.817,0,0,1-1.362,1.788c-.015-.153-.026-.334-.026-.534a4.521,4.521,0,0,1,.3-1.686l0-.01a6.151,6.151,0,0,1,.341-.649l0,0a5.216,5.216,0,0,1,1.02-1.136A5.391,5.391,0,0,1,136.22,140.435Zm5.914-.357.011.017a6.177,6.177,0,0,1,.4.742l0,.007h0a5.43,5.43,0,0,1,.226,2.963l-.017.072-.063-.04a5.426,5.426,0,0,1-1.917-2.269,4.036,4.036,0,0,1-.172-.517h0l0-.018q-.056-.227-.095-.455c0-.007,0-.015,0-.022a6.572,6.572,0,0,1-.065-1.675l.059.036.042.026a6.462,6.462,0,0,0,.072,1.613v0c.019.121.043.245.074.37l.017.07.007.028h0a4.057,4.057,0,0,0,.167.5,5.293,5.293,0,0,0,1.81,2.177,5.278,5.278,0,0,0-.236-2.819h0l0-.005a4.218,4.218,0,0,0-.405-.752l0-.006c-.026-.041-.054-.082-.081-.123-.01-.015-.02-.03-.031-.045s-.037-.054-.057-.081-.058-.08-.088-.119c-.013-.018-.026-.035-.04-.052q-.122-.155-.254-.3c-.023-.026-.048-.051-.073-.076h0l0,0a.024.024,0,0,0-.006-.005c-.015-.018-.033-.035-.051-.051s-.037-.037-.056-.054-.048-.047-.073-.069-.061-.055-.093-.081c-.015-.014-.032-.028-.048-.041-.059-.05-.119-.1-.181-.142-.028-.021-.056-.042-.084-.061q-.122-.086-.249-.161l-.026-.016c-.024-.015-.048-.029-.073-.042-.057-.032-.113-.061-.171-.088l-.079-.037a3.536,3.536,0,0,0-.669-.23c-.07-.017-.142-.032-.213-.043v-.11c.071.013.142.026.213.043a3.649,3.649,0,0,1,.687.23l.086.04h0c.055.026.109.053.162.082l.1.056s0,0,0,0l.046.028s.079.05.2.14l0-.015A4.666,4.666,0,0,1,142.134,140.077Zm-1.266.416c0-.019-.007-.038-.009-.058a5.408,5.408,0,0,1-.022-1.238,5.175,5.175,0,0,1,1.02,1.136l0,.007a6.2,6.2,0,0,1,.339.645l0,.01a4.83,4.83,0,0,1,.279,2.22,4.817,4.817,0,0,1-1.363-1.788,3.806,3.806,0,0,1-.156-.464h0Q140.907,140.73,140.868,140.494Zm4.22-5.757a5.6,5.6,0,0,1,1.037.266l.026.009.095.035h0a4.636,4.636,0,0,1,1.236.669,5.426,5.426,0,0,1,1.68,2.45l.021.071-.073,0a5.43,5.43,0,0,1-2.8-1,4.373,4.373,0,0,1-.733-.725,5.552,5.552,0,0,1-.59-.9l-.007-.015h0c-.107-.2-.187-.385-.244-.523l.045,0,.076.009c.055.132.129.3.225.479a.022.022,0,0,1,0,.007,5.564,5.564,0,0,0,.573.873,4.339,4.339,0,0,0,.717.708,5.288,5.288,0,0,0,2.657.976,5.294,5.294,0,0,0-1.618-2.323,4.523,4.523,0,0,0-1.209-.654c-.043-.016-.087-.032-.129-.046l-.032-.011-.059-.021-.053-.018q-.271-.089-.523-.146l-.092-.021c-.071-.015-.141-.029-.21-.04-.1-.017-.191-.029-.283-.039-.037,0-.074-.008-.111-.01s-.054,0-.081-.006c-.065,0-.13-.007-.193-.008h-.088a3.464,3.464,0,0,0-1.749.462c-.032.018-.062.036-.092.054l-.09.058a3.553,3.553,0,0,0-.393.3,3.874,3.874,0,0,0-.612.694c-.022.032-.043.063-.065.1s-.043.065-.063.1a5.17,5.17,0,0,0-.661,1.718l-.1-.06a5.288,5.288,0,0,1,.692-1.756l.064-.1c.021-.032.043-.064.065-.095a3.977,3.977,0,0,1,.6-.678,3.552,3.552,0,0,1,.406-.312l.09-.057.093-.055a3.624,3.624,0,0,1,1.778-.471h.1c.09,0,.181,0,.272.01l.11.01Q144.948,134.715,145.088,134.737Zm.114.411a5.377,5.377,0,0,1,.675.165l.017.005c.073.024.146.051.22.079v0a4.26,4.26,0,0,1,1.139.617,4.8,4.8,0,0,1,1.363,1.788,4.818,4.818,0,0,1-2.075-.865,4.066,4.066,0,0,1-.675-.667l-.014-.017h0l-.006-.007,0,0,0,0a5.246,5.246,0,0,1-.507-.778l-.005-.01,0-.006C145.279,135.344,145.238,135.246,145.2,135.148Zm-.357-1.488c-.014.059-.025.118-.035.177a2.676,2.676,0,0,0-.029.593l-.108-.008a2.808,2.808,0,0,1,.032-.6q.019-.113.046-.227h0l.082.017,0,.048Zm-1.286-1.472a1.792,1.792,0,0,0,1.3,1.046h0c.035.007.069.014.1.019h0a2.355,2.355,0,0,0,.276.026l0,.01c.06,0,.124,0,.194-.008h.005a4.083,4.083,0,0,0,.775-.1h0a4.643,4.643,0,0,0,1.476-.551,5.3,5.3,0,0,0,1.879-2.119,5.3,5.3,0,0,0-2.752.659h0A4.663,4.663,0,0,0,145.08,133c-.037,0-.073-.01-.109-.016a4.746,4.746,0,0,1,1.791-1.906,5.441,5.441,0,0,1,2.894-.67l.074.007-.029.068a5.424,5.424,0,0,1-1.954,2.238,4.772,4.772,0,0,1-1.507.565h0a5.888,5.888,0,0,1-.75.1h0l-.1,0c-.061,0-.121,0-.18-.005a2.668,2.668,0,0,1-.272-.031l-.077-.014h0l-.028-.005a2.094,2.094,0,0,1-.258-.073,1.89,1.89,0,0,1-1.109-1.026,3.169,3.169,0,0,1-.24-.761c0-.011,0-.023-.006-.034-.005-.026-.01-.053-.014-.079,0-.011,0-.023-.005-.034l-.011-.08.1-.057c0,.027.007.053.011.079h0c0,.012,0,.023,0,.034h0c0,.026.009.053.014.079a.243.243,0,0,0,.006.034A3.059,3.059,0,0,0,143.558,132.188Zm1.813.83a4.464,4.464,0,0,1,1.583-1.617,4.821,4.821,0,0,1,2.162-.617,4.328,4.328,0,0,1-3.7,2.233h-.045Z" transform="translate(-126.735 -114.459)" fill="#307b32"/></svg>