<svg xmlns="http://www.w3.org/2000/svg" width="722.5" height="374.5" viewBox="0 0 722.5 374.5"><g transform="translate(-365 -3021.999)"><path d="M12,1A11,11,0,0,0,1,12V362a11,11,0,0,0,11,11H710a11,11,0,0,0,11-11V12A11,11,0,0,0,710,1H12m0-1H710a12,12,0,0,1,12,12V362a12,12,0,0,1-12,12H12A12,12,0,0,1,0,362V12A12,12,0,0,1,12,0Z" transform="translate(365 3021.999)" fill="#707070"/><path d="M12,0H709a13,13,0,0,1,13,13V57a0,0,0,0,1,0,0H0a0,0,0,0,1,0,0V12A12,12,0,0,1,12,0Z" transform="translate(365 3021.999)" fill="#003d55"/><text transform="translate(397 3058.999)" fill="#fff" font-size="20" font-family="BerlingskeSerif-Regular, Berlingske Serif"><tspan x="0" y="0">Subject</tspan></text><text transform="translate(602 3058.999)" fill="#fff" font-size="20" font-family="BerlingskeSerif-Regular, Berlingske Serif"><tspan x="0" y="0">Total</tspan></text><text transform="translate(772 3058.999)" fill="#fff" font-size="20" font-family="BerlingskeSerif-Regular, Berlingske Serif"><tspan x="0" y="0">Monthly</tspan></text><text transform="translate(933 3058.999)" fill="#fff" font-size="20" font-family="BerlingskeSerif-Regular, Berlingske Serif"><tspan x="0" y="0">Other Charges</tspan></text><text transform="translate(397 3121.999)" font-size="19" font-family="Avenir-Medium, Avenir" font-weight="500"><tspan x="0" y="0">Rawdah Madrasah</tspan></text><text transform="translate(397 3223.999)" font-size="19" font-family="Avenir-Medium, Avenir" font-weight="500"><tspan x="0" y="0">BJJ two sessions </tspan><tspan x="0" y="22">per week</tspan></text><text transform="translate(397 3338.999)" font-size="19" font-family="Avenir-Medium, Avenir" font-weight="500"><tspan x="0" y="0">BJJ one session</tspan><tspan x="0" y="22">per week</tspan></text><text transform="translate(602 3223.999)" font-size="19" font-family="Avenir-Medium, Avenir" font-weight="500"><tspan x="0" y="0">n/a</tspan></text><text transform="translate(602 3338.999)" font-size="19" font-family="Avenir-Medium, Avenir" font-weight="500"><tspan x="0" y="0">n/a</tspan></text><text transform="translate(772 3223.999)" font-size="19" font-family="Avenir-Medium, Avenir" font-weight="500"><tspan x="0" y="0">£40</tspan></text><text transform="translate(772 3338.999)" font-size="19" font-family="Avenir-Medium, Avenir" font-weight="500"><tspan x="0" y="0">£20</tspan></text><text transform="translate(953 3223.999)" font-size="19" font-family="Avenir-Medium, Avenir" font-weight="500"><tspan x="0" y="0">Gi - cost TBC</tspan></text><text transform="translate(953 3338.999)" font-size="19" font-family="Avenir-Medium, Avenir" font-weight="500"><tspan x="0" y="0">Gi - cost TBC</tspan></text><text transform="translate(772 3121.999)" font-size="17" font-family="Avenir-Medium, Avenir" font-weight="500"><tspan x="0" y="0">£250 deposit +</tspan><tspan x="0" y="21">10 x £60 payments</tspan></text><text transform="translate(602 3121.999)" font-size="19" font-family="Avenir-Medium, Avenir" font-weight="500"><tspan x="0" y="0">£850 </tspan><tspan font-size="13"><tspan x="0" y="20">(includes £250 deposit)</tspan></tspan></text><path d="M.5,317h-1V0h1Z" transform="translate(583.5 3079.499)" fill="#707070"/><path d="M.5,317h-1V0h1Z" transform="translate(761.5 3079.499)" fill="#707070"/><path d="M.5,317h-1V0h1Z" transform="translate(938.5 3079.499)" fill="#707070"/><path d="M722,.5H0v-1H722Z" transform="translate(365.5 3169.499)" fill="#707070"/><path d="M722,.5H0v-1H722Z" transform="translate(365.5 3299.499)" fill="#707070"/></g></svg>