<svg xmlns="http://www.w3.org/2000/svg" width="579.846" height="715.401" viewBox="0 0 579.846 715.401"><g transform="translate(-1304.128 -195.98)"><g transform="translate(-308 -151.306)"><path d="M283.507-100.634a4.687,4.687,0,0,0,1.162-1.1,1.009,1.009,0,0,0,.121-.219,4.774,4.774,0,0,0,.437-2.446,4.218,4.218,0,0,0-.28-.948,5.112,5.112,0,0,0-1.494-2.094,2.332,2.332,0,0,0-.784-.446,1.725,1.725,0,0,0-1.282.087,2.688,2.688,0,0,0-1.284,1.1c-.087.144-.183.284-.257.433a2.022,2.022,0,0,0-.1,1.626,1.107,1.107,0,0,0,.73.7,3.8,3.8,0,0,0,1.624.214,4.3,4.3,0,0,1,1.746.157c.368.115.383.133.756.5a1.6,1.6,0,0,1-.543.526,2.912,2.912,0,0,0-.417.309,8.636,8.636,0,0,1-1.617,1.088c-.028.015-.817.491-1.028.631a8.679,8.679,0,0,1-1.4.681,15.036,15.036,0,0,1-1.852.609,9.12,9.12,0,0,1-2.383.329,2.9,2.9,0,0,1-1.555-.441,1.627,1.627,0,0,1-.861-.926,2.439,2.439,0,0,1-.427-1.2,2.439,2.439,0,0,1,.007-.728,5.71,5.71,0,0,1,.953-2.328.712.712,0,0,1,.053-.076,4.31,4.31,0,0,0-1.072,1.4,5.882,5.882,0,0,0-.415,1.162,6.984,6.984,0,0,0-.187,1.749,3,3,0,0,0,1.365,2.42,3.378,3.378,0,0,0,1.566.58,7.116,7.116,0,0,0,3.291-.44c.2-.08.432-.1.62-.2.718-.363,1.48-.655,2.169-1.065C280.995-99.07,283.065-100.346,283.507-100.634Zm-1.045-4.777c-.256-.009-.513-.01-.767-.037a3.184,3.184,0,0,1-.585-.12c-.238-.072-.294-.252-.131-.421a.789.789,0,0,1,.343-.226,1.237,1.237,0,0,1,.954.072c.257.152.5.324.744.5.05.035.065.109.109.187A2.328,2.328,0,0,1,282.462-105.41Z" transform="translate(1417.227 972.685)" fill="#bf9743"/><g transform="translate(1686.638 855.779)" style="isolation:isolate"><path d="M272.007-116.259a1.662,1.662,0,0,0-.952-.238c-.349-.018-.7-.009-1.05.006-.2.008-.4.05-.6.077a.522.522,0,0,1-.434-.052.8.8,0,0,1,.023-.181,3.457,3.457,0,0,1,.528-.85,1,1,0,0,1,.594-.335,5.592,5.592,0,0,1,.871-.112c.367-.022.737-.014,1.1-.027a2.609,2.609,0,0,1,.767.065,1.1,1.1,0,0,1,.714.453,1.773,1.773,0,0,1-.375.886,5.723,5.723,0,0,1-1.334,1.355,1.2,1.2,0,0,1-.37.2,7.552,7.552,0,0,1-1.482.359,4.125,4.125,0,0,0-1.066.232c-.251.085-.431.067-.44-.032-.014-.159.121-.232.25-.289.394-.173.795-.336,1.193-.5a16.114,16.114,0,0,0,1.759-.811C271.8-116.1,271.876-116.168,272.007-116.259Z" transform="translate(-268.505 119.616)" fill="#bf9743"/><path d="M296.6-97.3l-.055.1a.881.881,0,0,1-.114-.09c-.007-.007.037-.066.045-.063A.732.732,0,0,1,296.6-97.3Z" transform="translate(-276.074 114.025)" fill="#bf9743"/><path d="M315.164-120.112a.373.373,0,0,1,.012-.087c.005-.013.034-.019.051-.028,0,.015,0,.033-.007.043a.833.833,0,0,1-.071.058Z" transform="translate(-281.148 120.226)" fill="#bf9743"/><path d="M302.638-105.173a3.227,3.227,0,0,1-.6,1.145,5.131,5.131,0,0,1-.765.951,1.623,1.623,0,0,1-.862.4c-.666.117-1.334.217-2.028.327-.086-.062-.052-.161.026-.232a1.311,1.311,0,0,1,.314-.193c.566-.265,1.138-.523,1.706-.789a2.162,2.162,0,0,0,.753-.448c-.069-.036-.122-.088-.179-.092-.459-.028-.918-.053-1.378-.063a2.236,2.236,0,0,0-.491.055c-.3.061-.6.135-.9.2a.269.269,0,0,1-.044-.362c.158-.328.342-.647.52-.967a.285.285,0,0,1,.117-.1,1.61,1.61,0,0,1,.869-.264,6.057,6.057,0,0,0,.87-.046,7.358,7.358,0,0,1,1.535.1A.644.644,0,0,1,302.638-105.173Z" transform="translate(-276.538 116.277)" fill="#bf9743"/></g><path d="M271.608-123.77s-3.18,1.771-3.347,4.278,1.086,3.882,3.581,2.75,4.816-2.753,6.7-3.616,5.626-2.994,8.424.249l.421-1.94a9.93,9.93,0,0,0-1.891-1.247,7.333,7.333,0,0,1-1.245-2.973s2.347,4.64,11.737,3.7,16.839-5.658,15.276-3.33a23.329,23.329,0,0,1-4.385,4.515s4.152-2.7,5.344-5-1.429-1.588-2.134-1.37-8.761,3.039-13.542,3.546-12.422.886-13.041-8.388-1.042-19.329-2.156-20.893l-.536,2.293s1.287,25.26,3.021,27.629a16.23,16.23,0,0,0-4.345,1.263c-2.039.974-8.57,5.358-10.194,4.16S269.2-121.333,271.608-123.77Z" transform="translate(1418.204 985.019)" fill="#bf9743"/><path d="M285.559-104.1s-.805,3.44,1.924,3.223,1.189-4.867,5.52-5.85c0,0,1.033,3.076,3.508,2.787a4.46,4.46,0,0,0,3.423-2.265,2.072,2.072,0,0,0,2.473,1.907c2.256-.363,2.331-1.938,2.514-2.962,0,0,.8,3.734,5.746,2.716s6.736-3.1,6.736-3.1l.658-2.049s-4.99,3.653-7.173,3.029-3.089-2.969-3.306-4.178c0,0,2.369-2.669,7.753-1.454,0,0-4.771-3.674-8.444,1.271,0,0-1.13,1.462,1.123,4.5,0,0-2.045.614-2.542-4.249s-1.219-14.351-1.219-14.351l-1.057,1.389s1.582,14.865.888,16.8a1.889,1.889,0,0,1-3.638-.938s-.455.036-.965.768-2.66,2.357-4.113,1.2-.907-2.271-2.49-2.126-2.459,1.681-3.115,3.035S286.99-99.891,285.559-104.1Z" transform="translate(1413.541 977.333)" fill="#bf9743"/><path d="M277.616-149.873a81.274,81.274,0,0,1,1.49,10.691c.284,5.076,1.35,6.883,7.221,6.891s11.067-3.646,11.94-3.645c0,0-.1,2.245,3.151,2.493s7.424-.527,7.717-1.7-4.409-5.423-11.214,4.378c0,0,4.524-8.828,9.035-7.9s3.778,4.983,1.011,5.859-8.591,2.478-10.334-1.088c0,0-7.045,3.139-11.267,3.188s-7.369.155-8.332-6.045c0,0-.561,2.757-2.26,3.535s-5.218,1.873-5.486,2.58c0,0-.56,1.292,6.015,1.35s32.826-1.3,35.129-.563l-.851,1.268s-41.118,2.076-41.241-.469c-.006-.122-.077-1.476,1.654-3.14s5.9-2.28,6.464-4.128-.475-11.952-.475-11.952Z" transform="translate(1417.908 984.041)" fill="#bf9743"/><path d="M316.93-127.174s-2.3-20.1-2.88-24.09a1.86,1.86,0,0,0-.335-.87l.693-1.775s2.016,3.654,1.978,4.88c0,0-.328.137-.927-.77,0,0-.576-.841.44,4.686s1.427,12.313,1.8,15.926C317.969-126.536,316.93-127.174,316.93-127.174Z" transform="translate(1405.879 985.135)" fill="#bf9743"/><path d="M290.059-142.945a6.451,6.451,0,0,0,0,3.051c.349,2.161,1.329,4.211,2.724,4.164.5-.017,1-.682,1.327-1.749.577-1.9.84-4.718,1.338-4.787.776-.109-2.277,6.074,2.914,6.434,0,0,2.268.235,3.158-3.473,0,0,1,4.041,3.89,2.983s2.213-3.987.35-7.5l.1-.134.752.319-1.937-2.626-.475,1.623a3.417,3.417,0,0,1,.557,1.191,13.552,13.552,0,0,0,1.585,3.681c.964,1.483-.031,2.013-1.661,1.948s-2.577-2.242-2.565-4.319a7.492,7.492,0,0,0-1.169-3.809l-.639,1.463s1.742,3.535.174,5.674-4.4,1.45-4.575-.875.834-4.6,0-4.691c-.54-.058-1.135,1.129-1.553,2.722-.564,2.146-.956,4.847-1.853,4.509C290.933-137.74,290.484-138.356,290.059-142.945Z" transform="translate(1412.334 983.064)" fill="#bf9743"/><path d="M300.484-91.169l-1.94-1.465,1.427-1.913,1.94,1.465Z" transform="translate(1409.991 969.045)" fill="#bf9743"/><path d="M306.8-94.257,305.354-92l-2.06-1.334,1.444-2.257Z" transform="translate(1408.704 969.328)" fill="#bf9743"/><path d="M314.8-119.733a3.727,3.727,0,0,0-.582,1.741.761.761,0,0,0,1.459.4,1.11,1.11,0,0,0-.044-.882s-.124.719-.761.585C314.336-118.01,314.631-118.677,314.8-119.733Z" transform="translate(1405.743 975.872)" fill="#bf9743"/><path d="M305.762-126.474a3.723,3.723,0,0,0-.583,1.741.761.761,0,0,0,1.459.4,1.112,1.112,0,0,0-.043-.882s-.125.719-.762.585C305.292-124.751,305.587-125.418,305.762-126.474Z" transform="translate(1408.194 977.699)" fill="#bf9743"/><path d="M290.959-131.817a3.727,3.727,0,0,0-.583,1.741.76.76,0,0,0,1.459.394,1.11,1.11,0,0,0-.044-.882s-.124.72-.761.585C290.489-130.093,290.785-130.761,290.959-131.817Z" transform="translate(1412.207 979.147)" fill="#bf9743"/><path d="M284.473-135.106a3.717,3.717,0,0,0-.582,1.741.76.76,0,0,0,1.458.4,1.108,1.108,0,0,0-.043-.882s-.125.719-.761.585C284-133.383,284.3-134.05,284.473-135.106Z" transform="translate(1413.964 980.039)" fill="#bf9743"/><path d="M293.266-140.418a3.722,3.722,0,0,0-.582,1.741.76.76,0,0,0,1.459.394,1.111,1.111,0,0,0-.044-.882s-.124.72-.761.585C292.8-138.694,293.092-139.362,293.266-140.418Z" transform="translate(1411.581 981.478)" fill="#bf9743"/><path d="M308.111-141.537a3.728,3.728,0,0,0-.583,1.741.76.76,0,0,0,1.459.394,1.109,1.109,0,0,0-.043-.882s-.125.72-.761.585C307.641-139.813,307.936-140.481,308.111-141.537Z" transform="translate(1407.557 981.782)" fill="#bf9743"/><path d="M319.4-145.472a3.727,3.727,0,0,0-.582,1.741.761.761,0,0,0,1.459.4,1.11,1.11,0,0,0-.044-.882s-.124.719-.761.585C318.929-143.748,319.224-144.416,319.4-145.472Z" transform="translate(1404.498 982.848)" fill="#bf9743"/><path d="M283.171-146.052a3.723,3.723,0,0,0-.583,1.741.76.76,0,0,0,1.459.394A1.112,1.112,0,0,0,284-144.8s-.125.72-.762.585C282.7-144.329,283-145,283.171-146.052Z" transform="translate(1414.318 983.005)" fill="#bf9743"/><path d="M279.784-126.706a3.717,3.717,0,0,0-.582,1.741.76.76,0,0,0,1.458.394,1.109,1.109,0,0,0-.043-.882s-.124.72-.761.585C279.315-124.983,279.61-125.65,279.784-126.706Z" transform="translate(1415.235 977.762)" fill="#bf9743"/><path d="M294.331-157.438l.316-.719s1,.553.836,2.632a4.564,4.564,0,0,1-1.693,3.175S295.808-155.691,294.331-157.438Z" transform="translate(1411.28 986.287)" fill="#bf9743"/><path d="M272.683-133.22s-.3.012-.223-.4.4-.7.684-.579.012.831.012.831-.3,1.473.5,1.412.894-.856.659-1.674c0,0-.341-.429.2-.945l.262.491s-.2,2.179.825,2.13-.313-1.335-.234-2a1.8,1.8,0,0,1,.159-.583.128.128,0,0,1,.239.034,5.517,5.517,0,0,0,.376,1.382,1.281,1.281,0,0,1-.567,1.775c-.736.264-1.063-.682-1.063-.682a1.241,1.241,0,0,1-1,.881c-.775.074-.774-.757-.76-1.3A2.463,2.463,0,0,0,272.683-133.22Z" transform="translate(1417.065 979.905)" fill="#bf9743"/><path d="M298.637-147.9s-.3.012-.223-.4.4-.7.684-.579.012.832.012.832-.3,1.473.5,1.411.894-.856.659-1.674c0,0-.341-.429.2-.945l.262.492s-.2,2.179.824,2.129-.313-1.335-.234-2a1.793,1.793,0,0,1,.159-.583.128.128,0,0,1,.24.033,5.546,5.546,0,0,0,.375,1.382,1.282,1.282,0,0,1-.567,1.776c-.736.263-1.063-.682-1.063-.682a1.24,1.24,0,0,1-1,.88c-.775.075-.773-.757-.76-1.3A2.461,2.461,0,0,0,298.637-147.9Z" transform="translate(1410.03 983.885)" fill="#bf9743"/><path d="M290.543-141.222l-.379.572-.158.348.263-.06a14.836,14.836,0,0,0,2.15-1.967l-.481-.241A6.819,6.819,0,0,1,290.543-141.222Z" transform="translate(1412.306 982.061)" fill="#bf9743"/><path d="M293.118-143.986c-.158-.073-.33-.155-.5-.243-.53-.273-1.045-.595-1.1-.839-.109-.517,1.816-.785,1.136.777l-.038.062c.171.087.343.17.5.243a2.082,2.082,0,0,0,.343-.872c.128-1.4-.693-1.745-1.75-1.166s-1.075,1.653-.65,1.886c.186.1.641.332,1.093.56l.481.241c.383.192.682.339.682.339l.505-.684S293.511-143.805,293.118-143.986Z" transform="translate(1412.09 983.07)" fill="#bf9743"/><path d="M283.84-137.541s4.506-2.7,5.032-3.18l-.274.861S284.513-137.3,283.84-137.541Z" transform="translate(1413.977 981.561)" fill="#bf9743"/><path d="M279.675-114.89s-.343-1.836-.849-1.96c0,0-.246.151-.335.13s-.629-.511-.626-.62.359-.72.714-.661a2.733,2.733,0,0,1,1.24,2.112,7.823,7.823,0,0,1,.887-2.232.609.609,0,0,1,.962.247c.122.405-.138.781-.257.735s-.306-.447-.615-.335-.431.554-.58,1.322a4.872,4.872,0,0,1-.382,1.292A.109.109,0,0,1,279.675-114.89Z" transform="translate(1415.597 975.471)" fill="#bf9743"/><path d="M277.456-99.439s-.343-1.836-.849-1.96c0,0-.246.151-.335.13s-.629-.512-.626-.621.359-.72.714-.661a2.731,2.731,0,0,1,1.24,2.112,7.822,7.822,0,0,1,.887-2.232.609.609,0,0,1,.962.247c.122.405-.137.781-.257.735s-.306-.447-.615-.335-.43.554-.58,1.322a4.888,4.888,0,0,1-.381,1.292A.109.109,0,0,1,277.456-99.439Z" transform="translate(1416.198 971.283)" fill="#bf9743"/><path d="M306.281-114.9s-.343-1.836-.849-1.961c0,0-.246.151-.335.13s-.629-.512-.626-.621.359-.719.714-.66a2.732,2.732,0,0,1,1.24,2.112,7.825,7.825,0,0,1,.887-2.233.609.609,0,0,1,.962.247c.122.405-.138.781-.257.736s-.306-.448-.615-.335-.431.553-.58,1.322a4.841,4.841,0,0,1-.382,1.291A.108.108,0,0,1,306.281-114.9Z" transform="translate(1408.385 975.474)" fill="#bf9743"/><path d="M306.864-102.848s-.342-1.836-.848-1.961c0,0-.247.151-.335.13s-.63-.512-.626-.621.359-.719.714-.66a2.732,2.732,0,0,1,1.24,2.112,7.848,7.848,0,0,1,.887-2.233.609.609,0,0,1,.962.247c.122.405-.137.781-.257.736s-.305-.448-.615-.335-.43.553-.58,1.322a4.861,4.861,0,0,1-.381,1.291A.109.109,0,0,1,306.864-102.848Z" transform="translate(1408.227 972.207)" fill="#bf9743"/><path d="M312.592-92.4s-.343-1.835-.849-1.96c0,0-.246.151-.335.13s-.629-.512-.626-.621.359-.72.714-.661a2.735,2.735,0,0,1,1.24,2.112,7.839,7.839,0,0,1,.886-2.232.609.609,0,0,1,.962.247c.122.405-.137.781-.257.736s-.306-.448-.615-.335-.431.553-.58,1.322a4.875,4.875,0,0,1-.382,1.291A.108.108,0,0,1,312.592-92.4Z" transform="translate(1406.674 969.374)" fill="#bf9743"/><path d="M300.818-136.954s-.343-1.836-.848-1.96c0,0-.247.151-.335.13s-.63-.511-.626-.621.359-.719.714-.66a2.731,2.731,0,0,1,1.24,2.112,7.855,7.855,0,0,1,.887-2.233.609.609,0,0,1,.962.248c.122.405-.137.781-.257.735s-.305-.447-.615-.335-.43.554-.58,1.322a4.87,4.87,0,0,1-.381,1.292A.109.109,0,0,1,300.818-136.954Z" transform="translate(1409.865 981.452)" fill="#bf9743"/><path d="M308.371-148.143s-.343-1.835-.849-1.96c0,0-.246.151-.335.13s-.629-.512-.626-.621.359-.72.714-.661a2.731,2.731,0,0,1,1.24,2.112,7.823,7.823,0,0,1,.887-2.232.609.609,0,0,1,.962.247c.122.405-.138.781-.257.735s-.306-.447-.615-.334-.431.553-.58,1.322a4.892,4.892,0,0,1-.381,1.292A.109.109,0,0,1,308.371-148.143Z" transform="translate(1407.819 984.485)" fill="#bf9743"/><path d="M307.377-155.225l-6.762,2.555a3.625,3.625,0,0,1-.319,1.145l6.521-2.344A.9.9,0,0,0,307.377-155.225Z" transform="translate(1409.516 985.492)" fill="#bf9743"/><path d="M298.356-151.878l-6.96,2.632a.766.766,0,0,0-.5,1.084l7.058-2.537A4.045,4.045,0,0,0,298.356-151.878Z" transform="translate(1412.088 984.585)" fill="#bf9743"/><path d="M303.853-157.974l-6.762,2.554a3.612,3.612,0,0,1-.319,1.146l6.522-2.344A.9.9,0,0,0,303.853-157.974Z" transform="translate(1410.472 986.237)" fill="#bf9743"/><path d="M275.177-139.99l-6.96,2.632a.766.766,0,0,0-.5,1.084l7.058-2.537A4.044,4.044,0,0,0,275.177-139.99Z" transform="translate(1418.371 981.362)" fill="#bf9743"/><path d="M302.5-118.841l-5.416,1.965a.566.566,0,0,0-.388.809l5.492-1.894A2.923,2.923,0,0,0,302.5-118.841Z" transform="translate(1410.512 975.63)" fill="#bf9743"/><path d="M279.991-111.907l-5.416,1.965a.566.566,0,0,0-.388.809l4.848-1.671a1.393,1.393,0,0,0,.955-1.093Z" transform="translate(1416.613 973.75)" fill="#bf9743"/><path d="M301.222-109.87l-5.416,1.965a.566.566,0,0,0-.388.81l4.848-1.672a1.391,1.391,0,0,0,.954-1.093Z" transform="translate(1410.858 973.198)" fill="#bf9743"/><path d="M299.851-130.7l-5.416,1.965a.567.567,0,0,0-.388.81l5.492-1.895A2.924,2.924,0,0,0,299.851-130.7Z" transform="translate(1411.229 978.843)" fill="#bf9743"/></g><g opacity="0.95"><path d="M45.193,625.87a118.68,118.68,0,0,1,3.574-24.513,84.682,84.682,0,0,1,3.987-11.679c.849-.39,1.7-.793,2.56-1.2q7.176-3.393,14.511-7.445c-.293.442-.592.872-.875,1.326A103.746,103.746,0,0,0,58.7,604.49a118.039,118.039,0,0,0-4.894,21.277q-3.445.107-6.862.1l-1.168,0Zm-9.4-.26q0-.345,0-.689,0,.344,0,.689c-1.772-.081-3.535-.182-5.278-.3q-5.209-.346-10.228-.871A158.721,158.721,0,0,1,19.2,606.892a158.711,158.711,0,0,0,1.085,17.549q-1.688-.176-3.35-.367c-5.87-.677-11.483-1.5-16.725-2.392l-.013-.3c-.173-4.562-.254-9.3-.15-14.078,4.914-1.079,10.169-2.382,15.7-3.958q-.045,1.358-.045,2.719,0-1.36.045-2.719,1.771-.507,3.58-1.05c5.022-1.511,10.242-3.25,15.617-5.242a70.5,70.5,0,0,0-3.61,15.1,70.5,70.5,0,0,1,3.61-15.1q3.308-1.228,6.687-2.583,5.482-2.208,11.125-4.79a84.682,84.682,0,0,0-3.987,11.679,118.68,118.68,0,0,0-3.574,24.513C42.029,625.847,38.893,625.753,35.79,625.609ZM58.7,604.49a103.746,103.746,0,0,1,10.248-22.127c.283-.454.582-.884.875-1.326q1.874-1.042,3.757-2.129a241.111,241.111,0,0,0,64.126-53.737c.533-.634,1.063-1.284,1.594-1.928a154.119,154.119,0,0,0,40.268-6.06,140.963,140.963,0,0,0,14.576-5.047q-.562,1.258-1.135,2.515-2.176,4.782-4.517,9.593c-23.155,3.055-45.553,11.192-65.941,27.451C101,568.883,83.2,594.247,72.81,624.258c-5.724.754-11.477,1.221-17.194,1.449-.6.024-1.207.039-1.808.059A118.039,118.039,0,0,1,58.7,604.49Zm79.27-79.319h0Zm3.9-.049.9-.024Zm3.5-.122.6-.028ZM122.551,551.7c20.388-16.258,42.785-24.4,65.941-27.451-.361.741-.728,1.478-1.1,2.22q-2.527,5.089-5.252,10.158c-18.759,3.318-36.734,9.434-53.7,24.685-17,15.283-30.723,36.079-39.647,60.012-4.572,1.1-9.206,1.969-13.873,2.646h0c-.707.1-1.409.2-2.115.293C83.2,594.247,101,568.883,122.551,551.7Zm5.893,9.612c16.966-15.251,34.941-21.367,53.7-24.685q-1.357,2.515-2.764,5.024c-12.273,21.815-27.536,42.692-46.695,58.645-11.551,9.622-25.129,15.94-39.5,19.895q-2.185.6-4.39,1.134C97.722,597.386,111.449,576.591,128.445,561.308Zm130.3,22.326a118.176,118.176,0,0,1-23.214-8.794c.527.032,1.058.071,1.587.1-.53-.03-1.06-.069-1.587-.1a102.536,102.536,0,0,1-40.037-35.5c-.436-.673-.869-1.352-1.288-2.038l1.086-2.616c7.584-.938,15.282-1.67,23.084-2.583a111.959,111.959,0,0,0,24.538-5.258q2.917,1.229,6,2.376a87.31,87.31,0,0,1-19.249,5.8c-9.488,1.779-18.956,2.69-28.341,3.68,9.385-.99,18.853-1.9,28.342-3.68a87.339,87.339,0,0,0,19.249-5.8,136.6,136.6,0,0,0,16.292,4.946l-.08.064.08-.064c.859.2,1.72.4,2.589.579h0q3.756.8,7.63,1.359c-9.685,10.9-23.091,15.809-35.618,12.973,12.527,2.834,25.934-2.077,35.618-12.973q1.155.166,2.322.305c2.637.321,5.31.552,8.013.672a54.5,54.5,0,0,1-9.343,9.5,42.785,42.785,0,0,1-23.067,9.278,42.785,42.785,0,0,0,23.067-9.278,54.5,54.5,0,0,0,9.343-9.5c.79.037,1.587.062,2.384.078,2.218.049,4.456.013,6.706-.094-.67,1.007-1.356,2-2.065,2.95q-.467.63-.945,1.243.478-.613.945-1.243c.709-.955,1.395-1.943,2.065-2.95.79-.039,1.584-.084,2.381-.143a90.254,90.254,0,0,0,11.048-1.5A80.51,80.51,0,0,1,302.718,547a80.51,80.51,0,0,0,5.561-11.579q4.063-.81,8.146-2.041a86.779,86.779,0,0,0,9.926-3.666q3.736-1.647,7.467-3.552c-.738,5.164-1.561,10.305-2.648,15.378a136.941,136.941,0,0,1-13.838,37.67q-1.946,3.505-4.117,6.8a132.872,132.872,0,0,1-21.836,1.811A128.025,128.025,0,0,1,258.742,583.633Zm-13.345-8.44h0Zm-.069,0c-2.692,0-5.358-.088-7.961-.239C239.972,575.106,242.635,575.194,245.329,575.194Zm8.3-11.285h0Zm-.053,0q-.554,0-1.107-.015C252.838,563.9,253.205,563.909,253.575,563.909Zm-36.109-10.4a35.618,35.618,0,0,1,5.743.582c9.193,1.772,17.815,6.656,27.162,7.391a42.359,42.359,0,0,0,17.524-2.382,42.357,42.357,0,0,1-17.524,2.381c-9.347-.734-17.969-5.618-27.162-7.39a35.618,35.618,0,0,0-5.743-.582c-1.541-.045-5.4.194-5.4-2.158C212.068,553.705,215.925,553.467,217.466,553.512Zm31.569,4.779h0Zm-.311,0c-5.122-.022-12.019-.628-15.5-4.6C236.7,557.663,243.6,558.268,248.724,558.29Zm28.375-1.05.047-.028Zm.444-.265.022-.013Zm.236-.144.095-.058Zm-27.472-.854h0Zm-.059,0a38.159,38.159,0,0,1-7.519-.745A38.154,38.154,0,0,0,250.248,555.977Zm-7.763-.8-.31-.066Zm-6-1.868c.693,1.182,4.422,1.52,5.505,1.761-1.083-.241-4.813-.579-5.505-1.762-1.239-2.115-.732-2.684.149-2.846h0C235.756,550.629,235.248,551.2,236.488,553.314Zm10.51-1.1h0Zm-.067,0a34.016,34.016,0,0,1-9.77-1.443A34,34,0,0,0,246.932,552.21Zm-27.843-9.461c-2.781.8-7.65,2.318-8.973,6.191a7.207,7.207,0,0,0-.435,2.305,7.207,7.207,0,0,1,.435-2.305c1.323-3.873,6.192-5.388,8.973-6.191Zm13.375,6.763a3.505,3.505,0,0,0-.416,1.588,3.505,3.505,0,0,1,.416-1.588Zm.061-.116q.025-.044.05-.087Q232.55,549.351,232.525,549.4Zm7.093-.363-.205-.048Zm-.405-.1c-.116-.461-.416-.857-.853-.857C238.8,548.079,239.1,548.475,239.213,548.936Zm-2.858-.844a6.741,6.741,0,0,0,1.8.014,6.764,6.764,0,0,1-1.8-.014c-.391-.035-.792-.07-1.185-.07C235.564,548.022,235.965,548.057,236.355,548.092Zm1.839.005Zm-17.23-3.474.277-.055Zm6.6-.025c0-.027,0-.055,0-.082C227.566,544.544,227.565,544.571,227.565,544.6Zm41.7-.1.073-.054Zm-41.867-.01-.056-.008Zm-.149-.021a20.385,20.385,0,0,0-2.747-.2A20.4,20.4,0,0,1,227.246,544.47Zm42.148-.066.124-.093Zm.135-.1.342-.258Zm-45.1-.03h0ZM231.336,543a.734.734,0,0,1,.1.038.734.734,0,0,0-.1-.038Zm-.141-.041a23.9,23.9,0,0,0-6.566-.979A23.909,23.909,0,0,1,231.2,542.958Zm-11.924-.262.157-.043Zm5.294-.717h0Zm62.526-3.391c.208-.271.411-.547.613-.825C287.5,538.041,287.3,538.317,287.091,538.589Zm30.242,40.621a136.967,136.967,0,0,0,13.837-37.67c1.086-5.073,1.91-10.214,2.648-15.378.64-.325,1.278-.657,1.919-.991q5.468-2.875,10.862-6.258h0c.628-.393,1.255-.787,1.88-1.189h0a182.253,182.253,0,0,0,56.487-58.007c.491-.816.978-1.634,1.457-2.459q3.615-6.225,6.68-12.772c.348-.744.69-1.485,1.025-2.232a141.392,141.392,0,0,1,19.392,4.995c-.156.754-.319,1.508-.482,2.262q-1.048,4.884-2.266,9.86l-.649-.113.649.113c-.186.75-.364,1.5-.553,2.255q-1.244,4.948-2.663,9.983h0c-1.236,4.4-2.556,8.839-3.991,13.334-.038.124-.081.244-.12.367h0a177.712,177.712,0,0,1-6.6,17.405c-10.5,7.273-18.966,19.706-22.677,35.458-.14.6-.267,1.2-.4,1.8a137.713,137.713,0,0,1-19.022,18.547,133.784,133.784,0,0,1-13.754,9.668q3.308-11.495,5.857-23.314c5.7-26.476,9.613-53.545,30.827-66.135a50.114,50.114,0,0,1,13.83-5.616,50.118,50.118,0,0,0-13.831,5.616c-21.213,12.59-25.126,39.659-30.827,66.135q-2.542,11.8-5.857,23.314a133.236,133.236,0,0,1-26.645,12.511q-1.219.414-2.449.809c6.716-17.35,11.145-36.553,13.663-55.047q.258-1.886.516-3.774-.26,1.886-.517,3.774c-2.517,18.494-6.946,37.7-13.662,55.047a134.065,134.065,0,0,1-16.127,4.062q-1.274.234-2.547.445Q315.381,582.719,317.333,579.21Zm-1.571,6.354c10.471-16.759,16.5-37.046,19.67-58.29C332.266,548.518,326.233,568.8,315.762,585.564Zm95.751-112.451.132-.032Zm.3-.072h0Zm8.192-1.282q2.5-.2,5.018-.2h0Q422.511,471.556,420.005,471.758Zm5.982-.195-.11,0Zm-.173,0h0Zm-.316,0h0Zm4.016-10.054-.236-.039Zm-.314-.052a124.939,124.939,0,0,0-20.032-1.838A124.957,124.957,0,0,1,429.2,461.453Zm-20.1-1.838h0Zm20.988-.366-.728-.124Zm-1.1-.187-.29-.048Zm-.8-.131a119.424,119.424,0,0,0-19-1.719A119.45,119.45,0,0,1,428.189,458.931Zm-21.453-1.685h0Zm2.4-.034h0ZM394.162,538.17c3.711-15.752,12.179-28.185,22.677-35.458a161.579,161.579,0,0,1-7.8,15.417q-2.42,4.208-5.031,8.154a145.95,145.95,0,0,1-10.254,13.684C393.895,539.369,394.021,538.768,394.162,538.17ZM199.155,525.362h0l.926-2.229h0l6.006-14.474,1.025-2.47s.51.416,1.476,1.144a161.287,161.287,0,0,0,20.645,13c-6.869,1.891-14.121,2.326-21.415,2.476,7.294-.15,14.546-.585,21.415-2.476q1.594.848,3.281,1.7c3.23,1.631,6.706,3.259,10.394,4.806a111.959,111.959,0,0,1-24.538,5.258c-7.8.913-15.5,1.645-23.084,2.583Zm-51.279-13.1c.3-.407.585-.81.884-1.215q1.473-2.018,2.917-4.013a135.531,135.531,0,0,0,41.882-7.513c2.4-.845,4.783-1.791,7.144-2.815q-1.023,2.526-2.091,5.083-2.141,5.128-4.469,10.351a140.82,140.82,0,0,1-14.576,5.047,154.107,154.107,0,0,1-40.268,6.06C142.208,519.717,145.072,516.068,147.876,512.26Zm2.773-1.2h0Zm-.069,0-.9,0Zm13.556-21.972h0q4.458-6.678,8.455-13.035c16.4-3.958,32.108-13.191,45.26-26.72-2.029,5.977-4.3,12.723-6.865,20.009-2.994,8.511-6.4,17.753-10.283,27.366-2.361,1.024-4.745,1.969-7.144,2.815a135.531,135.531,0,0,1-41.882,7.513Q158.332,497.789,164.136,489.083Zm105.806-12.138h0c-.436-.308-.859-.633-1.271-.975,3.35-6.7,6.628-13.44,10.088-19.83,5.681-10.486,11.629-20.856,18.024-30.693,4.24-2.652,6.692-6.626,7.957-11.586,1.353-5.306,1.353-11.741.732-18.9q-.107-1.248-.24-2.526c2.2-2.1,3.8-5.164,5.2-8.15,2.274-4.846,4.219-9.685,7.783-13.171,7.021-6.87,22.179-8.479,24.671-21.328q.819-.112,1.668-.244a142.11,142.11,0,0,0,15.812-3.49L362,345.6h0c3.327-.949,6.879-2.051,10.677-3.334,0,0,.531,4.52,1.181,10.831a33.043,33.043,0,0,1-1.35,3.942c-4.4,10.506-12.83,16.482-20.3,22.7-25.985,21.634-43.078,51.089-58.025,85.572-2.068,4.77-4.179,9.58-6.411,14.3a21.532,21.532,0,0,1-3.957.78,24.351,24.351,0,0,1-2.508.133A19.1,19.1,0,0,1,269.942,476.945Zm2.147-4.2q-.476.912-.949,1.838.474-.925.949-1.838c14.533-27.85,30.03-56.3,50.439-77.365C302.119,416.449,286.622,444.9,272.089,472.746Zm66.9-94.4c8.506-6.147,21.7-16.227,21.681-28.988C360.693,362.118,347.494,372.2,338.989,378.345Zm-44.8,86.96c14.946-34.483,32.04-63.939,58.025-85.572,7.467-6.213,15.9-12.189,20.3-22.7a33.043,33.043,0,0,0,1.35-3.942c.241,2.34.5,4.93.754,7.624.631,6.646,1.239,13.942,1.516,19.8-6.635,6.1-13.145,12.294-19.263,18.936-10.647,4.443-23.34,11.365-31.272,23.256-12.82,19.212-18.066,45.447-32.626,54.543a21.3,21.3,0,0,1-5.191,2.352C290.008,474.885,292.119,470.075,294.187,465.3Zm1.925,4.877c7.992-18.2,15.707-36.266,26.557-52.015C311.819,433.915,304.1,451.983,296.112,470.182ZM193.537,439.566c3.141-6.051,5.958-11.8,8.5-17.223A49.4,49.4,0,0,0,208.8,407.2c2.878-6.756,5.316-12.885,7.463-18.39q0,.216,0,.431,0-.216,0-.431c8.417-21.582,12.32-33.466,20.476-35.165,2.442-.508,4.627.621,6.654,2.911h0c4.209,4.758,7.74,14.572,11.512,25.473a100.075,100.075,0,0,1-.549,15.728,94.029,94.029,0,0,1-8.827,29.646,94.023,94.023,0,0,0,8.827-29.646,99.985,99.985,0,0,0,.549-15.729c4.42,12.778,9.172,27.028,15.724,36.362a146.006,146.006,0,0,1-16.339,32.679c-2.075-5.6-4.02-11.371-6.16-16.7-.965-2.4-1.86-4.66-2.706-6.75-2-4.943-3.717-8.9-5.437-11.339a81.078,81.078,0,0,0,6.162-31.049,81.078,81.078,0,0,1-6.162,31.049c-3.84-5.437-7.681-3.269-14.641,12.495-2.088,4.722-4.531,11.817-7.49,20.548-13.152,13.529-28.859,22.761-45.26,26.72C180.892,462.851,187.767,450.687,193.537,439.566Zm65.667,23.3q-.473-.965-.927-1.959h0c-.8-1.742-1.554-3.546-2.286-5.386-.582-1.462-1.148-2.947-1.7-4.445A146.006,146.006,0,0,0,270.625,418.4a37.449,37.449,0,0,0,2.813,3.562,24.222,24.222,0,0,0,4.328,3.845,177.153,177.153,0,0,1-17.984,32.981A177.153,177.153,0,0,0,277.767,425.8a18.132,18.132,0,0,0,1.6.961,14.966,14.966,0,0,0,11.291,1.258,21.911,21.911,0,0,0,6.128-2.574c-6.394,9.837-12.342,20.207-18.024,30.693-3.461,6.389-6.738,13.132-10.088,19.83C264.823,472.795,261.8,468.18,259.2,462.864ZM168,448.891q-.077-3.223-.071-6.916a42.321,42.321,0,0,0,14.5-3.194l-3.928,8.264-9.356,19.681S168.257,460.011,168,448.891Zm246.126-6.639a149.763,149.763,0,0,0,6.572-17.481h0c.263-.861.52-1.729.768-2.6q1.575-5.513,2.709-11.172c.127-.647.251-1.3.371-1.947l.3.049-.3-.049a134.419,134.419,0,0,0,2.215-27.665q-.034-1.516-.108-3.042a111.6,111.6,0,0,1,12.706-13.561c.065.806.133,1.609.192,2.425q.507,6.985.618,14.351c-3.068,2.649-6.152,6.2-6.151,10.876,0-4.678,3.083-8.227,6.151-10.876.027,1.709.03,3.435.02,5.173q-.02,4.436-.2,8.992a1.267,1.267,0,0,1-.168-.18,1.267,1.267,0,0,0,.168.18q-.093,2.408-.227,4.852-.235,4.183-.6,8.459c-2.482.143-4.96.335-7.441.354l-.9.008.9-.008c2.481-.019,4.96-.212,7.441-.354-.065.764-.14,1.537-.212,2.307q-.473,5.075-1.135,10.283c-.1.818-.2,1.638-.315,2.459q-1.526,11.28-3.99,23.158A141.392,141.392,0,0,0,414.126,442.251ZM437.4,424.069a27.083,27.083,0,0,0-4.564-.352A27.093,27.093,0,0,1,437.4,424.069Zm.181-2.48a28.994,28.994,0,0,0-4.476-.318A29.006,29.006,0,0,1,437.578,421.588Zm-4.546-.318h0Zm-1.759-9.585h0Zm-.066,0a32.444,32.444,0,0,1-6.8-.631A32.438,32.438,0,0,0,431.208,411.685Zm4.806-.158.033,0Zm.428-.024.254-.014Zm-12.1-.465-.165-.037Zm5.436-1.631h0Zm-.062,0a32.3,32.3,0,0,1-4.834-.3A32.3,32.3,0,0,0,429.714,409.407Zm-259.047-5.269q.751-5.244,1.766-10.717c10.33-7.216,11.856-23.873,11.857-37.644,0,13.771-1.527,30.428-11.857,37.644a227.583,227.583,0,0,1,11.815-41.632q2.922-7.42,6.543-14.8c.3,6.11.593,12.224.594,18.335,0-6.111-.294-12.225-.594-18.335a181.769,181.769,0,0,1,9.831-17.49c.566-.887,1.135-1.764,1.708-2.641q2.6-4.012,5.246-7.875c40.489-59.346,84.324-92.373,66.373-113.184a10.9,10.9,0,0,0-5.353-3.689,9.024,9.024,0,0,0-6.426.9c-12.16,6-26.336,34.074-43.985,52.587a83.376,83.376,0,0,1-7.789,7.263c.075-.27.151-.539.227-.808-.076.27-.152.538-.227.808a43.355,43.355,0,0,1-14.674,8.2s-.871-2.034-2-5.768a120.789,120.789,0,0,1-4.357-22.063c5.222-27.3,14.735-52.386,32.014-66.61-6.7,9.908-13.581,23.687-20.752,45.109a3.653,3.653,0,0,0,1.815.228c4.471-.254,17.975-5.073,48.727-43.485.667-.832,1.321-1.641,1.965-2.434q3.536-4.333,6.644-7.858c.2.059.387.108.579.166q.33.1.66.2-.33-.1-.66-.2c-.192-.058-.383-.107-.579-.166a91.459,91.459,0,0,1,12.42-12.1c7.8-5.917,12.609-5.066,15.812,1.553,1.987,4.111,3.356,10.445,4.439,18.768l-.224.031.224-.031q.552,4.226,1.015,9.125c.439,4.546.839,9.518,1.232,14.887h0q.257,3.491.513,7.195.375,5.328.768,11.091c.794,11.51-2.189,23.121-7.639,34.931A160.524,160.524,0,0,1,277.8,262.584c-6.189,9.694-13.529,19.56-21.334,29.644-4.666,6.025-9.5,12.131-14.351,18.325,4.4-27.327,18.888-51.914,38.7-63.285l.117-.067-.117.067c-19.809,11.371-34.3,35.958-38.7,63.285-10.512,13.418-21.133,27.258-30.388,41.651l-.056-.314.056.314q-1.956,3.043-3.828,6.123c-14.748,24.262-25.129,50.091-24.323,78.042l-1.147,2.412a42.321,42.321,0,0,1-14.5,3.194A274.808,274.808,0,0,1,170.667,404.138Zm36.925-90.72q-.021-1.435-.022-2.872Q207.572,311.983,207.593,313.418Zm48.869-21.191a85.223,85.223,0,0,1,3.611-7.875A84.99,84.99,0,0,0,256.462,292.228ZM295.2,197.606l-.159-.06Zm-.442-.166-.118-.044Zm-.417-.155-.108-.04Zm-.293-.109c-7.781-2.874-15.578-5.112-23.367-5.121C278.474,192.064,286.272,194.3,294.053,197.175Zm-23.42-5.121h0Zm.659-7.165q.278,0,.557.008-.278-.006-.557-.008Zm-.082,0h0Zm-.088,0h0Zm-.212,0h0Zm17.632-8.963h0Zm-.063,0c-8.755-.019-16.944-4.04-25.261-7.083C271.534,171.885,279.722,175.906,288.478,175.925ZM263.1,168.8l-.064-.023Zm-.708-.255-.316-.112Zm-3.377-1.128-.25-.076Zm-.376-.114-.1-.03Zm-.193-.058-.2-.059Zm-.36-.106a39.742,39.742,0,0,0-4.954-1.1A39.776,39.776,0,0,1,258.082,167.138Zm30.851-.5h0Zm-.044,0c-8.254-.012-16.126-3.87-24.062-6.784C272.764,162.772,280.634,166.631,288.889,166.642Zm-24.2-6.835-.024-.009Zm-.455-.165-.2-.07Zm-.443-.159h0Zm-.649-.228-.041-.014Zm-.347-.12,0,0Zm-1.077-.359-.341-.11Zm20.914-10.384h0Zm-.062,0a25.3,25.3,0,0,1-7.839-1.335A25.291,25.291,0,0,0,282.568,148.392Zm5.271-.712.02-.006Zm-13.11-.623-.245-.082ZM208.795,407.2a49.4,49.4,0,0,1-6.761,15.141C204.535,416.991,206.773,411.944,208.795,407.2ZM376.128,380.52c.224,4.725.231,8.514-.14,10.269a2.676,2.676,0,0,1-.273.806,5.31,5.31,0,0,1-2.231,1.514c-3.232,1.5-9.461,3.364-16.618,6.347C362.983,392.813,369.494,386.619,376.128,380.52Zm-71.551,6.324q-.2-1.536-.409-3.107a2.683,2.683,0,0,0,.576.065,2.689,2.689,0,0,1-.576-.065q-.18-1.326-.368-2.671c-.15-1.08-.3-2.162-.459-3.253q1.074-2.125,2.15-4.244c2.061-7.913,3.87-16.278,6.755-23.684a21.329,21.329,0,0,1,3.018-5.466,11.263,11.263,0,0,0,1.252,1.371c2.767,2.567,8.019,4.962,18,4.715h0c.761-.017,1.552-.052,2.368-.1a11.978,11.978,0,0,1-.784,1.573c-3.265,5.454-9.491,6.471-13.824,10.079,4.334-3.609,10.56-4.624,13.825-10.079a11.973,11.973,0,0,0,.783-1.573q2.776-.175,6.007-.614c-2.492,12.849-17.65,14.458-24.671,21.328-3.564,3.487-5.509,8.326-7.783,13.171-1.4,2.986-3.008,6.051-5.2,8.15C305.043,390.613,304.822,388.748,304.578,386.844Zm0,0a14.442,14.442,0,0,0,4.94-4.593A14.45,14.45,0,0,1,304.578,386.844Zm2.862-4.992-.048.08.048-.08Zm-2.8-2.447c.308-.61.621-1.225.93-1.836C305.261,378.179,304.948,378.793,304.64,379.4Zm1.024-1.832h0Zm-.015,0c-.026,0-.053,0-.079,0C305.6,377.571,305.622,377.573,305.649,377.573Zm.776-.566a1.535,1.535,0,0,0,.068-.2A1.535,1.535,0,0,1,306.425,377.007Zm1.971-5.022a1.334,1.334,0,0,0,.151-.6A1.336,1.336,0,0,1,308.4,371.985Zm-.188-1.439.029.031-.029-.031Zm18.976-14.306a34.277,34.277,0,0,0-13.5,13.181,34.283,34.283,0,0,1,13.5-13.181Zm-15.933,3.179-2.663,9.737q1.331-4.868,2.664-9.737c1.28-4.662,2.427-9.926,5.2-13.544C313.678,349.493,312.532,354.756,311.251,359.419Zm20.934-6.054-.146.116.146-.116ZM425.2,364.072c-.124-.805-.264-1.615-.4-2.421,4.266-4.046,8.572-8.023,12.765-12.2.124.826.247,1.654.364,2.49q.882,6.249,1.431,12.842a111.535,111.535,0,0,0-12.706,13.561A133.349,133.349,0,0,0,425.2,364.072Zm-122.57,8.687c-.208-1.517-.416-3.041-.615-4.579h0c-1.6-12.359-2.68-25.28-.8-37.408.231-1.495.5-2.977.829-4.445.065-.283.133-.569.2-.855v0a121.667,121.667,0,0,1,10.816-29.23q1.585-3,3.333-5.876c6.543-10.743,14.764-19.933,24.3-26.053a53.263,53.263,0,0,1,9.749-4.956h0c10.18-3.878,21.5-4.3,33.624.188a53.167,53.167,0,0,1,16.365,10.064,31.509,31.509,0,0,1-6.3,5.4,31.509,31.509,0,0,0,6.3-5.4,75.769,75.769,0,0,1,7.113,7.147c9.193,10.509,17.279,25.032,23.1,43.039A143.274,143.274,0,0,1,418.3,338.231c-13.018-31.669-38.808-41.919-61.553-38.935a58.107,58.107,0,0,0-5.981,1.111,53.648,53.648,0,0,0-27.09,15.452q-1.11-.087-2.218-.088,1.107,0,2.218.088-1.025,1.127-1.959,2.314a37.9,37.9,0,0,0-7.46,15.384c-5.005,5.2-6.683,14.367-8.726,21.822l-.439,1.6.439-1.6c2.042-7.455,3.72-16.622,8.726-21.822a35.345,35.345,0,0,0-.693,4.511c-.056.637-.1,1.274-.12,1.921a8.281,8.281,0,0,0,1.824,4.43,21.355,21.355,0,0,0-3.017,5.466c-2.885,7.406-4.693,15.771-6.755,23.684q-1.078,2.121-2.15,4.244C303.108,376.142,302.867,374.459,302.633,372.759Zm-1.143-42.476c3.263-5.767,7.851-10.038,14.405-11.517C309.341,320.244,304.753,324.515,301.49,330.283Zm14.777-11.6.077-.016Zm5.252-.513h0Zm-.217,0h0Zm35.313-18.964-.347-.244Zm-.469-.328a53.243,53.243,0,0,0-29.851-9.6A53.252,53.252,0,0,1,356.148,298.879Zm-27.706-4.9q-.758-.026-1.52-.027Q327.684,293.953,328.442,293.979Zm-1.582-.027h0Zm56.32-3.452a29.3,29.3,0,0,1-9.266-.6A29.288,29.288,0,0,0,383.18,290.5Zm-9.56-.67-.116-.028Zm-47.379-.549h0Zm77.524-8.526a37.109,37.109,0,0,1-13.463,8.22,37.125,37.125,0,0,0,13.464-8.22,47.315,47.315,0,0,0,3.338-3.479A47.026,47.026,0,0,1,403.765,280.756Zm-22.119-1.731h0Zm-.047,0c-10.446-.017-19.743-8.24-28.559-17.121C361.857,270.785,371.151,279.008,381.6,279.025Zm12.233-3.815h0Zm-40.809-13.322-.2-.2Zm-.411-.415.2.207-.2-.207-.269-.271ZM422.8,352.129c-.426-1.725-.9-3.386-1.389-5.017-.937-3.126-1.974-6.1-3.119-8.881A143.274,143.274,0,0,0,430.65,319.8q1.61,4.972,2.979,10.291,2.356,9.179,3.935,19.368c-4.192,4.173-8.5,8.151-12.766,12.2C424.25,358.493,423.593,355.317,422.8,352.129ZM319.245,233.362c-4.557-7.617-3.558-18.045-1.2-27,.546-2.08,1.168-4.075,1.811-5.944,2.156.67,4.315,1.245,6.481,1.69a11.7,11.7,0,0,0,5.217,7.2,19.1,19.1,0,0,0,7.7,2.421c4.186.523,7.359-1.4,9.767-4.533,6.328-8.225,7.337-24.76,7.376-26.96.032-1.7,1.558-1.972,2.894-1.881l0,0c3.916,13.581.651,21.76-5.627,26.3,6.279-4.544,9.544-12.723,5.628-26.3l0,0a9.473,9.473,0,0,1,1.986.364c1.519,12.521,6.836,22.768,17.848,20.109,5.541-1.335,9.158-9.2,11.385-16.687a98.689,98.689,0,0,0,3.028-14.276c.293.555.582,1.114.882,1.664a53.1,53.1,0,0,1,4.283,25.933c-1.083,13.76-6.989,25.358-13.881,27.652-11.392,3.8-28.426-3.035-28.426-3.035-2.446,12.645-13.391,21.4-23.409,21.4C327.683,241.481,322.628,239.017,319.245,233.362ZM223.033,122.021q1.815-2.413,3.746-4.833a12.424,12.424,0,0,0,3.041,4.141c1.942,1.671,4.316,2.026,6.74,2.026-2.424,0-4.8-.355-6.739-2.026a12.415,12.415,0,0,1-3.042-4.141c3.3-4.137,6.856-8.29,10.713-12.459a116.923,116.923,0,0,1-10.563-19.6,66.181,66.181,0,0,1-2.885-8.544,99.383,99.383,0,0,1,20.635-31.314c10.758-10.99,23.009-18.644,35.257-26.326.673,1.956,1.3,4.068,1.864,6.337a83.026,83.026,0,0,1,1.958,11.208c-4.4,5.014-8.953,9.792-13.679,14.286-6.335,6.025-13.037,11.471-18.85,18.38a55.752,55.752,0,0,0-11.89,22.712,43.17,43.17,0,0,0-1.37,9.611,43.17,43.17,0,0,1,1.37-9.611,55.762,55.762,0,0,1,11.89-22.712c5.812-6.909,12.515-12.356,18.85-18.38,4.726-4.494,9.279-9.272,13.679-14.286q.141,1.35.25,2.749a106.116,106.116,0,0,1-.933,23.362q-.214.711-.412,1.429.2-.718.412-1.429a134.945,134.945,0,0,1-2.686,13.469v0A166.061,166.061,0,0,1,274.706,94.1a163.457,163.457,0,0,1-9.62,21.3c-.374-.4-.725-.786-1.046-1.112-.6-.609-1.188-1.189-1.775-1.727.587.538,1.172,1.118,1.774,1.727.322.326.673.709,1.047,1.112-.342.624-.686,1.238-1.031,1.836a98.312,98.312,0,0,1-7.324,11.058c-4.26-2.626-8.69-4.659-13.47-5.079-.447-.039-.907-.055-1.376-.055.47,0,.93.016,1.376.055,4.781.42,9.21,2.453,13.47,5.079-1.486,1.937-2.976,3.709-4.462,5.369-10.112,11.27-20.274,17.243-30.9,32.958-17.279,14.224-26.792,39.312-32.014,66.61C186.6,207.332,189.829,166.178,223.033,122.021Zm14.1,8.221h0Zm-.2-.008-.374-.014Zm2.31-6.976-.213.012.213-.012.27-.015Zm1.226-.063.179-.008Zm1.348-.035h0Zm21.654-6.5-.1-.1Zm-.255-.255-.072-.071Zm-.2-.2-.079-.077Zm-.294-.281-.063-.06Zm-.1-.09-.04-.037Zm-.21-.194-.01-.009Zm-.087-.079-.024-.022Zm-14.941-4.4h0Zm-.067,0a10.867,10.867,0,0,1-6.193-1.454A10.866,10.866,0,0,0,247.327,111.166Zm2.663-.052.179,0Zm.179,0,.135,0Zm-9.036-1.4-.086-.059Zm15.3-.573.143.036-.143-.036Zm-.182-.043a15.647,15.647,0,0,0-3.458-.34A15.649,15.649,0,0,1,256.254,109.1Zm-8.113-.212h0Zm-2.532-.155a17.853,17.853,0,0,0,2.477.155,17.856,17.856,0,0,1-2.477-.155c-4.344-.612-5.658-4.18-5.666-8.341C239.951,104.55,241.266,108.117,245.61,108.729Zm3.611.136.378-.013Zm1.207-.046-.334.014.334-.014Zm2.287-.064h0Zm9.77-6.915h0Zm-.054,0a14.122,14.122,0,0,1-7.393-2.151A14.119,14.119,0,0,0,262.431,101.841Zm-7.4-2.157-.119-.082Zm-.594-.446c-2.479-2.046-3.536-5.391-3.533-8.906C250.9,93.847,251.956,97.192,254.435,99.238Zm7.972-.047h0Zm-.05,0c-3.17-.006-6.31-.569-8.27-4.028C256.046,98.623,259.186,99.186,262.357,99.191Zm9.032-32.549q-1.287,11.421-2.572,22.839c-.54,4.773-1.535,9.638-5.929,9.706,4.394-.068,5.389-4.933,5.929-9.706q1.282-11.421,2.572-22.839l0-.033ZM254.046,95.09a10.75,10.75,0,0,1-1.392-5.278A10.75,10.75,0,0,0,254.046,95.09Zm-27.117-9.96a82.993,82.993,0,0,1,14.228-26.772A82.967,82.967,0,0,0,226.929,85.13ZM271.419,60.6a.873.873,0,0,0-.215.146q-5.527,5.883-11.054,11.764c-2.667,2.847-5.516,5.733-7.373,9.593,1.857-3.86,4.706-6.746,7.373-9.593q5.521-5.888,11.054-11.764a.853.853,0,0,1,.214-.146q0-.051.007-.1Q271.423,60.554,271.419,60.6ZM260,75.619c3.42-3.749,6.911-7.392,10.382-11.06C266.909,68.226,263.419,71.87,260,75.619ZM271.4,66.534a1.049,1.049,0,0,1,.974-.965h0A1.049,1.049,0,0,0,271.4,66.534Zm.536-1.406c-.526.794-1.46.264-1.56-.57C270.481,65.393,271.415,65.922,271.941,65.128Zm.024-.037.009-.016Zm1.158-6.694a12.8,12.8,0,0,1,.092,1.523,12.8,12.8,0,0,0-.092-1.523.932.932,0,0,0-.46-.785A.932.932,0,0,1,273.123,58.4Zm-1.721.569a7.371,7.371,0,0,1,.049.876,7.39,7.39,0,0,0-.049-.877,1.72,1.72,0,0,1-.013-.2A1.729,1.729,0,0,0,271.4,58.967Zm48.457,141.45a94.184,94.184,0,0,1,5.353-12.59c.173,5.054-.049,10.107,1.128,14.28C324.175,201.662,322.016,201.086,319.859,200.417Zm73.687-32.549.017-.15c.306.6.589,1.2.865,1.813C394.128,168.982,393.839,168.423,393.546,167.868Zm-63.777-10.4c-19.656-6.549-9.47-44.927,11.6-78.939a156.078,156.078,0,0,0-1.63,20.012,209.773,209.773,0,0,0,4.3,44.656,209.726,209.726,0,0,1-4.3-44.656,156.073,156.073,0,0,1,1.629-20.012c2.358-3.805,4.852-7.552,7.457-11.2,13.24-18.536,29.312-34.352,44.734-40.774,0,0-54.682,47.433-44.047,85.376,0,0,7.213,13.282,20.5,4.933,0,0-3.6,25.758-17.37,37-4.377-17.73-7.6-35.827-7.6-54.085,0,18.258,3.226,36.355,7.6,54.085a23.585,23.585,0,0,1-5.389,3.34,21.222,21.222,0,0,1-8.659,1.8A27.938,27.938,0,0,1,329.769,157.472ZM223.008,64.507s16.765-13.662,27.4-25.8c5.662-6.467,10.677-17.022,14.131-25.478q.663-1.628,1.249-3.136,4.147-2,8.41-3.565c.374.621.761,1.287,1.151,2a65.547,65.547,0,0,1,4.592,10.425c-12.248,7.682-24.5,15.336-35.257,26.326a99.383,99.383,0,0,0-20.635,31.314A31.354,31.354,0,0,1,223.008,64.507ZM269.184.634c.134-.409.206-.634.206-.634s.2.2.556.6a42.381,42.381,0,0,1,4.247,5.921q-4.263,1.561-8.41,3.565C267.539,5.57,268.733,2.018,269.184.634Z" transform="translate(1456.146 197) rotate(14)" fill="#bf9743"/><path d="M45.668,626.373l-.479,0h0l-.519,0h0c-2.691-.026-5.441-.1-8.374-.233h0l-.2-.009-.322-.015h-.031l-.189-.009-.254-.012c-1.566-.075-3.183-.168-4.814-.277-3.127-.208-6.363-.48-9.628-.809v0l-.614-.064h0l-.4-.042c-.958-.1-1.95-.211-2.955-.326-5.524-.637-11.16-1.443-16.753-2.4l-.4-.068L-.3,621.4c-.2-5.174-.245-9.789-.15-14.11l.009-.393.384-.084c5.222-1.146,10.493-2.475,15.668-3.95l.017,0c1.054-.3,2.217-.643,3.557-1.043,5.174-1.557,10.406-3.313,15.552-5.219l.035-.013c2.259-.839,4.5-1.706,6.674-2.578,3.695-1.488,7.37-3.069,10.928-4.7h0l.175-.08c.816-.375,1.653-.769,2.462-1.15l.093-.044c4.871-2.3,9.739-4.8,14.468-7.423l.013-.007c1.278-.71,2.539-1.425,3.75-2.125a241.084,241.084,0,0,0,63.994-53.626c.3-.359.607-.729.907-1.093h0l.611-.741.074-.089.056-.068c3.044-3.694,5.826-7.258,8.5-10.894.143-.2.284-.39.425-.584s.3-.42.46-.632c1.087-1.489,2-2.739,2.9-3.99l.014-.019c4.321-6,8.509-12.034,12.449-17.934l.135-.2c2.813-4.218,5.61-8.531,8.314-12.823l.02-.032c7.633-12.14,14.666-24.39,20.9-36.414,2.941-5.666,5.8-11.454,8.488-17.2h0c2.334-5,4.544-9.943,6.754-15.125h0c3.056-7.174,5.591-13.589,7.457-18.375l.027-.07c.705-1.809,1.377-3.544,2.026-5.222,7.13-18.423,11.057-28.571,18.786-30.181a6.136,6.136,0,0,1,1.246-.131c2.054,0,3.979,1.047,5.884,3.2l.1.115c3.741,4.306,6.878,12.3,10.413,22.375V378.7l1.1,3.175.639,1.85c2.128,6.163,4.328,12.535,6.784,18.5a82.489,82.489,0,0,0,8.238,15.884,37.1,37.1,0,0,0,2.775,3.514,23.848,23.848,0,0,0,4.238,3.766l.027.018a17.647,17.647,0,0,0,1.527.916,14.332,14.332,0,0,0,6.842,1.764,16.144,16.144,0,0,0,4.086-.55,21.569,21.569,0,0,0,5.989-2.514l.024-.015c3.877-2.433,6.4-6.12,7.714-11.271,1.193-4.679,1.421-10.63.718-18.73-.068-.789-.146-1.612-.24-2.517l-.01-.1c-.163-1.571-.358-3.25-.6-5.118l-.047-.365-.011-.083-.036-.28h0c-.112-.875-.22-1.691-.327-2.478l-.036-.262-.025-.184-.018-.13q-.114-.834-.231-1.675l-.094-.682c-.08-.577-.158-1.133-.235-1.678l0,.006-.22-1.572v-.007l-.022-.156h0q-.119-.85-.24-1.705c-.147-1.044-.3-2.123-.447-3.194-.091-.664-.181-1.323-.271-1.982l-.006.024-.339-2.624c-1.488-11.515-2.746-24.981-.8-37.549.24-1.553.521-3.059.835-4.477.03-.131.06-.26.09-.39.036-.155.073-.311.108-.467l.024-.1a123.267,123.267,0,0,1,4.456-14.9,119.785,119.785,0,0,1,6.383-14.348c1.058-2,2.184-3.989,3.348-5.9a93.96,93.96,0,0,1,11.087-14.84,69.213,69.213,0,0,1,13.37-11.374,53.928,53.928,0,0,1,9.841-5l.3-.115h0a46.163,46.163,0,0,1,16.194-2.962,50.306,50.306,0,0,1,17.478,3.263,53.305,53.305,0,0,1,16.149,9.834h0l.357.312.014.012.383.334v0a77,77,0,0,1,6.779,6.858,103.24,103.24,0,0,1,12.878,18.8,144.28,144.28,0,0,1,9.969,23.329l0,0,.317.979.036.112,0,.009.039.12.025.078h0c1.038,3.22,2.02,6.621,2.92,10.113,1.516,5.906,2.791,12.107,3.794,18.446l.005-.005.144.965,0,.011.039.251h0c.121.813.226,1.52.327,2.244.544,3.854,1,7.833,1.346,11.843l0,0,.1,1.272h0l.023.285c.051.621.1,1.263.149,1.9.316,4.352.518,8.824.6,13.31h0l.006.349c0,.237.008.474.011.711v.009c.024,1.537.031,3.233.02,5.184-.013,2.863-.075,5.813-.186,8.771h0l-.009.237v.025l-.039,1.027,0,0c-.055,1.3-.117,2.576-.185,3.811-.155,2.75-.334,5.34-.548,7.9h0l-.087,1.007c-.038.427-.078.856-.118,1.275q-.028.3-.056.6c-.318,3.408-.7,6.874-1.137,10.3l-.071.561c-.078.622-.159,1.266-.245,1.9-1.023,7.557-2.367,15.36-4,23.193L434,447.4l-.041.2-.062.3h0c-.122.577-.247,1.156-.368,1.72-.641,2.986-1.361,6.13-2.143,9.354h0l-.128.517h0l-.111.455h0l-.12.492c-.1.429-.212.873-.322,1.311-.766,3.049-1.608,6.214-2.5,9.418h0l-.162.579c-1.32,4.7-2.628,9.064-4,13.351-.021.066-.044.136-.067.205-.018.054-.036.107-.053.161l-.113.349C422.1,491.1,420.145,496.3,418,501.3l.014-.01-.716,1.623-.044.1-.013.03a162.747,162.747,0,0,1-7.762,15.335c-1.612,2.8-3.311,5.555-5.048,8.18a147.124,147.124,0,0,1-10.21,13.638h0l-.045.053-.034.04-1.327,1.569.007-.032A138.464,138.464,0,0,1,375.049,558.9a134.822,134.822,0,0,1-13.639,9.6h0l-.166.1-.094.057-1,.615,0-.009A134,134,0,0,1,334.5,581.166c-.753.255-1.5.5-2.23.738h0l-.228.073-.029.009-.967.31,0-.007a135.1,135.1,0,0,1-14.977,3.724h0l-.217.04h-.006l-1.112.208.005-.008c-.5.089-.976.169-1.433.244l-.01,0-.611.1-.516.085,0,0a133.7,133.7,0,0,1-20.79,1.635v-1a132.72,132.72,0,0,0,21.535-1.769c1.4-2.136,2.737-4.35,3.977-6.584a127.049,127.049,0,0,0,8.172-17.978c1.114-3.045,2.135-6.17,3.054-9.353.966-3.344,1.822-6.753,2.56-10.2.886-4.135,1.664-8.607,2.5-14.394-2.262,1.134-4.49,2.186-6.633,3.13a87.757,87.757,0,0,1-9.983,3.687c-2.593.786-5.258,1.458-7.925,2a80.073,80.073,0,0,1-5.5,11.4l-.862-.507a78.419,78.419,0,0,0,5.191-10.66,91.356,91.356,0,0,1-10.21,1.335c-.652.048-1.338.09-2.142.131-.68,1.017-1.316,1.922-1.94,2.762-.312.421-.632.843-.952,1.252l-.789-.615c.315-.4.63-.818.937-1.233.486-.655.981-1.351,1.5-2.111-1.28.049-2.544.074-3.769.074-.664,0-1.33-.007-1.981-.022l-.591-.014.566.413c-.183.251-.4.547-.621.835l-.794-.608h0l.018-.023c.165-.216.324-.431.467-.626-.4-.012-.8-.027-1.183-.043a54.864,54.864,0,0,1-9.27,9.385,43.2,43.2,0,0,1-23.338,9.383l-.075-1a42.2,42.2,0,0,0,22.8-9.173,53.478,53.478,0,0,0,8.659-8.658c-2.316-.126-4.693-.336-7.081-.627-.73-.088-1.409-.177-2.067-.269a42.338,42.338,0,0,1-16.591,11.508l-.265.1-.244.087a34.76,34.76,0,0,1-11.623,2.037,32.646,32.646,0,0,1-7.2-.8l.221-.975a31.656,31.656,0,0,0,6.977.777,33.772,33.772,0,0,0,11.313-1.987l.216-.077.262-.1a41.187,41.187,0,0,0,15.742-10.744c-2.163-.329-4.37-.73-6.575-1.194l-.158-.033c-.787-.165-1.637-.355-2.6-.581h0a137.336,137.336,0,0,1-16.162-4.893,87.275,87.275,0,0,1-19.173,5.757c-7.926,1.486-15.924,2.377-23.706,3.2l-2.1.22-.218.023-2.357.247-.1-.994,2.332-.245.244-.026c2.443-.256,4.91-.514,7.392-.791,6.07-.678,12.228-1.469,18.333-2.613a87.143,87.143,0,0,0,18-5.28c-1.558-.592-3.127-1.22-4.682-1.872a112.012,112.012,0,0,1-24.464,5.219c-3.418.4-6.86.77-10.19,1.128-4.147.446-8.432.906-12.6,1.419l-.876,2.112c.326.53.687,1.1,1.148,1.81a98.548,98.548,0,0,0,17.619,20.345,106.722,106.722,0,0,0,22.132,14.933l.558.036c.3.02.616.041.923.058l-.035.627.246.12.042-.732h0c.411.024.825.046,1.234.066l.506.024c2.114.1,4.2.147,6.193.147v1h0c-2.009,0-4.108-.05-6.238-.148-.367-.017-.739-.035-1.111-.055a118.405,118.405,0,0,0,20.891,7.66,127.428,127.428,0,0,0,32.51,4.17l0,.5v.5a128.434,128.434,0,0,1-32.767-4.2,118.87,118.87,0,0,1-23.22-8.785h0l-.065-.033-.027-.014-2.157-1.093.064,0a107.29,107.29,0,0,1-20.339-14.032,99.548,99.548,0,0,1-17.8-20.552c-.529-.817-.928-1.449-1.295-2.05l-.133-.217,1.213-2.924,4.892-11.788,7.16-17.257.521.425c.005,0,.515.42,1.461,1.132a159.886,159.886,0,0,0,20.561,12.951l.018.01c1.046.556,2.147,1.127,3.273,1.7,3.391,1.712,6.817,3.3,10.183,4.716h0l.179.075.009,0,.4.166c1.792.748,3.6,1.463,5.387,2.127h0l.19.071a136.548,136.548,0,0,0,16.1,4.9l.129.03c.862.2,1.632.376,2.346.527h0l.232.048c2.553.541,5.109,1,7.6,1.353l.027,0c.725.1,1.473.2,2.284.3,2.608.318,5.2.539,7.717.657h0l.236.011h.022l.311.014c.655.028,1.346.049,2.06.064.644.014,1.3.021,1.959.021,1.524,0,3.109-.039,4.712-.115h.014c.9-.045,1.648-.09,2.355-.141a90.2,90.2,0,0,0,10.875-1.471l.111-.022c2.725-.543,5.45-1.226,8.1-2.029a86.772,86.772,0,0,0,9.869-3.645c2.324-1.024,4.749-2.176,7.21-3.423h0l.232-.118.025-.013.186-.094c.585-.3,1.159-.6,1.7-.881,3.55-1.867,7.125-3.924,10.63-6.115l.2-.125c.627-.393,1.2-.75,1.766-1.116l.109-.071a181.514,181.514,0,0,0,30.9-25.227,177.616,177.616,0,0,0,25.429-32.619c.4-.67.933-1.555,1.452-2.452,2.42-4.168,4.661-8.452,6.659-12.733.4-.85.7-1.511.977-2.126l.044-.1a149.854,149.854,0,0,0,6.55-17.422l.083-.271c.238-.786.468-1.564.682-2.317,1.057-3.7,1.965-7.447,2.7-11.133.121-.616.246-1.269.37-1.94l0-.018a134.412,134.412,0,0,0,2.2-27.544c-.02-.9-.052-1.836-.1-2.78l-.01-.223v-.027l-.009-.182h0a133.478,133.478,0,0,0-1.436-14.041c-.087-.569-.184-1.147-.282-1.718l-.121-.694c-.565-3.249-1.234-6.441-1.989-9.487-.378-1.529-.817-3.116-1.382-4.993-.943-3.149-1.987-6.121-3.1-8.835-10.219-24.86-29.742-39.119-53.561-39.119a57.181,57.181,0,0,0-13.395,1.591,53.187,53.187,0,0,0-26.837,15.3v0c-.645.71-1.3,1.479-1.934,2.286a37.268,37.268,0,0,0-7.364,15.182l-.017.075a34.977,34.977,0,0,0-.666,4.372c-.059.678-.1,1.292-.118,1.875a7.925,7.925,0,0,0,1.663,4.051l.058.075a10.81,10.81,0,0,0,1.2,1.31,15.243,15.243,0,0,0,5.7,3.174,34.4,34.4,0,0,0,10.557,1.425c.453,0,.92-.006,1.388-.017.709-.015,1.475-.048,2.343-.1h.006c1.836-.116,3.8-.315,5.835-.592l.136-.019c.559-.077,1.117-.158,1.658-.242a142.577,142.577,0,0,0,15.757-3.478l1.562-.438.065-.019c3.434-.979,7.018-2.1,10.654-3.327l.585-.2.072.613c0,.039.394,3.363.908,8.22l0-.009.271,2.627c.286,2.769.532,5.264.755,7.628.715,7.528,1.207,13.831,1.465,18.758l0,0,.051,1.068.005.114.006.12h0c.236,5.12.182,8.538-.162,10.162a3.069,3.069,0,0,1-.335.964h0a5.516,5.516,0,0,1-2.447,1.706c-1.557.722-3.828,1.538-6.457,2.482-3.016,1.084-6.435,2.312-10.179,3.872l-.218.091c-14.485,6.077-24.571,13.6-30.832,22.981-4.933,7.393-8.734,15.817-12.409,23.963-5.816,12.891-11.309,25.067-20.368,30.727a21.952,21.952,0,0,1-5.1,2.342v0l-.189.056-.024.007-1.074.321.017-.036a22.46,22.46,0,0,1-2.992.513,24.959,24.959,0,0,1-2.558.135v-1a23.968,23.968,0,0,0,2.455-.13,21.219,21.219,0,0,0,3.653-.7c2.069-4.386,4.021-8.81,6.308-14.083,4-9.226,7.837-17.373,11.732-24.907a258.109,258.109,0,0,1,13.181-22.772c10.011-15.33,20.888-27.786,33.25-38.078.867-.721,1.762-1.452,2.629-2.16,6.728-5.492,13.685-11.171,17.527-20.345a32.159,32.159,0,0,0,1.3-3.792c-.5-4.863-.934-8.684-1.1-10.117-3.322,1.114-6.6,2.135-9.751,3.041v0l-.364.1-1.633.458a143.574,143.574,0,0,1-15.87,3.5c-.434.068-.878.133-1.325.2a16.8,16.8,0,0,1-5.86,9.5,49.376,49.376,0,0,1-9.617,5.885c-3.538,1.812-6.88,3.524-9.263,5.856-3.046,2.98-4.881,6.963-6.824,11.181-.278.6-.566,1.229-.856,1.846a28.45,28.45,0,0,1-5.134,8.127c.083.817.154,1.57.217,2.293.713,8.214.476,14.271-.746,19.063a25.877,25.877,0,0,1-.823,2.647,191.927,191.927,0,0,1,15.463-19.165l.036-.039.049-.053.14-.151h0l.438-.468.122-.13.346-.366.1-.1c.356-.375.718-.753,1.075-1.122l.718.7c-.355.366-.714.741-1.068,1.114l-.075.079a201.412,201.412,0,0,0-21.243,27.12l-.068.1-.017.025c-10.009,15.063-18.966,31.718-27.884,48.808-.3.58-.613,1.18-.948,1.834l-.89-.456h0l.1-.188c.293-.571.58-1.127.855-1.654,6.544-12.539,14.226-27.048,22.6-40.559q2.427-3.915,4.832-7.558a17.839,17.839,0,0,1-1.936,1.415c-5.686,8.755-11.39,18.471-17.943,30.567-2.732,5.045-5.4,10.414-7.984,15.607-.627,1.262-1.274,2.563-1.917,3.849.312.249.625.484.933.7l.174.123a18.5,18.5,0,0,0,10.907,3.36l0,.5v.5a20.48,20.48,0,0,1-6.319-.964,19.734,19.734,0,0,1-5.341-2.7l-.349-.248,0,0q-.232-.171-.464-.353l0,.007-.425-.35-.06-.05-.306-.253v0c-3.387-2.894-6.43-7.157-9.293-13.016q-.251-.512-.494-1.027l0,.007-.435-.95c-.743-1.624-1.495-3.394-2.3-5.409-.441-1.108-.891-2.274-1.367-3.543v0l-.34-.916-.016-.043-.073-.2h0c-.7-1.9-1.4-3.844-2.074-5.725-1.283-3.579-2.61-7.281-3.992-10.722-.427-1.062-.842-2.1-1.243-3.1-.51-1.277-.992-2.483-1.463-3.646-2.1-5.2-3.73-8.89-5.37-11.22l-.013-.018c-1.177-1.666-2.273-2.476-3.352-2.476-2.628,0-5.94,4.729-10.423,14.884-1.906,4.31-4.115,10.625-6.762,18.409h0l-.712,2.1,0,.007-.034.1-.884,2.606c-1.763,5.2-3.761,11.095-5.947,17.3-3.369,9.575-6.592,18.179-9.836,26.256h0l-.446,1.1-.012.031-.077.19c-.711,1.752-1.371,3.357-2.016,4.9-1.324,3.172-2.656,6.269-3.967,9.224h0l-.509,1.138c-.436.976-.8,1.776-1.137,2.519-1.343,2.952-2.726,5.9-4.116,8.768h0l-.3.606-.109.224,0,.007-.043.089-.074.152c-.252.516-.51,1.034-.759,1.538l-.22.444c-1.557,3.134-3.16,6.246-4.772,9.264h0l-.491.91,0,.009-.11.2c-.844,1.563-1.736,3.183-2.653,4.819a254.919,254.919,0,0,1-20.807,31.583,176.487,176.487,0,0,1-26,27.2,95.254,95.254,0,0,1-18.791,12.137,118.022,118.022,0,0,1-20.894,7.856c-1.536.424-2.971.795-4.385,1.132l-.021.005-.42.1-.493.118v0c-4.11.958-8.424,1.77-12.841,2.414h0l-.165.023c-.65.092-1.246.175-1.813.252h0l-.295.039h-.01l-.8.108,0,0c-5.294.672-10.82,1.126-16.438,1.349-.391.015-.785.027-1.166.039l-.223.007h0l-.423.013h-.018l-.573.019v0c-2.036.057-4.148.086-6.287.086l-1.168,0h-.11Zm.051-1h1.227c2.188,0,4.347-.03,6.424-.091a118.574,118.574,0,0,1,4.857-20.947,104.4,104.4,0,0,1,10.089-21.9c-4.2,2.285-8.492,4.467-12.789,6.5l-.094.044c-.754.355-1.531.721-2.3,1.074a84.5,84.5,0,0,0-3.888,11.433A116.952,116.952,0,0,0,45.719,625.371Zm-9.431-.24c2.955.132,5.722.209,8.429.234a118,118,0,0,1,3.565-24.137A86.262,86.262,0,0,1,51.8,590.663c-3.263,1.478-6.616,2.912-9.984,4.269-2.108.848-4.288,1.691-6.482,2.507a70.052,70.052,0,0,0-3.505,14.781l-.992-.128a71.325,71.325,0,0,1,3.28-14.2c-4.853,1.776-9.776,3.418-14.648,4.884-1.2.36-2.267.672-3.236.951-.022.763-.033,1.549-.034,2.339h-1c0-.691.009-1.379.026-2.051-4.856,1.37-9.792,2.612-14.687,3.694-.082,4.159-.032,8.6.154,13.552,5.444.92,10.926,1.7,16.3,2.32.925.106,1.84.207,2.727.3a156.881,156.881,0,0,1-1.02-16.986h1a156.47,156.47,0,0,0,1.038,17.093c3.327.338,6.624.616,9.809.828,1.607.108,3.2.2,4.743.273q0-.082,0-.165h1Q36.289,625.026,36.289,625.132Zm33.885-43.717-.211.315c-.2.292-.4.593-.588.9a103.2,103.2,0,0,0-10.2,22.02,117.53,117.53,0,0,0-4.792,20.6l.055,0c.379-.012.771-.024,1.157-.039,5.763-.229,11.428-.7,16.843-1.4a171.112,171.112,0,0,1,20.644-40.919A146.8,146.8,0,0,1,122.24,551.3a130.35,130.35,0,0,1,15.709-10.76,127.333,127.333,0,0,1,16.349-7.99,133.593,133.593,0,0,1,16.867-5.5,148.991,148.991,0,0,1,17-3.267c1.483-3.05,2.961-6.19,4.394-9.34.2-.433.4-.885.626-1.38a141.946,141.946,0,0,1-13.474,4.6,162.772,162.772,0,0,1-18.873,4.208A147.57,147.57,0,0,1,141.4,523.7c-.618.016-1.243.029-1.861.037l-.3.36c-.377.459-.767.933-1.153,1.392l-.118.14v.038h-.032A243.092,243.092,0,0,1,106.61,556.64a243.862,243.862,0,0,1-32.779,22.7C72.649,580.023,71.419,580.721,70.173,581.414Zm117.457-56.549c-24.918,3.435-46.112,12.344-64.767,27.221-21.665,17.275-39.155,42.667-49.313,71.567l1.288-.18.014,0c4.679-.678,9.243-1.544,13.569-2.575,8.97-23.944,22.69-44.674,39.688-59.96a94.765,94.765,0,0,1,26.314-16.905,122.2,122.2,0,0,1,27.394-7.858c1.733-3.225,3.458-6.565,5.13-9.931l.22-.444C187.321,525.491,187.476,525.179,187.631,524.865ZM181.21,537.3a120.148,120.148,0,0,0-26.39,7.651,93.781,93.781,0,0,0-26.041,16.73c-16.729,15.044-30.264,35.4-39.181,58.931,1.115-.276,2.254-.574,3.456-.906,15.4-4.24,28.631-10.9,39.31-19.8,17.057-14.2,32.729-33.887,46.579-58.505C179.722,540.015,180.482,538.638,181.21,537.3ZM334.276,526.49c-.883,6.15-1.691,10.833-2.617,15.155a146.972,146.972,0,0,1-5.653,19.688,128.09,128.09,0,0,1-8.236,18.12c-1.1,1.988-2.284,3.959-3.514,5.872.382-.067.78-.138,1.2-.214,9.23-14.845,15.693-33.734,19.214-56.154l.025-.157.016-.1,0-.021.02-.128.019-.122.021-.135.041-.268.022-.143q.052-.341.1-.683l.989.147q-.051.343-.1.686a188.807,188.807,0,0,1-7.116,30.54,127.876,127.876,0,0,1-11.247,25.161q-.336.567-.676,1.125a134.13,134.13,0,0,0,14.725-3.761l.158-.412c6.091-15.913,10.717-34.672,13.389-54.3q.109-.794.217-1.588.149-1.094.3-2.187l.991.136h0l-.011.079q-.157,1.144-.313,2.288-.1.7-.192,1.407a276.168,276.168,0,0,1-5.267,28,220.9,220.9,0,0,1-8.049,26.177c.478-.157.961-.318,1.446-.483a132.991,132.991,0,0,0,26.378-12.363c2.181-7.594,4.13-15.362,5.8-23.094.431-2,.85-4,1.276-6.034l.044-.211.122-.584c.929-4.441,1.869-8.939,2.909-13.376l.01-.044.006-.025a138.041,138.041,0,0,1,6.42-21.052,61.022,61.022,0,0,1,8.073-14.292,45.228,45.228,0,0,1,5.5-5.925,42.7,42.7,0,0,1,6.7-4.918,50.828,50.828,0,0,1,13.968-5.672l.236.972a49.827,49.827,0,0,0-13.693,5.56c-16.3,9.673-22.245,27.788-26.8,48.011-.811,3.6-1.578,7.267-2.351,10.965l-.122.584q-.175.837-.349,1.665c-.323,1.538-.644,3.059-.972,4.585-1.593,7.4-3.445,14.825-5.51,22.1a134.039,134.039,0,0,0,12.605-8.953A137.667,137.667,0,0,0,393.3,539.737q.068-.3.134-.6c.072-.324.145-.658.222-.988l.022-.093a66.394,66.394,0,0,1,8.861-21.067,56.453,56.453,0,0,1,6.491-8.229,49.413,49.413,0,0,1,7.411-6.378,178.118,178.118,0,0,0,6.529-17.228l.114-.347,0-.016c1.318-4.128,2.578-8.327,3.847-12.824l.139-.5c.955-3.393,1.85-6.747,2.66-9.97.109-.435.217-.877.321-1.3l.1-.428-.12-.021.17-.986.189.033c.786-3.237,1.509-6.394,2.152-9.391.129-.6.262-1.21.39-1.82a140.587,140.587,0,0,0-18.515-4.772c-.248.549-.523,1.146-.868,1.884-2.011,4.308-4.266,8.618-6.7,12.811l-.082.141,0,.1h-.023l0-.06c-.489.84-.978,1.658-1.357,2.287a178.626,178.626,0,0,1-25.572,32.8,182.55,182.55,0,0,1-30.9,25.255h0l-.171.111c-.55.354-1.095.7-1.686,1.068l-.2.125c-3.589,2.251-7.254,4.363-10.895,6.277C335.429,525.9,334.858,526.193,334.276,526.49Zm81.343-22.278a49.045,49.045,0,0,0-5.869,5.239,55.451,55.451,0,0,0-6.376,8.083,65.323,65.323,0,0,0-8.67,20.517,146.535,146.535,0,0,0,8.891-12.044c1.726-2.608,3.413-5.342,5.015-8.127C411.12,513.521,413.473,508.931,415.619,504.212Zm-216.1,21.575-3.442,8.3c4-.486,8.09-.926,12.055-1.352,3.327-.358,6.768-.727,10.181-1.127a113.6,113.6,0,0,0,23.2-4.81c-3.058-1.314-6.156-2.761-9.227-4.311-1.07-.543-2.117-1.085-3.115-1.615-7.02,1.9-14.405,2.3-21.346,2.441l-.02-1c6.534-.134,13.461-.493,20.069-2.137a159.869,159.869,0,0,1-19.589-12.442c-.4-.3-.726-.552-.967-.74ZM149.68,510.633l-.516.707c-.155.21-.308.422-.456.626s-.284.393-.429.59c-2.5,3.4-5.1,6.735-7.907,10.171.334-.006.669-.014,1-.023a146.614,146.614,0,0,0,19.313-1.821,161.755,161.755,0,0,0,18.745-4.18,140.855,140.855,0,0,0,14.339-4.953c1.444-3.233,2.918-6.648,4.382-10.156.527-1.26,1.065-2.562,1.632-3.952-2.058.867-4.091,1.656-6.057,2.349a136.13,136.13,0,0,1-41.789,7.536c-.7.966-1.4,1.938-2.2,3.027l.842,0v1l-.906,0Zm14.738-21.072c-3.728,5.578-7.677,11.274-11.749,16.947a135.114,135.114,0,0,0,40.724-7.462c2.241-.79,4.569-1.7,6.924-2.721,3.366-8.335,6.7-17.221,10.2-27.154,2.184-6.2,4.181-12.092,5.943-17.29l.225-.664c-12.816,12.678-27.92,21.4-43.776,25.268-2.719,4.31-5.529,8.641-8.354,12.874ZM294.646,465.5c-2.143,4.943-3.994,9.141-5.922,13.264a21.066,21.066,0,0,0,3.979-1.938c8.8-5.5,14.235-17.541,19.986-30.29,3.692-8.183,7.509-16.645,12.488-24.106a49.708,49.708,0,0,1,6.8-8.107,61.554,61.554,0,0,1,7.947-6.448,91.561,91.561,0,0,1,16.643-8.842c5.2-5.639,10.643-10.907,15.62-15.553l.007-.007,0,0q1.752-1.636,3.417-3.164c-.244-5.027-.749-11.6-1.5-19.544-.155-1.652-.323-3.367-.507-5.2-.2.576-.414,1.127-.638,1.66-3.938,9.4-10.993,15.163-17.816,20.733-.865.706-1.759,1.435-2.621,2.153-12.285,10.228-23.1,22.611-33.053,37.857a292.589,292.589,0,0,0-21.066,39.054l-.015.033-.009.02Q296.529,461.158,294.646,465.5ZM202.47,422.59c-2.692,5.751-5.549,11.54-8.49,17.207-6.075,11.71-12.9,23.637-20.3,35.466,15.417-3.972,30.087-12.591,42.557-25.006l.147-.147.006-.006.251-.252.061-.061.091-.092.035-.035.105-.107.066-.067.421-.43c2.958-8.724,5.388-15.774,7.47-20.483a67.663,67.663,0,0,1,6.21-11.715c1.831-2.533,3.509-3.765,5.128-3.765,1.24,0,2.432.716,3.627,2.183a80.923,80.923,0,0,0,5.8-30.045h1a81.782,81.782,0,0,1-1.638,16.309,83.386,83.386,0,0,1-4.459,14.678,58.611,58.611,0,0,1,4.91,10.164,93.289,93.289,0,0,0,8.4-28.685,99.139,99.139,0,0,0,.548-15.575c-3.982-11.508-7.351-20.67-11.389-25.236l-.095-.107c-1.672-1.855-3.322-2.757-5.04-2.757a5.134,5.134,0,0,0-1.043.11c-7.2,1.5-11.055,11.467-18.058,29.563-.648,1.673-1.317,3.4-2.02,5.206q0,.169,0,.338h-.132c-1.857,4.758-4.355,11.072-7.358,18.121a50.213,50.213,0,0,1-6.746,15.145Zm56.085,37.719.177.388c.293.642.6,1.3.921,1.947,2.749,5.625,5.65,9.732,8.856,12.532.607-1.216,1.218-2.443,1.811-3.636,2.586-5.2,5.26-10.578,8-15.638,6.173-11.395,11.6-20.684,16.961-29.049a23.961,23.961,0,0,1-4.5,1.652,17.142,17.142,0,0,1-4.339.582,15.323,15.323,0,0,1-7.316-1.883c-.406-.219-.78-.435-1.13-.655a177.456,177.456,0,0,1-17.8,32.519l-.821-.57a176.494,176.494,0,0,0,17.778-32.516,25.287,25.287,0,0,1-4.083-3.69c-.764-.847-1.532-1.8-2.292-2.831a146.572,146.572,0,0,1-15.931,31.679c.568,1.526,1.1,2.9,1.611,4.195C257.187,457.174,257.876,458.807,258.555,460.309Zm-12.6-32.693c.449,1.11.908,2.258,1.392,3.471.4,1,.815,2.039,1.242,3.1,1.389,3.459,2.719,7.169,4.006,10.758.593,1.654,1.2,3.356,1.819,5.033a145.87,145.87,0,0,0,15.652-31.508,84.352,84.352,0,0,1-8.2-15.866c-2.308-5.609-4.386-11.559-6.391-17.36a95.621,95.621,0,0,1-.632,12.578,94.53,94.53,0,0,1-8.873,29.8Zm168.887,14.254a142.006,142.006,0,0,1,18.3,4.728c1.539-7.46,2.819-14.889,3.806-22.1-.587-.09-1.2-.159-1.837-.206-.716-.053-1.482-.08-2.277-.08v-1c.82,0,1.611.028,2.351.083.574.042,1.135.1,1.674.179l.222.033c.061-.464.119-.929.176-1.383l.01-.081a28.793,28.793,0,0,0-4.166-.277v-1a29.78,29.78,0,0,1,4.291.285c.409-3.248.768-6.528,1.069-9.755q.028-.3.057-.6c.035-.369.07-.747.1-1.123l-.468.028-.612.038c-1.9.118-3.867.24-5.808.255l-.545,0-.357,0-.009-1,.356,0,.547-.005c1.914-.015,3.865-.136,5.752-.253l1.232-.075c.218-2.6.4-5.222.558-8.013.083-1.492.157-3.049.219-4.629q-.029-.034-.057-.07l.062-.047,0-.1c.116-3.027.182-6.047.195-8.975.008-1.492.006-2.834-.006-4.069-2.419,2.225-5.166,5.483-5.165,9.774h-1a11.892,11.892,0,0,1,2-6.469,22.078,22.078,0,0,1,4.144-4.633c-.073-4.747-.279-9.486-.613-14.09-.033-.464-.07-.929-.107-1.387-.974.918-1.979,1.879-3,2.881a95.9,95.9,0,0,0-8.779,9.754l-.008.011c.045.976.079,1.941.1,2.872a135.346,135.346,0,0,1-2.131,27.262c.685.1,1.415.168,2.225.211l.049,0c.685.035,1.421.052,2.31.053v1c-.929,0-1.7-.019-2.412-.057-.855-.046-1.626-.119-2.353-.225-.063.337-.126.668-.189.991a31.987,31.987,0,0,0,6.448.569v1a32.957,32.957,0,0,1-6.642-.588c-.721,3.552-1.6,7.154-2.618,10.715-.241.845-.5,1.721-.77,2.6l-.109.354A150.836,150.836,0,0,1,414.843,441.871ZM372.565,384.5c-4.409,4.123-9.171,8.728-13.789,13.635,2.987-1.189,5.788-2.2,8.124-3.035,2.607-.937,4.859-1.746,6.374-2.448a5.079,5.079,0,0,0,2.012-1.316l0,0a2.171,2.171,0,0,0,.21-.648,46.05,46.05,0,0,0,.178-9.07Q374.158,383.015,372.565,384.5Zm-67.446,2.631c.191,1.5.355,2.885.5,4.187a30.311,30.311,0,0,0,4.366-7.243c.288-.614.575-1.237.853-1.839,1.983-4.3,3.856-8.369,7.033-11.477,2.492-2.438,5.9-4.183,9.507-6.031,6.421-3.289,13.054-6.686,14.875-14.35-1.744.226-3.432.4-5.029.5a12.289,12.289,0,0,1-.693,1.351c-2.116,3.535-5.42,5.263-8.615,6.935a29.391,29.391,0,0,0-5.32,3.273l-.64-.768.059-.049a30.964,30.964,0,0,1,5.437-3.342c3.072-1.608,6.249-3.27,8.22-6.562.146-.244.286-.5.419-.772-.557.027-1.073.046-1.563.057-.474.012-.949.018-1.411.018a35.38,35.38,0,0,1-10.868-1.474,16.663,16.663,0,0,1-5.653-3.024l-.069.1h0l-.009.013,0,.006,0,0c-2.139,3.048-3.235,7.156-4.3,11.135-.156.585-.317,1.189-.477,1.773q-1.245,4.547-2.489,9.1l-.174.638-.965-.264,2.663-9.737c.16-.581.321-1.185.477-1.769,1.11-4.161,2.257-8.459,4.606-11.676q-.3-.3-.57-.613a21.293,21.293,0,0,0-2.432,4.492q-.069.171-.137.345a155.909,155.909,0,0,0-5.413,18.411c-.43,1.718-.875,3.494-1.324,5.217l-.014.052-.025.048c-.711,1.4-1.415,2.791-2.079,4.1.143,1,.286,2.013.437,3.1l.094.682q.112.813.223,1.618.067,0,.132,0v.964c.078.578.156,1.173.237,1.8a15.1,15.1,0,0,0,4.1-4.066l.015-.023.832.554-.017.025A15.519,15.519,0,0,1,305.119,387.134Zm120.22-25.3c.123.714.248,1.446.359,2.167.673,4.321,1.138,8.684,1.385,12.987A113.655,113.655,0,0,1,438.2,365.193l.091-.086.005,0,.013-.012.052-.049.484-.454c-.357-4.257-.83-8.486-1.407-12.573-.07-.5-.141-.987-.218-1.51l-.054.053c-2.874,2.837-5.841,5.631-8.711,8.334C427.43,359.854,426.376,360.846,425.338,361.83Zm-122.861,6.007.036.279c.2,1.537.4,3.041.615,4.575.147,1.069.3,2.147.446,3.19l.04.283c.459-.907.931-1.839,1.407-2.775.443-1.7.883-3.458,1.308-5.156a156.654,156.654,0,0,1,5.451-18.531q.07-.18.142-.357a22.042,22.042,0,0,1,2.716-4.933,8.588,8.588,0,0,1-1.7-4.414v-.027c.02-.607.06-1.244.122-1.947.081-.908.195-1.812.342-2.7a26.553,26.553,0,0,0-3.519,6.685,95.045,95.045,0,0,0-2.929,9.9c-.322,1.253-.626,2.436-.946,3.6l-.439,1.6-.964-.264.439-1.6c.318-1.16.621-2.34.942-3.589a95.753,95.753,0,0,1,2.962-10,24.632,24.632,0,0,1,4.845-8.341,38.28,38.28,0,0,1,7.508-15.428v-.214h.043v.161l.009-.012v-.149h.118q.567-.709,1.143-1.375l-.068,0c-.368-.015-.734-.022-1.094-.022v-1h0c.642,0,1.3.023,1.957.068l.056,0a54.265,54.265,0,0,1,27.178-15.422c1.616-.385,3.213-.7,4.766-.94a52.644,52.644,0,0,0-29.115-9.2v-1a53.7,53.7,0,0,1,30.1,9.659l.038.027-.279.4.2-.028.2-.291.317.223a58.6,58.6,0,0,1,7.4-.472,56.091,56.091,0,0,1,15.678,2.213,54.293,54.293,0,0,1,15.021,7.005,58.751,58.751,0,0,1,13.292,12.335,74.4,74.4,0,0,1,10.166,17.393,142.6,142.6,0,0,0,11.68-17.507c-5.559-17.109-13.488-31.856-22.936-42.656a75.987,75.987,0,0,0-6.7-6.776,31.876,31.876,0,0,1-6.063,5.125l-.542-.84a30.867,30.867,0,0,0,5.852-4.943,52.293,52.293,0,0,0-15.822-9.636,49.31,49.31,0,0,0-17.131-3.2,45.208,45.208,0,0,0-16.141,3.011l-.254.1a53.073,53.073,0,0,0-9.4,4.813c-8.993,5.771-17.341,14.724-24.143,25.892-1.154,1.9-2.27,3.864-3.318,5.849a121.8,121.8,0,0,0-10.771,29.108l-.023.1q-.043.188-.087.375t-.088.382q-.191.862-.365,1.767.31-.473.632-.926a24.805,24.805,0,0,1,4.352-4.76,20.432,20.432,0,0,1,8.632-4.242l.22.975h0q-.216.049-.429.1a19.427,19.427,0,0,0-7.784,3.934,25.811,25.811,0,0,0-5.848,7.206l-.019.033-.149-.085q-.032.2-.064.4C299.8,343.192,301.015,356.454,302.478,367.837Zm116.39-29.526c1.087,2.671,2.1,5.582,3.025,8.658.57,1.894,1.014,3.5,1.4,5.041.689,2.782,1.308,5.684,1.841,8.64.876-.828,1.757-1.658,2.615-2.466,2.927-2.757,5.955-5.608,8.878-8.5l.409-.405c-1.014-6.557-2.322-12.971-3.887-19.069-.813-3.155-1.694-6.235-2.622-9.173A144.708,144.708,0,0,1,418.868,338.311ZM245.336,575.694v-1h.061v1Zm8.243-11.285v-1h.049v1Zm0,0h0c-.371,0-.748,0-1.12-.015l.026-1h.011c.359.009.724.014,1.083.014Zm0-2.3h0c-1.08,0-2.171-.043-3.245-.127-5.4-.424-10.615-2.236-15.66-3.988-2.214-.769-4.471-1.553-6.753-2.222l-.012,0-.012,0c-1.585-.464-3.181-.872-4.782-1.181a34.725,34.725,0,0,0-5.663-.573c-.155,0-.34-.006-.537-.008a13.057,13.057,0,0,1-3.21-.308c-1.766-.483-2.136-1.541-2.136-2.342h1c0,1.488,2.247,1.632,4.354,1.65.2,0,.392,0,.557.008a35.693,35.693,0,0,1,5.823.59c1.254.242,2.5.543,3.743.882l.016,0,.008,0,.038.011h0c2.675.736,5.312,1.652,7.889,2.547,4.986,1.732,10.141,3.522,15.411,3.936,1.048.082,2.114.124,3.168.124a42.253,42.253,0,0,0,14.149-2.478l.334.942A43.251,43.251,0,0,1,253.578,562.109Zm-4.543-3.318h-.007v-1h.007Zm-.313,0a39.121,39.121,0,0,1-8.2-.768,16.7,16.7,0,0,1-5.6-2.216,10.382,10.382,0,0,1-1.706-1.389l-.028-.028c-.118-.121-.234-.246-.344-.372l.752-.659c.1.112.2.224.307.332l.025.025c2.668,2.711,7.508,4.044,14.8,4.075Zm28.632-1.119-.508-.861.047-.028.508.861Zm.69-.416-.526-.851.093-.057.526.85Zm-27.736-.779h-.016v-1h.016Zm-.06,0c-1.273,0-2.544-.064-3.8-.186q-1.021-.1-2.025-.252c-.6-.091-1.2-.2-1.794-.317l.2-.98c.575.116,1.163.22,1.747.309a38.168,38.168,0,0,0,5.526.426h.148Zm-7.865-.806-.315-.067.213-.977.306.065Zm-.5-.108c-.2-.045-.519-.1-.887-.156-2.249-.364-4.319-.779-4.941-1.841-.754-1.287-.972-2.177-.686-2.8a1.48,1.48,0,0,1,1.176-.789l.258-.047.227.227.031.05-.382.236.047.519c-.251.046-.4.121-.447.222s-.142.546.639,1.879c.436.745,3.1,1.176,4.239,1.36.383.062.714.116.944.167Zm5.067-2.854v-1H247v1Zm-.02,0A34.526,34.526,0,0,1,237.9,551.5c-.211-.057-.423-.117-.634-.179l-.248-.073.287-.958c.2.061.409.12.614.178l.243.067a33.54,33.54,0,0,0,8.77,1.177Zm-36.75-1.465h-1a7.75,7.75,0,0,1,.462-2.466,8.444,8.444,0,0,1,4.17-4.522,24.79,24.79,0,0,1,5.138-1.987l.277.961c-2.388.689-7.358,2.124-8.639,5.872A6.764,6.764,0,0,0,210.181,551.245Zm22.367-.145h-1a4.03,4.03,0,0,1,.47-1.813l.892.452A3,3,0,0,0,232.548,551.1Zm.415-1.461-.874-.486c.019-.034.038-.067.057-.1l.859.511Zm6.542-.119-.208-.049.142-.591-.71.179h0l0-.013c-.061-.227-.2-.465-.365-.465v-1h0a1.374,1.374,0,0,1,1.238.935l.132.031-.049.211q.008.028.015.057l-.03.008Zm-18.439-4.406-.2-.979.284-.056.186.983Zm6.259-.127-.054-.008.053-.379h-.095l-.05.366a20.005,20.005,0,0,0-2.68-.192l0-1a21,21,0,0,1,2.815.2l-.073.527.094,0,.072-.518.058.008-.074.512.674.03c0,.017,0,.034,0,.051v.007l-.685,0Zm42.233-.081-.59-.807.071-.052.6.8-.011.008Zm.136-.1-.6-.8.124-.092.6.8Zm-45.26-.032-.006-1h.039v1Zm45.4-.07-.6-.8.338-.255.607.795Zm-38.6-1.213-.033-.012.282-.959a1.25,1.25,0,0,1,.171.064Zm-.17-.052a23.511,23.511,0,0,0-6.429-.96l0-1a24.5,24.5,0,0,1,6.7,1Zm-11.652-.26-.267-.964.16-.044.259.966Zm5.189-.7h-.029v-1h.029Zm-82.707-16.857-.024-1,.894-.024.03,1Zm3.508-.122-.045-1,.6-.028.049,1Zm5.2-13.945v-1h.054l0,1ZM411.631,473.6l-.236-.972.134-.032.231.973Zm8.415-1.341-.082-1c1.651-.135,3.353-.2,5.059-.2h0v1C423.346,472.056,421.671,472.124,420.046,472.257Zm5.934-.193h-.108l.011-1,.112,0Zm-.172,0H425.8v-1h.025Zm-.31,0,0-1h0ZM296.57,470.383l-.916-.4,1.163-2.65.035-.081q.79-1.8,1.588-3.618c3.221-7.326,6.55-14.787,10.077-21.913a191.7,191.7,0,0,1,13.74-23.836l.824.567a190.762,190.762,0,0,0-13.668,23.714c-3.7,7.48-7.19,15.34-10.564,23.024l-1.079,2.46-.032.073Zm-127.706-1.915-.22-1.679c-.009-.067-.888-6.868-1.143-17.888-.05-2.095-.074-4.247-.073-6.405h0l0-.524h0l0-.476a274.409,274.409,0,0,1,2.742-37.428c.449-3.135.969-6.338,1.549-9.539l0,0,.22-1.179,0-.022.038-.2a228.185,228.185,0,0,1,11.8-41.523c1.973-5.009,4.16-9.962,6.5-14.724h0l.056-.114v0l.853-1.732v.021a182.07,182.07,0,0,1,9-15.828c.617-.967,1.238-1.922,1.71-2.645,1.641-2.527,3.359-5.106,5.251-7.883,13.153-19.279,26.5-35.591,38.279-49.982,11.87-14.505,22.121-27.032,27.621-37.347,5.888-11.042,6.044-18.828.508-25.247a10.38,10.38,0,0,0-5.1-3.532,7.135,7.135,0,0,0-1.828-.237,9.668,9.668,0,0,0-4.248,1.106c-3.114,1.537-6.544,4.617-10.8,9.693-3.828,4.57-7.859,10.209-12.128,16.179-6.253,8.746-13.339,18.658-20.921,26.611a84.627,84.627,0,0,1-7.712,7.206h0l-.082.066-.042.034-1.217.986.009-.031a51.9,51.9,0,0,1-6.016,4.033,36.878,36.878,0,0,1-7.621,3.3l-.427.127-.175-.41a61.588,61.588,0,0,1-2.023-5.819,119,119,0,0,1-3.994-18.943l-.025.133-.354-3.324,0-.021-.008-.074h0a140.143,140.143,0,0,1-.566-22.1,147,147,0,0,1,3.935-26.757c5.261-21.725,15.492-42.8,30.408-62.635,1.165-1.549,2.362-3.095,3.56-4.6h0l.034-.043.121-.151.04-.051.192-.24.307-.384h0c3.165-3.938,6.515-7.826,9.968-11.572a120.287,120.287,0,0,1-9.85-18.074l-.005.018L226.5,85.39l-.029-.07-.067-.164h0a69.445,69.445,0,0,1-2.448-7.005l-.013.033-.378-1.472-.014-.054-.027-.106h0a31.539,31.539,0,0,1-1.006-12.116l.028-.192.151-.123c.167-.136,16.855-13.776,27.335-25.745,5.725-6.539,10.8-17.388,14.044-25.338.43-1.057.844-2.1,1.231-3.091l.014-.037c1.78-4.581,2.965-8.121,3.392-9.43.133-.406.2-.629.2-.63l.246-.775.58.57c.009.009.223.22.582.633a42.223,42.223,0,0,1,4.083,5.639h0l.213.353,0,.007.31.511,0,0c.3.5.581,1,.851,1.492a65.929,65.929,0,0,1,4.42,9.91h0l.181.527.021.06,0,.008.022.064.107.311h0c.648,1.922,1.236,3.939,1.748,6a83.334,83.334,0,0,1,1.842,10.149l.009-.01.119,1.137,0,.025.02.192h0c.09.877.165,1.712.229,2.545a107.133,107.133,0,0,1-.937,23.472h0v.006l0,.031a136.156,136.156,0,0,1-2.683,13.452v0l-.007.03a167.448,167.448,0,0,1-5.7,18.083,163.655,163.655,0,0,1-9.649,21.363l-.009.017-.225.408-.1.182h0c-.237.425-.471.84-.7,1.239a98.957,98.957,0,0,1-7.024,10.673h0l-.337.439-.086.113-.189.245h0c-1.313,1.693-2.693,3.345-4.21,5.04-3.7,4.125-7.477,7.606-11.129,10.973-6.374,5.876-12.963,11.951-19.658,21.833l-.067.1c-7.442,11.006-14.16,25.567-20.529,44.5a4.325,4.325,0,0,0,.8.067c.114,0,.233,0,.354-.01a14.279,14.279,0,0,0,5-1.455,48.938,48.938,0,0,0,9.234-5.874c9.357-7.263,20.842-19.365,34.135-35.969.619-.772,1.262-1.569,1.967-2.437,2.187-2.68,4.251-5.128,6.144-7.29h0l.5-.563.018-.02.213-.241h0a90.588,90.588,0,0,1,12.279-11.932c3.61-2.738,6.612-4.069,9.178-4.069,3.08,0,5.5,1.9,7.386,5.8,1.853,3.833,3.26,9.695,4.419,18.42h0l.034.264.031.237.064.491h0c.332,2.6.645,5.431.953,8.651.395,4.084.78,8.729,1.211,14.595h0l.022.3c.176,2.388.351,4.87.513,7.2.156,2.215.31,4.448.472,6.813q.145,2.108.3,4.279c.748,10.846-1.766,22.352-7.684,35.175a159.914,159.914,0,0,1-10.569,19.015c-6.684,10.468-14.523,20.847-21.318,29.626h0l-.023.03-.019.025-2.191,2.831.009-.021c-2.568,3.3-5.193,6.636-7.749,9.888-1.444,1.837-2.936,3.736-4.41,5.616l-.011.015c-9.726,12.415-20.9,26.894-30.362,41.613l-.073.113c-1.283,2-2.543,4.015-3.749,6-17.256,28.388-24.962,53.1-24.25,77.768l0,.12Zm-.436-26.018c0,2.166.022,4.326.072,6.428.179,7.735.666,13.375.94,16.048l11.984-25.209A42.86,42.86,0,0,1,168.428,442.451Zm4.46-48.739c-.651,3.519-1.232,7.05-1.726,10.5a273.4,273.4,0,0,0-2.731,37.24,41.753,41.753,0,0,0,13.624-3.057l1.013-2.129a109.842,109.842,0,0,1,1.4-20.548,127.39,127.39,0,0,1,4.962-19.909c4.023-12.041,9.924-24.386,18.041-37.739,1.2-1.974,2.453-3.981,3.729-5.968l-.021-.12.112-.02.016-.025.027.017-.027-.017c9.463-14.716,20.614-29.177,30.336-41.588a106.12,106.12,0,0,1,13.614-37.678,83,83,0,0,1,11.412-14.906,63.853,63.853,0,0,1,13.894-10.927l.118-.067.5.868-.116.067c-18.8,10.793-33.294,34.046-38.122,60.992,1.077-1.372,2.154-2.743,3.205-4.08,3.271-4.161,6.652-8.463,9.884-12.636l.05-.123c1.1-2.72,2.292-5.321,3.556-7.733l.886.464q-.129.246-.257.5-.93,1.807-1.806,3.748c6.2-8.071,13.016-17.262,18.923-26.513a158.919,158.919,0,0,0,10.5-18.9c5.846-12.667,8.33-24.013,7.594-34.687q-.151-2.171-.3-4.279c-.163-2.364-.316-4.6-.472-6.811l0-.043-.117.31-.117-.044.213-.569c-.149-2.132-.308-4.383-.468-6.564h0l-.021-.284c-.439-6-.83-10.728-1.231-14.875-.327-3.413-.659-6.392-1.013-9.108l.271-.035-.271.035c-1.157-8.893-2.553-14.808-4.393-18.614-1.706-3.525-3.828-5.239-6.486-5.239-2.339,0-5.144,1.265-8.574,3.866a88.147,88.147,0,0,0-11.823,11.447l.488.15-.3.954c-.222-.069-.442-.137-.655-.2-.089-.027-.177-.052-.269-.077-1.81,2.057-3.784,4.388-5.876,6.938a40.8,40.8,0,0,1,4.158.969l-.277.961-.438-.124a39.414,39.414,0,0,0-4.171-.915c-.633.78-1.217,1.5-1.781,2.208-13.342,16.665-24.883,28.822-34.3,36.134-7.694,5.973-12.288,7.4-14.786,7.538-.14.008-.277.012-.41.012a3.652,3.652,0,0,1-1.674-.3l-.365-.2.132-.4a250.1,250.1,0,0,1,10.574-26.926,140.549,140.549,0,0,1,8.235-15.234c-13.64,12.784-23.419,34.235-29.092,63.84a120.271,120.271,0,0,0,4.331,21.9c.822,2.711,1.511,4.531,1.816,5.3a36.244,36.244,0,0,0,6.98-3.083,52.464,52.464,0,0,0,6.965-4.8c.061-.219.123-.437.185-.656l.459.13a84.734,84.734,0,0,0,7.222-6.794c7.533-7.9,14.294-17.358,20.832-26.5,4.28-5.986,8.322-11.64,12.174-16.24,4.344-5.186,7.878-8.347,11.12-9.948a10.652,10.652,0,0,1,4.691-1.21,8.136,8.136,0,0,1,2.085.271,8.939,8.939,0,0,1,1.908.756v-.825h.005v.828l.047.026v-.854c6.325.007,13.062,1.406,21.844,4.536.548.2,1.118.4,1.7.616l-.346.938c-.365-.135-.727-.267-1.082-.4l-.6-.216-.121-.043-.083-.029c-8.448-3-14.96-4.359-21.043-4.4a13.466,13.466,0,0,1,3.379,2.913,16.577,16.577,0,0,1,4.243,12c-.174,4.156-1.687,8.856-4.626,14.367a131.465,131.465,0,0,1-11.418,17.125c-4.723,6.223-10.352,13.1-16.312,20.385-11.764,14.376-25.1,30.67-38.226,49.912q-.443.65-.873,1.285h.955c0,.953.008,1.916.021,2.865l-1,.014c-.014-.931-.021-1.877-.022-2.812-1.532,2.264-2.953,4.406-4.321,6.514-.471.722-1.09,1.674-1.706,2.638a182.085,182.085,0,0,0-9.747,17.327c.276,5.631.587,12,.588,18.23h-1c0-5.545-.249-11.209-.5-16.361-2.031,4.232-3.936,8.6-5.674,13.012a226.608,226.608,0,0,0-11.549,40.273,21.313,21.313,0,0,0,5.045-6.061,36.073,36.073,0,0,0,3.54-9.246c1.391-5.646,2.04-12.37,2.041-21.161h1c0,8.874-.659,15.674-2.07,21.4a37.064,37.064,0,0,1-3.643,9.5A21.817,21.817,0,0,1,172.888,393.712Zm53.8-275.6c-1.1,1.382-2.187,2.8-3.252,4.212-31.475,41.857-36.043,80.977-33.894,107.451,1.209-5.868,2.591-11.44,4.118-16.606a142.984,142.984,0,0,1,6.734-18.348A95.187,95.187,0,0,1,209.41,178.9,65.766,65.766,0,0,1,221,166.283c6.769-10,13.412-16.125,19.835-22.047,3.634-3.351,7.393-6.816,11.062-10.905,1.475-1.648,2.819-3.255,4.1-4.9-4.756-2.869-8.828-4.371-12.777-4.717-.207-.018-.427-.032-.655-.041s-.441-.013-.678-.013v-1c.25,0,.49,0,.716.013.244.009.481.024.7.044,4.133.363,8.37,1.927,13.3,4.916a97.9,97.9,0,0,0,7.014-10.646c.279-.484.565-.991.853-1.512-.28-.3-.545-.587-.791-.835-.519-.525-1.133-1.138-1.757-1.711l.676-.737c.638.586,1.264,1.21,1.792,1.744.187.19.382.4.585.614a164.278,164.278,0,0,0,9.257-20.625,166.484,166.484,0,0,0,5.659-17.95v0l.006-.025c1.015-4.035,1.841-8.065,2.461-12l-.184-.051c.129-.471.265-.943.4-1.4a106.118,106.118,0,0,0,.924-23.215c-.04-.527-.085-1.056-.136-1.6-4.264,4.812-8.616,9.335-12.95,13.456-1.819,1.73-3.7,3.439-5.514,5.091a140.14,140.14,0,0,0-13.3,13.248,55.007,55.007,0,0,0-11.786,22.508,41.531,41.531,0,0,0-1.356,9.494h-1a42.486,42.486,0,0,1,1.384-9.727,55.661,55.661,0,0,1,11.47-22.288l0,0,.1-.122.015-.018.02-.024c.116-.14.232-.279.349-.419h0l.035-.042a140.9,140.9,0,0,1,13.39-13.344c1.813-1.649,3.687-3.354,5.5-5.076,4.521-4.3,9.063-9.038,13.5-14.088A82.786,82.786,0,0,0,281.314,25.4c-.485-1.957-1.039-3.87-1.649-5.7-11.843,7.428-24.071,15.13-34.629,25.916a98.466,98.466,0,0,0-20.467,31,63.74,63.74,0,0,0,2.3,7.017A84.091,84.091,0,0,1,240.764,58.05l.787.617A82.509,82.509,0,0,0,227.459,85.1a117.505,117.505,0,0,0,10.444,19.34l.228.33-.272.294c-3.642,3.937-7.171,8.035-10.492,12.185a11.761,11.761,0,0,0,2.78,3.7,9.363,9.363,0,0,0,6.413,1.905v1h-.012a10.407,10.407,0,0,1-7.054-2.147,12.218,12.218,0,0,1-2.566-3.162l0-.008h0Q226.8,118.327,226.685,118.11Zm-3.21-53.339a29.359,29.359,0,0,0,.7,10.2,96.017,96.017,0,0,1,8.751-16.008q2.5-3.7,5.254-7.123C231.024,58.529,224.542,63.894,223.475,64.77Zm42.7-54.315c-.372.955-.769,1.949-1.18,2.959-2.052,5.025-4.158,9.578-6.259,13.531a67.618,67.618,0,0,1-7.349,11.373c3.031-2.6,6.328-5.177,9.943-7.767,5.881-4.214,12.041-8.08,18-11.818a65.043,65.043,0,0,0-4.427-9.971c-.293-.533-.605-1.078-.93-1.625C271.358,8.11,268.738,9.225,266.177,10.455ZM269.6.969c-.43,1.311-1.434,4.286-2.9,8.132,2.224-1.038,4.487-1.988,6.749-2.834A41.059,41.059,0,0,0,269.6.969ZM429.432,462l-.236-.039.163-.987.236.039Zm-.313-.052-.9-.145a121.93,121.93,0,0,0-19.053-1.687v-1h.034a122.874,122.874,0,0,1,19.121,1.69l.055.009.9.146Zm-20.006-1.832H409.1v-1h.011Zm20.892-.373-.726-.124.166-.986.73.124Zm-1.1-.187-.289-.048.163-.987.29.048Zm-.8-.131a118.748,118.748,0,0,0-18.921-1.713v-1a119.7,119.7,0,0,1,19.081,1.726Zm-18.963-1.713h-.007v-1h.007Zm23.887-35.941v-1h.044v1Zm-1.787-9.585v-1h.024l.008,1Zm4.8-.159-.055-1,.033,0,.055,1Zm.428-.024-.055-1,.253-.014.056,1Zm-6.717-2.1v-1h.023v1ZM307.819,382.191l-.855-.519.044-.074.862.507Zm-2.733-2.561-.893-.451.465-.919.435-.859.029-.058.446.225.054-.5.03,0,0,.535.008,0v-.539h.008v.543l.351.177-.513,1.013-.392.774-.025.049h0Zm34.2-.88-.586-.81c6.969-5.037,21.471-15.517,21.474-28.545v-.036l1,0v.038a21.214,21.214,0,0,1-2.244,9.253,35.349,35.349,0,0,1-5.539,8.031A86.964,86.964,0,0,1,339.282,378.75Zm-32.4-1.547-.92-.393a1.032,1.032,0,0,0,.045-.131l.964.265A2.037,2.037,0,0,1,306.885,377.2Zm.984-6.288-.017-.018.713-.7.041.043Zm6.246-1.241-.863-.505q.142-.243.287-.483a36.369,36.369,0,0,1,5.843-7.375,34.271,34.271,0,0,1,6.537-4.934q.477-.278.964-.542l.064-.034.474.88-.062.033a33.386,33.386,0,0,0-7.283,5.317A35.557,35.557,0,0,0,314.115,369.674Zm18.233-15.8-.616-.788.139-.11.63.777Zm-15.978-34.7-.205-.979.079-.016.2.979Zm10.49-24.721v-1h.054v1Zm53.548-3.322a29.728,29.728,0,0,1-6.606-.743l.223-.975a28.723,28.723,0,0,0,6.384.718c.846,0,1.7-.038,2.555-.112l.17-.015h0l.093,1C382.29,291.086,381.341,291.13,380.408,291.13Zm-6.9-.813-.119-.029.238-.971.114.027Zm-47.249-.536h-.014v-1h.014Zm64.206-.332-.32-.948a33.7,33.7,0,0,0,4-1.648,37.9,37.9,0,0,0,9.278-6.464,46.713,46.713,0,0,0,3.278-3.413l.024-.028.756.654-.025.029q-.179.206-.361.411c-.945,1.065-1.948,2.1-2.987,3.076a38.91,38.91,0,0,1-9.525,6.633A34.682,34.682,0,0,1,390.461,289.45Zm-8.815-9.925h-.016v-1h.016Zm-.047,0h0c-4.853-.008-9.8-1.735-15.108-5.281a94.123,94.123,0,0,1-13.7-11.878l-.109-.109.71-.7.108.109.148.149.036.036.061.061.033.033.063.063.033.033.105.106.115.115,0,0,.229.229.083.083c7.9,7.874,17.1,15.937,27.189,15.954Zm-28.93-17.285-.2-.2.71-.7.2.2Zm-.207-.209-.2-.207-.267-.269.708-.706.27.272.2.206ZM333,241.982v-1a22.189,22.189,0,0,0,14.212-5.835,27.14,27.14,0,0,0,8.7-15.161l.115-.594.562.225a64.8,64.8,0,0,0,6.424,2.077,55.316,55.316,0,0,0,13.818,2.07,24.936,24.936,0,0,0,7.84-1.123c3.219-1.071,6.354-4.366,8.83-9.277a49.441,49.441,0,0,0,4.71-17.94,52.662,52.662,0,0,0-4.233-25.67l-.156-.288A99.161,99.161,0,0,1,391,182.286a46.239,46.239,0,0,1-4.5,10.768c-2.147,3.514-4.585,5.621-7.245,6.262a14.9,14.9,0,0,1-3.482.437,11.092,11.092,0,0,1-6.031-1.715,14.454,14.454,0,0,1-4.406-4.6c-2.2-3.483-3.751-8.432-4.5-14.329-.207-.053-.5-.121-.846-.175,1.694,6.2,1.968,11.6.811,16.088a17.469,17.469,0,0,1-6.828,10.043l-.586-.81q.583-.422,1.12-.879a16.455,16.455,0,0,0,5.326-8.6c1.134-4.4.829-9.759-.908-15.935h-.056c-1.931,0-1.951,1.022-1.958,1.406a76.119,76.119,0,0,1-1.339,11.306,57.128,57.128,0,0,1-2.25,8.441,27.711,27.711,0,0,1-3.891,7.509c-2.457,3.194-5.424,4.814-8.82,4.814a11.379,11.379,0,0,1-1.405-.089,19.531,19.531,0,0,1-7.9-2.491,12.116,12.116,0,0,1-5.352-7.2c-1.847-.389-3.742-.881-5.769-1.5-.629,1.857-1.182,3.689-1.644,5.45a54.006,54.006,0,0,0-1.979,13.874,24.814,24.814,0,0,0,3.122,12.744,16.342,16.342,0,0,0,5.968,6A14.8,14.8,0,0,0,333,240.982l0,.5v.5a15.794,15.794,0,0,1-7.846-2,17.327,17.327,0,0,1-6.335-6.359,25.79,25.79,0,0,1-3.264-13.252,54.993,54.993,0,0,1,2.012-14.133c.466-1.775,1.023-3.62,1.656-5.491h0l.168-.487.03-.087.128-.371h0a95.347,95.347,0,0,1,5.226-12.205l.877-1.632.063,1.852c.038,1.106.057,2.223.075,3.3.068,3.938.131,7.657,1.034,10.858l.007.025a11.1,11.1,0,0,0,4.99,6.888,18.571,18.571,0,0,0,7.5,2.351,10.375,10.375,0,0,0,1.282.082c3.069,0,5.769-1.488,8.027-4.423a26.73,26.73,0,0,0,3.742-7.237,56.129,56.129,0,0,0,2.209-8.292A76.384,76.384,0,0,0,355.9,180.23a2.183,2.183,0,0,1,1.022-1.933,3.076,3.076,0,0,1,1.183-.4l-.122-.12,1.271.08.074,0h0l.029,0,.2.013,0,0a10,10,0,0,1,1.874.368l.307.1.039.319c.715,5.9,2.235,10.825,4.4,14.249,2.447,3.878,5.674,5.844,9.591,5.844a13.9,13.9,0,0,0,3.248-.409c2.393-.577,4.622-2.532,6.626-5.811A45.261,45.261,0,0,0,390.04,182a97.959,97.959,0,0,0,3.011-14.2l.2-1.8.758,1.483c.27.527.546,1.105.868,1.818h0l.008.017a50.091,50.091,0,0,1,3.854,13.094,56.807,56.807,0,0,1,.473,13.085c-1.094,13.9-7.075,25.708-14.221,28.087a25.924,25.924,0,0,1-8.156,1.174,56.337,56.337,0,0,1-14.094-2.109c-2.813-.763-4.99-1.535-5.963-1.9a28.156,28.156,0,0,1-8.906,15.14,25.642,25.642,0,0,1-7.142,4.48A20.268,20.268,0,0,1,333,241.982Zm-12.5-41.891c1.8.548,3.5,1,5.152,1.358a49.438,49.438,0,0,1-.866-10.319c-.007-.429-.015-.863-.023-1.3A99.769,99.769,0,0,0,320.5,200.091Zm-26.331-2.338-.107-.04.348-.938.109.041ZM271.837,185.4c-.184,0-.369-.007-.55-.008l.008-1c.185,0,.375,0,.563.008Zm-.634-.009H271.2v-1h.024Zm-.083,0h-.211v-1h.214Zm17.421-8.963,0-1h0Zm-.064,0c-7.134-.015-13.962-2.678-20.564-5.254-.983-.383-1.987-.775-2.993-1.158q-.827-.315-1.652-.619l-.223-.082.344-.939.222.082.09.033c.762.281,1.528.572,2.291.865s1.531.593,2.282.886c6.518,2.542,13.258,5.171,20.205,5.186Zm-25.551-7.157-.064-.023.342-.94.064.023Zm-.7-.254-.314-.112.333-.943.318.113Zm-3.356-1.12-.248-.076.289-.957.252.077Zm-.372-.113-.1-.029.284-.959.1.03Zm-.192-.057-.2-.058.282-.96.2.059Zm30.633-.581h-.006v-1h.006Zm-.045,0c-6.737-.009-13.275-2.566-19.6-5.039-1.465-.573-2.98-1.165-4.47-1.715l-.166-.061.345-.939.167.062c.77.284,1.545.579,2.317.877l.008,0,.012,0c.723.279,1.442.56,2.149.837,6.238,2.439,12.689,4.962,19.238,4.971Zm-24.375-6.866-.022-.008.344-.939.025.009Zm-.451-.164-.194-.07.337-.941.2.07Zm-1.087-.385-.041-.014.328-.945.041.014Zm75.629-.22v-1a20.822,20.822,0,0,0,8.456-1.76,23.049,23.049,0,0,0,5.029-3.072c-2.392-9.721-4.15-18.42-5.375-26.581a183.015,183.015,0,0,1-2.167-27.315h1c0,15.659,2.355,32.578,7.4,53.185a37.505,37.505,0,0,0,7.794-9.868,68.394,68.394,0,0,0,5.286-12.1,92.88,92.88,0,0,0,3.333-13.146,15.9,15.9,0,0,1-7.813,2.277,12.368,12.368,0,0,1-5.408-1.251,15.4,15.4,0,0,1-3.894-2.731,17.773,17.773,0,0,1-3.165-3.968l-.027-.05-.015-.054a40.136,40.136,0,0,1-1.177-14.746,59.712,59.712,0,0,1,3.585-14.911c3.229-8.7,8.514-18.017,15.707-27.694a201.17,201.17,0,0,1,17.679-20.508c2.464-2.5,4.56-4.507,6.043-5.886-13.472,6.583-28.14,20.4-41.636,39.3-2.567,3.593-5.051,7.321-7.384,11.083a155.97,155.97,0,0,0-1.609,19.845,209.011,209.011,0,0,0,4.183,44.023l0,.013.034.173.068.34-.981.2-.068-.341-.076-.387-.02-.1-.022-.115a209.753,209.753,0,0,1-4.121-43.817,158,158,0,0,1,1.3-17.692,196.581,196.581,0,0,0-9.553,17.788,147.9,147.9,0,0,0-7.569,19.24c-3.975,12.891-4.746,23.382-2.228,30.339A13.609,13.609,0,0,0,329.927,157a27.591,27.591,0,0,0,8.676,1.51v1a28.587,28.587,0,0,1-8.993-1.561,14.565,14.565,0,0,1-9.356-9.4c-2.592-7.162-1.827-17.873,2.213-30.974a148.915,148.915,0,0,1,7.62-19.371,198.944,198.944,0,0,1,10.805-19.848h0l.054-.088.057-.092,1.217-1.964-.005.035c1.986-3.123,4.068-6.211,6.207-9.205,3.36-4.7,6.871-9.187,10.434-13.323a147.742,147.742,0,0,1,11.18-11.682c8.03-7.473,15.881-12.836,23.334-15.94l2.86-1.191-2.34,2.03c-.034.03-3.468,3.017-8.362,7.99a200.124,200.124,0,0,0-17.587,20.4c-7.134,9.6-12.371,18.831-15.565,27.439-3.966,10.69-4.772,20.438-2.4,28.973a17.326,17.326,0,0,0,2.971,3.7,14.381,14.381,0,0,0,3.633,2.542,11.373,11.373,0,0,0,4.958,1.144,15.552,15.552,0,0,0,8.211-2.68l.91-.572-.149,1.064a90.635,90.635,0,0,1-3.544,14.373,69.39,69.39,0,0,1-5.365,12.279,37.963,37.963,0,0,1-8.4,10.459v0l-.245.2-.042.034-.571.466,0-.012a23.9,23.9,0,0,1-4.888,2.923A21.818,21.818,0,0,1,338.6,159.507Zm-77.043-.256-.339-.109.3-.953.344.111Zm21.04-10.359v-1h.029v1Zm-.034,0a25.389,25.389,0,0,1-7.376-1.163c-.206-.063-.414-.129-.619-.2h0l-.249-.084.323-.946.24.081-.157.475.157-.475c.2.065.4.129.6.19a24.393,24.393,0,0,0,7.085,1.119Zm-45.45-18.151h-.005l.035-1h0Zm-.2-.008-.371-.014.036-1,.377.015Zm2.145-6.965-.054-1,.483-.026.054,1Zm1.434-.074-.044-1,.181-.008.04,1Zm1.326-.034v-1h.04v1Zm21.3-6.649-.1-.1.707-.707.1.1Zm-.252-.252-.069-.068.7-.715.074.073Zm-.2-.192-.079-.076.694-.72.08.077Zm-.289-.276-.063-.059.684-.729h0l.064.06Zm-.095-.089-.038-.036.68-.733h0l.041.038h0Zm-.209-.193-.006-.005.672-.741.014.013Zm-.082-.074h0l-.024-.022.671-.742h0l.024.022Zm-14.606-4.27h-.015v-1h.015Zm-.067,0h-.2a15.194,15.194,0,0,1-3.815-.44h0l-.02-.005a8.71,8.71,0,0,1-1.41-.512q-.178-.083-.351-.175a7.494,7.494,0,0,1-.676-.406h0l.559-.829a6.488,6.488,0,0,0,.558.336q.164.088.334.168h0a12.077,12.077,0,0,0,5.022.864Zm2.673-.052-.019-1,.181,0,.007.5-.007-.5.137,0,.009,1h-.132Zm-9.147-1.489-.092-.063.572-.82.08.055Zm15.6-.467-.136-.034.237-.971.15.038Zm-8.341-.274v-1h.029v1Zm-.027,0c-.617,0-1.169-.022-1.687-.065-.294-.024-.583-.056-.858-.1a6.3,6.3,0,0,1-4.821-3.082,11.417,11.417,0,0,1-1.276-5.753l1,0c.009,4.785,1.722,7.351,5.236,7.847.257.036.526.066.8.089l.035,0c.481.039,1,.058,1.571.058Zm1.151-.019-.03-1,.375-.013.036,1Zm.877-.032-.041-1,.334-.014.041,1Zm2.625-.077h-.024v-1h.024Zm9.726-6.915v-1h.02v1Zm-.035,0a14.7,14.7,0,0,1-7.622-2.2h0l-.022-.015-.012-.008-.015-.01.562-.828.014.009.011.008a13.615,13.615,0,0,0,7.089,2.048Zm-7.681-2.243-.126-.087.577-.817.111.077Zm7.659-.406v-1h0Zm-.051,0c-3-.005-6.358-.479-8.507-3.949l-.013-.02c-.063-.1-.125-.207-.185-.312l.87-.493c.054.1.11.19.166.281l.011.017c1.887,3.047,4.8,3.471,7.659,3.477Zm.54,0-.015-1c3.651-.056,4.815-3.744,5.44-9.263.669-5.963,1.353-12.024,2.014-17.886l.558-4.953c0-.016,0-.03.005-.043l.991.132,0,.025-.558,4.951c-.661,5.862-1.344,11.923-2.014,17.886a22.47,22.47,0,0,1-1.565,6.777A5.25,5.25,0,0,1,262.9,99.688Zm-8.78-.064a9.587,9.587,0,0,1-2.847-4.112,14.691,14.691,0,0,1-.867-5.158v-.021h1v.02a13.7,13.7,0,0,0,.8,4.808q.03.081.061.16a8.541,8.541,0,0,0,2.486,3.532Zm-.508-4.292a11.3,11.3,0,0,1-1.455-5.52h1a10.308,10.308,0,0,0,1.33,5.036Zm-.381-13.008-.9-.433c1.759-3.657,4.368-6.431,6.89-9.114l.568-.6q1.543-1.645,3.1-3.3l3.911-4.16,4.043-4.3,0,0a1.148,1.148,0,0,1,.289-.212l.034-.019.191.326.568.039c0,.035-.005.07-.008.106l-.02.261-.28.163-.027.015-.025.015-3.8,4.04c-1.908,2.028-3.867,4.112-5.814,6.187l-1.438,1.533h0l-.39.415,0,0-.14.148-.036.038C257.475,76.09,254.92,78.807,253.228,82.324Zm7.14-6.368-.739-.674.194-.213.01-.011.055-.06.027-.029.037-.04c2.661-2.907,5.4-5.793,8.049-8.587q1-1.054,2-2.11l.017-.017h0l.363.344.5-.059a.553.553,0,0,0,.422.52c.094,0,.174-.091.224-.167l.432.286.057-.018-.475-.291.006-.01.494.294a1.34,1.34,0,0,1,.34-.045h0v.247l.025.015-.013.021-.012-.008v.725c-.182,0-.4.16-.475.516,0,.012,0,.024-.007.036l-.985-.175q.006-.034.013-.068l.007-.032a1.975,1.975,0,0,1,.115-.354,1.433,1.433,0,0,1-.825-.54l-1.548,1.633C265.937,69.971,263.106,72.955,260.368,75.956ZM273.715,59.92h-1a12.332,12.332,0,0,0-.088-1.463c-.025-.2-.093-.352-.181-.394l.434-.9a1.185,1.185,0,0,1,.357.268,1.586,1.586,0,0,1,.382.906,13.4,13.4,0,0,1,.095,1.437Q273.715,59.847,273.715,59.92Z" transform="translate(1456.146 197) rotate(14)" fill="rgba(0,0,0,0)"/></g></g></svg>