<svg xmlns="http://www.w3.org/2000/svg" width="288.054" height="85.26" viewBox="0 0 288.054 85.26"><g transform="translate(-126.734 -113.744)"><g transform="translate(126.735 113.888)"><path d="M372.581,216.132a15.058,15.058,0,0,0-6.949,2.909,20.352,20.352,0,0,0-4.985,6.789,13.472,13.472,0,0,0,11.934-9.7Zm-4.526,5.858a12.533,12.533,0,0,1-6.125,2.909,17.844,17.844,0,0,1,4.143-5.3,14.03,14.03,0,0,1,5.426-2.542,12.8,12.8,0,0,1-3.4,4.893Z" transform="translate(-313.465 -195.624)" fill="#307b32"/><path d="M151.925,219.041a15.03,15.03,0,0,0-6.947-2.909,13.469,13.469,0,0,0,11.934,9.7A20.33,20.33,0,0,0,151.925,219.041ZM149.5,221.99l-.041-.039a12.809,12.809,0,0,1-3.4-4.9,14.044,14.044,0,0,1,5.428,2.546,17.841,17.841,0,0,1,4.143,5.3A12.55,12.55,0,0,1,149.5,221.99Z" transform="translate(-141.298 -195.624)" fill="#307b32"/><path d="M167.474,161.017a6.041,6.041,0,0,1,4.028,2.423l1.261-.914a6.161,6.161,0,0,1-.47-4.54.2.2,0,0,0-.027-.174c-1.652-2.423-10.575-11.93-11.5-11.93a.083.083,0,0,0-.047.012c-.605.4,4.93,12.4,6.6,15.031A.2.2,0,0,0,167.474,161.017ZM162.936,149l6.778,9.581a.284.284,0,1,1-.463.328c-.006-.006-6.413-9.833-6.418-9.841C162.792,149,162.889,148.93,162.936,149Z" transform="translate(-153.828 -139.544)" fill="#307b32"/><path d="M215.946,231.885l1.328-.955c-.062-.08-.117-.15-.164-.209l-1.291.933C215.856,231.721,215.9,231.8,215.946,231.885Z" transform="translate(-197.85 -207.27)" fill="#307b32"/><path d="M229.879,172.2a.911.911,0,0,0,.976-.9.911.911,0,0,0-1.546-.568c.021-.48.24-.834.631-.834a.873.873,0,0,1,.57.23l.248-.357a1.189,1.189,0,0,0-.8-.293c-.744,0-1.127.627-1.127,1.435a1.307,1.307,0,0,0,.318,1.009A.991.991,0,0,0,229.879,172.2Zm-.021-1.341a.475.475,0,1,1,.01.943.489.489,0,0,1-.543-.478A.483.483,0,0,1,229.858,170.861Z" transform="translate(-208.236 -158.384)" fill="#307b32"/><path d="M242.089,172.2a.912.912,0,0,0,.976-.9.834.834,0,0,0-.92-.83.844.844,0,0,0-.629.262c.023-.48.242-.834.633-.834a.873.873,0,0,1,.57.23l.248-.357a1.194,1.194,0,0,0-.8-.293c-.744,0-1.127.627-1.127,1.435a1.307,1.307,0,0,0,.32,1.009A.984.984,0,0,0,242.089,172.2Zm-.023-1.341a.475.475,0,1,1,.012.943.491.491,0,0,1-.545-.478A.484.484,0,0,1,242.066,170.861Z" transform="translate(-217.981 -158.384)" fill="#307b32"/><path d="M321.027,171.232a.775.775,0,0,0,.617-.277c-.016.484-.248.826-.635.826a.873.873,0,0,1-.6-.248l-.252.353a1.252,1.252,0,0,0,.842.316c.7,0,1.127-.586,1.127-1.435a1.32,1.32,0,0,0-.32-1.008.943.943,0,0,0-.728-.277.915.915,0,0,0-.98.912A.834.834,0,0,0,321.027,171.232Zm.053-1.351a.5.5,0,0,1,.549.488.486.486,0,0,1-.533.476.485.485,0,1,1-.016-.965Z" transform="translate(-281.093 -158.384)" fill="#307b32"/><path d="M333.836,171.782h-1.252l.541-.451c.465-.379.683-.605.683-1.021a.783.783,0,0,0-.867-.789,1.079,1.079,0,0,0-.97.553l.328.254c.2-.262.367-.394.607-.394a.394.394,0,0,1,.426.41c0,.236-.133.406-.492.711l-.906.77v.363h1.9Z" transform="translate(-290.544 -158.415)" fill="#307b32"/><path d="M189.4,147.618l-2.546-.391-1.339.756-.4.227-.388.219-.449-.072-.451-.07-.941-.148h0l-.9-.143h0l-1.392-.221c-1.055,1.453-4.276,1.97-8.35,3.339.029-.109.061-.219.09-.328v0c.031-.109.063-.219.1-.328.107-.375.227-.754.351-1.134a34.606,34.606,0,0,1,1.47-3.714,14.386,14.386,0,0,0,12.624-10.6l.289-1.156-1.189.1a15.765,15.765,0,0,0-7.687,3.146,21.036,21.036,0,0,0-5.153,6.918,12.051,12.051,0,0,1-3.113-.156c-.1-.022-.2-.043-.3-.067s-.2-.047-.291-.074l12.038-18.175.006,0,1.191-1.808.252-.381-.06-.219a2.537,2.537,0,0,0-2.447-1.867,2.715,2.715,0,0,0-.351.023l-.223.031h0l-.7,1.058-.746,1.132h0l-12.1,18.4c-.072-.062-.142-.129-.211-.2s-.141-.137-.2-.207a5.888,5.888,0,0,1-1.361-6.033,2.79,2.79,0,0,1,1.669-1.945.884.884,0,0,1,.691.066.544.544,0,0,1,.057.037,1.731,1.731,0,0,1,.222,2.277.056.056,0,0,0-.016.066c.021.039.086.014.086.014a2.353,2.353,0,0,0,.9-3.579v0h0a2.522,2.522,0,0,0-2.372-.529,4.388,4.388,0,0,0-2.855,3.048,7.613,7.613,0,0,0,2.023,8.033c.068.066.139.133.211.2s.142.131.217.189l-5.055,7.686q.111,3.052.193,5.868c0,.066,0,.213.006.277.025-.023.193-.261.193-.261l7.764-11.724.022.01.043-.107,0,0,.086-.129-.088.254.213.07c.094.029.189.057.287.084a12.174,12.174,0,0,0,3.306.371c-.426.978-.816,2-1.162,3.042q-.4,1.2-.689,2.357c-.029.111-.056.221-.082.33s-.055.225-.08.336a32.21,32.21,0,0,0-5.739,2.884,25.329,25.329,0,0,0-3.444,2.589c-.082.074-.16.148-.238.223s-.139.133-.207.2-.111.109-.164.164c0,.037,0,.072,0,.109,0,.07,0,.139.006.209q.026.975.051,1.917l.978-.553.248-.141.248-.141,7.726-4.372.787-.445.295-.166.789-.447,9.589-5.428h0l.883.154-10.581,5.989-.771.436-.289.164-.771.435v0l-7.344,4.155-.248.141-.248.139v0l-1.277.723.018.654,1.58-.892.248-.141.248-.141,6.981-3.946.752-.424.285-.16.752-.426,11.589-6.549h0l.441.076.439.076-12.528,7.08-.738.418-.279.156-.732.414L163,160.709l-.248.141-.248.141-1.878,1.06q.032,1.382.059,2.685c0,.041,0,.082,0,.123l3.15-1.847.492-.289,5.5-3.224c.012.07.023.139.035.207.006.031.012.062.018.092.014.068.025.137.041.2.006.031.012.063.018.092a8.948,8.948,0,0,0,.646,1.949,5.781,5.781,0,0,0,3.388,3.12c-.058.227-.1.455-.141.684a8.311,8.311,0,0,0-.1,1.687,10.359,10.359,0,0,0-5.329,1.376c-.082.047-.164.1-.244.146s-.16.1-.24.154c-1.293-1.964-2.566-3.9-3.771-5.723l-3.189,1.869c1.351,2.048,2.792,4.235,4.251,6.448-.063.082-.123.164-.178.246s-.117.166-.174.25a14.568,14.568,0,0,0-2.078,5.036,10.58,10.58,0,0,0-1.966-.627c-.188-.039-.375-.074-.566-.1-.006-3.052-.039-6.678-.115-10.765,0-.041,0-.082,0-.123,0-.066,0-.135,0-.2,0-.041,0-.082,0-.123,0-.066,0-.133,0-.2v-.076a.394.394,0,0,1,0-.049c0-.16-.006-.32-.01-.482,0-.178-.008-.353-.01-.533-.012-.551-.025-1.111-.037-1.679,0-.108-.006-.215-.008-.322l-.006-.322c-.006-.217-.012-.435-.018-.654s-.01-.428-.016-.644q-.018-.7-.037-1.41c0-.164-.008-.33-.014-.5v-.059c0-.135-.008-.269-.014-.406a.124.124,0,0,0,0-.027c0-.125-.006-.252-.01-.379-.006-.189-.012-.379-.016-.57s-.012-.359-.018-.541-.01-.359-.015-.539q-.061-2.027-.137-4.143c-.006-.162-.012-.324-.02-.488v0c0-.162-.01-.328-.016-.492q-.067-1.766-.14-3.587c-.5-12.11-.512-18.661-.352-19.641,1,1.031,1.839,1.935,2.655,2.687a4.084,4.084,0,0,0,.609.433c.09.049.2.086.267.033a.207.207,0,0,0,.061-.133v0a.878.878,0,0,0-.016-.234,54.581,54.581,0,0,0-1.91-6.945c-.654-1.89-2.589-6.723-3.411-8.759a.45.45,0,0,0-.068-.115.517.517,0,0,0-.045-.047.423.423,0,0,0-.666.15c-.672,1.537-1.974,4.565-2.263,5.623a.771.771,0,0,0,.061.566c.724,1.369,1.082,2.015,1.023,3.038q.026,10.553-.068,16.14.088,4.921.172,9.535c0,.168.006.336.01.5s.006.338.01.506q.059,3.213.117,6.258c0,.062,0,.123,0,.183,0,.107,0,.215.006.32,0,.027,0,.055,0,.082v.023c0,.127.006.254.008.379v.019c0,.043,0,.086,0,.131,0,.178.008.357.01.535.012.543.021,1.08.033,1.613,0,.22.008.439.012.66v0c.006.225.01.447.014.67q0,.164.006.328c0,.109.006.221.008.33.014.664.025,1.32.041,1.97,0,.166.006.33.01.5v0c0,.1,0,.191.006.287,0,.043,0,.084,0,.127,0,.027,0,.057,0,.084s0,.082,0,.123,0,.082,0,.125l.006.209c0,.041,0,.084,0,.125.082,3.927.162,7.562.24,10.87-.189.025-.379.058-.566.1a10.555,10.555,0,0,0-2.132.656,14.462,14.462,0,0,0-2.193-5.2c-.057-.084-.115-.166-.175-.248s-.119-.162-.18-.242l4.231-6.387-3.048-1.787-3.776,5.741c-.078-.053-.158-.105-.238-.154s-.162-.1-.244-.146a10.374,10.374,0,0,0-5.327-1.375,8.316,8.316,0,0,0-.1-1.687c-.037-.229-.084-.457-.141-.684a5.766,5.766,0,0,0,3.386-3.12,8.889,8.889,0,0,0,.648-1.968c.008-.029.014-.061.02-.092.014-.067.027-.135.041-.2.006-.031.01-.061.016-.092.012-.068.024-.137.035-.207l5.5,3.224.246.144.246.145,2.921,1.712c0-.041,0-.082,0-.125q-.029-1.356-.057-2.743l-1.533-.867-.248-.141-.248-.141-6.653-3.759-.73-.412-.277-.158-.742-.418-12.481-7.055.439-.076.443-.076,11.54,6.524.758.426.283.162.748.422,6.984,3.948.248.139.248.14,1.207.684c0-.223-.008-.447-.012-.672l-.877-.5-.248-.141-.248-.141-7.346-4.157-.768-.433v0l-.289-.162-.773-.437-10.534-5.963.882-.152,9.542,5.4.793.449.293.166.789.445v0l7.724,4.37.248.141.248.141.549.31c-.008-.369-.014-.74-.022-1.113,0-.168-.006-.334-.01-.5s-.006-.336-.01-.5c0,0,.006-.049,0-.059,0-.117,0-.234-.006-.353-.172-.158-.352-.316-.541-.478a27.278,27.278,0,0,0-2.937-2.14,32.267,32.267,0,0,0-5.77-2.9c-.025-.111-.051-.225-.078-.336s-.053-.219-.08-.328a34.926,34.926,0,0,0-1.843-5.389,11.57,11.57,0,0,0,3.683-.488l.109-.037.043-.016c.039-.016.078-.031.117-.049v0c.088-.035.176-.072.262-.11,1.849,3.263,3.939,6.879,5.075,8.605.279.426.93,1.412,1.849,2.808.033.049.064.1.1.148,0-.022,0-.043,0-.065-.041-2.216-.084-4.467-.125-6.736-1.24-1.718-2.96-3.993-4.583-6.106.076-.057.152-.115.225-.176s.148-.121.221-.186a7.645,7.645,0,0,0,2.437-8.406,4.4,4.4,0,0,0-2.855-3.048,2.524,2.524,0,0,0-2.374.529,2.355,2.355,0,0,0,.9,3.581s.065.025.084-.014a.054.054,0,0,0-.014-.066,1.726,1.726,0,0,1,.223-2.277l.049-.033a.886.886,0,0,1,.7-.07,2.79,2.79,0,0,1,1.67,1.945,5.936,5.936,0,0,1-1.859,6.51c-.07.064-.142.125-.219.185s-.148.117-.225.176c-1.207-1.564-2.277-2.939-2.939-3.782l-1.4,1.008c.508.914,1.3,2.345,2.22,3.973-.045.022-.09.041-.137.059s-.086.029-.129.043c-.092.029-.188.059-.283.082a11.148,11.148,0,0,1-3.632.283,21.04,21.04,0,0,0-5.168-6.918,15.766,15.766,0,0,0-7.688-3.146l-1.187-.1.287,1.156a14.386,14.386,0,0,0,12.624,10.6,34.194,34.194,0,0,1,1.47,3.714q.187.565.348,1.123c.033.109.064.219.1.326v0c.031.111.061.219.09.328-4.056-1.359-7.258-1.876-8.31-3.325l-1.39.221-.9.145h0l-.939.148-.453.072-.447.07-.394-.221-.4-.227-1.34-.756-2.548.391a.2.2,0,0,0-.068.361l1.191.7.246.144,16.576,9.718c-.008.072-.016.144-.025.217,0,.031-.006.061-.01.092l-.029.215c0,.029-.008.061-.014.09a7.793,7.793,0,0,1-.625,2.156,4.066,4.066,0,0,1-2.413,2.245,13.243,13.243,0,0,0-5.083-5.489l-.377.6a12.624,12.624,0,0,1,4.761,5.065c-.1.018-.193.031-.293.043a12.4,12.4,0,0,0-4.618-4.866l.039-.066-.041.064a14.058,14.058,0,0,0-7.32-1.753,14.091,14.091,0,0,0,4.995,5.635,12.4,12.4,0,0,0,3.925,1.47l.01,0a10.783,10.783,0,0,0,1.919.256h.02a.225.225,0,0,0,.035,0,.128.128,0,0,0,.027,0,.161.161,0,0,0,.031,0,.057.057,0,0,0,.018,0c.178,0,.35,0,.519-.006a5.859,5.859,0,0,0,.734-.072c.1-.012.187-.029.279-.049a.007.007,0,0,0,.006,0,4.776,4.776,0,0,0,3.47-2.782,8.283,8.283,0,0,0,.641-2.074c.006-.029.012-.061.016-.09.014-.07.025-.141.035-.211.006-.031.01-.061.014-.092.012-.07.02-.141.027-.213l.262.152c-.008.072-.018.142-.029.213,0,.031-.01.061-.014.092l-.035.209c-.006.029-.012.061-.016.09a8.348,8.348,0,0,1-.642,2.044,5.039,5.039,0,0,1-2.951,2.73,5.731,5.731,0,0,1-.683.191l-.076.016c-.068.014-.137.025-.2.037a7.135,7.135,0,0,1-.726.082c-.156.01-.314.014-.477.014-.088,0-.176,0-.265,0h-.008a11.016,11.016,0,0,1-2-.262l0,0v0a12.639,12.639,0,0,1-4.009-1.5,14.43,14.43,0,0,1-5.2-5.952l-.078-.182.2-.018a14.467,14.467,0,0,1,7.7,1.785l.367-.609a14.937,14.937,0,0,0-8.125-1.882l-1.178.1.465,1.086a14.935,14.935,0,0,0,5.485,6.282,13.288,13.288,0,0,0,4.222,1.589v0c.033.008.064.014.1.02a.039.039,0,0,0,.014,0,11.891,11.891,0,0,0,1.945.256h.006c.416.029.779.039,1.07.039h0q.073.281.117.562a6.523,6.523,0,0,1,.061,1.546,15.2,15.2,0,0,0-2.558.592.236.236,0,0,0-.035.01,13.507,13.507,0,0,0-4.311,2.171,14.919,14.919,0,0,0-4.716,6.879l-.336,1.133,1.181-.039a14.931,14.931,0,0,0,7.85-2.817,12.4,12.4,0,0,0,2.068-2.035c.053-.065.107-.129.158-.2.076-.1.152-.2.224-.295a12.163,12.163,0,0,0,1.214-1.919l.006-.01a9.491,9.491,0,0,0,.717-1.9c.049,0,.1,0,.148,0a8.578,8.578,0,0,1,4.5,1.1c.084.047.164.094.246.145s.16.1.238.154l-14.367,21.844a.157.157,0,0,0,.129.242.15.15,0,0,0,.039-.006l1.246-.312a.146.146,0,0,0,.092-.066c2.431-3.716,4.809-4.9,5.784-5.241a1.579,1.579,0,0,0,.779-.613l8.824-13.321c.059.084.115.17.17.256s.113.174.166.264a13.238,13.238,0,0,1,1.652,4.481,12.894,12.894,0,0,0-3.882,3.956.356.356,0,0,0-.023.035,12.23,12.23,0,0,0-1.181,2.185s0,.006,0,.01l-.012.027a14.926,14.926,0,0,0-.635,8.316l.275,1.148,1-.625a14.918,14.918,0,0,0,5.381-6.37,11.946,11.946,0,0,0,.492-1.474,12.809,12.809,0,0,0,.326-1.642c.006-.031.01-.063.014-.1a17.874,17.874,0,0,0,.088-4.559,9.121,9.121,0,0,1,1.9-.66c.193-.043.383-.08.566-.109.084,3.368.166,6.367.25,8.955a56.983,56.983,0,0,1-.5,8.824c-.351,1.849-.935,3.458-.547,3.5.049,0,.111-.033.189-.107a1.5,1.5,0,0,0,.115-.127l0,0c.027-.035.057-.07.086-.111a8.119,8.119,0,0,0,.582-.947c.059-.107.119-.222.182-.342.041-.08.084-.162.125-.246s.084-.17.127-.26c.022-.043.043-.088.065-.133.043-.092.088-.184.131-.277q.012-.024.024-.053c.025-.057.056-.127.094-.209.019-.043.041-.09.062-.141.01-.025.022-.051.033-.078l.045-.105c.031-.072.065-.15.1-.232l.053-.129c.043-.105.088-.217.135-.336s.1-.246.146-.379c.018-.045.035-.09.051-.135.053-.139.105-.281.158-.431.019-.051.037-.1.054-.153.037-.1.074-.209.111-.318q.085-.243.17-.5c.172-.523.348-1.1.521-1.718.076-.276.152-.561.227-.853a35.953,35.953,0,0,0,.957-5.479q.231-2.481.267-5.143.006-1.066.008-2.289c.186.033.375.074.566.123a9.022,9.022,0,0,1,1.687.609,17.934,17.934,0,0,0,.078,4.487c.006.057.014.113.023.168a12.511,12.511,0,0,0,.816,3.116,14.929,14.929,0,0,0,5.383,6.37l1,.625.277-1.148a14.928,14.928,0,0,0-.635-8.316l-.012-.027a.021.021,0,0,1,0-.01,12.428,12.428,0,0,0-1.177-2.179s0,0,0-.006a12.932,12.932,0,0,0-3.905-3.989,13.246,13.246,0,0,1,1.542-4.3c.053-.092.107-.182.162-.271s.11-.176.168-.262c4.364,6.621,8.742,13.26,11.222,17.021h0l.391.594.744,1.133.7,1.058.225.031a2.635,2.635,0,0,0,.352.023,2.539,2.539,0,0,0,2.447-1.867l.059-.219h0l-.252-.381-.875-1.326,0,0c-2.515-3.813-7.5-11.376-12.372-18.765.078-.053.158-.1.238-.154s.162-.1.244-.145a8.6,8.6,0,0,1,4.5-1.1,15.417,15.417,0,0,0,.884,1.941.57.57,0,0,1,.028.051,12.447,12.447,0,0,0,1.4,2.138.1.1,0,0,1,.012.016l.146.18a12.557,12.557,0,0,0,2.068,2.035,14.926,14.926,0,0,0,7.85,2.817l1.179.039-.336-1.133a14.926,14.926,0,0,0-4.714-6.879,13.4,13.4,0,0,0-4.149-2.119c-.047-.016-.094-.031-.141-.045a15.173,15.173,0,0,0-2.614-.609,6.513,6.513,0,0,1,.06-1.546q.044-.281.117-.562h0c.291,0,.654-.01,1.07-.039h0a11.2,11.2,0,0,0,1.836-.234l.088-.018c.045-.008.09-.018.135-.027a13.262,13.262,0,0,0,4.222-1.591,14.918,14.918,0,0,0,5.485-6.282l.467-1.086-1.177-.1a14.935,14.935,0,0,0-8.125,1.882,13.338,13.338,0,0,0-5.1,5.5,4.068,4.068,0,0,1-2.411-2.245,7.867,7.867,0,0,1-.623-2.136c0-.029-.01-.059-.013-.09-.01-.07-.02-.142-.029-.215,0-.031-.008-.061-.011-.092-.008-.072-.016-.142-.024-.217l16.609-9.738.246-.144,1.191-.7A.2.2,0,0,0,189.4,147.618Zm-23.654-4.87c-.072-.063-.145-.127-.213-.191v0c-.072-.064-.141-.133-.209-.2a7.378,7.378,0,0,1-1.5-2.132,6.846,6.846,0,0,1-.25-5.063,3.753,3.753,0,0,1,2.361-2.589,1.822,1.822,0,0,1,1.672.334.162.162,0,0,1,.037.029.029.029,0,0,1,.008.01,1.851,1.851,0,0,1,.205,2.212c-.024.039-.059.01-.047-.025a1.87,1.87,0,0,0-.348-1.978l-.008-.008a.617.617,0,0,0-.055-.045,1.55,1.55,0,0,0-1.392-.254,3.475,3.475,0,0,0-2.164,2.406,6.412,6.412,0,0,0,1.658,6.832c.068.07.137.139.207.2s.141.133.213.2Zm5.864,7.982q-.047.164-.088.328c-.029.111-.058.223-.086.334-.1.035-.2.072-.3.109.027-.111.055-.223.086-.334v0c.025-.109.054-.217.086-.326a35.132,35.132,0,0,1,2.154-5.848,12.877,12.877,0,0,1-4.028-.244c-.1-.023-.2-.051-.291-.076s-.191-.057-.283-.088l.164-.246c.092.029.186.059.283.084s.193.051.293.074a12.793,12.793,0,0,0,4,.2,20.767,20.767,0,0,1,5.127-7.045,15.286,15.286,0,0,1,7.307-2.993l.2-.018-.049.193a13.761,13.761,0,0,1-12.411,10.126A34.757,34.757,0,0,0,171.609,150.731Zm-21.528-8.023c.074-.059.146-.119.218-.186a6.519,6.519,0,0,0,2.123-7.27,3.474,3.474,0,0,0-2.164-2.406,1.553,1.553,0,0,0-1.394.254c-.018.014-.035.029-.053.045a.029.029,0,0,0-.008.008,1.871,1.871,0,0,0-.348,1.978c.012.035-.024.065-.047.025a1.854,1.854,0,0,1,.2-2.214s.006,0,.008-.008a.407.407,0,0,1,.037-.029,1.83,1.83,0,0,1,1.673-.334,3.753,3.753,0,0,1,2.361,2.589,6.857,6.857,0,0,1-.25,5.063,7.483,7.483,0,0,1-1.949,2.548c-.072.062-.146.125-.221.185s-.146.117-.222.174c-.064-.082-.129-.164-.19-.246C149.935,142.829,150.009,142.77,150.081,142.708Zm-7.59,2.255a13.769,13.769,0,0,1-12.411-10.126l-.047-.193.2.018a15.289,15.289,0,0,1,7.309,2.993,20.74,20.74,0,0,1,5.126,7.045,12.149,12.149,0,0,0,4.475-.328c.094-.029.187-.059.277-.09v0l.006,0c.086-.035.172-.072.256-.109.047.082.094.166.141.25l-.262.111-.029.012s0,0,0,0l-.008,0c-.074.025-.158.055-.234.076a12.227,12.227,0,0,1-4.478.365,35.166,35.166,0,0,1,2.154,5.836c.029.109.059.219.086.328s.057.223.086.334c-.1-.037-.2-.072-.3-.108-.025-.111-.055-.222-.084-.334s-.058-.219-.09-.328A34.514,34.514,0,0,0,142.492,144.963Zm-2.683,18.856a.052.052,0,0,1-.018,0,.4.4,0,0,1-.047,0h-.006a14.588,14.588,0,0,1-1.648-.2.333.333,0,0,1-.057-.012c-.055-.01-.11-.021-.166-.033v0a11.7,11.7,0,0,1-3.71-1.388,12.808,12.808,0,0,1-4.155-4.3,12.843,12.843,0,0,1,5.735,1.632l.016.01a11.885,11.885,0,0,1,4.208,4.3C139.91,163.821,139.859,163.821,139.809,163.819Zm1.584,1.578c.074-.014.148-.029.22-.045q.076.3.123.6a7.48,7.48,0,0,1,.084,1.6c-.1.006-.191.012-.287.022a7.116,7.116,0,0,0-.078-1.578c-.025-.156-.055-.314-.094-.471q-.012-.061-.029-.123A.606.606,0,0,0,141.392,165.4Zm9.306,7.629c-.054-.088-.113-.174-.17-.258s-.115-.168-.176-.248a10.236,10.236,0,0,0-1.507-1.677,9.46,9.46,0,0,0-1.047-.806c-.078-.053-.158-.1-.238-.154s-.162-.1-.246-.146a9.223,9.223,0,0,0-4.651-1.226c-.076,0-.154,0-.234,0-.168,0-.34.01-.513.021-.072,0-.145.008-.217.016-.1.006-.2.016-.295.027-.244.025-.5.058-.752.1a14.866,14.866,0,0,0-2.392.617c-.076.023-.15.051-.227.078-.1.033-.2.066-.3.1v0a12.023,12.023,0,0,0-3.216,1.74,14.083,14.083,0,0,0-4.3,6.178,14.065,14.065,0,0,0,7.068-2.6,11.394,11.394,0,0,0,1.906-1.884l0,0a11.63,11.63,0,0,0,1.49-2.257c.016-.027.029-.055.043-.084a8.915,8.915,0,0,0,.5-1.259c.035-.006.07-.01.105-.014l.2-.023a8.929,8.929,0,0,1-.527,1.383.451.451,0,0,0-.022.045,11.926,11.926,0,0,1-1.566,2.392l0,0h0a11.691,11.691,0,0,1-1.951,1.927,14.444,14.444,0,0,1-7.44,2.671l-.2.006.056-.189A14.439,14.439,0,0,1,134.343,171a12.252,12.252,0,0,1,3.29-1.779v0c.035-.014.07-.027.105-.039.056-.022.115-.043.174-.063a.358.358,0,0,1,.043-.016,14.991,14.991,0,0,1,2.757-.707c.248-.039.5-.07.74-.094.1-.01.2-.018.293-.025.244-.016.486-.027.725-.027.092,0,.182,0,.271,0a9.642,9.642,0,0,1,4.729,1.254c.082.047.164.1.244.146s.16.1.238.152a9.454,9.454,0,0,1,1.08.83,10.55,10.55,0,0,1,1.488,1.638c.061.082.119.164.176.248s.117.168.172.254a13.923,13.923,0,0,1,1.955,4.842l-.256.16A13.729,13.729,0,0,0,150.7,173.026Zm-10.29-3.534a8.231,8.231,0,0,1-.342.806l-.006.012a12.32,12.32,0,0,1-3.214,3.929,12.794,12.794,0,0,1-5.52,2.3,12.811,12.811,0,0,1,3.626-4.756,11.288,11.288,0,0,1,3.031-1.638l0,.006c.156-.059.312-.115.467-.168l.043-.014A14.508,14.508,0,0,1,140.408,169.492Zm15.234,8.2a9.449,9.449,0,0,0-1.972.654c-.07.031-.141.064-.209.1-.154.072-.307.152-.457.236-.064.035-.129.07-.193.109-.025.014-.049.027-.072.043-.224.131-.445.273-.66.426a12.15,12.15,0,0,0-3.249,3.468,11.3,11.3,0,0,0-1.088,2.015s0,.01-.006.014a12.745,12.745,0,0,0-.873,4.784,14.734,14.734,0,0,0,.244,2.716,14.076,14.076,0,0,0,4.817-5.789,10.815,10.815,0,0,0,.445-1.334,12.063,12.063,0,0,0,.269-1.3c.01-.055.018-.109.025-.166a17.112,17.112,0,0,0,.156-4.071l.113-.07.156-.094a17.342,17.342,0,0,1-.144,4.278c-.008.057-.016.115-.027.174q-.105.636-.26,1.269l-.012.049a11.142,11.142,0,0,1-.459,1.375,14.448,14.448,0,0,1-5.1,6.036l-.168.105-.047-.191a14.45,14.45,0,0,1,.6-7.881s0,0,0,0l.258.115-.258-.117c0-.008.006-.014.01-.022a16.8,16.8,0,0,1,.988-1.863l.072-.113a12.408,12.408,0,0,1,3.491-3.7l.006.039c.322-.24.523-.367.531-.373l.119-.074.027-.018a.053.053,0,0,1,.02-.012c.072-.041.144-.082.217-.121.143-.076.287-.15.434-.219.076-.037.152-.072.23-.108a9.766,9.766,0,0,1,2.011-.652c.187-.041.375-.074.566-.1,0,.1,0,.189.008.285C156.017,177.611,155.83,177.644,155.642,177.687Zm-3.679,5.864c-.006.055-.016.107-.024.16-.07.416-.156.834-.26,1.248a10.163,10.163,0,0,1-.414,1.234,12.811,12.811,0,0,1-3.624,4.756c-.039-.406-.068-.889-.068-1.421a12.023,12.023,0,0,1,.81-4.483l.012-.027a16.352,16.352,0,0,1,.908-1.726.042.042,0,0,0,.006-.01,13.874,13.874,0,0,1,2.712-3.021A14.34,14.34,0,0,1,151.964,183.55Zm15.73-.951.029.045a16.424,16.424,0,0,1,1.056,1.972c0,.006.006.012.008.018v0s0,0,0,0a14.442,14.442,0,0,1,.6,7.881l-.045.191-.168-.105a14.431,14.431,0,0,1-5.1-6.036,10.736,10.736,0,0,1-.457-1.375h0l-.011-.049q-.15-.6-.252-1.211c0-.02-.006-.039-.01-.059a17.48,17.48,0,0,1-.172-4.454c.053.031.105.063.158.1.037.021.074.045.112.07a17.185,17.185,0,0,0,.191,4.29v0c.051.322.115.652.2.984.016.063.029.123.045.186.006.025.012.049.018.074h0a10.783,10.783,0,0,0,.445,1.334,14.078,14.078,0,0,0,4.815,5.789,14.039,14.039,0,0,0-.629-7.5v0l-.006-.014a11.225,11.225,0,0,0-1.078-2,.1.1,0,0,1-.01-.016c-.07-.109-.143-.219-.217-.326-.025-.041-.053-.08-.082-.119-.049-.072-.1-.144-.152-.215q-.114-.161-.234-.316c-.035-.047-.07-.094-.107-.139q-.325-.413-.676-.789c-.063-.068-.127-.137-.193-.2v0l-.012-.012a.063.063,0,0,0-.016-.014c-.041-.047-.088-.092-.135-.137s-.1-.1-.148-.143c-.065-.064-.129-.125-.2-.184q-.12-.111-.246-.217c-.041-.037-.084-.074-.129-.11-.156-.133-.316-.258-.48-.377-.074-.056-.148-.111-.225-.162q-.325-.228-.662-.428c-.023-.014-.047-.029-.07-.041-.064-.039-.129-.076-.2-.111-.15-.084-.3-.162-.455-.234-.068-.035-.139-.068-.209-.1a9.4,9.4,0,0,0-1.779-.613c-.187-.045-.377-.084-.566-.115v-.293c.189.033.379.07.566.115a9.7,9.7,0,0,1,1.828.611l.229.105v0c.146.068.289.141.431.217.09.049.176.1.264.148,0,0,0,0,0,.006l.121.074c.008.006.209.133.531.373l.006-.041A12.408,12.408,0,0,1,167.694,182.6Zm-3.368,1.107c-.008-.051-.018-.1-.024-.154a14.385,14.385,0,0,1-.059-3.294,13.764,13.764,0,0,1,2.712,3.023.167.167,0,0,1,.012.02,16.494,16.494,0,0,1,.9,1.716c0,.01.008.018.011.027a12.846,12.846,0,0,1,.742,5.9A12.811,12.811,0,0,1,165,186.192a10.123,10.123,0,0,1-.414-1.234h0Q164.43,184.335,164.326,183.707Zm11.225-15.312a14.887,14.887,0,0,1,2.759.707c.024.008.047.016.07.025.084.029.168.061.252.092v0A12.332,12.332,0,0,1,181.921,171a14.431,14.431,0,0,1,4.469,6.518l.055.189-.2-.006a14.443,14.443,0,0,1-7.439-2.671,11.634,11.634,0,0,1-1.951-1.929,14.771,14.771,0,0,1-1.57-2.388c-.006-.014-.014-.025-.019-.039v0s0,0,0,0c-.285-.543-.5-1.023-.648-1.392.039,0,.078.006.119.01l.2.023c.146.352.344.789.6,1.273a.059.059,0,0,1,.01.02,14.8,14.8,0,0,0,1.525,2.321,11.546,11.546,0,0,0,1.908,1.883,14.065,14.065,0,0,0,7.068,2.6,14.082,14.082,0,0,0-4.3-6.178,12.029,12.029,0,0,0-3.216-1.74c-.115-.043-.231-.084-.344-.121l-.086-.029c-.053-.02-.1-.037-.156-.055l-.141-.047q-.721-.237-1.39-.389c-.082-.019-.164-.037-.244-.055-.189-.041-.375-.076-.558-.106-.256-.045-.508-.078-.752-.1-.1-.012-.2-.022-.295-.027-.072-.008-.144-.012-.217-.016-.174-.012-.346-.019-.514-.021-.08,0-.158,0-.234,0a9.213,9.213,0,0,0-4.653,1.228c-.084.047-.164.1-.244.145s-.16.1-.238.154a9.455,9.455,0,0,0-1.046.806,10.306,10.306,0,0,0-1.627,1.845c-.059.084-.115.168-.172.254s-.113.174-.166.262a13.75,13.75,0,0,0-1.757,4.569l-.258-.16a14.065,14.065,0,0,1,1.841-4.671q.085-.132.17-.258c.056-.086.115-.17.174-.252a10.576,10.576,0,0,1,1.605-1.8,9.453,9.453,0,0,1,1.08-.83c.078-.053.158-.1.238-.152s.164-.1.246-.146a9.64,9.64,0,0,1,4.729-1.254c.09,0,.18,0,.271,0,.238,0,.48.012.725.027.1.008.2.016.293.025Q175.179,168.336,175.551,168.394Zm.3,1.093a14.306,14.306,0,0,1,1.8.439.442.442,0,0,1,.045.014c.193.064.388.135.586.209l0-.008a11.333,11.333,0,0,1,3.03,1.64,12.779,12.779,0,0,1,3.624,4.756,12.815,12.815,0,0,1-5.52-2.3,10.81,10.81,0,0,1-1.794-1.773c-.012-.016-.025-.031-.037-.045l0,0c-.006-.006-.01-.014-.016-.02s-.006-.006-.008-.01,0,0,0-.006a13.961,13.961,0,0,1-1.349-2.07c0-.01-.01-.018-.014-.027a.139.139,0,0,0-.008-.016C176.059,170.009,175.95,169.748,175.854,169.488Zm-.951-3.958c-.037.156-.066.314-.092.471a7.118,7.118,0,0,0-.078,1.578c-.1-.01-.193-.016-.287-.022a7.468,7.468,0,0,1,.084-1.6q.05-.3.123-.6h0c.07.016.145.031.217.045l-.012.129Zm-3.421-3.915a4.766,4.766,0,0,0,3.47,2.782.007.007,0,0,0,0,0c.092.02.183.037.279.051h0a6.276,6.276,0,0,0,.734.07c0,.008-.008.018-.012.027.158,0,.33-.01.516-.022h.014a10.861,10.861,0,0,0,2.062-.265l0,0a12.348,12.348,0,0,0,3.925-1.466,14.083,14.083,0,0,0,5-5.635,14.082,14.082,0,0,0-7.32,1.753h0l0,0a12.4,12.4,0,0,0-4.616,4.866c-.1-.012-.2-.025-.291-.043A12.623,12.623,0,0,1,180,158.665a14.471,14.471,0,0,1,7.7-1.783l.2.018-.078.182a14.427,14.427,0,0,1-5.2,5.952,12.694,12.694,0,0,1-4.009,1.5h0a15.667,15.667,0,0,1-2,.265h-.006c-.09,0-.178,0-.265,0-.162,0-.322,0-.478-.014a7.088,7.088,0,0,1-.725-.082c-.068-.012-.137-.023-.2-.037l0,0c-.025,0-.049-.008-.074-.014a5.561,5.561,0,0,1-.685-.193,5.028,5.028,0,0,1-2.949-2.728,8.428,8.428,0,0,1-.638-2.025c-.006-.029-.01-.061-.016-.09-.014-.07-.025-.141-.037-.211,0-.029-.008-.061-.014-.09-.01-.07-.02-.141-.029-.213l.262-.152c.008.072.018.141.029.211v0c0,.031.008.061.012.09v0c.012.07.023.141.037.209a.646.646,0,0,0,.016.09A8.139,8.139,0,0,0,171.482,161.615Zm4.821,2.206a11.873,11.873,0,0,1,4.21-4.3,12.822,12.822,0,0,1,5.751-1.642,11.512,11.512,0,0,1-9.841,5.94.517.517,0,0,1-.055,0C176.346,163.821,176.325,163.821,176.3,163.821Z" transform="translate(-126.735 -114.459)" fill="#307b32"/></g><g transform="translate(202.655 113.744)"><path d="M1397.442,149.748V135.233c0-6.893-3.713-11.533-10.473-11.533-5.633,0-9.875,3.513-11.533,9.544v-19.5h-13.521v.132c3.115,1.459,3.976,2.983,3.976,7.158v35.938h12.926v-.132c-3.049-1.657-3.38-2.718-3.38-7.092V138.679c0-6.562,2.916-10.207,7.026-10.207,3.911,0,5.435,3.049,5.435,6.761v14.516c0,4.374-.331,5.435-3.38,7.092v.132h16.306v-.132C1397.773,155.184,1397.442,154.123,1397.442,149.748Z" transform="translate(-1188.688 -113.744)" fill="#003d55"/><path d="M654.635,188.724c0-4.416.132-8.57.132-13.316,0-8.109-5.405-11.4-15.36-11.4a19.33,19.33,0,0,0-7.115,1.242,8.618,8.618,0,0,1,1.422,2.37,8,8,0,0,1,5.5-2.36c4.417,0,6.065,3.56,6.065,7.515v5.406l-5.011.921c-7.911,1.451-15.293,2.968-15.293,10.219,0,5.6,4.417,8.24,9.624,8.24,5.537,0,9.821-3.495,10.745-7.977,0,.461.132,1.977.132,2.242.527,3.559,2.9,5.866,7.58,5.866a9.679,9.679,0,0,0,7.186-2.966v-.132a3.572,3.572,0,0,1-1.649.4C655.491,194.986,654.635,192.811,654.635,188.724Zm-9.492-2.967c-.067,4.68-2.7,7.91-6.2,7.91-2.768,0-4.482-1.912-4.482-5.669,0-4.416,2.241-6.855,7.383-7.91l3.428-.725Z" transform="translate(-600.392 -153.866)" fill="#003d55"/><path d="M822.009,167.4v-.132h-9.623v.132a4.376,4.376,0,0,1,3.1,4.284,7.856,7.856,0,0,1-.594,2.9l-5.472,13.383-5.208-13.711a15.648,15.648,0,0,1-.988-3.824A3.136,3.136,0,0,1,805.2,167.4v-.132h-15.03v.132c2.176,1.779,2.9,2.768,4.813,6.987l.988,2.308-5.207,11.536-6.2-14.04a11.326,11.326,0,0,1-.989-3.824,2.984,2.984,0,0,1,1.648-2.966v-.132H770.2v.132c2.175,1.779,2.966,2.835,4.812,6.987l11.733,25.974h.132l9.888-21.688,9.031,21.688h.132l11.008-25.842C818.844,170.168,819.768,169.179,822.009,167.4Z" transform="translate(-716.324 -156.471)" fill="#003d55"/><path d="M1047.041,149.788V113.744h-13.448v.131c3.1,1.452,3.956,2.968,3.956,7.121v11.126a10.96,10.96,0,0,0-10.877-8.24c-8.108,0-14.7,6.79-14.7,17.2,0,10.218,6.4,16.546,14.24,16.546,5.932,0,10.019-4.087,11.338-9.1v8.437H1050.6v-.13C1047.634,155.193,1047.041,153.81,1047.041,149.788Zm-9.492-5.933c0,6-3.758,9.823-7.646,9.823-4.945,0-7.78-4.615-7.78-12.592,0-8.964,2.7-14.107,7.713-14.107,3.889,0,7.713,4.021,7.713,10.415Z" transform="translate(-909.331 -113.744)" fill="#003d55"/><path d="M533.575,170.263c0-3.626-2.7-6.262-6.724-6.262-5.867,0-8.966,5.405-10.547,11.471V164.66H503.119v.132c3.1,1.647,3.691,2.966,3.691,7.185v17.931c0,4.351-.33,5.405-3.3,7.054v.131h18.128v-.131c-3.625-1.386-5.338-2.7-5.338-7.054v-9.163c0-6.591,3.361-11.206,7.119-11.206,2.5,0,3.889,1.318,3.889,3.494a3.185,3.185,0,0,1-2.044,3.1,3.418,3.418,0,0,0,2.307.726C530.542,176.856,533.575,174.614,533.575,170.263Z" transform="translate(-503.119 -153.864)" fill="#003d55"/><path d="M1097.31,344.137a2.81,2.81,0,1,0,2.81,2.81A2.81,2.81,0,0,0,1097.31,344.137Z" transform="translate(-975.214 -297.665)" fill="#003d55"/><path d="M1235.431,188.724c0-4.416.132-8.57.132-13.316,0-8.109-5.406-11.4-15.359-11.4-7.648,0-12.921,3.558-12.921,8.306,0,3.231,2.505,5.274,5.734,5.274,2.7,0,4.814-1.188,5.735-3.561a3.32,3.32,0,0,1-1.119.2c-1.913,0-3.1-1.385-3.1-3.824,0-2.835,1.714-5.142,5.472-5.142,4.416,0,6.065,3.561,6.065,7.514v5.408l-5.01.921c-7.911,1.451-15.293,2.967-15.293,10.219,0,5.6,4.416,8.24,9.624,8.24,5.538,0,9.822-3.495,10.746-7.977,0,.461.132,1.977.132,2.242.527,3.559,2.9,5.866,7.579,5.866a9.679,9.679,0,0,0,7.187-2.966v-.132a3.569,3.569,0,0,1-1.649.4C1236.287,194.986,1235.431,192.811,1235.431,188.724Zm-9.492-2.967c-.067,4.68-2.7,7.909-6.2,7.909-2.768,0-4.482-1.911-4.482-5.668,0-4.416,2.241-6.855,7.383-7.91l3.428-.725Z" transform="translate(-1064.037 -153.866)" fill="#003d55"/><g transform="translate(0.439 59.404)"><path d="M513.28,423.466l5.468-13.178h2.517v16.2h-1.647v-14h-.046l-5.857,14h-.87l-5.857-14h-.046v14H505.3v-16.2h2.517Z" transform="translate(-505.295 -409.876)" fill="#003d55"/><path d="M597.277,426.486h-1.922l7.047-16.2H604l7.047,16.2h-1.922l-1.785-4.255h-8.282Zm2.4-5.765H606.7l-3.5-8.511Z" transform="translate(-577.189 -409.876)" fill="#003d55"/><path d="M682.919,410.288H688.3a9.615,9.615,0,0,1,3.031.5,8.368,8.368,0,0,1,2.745,1.522,7.714,7.714,0,0,1,1.979,2.54,8.68,8.68,0,0,1,0,7.081,7.747,7.747,0,0,1-1.979,2.528,8.36,8.36,0,0,1-2.745,1.521,9.6,9.6,0,0,1-3.031.5h-5.377Zm1.647,14.688h3.2a8.412,8.412,0,0,0,3.215-.56,6.658,6.658,0,0,0,2.265-1.487,5.928,5.928,0,0,0,1.338-2.105,7.046,7.046,0,0,0,0-4.873,5.932,5.932,0,0,0-1.338-2.105,6.664,6.664,0,0,0-2.265-1.487,8.419,8.419,0,0,0-3.215-.56h-3.2Z" transform="translate(-647.091 -409.876)" fill="#003d55"/><path d="M769.748,426.486H768.1v-16.2h4.988a6.352,6.352,0,0,1,3.9,1.075,3.806,3.806,0,0,1,1.43,3.249,4.047,4.047,0,0,1-1.064,2.849,4.569,4.569,0,0,1-3.077,1.338l4.667,7.687h-2.013l-4.439-7.527h-2.745Zm0-9.037h2.929a6.583,6.583,0,0,0,1.865-.229,3.461,3.461,0,0,0,1.224-.606,2.214,2.214,0,0,0,.663-.892,2.957,2.957,0,0,0,.206-1.11,2.9,2.9,0,0,0-.206-1.087,2.3,2.3,0,0,0-.663-.9,3.235,3.235,0,0,0-1.224-.606,6.919,6.919,0,0,0-1.865-.217h-2.929Z" transform="translate(-715.091 -409.876)" fill="#003d55"/><path d="M826.395,426.486h-1.922l7.047-16.2h1.6l7.047,16.2h-1.922l-1.784-4.255h-8.282Zm2.4-5.765h7.024l-3.5-8.511Z" transform="translate(-760.092 -409.876)" fill="#003d55"/><path d="M916.67,411.335a3.555,3.555,0,0,0-3.134-1.579,4.682,4.682,0,0,0-1.258.172,3.465,3.465,0,0,0-1.11.526,2.624,2.624,0,0,0-.789.915,2.765,2.765,0,0,0-.3,1.316,2.28,2.28,0,0,0,.618,1.7,4.881,4.881,0,0,0,1.533,1,16.942,16.942,0,0,0,2,.7,9.2,9.2,0,0,1,2,.824,4.784,4.784,0,0,1,1.533,1.361,3.849,3.849,0,0,1,.618,2.311,4.146,4.146,0,0,1-.469,1.979,4.549,4.549,0,0,1-1.235,1.476,5.8,5.8,0,0,1-1.716.915,5.947,5.947,0,0,1-1.91.32,7.24,7.24,0,0,1-2.826-.561,5.374,5.374,0,0,1-2.276-1.842l1.51-1.075a3.924,3.924,0,0,0,1.46,1.43,4.361,4.361,0,0,0,2.212.538,4.068,4.068,0,0,0,1.231-.194,3.543,3.543,0,0,0,1.106-.572,3.167,3.167,0,0,0,.81-.927,2.457,2.457,0,0,0,.319-1.258,2.588,2.588,0,0,0-.355-1.407,3.062,3.062,0,0,0-.938-.938,5.945,5.945,0,0,0-1.327-.629q-.744-.251-1.533-.5t-1.533-.572a5.283,5.283,0,0,1-1.327-.812,3.636,3.636,0,0,1-.938-1.235,4.32,4.32,0,0,1-.355-1.865,4.4,4.4,0,0,1,.446-2.036,4.225,4.225,0,0,1,1.19-1.441,5.064,5.064,0,0,1,1.682-.847,7.143,7.143,0,0,1,4.416.16,5.379,5.379,0,0,1,2.082,1.533Z" transform="translate(-826.733 -408.246)" fill="#003d55"/><path d="M967.268,426.486h-1.922l7.047-16.2h1.6l7.047,16.2h-1.922l-1.785-4.255h-8.282Zm2.4-5.765h7.024l-3.5-8.511Z" transform="translate(-872.55 -409.876)" fill="#003d55"/><path d="M1054.044,410.288h1.647v7.024h8.831v-7.024h1.647v16.2h-1.647v-7.665h-8.831v7.665h-1.647Z" transform="translate(-943.356 -409.876)" fill="#003d55"/></g></g></g></svg>