<svg xmlns="http://www.w3.org/2000/svg" viewBox="0 0 236.64 68.98"><defs><style>.cls-1{fill:#307b32;}.cls-2{fill:#003d55;}</style></defs><g id="Layer_2" data-name="Layer 2"><g id="Layer_1-2" data-name="Layer 1"><path class="cls-1" d="M47.9,16.62A12.08,12.08,0,0,0,42.27,19a16.52,16.52,0,0,0-4,5.5,10.92,10.92,0,0,0,9.67-7.87Zm-3.66,4.75a10.3,10.3,0,0,1-5,2.36,14.38,14.38,0,0,1,3.36-4.3A11.43,11.43,0,0,1,47,17.36a10.29,10.29,0,0,1-2.76,4Z"/><path class="cls-1" d="M8.6,19A12.18,12.18,0,0,0,3,16.62a10.91,10.91,0,0,0,9.67,7.86A16.52,16.52,0,0,0,8.6,19Zm-2,2.39,0,0a10.32,10.32,0,0,1-2.76-4,11.43,11.43,0,0,1,4.4,2.07,14.51,14.51,0,0,1,3.36,4.3,10.21,10.21,0,0,1-5-2.36Z"/><path class="cls-1" d="M11,17.4a4.91,4.91,0,0,1,3.27,2l1-.74A5,5,0,0,1,15,14.94a.14.14,0,0,0,0-.14c-1.34-2-8.57-9.67-9.32-9.67h0c-.49.32,4,10.06,5.35,12.18A.14.14,0,0,0,11,17.4ZM7.37,7.66l5.49,7.76a.24.24,0,0,1,0,.33.24.24,0,0,1-.32-.05h0l-5.2-8a.05.05,0,0,1,.09,0Z"/><path class="cls-1" d="M14.65,20l1.08-.78L15.6,19l-1,.76Z"/><path class="cls-1" d="M17.53,11.19a.74.74,0,0,0,.79-.68v0a.73.73,0,0,0-.8-.67.7.7,0,0,0-.45.21c0-.39.19-.68.51-.68a.68.68,0,0,1,.46.19l.2-.29A1,1,0,0,0,17.59,9c-.6,0-.91.51-.91,1.16a1.05,1.05,0,0,0,.25.82A.83.83,0,0,0,17.53,11.19Zm0-1.08a.38.38,0,0,1,.1.76.27.27,0,0,1-.09,0,.4.4,0,0,1-.44-.36v0a.4.4,0,0,1,.4-.38Z"/><path class="cls-1" d="M19.53,11.19a.72.72,0,0,0,.78-.68v0a.68.68,0,0,0-.68-.68h-.07a.7.7,0,0,0-.51.22c0-.39.2-.68.51-.68a.68.68,0,0,1,.47.19l.2-.29A1,1,0,0,0,19.58,9c-.6,0-.91.51-.91,1.16a1.06,1.06,0,0,0,.26.82A.78.78,0,0,0,19.53,11.19Zm0-1.08a.38.38,0,0,1,.1.76.27.27,0,0,1-.09,0,.4.4,0,0,1-.44-.35v0a.41.41,0,0,1,.41-.38Z"/><path class="cls-1" d="M32.35,10.41a.63.63,0,0,0,.5-.23c0,.39-.2.67-.51.67a.7.7,0,0,1-.49-.2l-.2.29a1.06,1.06,0,0,0,.68.25c.58,0,.92-.47.92-1.16A1.11,1.11,0,0,0,33,9.21.77.77,0,0,0,32.4,9a.75.75,0,0,0-.8.69v.05a.68.68,0,0,0,.67.68Zm0-1.1a.39.39,0,0,1,.44.35v.05a.38.38,0,0,1-.4.38h0A.39.39,0,0,1,32,9.75a.4.4,0,0,1,.35-.44Z"/><path class="cls-1" d="M35.08,10.83h-1l.44-.37c.38-.3.56-.49.56-.83A.64.64,0,0,0,34.43,9h-.07a.87.87,0,0,0-.79.44l.26.21c.17-.21.3-.32.5-.32a.32.32,0,0,1,.34.29v0c0,.19-.11.33-.4.58l-.73.62v.3h1.54Z"/><path class="cls-1" d="M50.78,26.87l-2.06-.31-1.09.61-.32.18-.32.18-.36-.06-.37-.06-.76-.12h0l-.73-.11h0L43.64,27c-.85,1.18-3.46,1.6-6.77,2.71,0-.09.05-.18.08-.27h0c0-.09,0-.18.07-.27.09-.3.19-.61.29-.92a29.87,29.87,0,0,1,1.19-3,11.65,11.65,0,0,0,10.23-8.59l.24-.94-1,.09a12.65,12.65,0,0,0-6.23,2.55A17.14,17.14,0,0,0,37.6,24a9.73,9.73,0,0,1-2.53-.12l-.24-.06-.24-.06L44.35,9h0l1-1.47.2-.31L45.47,7a2.06,2.06,0,0,0-2-1.52l-.29,0-.18,0h0l-.56.86-.6.91h0L32.05,22.25a1.29,1.29,0,0,1-.17-.16l-.17-.17A4.77,4.77,0,0,1,30.61,17,2.25,2.25,0,0,1,32,15.46a.73.73,0,0,1,.56,0l0,0a1.41,1.41,0,0,1,.18,1.85s0,0,0,.05.07,0,.07,0a1.9,1.9,0,0,0,.95-2.52,1.79,1.79,0,0,0-.22-.38h0a2.08,2.08,0,0,0-1.93-.43,3.56,3.56,0,0,0-2.31,2.47,6.16,6.16,0,0,0,1.64,6.51l.17.16.18.16-4.1,6.23c.06,1.65.11,3.23.15,4.75v.23a2,2,0,0,0,.16-.22l6.29-9.5h0l0-.08h0l.07-.1-.07.2L34,25l.23.07a10.11,10.11,0,0,0,2.68.3c-.34.79-.66,1.62-.94,2.46-.21.65-.4,1.29-.56,1.91l-.06.27c0,.09,0,.18-.07.27a27,27,0,0,0-4.65,2.34,20.36,20.36,0,0,0-2.79,2.1l-.2.18-.16.17-.14.13v.26c0,.52,0,1,0,1.55l.8-.45.2-.11.2-.12,6.26-3.54.64-.36.24-.14.64-.36,7.77-4.4h0l.72.13-8.58,4.85-.63.35-.23.14-.63.35h0l-5.95,3.37-.2.11-.2.12h0l-1,.58v.53l1.28-.72.2-.12.2-.11,5.66-3.2.61-.34.23-.13.61-.35,9.39-5.31h0l.36.06.36.07L36.17,33.65l-.6.34-.23.12-.59.34-5.39,3-.2.11-.2.11-1.52.86c0,.75,0,1.48,0,2.18v.1L30,39.36l.4-.23,4.45-2.62,0,.17,0,.07,0,.17s0,0,0,.07a7.16,7.16,0,0,0,.53,1.58,4.65,4.65,0,0,0,2.74,2.53c0,.19-.08.37-.11.56A6.9,6.9,0,0,0,38.06,43a8.49,8.49,0,0,0-4.32,1.12l-.2.12-.19.12-3.06-4.63L27.7,41.26c1.1,1.66,2.27,3.43,3.45,5.23a1.43,1.43,0,0,0-.14.2l-.15.2A11.79,11.79,0,0,0,29.18,51a8.92,8.92,0,0,0-1.59-.51l-.46-.08c0-2.48,0-5.42-.1-8.73v-1c0-.13,0-.29,0-.43l0-1.36a2.17,2.17,0,0,0,0-.26v-.26c0-.18,0-.36,0-.53s0-.35,0-.53q0-.55,0-1.14c0-.13,0-.27,0-.4v0c0-.11,0-.22,0-.33V35c0-.15,0-.3,0-.46s0-.29,0-.44,0-.29,0-.43c0-1.1-.07-2.22-.11-3.36,0-.13,0-.27,0-.4h0c0-.13,0-.27,0-.4q-.06-1.44-.12-2.91c-.4-9.82-.41-15.13-.28-15.92.81.83,1.49,1.57,2.15,2.18a4.34,4.34,0,0,0,.49.35c.08,0,.17.07.22,0a.14.14,0,0,0,.05-.1h0a1.15,1.15,0,0,0,0-.19,43.83,43.83,0,0,0-1.55-5.63c-.53-1.54-2.1-5.45-2.77-7.1a.31.31,0,0,0,0-.1l0,0a.34.34,0,0,0-.48,0l-.06.09c-.54,1.24-1.6,3.7-1.83,4.56a.59.59,0,0,0,0,.45,4.46,4.46,0,0,1,.83,2.47q0,8.55-.06,13.08.07,4,.14,7.73c0,.14,0,.27,0,.41s0,.27,0,.41c0,1.73.06,3.42.1,5.07v.48h0v.43c0,.15,0,.29,0,.44l0,1.3c0,.18,0,.36,0,.54h0c0,.18,0,.36,0,.54v.27a2.44,2.44,0,0,0,0,.27l0,1.6c0,.13,0,.26,0,.4h0v.87c.06,3.18.13,6.13.19,8.81l-.46.08a8.22,8.22,0,0,0-1.73.53,11.82,11.82,0,0,0-1.77-4.22l-.15-.2a1.43,1.43,0,0,1-.14-.2L23,41.16l-2.47-1.44-3.06,4.65-.2-.12a1.32,1.32,0,0,0-.2-.12A8.37,8.37,0,0,0,12.75,43a7,7,0,0,0-.07-1.37,5.41,5.41,0,0,0-.12-.55,4.67,4.67,0,0,0,2.75-2.53,7.48,7.48,0,0,0,.52-1.6s0-.05,0-.07l0-.17s0,0,0-.07l0-.17,4.46,2.61.2.12.2.12,2.37,1.39v-.1c0-.74,0-1.48,0-2.23l-1.24-.7-.2-.11-.2-.12-5.39-3-.6-.34L15.25,34l-.6-.33L4.53,27.9l.36-.07.36-.06,9.35,5.29.61.35.23.13.61.34,5.66,3.2.2.11.2.12,1,.55c0-.18,0-.36,0-.55l-.71-.4-.2-.11-.2-.11-6-3.37L15.39,33h0l-.23-.14-.63-.35L6,27.65l.72-.13,7.73,4.38.65.36.23.14.64.36h0l6.26,3.54.2.12.2.11.45.25c0-.3,0-.6,0-.9,0-.13,0-.27,0-.4v-.75l-.44-.38a23.38,23.38,0,0,0-2.35-1.74,26.61,26.61,0,0,0-4.68-2.35L15.51,30c0-.09,0-.18-.07-.27A29.11,29.11,0,0,0,14,25.36a9.66,9.66,0,0,0,3-.4l.09,0,0,0,.1,0h0l.21-.09c1.5,2.65,3.19,5.58,4.11,7,.23.34.76,1.14,1.5,2.28l.08.12V34.1c0-1.8-.07-3.62-.1-5.46-1-1.39-2.4-3.23-3.71-4.95l.18-.14.18-.15a6.18,6.18,0,0,0,2-6.81,3.54,3.54,0,0,0-2.31-2.47,2.05,2.05,0,0,0-1.93.42,1.91,1.91,0,0,0,.36,2.68,2,2,0,0,0,.37.22s.06,0,.07,0a0,0,0,0,0,0-.05,1.41,1.41,0,0,1,.18-1.85l0,0a.71.71,0,0,1,.57-.06A2.24,2.24,0,0,1,20.27,17a4.79,4.79,0,0,1-1.51,5.27,1.22,1.22,0,0,1-.17.15l-.18.15c-1-1.27-1.85-2.39-2.39-3.07l-1.13.82,1.8,3.22-.11.05-.1,0-.23.07A9.16,9.16,0,0,1,13.3,24a17,17,0,0,0-4.19-5.61,12.8,12.8,0,0,0-6.23-2.55l-1-.08.23.93a11.68,11.68,0,0,0,10.24,8.6,29,29,0,0,1,1.19,3c.1.3.19.61.28.91,0,.09.05.18.08.26h0c0,.09.05.18.07.27-3.29-1.1-5.88-1.52-6.74-2.7l-1.12.18-.73.11h0l-.76.12-.37.06-.36.06-.32-.18-.32-.18L2.2,26.54l-2.07.32A.17.17,0,0,0,0,27a.15.15,0,0,0,.08.11l1,.57.2.12,13.44,7.88a1,1,0,0,1,0,.17.22.22,0,0,1,0,.08l0,.17s0,0,0,.07A6.53,6.53,0,0,1,14.11,38a3.29,3.29,0,0,1-2,1.82A10.65,10.65,0,0,0,8,35.33l-.3.49a10.29,10.29,0,0,1,3.86,4.1l-.24,0A10.05,10.05,0,0,0,7.61,36l0-.06,0,0a11.52,11.52,0,0,0-5.94-1.42,11.45,11.45,0,0,0,4.05,4.57A9.87,9.87,0,0,0,8.9,40.35h0a8.13,8.13,0,0,0,1.56.21H11l.6-.06.23,0h0a3.87,3.87,0,0,0,2.81-2.26,6.55,6.55,0,0,0,.52-1.68s0-.05,0-.07a1,1,0,0,0,0-.17s0-.05,0-.07l0-.18.21.13,0,.17a.17.17,0,0,1,0,.07l0,.17a.22.22,0,0,1,0,.08,6.88,6.88,0,0,1-.52,1.65,4.08,4.08,0,0,1-2.41,2.23,3.8,3.8,0,0,1-.55.16h-.07l-.16,0a5.93,5.93,0,0,1-.59.07h-.61a8.76,8.76,0,0,1-1.62-.21h0a10.14,10.14,0,0,1-3.25-1.22,11.71,11.71,0,0,1-4.22-4.82l-.06-.15.16,0A11.82,11.82,0,0,1,7.7,35.84l.3-.49a12,12,0,0,0-6.59-1.53l-.95.08.38.88a12,12,0,0,0,4.44,5.09A10.59,10.59,0,0,0,8.7,41.16h0l.08,0h0a10.52,10.52,0,0,0,1.58.21h0l.87,0h0c0,.15.07.3.1.45a5.91,5.91,0,0,1,.05,1.26,12.31,12.31,0,0,0-2.08.48h0a11.09,11.09,0,0,0-3.5,1.76A12.14,12.14,0,0,0,2,51l-.27.92,1,0A12.1,12.1,0,0,0,9,49.55a9.66,9.66,0,0,0,1.67-1.65l.13-.15.18-.24A9.78,9.78,0,0,0,12,46h0a7.73,7.73,0,0,0,.58-1.54h.12a7.08,7.08,0,0,1,3.65.89l.2.12.19.13L5.09,63.23a.14.14,0,0,0,0,.18l.07,0h0l1-.25a.18.18,0,0,0,.07,0c2-3,3.9-4,4.69-4.25a1.3,1.3,0,0,0,.63-.5l7.15-10.8.14.21c0,.06.09.14.14.21a11,11,0,0,1,1.34,3.63,10.45,10.45,0,0,0-3.15,3.2l0,0a10.1,10.1,0,0,0-1,1.77h0v0a12,12,0,0,0-.51,6.75l.22.93.81-.51a12.11,12.11,0,0,0,4.37-5.16,9.93,9.93,0,0,0,.4-1.2,12,12,0,0,0,.26-1.33s0,0,0-.08a14.32,14.32,0,0,0,.07-3.7,7.58,7.58,0,0,1,1.54-.53l.46-.09c.07,2.73.13,5.16.2,7.26a46.2,46.2,0,0,1-.4,7.15c-.29,1.5-.76,2.8-.44,2.83a.22.22,0,0,0,.15-.08l.09-.1h0l.07-.09a6.9,6.9,0,0,0,.47-.77l.15-.28c0-.06.07-.13.1-.2l.1-.21a.37.37,0,0,0,.05-.11c0-.07.07-.15.11-.22a.08.08,0,0,1,0,0l.07-.17a.61.61,0,0,0,.05-.12l0-.06,0-.09.08-.18,0-.1c0-.09.07-.18.11-.28l.12-.3s0-.08,0-.11.08-.23.13-.35,0-.08,0-.13l.09-.25.14-.41c.14-.43.28-.89.42-1.39.06-.23.12-.46.19-.7a29,29,0,0,0,.77-4.44c.13-1.34.2-2.73.22-4.17V51.78a4.24,4.24,0,0,1,.46.1,7.46,7.46,0,0,1,1.37.49A14.78,14.78,0,0,0,29,56a.59.59,0,0,0,0,.13,10.48,10.48,0,0,0,.66,2.53,12.11,12.11,0,0,0,4.37,5.16l.81.51.23-.93a12.11,12.11,0,0,0-.52-6.74v0h0a10.76,10.76,0,0,0-1-1.77h0a10.5,10.5,0,0,0-3.17-3.23,10.8,10.8,0,0,1,1.25-3.49c0-.07.09-.14.13-.22l.14-.21,9.1,13.8h0l.32.48.6.92.56.86.18,0a1.42,1.42,0,0,0,.29,0,2.06,2.06,0,0,0,2-1.51l0-.18h0l-.2-.31-.71-1.07h0l-10-15.21.19-.13.2-.11a6.94,6.94,0,0,1,3.65-.9A11.14,11.14,0,0,0,38.89,46s0,0,0,.05A10.94,10.94,0,0,0,40,47.75h0l.12.15a10.49,10.49,0,0,0,1.68,1.65,12.09,12.09,0,0,0,6.36,2.28l1,0L48.89,51a12,12,0,0,0-3.82-5.57,10.7,10.7,0,0,0-3.36-1.72l-.11,0a12.09,12.09,0,0,0-2.12-.5,4.75,4.75,0,0,1,.05-1.25,2.52,2.52,0,0,1,.1-.46h0l.86,0h0A9.34,9.34,0,0,0,42,41.2h.07l.11,0a10.5,10.5,0,0,0,3.42-1.29A12.06,12.06,0,0,0,50,34.78l.38-.88-1-.08a12,12,0,0,0-6.58,1.53,10.83,10.83,0,0,0-4.14,4.45A3.25,3.25,0,0,1,36.78,38a6.13,6.13,0,0,1-.5-1.73s0,0,0-.07l0-.17a.22.22,0,0,0,0-.08c0-.06,0-.11,0-.17l13.46-7.9.2-.12,1-.56a.17.17,0,0,0,.08-.21A.15.15,0,0,0,50.78,26.87ZM31.61,22.93l-.18-.16h0l-.17-.16a6.13,6.13,0,0,1-1.21-1.73,5.54,5.54,0,0,1-.2-4.1,3,3,0,0,1,1.91-2.1,1.48,1.48,0,0,1,1.36.27l0,0h0a1.51,1.51,0,0,1,.17,1.8,0,0,0,0,1,0,0,1.53,1.53,0,0,0-.28-1.6h0l0,0a1.27,1.27,0,0,0-1.13-.2,2.79,2.79,0,0,0-1.75,1.95,5.19,5.19,0,0,0,1.34,5.54l.17.16.17.16Zm4.75,6.47a2.5,2.5,0,0,0-.07.26,2.68,2.68,0,0,0-.07.27L36,30c0-.09.05-.18.07-.27h0c0-.09.05-.17.07-.26a28.35,28.35,0,0,1,1.75-4.74,10.88,10.88,0,0,1-3.27-.2l-.23-.07-.23-.07.13-.2.23.07.24.06a10.37,10.37,0,0,0,3.24.17,16.83,16.83,0,0,1,4.16-5.71,12.28,12.28,0,0,1,5.92-2.43l.16,0,0,.16a11.14,11.14,0,0,1-10.06,8.21,27.72,27.72,0,0,0-1.75,4.68ZM18.91,22.9l.17-.15a5.29,5.29,0,0,0,1.73-5.9,2.82,2.82,0,0,0-1.76-2,1.27,1.27,0,0,0-1.13.21l0,0h0a1.54,1.54,0,0,0-.28,1.6s0,.05,0,0A1.49,1.49,0,0,1,17.72,15h0l0,0a1.48,1.48,0,0,1,1.36-.27A3,3,0,0,1,21,16.78a5.54,5.54,0,0,1-.2,4.1,6,6,0,0,1-1.58,2.06l-.18.15a1.24,1.24,0,0,1-.18.14l-.15-.2.18-.14Zm-6.16,1.82a11.17,11.17,0,0,1-10.06-8.2l0-.16h.16A12.48,12.48,0,0,1,8.74,18.8a16.92,16.92,0,0,1,4.16,5.71,9.62,9.62,0,0,0,3.62-.27l.23-.07h0l.21-.09a1.28,1.28,0,0,0,.11.2l-.21.09h0l-.19.06a9.66,9.66,0,0,1-3.63.3,28.64,28.64,0,0,1,1.74,4.74,2,2,0,0,1,.07.26,2.68,2.68,0,0,1,.07.27l-.24-.08c0-.09-.05-.18-.07-.28a2.5,2.5,0,0,1-.07-.26,28.5,28.5,0,0,0-1.75-4.67ZM10.58,40h-.06a11.78,11.78,0,0,1-1.33-.16h0l-.13,0H9a9.3,9.3,0,0,1-3-1.13A10.29,10.29,0,0,1,2.63,35.2a10.43,10.43,0,0,1,4.65,1.32h0A9.64,9.64,0,0,1,10.7,40Zm1.28,1.28.18,0a4.74,4.74,0,0,1,.1.49,6.3,6.3,0,0,1,.07,1.3l-.23,0a6.08,6.08,0,0,0-.07-1.28c0-.13,0-.25-.07-.38l0-.1Zm7.55,6.18-.14-.21c-.05-.06-.09-.13-.14-.2A8.79,8.79,0,0,0,17.9,45.7a8.94,8.94,0,0,0-.84-.65l-.2-.12a.82.82,0,0,0-.2-.12,7.41,7.41,0,0,0-3.77-1H12.7l-.41,0h-.18l-.24,0-.61.09a12,12,0,0,0-1.94.5l-.18.06-.24.09h0A9.56,9.56,0,0,0,6.29,46,11.41,11.41,0,0,0,2.8,51a11.29,11.29,0,0,0,5.73-2.1,9.75,9.75,0,0,0,1.55-1.53h0a9.32,9.32,0,0,0,1.2-1.83.16.16,0,0,0,0-.07,7.44,7.44,0,0,0,.4-1h.08l.17,0a7.2,7.2,0,0,1-.43,1.12l0,0a9.23,9.23,0,0,1-1.26,1.94h0A10.2,10.2,0,0,1,8.68,49.1a11.81,11.81,0,0,1-6,2.16H2.49l0-.15a11.71,11.71,0,0,1,3.62-5.29,10,10,0,0,1,2.67-1.44h0l.09,0,.14-.05h0a11.71,11.71,0,0,1,2.24-.58l.6-.07.23,0,.59,0H13a7.93,7.93,0,0,1,3.84,1l.2.12.19.12a7.18,7.18,0,0,1,.87.67,9,9,0,0,1,1.21,1.33l.14.2c0,.07.1.14.14.21a11.23,11.23,0,0,1,1.58,3.92l-.2.13a11.11,11.11,0,0,0-1.52-3.84Zm-8.34-2.86c-.09.22-.18.44-.28.65h0a10.07,10.07,0,0,1-2.61,3.19,10.4,10.4,0,0,1-4.47,1.86,10.3,10.3,0,0,1,2.94-3.85,8.74,8.74,0,0,1,2.46-1.33h0L9.48,45h0a13,13,0,0,1,1.55-.39Zm12.34,6.64a8.34,8.34,0,0,0-1.6.53l-.17.08-.37.19-.15.09-.06,0c-.18.1-.36.22-.54.34a9.92,9.92,0,0,0-2.63,2.81A9.24,9.24,0,0,0,17,57h0a10.08,10.08,0,0,0-.71,3.88,11.69,11.69,0,0,0,.2,2.2,11.5,11.5,0,0,0,3.9-4.7,8.09,8.09,0,0,0,.37-1.08A9.75,9.75,0,0,0,21,56.23a.68.68,0,0,0,0-.14,13.51,13.51,0,0,0,.13-3.3l.09,0,.13-.08a13.9,13.9,0,0,1-.12,3.47.78.78,0,0,1,0,.14c-.06.34-.13.68-.21,1v0a8.5,8.5,0,0,1-.37,1.11,11.75,11.75,0,0,1-4.13,4.89l-.14.09,0-.16a11.75,11.75,0,0,1,.49-6.38h0L17,57l-.21-.1v0a12.84,12.84,0,0,1,.8-1.51l.06-.09a10,10,0,0,1,2.83-3v0l.43-.3.1-.06h0s0,0,0,0l.17-.1.35-.18.19-.08A7.23,7.23,0,0,1,23.41,51c.15,0,.3-.06.46-.09a1.69,1.69,0,0,0,0,.23c-.16,0-.31.05-.46.09Zm-3,4.75a.51.51,0,0,1,0,.13,9.23,9.23,0,0,1-.21,1,9,9,0,0,1-.33,1A10.38,10.38,0,0,1,16.93,62c0-.33-.06-.72-.06-1.15a9.77,9.77,0,0,1,.66-3.63v0a13.41,13.41,0,0,1,.74-1.4h0a11.16,11.16,0,0,1,2.2-2.45A11.84,11.84,0,0,1,20.43,56Zm12.75-.77,0,0a13.59,13.59,0,0,1,.85,1.6,0,0,0,0,0,0,0h0a11.8,11.8,0,0,1,.49,6.39l0,.16-.13-.09a11.7,11.7,0,0,1-4.14-4.89,8.64,8.64,0,0,1-.37-1.12h0v0c-.08-.32-.15-.65-.2-1a.06.06,0,0,0,0,0,14.16,14.16,0,0,1-.13-3.62l.12.08.09.06a14,14,0,0,0,.16,3.48h0a8.08,8.08,0,0,0,.16.8l0,.15a.14.14,0,0,0,0,.06h0a8,8,0,0,0,.36,1.08,11.41,11.41,0,0,0,3.9,4.69A11.36,11.36,0,0,0,33.86,57h0A9.7,9.7,0,0,0,33,55.34h0l-.18-.27-.07-.1-.12-.17-.19-.26-.09-.11a8.3,8.3,0,0,0-.54-.64l-.16-.16h0l-.11-.12-.12-.11-.16-.15L31,53l-.1-.09-.39-.3-.18-.13c-.18-.12-.35-.24-.54-.35l0,0-.16-.09-.37-.19-.17-.08a7.44,7.44,0,0,0-1.44-.5l-.46-.1V51a3.73,3.73,0,0,1,.46.09,7.82,7.82,0,0,1,1.48.5l.19.09h0l.35.17.21.12h0L30,52l.43.3v0a10.24,10.24,0,0,1,2.81,3Zm-2.73.9a.5.5,0,0,0,0-.12,11.92,11.92,0,0,1,0-2.67,11.16,11.16,0,0,1,2.2,2.45h0a14.29,14.29,0,0,1,.73,1.4v0a10.5,10.5,0,0,1,.6,4.78A10.3,10.3,0,0,1,31,58.15a7.36,7.36,0,0,1-.34-1h0c-.08-.34-.15-.69-.2-1Zm9.1-12.41a12.26,12.26,0,0,1,2.24.57l.06,0,.2.08h0a10.09,10.09,0,0,1,2.66,1.44,11.75,11.75,0,0,1,3.63,5.28l0,.16h-.16a11.73,11.73,0,0,1-6-2.17,9.33,9.33,0,0,1-1.58-1.56,11.77,11.77,0,0,1-1.27-1.94l0,0h0a12.33,12.33,0,0,1-.52-1.13h.1l.16,0c.12.28.28.64.49,1v0a12.15,12.15,0,0,0,1.23,1.88,9.29,9.29,0,0,0,1.55,1.52A11.4,11.4,0,0,0,48.07,51a11.46,11.46,0,0,0-3.49-5A9.56,9.56,0,0,0,42,44.61l-.28-.1-.07,0-.12-.05-.12,0c-.39-.12-.76-.23-1.12-.31l-.2,0A3.73,3.73,0,0,0,39.6,44c-.2,0-.41-.06-.61-.08l-.24,0h-.17l-.42,0H38a7.57,7.57,0,0,0-3.77,1l-.2.12-.19.13a6.6,6.6,0,0,0-.85.65,8.21,8.21,0,0,0-1.32,1.5l-.14.21-.13.21a11,11,0,0,0-1.43,3.7l-.21-.13a11.3,11.3,0,0,1,1.5-3.79l.13-.21.14-.2a9.49,9.49,0,0,1,1.3-1.46,8.16,8.16,0,0,1,.88-.67l.19-.12.2-.12a7.71,7.71,0,0,1,3.84-1h.22l.58,0,.24,0c.2,0,.4,0,.61.05Zm.25.89a10.21,10.21,0,0,1,1.45.35h0l.48.17h0a9.38,9.38,0,0,1,2.45,1.33,10.42,10.42,0,0,1,2.94,3.86,10.3,10.3,0,0,1-4.47-1.87A9,9,0,0,1,41.23,47l0,0h0a11.49,11.49,0,0,1-1.09-1.68s0,0,0,0v0c-.1-.22-.19-.43-.27-.64ZM39,41.4c0,.13-.06.25-.08.38a5.47,5.47,0,0,0-.06,1.28l-.23,0a5.68,5.68,0,0,1,.07-1.3,4.74,4.74,0,0,1,.1-.49h0l.17,0v.1Zm-2.78-3.18a3.87,3.87,0,0,0,2.82,2.26h0l.22,0h0l.6.06a0,0,0,0,1,0,0l.42,0h0A8.48,8.48,0,0,0,42,40.37h0a10.17,10.17,0,0,0,3.19-1.19,11.45,11.45,0,0,0,4-4.57A11.5,11.5,0,0,0,43.28,36h0A10.08,10.08,0,0,0,39.54,40l-.24,0a10.27,10.27,0,0,1,3.87-4.11,11.67,11.67,0,0,1,6.23-1.44h.16l-.06.15a11.7,11.7,0,0,1-4.21,4.82A10.32,10.32,0,0,1,42,40.59h0a12.86,12.86,0,0,1-1.62.22h-.6l-.59-.07-.17,0H39a5,5,0,0,1-.55-.16,4,4,0,0,1-2.39-2.21,6.27,6.27,0,0,1-.52-1.64s0,0,0-.07a.57.57,0,0,1,0-.18.25.25,0,0,0,0-.07,1,1,0,0,0,0-.17l.21-.12,0,.17h0a.17.17,0,0,0,0,.07h0a1,1,0,0,0,0,.17.17.17,0,0,0,0,.07,6.09,6.09,0,0,0,.51,1.67ZM40.16,40a9.67,9.67,0,0,1,3.42-3.48,10.29,10.29,0,0,1,4.66-1.33,9.34,9.34,0,0,1-8,4.81h-.1Z"/><path class="cls-2" d="M233.79,31.18V19.65c0-5.47-3.11-9.16-8.79-9.16-4.73,0-8.29,2.79-9.68,7.58V2.58H204v.11c2.62,1.16,3.34,2.37,3.34,5.68V36.92h10.85v-.11c-2.56-1.32-2.83-2.16-2.83-5.63V22.39c0-5.22,2.45-8.11,5.9-8.11,3.28,0,4.56,2.42,4.56,5.37V31.18c0,3.47-.27,4.32-2.83,5.63v.11h13.69v-.11C234.07,35.5,233.79,34.65,233.79,31.18Z"/><path class="cls-2" d="M104.07,30.27c0-3.51.11-6.81.11-10.58,0-6.44-4.54-9.06-12.9-9.06a17,17,0,0,0-6,1A6.87,6.87,0,0,1,86.5,13.5a6.92,6.92,0,0,1,4.62-1.87c3.71,0,5.09,2.83,5.09,6v4.29L92,22.62C85.36,23.78,79.16,25,79.16,30.74c0,4.45,3.71,6.54,8.08,6.54,4.65,0,8.24-2.77,9-6.33,0,.37.11,1.57.11,1.78.44,2.83,2.43,4.66,6.36,4.66a8.41,8.41,0,0,0,6-2.35v-.11a3,3,0,0,1-1.39.31C104.79,35.24,104.07,33.52,104.07,30.27Zm-8-2.36c-.06,3.72-2.27,6.29-5.21,6.29-2.32,0-3.76-1.52-3.76-4.51,0-3.51,1.88-5.45,6.2-6.28l2.88-.58Z"/><path class="cls-2" d="M147.26,11.26v-.1h-8.08v.1a3.5,3.5,0,0,1,2.6,3.41,5.91,5.91,0,0,1-.5,2.3L136.69,27.6l-4.37-10.89a12,12,0,0,1-.83-3,2.5,2.5,0,0,1,1.66-2.41v-.1H120.53v.1c1.82,1.42,2.43,2.2,4,5.55l.83,1.84L121,27.81l-5.2-11.15a8.77,8.77,0,0,1-.83-3,2.34,2.34,0,0,1,1.38-2.35v-.11H103.76v.11c1.83,1.41,2.49,2.25,4,5.55l9.85,20.63h.11l8.3-17.23,7.59,17.23h.11L143,16.92C144.6,13.46,145.38,12.68,147.26,11.26Z"/><path class="cls-2" d="M174.15,31.21V2.58H162.86v.11c2.6,1.15,3.32,2.35,3.32,5.65v8.84a9.14,9.14,0,0,0-9.13-6.55c-6.81,0-12.35,5.39-12.35,13.67,0,8.11,5.37,13.14,12,13.14a9.68,9.68,0,0,0,9.52-7.22v6.7h11v-.11C174.64,35.51,174.15,34.41,174.15,31.21Zm-8-4.71c0,4.76-3.16,7.8-6.43,7.8-4.15,0-6.53-3.66-6.53-10,0-7.12,2.27-11.2,6.48-11.2,3.26,0,6.47,3.19,6.47,8.27Z"/><path class="cls-2" d="M84.1,15.61c0-2.88-2.27-5-5.65-5-4.92,0-7.53,4.3-8.85,9.12V11.16H58.53v.1c2.6,1.31,3.09,2.36,3.09,5.71V31.21c0,3.46-.27,4.29-2.76,5.6v.11H74.08v-.11c-3-1.1-4.48-2.14-4.48-5.6V23.93c0-5.23,2.82-8.9,6-8.9,2.1,0,3.26,1,3.26,2.78a2.52,2.52,0,0,1-1.71,2.46,2.94,2.94,0,0,0,1.93.57A5,5,0,0,0,84.1,15.61Z"/><path class="cls-2" d="M161,39.49a2.24,2.24,0,1,0,2.36,2.24h0A2.31,2.31,0,0,0,161,39.49Z"/><path class="cls-2" d="M202.43,30.27c0-3.51.11-6.81.11-10.58,0-6.44-4.54-9.06-12.9-9.06-6.42,0-10.85,2.83-10.85,6.6,0,2.57,2.11,4.19,4.82,4.19a4.79,4.79,0,0,0,4.81-2.83,2.73,2.73,0,0,1-.94.16c-1.6,0-2.6-1.1-2.6-3,0-2.25,1.44-4.08,4.59-4.08,3.71,0,5.1,2.83,5.1,6v4.29l-4.21.73c-6.64,1.16-12.84,2.36-12.84,8.12,0,4.45,3.71,6.55,8.08,6.55,4.65,0,8.24-2.78,9-6.34,0,.37.11,1.57.11,1.78.44,2.83,2.43,4.66,6.36,4.66a8.37,8.37,0,0,0,6-2.35v-.11a3,3,0,0,1-1.39.31C203.15,35.24,202.43,33.52,202.43,30.27Zm-8-2.36c0,3.72-2.27,6.29-5.2,6.29-2.33,0-3.76-1.52-3.76-4.51,0-3.5,1.88-5.44,6.19-6.28l2.88-.58Z"/><path class="cls-2" d="M59.32,56l1.59-.15a3.69,3.69,0,0,0,.52,1.62,2.85,2.85,0,0,0,1.28,1,4.64,4.64,0,0,0,1.94.39,4.69,4.69,0,0,0,1.7-.29,2.39,2.39,0,0,0,1.09-.81,2,2,0,0,0,.36-1.13,1.76,1.76,0,0,0-.34-1.08,2.5,2.5,0,0,0-1.15-.77,18.93,18.93,0,0,0-2.25-.64,10.79,10.79,0,0,1-2.45-.83,3.39,3.39,0,0,1-1.36-1.22,3.14,3.14,0,0,1-.44-1.63,3.42,3.42,0,0,1,.54-1.86,3.47,3.47,0,0,1,1.59-1.32,6.61,6.61,0,0,1,4.82,0,3.6,3.6,0,0,1,1.66,1.38A4.15,4.15,0,0,1,69,50.74l-1.61.13A2.77,2.77,0,0,0,66.55,49a3.35,3.35,0,0,0-2.21-.63,3.45,3.45,0,0,0-2.22.58,1.75,1.75,0,0,0-.69,1.39,1.5,1.5,0,0,0,.49,1.16,6.38,6.38,0,0,0,2.53.94,16.44,16.44,0,0,1,2.81.84,3.82,3.82,0,0,1,1.63,1.34,3.36,3.36,0,0,1,.53,1.87,3.62,3.62,0,0,1-.58,2,3.9,3.9,0,0,1-1.67,1.45,5.64,5.64,0,0,1-2.44.51,7,7,0,0,1-2.89-.52A4.08,4.08,0,0,1,60,58.32,4.66,4.66,0,0,1,59.32,56Z"/><path class="cls-2" d="M74.94,60.18V48.59H70.76V47H80.82v1.55h-4.2V60.18Z"/><path class="cls-2" d="M79.83,60.18,84.7,47h1.81L91.7,60.18H89.79l-1.48-4H83l-1.4,4Zm3.66-5.4h4.3l-1.32-3.64c-.41-1.1-.71-2-.9-2.72a16.43,16.43,0,0,1-.69,2.51Z"/><path class="cls-2" d="M93.13,60.18V47h8.56v1.55H94.81v4.07h6v1.55h-6v6Z"/><path class="cls-2" d="M104,60.18V47h8.56v1.55h-6.88v4.07h6v1.55h-6v6Z"/></g></g></svg>