<svg xmlns="http://www.w3.org/2000/svg" width="311.31" height="92.148" viewBox="0 0 311.31 92.148"><g transform="translate(0 0.164)"><path d="M-291.6,334.638a16.287,16.287,0,0,0-7.51,3.144,22.008,22.008,0,0,0-5.388,7.337,14.56,14.56,0,0,0,12.9-10.483Zm-4.892,6.331a13.547,13.547,0,0,1-6.62,3.144,19.273,19.273,0,0,1,4.478-5.728,15.163,15.163,0,0,1,5.864-2.747,13.831,13.831,0,0,1-3.675,5.288Z" transform="translate(355.477 -312.483)" fill="#fff"/><path d="M-340.487,337.782A16.262,16.262,0,0,0-348,334.638a14.554,14.554,0,0,0,12.9,10.483A21.985,21.985,0,0,0-340.487,337.782Zm-2.621,3.187-.044-.042a13.836,13.836,0,0,1-3.675-5.3,15.2,15.2,0,0,1,5.866,2.752,19.305,19.305,0,0,1,4.478,5.728A13.546,13.546,0,0,1-343.108,340.969Z" transform="translate(351.963 -312.483)" fill="#fff"/><path d="M-337.48,336.825a6.534,6.534,0,0,1,4.353,2.619l1.363-.988a6.657,6.657,0,0,1-.508-4.907.219.219,0,0,0-.029-.188c-1.786-2.619-11.429-12.893-12.429-12.893a.1.1,0,0,0-.051.013c-.654.432,5.328,13.4,7.133,16.245A.212.212,0,0,0-337.48,336.825Zm-4.9-12.988,7.325,10.355a.308.308,0,0,1-.054.431.307.307,0,0,1-.43-.053l-.016-.024c-.006-.006-6.931-10.627-6.936-10.636A.067.067,0,0,1-342.384,323.838Z" transform="translate(352.219 -313.627)" fill="#fff"/><path d="M-333.569,338.839l1.435-1.032c-.067-.086-.126-.162-.177-.226l-1.4,1.008C-333.666,338.662-333.618,338.747-333.569,338.839Z" transform="translate(353.117 -312.245)" fill="#fff"/><path d="M-329.947,328.166a.983.983,0,0,0,1.052-.911c0-.021,0-.041,0-.062a.984.984,0,0,0-1.069-.892.987.987,0,0,0-.6.278c.023-.519.26-.9.682-.9a.947.947,0,0,1,.616.249l.268-.386a1.291,1.291,0,0,0-.865-.317c-.8,0-1.218.678-1.218,1.551a1.408,1.408,0,0,0,.344,1.091A1.066,1.066,0,0,0-329.947,328.166Zm-.023-1.449a.514.514,0,0,1,.576.442.513.513,0,0,1-.442.576.468.468,0,0,1-.123,0,.528.528,0,0,1-.584-.467.355.355,0,0,1,0-.05.521.521,0,0,1,.54-.5l.036,0Z" transform="translate(353.329 -313.243)" fill="#fff"/><path d="M-327.482,328.166a.986.986,0,0,0,1.053-.913c0-.02,0-.039,0-.06a.9.9,0,0,0-.9-.9.862.862,0,0,0-.093,0,.915.915,0,0,0-.68.283c.025-.519.261-.9.684-.9a.947.947,0,0,1,.616.249l.268-.386a1.3,1.3,0,0,0-.864-.317c-.8,0-1.218.678-1.218,1.551a1.409,1.409,0,0,0,.346,1.091A1.058,1.058,0,0,0-327.482,328.166Zm-.025-1.449a.514.514,0,0,1,.577.441.513.513,0,0,1-.441.577.468.468,0,0,1-.123,0,.53.53,0,0,1-.586-.469.354.354,0,0,1,0-.048.523.523,0,0,1,.542-.5l.034,0Z" transform="translate(353.528 -313.243)" fill="#fff"/><path d="M-311.666,327.12a.839.839,0,0,0,.667-.3c-.017.523-.268.893-.686.893a.938.938,0,0,1-.649-.268l-.272.382a1.351,1.351,0,0,0,.91.341c.757,0,1.218-.633,1.218-1.551a1.432,1.432,0,0,0-.346-1.089,1.027,1.027,0,0,0-.787-.3.99.99,0,0,0-1.057.916c0,.024,0,.047,0,.069a.9.9,0,0,0,.891.912A1,1,0,0,0-311.666,327.12Zm.057-1.46a.54.54,0,0,1,.59.485.271.271,0,0,1,0,.042.527.527,0,0,1-.534.518c-.014,0-.028,0-.042,0a.523.523,0,0,1-.581-.459.523.523,0,0,1,.459-.581.539.539,0,0,1,.1,0Z" transform="translate(354.816 -313.243)" fill="#fff"/><path d="M-308.229,327.68h-1.353l.585-.487c.5-.41.738-.654.738-1.1a.846.846,0,0,0-.835-.857c-.034,0-.068,0-.1,0a1.167,1.167,0,0,0-1.048.6l.354.274c.216-.283.4-.426.656-.426a.427.427,0,0,1,.459.39c0,.017,0,.036,0,.053,0,.255-.144.439-.532.768l-.979.832v.392h2.053Z" transform="translate(355.009 -313.242)" fill="#fff"/><path d="M-283.95,349.966l-2.752-.423-1.447.817-.432.245-.419.237-.485-.078-.487-.076-1.017-.16h0l-.973-.155h0l-1.5-.239c-1.14,1.57-4.621,2.129-9.024,3.609.031-.118.066-.237.1-.354h0c.033-.118.068-.237.108-.354.116-.405.245-.815.379-1.226a37.472,37.472,0,0,1,1.589-4.014,15.547,15.547,0,0,0,13.643-11.456l.312-1.25-1.285.108a17.038,17.038,0,0,0-8.308,3.4,22.741,22.741,0,0,0-5.569,7.477,13,13,0,0,1-3.364-.169c-.108-.024-.216-.047-.324-.072s-.216-.051-.314-.08l13.01-19.643h.007l1.287-1.954.272-.412-.065-.237a2.743,2.743,0,0,0-2.645-2.018,2.963,2.963,0,0,0-.379.025l-.241.034h0l-.757,1.143-.806,1.224h0L-308.921,343.8c-.078-.067-.154-.139-.228-.216s-.152-.148-.216-.224a6.361,6.361,0,0,1-1.471-6.52,3.017,3.017,0,0,1,1.8-2.1.958.958,0,0,1,.747.071c.021.012.041.026.062.04a1.872,1.872,0,0,1,.24,2.461.06.06,0,0,0-.017.071c.023.042.093.015.093.015a2.541,2.541,0,0,0,1.274-3.362,2.569,2.569,0,0,0-.3-.506h0a2.729,2.729,0,0,0-2.564-.572,4.744,4.744,0,0,0-3.086,3.294,8.227,8.227,0,0,0,2.186,8.682c.073.071.15.144.228.216s.154.142.234.2l-5.463,8.307q.12,3.3.209,6.342c0,.071,0,.23.006.3.027-.025.209-.282.209-.282l8.391-12.671.024.011.047-.116h0l.093-.139-.1.275.23.076c.1.031.2.062.31.091a13.1,13.1,0,0,0,3.573.4c-.46,1.057-.882,2.161-1.256,3.288q-.433,1.3-.745,2.547c-.031.12-.06.239-.089.357s-.06.243-.086.363a34.807,34.807,0,0,0-6.2,3.117,27.366,27.366,0,0,0-3.722,2.8c-.089.08-.173.16-.257.241s-.15.144-.224.216-.12.118-.177.177v.118c0,.076,0,.15.006.226q.028,1.054.055,2.072l1.057-.6.268-.152.268-.152,8.35-4.725.851-.481.319-.179.853-.483,10.363-5.866h0l.954.167-11.435,6.473-.833.471-.312.177-.833.47h0l-7.937,4.49-.268.152-.268.15h0l-1.38.781.019.707,1.708-.964.268-.152.268-.152,7.545-4.265.813-.458.308-.173.813-.46,12.525-7.078h0l.477.082.475.082-13.54,7.652-.8.452-.3.169-.791.447-7.185,4.064-.268.152-.268.152-2.03,1.146q.034,1.495.064,2.9v.133l3.4-2,.532-.312,5.944-3.484c.013.076.025.15.038.224l.019.1c.015.074.027.148.044.216.006.033.013.068.019.1a9.618,9.618,0,0,0,.7,2.106,6.242,6.242,0,0,0,3.662,3.372c-.063.245-.108.492-.152.739a8.954,8.954,0,0,0-.108,1.823,11.2,11.2,0,0,0-5.759,1.487c-.089.051-.177.108-.264.158s-.173.108-.259.166c-1.4-2.123-2.773-4.215-4.076-6.185l-3.446,2.02c1.46,2.214,3.018,4.577,4.594,6.969-.068.089-.133.177-.192.266s-.126.179-.188.27a15.755,15.755,0,0,0-2.246,5.443,11.555,11.555,0,0,0-2.125-.678c-.2-.042-.405-.08-.612-.108-.006-3.3-.042-7.217-.124-11.634v-.78a.4.4,0,0,1,0-.053c0-.173-.007-.346-.011-.521,0-.192-.009-.382-.011-.576q-.02-.893-.04-1.815c0-.117-.007-.232-.009-.348l-.006-.348-.019-.707c-.007-.237-.011-.463-.017-.7q-.02-.756-.04-1.524c0-.177-.009-.357-.015-.54v-.064c0-.146-.009-.29-.015-.439a.123.123,0,0,0,0-.029c0-.135-.006-.272-.011-.41-.006-.2-.013-.41-.017-.616s-.013-.388-.019-.585-.011-.388-.016-.583q-.066-2.19-.148-4.477c-.006-.175-.013-.35-.022-.527h0c0-.175-.011-.355-.017-.532q-.073-1.908-.151-3.877c-.54-13.088-.553-20.168-.38-21.227,1.081,1.114,1.987,2.091,2.869,2.9a4.341,4.341,0,0,0,.658.468c.1.053.216.093.288.036a.222.222,0,0,0,.066-.144h0a.992.992,0,0,0-.017-.253,59.018,59.018,0,0,0-2.064-7.506c-.707-2.043-2.8-7.266-3.686-9.466a.52.52,0,0,0-.073-.124.657.657,0,0,0-.049-.051.458.458,0,0,0-.645.044.454.454,0,0,0-.075.118c-.726,1.661-2.133,4.934-2.446,6.077a.83.83,0,0,0,.066.612c.783,1.48,1.169,2.178,1.106,3.283q.028,11.406-.073,17.443.094,5.319.186,10.305c0,.182.006.363.011.54s.007.365.011.547q.063,3.473.126,6.763v.2c0,.115,0,.232.006.346v.114c0,.137.006.274.009.41v.162c0,.193.009.386.011.578.013.587.023,1.167.036,1.743,0,.238.009.474.013.713h0c.006.243.011.483.015.724,0,.119,0,.237.006.354s.006.239.009.357c.015.718.027,1.427.044,2.129,0,.179.006.357.011.54h0c0,.108,0,.206.006.31v.5l.007.226v.135c.089,4.244.175,8.173.259,11.748-.2.027-.41.063-.612.108a11.439,11.439,0,0,0-2.3.709,15.658,15.658,0,0,0-2.37-5.62c-.062-.091-.124-.18-.189-.268s-.129-.175-.195-.262l4.573-6.9-3.294-1.931-4.081,6.2c-.084-.057-.171-.113-.257-.167s-.175-.108-.264-.158a11.222,11.222,0,0,0-5.757-1.486,9.026,9.026,0,0,0-.108-1.823q-.06-.371-.152-.739a6.231,6.231,0,0,0,3.659-3.372,9.623,9.623,0,0,0,.7-2.127c.009-.031.015-.066.022-.1.015-.072.029-.146.044-.216.007-.033.011-.066.017-.1.013-.073.026-.148.038-.224l5.944,3.484.266.156.266.156,3.157,1.85v-.135q-.032-1.466-.062-2.965l-1.657-.937-.268-.152-.268-.153-7.19-4.062-.789-.445-.3-.171-.8-.452-13.489-7.625.475-.082.479-.082,12.472,7.051.819.46.306.175.808.456,7.548,4.267.268.15.268.151,1.3.739c0-.241-.009-.483-.013-.726l-.948-.54-.268-.152-.268-.152-7.939-4.493-.83-.468h0l-.312-.175-.835-.472-11.385-6.445.953-.164,10.313,5.836.857.485.317.179.853.481h0l8.348,4.723.268.152.268.152.593.335c-.009-.4-.015-.8-.024-1.2,0-.182-.006-.361-.011-.541s-.006-.363-.011-.54a.207.207,0,0,0,0-.064c0-.126,0-.253-.006-.381-.186-.171-.38-.342-.585-.517a29.847,29.847,0,0,0-3.174-2.313,34.977,34.977,0,0,0-6.236-3.134c-.027-.12-.055-.243-.084-.363s-.057-.237-.086-.354a37.828,37.828,0,0,0-1.992-5.824,12.5,12.5,0,0,0,3.981-.528l.118-.04.047-.017c.042-.017.084-.034.126-.053h0c.1-.038.19-.078.283-.119,2,3.526,4.257,7.434,5.485,9.3.3.46,1.005,1.526,2,3.035.036.053.069.108.108.16v-.07c-.044-2.395-.091-4.828-.135-7.28-1.34-1.857-3.2-4.315-4.953-6.6.082-.062.164-.124.243-.19s.16-.131.239-.2a8.264,8.264,0,0,0,2.634-9.085,4.757,4.757,0,0,0-3.086-3.294,2.73,2.73,0,0,0-2.566.572,2.544,2.544,0,0,0,.469,3.569,2.468,2.468,0,0,0,.5.3s.07.027.091-.015a.06.06,0,0,0-.015-.071,1.865,1.865,0,0,1,.241-2.461l.053-.036a.958.958,0,0,1,.757-.076,3.019,3.019,0,0,1,1.8,2.1,6.418,6.418,0,0,1-2.009,7.036c-.076.069-.153.135-.237.2s-.16.126-.243.19c-1.3-1.69-2.461-3.176-3.176-4.087l-1.513,1.089c.549.988,1.405,2.534,2.4,4.294-.049.024-.1.044-.148.064s-.093.031-.139.047c-.1.031-.2.064-.306.089a12.031,12.031,0,0,1-3.925.306,22.753,22.753,0,0,0-5.585-7.477,17.049,17.049,0,0,0-8.309-3.4l-1.283-.108.31,1.249A15.546,15.546,0,0,0-335.164,347.8a37.243,37.243,0,0,1,1.589,4.014q.2.611.376,1.214c.036.118.069.237.108.352h0c.034.12.066.237.1.355-4.383-1.469-7.844-2.027-8.981-3.593l-1.5.239-.973.157h0l-1.015.16-.49.078-.483.076-.426-.239-.432-.245-1.448-.817-2.754.422a.218.218,0,0,0-.164.258.216.216,0,0,0,.091.132l1.287.756.266.156,17.915,10.5c-.009.078-.017.156-.027.234a.764.764,0,0,1-.011.1l-.031.232a.492.492,0,0,1-.015.1,8.448,8.448,0,0,1-.675,2.33,4.394,4.394,0,0,1-2.608,2.426,14.327,14.327,0,0,0-5.493-5.932l-.407.648a13.657,13.657,0,0,1,5.145,5.474c-.108.019-.209.034-.317.046a13.408,13.408,0,0,0-4.991-5.259l.042-.071-.044.069a15.214,15.214,0,0,0-7.911-1.894,15.217,15.217,0,0,0,5.4,6.09,13.349,13.349,0,0,0,4.242,1.589h.011a11.553,11.553,0,0,0,2.074.277h.022a.206.206,0,0,0,.038,0,.123.123,0,0,0,.029,0,.162.162,0,0,0,.034,0,.055.055,0,0,0,.019,0c.192,0,.378,0,.561-.007a6.1,6.1,0,0,0,.793-.078c.108-.013.2-.031.3-.053h.006a5.16,5.16,0,0,0,3.75-3.007,8.986,8.986,0,0,0,.693-2.242c.007-.031.013-.066.017-.1.015-.076.027-.152.038-.228.006-.034.011-.066.015-.1.013-.076.022-.152.029-.23l.283.164c-.009.078-.019.154-.031.23a.783.783,0,0,1-.015.1l-.038.226c-.006.031-.013.066-.017.1a9.049,9.049,0,0,1-.694,2.209,5.45,5.45,0,0,1-3.189,2.95,6.061,6.061,0,0,1-.738.206l-.082.017c-.073.015-.148.027-.216.04a7.631,7.631,0,0,1-.785.089c-.168.011-.339.015-.515.015h-.3a11.82,11.82,0,0,1-2.161-.283h0a13.626,13.626,0,0,1-4.333-1.621,15.577,15.577,0,0,1-5.62-6.433l-.084-.2.216-.019a15.642,15.642,0,0,1,8.322,1.929l.4-.658a16.154,16.154,0,0,0-8.781-2.034l-1.273.108.5,1.174A16.127,16.127,0,0,0-344.6,367.3a14.333,14.333,0,0,0,4.563,1.717h0c.036.009.069.015.108.022a.033.033,0,0,0,.015,0,12.742,12.742,0,0,0,2.1.277h.006c.45.031.842.042,1.156.042h0q.078.3.126.607a7.084,7.084,0,0,1,.066,1.671,16.605,16.605,0,0,0-2.765.64l-.038.011a14.611,14.611,0,0,0-4.659,2.346,16.125,16.125,0,0,0-5.1,7.435l-.363,1.224,1.276-.042a16.131,16.131,0,0,0,8.484-3.044,13.45,13.45,0,0,0,2.235-2.2c.057-.07.116-.139.171-.216l.242-.319a13.131,13.131,0,0,0,1.312-2.074l.007-.011a10.286,10.286,0,0,0,.775-2.053h.16a9.275,9.275,0,0,1,4.863,1.189c.091.051.177.1.266.157s.173.108.257.166l-15.527,23.608a.17.17,0,0,0,.051.234.162.162,0,0,0,.089.027.14.14,0,0,0,.042-.007l1.347-.337a.154.154,0,0,0,.1-.071c2.627-4.016,5.2-5.3,6.251-5.664a1.706,1.706,0,0,0,.842-.663l9.537-14.4c.064.091.124.184.184.277s.122.188.18.285a14.347,14.347,0,0,1,1.785,4.843,13.941,13.941,0,0,0-4.2,4.275.4.4,0,0,0-.025.038,13.22,13.22,0,0,0-1.276,2.361v.011l-.013.029a16.126,16.126,0,0,0-.686,8.987l.3,1.241,1.081-.675a16.124,16.124,0,0,0,5.816-6.885,12.876,12.876,0,0,0,.532-1.593,13.9,13.9,0,0,0,.352-1.775c.007-.034.011-.068.015-.108a19.324,19.324,0,0,0,.1-4.927,9.919,9.919,0,0,1,2.053-.713c.209-.046.414-.086.612-.118.091,3.64.179,6.881.27,9.678a61.564,61.564,0,0,1-.54,9.537c-.379,2-1.01,3.737-.591,3.783a.334.334,0,0,0,.2-.116,1.657,1.657,0,0,0,.124-.137h0c.029-.038.062-.076.093-.12a8.793,8.793,0,0,0,.629-1.023c.064-.116.129-.24.2-.37.044-.086.091-.175.135-.266s.091-.184.137-.281c.024-.047.046-.1.07-.144.046-.1.1-.2.142-.3.009-.017.017-.036.026-.057.027-.062.06-.137.1-.226.02-.046.044-.1.067-.152.011-.027.024-.055.036-.084l.049-.113c.033-.078.07-.162.108-.251l.057-.139q.07-.17.146-.363c.051-.129.108-.266.158-.41q.029-.073.055-.146c.057-.15.113-.3.171-.466.021-.055.04-.108.058-.165.04-.108.08-.226.12-.344.061-.175.122-.354.184-.54.186-.565.376-1.189.563-1.857.082-.3.164-.606.245-.922a38.8,38.8,0,0,0,1.034-5.921q.25-2.681.289-5.558.007-1.151.009-2.474.3.053.612.133a9.849,9.849,0,0,1,1.823.658,19.36,19.36,0,0,0,.084,4.849c.006.062.015.122.025.182a13.489,13.489,0,0,0,.882,3.368,16.12,16.12,0,0,0,5.818,6.884l1.081.675.3-1.241a16.145,16.145,0,0,0-.686-8.988l-.013-.029v-.011a13.5,13.5,0,0,0-1.272-2.355V387.3a13.994,13.994,0,0,0-4.22-4.311,14.33,14.33,0,0,1,1.667-4.647c.057-.1.116-.2.175-.293s.119-.19.181-.283c4.716,7.156,9.448,14.331,12.128,18.4h0l.422.642.8,1.224.757,1.144.243.033a2.619,2.619,0,0,0,.38.025,2.742,2.742,0,0,0,2.645-2.018l.064-.237h0l-.272-.412-.946-1.433h0c-2.718-4.121-8.106-12.295-13.371-20.28.084-.057.171-.108.257-.166s.175-.108.264-.157a9.3,9.3,0,0,1,4.863-1.189,16.518,16.518,0,0,0,.956,2.1c.011.018.02.037.03.055a13.392,13.392,0,0,0,1.513,2.311l.013.017.158.194a13.529,13.529,0,0,0,2.235,2.2,16.13,16.13,0,0,0,8.484,3.044l1.274.042-.363-1.224a16.137,16.137,0,0,0-5.095-7.435,14.5,14.5,0,0,0-4.484-2.29c-.051-.017-.1-.034-.152-.049a16.568,16.568,0,0,0-2.825-.658,6.977,6.977,0,0,1,.065-1.671,6.141,6.141,0,0,1,.127-.607h0c.314,0,.707-.011,1.156-.042h0a12.046,12.046,0,0,0,1.984-.253l.1-.019c.049-.009.1-.02.146-.029a14.306,14.306,0,0,0,4.563-1.719,16.125,16.125,0,0,0,5.928-6.789l.5-1.174-1.272-.108a16.151,16.151,0,0,0-8.781,2.034A14.421,14.421,0,0,0-300,367.205a4.39,4.39,0,0,1-2.606-2.426,8.46,8.46,0,0,1-.673-2.308c0-.031-.011-.064-.014-.1-.011-.076-.022-.154-.031-.232,0-.034-.009-.066-.012-.1-.009-.078-.017-.154-.026-.235l17.95-10.524.266-.156,1.287-.757a.215.215,0,0,0,.083-.293A.215.215,0,0,0-283.95,349.966Zm-25.564-5.263c-.078-.068-.157-.137-.23-.206h0c-.078-.069-.152-.144-.226-.216a7.958,7.958,0,0,1-1.621-2.3,7.4,7.4,0,0,1-.27-5.472,4.056,4.056,0,0,1,2.552-2.8,1.971,1.971,0,0,1,1.807.361.221.221,0,0,1,.04.031l.009.011a2,2,0,0,1,.222,2.391c-.026.042-.064.011-.051-.027a2.022,2.022,0,0,0-.376-2.138l-.009-.009c-.019-.017-.039-.034-.059-.049a1.679,1.679,0,0,0-1.5-.274,3.755,3.755,0,0,0-2.339,2.6,6.928,6.928,0,0,0,1.792,7.384c.073.076.148.15.224.216s.152.144.23.216Zm6.338,8.626c-.034.119-.066.237-.1.355s-.063.241-.093.361c-.108.038-.216.078-.324.118.029-.12.059-.241.093-.361h0c.027-.118.058-.235.093-.352a37.942,37.942,0,0,1,2.328-6.32,13.9,13.9,0,0,1-4.353-.264c-.108-.025-.216-.055-.315-.082s-.206-.062-.306-.1l.177-.266c.1.031.2.064.306.091s.209.055.317.08a13.792,13.792,0,0,0,4.323.216,22.447,22.447,0,0,1,5.541-7.614,16.527,16.527,0,0,1,7.9-3.235l.216-.019-.053.209a14.871,14.871,0,0,1-13.413,10.944,37.553,37.553,0,0,0-2.34,6.237Zm-23.266-8.671c.08-.064.158-.129.235-.2a7.045,7.045,0,0,0,2.294-7.857,3.758,3.758,0,0,0-2.339-2.6,1.68,1.68,0,0,0-1.507.274c-.019.015-.038.031-.057.049l-.009.009a2.021,2.021,0,0,0-.376,2.138c.013.038-.026.07-.051.027a2,2,0,0,1,.216-2.393s.006,0,.009-.009a.373.373,0,0,1,.04-.031,1.979,1.979,0,0,1,1.808-.361,4.056,4.056,0,0,1,2.552,2.8,7.413,7.413,0,0,1-.27,5.472A8.083,8.083,0,0,1-326,344.727c-.078.067-.158.135-.239.2s-.158.126-.24.188c-.069-.089-.139-.177-.205-.266a2.753,2.753,0,0,0,.243-.189Zm-8.2,2.437a14.88,14.88,0,0,1-13.413-10.944l-.051-.209.216.02a16.537,16.537,0,0,1,7.9,3.235,22.436,22.436,0,0,1,5.54,7.614,13.1,13.1,0,0,0,4.836-.354c.1-.031.2-.064.3-.1h.007c.093-.038.186-.078.277-.118.051.089.1.179.152.27l-.283.12-.031.013h-.009c-.08.027-.171.059-.253.082a13.2,13.2,0,0,1-4.84.395,37.976,37.976,0,0,1,2.328,6.307c.031.118.064.237.093.354s.062.241.093.361c-.108-.04-.216-.078-.324-.117-.027-.12-.06-.24-.091-.361s-.063-.237-.1-.354a37.36,37.36,0,0,0-2.349-6.216Zm-2.9,20.379h-.077a15.7,15.7,0,0,1-1.781-.216.3.3,0,0,1-.062-.013l-.179-.036h0a12.605,12.605,0,0,1-4.01-1.5,13.824,13.824,0,0,1-4.491-4.647,13.891,13.891,0,0,1,6.2,1.764l.017.011a12.857,12.857,0,0,1,4.548,4.647c-.055-.006-.11-.006-.164-.009Zm1.712,1.705c.08-.015.16-.031.238-.049q.081.324.133.648a8.119,8.119,0,0,1,.091,1.729c-.108.006-.206.013-.31.024a7.77,7.77,0,0,0-.084-1.706c-.027-.169-.059-.339-.1-.509-.008-.043-.019-.088-.031-.133a.452.452,0,0,0,.065,0Zm10.057,8.245c-.058-.1-.122-.188-.184-.279s-.124-.182-.19-.268a11.134,11.134,0,0,0-1.629-1.812,10.41,10.41,0,0,0-1.131-.871c-.084-.057-.171-.108-.257-.167s-.175-.108-.266-.158a9.989,9.989,0,0,0-5.027-1.325h-.253c-.182,0-.367.011-.555.023a2.166,2.166,0,0,0-.235.017c-.108.007-.216.017-.319.029-.264.027-.54.063-.812.108a16.153,16.153,0,0,0-2.585.667c-.082.025-.162.055-.245.084l-.324.108h0a13.01,13.01,0,0,0-3.476,1.881,15.213,15.213,0,0,0-4.647,6.677,15.2,15.2,0,0,0,7.639-2.81,12.277,12.277,0,0,0,2.06-2.036h0a12.568,12.568,0,0,0,1.61-2.439c.017-.029.031-.059.046-.091a9.727,9.727,0,0,0,.541-1.361c.038-.006.076-.011.113-.015l.216-.025a9.666,9.666,0,0,1-.57,1.495.457.457,0,0,0-.024.049,12.836,12.836,0,0,1-1.693,2.585h0a12.645,12.645,0,0,1-2.109,2.083,15.61,15.61,0,0,1-8.041,2.887l-.216.007.06-.2a15.6,15.6,0,0,1,4.823-7.026,13.279,13.279,0,0,1,3.556-1.923h0q.057-.023.113-.042c.061-.024.124-.047.188-.068l.046-.017a16.25,16.25,0,0,1,2.98-.764c.268-.042.54-.076.8-.1.108-.011.216-.02.317-.027.264-.017.525-.029.784-.029h.293a10.437,10.437,0,0,1,5.111,1.355c.089.051.177.108.264.158s.173.108.257.164a10.436,10.436,0,0,1,1.167.9,11.453,11.453,0,0,1,1.608,1.77c.066.089.129.177.19.268s.127.182.186.274a15.074,15.074,0,0,1,2.113,5.233l-.277.173a14.856,14.856,0,0,0-2.018-5.131Zm-11.121-3.819a8.9,8.9,0,0,1-.37.871l-.006.013a13.311,13.311,0,0,1-3.474,4.246,13.815,13.815,0,0,1-5.966,2.486,13.842,13.842,0,0,1,3.919-5.14,12.232,12.232,0,0,1,3.276-1.77v.006c.168-.064.337-.124.5-.182l.047-.015a15.8,15.8,0,0,1,2.068-.514Zm16.464,8.862a10.248,10.248,0,0,0-2.131.707c-.076.034-.152.069-.226.108-.166.078-.332.164-.494.255-.069.038-.139.076-.208.118-.027.015-.053.029-.078.046-.242.142-.481.3-.713.461a13.135,13.135,0,0,0-3.511,3.748,12.242,12.242,0,0,0-1.176,2.178.02.02,0,0,1-.006.015,13.757,13.757,0,0,0-.943,5.17,15.9,15.9,0,0,0,.264,2.935,15.213,15.213,0,0,0,5.206-6.256,11.636,11.636,0,0,0,.481-1.442,13.239,13.239,0,0,0,.291-1.405c.011-.059.02-.118.027-.179a18.5,18.5,0,0,0,.168-4.4l.122-.076.169-.1a18.764,18.764,0,0,1-.156,4.623c-.009.062-.017.124-.029.188q-.114.687-.281,1.371l-.013.053a12.1,12.1,0,0,1-.5,1.486,15.611,15.611,0,0,1-5.512,6.523l-.182.114-.051-.206a15.6,15.6,0,0,1,.648-8.517h0l.279.124-.279-.126c0-.009.006-.015.011-.024a18.174,18.174,0,0,1,1.068-2.013l.078-.122a13.4,13.4,0,0,1,3.773-4l.006.042c.348-.259.565-.4.574-.4l.129-.08.029-.019a.063.063,0,0,1,.022-.013c.078-.044.156-.089.235-.131.155-.082.31-.162.469-.237.082-.04.164-.078.249-.117a10.594,10.594,0,0,1,2.173-.7c.2-.044.405-.08.612-.108,0,.108,0,.2.009.308a4.8,4.8,0,0,0-.605.1Zm-3.976,6.338c-.006.059-.017.116-.026.173-.076.45-.169.9-.281,1.349a11.078,11.078,0,0,1-.447,1.334,13.845,13.845,0,0,1-3.917,5.14c-.042-.439-.074-.961-.074-1.536a13,13,0,0,1,.875-4.845l.013-.029a17.7,17.7,0,0,1,.981-1.865l.006-.011a15,15,0,0,1,2.931-3.265,15.54,15.54,0,0,1-.063,3.55Zm17-1.028.031.049a17.913,17.913,0,0,1,1.141,2.131c0,.007.007.013.009.02h0a15.617,15.617,0,0,1,.648,8.517l-.049.206-.182-.113a15.583,15.583,0,0,1-5.512-6.523,11.5,11.5,0,0,1-.494-1.486h0l-.012-.053q-.162-.648-.272-1.309a.329.329,0,0,0-.011-.064,18.914,18.914,0,0,1-.186-4.814c.057.034.114.068.171.108.04.023.08.049.121.076a18.554,18.554,0,0,0,.206,4.637h0c.055.348.124.7.216,1.063.017.068.031.133.048.2l.02.08h0a11.631,11.631,0,0,0,.481,1.442,15.2,15.2,0,0,0,5.2,6.257,15.174,15.174,0,0,0-.68-8.106h0l-.006-.015a12.19,12.19,0,0,0-1.165-2.161l-.011-.017c-.076-.118-.155-.237-.234-.352-.027-.044-.057-.086-.089-.129-.053-.078-.108-.156-.164-.232-.082-.116-.166-.229-.253-.342-.038-.051-.076-.1-.116-.15q-.352-.446-.731-.853c-.068-.073-.137-.148-.209-.216h0l-.013-.013a.113.113,0,0,0-.017-.015c-.044-.051-.1-.1-.146-.148s-.108-.108-.16-.154c-.07-.069-.139-.135-.216-.2-.086-.08-.175-.158-.266-.234-.044-.04-.091-.08-.139-.119-.169-.144-.342-.279-.519-.407-.08-.061-.16-.12-.243-.175-.234-.164-.474-.318-.715-.463-.025-.015-.051-.031-.076-.044-.069-.042-.139-.082-.216-.12-.162-.091-.324-.175-.492-.253-.073-.038-.15-.074-.226-.108a10.239,10.239,0,0,0-1.923-.662c-.2-.049-.407-.091-.612-.124v-.317c.2.036.41.076.612.124a10.627,10.627,0,0,1,1.976.66l.247.114h0c.158.073.312.152.466.234.1.053.19.108.285.16v.007l.131.08c.009.007.226.144.574.4l.006-.044a13.418,13.418,0,0,1,3.759,3.964Zm-3.64,1.2c-.009-.055-.019-.108-.026-.166a15.493,15.493,0,0,1-.064-3.56,14.906,14.906,0,0,1,2.931,3.267l.013.022a17.9,17.9,0,0,1,.973,1.855c0,.011.009.019.012.029a13.9,13.9,0,0,1,.8,6.376,13.838,13.838,0,0,1-3.912-5.141,10.715,10.715,0,0,1-.447-1.334h0q-.169-.673-.281-1.352Zm12.132-16.549a16.127,16.127,0,0,1,2.982.764l.076.027c.091.031.182.066.272.1h0a13.349,13.349,0,0,1,3.555,1.92,15.6,15.6,0,0,1,4.83,7.044l.059.2-.216-.006a15.6,15.6,0,0,1-8.04-2.887,12.535,12.535,0,0,1-2.109-2.085,15.9,15.9,0,0,1-1.7-2.581c-.006-.015-.015-.027-.021-.042h0a16.574,16.574,0,0,1-.7-1.5c.042,0,.084.006.129.011l.216.025c.158.38.372.853.648,1.376a.077.077,0,0,1,.011.022,15.945,15.945,0,0,0,1.648,2.508,12.412,12.412,0,0,0,2.062,2.035,15.2,15.2,0,0,0,7.639,2.81,15.224,15.224,0,0,0-4.647-6.677,13.036,13.036,0,0,0-3.476-1.88c-.124-.047-.25-.091-.372-.131l-.093-.031c-.057-.022-.108-.04-.169-.059l-.152-.051q-.78-.256-1.5-.42l-.264-.06q-.307-.066-.6-.114c-.277-.049-.549-.084-.813-.108-.108-.013-.216-.024-.319-.029-.078-.009-.156-.013-.234-.017-.188-.013-.374-.021-.556-.023h-.253a9.962,9.962,0,0,0-5.029,1.327c-.091.051-.177.108-.264.157s-.173.108-.257.167a10.259,10.259,0,0,0-1.13.871,11.146,11.146,0,0,0-1.758,1.994c-.064.091-.124.182-.186.274s-.122.188-.179.283a14.836,14.836,0,0,0-1.9,4.938l-.279-.173a15.2,15.2,0,0,1,1.99-5.048c.06-.1.122-.188.184-.279s.124-.184.188-.272a11.423,11.423,0,0,1,1.735-1.945,10.216,10.216,0,0,1,1.167-.9c.084-.057.171-.108.257-.164s.177-.108.266-.158a10.433,10.433,0,0,1,5.111-1.355h.293c.257,0,.519.013.784.029.108.009.216.017.317.027a7.514,7.514,0,0,1,.8.08Zm.324,1.181a15.6,15.6,0,0,1,1.945.474l.049.015c.209.069.419.146.633.226v-.009a12.3,12.3,0,0,1,3.275,1.772,13.825,13.825,0,0,1,3.917,5.14,13.83,13.83,0,0,1-5.966-2.486,11.659,11.659,0,0,1-1.939-1.916c-.013-.017-.027-.034-.04-.049h0c-.006-.007-.011-.015-.017-.022l-.009-.011s0,0,0-.007A14.961,14.961,0,0,1-298.2,374.5c0-.011-.011-.02-.015-.029l-.009-.017a8.859,8.859,0,0,1-.363-.85Zm-1.028-4.278c-.04.169-.071.339-.1.509a7.638,7.638,0,0,0-.084,1.706c-.108-.011-.209-.017-.31-.024a7.99,7.99,0,0,1,.091-1.729q.053-.324.133-.648h0c.076.017.157.033.235.049l-.013.14Zm-3.7-4.231a5.147,5.147,0,0,0,3.75,3.007h0c.1.022.2.04.3.055h0a6.469,6.469,0,0,0,.793.076c0,.009-.009.02-.013.029.171,0,.357-.011.558-.024h.015a11.742,11.742,0,0,0,2.229-.286h0a13.336,13.336,0,0,0,4.242-1.584,15.217,15.217,0,0,0,5.4-6.09,15.233,15.233,0,0,0-7.911,1.895h0a13.4,13.4,0,0,0-4.989,5.259c-.108-.013-.216-.027-.314-.047a13.64,13.64,0,0,1,5.144-5.482,15.649,15.649,0,0,1,8.322-1.927l.216.019-.084.2a15.593,15.593,0,0,1-5.62,6.433,13.7,13.7,0,0,1-4.333,1.621h0a16.788,16.788,0,0,1-2.162.286h-.293c-.175,0-.348,0-.517-.015a7.324,7.324,0,0,1-.784-.089c-.073-.013-.148-.025-.216-.04h0a.349.349,0,0,1-.08-.015,5.79,5.79,0,0,1-.74-.209,5.43,5.43,0,0,1-3.187-2.948,9.078,9.078,0,0,1-.689-2.189c-.006-.031-.011-.066-.017-.1-.015-.076-.027-.152-.04-.228a.505.505,0,0,0-.015-.1c-.011-.076-.022-.152-.031-.23l.283-.164c.009.078.019.152.031.228h0a.7.7,0,0,0,.013.1h0c.013.076.025.152.04.226a.581.581,0,0,0,.017.1,8.76,8.76,0,0,0,.68,2.232Zm5.21,2.384a12.82,12.82,0,0,1,4.55-4.647,13.862,13.862,0,0,1,6.215-1.775,12.44,12.44,0,0,1-10.636,6.42.568.568,0,0,1-.059,0,.685.685,0,0,0-.07,0Z" transform="translate(351.667 -314.138)" fill="#fff"/></g><g transform="translate(82.042)"><path d="M-64.132,352.9V337.21c0-7.45-4.013-12.465-11.319-12.465-6.088,0-10.672,3.8-12.464,10.315V313.986h-14.613v.143c3.367,1.577,4.3,3.224,4.3,7.736V360.7h13.97v-.143c-3.3-1.791-3.653-2.938-3.653-7.665V340.935c0-7.092,3.151-11.031,7.593-11.031,4.227,0,5.874,3.3,5.874,7.307V352.9c0,4.727-.358,5.874-3.653,7.665v.143h17.623v-.143C-63.774,358.773-64.132,357.626-64.132,352.9Z" transform="translate(289.744 -313.986)" fill="#fff"/><path d="M-219.117,350.84c0-4.773.143-9.262.143-14.391,0-8.764-5.842-12.321-16.6-12.321a20.907,20.907,0,0,0-7.69,1.342,9.358,9.358,0,0,1,1.537,2.561,8.651,8.651,0,0,1,5.944-2.55c4.774,0,6.555,3.847,6.555,8.122v5.843l-5.416,1c-8.55,1.568-16.528,3.208-16.528,11.044,0,6.052,4.774,8.905,10.4,8.905,5.984,0,10.614-3.777,11.613-8.621,0,.5.143,2.137.143,2.423.57,3.846,3.134,6.34,8.192,6.34a10.46,10.46,0,0,0,7.766-3.206v-.143a3.858,3.858,0,0,1-1.782.432C-218.192,357.608-219.117,355.257-219.117,350.84Zm-10.259-3.207c-.072,5.058-2.918,8.549-6.7,8.549-2.992,0-4.844-2.066-4.844-6.127,0-4.773,2.422-7.409,7.979-8.549l3.7-.784Z" transform="translate(277.74 -313.167)" fill="#fff"/><path d="M-165.886,324.926v-.143h-10.4v.143a4.73,4.73,0,0,1,3.35,4.63,8.5,8.5,0,0,1-.642,3.134l-5.914,14.464-5.629-14.818a16.841,16.841,0,0,1-1.068-4.133,3.39,3.39,0,0,1,2.136-3.277v-.143H-200.3v.143c2.352,1.923,3.134,2.992,5.2,7.551l1.068,2.495-5.628,12.467-6.7-15.174a12.236,12.236,0,0,1-1.069-4.133,3.225,3.225,0,0,1,1.781-3.206v-.143h-16.236v.143c2.351,1.923,3.206,3.064,5.2,7.551L-204,360.55h.143l10.687-23.44,9.76,23.44h.143l11.9-27.929C-169.307,327.917-168.308,326.848-165.886,324.926Z" transform="translate(280.106 -313.114)" fill="#fff"/><path d="M-135.213,352.941V313.986h-14.534v.141c3.35,1.569,4.275,3.208,4.275,7.7v12.025a11.846,11.846,0,0,0-11.755-8.905c-8.763,0-15.887,7.338-15.887,18.589,0,11.043,6.917,17.882,15.39,17.882,6.411,0,10.828-4.417,12.254-9.835V360.7h14.1v-.141C-134.572,358.782-135.213,357.288-135.213,352.941Zm-10.259-6.412c0,6.485-4.061,10.616-8.263,10.616-5.344,0-8.408-4.988-8.408-13.609,0-9.688,2.918-15.246,8.336-15.246,4.2,0,8.336,4.346,8.336,11.256Z" transform="translate(284.044 -313.986)" fill="#fff"/><path d="M-242.84,330.891c0-3.919-2.918-6.768-7.267-6.768-6.341,0-9.69,5.842-11.4,12.4V324.835h-14.25v.143c3.35,1.78,3.989,3.206,3.989,7.765v19.379c0,4.7-.357,5.842-3.567,7.624v.142h19.592v-.142c-3.918-1.5-5.769-2.918-5.769-7.624v-9.9c0-7.123,3.632-12.111,7.694-12.111,2.7,0,4.2,1.424,4.2,3.776a3.444,3.444,0,0,1-2.209,3.35,3.685,3.685,0,0,0,2.493.785C-246.117,338.016-242.84,335.593-242.84,330.891Z" transform="translate(275.755 -313.167)" fill="#fff"/><path d="M-153.432,360.458a3.038,3.038,0,0,0-3.037,3.037,3.037,3.037,0,0,0,3.037,3.037,3.037,3.037,0,0,0,3.037-3.037,3.037,3.037,0,0,0-3.037-3.037Z" transform="translate(285.388 -310.233)" fill="#fff"/><path d="M-101.965,350.84c0-4.773.143-9.262.143-14.391,0-8.764-5.843-12.321-16.6-12.321-8.266,0-13.964,3.845-13.964,8.977,0,3.492,2.707,5.7,6.2,5.7,2.918,0,5.2-1.284,6.2-3.849a3.559,3.559,0,0,1-1.209.216c-2.067,0-3.35-1.5-3.35-4.133,0-3.064,1.852-5.557,5.914-5.557,4.773,0,6.555,3.849,6.555,8.121v5.845l-5.415,1c-8.55,1.568-16.528,3.206-16.528,11.044,0,6.052,4.773,8.905,10.4,8.905,5.985,0,10.615-3.777,11.614-8.621,0,.5.143,2.137.143,2.423.57,3.846,3.134,6.34,8.191,6.34a10.457,10.457,0,0,0,7.767-3.205v-.143a3.85,3.85,0,0,1-1.782.432C-101.04,357.608-101.965,355.257-101.965,350.84Zm-10.259-3.207c-.072,5.058-2.918,8.548-6.7,8.548-2.992,0-4.844-2.065-4.844-6.126,0-4.773,2.422-7.409,7.979-8.549l3.7-.784Z" transform="translate(287.201 -313.167)" fill="#fff"/></g><g transform="translate(82.429 64.208)"><path d="M-259.79,388.583a7.718,7.718,0,0,1-6.48,3.214,8.912,8.912,0,0,1-9.127-9.2,8.912,8.912,0,0,1,9.127-9.2,7.617,7.617,0,0,1,6.06,2.77l-1.558,1.163a5.781,5.781,0,0,0-4.5-2.3c-4.5,0-7.2,3.537-7.2,7.569s2.7,7.568,7.2,7.568a5.61,5.61,0,0,0,5.021-2.622Z" transform="translate(275.397 -373.396)" fill="#fff"/><path d="M-256.405,389.687h8.162v1.633h-9.943V373.808h1.781Z" transform="translate(276.787 -373.363)" fill="#fff"/><path d="M-238.715,391.8a8.911,8.911,0,0,1-9.126-9.2,8.911,8.911,0,0,1,9.126-9.2,8.912,8.912,0,0,1,9.127,9.2A8.911,8.911,0,0,1-238.715,391.8Zm0-16.769c-4.5,0-7.2,3.537-7.2,7.569s2.7,7.568,7.2,7.568,7.2-3.537,7.2-7.568S-234.213,375.028-238.715,375.028Z" transform="translate(277.622 -373.396)" fill="#fff"/><path d="M-215.118,384.79c0,2.918-1.163,6.974-6.407,6.974s-6.406-4.056-6.406-6.974V373.808h1.781v10.784c0,5.045,3.289,5.54,4.625,5.54s4.626-.495,4.626-5.54V373.808h1.781Z" transform="translate(279.23 -373.363)" fill="#fff"/><path d="M-212.184,373.808h5.812c4.378,0,9.2,2.918,9.2,8.755s-4.822,8.756-9.2,8.756h-5.812Zm1.78,15.879h3.464c5.341,0,7.84-3.513,7.84-7.123s-2.5-7.122-7.84-7.122H-210.4Z" transform="translate(280.502 -373.363)" fill="#fff"/></g></svg>