<svg xmlns="http://www.w3.org/2000/svg" width="233.51" height="69.115" viewBox="0 0 233.51 69.115"><g transform="translate(0 0)"><g transform="translate(0 0.117)"><path d="M370.321,216.132a12.207,12.207,0,0,0-5.633,2.358,16.5,16.5,0,0,0-4.041,5.5,10.921,10.921,0,0,0,9.674-7.862Zm-3.669,4.749a10.159,10.159,0,0,1-4.965,2.359,14.465,14.465,0,0,1,3.359-4.3,11.374,11.374,0,0,1,4.4-2.061,10.371,10.371,0,0,1-2.757,3.967Z" transform="translate(-322.399 -199.507)" fill="#307b32"/><path d="M150.61,218.491a12.184,12.184,0,0,0-5.632-2.358,10.919,10.919,0,0,0,9.674,7.862A16.48,16.48,0,0,0,150.61,218.491Zm-1.964,2.39-.033-.032a10.383,10.383,0,0,1-2.759-3.97,11.385,11.385,0,0,1,4.4,2.064,14.463,14.463,0,0,1,3.359,4.3A10.173,10.173,0,0,1,148.645,220.881Z" transform="translate(-141.995 -199.507)" fill="#307b32"/><path d="M166.186,158.151a4.9,4.9,0,0,1,3.266,1.964l1.022-.741a4.994,4.994,0,0,1-.381-3.68.164.164,0,0,0-.022-.141c-1.339-1.964-8.573-9.671-9.321-9.671a.067.067,0,0,0-.038.009c-.491.323,4,10.056,5.352,12.185A.16.16,0,0,0,166.186,158.151Zm-3.679-9.743L168,156.175a.23.23,0,1,1-.375.266s-5.2-7.971-5.2-7.978C162.391,148.413,162.47,148.353,162.508,148.408Z" transform="translate(-155.124 -140.744)" fill="#307b32"/><path d="M215.922,231.664,217,230.89c-.051-.065-.095-.122-.133-.169l-1.046.757Z" transform="translate(-201.252 -211.71)" fill="#307b32"/><path d="M229.681,171.688a.738.738,0,0,0,.791-.728.738.738,0,0,0-1.253-.461c.017-.389.195-.676.511-.676a.708.708,0,0,1,.462.187l.2-.29a.964.964,0,0,0-.65-.237c-.6,0-.913.508-.913,1.163a1.06,1.06,0,0,0,.258.818A.8.8,0,0,0,229.681,171.688Zm-.017-1.087a.385.385,0,1,1,.008.764.4.4,0,0,1-.44-.388A.391.391,0,0,1,229.663,170.6Z" transform="translate(-212.135 -160.486)" fill="#307b32"/><path d="M241.89,171.688a.739.739,0,0,0,.791-.728.676.676,0,0,0-.745-.673.684.684,0,0,0-.51.212c.019-.389.2-.676.513-.676a.708.708,0,0,1,.462.187l.2-.29a.968.968,0,0,0-.652-.237c-.6,0-.913.508-.913,1.163a1.059,1.059,0,0,0,.259.818A.8.8,0,0,0,241.89,171.688Zm-.019-1.087a.385.385,0,1,1,.009.764.4.4,0,0,1-.442-.388A.392.392,0,0,1,241.871,170.6Z" transform="translate(-222.347 -160.486)" fill="#307b32"/><path d="M320.851,170.9a.628.628,0,0,0,.5-.225c-.013.392-.2.669-.514.669a.707.707,0,0,1-.488-.2l-.2.286a1.015,1.015,0,0,0,.682.256c.571,0,.913-.475.913-1.163a1.07,1.07,0,0,0-.26-.817.765.765,0,0,0-.59-.225.742.742,0,0,0-.794.739A.676.676,0,0,0,320.851,170.9Zm.043-1.1a.4.4,0,0,1,.445.4.394.394,0,0,1-.432.386.393.393,0,1,1-.013-.782Z" transform="translate(-288.479 -160.486)" fill="#307b32"/><path d="M333.476,171.354h-1.015l.439-.366c.377-.307.554-.491.554-.828a.635.635,0,0,0-.7-.639.875.875,0,0,0-.787.448l.266.206c.165-.212.3-.32.492-.32a.32.32,0,0,1,.345.332c0,.191-.108.329-.4.576l-.735.624v.294h1.542Z" transform="translate(-298.381 -160.518)" fill="#307b32"/><path d="M177.533,141.34l-2.064-.317-1.086.613-.321.184-.315.177-.364-.059-.366-.057-.763-.12h0l-.73-.116h0l-1.129-.179c-.855,1.178-3.467,1.6-6.769,2.707.024-.089.049-.177.073-.266v0c.025-.089.051-.177.078-.266.087-.3.184-.611.285-.92a28.045,28.045,0,0,1,1.192-3.011,11.662,11.662,0,0,0,10.233-8.593l.234-.937-.964.082a12.78,12.78,0,0,0-6.232,2.55,17.052,17.052,0,0,0-4.177,5.608,9.769,9.769,0,0,1-2.523-.127c-.082-.018-.163-.035-.242-.054s-.158-.038-.236-.06l9.758-14.733,0,0,.965-1.466.2-.309-.049-.177a2.057,2.057,0,0,0-1.983-1.513,2.2,2.2,0,0,0-.285.019l-.181.025h0l-.563.858-.6.918h0L158.8,136.718c-.059-.051-.115-.1-.171-.16s-.114-.111-.166-.168a4.773,4.773,0,0,1-1.1-4.891,2.261,2.261,0,0,1,1.353-1.577.717.717,0,0,1,.56.054.445.445,0,0,1,.046.03,1.4,1.4,0,0,1,.18,1.846.045.045,0,0,0-.013.054c.017.032.07.011.07.011a1.908,1.908,0,0,0,.731-2.9v0h0a2.044,2.044,0,0,0-1.923-.429,3.557,3.557,0,0,0-2.314,2.471,6.172,6.172,0,0,0,1.64,6.512c.055.054.113.108.171.158s.115.106.176.154l-4.1,6.23q.09,2.474.157,4.756c0,.054,0,.172,0,.224.021-.019.157-.212.157-.212l6.293-9.5.018.008.035-.087,0,0,.07-.1-.071.206.173.057c.076.024.153.046.233.068a9.868,9.868,0,0,0,2.68.3c-.345.793-.662,1.619-.942,2.466q-.321.973-.559,1.911c-.024.09-.046.179-.066.268s-.044.182-.065.272a26.11,26.11,0,0,0-4.652,2.338,20.534,20.534,0,0,0-2.792,2.1c-.067.06-.13.12-.193.181s-.112.108-.168.163-.09.089-.133.133c0,.03,0,.059,0,.089,0,.057,0,.112,0,.169q.021.791.041,1.554l.793-.448.2-.114.2-.114,6.263-3.544.638-.361.239-.135.64-.363,7.773-4.4h0l.716.125-8.578,4.855-.625.353-.234.133-.625.353v0l-5.953,3.368-.2.114-.2.113h0l-1.035.586.014.53,1.281-.723.2-.114.2-.114,5.659-3.2.609-.344.231-.13.609-.345,9.394-5.309h0l.358.062.356.062-10.156,5.74-.6.339-.226.127-.594.336-5.391,3.047-.2.114-.2.114-1.523.86q.026,1.121.048,2.176c0,.033,0,.067,0,.1l2.553-1.5.4-.234,4.457-2.613c.01.057.019.112.028.168l.014.074c.011.055.021.111.033.165,0,.025.009.051.014.074a7.254,7.254,0,0,0,.524,1.58,4.687,4.687,0,0,0,2.746,2.529c-.047.184-.084.369-.114.554a6.737,6.737,0,0,0-.079,1.368,8.4,8.4,0,0,0-4.32,1.116c-.066.038-.133.078-.2.119s-.13.082-.195.125c-1.048-1.592-2.08-3.158-3.057-4.639l-2.585,1.515c1.1,1.66,2.264,3.433,3.446,5.227-.051.066-.1.133-.144.2s-.095.135-.141.2a11.81,11.81,0,0,0-1.684,4.082,8.576,8.576,0,0,0-1.594-.508c-.152-.032-.3-.06-.459-.084,0-2.474-.032-5.413-.093-8.726,0-.033,0-.067,0-.1,0-.054,0-.109,0-.165,0-.033,0-.067,0-.1,0-.054,0-.108,0-.163v-.062a.32.32,0,0,1,0-.04c0-.13,0-.26-.008-.391s-.006-.286-.008-.432c-.009-.446-.021-.9-.03-1.361,0-.087,0-.174-.006-.261l0-.261c0-.176-.01-.353-.014-.53s-.008-.347-.013-.522q-.014-.565-.03-1.143c0-.133-.006-.268-.011-.4v-.048c0-.109-.006-.218-.011-.329a.1.1,0,0,0,0-.022c0-.1,0-.2-.008-.307,0-.154-.01-.307-.013-.462s-.009-.291-.014-.439-.008-.291-.012-.437q-.05-1.643-.111-3.359c0-.131-.01-.263-.016-.4v0c0-.131-.008-.266-.013-.4q-.054-1.432-.114-2.908c-.4-9.817-.415-15.128-.285-15.922.809.836,1.491,1.569,2.153,2.178a3.31,3.31,0,0,0,.494.351c.073.04.163.07.217.027a.168.168,0,0,0,.049-.108h0a.713.713,0,0,0-.013-.19,44.243,44.243,0,0,0-1.548-5.63c-.53-1.532-2.1-5.45-2.765-7.1a.364.364,0,0,0-.055-.093.42.42,0,0,0-.036-.038.343.343,0,0,0-.54.122c-.545,1.246-1.6,3.7-1.834,4.559a.625.625,0,0,0,.049.459,4.416,4.416,0,0,1,.829,2.463q.021,8.555-.055,13.084.071,3.989.139,7.729c0,.136,0,.272.008.408s0,.274.008.41q.048,2.6.1,5.073c0,.051,0,.1,0,.149,0,.087,0,.174,0,.26,0,.022,0,.044,0,.067h0v.017c0,.1,0,.206.006.307v.016c0,.035,0,.07,0,.106,0,.144.006.29.008.434.01.44.017.875.027,1.307,0,.179.006.356.01.535h0c0,.182.008.363.011.543q0,.133,0,.266c0,.089,0,.179.006.268.011.538.021,1.07.033,1.6,0,.135,0,.268.008.4v0c0,.077,0,.155,0,.233,0,.035,0,.068,0,.1s0,.046,0,.068,0,.067,0,.1,0,.067,0,.1l0,.169c0,.033,0,.068,0,.1.067,3.183.131,6.13.195,8.812-.154.02-.307.047-.459.077a8.556,8.556,0,0,0-1.729.532,11.724,11.724,0,0,0-1.778-4.215c-.046-.068-.093-.135-.142-.2s-.1-.131-.146-.2l3.43-5.178-2.471-1.448-3.061,4.654c-.063-.043-.128-.085-.193-.125s-.131-.081-.2-.119a8.409,8.409,0,0,0-4.318-1.114,6.742,6.742,0,0,0-.079-1.368c-.03-.185-.068-.37-.114-.554a4.674,4.674,0,0,0,2.745-2.529,7.207,7.207,0,0,0,.526-1.6c.006-.024.011-.049.016-.074.011-.054.022-.109.033-.165,0-.025.008-.049.013-.074.009-.055.019-.111.028-.168l4.457,2.613.2.117.2.117,2.368,1.388c0-.033,0-.066,0-.1q-.024-1.1-.046-2.224l-1.243-.7-.2-.114-.2-.114-5.393-3.047-.592-.334-.225-.128-.6-.339-10.118-5.719.356-.062.359-.062,9.355,5.288.614.345.23.131.606.342,5.662,3.2.2.113.2.114.978.554c0-.181-.006-.363-.01-.545l-.711-.4-.2-.114-.2-.114-5.955-3.37-.622-.351h0l-.234-.131-.627-.354-8.54-4.834.715-.123,7.736,4.377.643.364.238.134.639.361v0l6.262,3.543.2.114.2.114.445.252c-.006-.3-.011-.6-.018-.9,0-.136,0-.271-.008-.407s0-.272-.008-.408c0,0,0-.04,0-.048,0-.1,0-.19,0-.286-.139-.128-.285-.256-.439-.388A22.115,22.115,0,0,0,147,147.076a26.157,26.157,0,0,0-4.677-2.347c-.021-.09-.041-.182-.063-.272s-.043-.177-.065-.266a28.311,28.311,0,0,0-1.494-4.369,9.38,9.38,0,0,0,2.985-.4l.088-.03.035-.013c.032-.013.063-.025.1-.04h0c.071-.029.142-.059.212-.089,1.5,2.645,3.193,5.576,4.114,6.976.226.345.753,1.144,1.5,2.276.027.04.052.081.079.12,0-.018,0-.035,0-.052-.033-1.8-.068-3.622-.1-5.461-1-1.393-2.4-3.237-3.715-4.95.062-.046.123-.093.182-.142s.12-.1.179-.15a6.2,6.2,0,0,0,1.975-6.814,3.563,3.563,0,0,0-2.314-2.471,2.046,2.046,0,0,0-1.925.429,1.909,1.909,0,0,0,.731,2.9s.052.021.068-.011a.044.044,0,0,0-.011-.054,1.4,1.4,0,0,1,.18-1.846l.04-.027a.718.718,0,0,1,.567-.057,2.262,2.262,0,0,1,1.353,1.577,4.812,4.812,0,0,1-1.507,5.277c-.057.052-.115.1-.177.15s-.12.095-.182.143c-.978-1.268-1.846-2.382-2.382-3.066l-1.135.817c.412.741,1.057,1.9,1.8,3.221-.036.018-.073.033-.111.048s-.069.024-.1.035c-.074.024-.152.047-.23.066a9.037,9.037,0,0,1-2.944.23,17.056,17.056,0,0,0-4.19-5.608,12.78,12.78,0,0,0-6.232-2.55l-.962-.082.233.937a11.662,11.662,0,0,0,10.233,8.593,27.719,27.719,0,0,1,1.192,3.011q.152.458.282.91c.027.089.052.177.078.264v0c.025.09.049.177.073.266-3.288-1.1-5.884-1.521-6.737-2.7l-1.127.179-.728.117h0l-.761.12-.367.059-.363.057-.32-.179-.321-.184-1.086-.613-2.066.317a.158.158,0,0,0-.055.293l.965.567.2.117,13.437,7.878c-.006.059-.013.117-.021.176,0,.025,0,.049-.008.074l-.024.174c0,.024-.006.049-.011.073a6.318,6.318,0,0,1-.507,1.747,3.3,3.3,0,0,1-1.956,1.82,10.735,10.735,0,0,0-4.12-4.449l-.305.487a10.233,10.233,0,0,1,3.859,4.106c-.078.014-.157.025-.237.035a10.048,10.048,0,0,0-3.744-3.944l.032-.054-.033.052a11.4,11.4,0,0,0-5.934-1.421,11.423,11.423,0,0,0,4.049,4.568,10.054,10.054,0,0,0,3.182,1.192l.008,0a8.74,8.74,0,0,0,1.556.207h.044a.1.1,0,0,0,.022,0,.13.13,0,0,0,.025,0h.014c.144,0,.283,0,.421,0a4.749,4.749,0,0,0,.6-.059c.078-.009.152-.024.226-.04a.006.006,0,0,0,0,0,3.871,3.871,0,0,0,2.813-2.256,6.715,6.715,0,0,0,.519-1.681c0-.024.009-.049.013-.073q.017-.085.028-.171c0-.025.008-.049.011-.074.01-.057.016-.114.022-.172l.212.123c-.006.059-.014.115-.024.173,0,.025-.008.049-.011.074l-.028.169c0,.024-.009.049-.013.073a6.767,6.767,0,0,1-.521,1.657A4.085,4.085,0,0,1,139.183,155a4.65,4.65,0,0,1-.554.155l-.062.013c-.055.011-.111.021-.166.03a5.777,5.777,0,0,1-.589.067c-.127.008-.255.011-.386.011-.071,0-.142,0-.215,0H137.2a8.931,8.931,0,0,1-1.619-.212l0,0v0a10.246,10.246,0,0,1-3.25-1.217,11.7,11.7,0,0,1-4.214-4.825l-.063-.147.158-.014a11.727,11.727,0,0,1,6.241,1.447l.3-.494a12.109,12.109,0,0,0-6.586-1.526l-.955.081.377.88a12.107,12.107,0,0,0,4.446,5.092,10.772,10.772,0,0,0,3.422,1.288v0l.079.016.011,0a9.641,9.641,0,0,0,1.577.207h0c.337.024.631.032.867.032h0q.059.228.1.456a5.289,5.289,0,0,1,.049,1.253,12.324,12.324,0,0,0-2.074.48.194.194,0,0,0-.028.008,10.95,10.95,0,0,0-3.495,1.76,12.094,12.094,0,0,0-3.823,5.576l-.272.918.958-.032a12.1,12.1,0,0,0,6.363-2.284,10.054,10.054,0,0,0,1.676-1.649c.043-.052.087-.1.128-.158.062-.079.123-.16.182-.239a9.859,9.859,0,0,0,.985-1.556l0-.008a7.693,7.693,0,0,0,.581-1.542c.04,0,.081,0,.12,0a6.954,6.954,0,0,1,3.647.894c.068.038.133.076.2.117s.13.082.193.125L131.847,177.7a.127.127,0,0,0,.1.2.122.122,0,0,0,.032,0l1.01-.253a.119.119,0,0,0,.074-.054c1.971-3.012,3.9-3.968,4.688-4.248a1.28,1.28,0,0,0,.632-.5l7.153-10.8c.048.068.093.138.138.207s.092.141.135.214a10.732,10.732,0,0,1,1.339,3.633A10.453,10.453,0,0,0,144,169.3a.29.29,0,0,0-.019.029,9.913,9.913,0,0,0-.958,1.771s0,0,0,.008l-.009.022a12.1,12.1,0,0,0-.514,6.742l.223.931.814-.507a12.094,12.094,0,0,0,4.362-5.163,9.683,9.683,0,0,0,.4-1.195,10.386,10.386,0,0,0,.264-1.331c0-.025.008-.051.011-.078a14.489,14.489,0,0,0,.071-3.7,7.393,7.393,0,0,1,1.537-.535c.157-.035.31-.065.459-.089.068,2.73.134,5.162.2,7.259a46.194,46.194,0,0,1-.4,7.153c-.285,1.5-.758,2.8-.443,2.833.04,0,.09-.027.153-.087a1.213,1.213,0,0,0,.094-.1h0c.022-.028.046-.057.069-.09a6.581,6.581,0,0,0,.472-.768c.048-.087.1-.18.147-.277.033-.065.068-.131.1-.2s.068-.138.1-.21c.017-.035.035-.071.052-.108.035-.074.071-.149.106-.225q.01-.019.019-.043c.02-.046.046-.1.076-.169.016-.035.033-.073.051-.114.008-.021.018-.041.027-.063l.036-.085c.025-.059.052-.122.079-.188l.043-.1c.035-.085.071-.176.109-.272l.119-.307c.014-.036.028-.073.041-.109.043-.112.086-.228.128-.35.016-.041.03-.082.044-.124.03-.084.06-.169.09-.258q.069-.2.138-.408c.139-.424.282-.891.423-1.393.062-.223.123-.454.184-.692a29.142,29.142,0,0,0,.776-4.442q.188-2.011.217-4.169,0-.864.006-1.855c.15.027.3.06.459.1a7.314,7.314,0,0,1,1.367.494,14.538,14.538,0,0,0,.063,3.637c0,.046.011.092.019.136a10.142,10.142,0,0,0,.662,2.526,12.1,12.1,0,0,0,4.364,5.163l.812.507.225-.931a12.1,12.1,0,0,0-.514-6.742l-.01-.022a.017.017,0,0,1,0-.008,10.076,10.076,0,0,0-.954-1.766l0,0a10.483,10.483,0,0,0-3.166-3.234,10.738,10.738,0,0,1,1.25-3.484c.043-.074.087-.147.131-.22s.089-.143.136-.212c3.538,5.368,7.087,10.749,9.1,13.8h0l.317.481.6.918.565.858.182.025a2.137,2.137,0,0,0,.285.019,2.058,2.058,0,0,0,1.983-1.513l.047-.177h0l-.2-.309-.709-1.075,0,0-10.029-15.211c.063-.043.128-.084.193-.125s.132-.079.2-.117a6.97,6.97,0,0,1,3.647-.894,12.5,12.5,0,0,0,.717,1.573.456.456,0,0,1,.022.041,10.093,10.093,0,0,0,1.135,1.733.084.084,0,0,1,.009.013l.119.146a10.181,10.181,0,0,0,1.676,1.649,12.1,12.1,0,0,0,6.363,2.284l.956.032-.272-.918a12.1,12.1,0,0,0-3.821-5.576,10.86,10.86,0,0,0-3.364-1.717l-.114-.036a12.3,12.3,0,0,0-2.119-.494,5.28,5.28,0,0,1,.049-1.253q.036-.228.1-.456h0c.236,0,.53-.008.867-.032h0a9.083,9.083,0,0,0,1.488-.19l.071-.014c.036-.006.073-.014.109-.022a10.751,10.751,0,0,0,3.422-1.29,12.093,12.093,0,0,0,4.446-5.092l.378-.88-.954-.081a12.107,12.107,0,0,0-6.586,1.526,10.812,10.812,0,0,0-4.133,4.457,3.3,3.3,0,0,1-1.955-1.82,6.376,6.376,0,0,1-.5-1.732c0-.024-.008-.048-.011-.073-.008-.057-.016-.115-.024-.174,0-.025-.006-.049-.009-.074-.006-.059-.013-.115-.019-.176l13.464-7.894.2-.117.966-.567A.158.158,0,0,0,177.533,141.34Zm-19.175-3.948c-.059-.051-.117-.1-.173-.155v0c-.059-.052-.114-.108-.169-.161a5.98,5.98,0,0,1-1.216-1.729,5.55,5.55,0,0,1-.2-4.1,3.042,3.042,0,0,1,1.914-2.1,1.477,1.477,0,0,1,1.355.271.132.132,0,0,1,.03.024.024.024,0,0,1,.006.008,1.5,1.5,0,0,1,.166,1.793c-.019.032-.048.008-.038-.021a1.516,1.516,0,0,0-.282-1.6l-.006-.006a.5.5,0,0,0-.044-.036,1.257,1.257,0,0,0-1.129-.206,2.817,2.817,0,0,0-1.754,1.95,5.2,5.2,0,0,0,1.344,5.539c.055.057.111.112.168.165s.114.108.173.158Zm4.753,6.471q-.038.133-.071.266c-.024.09-.047.181-.07.271-.082.029-.163.059-.245.089.022-.09.044-.18.07-.271v0c.021-.089.044-.176.07-.264a28.48,28.48,0,0,1,1.746-4.741,10.438,10.438,0,0,1-3.265-.2c-.081-.019-.158-.041-.236-.062s-.155-.046-.23-.071l.133-.2c.075.024.15.048.23.068s.157.041.237.06a10.371,10.371,0,0,0,3.245.165,16.835,16.835,0,0,1,4.157-5.711,12.391,12.391,0,0,1,5.923-2.427l.162-.014-.04.157a11.155,11.155,0,0,1-10.061,8.209A28.176,28.176,0,0,0,163.112,143.863Zm-17.451-6.5c.06-.047.119-.1.177-.15a5.284,5.284,0,0,0,1.721-5.893,2.816,2.816,0,0,0-1.754-1.95,1.259,1.259,0,0,0-1.13.206c-.014.011-.028.024-.043.036a.024.024,0,0,0-.006.006,1.516,1.516,0,0,0-.282,1.6c.009.029-.019.052-.038.021a1.5,1.5,0,0,1,.165-1.795s0,0,.006-.006a.328.328,0,0,1,.03-.024,1.484,1.484,0,0,1,1.356-.271,3.042,3.042,0,0,1,1.914,2.1,5.559,5.559,0,0,1-.2,4.1,6.066,6.066,0,0,1-1.58,2.066c-.059.051-.119.1-.179.15s-.119.095-.18.141c-.052-.067-.1-.133-.154-.2C145.542,137.457,145.6,137.409,145.661,137.359Zm-6.153,1.828a11.162,11.162,0,0,1-10.061-8.209l-.038-.157.16.014a12.394,12.394,0,0,1,5.925,2.427,16.813,16.813,0,0,1,4.155,5.711,9.848,9.848,0,0,0,3.628-.266c.076-.024.152-.048.225-.073v0l0,0c.069-.028.139-.059.207-.088.038.066.076.134.114.2l-.212.09-.024.009,0,0-.006,0c-.06.021-.128.044-.19.062a9.912,9.912,0,0,1-3.63.3,28.507,28.507,0,0,1,1.746,4.731c.024.089.047.177.07.266s.046.181.07.271c-.082-.03-.165-.059-.247-.087-.021-.09-.044-.18-.068-.271s-.047-.177-.073-.266A27.979,27.979,0,0,0,139.508,139.187Zm-2.175,15.286a.042.042,0,0,1-.014,0h-.043a11.829,11.829,0,0,1-1.336-.165.27.27,0,0,1-.046-.009l-.135-.027v0a9.481,9.481,0,0,1-3.008-1.125,10.382,10.382,0,0,1-3.368-3.489,10.411,10.411,0,0,1,4.649,1.323l.013.008a9.634,9.634,0,0,1,3.411,3.487C137.415,154.474,137.374,154.474,137.333,154.473Zm1.284,1.279c.06-.011.12-.024.179-.036q.062.245.1.489a6.064,6.064,0,0,1,.068,1.3c-.078,0-.155.009-.233.017a5.768,5.768,0,0,0-.063-1.279c-.021-.127-.044-.255-.076-.381-.006-.033-.014-.066-.024-.1A.5.5,0,0,0,138.617,155.752Zm7.544,6.184c-.044-.071-.092-.141-.138-.209s-.094-.136-.143-.2a8.3,8.3,0,0,0-1.222-1.36,7.667,7.667,0,0,0-.848-.654c-.063-.043-.128-.084-.193-.125s-.131-.081-.2-.119a7.476,7.476,0,0,0-3.77-.994c-.062,0-.125,0-.19,0-.136,0-.275.008-.416.017-.059,0-.117.006-.176.013-.079,0-.158.013-.239.022-.2.02-.4.047-.609.084a12.051,12.051,0,0,0-1.939.5c-.062.019-.122.041-.184.063-.079.027-.163.054-.244.084h0a9.746,9.746,0,0,0-2.607,1.41,11.416,11.416,0,0,0-3.489,5.008,11.4,11.4,0,0,0,5.73-2.105,9.236,9.236,0,0,0,1.545-1.528h0a9.427,9.427,0,0,0,1.208-1.83c.013-.022.024-.044.035-.068a7.23,7.23,0,0,0,.4-1.021c.029,0,.057-.008.086-.011l.163-.019a7.237,7.237,0,0,1-.427,1.121.366.366,0,0,0-.018.036A9.667,9.667,0,0,1,137.01,162l0,0h0a9.478,9.478,0,0,1-1.581,1.562,11.709,11.709,0,0,1-6.031,2.165l-.16,0,.046-.153a11.7,11.7,0,0,1,3.622-5.284,9.932,9.932,0,0,1,2.667-1.442h0c.028-.011.057-.022.086-.032.046-.017.093-.035.141-.051l.035-.013a12.151,12.151,0,0,1,2.235-.573c.2-.032.4-.057.6-.076.079-.008.158-.014.237-.021.2-.013.394-.022.587-.022.074,0,.147,0,.22,0a7.816,7.816,0,0,1,3.834,1.016c.067.038.133.077.2.119s.13.081.193.123a7.665,7.665,0,0,1,.875.673,8.552,8.552,0,0,1,1.206,1.328c.049.067.1.133.142.2s.1.136.139.206a11.286,11.286,0,0,1,1.584,3.925l-.207.13A11.13,11.13,0,0,0,146.161,161.936Zm-8.342-2.865a6.677,6.677,0,0,1-.277.654l0,.009a9.987,9.987,0,0,1-2.605,3.185,10.371,10.371,0,0,1-4.475,1.865,10.385,10.385,0,0,1,2.94-3.856,9.151,9.151,0,0,1,2.457-1.328v0c.127-.048.253-.093.378-.136l.035-.011A11.758,11.758,0,0,1,137.819,159.071Zm12.349,6.643a7.659,7.659,0,0,0-1.6.53c-.057.025-.114.052-.17.081-.125.059-.249.123-.37.191-.052.028-.1.057-.157.089-.021.011-.04.022-.059.035-.182.106-.361.222-.535.345a9.848,9.848,0,0,0-2.634,2.811,9.161,9.161,0,0,0-.882,1.633l0,.011a10.332,10.332,0,0,0-.708,3.878,11.945,11.945,0,0,0,.2,2.2,11.411,11.411,0,0,0,3.905-4.693,8.769,8.769,0,0,0,.361-1.081,9.778,9.778,0,0,0,.218-1.054c.008-.044.014-.089.021-.135a13.871,13.871,0,0,0,.127-3.3l.092-.057.127-.076a14.058,14.058,0,0,1-.117,3.468c-.006.046-.013.093-.022.141q-.085.515-.211,1.029l-.009.04a9.032,9.032,0,0,1-.372,1.114,11.712,11.712,0,0,1-4.134,4.893l-.136.085-.038-.155a11.714,11.714,0,0,1,.489-6.388s0,0,0,0l.209.093-.209-.1.008-.017a13.619,13.619,0,0,1,.8-1.51l.059-.092a10.059,10.059,0,0,1,2.83-3l0,.032c.261-.195.424-.3.431-.3l.1-.06.022-.014a.043.043,0,0,1,.016-.009l.176-.1c.116-.062.233-.122.352-.177.062-.03.123-.059.187-.087a7.917,7.917,0,0,1,1.63-.529c.152-.033.3-.06.459-.084,0,.077,0,.154.006.231C150.473,165.653,150.321,165.68,150.169,165.714Zm-2.982,4.753c0,.044-.013.087-.019.13-.057.337-.127.676-.21,1.011a8.239,8.239,0,0,1-.336,1,10.385,10.385,0,0,1-2.938,3.856c-.032-.329-.055-.72-.055-1.152a9.747,9.747,0,0,1,.657-3.634l.009-.022a13.256,13.256,0,0,1,.736-1.4l0-.008a11.247,11.247,0,0,1,2.2-2.449A11.625,11.625,0,0,1,147.187,170.468Zm12.751-.771.024.036a13.311,13.311,0,0,1,.856,1.6s0,.009.006.014v0s0,0,0,0a11.708,11.708,0,0,1,.488,6.388l-.036.155-.136-.085a11.7,11.7,0,0,1-4.134-4.893,8.706,8.706,0,0,1-.37-1.114h0l-.009-.04q-.121-.489-.2-.981c0-.016,0-.032-.008-.048a14.171,14.171,0,0,1-.139-3.611c.043.025.085.051.128.078s.06.036.09.057a13.93,13.93,0,0,0,.155,3.478v0c.041.261.094.529.16.8.013.051.024.1.036.15,0,.021.01.04.014.06h0a8.745,8.745,0,0,0,.361,1.081,11.412,11.412,0,0,0,3.9,4.693,11.381,11.381,0,0,0-.51-6.078h0l0-.011a9.1,9.1,0,0,0-.874-1.622.079.079,0,0,1-.008-.013c-.057-.089-.116-.177-.176-.264-.021-.033-.043-.065-.067-.1-.04-.059-.081-.117-.123-.174q-.092-.131-.19-.256c-.028-.038-.057-.076-.087-.112q-.264-.335-.548-.64c-.051-.055-.1-.111-.157-.165v0l-.009-.01a.051.051,0,0,0-.013-.011c-.033-.038-.071-.074-.109-.111s-.079-.079-.12-.116c-.052-.052-.1-.1-.158-.149s-.131-.119-.2-.176c-.033-.03-.068-.06-.1-.089-.127-.108-.256-.209-.389-.305-.06-.046-.12-.09-.182-.131q-.263-.185-.536-.347c-.019-.011-.038-.024-.057-.033-.052-.032-.1-.062-.158-.09-.122-.068-.244-.132-.369-.19-.055-.028-.112-.055-.169-.081a7.62,7.62,0,0,0-1.442-.5c-.152-.036-.305-.068-.459-.093v-.238c.154.027.307.057.459.094a7.861,7.861,0,0,1,1.482.5l.185.085v0c.119.055.234.114.35.176.073.04.142.079.214.12,0,0,0,0,0,0l.1.06c.006,0,.169.108.431.3l0-.033A10.058,10.058,0,0,1,159.938,169.7Zm-2.73.9c-.006-.041-.014-.082-.019-.125a11.662,11.662,0,0,1-.047-2.67,11.158,11.158,0,0,1,2.2,2.45.134.134,0,0,1,.009.016,13.371,13.371,0,0,1,.731,1.391l.009.022a10.413,10.413,0,0,1,.6,4.787,10.385,10.385,0,0,1-2.939-3.856,8.209,8.209,0,0,1-.336-1h0Q157.293,171.1,157.208,170.594Zm9.1-12.413a12.068,12.068,0,0,1,2.237.573c.019.006.038.013.057.02.068.024.136.049.2.074h0a10,10,0,0,1,2.666,1.442,11.7,11.7,0,0,1,3.623,5.284l.044.153-.158,0a11.708,11.708,0,0,1-6.031-2.165,9.433,9.433,0,0,1-1.581-1.564,11.975,11.975,0,0,1-1.273-1.936c0-.011-.011-.02-.016-.032v0s0,0,0,0c-.231-.44-.4-.829-.525-1.129.032,0,.063,0,.1.008l.165.019c.119.285.278.64.486,1.032a.048.048,0,0,1,.008.016,12,12,0,0,0,1.236,1.882,9.359,9.359,0,0,0,1.546,1.526,11.4,11.4,0,0,0,5.73,2.105,11.416,11.416,0,0,0-3.489-5.008,9.751,9.751,0,0,0-2.607-1.41c-.094-.035-.187-.068-.279-.1l-.069-.024-.127-.044-.114-.038q-.584-.192-1.127-.315l-.2-.044c-.154-.033-.3-.062-.453-.086-.207-.036-.412-.063-.609-.084-.081-.009-.16-.017-.239-.022-.059-.006-.117-.009-.176-.013-.141-.009-.28-.016-.416-.017-.065,0-.128,0-.19,0a7.468,7.468,0,0,0-3.772,1c-.068.038-.133.078-.2.117s-.13.082-.193.125a7.666,7.666,0,0,0-.848.654,8.355,8.355,0,0,0-1.319,1.5c-.048.068-.093.136-.139.206s-.092.141-.135.212a11.146,11.146,0,0,0-1.425,3.7l-.209-.13a11.4,11.4,0,0,1,1.493-3.786q.069-.107.138-.209c.046-.07.093-.138.141-.2a8.574,8.574,0,0,1,1.3-1.461,7.665,7.665,0,0,1,.875-.673c.063-.043.128-.084.193-.123s.133-.081.2-.119a7.815,7.815,0,0,1,3.834-1.016c.073,0,.146,0,.22,0,.193,0,.389.01.587.022.079.006.158.013.237.021Q166.006,158.134,166.308,158.181Zm.245.886a11.6,11.6,0,0,1,1.456.356l.036.011c.156.052.315.109.475.169V159.6a9.187,9.187,0,0,1,2.457,1.33,10.359,10.359,0,0,1,2.938,3.856,10.389,10.389,0,0,1-4.475-1.865,8.763,8.763,0,0,1-1.455-1.437c-.009-.013-.02-.025-.03-.036l0,0s-.008-.011-.013-.016,0,0-.006-.008,0,0,0,0a11.317,11.317,0,0,1-1.094-1.678c0-.008-.008-.014-.011-.022a.112.112,0,0,0-.006-.013C166.719,159.491,166.63,159.278,166.553,159.068Zm-.771-3.208c-.03.127-.054.255-.074.381a5.77,5.77,0,0,0-.063,1.279c-.079-.008-.157-.013-.233-.017a6.056,6.056,0,0,1,.068-1.3q.04-.245.1-.489h0c.057.013.117.025.176.036l-.01.1Zm-2.773-3.174a3.864,3.864,0,0,0,2.813,2.256l0,0c.074.016.149.03.226.041h0a5.087,5.087,0,0,0,.6.057c0,.006-.006.014-.01.022.128,0,.268-.008.418-.017h.011a8.8,8.8,0,0,0,1.672-.215l0,0a10.011,10.011,0,0,0,3.181-1.189,11.416,11.416,0,0,0,4.051-4.568,11.416,11.416,0,0,0-5.934,1.421h0l0,0a10.054,10.054,0,0,0-3.742,3.944c-.081-.009-.158-.021-.236-.035a10.233,10.233,0,0,1,3.861-4.109,11.731,11.731,0,0,1,6.239-1.446l.16.014-.063.147a11.7,11.7,0,0,1-4.214,4.825,10.29,10.29,0,0,1-3.25,1.219h0a12.7,12.7,0,0,1-1.618.215h0c-.073,0-.144,0-.215,0-.131,0-.261,0-.388-.011a5.74,5.74,0,0,1-.588-.067c-.055-.009-.111-.019-.166-.03h0l-.06-.011a4.514,4.514,0,0,1-.556-.157,4.076,4.076,0,0,1-2.39-2.211,6.831,6.831,0,0,1-.518-1.641c0-.024-.008-.049-.013-.073-.011-.057-.021-.114-.03-.171,0-.024-.006-.049-.011-.073-.008-.057-.016-.114-.024-.173l.212-.123c.006.059.014.114.024.171h0c0,.026.006.049.009.073h0c.01.057.019.114.03.169a.525.525,0,0,0,.013.073A6.6,6.6,0,0,0,163.009,152.686Zm3.908,1.789a9.625,9.625,0,0,1,3.413-3.487,10.394,10.394,0,0,1,4.662-1.331,9.332,9.332,0,0,1-7.978,4.815.415.415,0,0,1-.044,0C166.952,154.474,166.934,154.474,166.917,154.474Z" transform="translate(-126.735 -114.459)" fill="#307b32"/></g><g transform="translate(61.544)"><path d="M1390.715,142.931V131.164c0-5.588-3.01-9.349-8.49-9.349-4.567,0-8.005,2.848-9.349,7.737V113.744h-10.961v.107c2.525,1.182,3.223,2.418,3.223,5.8v29.133h10.478v-.107c-2.472-1.343-2.74-2.2-2.74-5.749v-8.973c0-5.32,2.364-8.274,5.7-8.274,3.17,0,4.406,2.472,4.406,5.481v11.767c0,3.546-.268,4.406-2.74,5.749v.107h13.218v-.107C1390.983,147.337,1390.715,146.477,1390.715,142.931Z" transform="translate(-1221.49 -113.744)" fill="#003d55"/><path d="M649.018,184.043c0-3.58.107-6.947.107-10.795,0-6.573-4.382-9.244-12.451-9.244a15.67,15.67,0,0,0-5.768,1.006,6.988,6.988,0,0,1,1.152,1.921,6.481,6.481,0,0,1,4.455-1.913c3.581,0,4.917,2.886,4.917,6.092v4.383l-4.062.746c-6.413,1.177-12.4,2.406-12.4,8.284,0,4.542,3.581,6.68,7.8,6.68,4.489,0,7.961-2.833,8.71-6.466,0,.374.107,1.6.107,1.817.427,2.885,2.351,4.755,6.145,4.755a7.847,7.847,0,0,0,5.826-2.4V188.8a2.9,2.9,0,0,1-1.337.321C649.712,189.119,649.018,187.356,649.018,184.043Zm-7.695-2.405c-.054,3.794-2.191,6.412-5.024,6.412-2.244,0-3.633-1.55-3.633-4.6,0-3.58,1.817-5.557,5.985-6.412l2.779-.588Z" transform="translate(-605.046 -155.786)" fill="#003d55"/><path d="M812.2,167.374v-.107h-7.8v.107a3.547,3.547,0,0,1,2.511,3.473,6.368,6.368,0,0,1-.481,2.351l-4.435,10.849-4.222-11.115a12.683,12.683,0,0,1-.8-3.1,2.542,2.542,0,0,1,1.6-2.458v-.107H786.387v.107c1.764,1.442,2.351,2.244,3.9,5.664l.8,1.871-4.221,9.351-5.023-11.382a9.181,9.181,0,0,1-.8-3.1,2.419,2.419,0,0,1,1.336-2.4v-.107H770.2v.107c1.763,1.442,2.4,2.3,3.9,5.664l9.512,21.056h.107l8.015-17.582,7.321,17.582h.107l8.923-20.949C809.632,169.618,810.381,168.817,812.2,167.374Z" transform="translate(-726.525 -158.515)" fill="#003d55"/><path d="M1040.4,142.963V113.744h-10.9v.106c2.511,1.177,3.207,2.406,3.207,5.773v9.019a8.884,8.884,0,0,0-8.817-6.68c-6.573,0-11.917,5.5-11.917,13.946,0,8.283,5.184,13.413,11.543,13.413a9.432,9.432,0,0,0,9.191-7.375v6.84h10.58v-.106C1040.881,147.345,1040.4,146.223,1040.4,142.963Zm-7.695-4.81c0,4.863-3.047,7.963-6.2,7.963-4.009,0-6.307-3.741-6.307-10.207,0-7.267,2.191-11.435,6.253-11.435,3.153,0,6.252,3.259,6.252,8.443Z" transform="translate(-928.766 -113.744)" fill="#003d55"/><path d="M527.808,169.077c0-2.94-2.191-5.076-5.451-5.076-4.756,0-7.268,4.382-8.55,9.3v-8.764H503.119v.107c2.511,1.335,2.992,2.4,2.992,5.824V185c0,3.527-.267,4.382-2.672,5.719v.106h14.7v-.106c-2.938-1.123-4.328-2.192-4.328-5.719v-7.428c0-5.343,2.725-9.084,5.771-9.084,2.03,0,3.153,1.068,3.153,2.832a2.582,2.582,0,0,1-1.657,2.512,2.771,2.771,0,0,0,1.87.588C525.349,174.422,527.808,172.6,527.808,169.077Z" transform="translate(-503.119 -155.783)" fill="#003d55"/><path d="M1096.778,344.137a2.278,2.278,0,1,0,2.278,2.278A2.278,2.278,0,0,0,1096.778,344.137Z" transform="translate(-997.801 -306.464)" fill="#003d55"/><path d="M1229.814,184.043c0-3.58.107-6.947.107-10.795,0-6.573-4.382-9.244-12.451-9.244-6.2,0-10.474,2.885-10.474,6.733,0,2.619,2.031,4.275,4.648,4.275a4.613,4.613,0,0,0,4.649-2.886,2.692,2.692,0,0,1-.907.161c-1.551,0-2.513-1.123-2.513-3.1,0-2.3,1.389-4.168,4.436-4.168,3.58,0,4.917,2.886,4.917,6.092v4.384l-4.062.746c-6.413,1.177-12.4,2.405-12.4,8.284,0,4.542,3.58,6.68,7.8,6.68,4.49,0,7.962-2.833,8.711-6.466,0,.374.107,1.6.107,1.817.427,2.885,2.351,4.755,6.144,4.755a7.847,7.847,0,0,0,5.826-2.4V188.8a2.893,2.893,0,0,1-1.337.321C1230.508,189.119,1229.814,187.356,1229.814,184.043Zm-7.7-2.405c-.054,3.794-2.191,6.412-5.024,6.412-2.244,0-3.633-1.549-3.633-4.595,0-3.58,1.817-5.557,5.985-6.412l2.779-.588Z" transform="translate(-1090.874 -155.786)" fill="#003d55"/></g></g><path d="M28.149-15.972a6.719,6.719,0,0,0-6.825,6.881A6.708,6.708,0,0,0,28.149-2.21,5.813,5.813,0,0,0,33-4.615L31.9-5.392a4.21,4.21,0,0,1-3.755,1.961,5.365,5.365,0,0,1-5.383-5.66,5.375,5.375,0,0,1,5.383-5.66,4.384,4.384,0,0,1,3.366,1.72l1.165-.869A5.679,5.679,0,0,0,28.149-15.972Zm8.416.333H35.234v13.1h7.436V-3.764h-6.1Zm13.854-.333a6.7,6.7,0,0,0-6.825,6.881A6.708,6.708,0,0,0,50.419-2.21a6.7,6.7,0,0,0,6.825-6.881A6.686,6.686,0,0,0,50.419-15.972ZM45.037-9.091a5.372,5.372,0,0,1,5.364-5.66,5.389,5.389,0,0,1,5.4,5.66,5.353,5.353,0,0,1-5.383,5.66A5.365,5.365,0,0,1,45.037-9.091ZM59.686-7.353c0,3.052,1.628,5.142,4.791,5.142,3.181,0,4.791-2.127,4.791-5.142v-8.286H67.936v8.157c0,2.571-1.313,4.051-3.459,4.051s-3.459-1.48-3.459-4.051v-8.157H59.686ZM76.74-15.639H72.412v13.1h4.421a6.528,6.528,0,0,0,6.807-6.548C83.639-12.883,80.68-15.639,76.74-15.639ZM76.352-3.764H73.744V-14.418h2.682c3.459,0,5.771,2.275,5.771,5.327C82.2-6.058,79.958-3.764,76.352-3.764Z" transform="translate(41.001 64.14)" fill="#003d55"/></svg>