<svg xmlns="http://www.w3.org/2000/svg" width="174.956" height="244.758" viewBox="0 0 174.956 244.758"><g transform="translate(2092.018 -7056.011)"><g transform="translate(-2092.018 7056.011)"><path d="M182.419,367.836a2.232,2.232,0,1,0,2.318,2.231,2.275,2.275,0,0,0-2.318-2.231" transform="translate(-81.729 -155.488)" fill="#003d55"/><path d="M234.614,92.629a30.414,30.414,0,0,0-13.728,5.53c-3.564,2.718-7.032,7.424-9.847,12.906,5.689-.62,11.741-2.739,15.61-6.332a26.608,26.608,0,0,0,7.965-12.1m-8.941,11.135c-3,2.791-7.537,4.647-12.1,5.531a34.162,34.162,0,0,1,8.185-10.074,28.224,28.224,0,0,1,10.719-4.833,24.3,24.3,0,0,1-6.719,9.3Z" transform="translate(-92.415 -53.643)" fill="#01723b"/><path d="M93.484,98.159a30.358,30.358,0,0,0-13.724-5.53,26.574,26.574,0,0,0,7.95,12.093c3.876,3.6,9.932,5.724,15.625,6.343-2.815-5.482-6.283-10.189-9.851-12.906M88.7,103.764l-.081-.074a24.328,24.328,0,0,1-6.723-9.309,28.258,28.258,0,0,1,10.723,4.84A34.14,34.14,0,0,1,100.8,109.3c-4.562-.884-9.094-2.74-12.1-5.531" transform="translate(-47.069 -53.643)" fill="#01723b"/><path d="M102.747,78.638a12.057,12.057,0,0,1,7.957,4.607l2.492-1.737a11.307,11.307,0,0,1-.93-8.63.372.372,0,0,0-.054-.331c-3.263-4.606-20.89-22.679-22.714-22.679a.169.169,0,0,0-.093.022c-1.2.757,9.74,23.582,13.041,28.574a.394.394,0,0,0,.3.174M93.783,55.792l13.388,18.214a.526.526,0,0,1-.132.753.575.575,0,0,1-.782-.13c-.012-.011-12.667-18.693-12.679-18.708-.081-.118.112-.26.2-.13" transform="translate(-50.37 -37.819)" fill="#56853c"/><path d="M123.132,103.721l2.623-1.815c-.123-.152-.232-.286-.324-.4l-2.55,1.775c.073.126.154.271.251.438" transform="translate(-61.964 -56.929)" fill="#01723b"/><path d="M132.875,69.4A1.773,1.773,0,0,0,134.8,67.7a1.623,1.623,0,0,0-1.817-1.578,1.68,1.68,0,0,0-1.238.5c.043-.913.475-1.585,1.246-1.585a1.763,1.763,0,0,1,1.127.438l.49-.679a2.4,2.4,0,0,0-1.585-.557c-1.47,0-2.226,1.191-2.226,2.728a2.427,2.427,0,0,0,.629,1.919,2,2,0,0,0,1.446.523m-.042-2.55c.644,0,1.06.371,1.06.876a.933.933,0,0,1-1.041.917.953.953,0,0,1-1.072-.91.941.941,0,0,1,1.053-.883" transform="translate(-64.7 -43.135)" fill="#01723b"/><path d="M140.31,69.4a1.775,1.775,0,0,0,1.928-1.707,1.625,1.625,0,0,0-1.816-1.578,1.7,1.7,0,0,0-1.242.5c.046-.913.478-1.585,1.25-1.585a1.763,1.763,0,0,1,1.126.438l.49-.679a2.413,2.413,0,0,0-1.589-.557c-1.47,0-2.226,1.191-2.226,2.728a2.427,2.427,0,0,0,.632,1.919,1.988,1.988,0,0,0,1.447.523m-.046-2.55c.648,0,1.06.371,1.06.876a.931.931,0,0,1-1.037.917.956.956,0,0,1-1.076-.91.942.942,0,0,1,1.053-.883" transform="translate(-67.266 -43.135)" fill="#01723b"/><path d="M188.2,67.559a1.558,1.558,0,0,0,1.219-.527c-.031.92-.49,1.57-1.253,1.57a1.757,1.757,0,0,1-1.188-.471l-.5.672a2.532,2.532,0,0,0,1.663.6c1.392,0,2.225-1.114,2.225-2.728a2.451,2.451,0,0,0-.632-1.915,1.9,1.9,0,0,0-1.439-.527,1.779,1.779,0,0,0-1.936,1.734,1.624,1.624,0,0,0,1.84,1.592m.1-2.569a.968.968,0,0,1,1.084.928.945.945,0,0,1-1.053.906c-.648,0-1.06-.371-1.06-.9a.938.938,0,0,1,1.03-.935" transform="translate(-83.889 -43.135)" fill="#01723b"/><path d="M197.319,68.555h-2.472l1.068-.857c.918-.72,1.35-1.151,1.35-1.941a1.524,1.524,0,0,0-1.713-1.5,2.147,2.147,0,0,0-1.917,1.05l.648.483c.4-.5.725-.75,1.2-.75a.767.767,0,0,1,.841.779c0,.449-.262.772-.972,1.351l-1.79,1.463v.69h3.757Z" transform="translate(-86.379 -43.144)" fill="#01723b"/><path d="M192.44,93.775l-5.029-.742-2.646,1.436-.784.431-.767.415-.888-.137-.891-.134-1.859-.282h0l-1.778-.271h0l-2.75-.42c-2.083,2.762-8.447,3.746-16.494,6.348.058-.208.12-.416.177-.624v0c.062-.208.124-.416.189-.624.212-.713.448-1.433.695-2.157a64.208,64.208,0,0,1,2.9-7.06c5.967-.731,12.227-2.981,16.277-6.722a28.134,28.134,0,0,0,8.659-13.43l.571-2.2-2.349.193a31.884,31.884,0,0,0-15.185,5.979c-3.6,2.74-7.2,7.454-10.179,13.151a24.7,24.7,0,0,1-6.148-.3c-.2-.041-.4-.081-.59-.126s-.386-.089-.575-.141l23.779-34.55.012,0,2.353-3.438.5-.724-.119-.416a4.987,4.987,0,0,0-4.833-3.548,5.563,5.563,0,0,0-.694.045l-.44.059h0l-1.373,2.012L170.7,47.959h0L146.8,82.937c-.143-.118-.281-.245-.417-.375s-.278-.26-.4-.394A10.885,10.885,0,0,1,143.289,70.7c.691-1.971,1.924-3.352,3.3-3.7a1.809,1.809,0,0,1,1.365.126,1.224,1.224,0,0,1,.112.071c.906.683,1.751,3.066.439,4.328a.1.1,0,0,0-.031.126c.043.074.17.026.17.026,2.839-.991,3.583-5.022,1.782-6.8v0h0a5.125,5.125,0,0,0-4.686-1.005c-2.511.631-4.567,2.743-5.639,5.794a14.1,14.1,0,0,0,4,15.27c.135.127.274.253.416.372s.281.248.428.36l-9.986,14.61q.22,5.8.382,11.154c0,.126.007.4.011.526.05-.044.382-.5.382-.5l15.336-22.286.043.019.084-.2,0,0,.17-.245-.174.483c.139.045.278.089.421.134.185.056.374.108.567.16a24.938,24.938,0,0,0,6.53.7c-.84,1.86-1.612,3.8-2.295,5.783q-.781,2.283-1.362,4.48c-.058.212-.112.42-.162.627s-.108.426-.158.638a64.659,64.659,0,0,0-11.336,5.482,49.913,49.913,0,0,0-6.8,4.922c-.162.141-.317.282-.471.423-.139.127-.274.253-.409.382-.112.1-.219.208-.324.312,0,.071,0,.137.008.208,0,.134.008.264.012.4q.051,1.854.1,3.645l1.932-1.05.49-.268.49-.267,15.262-8.311,1.555-.847.582-.315,1.559-.85L176.317,95.29h0l1.743.294-20.9,11.384-1.524.828-.57.312-1.524.828v0l-14.507,7.9-.49.267-.49.264v0l-2.523,1.374c.012.416.023.832.035,1.243l3.12-1.7.49-.267.49-.268,13.789-7.5,1.485-.806.563-.3,1.485-.809,22.892-12.449h0l.872.145.868.145-24.747,13.459-1.458.794-.552.3-1.446.787-13.137,7.145-.49.267-.49.268L135.6,121.21q.064,2.628.116,5.1c0,.078,0,.156,0,.234l6.222-3.512.971-.549,10.862-6.128c.024.134.046.263.07.393.011.06.023.119.035.174.027.13.05.26.081.386.011.059.023.119.035.174a16.551,16.551,0,0,0,1.276,3.7,11.254,11.254,0,0,0,6.692,5.931c-.115.43-.2.865-.278,1.3a15.246,15.246,0,0,0-.193,3.207,21.089,21.089,0,0,0-10.526,2.617c-.162.089-.324.181-.482.278s-.316.193-.474.294c-2.554-3.734-5.068-7.406-7.448-10.88l-6.3,3.552c2.669,3.894,5.515,8.051,8.4,12.257-.124.156-.243.312-.352.468s-.231.315-.343.475a27.123,27.123,0,0,0-4.1,9.572,21.545,21.545,0,0,0-3.884-1.191c-.37-.074-.74-.141-1.119-.2-.011-5.8-.077-12.7-.228-20.463,0-.078,0-.156,0-.234,0-.126,0-.256-.009-.386,0-.077,0-.156,0-.234,0-.126,0-.252-.008-.382v-.144a.747.747,0,0,1,0-.093c-.008-.3-.011-.609-.019-.917-.008-.338-.016-.672-.02-1.014-.023-1.047-.05-2.112-.073-3.192,0-.2-.011-.408-.016-.613s-.007-.408-.011-.612c-.012-.412-.024-.828-.035-1.243s-.02-.813-.031-1.225q-.035-1.326-.073-2.68c-.008-.312-.016-.627-.027-.942v-.112c-.007-.256-.015-.512-.027-.772a.226.226,0,0,0,0-.052c0-.237-.011-.479-.019-.72-.012-.36-.024-.721-.031-1.084-.012-.341-.024-.683-.035-1.028s-.019-.683-.03-1.025q-.122-3.852-.27-7.876c-.012-.308-.023-.616-.039-.928v0c-.008-.308-.019-.624-.031-.935q-.133-3.357-.278-6.819c-.984-23.021-1.011-35.474-.695-37.338,1.971,1.96,3.634,3.679,5.246,5.108a8.059,8.059,0,0,0,1.2.824c.177.093.4.164.528.063a.385.385,0,0,0,.12-.252v0a1.628,1.628,0,0,0-.031-.445,100.634,100.634,0,0,0-3.772-13.2c-1.291-3.593-5.114-12.779-6.738-16.651a.833.833,0,0,0-.135-.219.959.959,0,0,0-.088-.089.853.853,0,0,0-1.316.285c-1.327,2.922-3.9,8.679-4.47,10.691a1.418,1.418,0,0,0,.119,1.076c1.431,2.6,2.137,3.831,2.021,5.776q.052,20.061-.135,30.682.174,9.355.34,18.125c.007.319.011.639.019.958s.012.643.019.961q.116,6.108.232,11.9c0,.118,0,.234.008.349,0,.2.007.408.011.609,0,.052,0,.1,0,.156v.044c0,.241.012.483.016.72v.037c0,.082,0,.163,0,.249.008.338.015.679.019,1.017.024,1.032.043,2.052.065,3.066.008.42.016.835.024,1.254v0c.012.427.019.85.027,1.274q.006.311.011.623c.008.208.012.42.016.627.027,1.262.05,2.51.081,3.746,0,.315.012.627.019.942v0q0,.273.012.546c0,.081,0,.159,0,.241,0,.052,0,.108,0,.16,0,.078,0,.156,0,.234s0,.156,0,.237c0,.134.008.263.011.4,0,.077,0,.159,0,.237.162,7.465.32,14.376.475,20.664-.374.048-.748.111-1.119.182a21.469,21.469,0,0,0-4.212,1.247,26.963,26.963,0,0,0-4.332-9.885c-.112-.159-.227-.316-.347-.471s-.236-.308-.355-.46l8.358-12.141-6.021-3.4-7.46,10.913c-.154-.1-.312-.2-.471-.293s-.32-.19-.482-.278a21.121,21.121,0,0,0-10.522-2.614,15.248,15.248,0,0,0-.193-3.207c-.073-.434-.166-.869-.278-1.3a11.225,11.225,0,0,0,6.688-5.931,16.441,16.441,0,0,0,1.281-3.742c.015-.055.027-.115.039-.174.027-.126.054-.256.08-.386.012-.059.02-.115.031-.174.024-.13.046-.26.069-.393l10.862,6.128.486.275.486.275,5.77,3.256c0-.078,0-.156,0-.237q-.058-2.578-.112-5.215l-3.028-1.648-.49-.268-.49-.267-13.141-7.145-1.443-.783-.548-.3-1.466-.794L79.813,96.184l.867-.144.876-.145,22.8,12.4,1.5.809.559.308,1.477.8,13.8,7.505.49.264.49.267,2.384,1.3c-.008-.423-.016-.85-.024-1.277l-1.732-.942-.49-.268-.49-.267-14.51-7.9-1.516-.824v0l-.571-.308-1.528-.832L83.376,95.59,85.12,95.3l18.849,10.264,1.566.854.579.316,1.558.846v0l15.258,8.307.49.267.49.268,1.084.59c-.015-.7-.027-1.407-.043-2.116-.008-.319-.012-.635-.019-.954s-.012-.639-.019-.958c0,0,.011-.093,0-.111,0-.223-.007-.445-.011-.672-.34-.3-.694-.6-1.069-.91a53.837,53.837,0,0,0-5.8-4.068,64.78,64.78,0,0,0-11.4-5.5c-.05-.212-.1-.427-.154-.639s-.1-.416-.158-.624a64.694,64.694,0,0,0-3.641-10.245,23.694,23.694,0,0,0,7.275-.928c.05-.015.142-.048.215-.071l.085-.03c.077-.03.154-.059.232-.093v0c.173-.067.347-.137.516-.208,3.653,6.2,7.78,13.077,10.025,16.358.551.809,1.836,2.684,3.653,5.337.065.093.127.19.193.282,0-.041,0-.082,0-.122-.081-4.213-.166-8.493-.247-12.806-2.449-3.267-5.847-7.591-9.052-11.607.15-.108.3-.219.444-.334s.293-.231.435-.353c5.547-4.554,6.615-10.85,4.814-15.98-1.076-3.051-3.132-5.164-5.639-5.794a5.131,5.131,0,0,0-4.69,1.005c-1.8,1.782-1.057,5.817,1.782,6.808,0,0,.128.049.166-.026a.1.1,0,0,0-.027-.126c-1.32-1.266-.467-3.652.439-4.328.031-.022.065-.045.1-.063A1.812,1.812,0,0,1,114.769,67c1.373.345,2.608,1.726,3.3,3.7a11.013,11.013,0,0,1-3.672,12.375c-.139.123-.281.237-.431.353s-.293.222-.444.334c-2.384-2.973-4.5-5.586-5.8-7.189l-2.766,1.915c1,1.737,2.576,4.458,4.386,7.554-.089.041-.177.078-.27.111s-.17.055-.254.082c-.182.055-.371.111-.56.156a22.869,22.869,0,0,1-7.174.538c-2.908-5.553-6.484-10.315-10.21-13.151A31.885,31.885,0,0,0,75.682,67.8L73.336,67.6l.568,2.2a28.166,28.166,0,0,0,8.659,13.43c4.054,3.741,10.314,5.991,16.277,6.722a63.446,63.446,0,0,1,2.9,7.06c.247.716.475,1.429.687,2.134.066.208.127.416.189.62v0c.062.212.12.416.177.624-8.011-2.583-14.337-3.567-16.416-6.321l-2.747.42-1.774.275h0L80,95.048l-.9.137-.883.134-.779-.419-.783-.431-2.646-1.436-5.033.742a.367.367,0,0,0-.135.687L71.2,95.791l.486.275,32.742,18.473c-.015.138-.031.275-.05.412,0,.06-.012.115-.019.175l-.058.408c-.008.055-.016.115-.027.171a14.385,14.385,0,0,1-1.235,4.1,7.921,7.921,0,0,1-4.767,4.268,25.566,25.566,0,0,0-10.04-10.434l-.744,1.143a24.386,24.386,0,0,1,9.4,9.629c-.189.033-.382.059-.579.081a23.959,23.959,0,0,0-9.122-9.25l.077-.126-.081.122c-5.917-3.415-12.747-3.4-14.46-3.333a27.083,27.083,0,0,0,9.867,10.712,25.084,25.084,0,0,0,7.753,2.8c.008,0,.012,0,.02,0a22.045,22.045,0,0,0,3.791.486H94.2a.422.422,0,0,0,.069,0,.257.257,0,0,0,.054,0,.343.343,0,0,0,.062,0,.107.107,0,0,0,.035,0c.351.008.69,0,1.026-.011a11.988,11.988,0,0,0,1.451-.137c.189-.022.37-.055.551-.093a.015.015,0,0,0,.012,0,9.713,9.713,0,0,0,1.358-.357,9.273,9.273,0,0,0,5.5-4.933,15.3,15.3,0,0,0,1.265-3.942c.012-.055.024-.115.031-.171q.04-.2.069-.4c.012-.059.02-.115.027-.174.024-.134.039-.267.054-.4l.517.289c-.015.137-.035.271-.058.405-.008.059-.02.115-.027.174-.023.134-.046.264-.069.4-.012.055-.023.115-.031.171a15.441,15.441,0,0,1-1.269,3.886A9.82,9.82,0,0,1,98.99,125.8a11.769,11.769,0,0,1-1.35.364c-.05.011-.1.018-.15.03-.135.026-.27.048-.405.071q-.694.112-1.435.156c-.308.019-.621.026-.941.026-.173,0-.347,0-.524-.007h-.016a22.58,22.58,0,0,1-3.945-.5l0-.008v0a25.582,25.582,0,0,1-7.919-2.854,27.672,27.672,0,0,1-10.267-11.314l-.154-.345.386-.033c.081,0,8.258-.62,15.209,3.393l.725-1.158a30.489,30.489,0,0,0-16.05-3.578l-2.326.189.918,2.064a28.656,28.656,0,0,0,10.835,11.942,26.893,26.893,0,0,0,8.339,3.021v0c.065.015.127.026.192.037a.075.075,0,0,0,.027.008,24.339,24.339,0,0,0,3.842.486H94c.821.056,1.538.074,2.113.074h.008a10.613,10.613,0,0,1,.232,1.069,11.963,11.963,0,0,1,.12,2.94A31,31,0,0,0,91.414,133a.468.468,0,0,0-.069.018,27.1,27.1,0,0,0-8.516,4.127,28.27,28.27,0,0,0-9.315,13.077l-.663,2.153,2.334-.074c.351-.011,8.728-.323,15.506-5.356a24.092,24.092,0,0,0,4.085-3.868c.1-.123.211-.245.312-.372.151-.185.3-.375.443-.56a22.973,22.973,0,0,0,2.4-3.649.179.179,0,0,0,.012-.018,17.638,17.638,0,0,0,1.416-3.615c.1,0,.2-.008.293-.008a17.478,17.478,0,0,1,8.887,2.1c.166.089.324.178.486.275s.316.193.471.294l-28.38,41.525a.3.3,0,0,0,.254.46.318.318,0,0,0,.077-.011l2.461-.594a.288.288,0,0,0,.181-.127c4.8-7.063,9.5-9.305,11.424-9.962a3.1,3.1,0,0,0,1.539-1.165l17.43-25.322c.116.159.228.323.336.486s.223.331.328.5a24.589,24.589,0,0,1,3.263,8.519,24.992,24.992,0,0,0-7.668,7.52.777.777,0,0,0-.046.067,23,23,0,0,0-2.334,4.154c0,.008,0,.011-.008.018s-.016.033-.023.052a27.35,27.35,0,0,0-1.254,15.809l.543,2.183,1.983-1.188c.3-.178,7.386-4.488,10.63-12.108a22.188,22.188,0,0,0,.972-2.8,23.535,23.535,0,0,0,.644-3.122c.011-.059.019-.118.027-.181a32.725,32.725,0,0,0,.173-8.667,18.517,18.517,0,0,1,3.746-1.255c.382-.081.755-.152,1.119-.208.166,6.4.327,12.1.494,17.023.054,5.947-.285,13.263-.984,16.774s-1.848,6.574-1.08,6.645c.1.007.22-.064.374-.2a2.941,2.941,0,0,0,.228-.241l0,0c.054-.067.111-.134.169-.211a15.419,15.419,0,0,0,1.15-1.8c.115-.2.235-.423.359-.649.081-.152.166-.308.247-.468s.166-.323.251-.494c.043-.081.084-.167.127-.252.085-.175.173-.349.259-.527.016-.03.031-.063.046-.1.05-.108.112-.241.185-.4.039-.081.081-.171.123-.267.019-.048.043-.1.065-.149s.058-.13.089-.2c.062-.137.127-.285.193-.442l.1-.245c.085-.2.174-.412.266-.638s.189-.468.289-.72c.035-.086.069-.171.1-.256.1-.263.208-.535.313-.82.038-.1.073-.193.107-.29.074-.2.147-.4.22-.6q.168-.462.336-.958c.34-.995.687-2.089,1.03-3.266.151-.523.3-1.065.448-1.622a66.082,66.082,0,0,0,1.89-10.415q.457-4.716.528-9.777c.008-1.351.016-2.8.016-4.35.367.063.74.141,1.119.234a18.3,18.3,0,0,1,3.332,1.158,32.8,32.8,0,0,0,.154,8.53c.012.108.027.215.046.319a23.042,23.042,0,0,0,1.612,5.925c3.248,7.62,10.333,11.93,10.634,12.108l1.979,1.188.548-2.183a27.36,27.36,0,0,0-1.254-15.809c-.008-.019-.015-.033-.023-.052s-.008-.011-.008-.018a23.354,23.354,0,0,0-2.326-4.142s0-.008-.008-.011a25.057,25.057,0,0,0-7.714-7.583,24.585,24.585,0,0,1,3.047-8.17c.1-.174.213-.345.32-.516s.217-.335.332-.5c8.621,12.587,17.269,25.208,22.167,32.357h0l.772,1.128,1.47,2.152,1.377,2.012.444.06a5.47,5.47,0,0,0,.695.044,4.989,4.989,0,0,0,4.833-3.548l.116-.416h0l-.5-.724-1.727-2.52.007,0c-4.968-7.249-14.815-21.625-24.438-35.671.154-.1.312-.2.471-.294s.32-.185.482-.275a17.519,17.519,0,0,1,8.887-2.1,28.807,28.807,0,0,0,1.747,3.69,1.01,1.01,0,0,1,.054.1,23.58,23.58,0,0,0,2.766,4.064.172.172,0,0,1,.023.03c.1.115.193.226.289.341a24.39,24.39,0,0,0,4.085,3.868c6.778,5.033,15.151,5.345,15.506,5.356l2.33.074-.663-2.153a28.27,28.27,0,0,0-9.311-13.077,26.874,26.874,0,0,0-8.2-4.027c-.092-.03-.185-.059-.278-.085a31,31,0,0,0-5.164-1.158,11.938,11.938,0,0,1,.119-2.94,10.8,10.8,0,0,1,.232-1.069h.008c.575,0,1.292-.018,2.114-.074h0a22.9,22.9,0,0,0,3.626-.445l.173-.033c.089-.014.178-.033.266-.052a26.846,26.846,0,0,0,8.339-3.025A28.624,28.624,0,0,0,190.6,112.293l.922-2.064-2.326-.189a30.486,30.486,0,0,0-16.05,3.578,25.749,25.749,0,0,0-10.071,10.453,7.921,7.921,0,0,1-4.763-4.268,14.544,14.544,0,0,1-1.231-4.061c-.007-.056-.019-.111-.027-.171-.02-.134-.039-.271-.058-.409-.008-.059-.016-.115-.024-.174-.015-.137-.031-.271-.046-.412L189.74,96.066l.486-.275,2.353-1.329a.368.368,0,0,0-.139-.687m-47.145-9.621v0c-.143-.123-.278-.253-.412-.379a14.033,14.033,0,0,1-2.963-4.054,12.564,12.564,0,0,1-.494-9.625c.906-2.576,2.65-4.417,4.663-4.922a3.71,3.71,0,0,1,3.3.634.316.316,0,0,1,.073.056.06.06,0,0,1,.015.018,3.416,3.416,0,0,1,.405,4.205c-.046.074-.116.019-.092-.048a3.456,3.456,0,0,0-.687-3.76l-.016-.015a1.17,1.17,0,0,0-.108-.085,3.154,3.154,0,0,0-2.75-.483c-1.832.46-3.429,2.168-4.274,4.573-1.836,5.219-.077,9.721,3.275,12.988.135.134.27.263.408.386s.278.252.42.371l-.347.5c-.143-.118-.285-.241-.42-.363m11.062,17c.054-.212.108-.423.17-.634v0c.05-.208.108-.412.17-.62a65.192,65.192,0,0,1,4.255-11.117,26.419,26.419,0,0,1-7.958-.464c-.2-.045-.386-.1-.575-.145s-.378-.108-.559-.167l.324-.467c.181.055.367.112.559.159s.382.1.579.141a26.258,26.258,0,0,0,7.907.386c2.877-5.694,6.449-10.59,10.128-13.392a30.915,30.915,0,0,1,14.434-5.69l.393-.033-.1.367a27.237,27.237,0,0,1-8.243,12.754c-4.019,3.734-10.364,5.909-16.273,6.5A64.5,64.5,0,0,0,157.3,99.692q-.093.312-.174.624c-.058.211-.115.423-.17.634-.2.067-.4.137-.6.208M114.773,84.44c.147-.112.289-.227.432-.353,3.934-3.311,6.186-8.144,4.193-13.82-.844-2.405-2.442-4.113-4.274-4.573a3.16,3.16,0,0,0-2.754.483c-.035.026-.069.055-.1.085,0,0-.012.008-.015.015a3.453,3.453,0,0,0-.687,3.76c.023.067-.046.122-.093.048a3.421,3.421,0,0,1,.4-4.209s.012-.007.015-.014a.845.845,0,0,1,.074-.056,3.725,3.725,0,0,1,3.305-.634c2.013.5,3.757,2.346,4.663,4.922a12.582,12.582,0,0,1-.494,9.625,14.284,14.284,0,0,1-3.85,4.844c-.143.119-.289.237-.436.353s-.289.222-.439.33c-.128-.156-.255-.312-.374-.467.147-.108.293-.219.436-.338m-10.545,15.853c-.058-.208-.116-.416-.177-.624a64.126,64.126,0,0,0-4.27-10.943C93.872,88.14,87.527,85.962,83.5,82.22a27.235,27.235,0,0,1-8.235-12.743l-.092-.367.389.033A30.92,30.92,0,0,1,90,74.834c3.679,2.8,7.251,7.7,10.124,13.392a24.924,24.924,0,0,0,8.841-.624c.185-.055.37-.111.548-.171v0s.008,0,.011,0c.17-.067.34-.137.505-.208.093.156.185.316.278.475l-.517.212-.058.022s0,0-.008,0l-.016,0c-.147.049-.312.1-.463.145a25.068,25.068,0,0,1-8.845.694,65.256,65.256,0,0,1,4.255,11.094c.058.208.116.416.17.624s.111.423.169.635c-.2-.071-.4-.137-.6-.2-.05-.212-.109-.423-.166-.635m-9.781,24.276a.771.771,0,0,1-.093,0h-.011a29.841,29.841,0,0,1-3.255-.386.7.7,0,0,1-.112-.022c-.108-.019-.217-.041-.329-.063v0a23.7,23.7,0,0,1-7.328-2.639,24.776,24.776,0,0,1-8.208-8.181,26.137,26.137,0,0,1,11.328,3.1l.031.019a23.012,23.012,0,0,1,8.313,8.177c-.1,0-.2,0-.3,0a.107.107,0,0,1-.035,0m3.286,4.15c-.05-.3-.108-.6-.185-.895a2.352,2.352,0,0,0-.058-.234,1.131,1.131,0,0,0,.12-.018c.147-.026.293-.056.436-.086q.15.574.243,1.147a13.673,13.673,0,0,1,.166,3.044c-.189.011-.378.022-.567.041a13.033,13.033,0,0,0-.154-3m-9.1,15.66a25.834,25.834,0,0,1-10.9,4.372,24.452,24.452,0,0,1,7.162-9.042,22.6,22.6,0,0,1,5.987-3.114l0,.011c.309-.112.617-.219.922-.319.031-.011.058-.018.085-.026a29.7,29.7,0,0,1,3.78-.906,15.238,15.238,0,0,1-.675,1.533c0,.008-.008.014-.012.022a23.614,23.614,0,0,1-6.349,7.469m27.362-2.3c-.108-.167-.224-.331-.335-.49s-.228-.319-.348-.471a19.732,19.732,0,0,0-2.978-3.189,18.644,18.644,0,0,0-2.067-1.533c-.154-.1-.312-.2-.471-.293s-.32-.19-.486-.278a18.765,18.765,0,0,0-9.187-2.331c-.151,0-.305,0-.463,0-.331,0-.671.019-1.014.041-.143.008-.285.015-.428.03-.193.011-.386.03-.583.052-.482.048-.98.111-1.485.2a30.288,30.288,0,0,0-4.725,1.173c-.151.045-.3.1-.447.149-.193.063-.4.126-.594.2v0a24.043,24.043,0,0,0-6.352,3.307,26.725,26.725,0,0,0-8.5,11.745c1.712-.126,8.5-.88,13.962-4.937a22.149,22.149,0,0,0,3.765-3.582l0,0a22.042,22.042,0,0,0,2.943-4.291c.031-.052.058-.1.084-.159a16.558,16.558,0,0,0,.98-2.394c.069-.011.139-.018.208-.026l.4-.045a16.57,16.57,0,0,1-1.041,2.628c-.015.03-.031.055-.043.085a22.611,22.611,0,0,1-3.093,4.548l0,0h0a22.736,22.736,0,0,1-3.853,3.664c-6.423,4.769-14.611,5.074-14.7,5.077l-.389.011.112-.36a27.349,27.349,0,0,1,8.825-12.39,24.552,24.552,0,0,1,6.5-3.382v0c.069-.026.139-.052.208-.074.111-.041.228-.082.343-.119a.764.764,0,0,1,.085-.03,30.515,30.515,0,0,1,5.446-1.344c.49-.074.98-.134,1.462-.178.193-.019.386-.033.579-.048.482-.03.96-.052,1.431-.052.181,0,.359,0,.536,0a19.623,19.623,0,0,1,9.342,2.383c.162.089.324.182.482.278s.315.189.47.289a18.694,18.694,0,0,1,2.133,1.578,20.366,20.366,0,0,1,2.939,3.114c.119.156.235.312.347.472s.232.319.34.483a25.908,25.908,0,0,1,3.861,9.205l-.505.3a25.539,25.539,0,0,0-3.691-9.023m9.766,8.86a19.189,19.189,0,0,0-3.9,1.243c-.139.059-.278.122-.413.19-.305.137-.605.289-.9.449-.127.067-.255.134-.382.207-.05.026-.1.052-.143.082-.444.249-.88.52-1.3.809a23.483,23.483,0,0,0-6.418,6.592,21.248,21.248,0,0,0-2.148,3.831c0,.007-.008.018-.012.026a23.422,23.422,0,0,0-1.724,9.094,26.957,26.957,0,0,0,.482,5.164c1.415-.935,6.9-4.859,9.515-11.006a20.033,20.033,0,0,0,.88-2.535,22.17,22.17,0,0,0,.532-2.472c.019-.1.035-.208.05-.316a31.345,31.345,0,0,0,.308-7.739c.073-.045.151-.089.224-.134l.308-.178a31.73,31.73,0,0,1-.285,8.133c-.015.107-.031.219-.054.33q-.208,1.209-.513,2.413c-.008.03-.016.063-.023.093a20.649,20.649,0,0,1-.907,2.614c-3.078,7.219-10.005,11.432-10.075,11.473l-.332.2-.092-.363c-.02-.078-1.883-7.761,1.191-14.981,0,0,0,0,0-.008l.509.219-.509-.223c.007-.015.011-.026.019-.04a31.448,31.448,0,0,1,1.951-3.542l.143-.215a24,24,0,0,1,6.9-7.034c0,.026.008.052.012.074.636-.457,1.034-.7,1.049-.709l.236-.141.054-.033a.105.105,0,0,1,.039-.023c.143-.078.285-.156.427-.23.282-.145.568-.286.857-.416.15-.071.3-.137.455-.2a19.824,19.824,0,0,1,3.973-1.24c.37-.078.74-.141,1.119-.2,0,.181.008.36.016.542-.378.055-.749.118-1.119.2m-14.314,13.934a30.576,30.576,0,0,1,1.794-3.281.076.076,0,0,0,.012-.018,26.764,26.764,0,0,1,5.357-5.743,26.208,26.208,0,0,1-.116,6.255c-.011.1-.031.2-.046.3-.139.791-.309,1.585-.513,2.372a18.782,18.782,0,0,1-.818,2.346,24.5,24.5,0,0,1-7.159,9.043c-.077-.772-.135-1.689-.135-2.7a22.089,22.089,0,0,1,1.6-8.522c.008-.019.016-.033.024-.052m40.284-.716c3.074,7.22,1.207,14.9,1.188,14.981l-.089.363-.332-.2c-.069-.041-7-4.254-10.075-11.473a20.118,20.118,0,0,1-.9-2.614h0c-.007-.03-.015-.063-.023-.093q-.295-1.147-.5-2.3c-.008-.037-.012-.074-.019-.112a31.962,31.962,0,0,1-.34-8.467c.1.059.208.119.312.182.073.041.147.085.22.134a31.511,31.511,0,0,0,.378,8.155v.008c.1.612.228,1.24.39,1.87.031.119.058.234.088.353.012.048.024.093.035.141h0a20.128,20.128,0,0,0,.879,2.535c2.616,6.147,8.1,10.07,9.512,11.006a25.729,25.729,0,0,0-1.242-14.254v0c0-.008-.008-.019-.012-.026a21.058,21.058,0,0,0-2.129-3.8.24.24,0,0,1-.02-.03c-.139-.208-.281-.416-.428-.62-.05-.078-.1-.152-.162-.227-.1-.137-.2-.275-.3-.408q-.225-.306-.463-.6c-.069-.089-.139-.178-.212-.264q-.642-.785-1.335-1.5c-.124-.13-.251-.26-.382-.386v0l-.023-.022a.121.121,0,0,0-.031-.026c-.081-.089-.173-.174-.266-.26s-.193-.186-.293-.271c-.128-.123-.255-.237-.386-.349q-.238-.212-.486-.412c-.081-.071-.166-.141-.255-.208-.308-.253-.624-.49-.949-.717-.147-.107-.293-.211-.444-.308q-.642-.434-1.307-.813c-.046-.026-.093-.055-.139-.078-.127-.074-.255-.145-.386-.212-.3-.159-.594-.308-.9-.445-.135-.067-.274-.13-.412-.189a19.032,19.032,0,0,0-3.514-1.165c-.37-.086-.744-.16-1.119-.219v-.557c.374.063.748.134,1.119.219a19.729,19.729,0,0,1,3.61,1.162l.452.2v0c.289.13.57.267.852.412.177.093.347.186.52.282,0,0,0,.008,0,.011l.239.141c.016.011.413.252,1.049.709l.012-.078a24.017,24.017,0,0,1,6.85,6.967c.02.03.039.056.058.086a30.732,30.732,0,0,1,2.087,3.749c0,.011.012.023.016.033v0s0,0,0,.008m-1.817.716c.008.019.016.033.023.052a23.568,23.568,0,0,1,1.466,11.225,24.5,24.5,0,0,1-7.162-9.043,18.792,18.792,0,0,1-.818-2.346h0q-.306-1.186-.513-2.379c-.015-.1-.035-.193-.046-.293a26.336,26.336,0,0,1-.115-6.262,26.573,26.573,0,0,1,5.358,5.746c.007.011.015.022.023.037a30.923,30.923,0,0,1,1.782,3.262m20.624-30.255c.046.015.093.03.139.048.166.056.332.115.5.174v0a24.7,24.7,0,0,1,6.495,3.382A27.332,27.332,0,0,1,186.5,150.6l.108.36-.386-.011c-.085,0-8.274-.308-14.7-5.077a22.562,22.562,0,0,1-3.854-3.667,28,28,0,0,1-3.1-4.54c-.012-.026-.028-.048-.039-.074v0s0,0,0-.008c-.564-1.032-.984-1.945-1.28-2.647.077,0,.154.011.235.019l.4.045c.289.668.679,1.5,1.184,2.42a.122.122,0,0,1,.019.037,28.04,28.04,0,0,0,3.012,4.414,22.459,22.459,0,0,0,3.768,3.578c5.466,4.057,12.25,4.811,13.963,4.937a26.725,26.725,0,0,0-8.5-11.745,24.056,24.056,0,0,0-6.353-3.307c-.228-.082-.455-.159-.679-.23l-.17-.056c-.1-.037-.2-.071-.309-.1l-.278-.089q-1.424-.451-2.747-.739c-.162-.037-.324-.071-.482-.1-.374-.077-.741-.144-1.1-.2-.505-.085-1-.149-1.485-.2-.2-.023-.389-.041-.583-.052-.143-.014-.285-.022-.427-.03-.344-.022-.683-.037-1.015-.041-.158,0-.312,0-.462,0a18.742,18.742,0,0,0-9.192,2.335c-.166.089-.324.182-.482.275s-.316.193-.471.293a18.643,18.643,0,0,0-2.067,1.533,19.825,19.825,0,0,0-3.213,3.507c-.116.16-.228.319-.34.483s-.224.331-.328.5a25.548,25.548,0,0,0-3.471,8.686l-.509-.3a26.172,26.172,0,0,1,3.638-8.879q.168-.25.335-.49c.112-.163.228-.323.344-.479a20.4,20.4,0,0,1,3.17-3.426,18.748,18.748,0,0,1,2.133-1.578c.154-.1.312-.2.471-.289s.324-.19.486-.278a19.623,19.623,0,0,1,9.342-2.383c.177,0,.355,0,.536,0,.471,0,.948.022,1.431.052.192.015.386.03.579.048q.723.067,1.458.178a30.315,30.315,0,0,1,5.45,1.344m-.058,1.993,0-.014a22.692,22.692,0,0,1,5.986,3.118,24.387,24.387,0,0,1,7.159,9.042,25.873,25.873,0,0,1-10.9-4.372,20.976,20.976,0,0,1-3.545-3.37c-.023-.03-.05-.06-.073-.086l-.008-.008c-.011-.011-.019-.026-.031-.037s-.012-.011-.015-.018-.008-.008-.008-.011a26.536,26.536,0,0,1-2.665-3.935c-.008-.018-.02-.033-.027-.052a.186.186,0,0,0-.016-.03c-.247-.494-.463-.992-.652-1.485a29.1,29.1,0,0,1,3.549.835.754.754,0,0,1,.089.026c.382.122.767.256,1.157.4m-6.854-7.887a13.033,13.033,0,0,0-.154,3c-.193-.019-.382-.03-.568-.041a13.674,13.674,0,0,1,.166-3.044q.1-.574.243-1.147h0c.139.03.285.06.428.086l-.024.245c.016,0,.043,0,.085.008-.073.3-.132.6-.181.895m11.263-12.32a26.088,26.088,0,0,1,11.359-3.122,24.769,24.769,0,0,1-8.208,8.181,26.029,26.029,0,0,1-11.232,3.111,1.07,1.07,0,0,1-.108,0c-.042,0-.084,0-.127,0a22.99,22.99,0,0,1,8.316-8.177m-19.224-.672v0c0,.059.016.115.023.171v0c.024.134.046.267.073.4a1.181,1.181,0,0,0,.031.171,15.045,15.045,0,0,0,1.257,3.909,9.269,9.269,0,0,0,5.493,4.933,9.628,9.628,0,0,0,1.362.357.014.014,0,0,0,.008,0c.181.037.363.071.551.1h0a12.826,12.826,0,0,0,1.451.134c-.008.015-.015.033-.023.052.312-.008.652-.019,1.018-.041h.027a22.186,22.186,0,0,0,4.073-.505l0-.007a25,25,0,0,0,7.753-2.788,27.065,27.065,0,0,0,9.87-10.712c-1.712-.063-8.54-.082-14.46,3.333h0l0,0a23.972,23.972,0,0,0-9.118,9.25c-.2-.022-.386-.049-.574-.081a24.392,24.392,0,0,1,9.408-9.635c6.954-4.01,15.123-3.393,15.2-3.39l.389.033-.154.345a27.676,27.676,0,0,1-10.268,11.314,25.7,25.7,0,0,1-7.919,2.858h0a32.174,32.174,0,0,1-3.942.505h-.012c-.177,0-.351.007-.525.007-.32,0-.636-.007-.945-.026-.494-.03-.968-.081-1.431-.156-.135-.023-.27-.045-.405-.071l0,0c-.05-.008-.1-.015-.147-.026a11.332,11.332,0,0,1-1.354-.368,9.8,9.8,0,0,1-5.824-5.186,15.571,15.571,0,0,1-1.261-3.849c-.012-.055-.02-.115-.031-.171-.027-.134-.05-.267-.074-.4-.007-.056-.015-.115-.026-.171-.02-.134-.039-.268-.058-.405l.516-.289c.016.137.035.267.058.4" transform="translate(-43.234 -30.74)" fill="#56853c"/><path d="M259.228,309.283V324.76c1.367-4.787,4.866-7.575,9.511-7.575,5.576,0,8.638,3.683,8.638,9.154v11.521c0,3.472.273,4.314,2.788,5.629v.105H266.717v-.105c2.515-1.315,2.788-2.157,2.788-5.629V326.339c0-2.946-1.256-5.366-4.482-5.366-3.389,0-5.794,2.893-5.794,8.1v8.785c0,3.472.273,4.314,2.788,5.629v.105H251.355V315.07c0-3.314-.71-4.524-3.279-5.681v-.105Z" transform="translate(-105.209 -133.819)" fill="#003d55"/><path d="M85.252,341.676c0-3.5.109-6.8.109-10.568,0-6.436-4.458-9.052-12.667-9.052a16.494,16.494,0,0,0-5.868.986A6.8,6.8,0,0,1,68,324.923a6.719,6.719,0,0,1,4.533-1.873c3.643,0,5,2.825,5,5.964v4.291l-4.132.731c-6.524,1.152-12.613,2.355-12.613,8.111,0,4.447,3.643,6.54,7.937,6.54,4.567,0,8.1-2.774,8.862-6.331,0,.366.109,1.569.109,1.779.434,2.825,2.392,4.656,6.251,4.656a8.139,8.139,0,0,0,5.927-2.354v-.1a3.041,3.041,0,0,1-1.36.314c-2.555,0-3.262-1.726-3.262-4.97m-7.829-2.355c-.055,3.715-2.229,6.278-5.112,6.278-2.283,0-3.7-1.517-3.7-4.5,0-3.5,1.849-5.441,6.089-6.278l2.827-.576Z" transform="translate(-40.516 -138.546)" fill="#003d55"/><path d="M140.428,322.991v-.105h-7.937v.105a3.486,3.486,0,0,1,2.555,3.4,6.041,6.041,0,0,1-.49,2.3l-4.513,10.622-4.3-10.882a12.039,12.039,0,0,1-.815-3.035,2.484,2.484,0,0,1,1.631-2.407v-.105h-12.4v.105c1.794,1.412,2.392,2.2,3.969,5.545l.815,1.832-4.295,9.155-5.111-11.144a8.726,8.726,0,0,1-.816-3.035,2.35,2.35,0,0,1,1.36-2.354v-.105H97.7v.105c1.794,1.412,2.446,2.25,3.969,5.545l9.677,20.615h.109l8.155-17.214,7.449,17.214h.109l9.078-20.511c1.577-3.453,2.338-4.238,4.187-5.65" transform="translate(-53.265 -138.853)" fill="#003d55"/><path d="M188.064,337.892V309.284H176.973v.1c2.555,1.152,3.262,2.355,3.262,5.652v8.83a8.986,8.986,0,0,0-8.97-6.54c-6.687,0-12.124,5.388-12.124,13.654,0,8.11,5.274,13.133,11.744,13.133a9.519,9.519,0,0,0,9.351-7.221v6.7H191v-.1c-2.447-1.308-2.936-2.407-2.936-5.6m-7.829-4.709c0,4.761-3.1,7.8-6.306,7.8-4.078,0-6.417-3.663-6.417-9.994,0-7.114,2.23-11.2,6.362-11.2,3.207,0,6.361,3.191,6.361,8.266Z" transform="translate(-74.489 -133.82)" fill="#003d55"/><path d="M48.086,331.683a2.892,2.892,0,0,0,1.9.576,4.923,4.923,0,0,0,4.948-5.233c0-2.878-2.229-4.97-5.546-4.97-4.839,0-7.394,4.29-8.7,9.1v-8.581H29.819v.1c2.555,1.308,3.044,2.354,3.044,5.7v14.231c0,3.453-.272,4.29-2.718,5.6v.1H45.1v-.1c-2.99-1.1-4.4-2.146-4.4-5.6v-7.273c0-5.232,2.773-8.895,5.872-8.895,2.065,0,3.207,1.046,3.207,2.773a2.53,2.53,0,0,1-1.686,2.459" transform="translate(-29.819 -138.546)" fill="#003d55"/><path d="M236.119,346.646c-2.555,0-3.262-1.726-3.262-4.97,0-3.5.109-6.8.109-10.568,0-6.436-4.458-9.052-12.667-9.052-6.308,0-10.656,2.825-10.656,6.592,0,2.564,2.066,4.186,4.729,4.186a4.707,4.707,0,0,0,4.729-2.826,2.833,2.833,0,0,1-.922.157c-1.578,0-2.556-1.1-2.556-3.036,0-2.25,1.413-4.081,4.513-4.081,3.642,0,5,2.826,5,5.964v4.292l-4.132.731c-6.525,1.152-12.613,2.355-12.613,8.111,0,4.447,3.642,6.54,7.937,6.54,4.568,0,8.1-2.774,8.862-6.331,0,.366.109,1.569.109,1.779.434,2.825,2.392,4.656,6.251,4.656a8.139,8.139,0,0,0,5.927-2.354v-.105a3.033,3.033,0,0,1-1.36.314m-11.091-7.325c-.055,3.715-2.229,6.278-5.111,6.278-2.283,0-3.7-1.517-3.7-4.5,0-3.5,1.849-5.441,6.089-6.278l2.827-.576Z" transform="translate(-91.501 -138.546)" fill="#003d55"/></g><g transform="translate(-2069.999 7283.306)"><path d="M71.969,405.749,77.8,392.231h2.682v16.616H78.724V394.483h-.048L72.43,408.847H71.5l-6.245-14.364h-.048v14.364H63.457V392.231h2.684Z" transform="translate(-63.457 -391.81)" fill="#003d55"/><path d="M95.088,408.847H93.037l7.511-16.616h1.707l7.512,16.616h-2.051l-1.9-4.365H96.985Zm2.56-5.915h7.487l-3.729-8.73Z" transform="translate(-73.674 -391.81)" fill="#003d55"/><path d="M121.8,392.231h5.731a10.616,10.616,0,0,1,3.23.515,9.051,9.051,0,0,1,2.927,1.56,7.988,7.988,0,0,1,2.11,2.6,8.608,8.608,0,0,1,0,7.266,8.009,8.009,0,0,1-2.11,2.593,9.027,9.027,0,0,1-2.927,1.562,10.613,10.613,0,0,1-3.23.517H121.8Zm1.756,15.07h3.414a9.285,9.285,0,0,0,3.427-.574,7.106,7.106,0,0,0,2.414-1.525,6.059,6.059,0,0,0,1.426-2.159,6.965,6.965,0,0,0,0-5,6.056,6.056,0,0,0-1.426-2.159,7.1,7.1,0,0,0-2.414-1.525,9.275,9.275,0,0,0-3.427-.576H123.56Z" transform="translate(-83.611 -391.81)" fill="#003d55"/><path d="M151.54,408.842h-1.757V392.225H155.1a6.963,6.963,0,0,1,4.158,1.1,3.841,3.841,0,0,1,1.525,3.332,4.065,4.065,0,0,1-1.134,2.922,4.96,4.96,0,0,1-3.28,1.372l4.975,7.887H159.2l-4.733-7.722h-2.925Zm0-9.271h3.122a7.279,7.279,0,0,0,1.987-.234,3.761,3.761,0,0,0,1.305-.622,2.3,2.3,0,0,0,.708-.916,2.953,2.953,0,0,0,.219-1.137,2.9,2.9,0,0,0-.219-1.116,2.385,2.385,0,0,0-.708-.927,3.488,3.488,0,0,0-1.305-.621,7.617,7.617,0,0,0-1.987-.224H151.54Z" transform="translate(-93.275 -391.804)" fill="#003d55"/><path d="M170.348,408.847H168.3l7.512-16.616h1.706l7.512,16.616h-2.051l-1.9-4.365h-8.828Zm2.56-5.915H180.4l-3.728-8.73Z" transform="translate(-99.67 -391.81)" fill="#003d55"/><path d="M205.017,394.728a3.839,3.839,0,0,0-3.341-1.615,5.151,5.151,0,0,0-1.341.18,3.766,3.766,0,0,0-1.183.538,2.713,2.713,0,0,0-.839.939,2.745,2.745,0,0,0-.317,1.346,2.289,2.289,0,0,0,.657,1.749,5.237,5.237,0,0,0,1.635,1.021,18.581,18.581,0,0,0,2.133.717,10.05,10.05,0,0,1,2.135.845,5.045,5.045,0,0,1,1.633,1.4,3.832,3.832,0,0,1,.659,2.37,4.128,4.128,0,0,1-.5,2.031,4.714,4.714,0,0,1-1.317,1.514,6.276,6.276,0,0,1-1.829.938,6.551,6.551,0,0,1-2.037.328,7.972,7.972,0,0,1-3.012-.574,5.686,5.686,0,0,1-2.423-1.89l1.61-1.1a4.124,4.124,0,0,0,1.556,1.467,4.8,4.8,0,0,0,2.357.551,4.491,4.491,0,0,0,1.312-.2,3.831,3.831,0,0,0,1.18-.588,3.274,3.274,0,0,0,.863-.95,2.449,2.449,0,0,0,.34-1.291,2.58,2.58,0,0,0-.378-1.444,3.225,3.225,0,0,0-1-.963,6.5,6.5,0,0,0-1.414-.646q-.793-.256-1.635-.516t-1.633-.586a5.623,5.623,0,0,1-1.414-.833,3.73,3.73,0,0,1-1-1.267,4.286,4.286,0,0,1-.378-1.913,4.257,4.257,0,0,1,1.743-3.569,5.482,5.482,0,0,1,1.792-.868,7.886,7.886,0,0,1,4.707.164,5.72,5.72,0,0,1,2.22,1.572Z" transform="translate(-109.147 -391.562)" fill="#003d55"/><path d="M216.623,408.847h-2.051l7.511-16.616h1.708l7.512,16.616h-2.051l-1.9-4.365h-8.824Zm2.561-5.915h7.486l-3.729-8.73Z" transform="translate(-115.655 -391.81)" fill="#003d55"/><path d="M243.711,392.231h1.756v7.2h9.415v-7.2h1.757v16.616h-1.757v-7.864h-9.415v7.864h-1.756Z" transform="translate(-125.72 -391.81)" fill="#003d55"/></g></g></svg>